<?xml version="1.0" encoding="UTF-8" standalone="no"?>
<!-- Created with Inkscape (http://www.inkscape.org/) -->

<svg
   xmlns:dc="http://purl.org/dc/elements/1.1/"
   xmlns:cc="http://creativecommons.org/ns#"
   xmlns:rdf="http://www.w3.org/1999/02/22-rdf-syntax-ns#"
   xmlns:svg="http://www.w3.org/2000/svg"
   xmlns="http://www.w3.org/2000/svg"
   xmlns:sodipodi="http://sodipodi.sourceforge.net/DTD/sodipodi-0.dtd"
   xmlns:inkscape="http://www.inkscape.org/namespaces/inkscape"
   width="160"
   height="91.949997"
   id="svg2"
   version="1.1"
   inkscape:version="0.48.3.1 r9886"
   inkscape:export-filename="integral.png"
   inkscape:export-xdpi="150"
   inkscape:export-ydpi="150"
   sodipodi:docname="lde2.svg">
  <defs
     id="defs4" />
  <sodipodi:namedview
     id="base"
     pagecolor="#9fffa7"
     bordercolor="#666666"
     borderopacity="1.0"
     inkscape:pageopacity="0"
     inkscape:pageshadow="2"
     inkscape:zoom="4.8164584"
     inkscape:cx="80"
     inkscape:cy="61.974998"
     inkscape:document-units="px"
     inkscape:current-layer="layer1"
     showgrid="false"
     inkscape:window-width="1231"
     inkscape:window-height="776"
     inkscape:window-x="49"
     inkscape:window-y="24"
     inkscape:window-maximized="1"
     fit-margin-top="0"
     fit-margin-left="0"
     fit-margin-right="0"
     fit-margin-bottom="0"
     showguides="true"
     inkscape:guide-bbox="true">
    <sodipodi:guide
       orientation="0,1"
       position="109.62412,63.532159"
       id="guide4800" />
  </sodipodi:namedview>
  <metadata
     id="metadata7">
    <rdf:RDF>
      <cc:Work
         rdf:about="">
        <dc:format>image/svg+xml</dc:format>
        <dc:type
           rdf:resource="http://purl.org/dc/dcmitype/StillImage" />
        <dc:title></dc:title>
      </cc:Work>
    </rdf:RDF>
  </metadata>
  <g
     inkscape:label="Layer 1"
     inkscape:groupmode="layer"
     id="layer1"
     transform="translate(-6.6292965,-939.95564)">
    <path
       style="fill:#4d4d4d;fill-opacity:1;stroke:#050101;stroke-width:0;stroke-miterlimit:0.30000000999999998;stroke-opacity:1;stroke-dasharray:none"
       id="path5241"
       d="m 13.00816,17.732214 c -0.03342,-1.180901 -0.03192,-2.366411 0.02679,-3.546656 0.09306,-1.248697 0.250758,-1.126343 2.25126,-1.878369 0.132663,-0.04987 0.127262,0.25528 0.164793,0.391947 0.06819,0.248306 0.195543,1.295381 0.213891,1.433445 0.330999,2.752843 0.453825,5.527116 0.835097,8.274751 0.09485,0.683533 0.21579,1.363192 0.323684,2.044787 0.537809,2.650285 1.157216,5.852007 3.242697,7.783471 0.316111,0.292766 0.697758,0.505653 1.046637,0.75848 0.385922,0.146943 0.757222,0.340364 1.157766,0.440828 1.727324,0.433248 3.54711,-0.06352 5.093856,-0.843639 0.421349,-0.212513 0.814985,-0.476012 1.222478,-0.714018 0,0 -1.747522,1.41377 -1.747522,1.41377 l 0,0 c -0.41386,0.23112 -0.814046,0.488639 -1.241579,0.693361 -1.597828,0.765113 -3.466401,1.218019 -5.217314,0.716766 -0.410814,-0.117608 -0.788264,-0.33021 -1.182396,-0.495315 -0.35289,-0.270585 -0.739987,-0.501612 -1.058672,-0.811754 -2.067854,-2.012418 -2.65826,-5.244204 -3.203033,-7.942414 -0.110426,-0.683049 -0.231298,-1.364491 -0.33128,-2.049147 -0.396762,-2.716944 -0.573418,-5.461898 -1.01181,-8.172795 -0.05205,-0.276869 -0.09824,-0.554905 -0.156147,-0.830609 -0.278937,-1.328087 -0.462434,-0.587913 1.892435,-1.867 0.174491,-0.09478 -0.630239,0.844566 -0.146172,0.5775 -0.104526,1.156574 -0.110316,2.333341 -0.0049,3.489283 0,0 -2.170525,1.133327 -2.170525,1.133327 z"
       inkscape:connector-curvature="0"
       transform="translate(6.6292965,939.95564)" />
    <path
       style="fill:#4d4d4d;fill-opacity:1;stroke:#050101;stroke-width:0;stroke-miterlimit:0.30000000999999998;stroke-opacity:1;stroke-dasharray:none"
       id="path5243"
       d="m 20.478792,16.389264 c -0.02612,-0.211843 -0.0245,-0.263127 -0.0821,-0.470135 -0.01756,-0.0631 -0.0296,-0.130009 -0.0639,-0.185804 -0.01061,-0.01726 -0.07712,-0.005 -0.05909,-0.01425 2.235215,-1.143414 2.53723,-1.587292 1.832358,-0.732652 -0.09142,0.186016 -0.190612,0.36841 -0.274262,0.558047 -0.477741,1.083058 -0.853351,2.215582 -1.264337,3.324417 -0.611223,1.649078 -0.598082,1.605932 -1.241484,3.309184 -1.324589,3.423025 -2.61381,6.859979 -3.951784,10.27775 -0.351827,0.852875 -0.634191,1.755958 -1.132409,2.541723 -0.08167,0.128807 -0.152099,0.279793 -0.281269,0.360888 -0.772721,0.485131 -1.551691,0.97841 -2.397386,1.320829 -0.134399,0.05442 -0.26018,-0.128078 -0.39027,-0.192117 -0.126322,-0.123437 -0.26795,-0.232945 -0.378966,-0.370311 -0.252615,-0.312575 -0.53384,-0.852232 -0.710917,-1.198319 C 9.7071282,34.183933 9.3777049,33.425964 9.0212407,32.68192 8.5581674,31.807322 8.7960248,32.221351 8.3133977,31.436559 c 0,0 2.0560153,-1.191051 2.0560153,-1.191051 l 0,0 c 0.470049,0.810926 0.236158,0.386081 0.697574,1.276782 0.350806,0.740926 0.677951,1.494817 1.066576,2.217167 0.169892,0.315785 0.452735,0.8297 0.706549,1.108404 0.100085,0.1099 0.230705,0.187498 0.346057,0.281247 0.94407,0.184897 0.595339,0.04553 -1.44828,1.16541 -0.138279,0.07578 0.239726,-0.208217 0.335486,-0.333487 0.581576,-0.760806 0.876014,-1.707246 1.267146,-2.565355 1.412287,-3.403413 2.721244,-6.849586 4.014023,-10.299863 0.864352,-2.368768 1.667293,-4.758958 2.531354,-7.127066 0.05235,-0.118785 0.04697,-0.287535 0.157037,-0.356355 1.998502,-1.24964 2.338127,-1.926335 2.613862,-0.378574 0,0 -2.178005,1.155446 -2.178005,1.155446 z"
       inkscape:connector-curvature="0"
       transform="translate(6.6292965,939.95564)" />
    <path
       style="fill:#4d4d4d;fill-opacity:1;stroke:#050101;stroke-width:0;stroke-miterlimit:0.30000000999999998;stroke-opacity:1;stroke-dasharray:none"
       id="path5245"
       d="M 24.600437,8.3236121 C 24.401556,7.7598169 24.104558,7.2125638 23.97791,6.6259889 c 0.770244,-0.362006 1.492525,-0.8517947 2.310733,-1.0860179 0.138757,-0.039721 0.174208,0.2305872 0.25131,0.3525979 0.105648,0.1671844 0.204407,0.3388958 0.296322,0.514007 0.416638,0.7937567 0.71394,1.6352235 1.026993,2.4730277 0.480692,1.4328654 0.790507,2.9142734 1.108541,4.3892794 0,0 -2.020938,1.084254 -2.020938,1.084254 l 0,0 C 26.637075,12.891023 26.329305,11.422528 25.836223,10.007584 25.515557,9.1895266 25.211899,8.3694016 24.767856,7.6077477 24.672738,7.4445944 24.570552,7.2851811 24.459294,7.1325767 24.385629,7.0315357 24.124311,6.9352991 24.214311,6.8484897 24.785309,6.297733 25.515425,5.940422 26.165982,5.4863882 c -0.03449,0.3988557 0.407683,1.2367917 0.574687,1.6186097 0,0 -2.140232,1.2186142 -2.140232,1.2186142 z"
       inkscape:connector-curvature="0"
       transform="translate(6.6292965,939.95564)" />
    <path
       style="fill:#4d4d4d;fill-opacity:1;stroke:#050101;stroke-width:0;stroke-miterlimit:0.30000000999999998;stroke-opacity:1;stroke-dasharray:none"
       id="path5247"
       d="m 40.026698,21.50433 c 1.673586,0.189435 3.362554,0.04395 5.039226,-0.02876 0.37537,-0.02455 0.75074,-0.0491 1.12611,-0.07366 0,0 -1.850233,1.362236 -1.850233,1.362236 l 0,0 c -0.375595,0.02301 -0.75119,0.04602 -1.126785,0.06903 -1.728997,0.08171 -3.463936,0.224811 -5.193936,0.09055 0,0 2.005618,-1.4194 2.005618,-1.4194 z"
       inkscape:connector-curvature="0"
       transform="translate(6.6292965,939.95564)" />
    <path
       style="fill:#4d4d4d;fill-opacity:1;stroke:#050101;stroke-width:0;stroke-miterlimit:0.30000000999999998;stroke-opacity:1;stroke-dasharray:none"
       id="path5249"
       d="m 39.817018,25.965016 c 1.67234,-0.330781 3.352816,-0.617996 5.0399,-0.861809 0.40303,-0.05554 0.80606,-0.111073 1.20909,-0.166609 0,0 -1.826784,1.366503 -1.826784,1.366503 l 0,0 c -0.404773,0.05769 -0.809546,0.115378 -1.214318,0.173066 -1.729944,0.266354 -3.456088,0.56848 -5.159718,0.973209 0,0 1.95183,-1.48436 1.95183,-1.48436 z"
       inkscape:connector-curvature="0"
       transform="translate(6.6292965,939.95564)" />
    <path
       style="fill:#4d4d4d;fill-opacity:1;stroke:#050101;stroke-width:0;stroke-miterlimit:0.30000000999999998;stroke-opacity:1;stroke-dasharray:none"
       id="path5251"
       d="m 53.447522,35.36202 c -0.230884,-0.371234 -0.489613,-0.723102 -0.747223,-1.075789 -0.0074,-0.0013 -0.02888,-1.38e-4 -0.02229,-0.0038 2.68495,-1.488349 1.699395,-1.737041 2.521463,-0.576313 0.119732,0.09915 0.227932,0.266158 0.37741,0.32862 0.111835,0.04673 0.173378,-0.0657 0.16334,-0.06022 -0.694654,0.378664 -1.381812,0.770922 -2.072719,1.156383 0.242441,-0.391996 -0.233512,-0.980542 -0.479819,-1.266444 -0.20082,-0.216522 -0.404337,-0.292426 -0.685815,-0.326012 0,0 2.013081,-1.393909 2.013081,-1.393909 l 0,0 c 0.298981,0.09812 0.548081,0.219567 0.759454,0.465605 0.364202,0.441372 0.69621,0.96633 0.675547,1.560079 -1.66395,0.978327 -1.892232,1.888786 -2.865007,0.781894 -0.84347,-1.209544 -0.492656,-0.714591 1.709706,-1.969804 0.01996,-0.01138 0.02625,0.03773 0.03937,0.05659 0.212119,0.371351 0.489255,0.705491 0.728653,1.058931 0,0 -2.11515,1.264186 -2.11515,1.264186 z"
       inkscape:connector-curvature="0"
       transform="translate(6.6292965,939.95564)" />
    <path
       style="fill:#4d4d4d;fill-opacity:1;stroke:#050101;stroke-width:0;stroke-miterlimit:0.30000000999999998;stroke-opacity:1;stroke-dasharray:none"
       id="path5253"
       d="m 63.834296,33.738379 c -0.136258,-0.131992 -0.253319,-0.290965 -0.415965,-0.393834 -0.03904,-0.02469 -0.08051,-0.05832 -0.126659,-0.05627 -0.03346,0.0015 -0.105858,0.08118 -0.07637,0.0653 0.694544,-0.374013 1.382305,-0.760488 2.073457,-1.140732 -0.213594,0.271277 0.558897,0.702736 0.729081,0.791501 0.242915,0.106096 0.509045,0.193872 0.777196,0.127995 0.06442,-0.01582 0.239372,-0.113935 0.181649,-0.08125 -2.065657,1.169509 -2.490461,1.674392 -1.910813,1.013929 0.04281,-0.39065 -0.275273,-0.631039 -0.555824,-0.84247 0,0 2.069942,-1.302192 2.069942,-1.302192 l 0,0 c 0.358158,0.29404 0.674922,0.606183 0.713515,1.094677 -0.0069,0.07575 0.04233,0.184675 -0.0207,0.227262 -0.547726,0.370083 -1.717182,1.495885 -2.717764,1.302865 -0.260877,-0.05032 -0.337019,-0.101212 -0.580261,-0.209349 -0.452609,-0.265988 -0.913158,-0.598712 -0.967081,-1.162305 2.142589,-1.249694 1.79361,-1.824819 2.930339,-0.724298 0,0 -2.103745,1.289177 -2.103745,1.289177 z"
       inkscape:connector-curvature="0"
       transform="translate(6.6292965,939.95564)" />
    <path
       style="fill:#4d4d4d;fill-opacity:1;stroke:#050101;stroke-width:0;stroke-miterlimit:0.30000000999999998;stroke-opacity:1;stroke-dasharray:none"
       id="path5255"
       d="m 77.015904,31.162755 c -0.520282,0.364242 -0.328739,0.82361 0.04503,1.208139 0.560749,0.387333 1.062604,0.415205 1.622115,0.02974 -3.363556,1.920713 -1.773367,1.514411 -1.695255,0.512391 0,0 2.188868,-1.110746 2.188868,-1.110746 l 0,0 c 0.04155,1.329008 -1.032189,1.410711 -2.398884,2.13309 -0.667902,0.277981 -1.233157,0.146275 -1.798616,-0.298153 -0.423162,-0.466089 -0.695071,-1.018943 -0.264531,-1.586638 0,0 2.301268,-0.887819 2.301268,-0.887819 z"
       inkscape:connector-curvature="0"
       transform="translate(6.6292965,939.95564)" />
    <path
       style="fill:#4d4d4d;fill-opacity:1;stroke:#050101;stroke-width:0;stroke-miterlimit:0.30000000999999998;stroke-opacity:1;stroke-dasharray:none"
       id="path5257"
       d="m 10.384425,69.616694 c 0.569139,-1.743063 0.991162,-3.530248 1.422486,-5.311159 0.225216,-0.887202 0.432851,-1.778654 0.644364,-2.669159 0.01196,-0.05037 0.152222,-0.703827 0.212696,-0.740228 0.721049,-0.434018 1.494769,-0.773823 2.242154,-1.160735 0.04278,0.132243 0.100797,0.260496 0.128351,0.396728 0.02131,0.105354 0.104562,1.079649 0.10906,1.121563 0.07087,0.660365 0.197635,1.256985 0.403948,1.88702 0.191596,0.416021 0.42785,0.879874 0.931389,0.973243 0.470238,0.08719 0.887383,-0.259238 0.822,-0.223647 -0.523875,0.285169 -1.053821,0.55904 -1.580731,0.83856 1.080018,-0.983049 1.736542,-2.305949 2.258401,-3.647327 0.465869,-1.452234 0.537319,-1.518324 2.630157,-2.234807 0.128844,-0.04411 0.14212,0.233771 0.193007,0.360093 0.0683,0.169554 0.108649,0.34907 0.162974,0.523605 0.604579,2.532461 1.221079,5.061716 1.849325,7.588566 0.891887,3.377566 1.653108,6.78469 2.241011,10.227969 0.284585,2.150575 0.799234,4.335425 0.599196,6.520349 -0.02821,0.308139 -0.09755,0.611117 -0.146333,0.916676 -0.263856,1.069767 -0.837228,1.92065 -1.823012,2.443521 -2.873108,1.523932 -1.848999,1.283163 -3.750019,1.541358 -1.788431,0.06449 -3.58094,-0.384352 -5.141346,-1.266311 -0.310196,-0.175326 -0.597615,-0.388201 -0.896423,-0.582301 -1.031831,-0.794996 -1.968465,-1.749241 -2.291938,-3.053932 -0.210515,-0.849087 -0.122001,-1.089145 -0.05796,-1.957141 0.57366,-2.653266 2.248206,-4.525429 4.105105,-6.396723 1.373421,-1.314449 2.824597,-2.543207 4.236166,-3.815818 0,0 2.090734,-0.853309 2.090734,-0.853309 l 0,0 c -1.414388,1.273914 -2.870993,2.500492 -4.252925,3.810172 -1.832902,1.815264 -3.49263,3.635668 -4.101172,6.218629 -0.07825,0.836114 -0.167225,1.041364 0.02426,1.862169 0.294202,1.261124 1.196094,2.176207 2.191583,2.937302 0.291844,0.187271 0.57225,0.393695 0.875532,0.561812 1.546373,0.857196 3.322135,1.262096 5.082883,1.135445 0.304429,-0.0554 1.038511,-0.449147 0.913285,-0.166191 -0.203287,0.459345 -0.852722,0.539854 -1.226947,0.874936 -0.191748,0.171691 0.464094,-0.228236 0.672846,-0.378793 0.418108,-0.301548 0.728327,-0.667483 0.961161,-1.127298 0.123302,-0.243505 0.193958,-0.510267 0.290937,-0.7654 0.05979,-0.299633 0.141677,-0.595693 0.179363,-0.898901 0.270505,-2.176414 -0.221545,-4.378257 -0.483198,-6.526751 -0.558564,-3.443248 -1.317229,-6.846075 -2.22917,-10.213352 -0.648372,-2.497955 -1.282659,-5.002043 -2.015802,-7.476398 -0.05841,-0.155051 -0.108465,-0.313517 -0.175243,-0.465155 -0.02391,-0.05429 -0.14403,-0.115677 -0.09569,-0.150064 0.641911,-0.456603 1.348871,-0.814057 2.023306,-1.221085 -0.04605,0.05315 -0.103315,0.09837 -0.138147,0.159464 -0.117112,0.205422 -0.26868,0.671732 -0.337765,0.866506 -0.531635,1.361142 -1.179304,2.698682 -2.195097,3.770228 -0.846482,0.508094 -1.673466,1.050181 -2.539444,1.524283 -0.146316,0.0801 -0.316691,0.119123 -0.483111,0.130491 -0.760688,0.05196 -1.20394,-0.604241 -1.461985,-1.216141 -0.0658,-0.203106 -0.142535,-0.402988 -0.197392,-0.609317 -0.222527,-0.83697 -0.246773,-1.706817 -0.401138,-2.555679 0.678848,-0.409592 1.338994,-0.851914 2.036543,-1.228775 0.07757,-0.04191 -0.121365,0.13232 -0.15663,0.213123 -0.07086,0.162367 -0.109109,0.337167 -0.157866,0.507481 -0.255882,0.893825 -0.467751,1.800054 -0.709204,2.697709 -0.422694,1.753842 -0.83516,3.510274 -1.270018,5.260997 0,0 -2.218518,1.041899 -2.218518,1.041899 z"
       inkscape:connector-curvature="0"
       transform="translate(6.6292965,939.95564)" />
    <path
       style="fill:#4d4d4d;fill-opacity:1;stroke:#050101;stroke-width:0;stroke-miterlimit:0.30000000999999998;stroke-opacity:1;stroke-dasharray:none"
       id="path5259"
       d="m 20.252385,41.990847 c 0.817363,1.050295 1.570628,2.151071 2.286206,3.272843 1.224476,1.822405 2.034975,3.75304 2.731921,5.821664 0,0 -2.022919,1.114163 -2.022919,1.114163 l 0,0 c -0.673287,-2.039143 -1.485771,-3.986984 -2.719393,-5.7611 -0.725157,-1.097718 -1.4804,-2.195072 -2.37956,-3.158393 0,0 2.103745,-1.289177 2.103745,-1.289177 z"
       inkscape:connector-curvature="0"
       transform="translate(6.6292965,939.95564)" />
    <path
       style="fill:#4d4d4d;fill-opacity:1;stroke:#050101;stroke-width:0;stroke-miterlimit:0.30000000999999998;stroke-opacity:1;stroke-dasharray:none"
       id="path5261"
       d="m 37.300418,58.765377 c 1.417497,-0.279164 2.849089,-0.500754 4.277767,-0.719174 1.21775,-0.163358 0.6201,-0.08841 1.792802,-0.226036 0,0 -1.880015,1.399312 -1.880015,1.399312 l 0,0 c -1.157702,0.132268 -0.566517,0.05851 -1.77334,0.222983 -1.461776,0.232515 -2.931452,0.45761 -4.368429,0.814927 0,0 1.951215,-1.492012 1.951215,-1.492012 z"
       inkscape:connector-curvature="0"
       transform="translate(6.6292965,939.95564)" />
    <path
       style="fill:#4d4d4d;fill-opacity:1;stroke:#050101;stroke-width:0;stroke-miterlimit:0.30000000999999998;stroke-opacity:1;stroke-dasharray:none"
       id="path5263"
       d="m 37.053749,64.513662 c -0.558911,0.06817 -1.32652,0.333738 -1.846624,0.03968 -0.142779,-0.39362 0.07234,-0.50358 0.407252,-0.690758 2.144886,-1.198747 2.086243,-1.345402 3.883257,-1.720609 0.270958,-0.03924 0.541917,-0.07847 0.812875,-0.117707 0,0 -1.87928,1.410843 -1.87928,1.410843 l 0,0 c -0.271724,0.04641 -0.543449,0.09283 -0.815174,0.139241 -0.240012,0.059 -0.482754,0.107836 -0.720038,0.176997 -1.052343,0.306726 -1.199133,0.628387 0.983347,-0.761251 0.216487,-0.137843 -0.753801,0.458973 -0.61491,0.202541 0.554012,0.173026 1.196112,-0.0762 1.738793,-0.179999 0,0 -1.949498,1.50102 -1.949498,1.50102 z"
       inkscape:connector-curvature="0"
       transform="translate(6.6292965,939.95564)" />
    <path
       style="fill:#4d4d4d;fill-opacity:1;stroke:#050101;stroke-width:0;stroke-miterlimit:0.30000000999999998;stroke-opacity:1;stroke-dasharray:none"
       id="path5265"
       d="m 51.999875,74.224559 c -0.181238,-0.141124 -0.373853,-0.18486 -0.600884,-0.12636 -0.302174,0.07786 -0.676781,0.364976 -0.546727,0.297387 0.610476,-0.317268 1.208363,-0.658194 1.812544,-0.987291 -0.216162,0.217575 -0.74035,0.80814 -0.493256,1.157502 0.03091,0.04371 0.08513,0.06495 0.127693,0.09742 0.239269,0.07597 0.440945,0.01979 0.659947,-0.0901 0.08982,-0.04507 0.34889,-0.199632 0.260786,-0.151285 -1.899382,1.042296 -2.352179,1.501959 -1.638117,0.827121 0.09693,-0.123975 0.351814,-0.351946 0.165883,-0.498293 0,0 2.109741,-1.274078 2.109741,-1.274078 l 0,0 c 0.246626,0.32174 0.222631,0.503213 -0.02072,0.833865 -0.786753,0.886815 -0.210276,0.280582 -2.522544,1.633004 -0.350891,0.205232 -0.758282,0.221428 -1.103737,0.0086 -0.06228,-0.06613 -0.138913,-0.121219 -0.186848,-0.198383 -0.300262,-0.483346 0.08118,-1.066099 0.391278,-1.424388 0.776628,-0.487751 1.54628,-0.986792 2.329885,-1.463254 0.444223,-0.270105 0.955661,-0.264572 1.358819,0.06936 0,0 -2.103745,1.289177 -2.103745,1.289177 z"
       inkscape:connector-curvature="0"
       transform="translate(6.6292965,939.95564)" />
    <path
       style="fill:#4d4d4d;fill-opacity:1;stroke:#050101;stroke-width:0;stroke-miterlimit:0.30000000999999998;stroke-opacity:1;stroke-dasharray:none"
       id="path5267"
       d="m 66.9402,73.859522 c -0.56779,-0.297152 -1.203926,-0.191931 -1.766139,0.05607 -0.961578,0.597859 0.382472,-0.243096 1.649319,-0.907631 0.04925,-0.02583 -0.08015,0.07834 -0.110754,0.124774 -0.07903,0.119916 -0.04088,0.186635 0.04645,0.275494 0.03586,0.0061 0.07137,0.01503 0.107594,0.01841 0.245484,0.02296 0.574494,-0.183314 0.462808,-0.120619 -2.010567,1.128637 -2.541991,1.596123 -1.864207,1.015186 0.191626,-0.411352 -0.414281,-0.53586 -0.698802,-0.582291 -0.08901,0.0052 -0.178012,0.01037 -0.267018,0.01556 0,0 1.979106,-1.432451 1.979106,-1.432451 l 0,0 c 0.09865,0.0086 0.197307,0.01715 0.29596,0.02573 0.494768,0.141884 1.003755,0.390591 0.948122,0.986229 -0.402994,0.974481 -0.05604,0.237084 -2.333496,1.484516 -0.231586,0.126847 -0.556457,-0.004 -0.743869,-0.140981 -0.873781,-1.141021 1.664262,-1.852707 2.449366,-2.263564 0.64256,-0.192528 1.308111,-0.22045 1.916475,0.105647 0,0 -2.070911,1.339919 -2.070911,1.339919 z"
       inkscape:connector-curvature="0"
       transform="translate(6.6292965,939.95564)" />
    <path
       style="fill:#4d4d4d;fill-opacity:1;stroke:#050101;stroke-width:0;stroke-miterlimit:0.30000000999999998;stroke-opacity:1;stroke-dasharray:none"
       id="path5269"
       d="m 76.481718,72.660517 c -0.616367,-0.08566 -1.268857,-0.05954 -1.820138,0.247217 0.639345,-0.358561 1.27869,-0.717122 1.918036,-1.075683 -0.03057,0.03035 -0.128793,0.09654 -0.105308,0.166189 0.04523,0.134154 0.371558,0.179713 0.464314,0.205198 0.510037,0.100774 1.031065,0.131519 1.550039,0.135033 0.980725,-0.05504 -1.239605,1.058099 -2.055876,1.258912 0,0 2.087905,-1.329586 2.087905,-1.329586 l 0,0 c 0.713409,0.722188 -1.133743,1.592552 -2.03269,1.512444 -0.527121,-0.03829 -1.058532,-0.06876 -1.572207,-0.202985 -1.951212,-0.731351 0.834125,-1.739863 1.661685,-2.18851 0.620822,-0.214815 1.300628,-0.247964 1.943617,-0.111926 0,0 -2.039377,1.383697 -2.039377,1.383697 z"
       inkscape:connector-curvature="0"
       transform="translate(6.6292965,939.95564)" />
    <path
       style="fill:#0000ff;fill-opacity:1;stroke:#050101;stroke-width:0;stroke-miterlimit:0.30000001;stroke-opacity:1;stroke-dasharray:none"
       id="path5271"
       d="m 118.47611,14.313049 c -0.13924,-1.286619 -0.25844,-2.575591 -0.3821,-3.863918 -0.0537,-0.5502396 -0.10141,-1.1010269 -0.15164,-1.6515768 -0.0138,-0.1509429 -0.007,-0.4309997 -0.0775,-0.5787528 0.71223,-0.3188528 1.39829,-0.7041239 2.13667,-0.9565585 0.0806,-0.02756 -0.0479,0.1638445 -0.0631,0.2476668 -0.0893,0.4912083 -0.0841,1.0034842 -0.0947,1.5006732 -0.006,0.5267297 -0.005,1.0535671 0.0118,1.5800871 0.003,0.0821 0.007,0.164171 0.0116,0.246155 -2.35606,1.237859 -2.20701,1.811636 -2.21131,0.73419 -0.0139,-0.96079 -0.10201,-0.382356 2.20274,-1.17326 0.0713,-0.02447 -0.004,0.15072 -0.006,0.22608 -0.0383,1.427595 -0.0525,2.855687 -0.0642,4.2837 0.0231,2.851261 0.11118,5.701174 0.24481,8.549249 0.10119,3.039122 0.38779,6.066515 0.71638,9.088075 0.25088,2.097626 0.39437,4.20437 0.47432,6.314674 0.0692,1.108053 0.0412,2.214485 -0.0401,3.320299 -0.013,0.171802 -0.028,0.343431 -0.0436,0.515001 0,0 -2.21741,1.09259 -2.21741,1.09259 l 0,0 c 0.031,-0.173639 0.0586,-0.347827 0.0802,-0.522922 0.13384,-1.107839 0.19194,-2.219913 0.13925,-3.33607 -0.052,-2.116431 -0.17004,-4.230629 -0.39664,-6.336229 -0.29933,-3.034023 -0.56197,-6.072447 -0.68169,-9.119682 -0.14758,-2.837395 -0.25589,-5.676451 -0.3329,-8.516654 -0.0116,-1.406223 -0.0255,-2.812533 -0.0642,-4.218324 -0.002,-0.07329 -0.0668,-0.17881 -0.006,-0.219867 2.44777,-1.6544907 2.21211,-2.0702361 2.20283,-1.071494 -0.004,1.086592 -0.0267,0.585481 -2.21186,1.527951 5.3e-4,-0.0875 0.006,-0.174981 0.007,-0.262496 0.0115,-0.535069 0.0135,-1.070252 0.0238,-1.605344 0.0109,-0.5081022 0.017,-1.016916 0.0592,-1.5236709 0.008,-0.094356 -0.0497,-0.2291633 0.0284,-0.28262 0.71478,-0.4889486 1.50632,-0.8549483 2.25948,-1.2824224 0.0701,0.2154319 0.0478,0.4438532 0.0574,0.6693064 0.0237,0.5573358 0.0592,1.1141841 0.10305,1.6702775 0.11202,1.2700524 0.22122,2.5483994 0.46478,3.8004414 0,0 -2.178,1.155445 -2.178,1.155445 z"
       inkscape:connector-curvature="0"
       transform="translate(6.6292965,939.95564)" />
    <path
       style="fill:#0000ff;fill-opacity:1;stroke:#050101;stroke-width:0;stroke-miterlimit:0.30000001;stroke-opacity:1;stroke-dasharray:none"
       id="path5273"
       d="m 115.12338,36.144884 c -0.27567,-0.620558 -0.50486,-1.262874 -0.79795,-1.875542 -0.013,-0.01089 -0.0539,-0.02457 -0.039,-0.03268 0.72206,-0.392905 1.42024,-0.844239 2.18842,-1.136906 0.0883,-0.03363 0.0712,0.174991 0.10763,0.262139 0.062,0.148356 0.12386,0.296802 0.18775,0.444364 0.27589,0.637188 0.26484,0.598944 0.58223,1.273334 0.82581,1.680585 1.79883,3.278043 2.91527,4.779909 0.59844,0.668174 1.43007,1.881763 2.46074,1.866574 0.14327,-0.0021 0.28006,-0.0607 0.42009,-0.09105 0.13595,-0.07779 0.54828,-0.302751 0.40785,-0.233375 -0.55503,0.274202 -1.05687,0.67848 -1.65223,0.848139 -0.20434,0.05823 0.28198,-0.319029 0.40454,-0.492591 0.49172,-0.696366 0.79716,-1.474982 1.10946,-2.261064 0.33162,-0.931217 0.53104,-1.897524 0.72572,-2.863729 0,0 2.08735,-1.012576 2.08735,-1.012576 l 0,0 c -0.19028,0.974474 -0.385,1.948975 -0.69665,2.894026 -0.29587,0.795865 -0.58897,1.576541 -1.03851,2.301911 -0.11337,0.182938 -0.1963,0.401657 -0.36941,0.52954 -1.83032,1.352168 -1.67921,1.25952 -2.914,1.733015 -0.1557,0.0063 -0.31253,0.03868 -0.4671,0.01888 -1.07321,-0.137515 -1.84751,-1.303922 -2.48662,-2.048006 -1.11021,-1.522625 -2.08698,-3.132272 -2.95722,-4.804015 -0.28473,-0.557567 -0.55395,-1.123485 -0.84345,-1.678532 -0.0452,-0.08659 -0.21709,-0.195561 -0.14102,-0.256798 0.64684,-0.520688 1.38979,-0.910678 2.10834,-1.326851 0.0265,-0.01535 0.0257,0.05562 0.0385,0.08343 0.24891,0.627377 0.47386,1.266069 0.79951,1.859841 0,0 -2.14023,1.218614 -2.14023,1.218614 z"
       inkscape:connector-curvature="0"
       transform="translate(6.6292965,939.95564)" />
    <path
       style="fill:#0000ff;fill-opacity:1;stroke:#050101;stroke-width:0;stroke-miterlimit:0.30000001;stroke-opacity:1;stroke-dasharray:none"
       id="path5275"
       d="m 119.27581,50.678385 c -0.0218,-0.05254 -0.18039,-0.436868 -0.20368,-0.484584 -0.0269,-0.05508 -0.0575,-0.108664 -0.0928,-0.158733 -0.0125,-0.01763 -0.0681,-0.03198 -0.0491,-0.04224 2.24281,-1.211957 2.09022,-1.900755 2.19303,-0.824693 0.44276,2.034564 0.75225,4.092616 1.00689,6.158059 0.38958,3.538296 0.3925,7.100282 0.45592,10.654611 0.0487,2.66108 0.15887,5.319001 0.58014,7.949308 0.19393,0.895742 0.37649,1.80145 0.73214,2.649458 0,0 -2.13004,1.186228 -2.13004,1.186228 l 0,0 c -0.31719,-0.89057 -0.48087,-1.823609 -0.65528,-2.750605 -0.37566,-2.66406 -0.44074,-5.35097 -0.47431,-8.038582 -0.0403,-3.540414 -0.0512,-7.090421 -0.4863,-10.610097 -0.28182,-2.036462 -0.60425,-4.075529 -1.18446,-6.051991 -0.27966,-1.100385 -0.19144,-0.35336 2.08958,-1.590994 0.0233,-0.01267 0.23908,0.485932 0.2519,0.514047 0.0341,0.07475 0.0711,0.148129 0.10659,0.222193 0,0 -2.14023,1.218614 -2.14023,1.218614 z"
       inkscape:connector-curvature="0"
       transform="translate(6.6292965,939.95564)" />
    <path
       style="fill:#0000ff;fill-opacity:1;stroke:#050101;stroke-width:0;stroke-miterlimit:0.30000001;stroke-opacity:1;stroke-dasharray:none"
       id="path5277"
       d="m 114.33897,57.065082 c 0.21435,-1.379674 0.91581,-2.620484 1.5603,-3.837642 0.48388,-0.870292 1.01359,-1.720589 1.64131,-2.495824 0.19633,-0.242468 0.71097,-0.839414 1.01569,-1.024088 0.81148,-0.491793 1.65955,-0.920524 2.48932,-1.380787 0.14065,0.01867 0.29272,-0.0026 0.42196,0.056 0.85025,0.385164 1.16874,2.183347 1.34467,2.970093 0.186,0.939097 0.3605,1.880405 0.53598,2.821505 0,0 -2.04964,1.092951 -2.04964,1.092951 l 0,0 c -0.17848,-0.935249 -0.35255,-1.871476 -0.55094,-2.802783 -0.14631,-0.613965 -0.47342,-2.468602 -1.24896,-2.664909 -0.11106,-0.02811 -0.22868,0.01414 -0.34303,0.0212 0.53636,-0.334064 1.05646,-0.695765 1.60907,-1.002192 0.19081,-0.105806 -0.35878,0.250599 -0.51958,0.398066 -0.93508,0.857537 -1.59563,1.978109 -2.2314,3.059458 -0.6105,1.166354 -1.2746,2.350294 -1.47765,3.669472 0,0 -2.1971,1.11948 -2.1971,1.11948 z"
       inkscape:connector-curvature="0"
       transform="translate(6.6292965,939.95564)" />
    <path
       style="fill:#0000ff;fill-opacity:1;stroke:#050101;stroke-width:0;stroke-miterlimit:0.30000001;stroke-opacity:1;stroke-dasharray:none"
       id="path5279"
       d="m 77.584314,47.042309 c 1.127325,0.14225 2.266784,0.154918 3.401311,0.181018 2.908455,0.07852 5.817137,0.03533 8.72489,-0.04572 3.825369,-0.126844 7.646065,-0.325918 11.473775,-0.367116 2.23194,0.01402 4.49105,0.05702 6.65712,0.643715 0,0 -1.9612,1.345033 -1.9612,1.345033 l 0,0 c -2.10237,-0.602915 -4.30157,-0.66912 -6.476579,-0.693061 -3.817119,0.01378 -7.627323,0.20394 -11.441084,0.349756 -2.957745,0.102133 -5.916522,0.172368 -8.876304,0.142523 -1.171853,-0.01239 -2.346431,-0.0187 -3.513489,-0.137837 0,0 2.01156,-1.418315 2.01156,-1.418315 z"
       inkscape:connector-curvature="0"
       transform="translate(6.6292965,939.95564)" />
    <path
       style="fill:#0000ff;fill-opacity:1;stroke:#050101;stroke-width:0;stroke-miterlimit:0.30000001;stroke-opacity:1;stroke-dasharray:none"
       id="path5281"
       d="m 105.23414,44.721856 c 1.43483,0.14275 2.85766,0.390653 4.26433,0.703788 1.41353,0.329606 2.81499,0.771483 4.06462,1.521443 0.54026,0.393377 0.70414,0.945634 0.0435,1.351451 -0.82254,0.505256 -1.67117,0.966737 -2.50676,1.450106 -1.57173,0.630782 -3.24352,0.960782 -4.89046,1.330881 -1.18786,0.236563 -2.35041,0.573292 -3.48927,0.981676 0,0 1.85475,-1.44473 1.85475,-1.44473 l 0,0 c 1.1412,-0.383928 2.30125,-0.705424 3.48253,-0.943428 1.66147,-0.37792 3.35836,-0.716584 4.91381,-1.433651 -4.28285,2.542059 -1.33405,0.895823 -1.12515,0.603872 0.0332,-0.04637 0.0551,-0.107935 0.0472,-0.164407 -0.0269,-0.192657 -0.23115,-0.315537 -0.35423,-0.424295 -1.20901,-0.750704 -2.57472,-1.186767 -3.95709,-1.497968 -1.42553,-0.300019 -2.87275,-0.556657 -4.33236,-0.592859 0,0 1.98457,-1.441879 1.98457,-1.441879 z"
       inkscape:connector-curvature="0"
       transform="translate(6.6292965,939.95564)" />
    <path
       style="fill:#0000ff;fill-opacity:1;stroke:#050101;stroke-width:0;stroke-miterlimit:0.30000001;stroke-opacity:1;stroke-dasharray:none"
       id="path5283"
       d="m 129.8256,46.409671 c -1.02301,0.142175 -2.04317,0.302039 -3.06699,0.439328 -0.18585,0.08777 -0.42727,0.0177 -0.61782,0.103032 -0.0227,0.01017 -0.0488,0.08313 -0.0282,0.06914 0.72651,-0.493861 1.39788,-1.071815 2.15605,-1.515562 0.13018,-0.0762 0.30169,-0.0047 0.45239,-0.01115 0.25097,-0.01069 0.50168,-0.02678 0.75251,-0.04017 3.05816,-0.31055 6.10932,-0.683296 9.16925,-0.97742 3.4486,-0.345772 6.91188,-0.398756 10.37353,-0.319152 1.96252,0.06157 3.92492,0.124628 5.88827,0.151757 0,0 -1.92248,1.390284 -1.92248,1.390284 l 0,0 c -1.92977,-0.05894 -3.85839,-0.146328 -5.78737,-0.226268 -3.43373,-0.11128 -6.87059,-0.06276 -10.29117,0.29328 -3.1151,0.314335 -6.21962,0.714398 -9.32808,1.086768 -0.26573,0.02253 -0.53138,0.04601 -0.79719,0.0676 -0.16372,0.01329 -0.59884,0.161268 -0.49138,0.03704 1.37386,-1.588184 1.18804,-1.413637 2.39891,-1.547701 1.04041,-0.130253 2.07501,-0.299339 3.10949,-0.469641 0,0 -1.96969,1.468838 -1.96969,1.468838 z"
       inkscape:connector-curvature="0"
       transform="translate(6.6292965,939.95564)" />
    <path
       style="fill:#0000ff;fill-opacity:1;stroke:#050101;stroke-width:0;stroke-miterlimit:0.30000001;stroke-opacity:1;stroke-dasharray:none"
       id="path5285"
       d="m 132.5407,41.638747 c -0.75074,-0.552021 -1.59992,-0.314565 -2.4265,-0.08868 -1.59181,0.483481 -3.08288,1.217936 -4.53312,2.02141 3.247,-1.748721 0.38586,-0.45604 0.2327,0.380522 -0.0115,0.06308 0.0199,0.126709 0.0299,0.190064 0.0572,0.06298 0.10473,0.13646 0.17173,0.188935 0.67785,0.530862 2.0566,0.820071 2.87682,1.038234 1.12914,0.280578 0.55626,0.142007 1.71879,0.415143 0,0 -1.91996,1.32894 -1.91996,1.32894 l 0,0 c -1.17354,-0.270539 -0.59511,-0.133152 -1.73541,-0.411584 -0.84902,-0.219511 -2.35488,-0.525564 -3.02798,-1.112601 -0.0937,-0.08169 -0.15877,-0.191247 -0.23815,-0.286871 -0.0293,-0.105802 -0.0881,-0.207625 -0.0879,-0.317406 5e-4,-0.245262 0.17784,-0.47099 0.33031,-0.636158 0.93068,-1.008208 2.46683,-1.494825 3.48348,-2.255791 1.46852,-0.794799 2.98166,-1.516068 4.5882,-1.989554 0.9631,-0.232546 1.76667,-0.377737 2.62375,0.224717 0,0 -2.08666,1.310684 -2.08666,1.310684 z"
       inkscape:connector-curvature="0"
       transform="translate(6.6292965,939.95564)" />
    <path
       style="fill:#0000ff;fill-opacity:1;stroke:#050101;stroke-width:0;stroke-miterlimit:0.30000001;stroke-opacity:1;stroke-dasharray:none"
       id="path5287"
       d="m 86.190482,10.602831 c -0.433988,1.278558 -0.581093,2.637587 -0.747982,3.97127 -0.32293,2.502179 -0.242704,5.019094 -0.01906,7.523959 0.261159,2.400495 0.814155,4.78819 1.967319,6.92795 0.220172,0.408543 0.480672,0.794031 0.721008,1.191047 1.030732,1.512895 2.361281,2.76944 3.913927,3.736186 0.963417,0.599867 1.354303,0.741705 2.377744,1.213512 2.208219,0.899769 4.53481,1.452877 6.884298,1.824075 0.91168,0.152145 1.83039,0.249767 2.74962,0.340939 0,0 -1.91232,1.358621 -1.91232,1.358621 l 0,0 c -0.91232,-0.103877 -1.82381,-0.215005 -2.728923,-0.37197 -2.34906,-0.404915 -4.676355,-0.977924 -6.880079,-1.902622 -1.000526,-0.473654 -1.453426,-0.651197 -2.395944,-1.247625 -1.569839,-0.993399 -2.909856,-2.286169 -3.955155,-3.822189 -0.242671,-0.404132 -0.505324,-0.796919 -0.728011,-1.212397 -1.159876,-2.164033 -1.723713,-4.573394 -2.006142,-6.996482 -0.249163,-2.504916 -0.351064,-5.024058 -0.06911,-7.532767 0.140439,-1.324012 0.273173,-2.66001 0.598076,-3.953874 0,0 2.230727,-1.047633 2.230727,-1.047633 z"
       inkscape:connector-curvature="0"
       transform="translate(6.6292965,939.95564)" />
    <path
       style="fill:#0000ff;fill-opacity:1;stroke:#050101;stroke-width:0;stroke-miterlimit:0.30000001;stroke-opacity:1;stroke-dasharray:none"
       id="path5289"
       d="m 101.7264,32.579574 c 1.59033,0.628744 3.23644,1.102903 4.8583,1.642742 1.68143,0.603666 3.42707,1.112403 4.91581,2.127363 0.20799,0.202011 0.42079,0.331834 0.47345,0.637767 0.0398,0.23103 -0.0684,0.50962 -0.27019,0.639049 -2.1377,1.371038 -1.70977,1.182744 -3.10741,1.651311 -1.74805,0.496035 -3.53924,0.812921 -5.30015,1.257618 0,0 1.84854,-1.413208 1.84854,-1.413208 l 0,0 c 1.77581,-0.435683 3.58319,-0.753426 5.32706,-1.310899 1.15463,-0.464038 0.89738,-0.398763 -1.01556,0.740574 -0.15465,0.09211 0.37351,-0.196602 0.38756,-0.376059 0.0183,-0.234115 -0.23468,-0.409029 -0.36126,-0.540383 -1.43424,-1.029948 -3.15398,-1.532048 -4.799,-2.122097 -1.65618,-0.537956 -3.328,-1.023744 -4.985367,-1.557654 0,0 2.028217,-1.376124 2.028217,-1.376124 z"
       inkscape:connector-curvature="0"
       transform="translate(6.6292965,939.95564)" />
    <path
       style="fill:#0000ff;fill-opacity:1;stroke:#050101;stroke-width:0;stroke-miterlimit:0.30000001;stroke-opacity:1;stroke-dasharray:none"
       id="path5291"
       d="m 92.242462,76.201085 c -0.02094,0.639427 -0.01658,1.279461 -0.0066,1.919068 -0.06167,1.113105 -0.62287,0.852865 -2.23399,1.702878 -0.06467,0.03412 -0.553837,-0.396579 -0.596974,-0.434021 -0.813239,-0.888208 -1.359905,-1.971939 -1.857129,-3.057561 -0.654419,-1.485849 -0.906705,-3.075627 -0.750125,-4.691985 0.03898,-0.402334 0.116703,-0.799966 0.175054,-1.199949 0.509644,-2.353451 1.597582,-4.548811 3.012069,-6.490145 0.305612,-0.419442 0.644624,-0.813499 0.966935,-1.220248 2.372919,-2.788169 5.340898,-4.667711 8.656821,-6.190601 1.831303,-0.827725 3.795703,-1.187598 5.781893,-1.370341 0.23056,-0.0047 0.46112,-0.0093 0.69168,-0.01398 0,0 -1.91777,1.400196 -1.91777,1.400196 l 0,0 c -0.22323,0.0059 -0.44647,0.01189 -0.6697,0.01783 -1.95076,0.178381 -3.87329,0.555309 -5.665003,1.381301 -0.381017,0.18041 -0.729484,0.459471 -1.14305,0.54123 -0.294363,0.05819 1.001567,-0.657388 0.769354,-0.467354 -0.358737,0.293578 -0.777276,0.506178 -1.151341,0.779958 -1.214709,0.889054 -2.311935,1.919039 -3.306847,3.047705 -0.324357,0.400985 -0.665697,0.788808 -0.973073,1.202954 -1.409643,1.899291 -2.488745,4.058901 -3.000627,6.373335 -0.05661,0.390468 -0.13222,0.778652 -0.169842,1.171406 -0.15097,1.576033 0.0925,3.124766 0.747137,4.567435 0.491818,1.047808 1.03621,2.099293 1.870598,2.92022 0.07019,0.05109 0.262356,0.217963 0.382996,0.229866 0.02961,0.0029 0.104214,-0.0574 0.07896,-0.04165 -0.663843,0.41408 -1.329958,0.824506 -1.994936,1.236759 0.02703,-0.03079 0.06551,-0.05447 0.08108,-0.09236 0.02476,-0.06025 0.02387,-0.128069 0.03581,-0.192104 0.0097,-0.637346 0.01461,-1.275138 -0.0066,-1.912296 0,0 2.193303,-1.117543 2.193303,-1.117543 z"
       inkscape:connector-curvature="0"
       transform="translate(6.6292965,939.95564)" />
    <path
       style="fill:#0000ff;fill-opacity:1;stroke:#050101;stroke-width:0;stroke-miterlimit:0.30000001;stroke-opacity:1;stroke-dasharray:none"
       id="path5293"
       d="m 92.744428,54.133368 c 1.80287,-0.603874 3.666749,-0.959832 5.537312,-1.275288 1.98028,-0.287241 3.99479,-0.543614 5.99974,-0.378932 0.30451,0.02501 0.60592,0.07923 0.90887,0.118852 0.67235,0.166648 1.67013,0.366604 1.8077,1.203801 0.0675,0.410669 -0.0705,0.573796 -0.22854,0.944888 -0.88319,1.301333 -2.10771,2.324435 -3.22186,3.421926 -0.18987,0.20348 -0.37973,0.406961 -0.5696,0.610441 0,0 -2.1651,0.90678 -2.1651,0.90678 l 0,0 c 0.18996,-0.207381 0.37993,-0.414761 0.56989,-0.622142 1.09143,-1.080128 2.27191,-2.091249 3.19597,-3.32374 0.15511,-0.273511 0.30929,-0.440679 0.29656,-0.766386 -0.0286,-0.730772 -1.08213,-0.883394 -1.5931,-1.026819 -0.29293,-0.03831 -0.58439,-0.09034 -0.87879,-0.114937 -1.98497,-0.165828 -3.978092,0.09664 -5.936693,0.393109 -1.911475,0.34026 -3.829252,0.712859 -5.642077,1.429793 0,0 1.919718,-1.521346 1.919718,-1.521346 z"
       inkscape:connector-curvature="0"
       transform="translate(6.6292965,939.95564)" />
    <path
       style="fill:#0000ff;fill-opacity:1;stroke:#050101;stroke-width:0;stroke-miterlimit:0.30000001;stroke-opacity:1;stroke-dasharray:none"
       id="path5295"
       d="m 151.69554,11.198728 c -0.13698,-0.67468 -0.31861,-1.3456926 -0.57333,-1.9859944 0.0458,0.1036708 -0.12399,-0.3314266 -0.20738,-0.2588423 -0.0414,0.036056 -0.0779,0.1852925 -0.028,0.1623565 0.67789,-0.3115926 1.27054,-0.8057002 1.97321,-1.0564666 0.13636,-0.048662 -0.11276,0.2674681 -0.15248,0.406693 -0.058,0.2033307 -0.0934,0.4124521 -0.14004,0.6186782 -0.39132,2.4542306 -0.72838,4.9161176 -1.14308,7.3669736 -0.49313,3.141084 -1.20068,6.240383 -1.91558,9.336429 -0.53335,2.053193 -0.96723,4.168088 -1.83465,6.116696 -0.12309,0.276524 -0.27376,0.539932 -0.41064,0.809898 -0.15012,0.220281 -0.28131,0.454739 -0.45037,0.660843 -0.89991,1.097072 -2.4323,1.969549 -3.82476,2.236277 -0.61657,0.118107 -0.93759,0.08427 -1.568,0.08075 -1.68827,-0.15868 -3.35843,-0.452601 -5.0473,-0.615447 -0.68053,-0.06414 -1.35348,-0.198943 -2.03699,-0.223198 0,0 1.97999,-1.416412 1.97999,-1.416412 l 0,0 c 0.66196,0.07459 1.31687,0.201226 1.97946,0.272896 1.67763,0.18517 3.34173,0.488923 5.02621,0.597059 0.61868,-0.01925 0.94165,0.0058 1.53979,-0.145226 0.22942,-0.05793 0.85179,-0.385973 0.67002,-0.234493 -0.42567,0.354718 -0.91427,0.638931 -1.42189,0.861044 -0.22082,0.09662 0.38072,-0.299129 0.54363,-0.476761 0.18026,-0.196546 0.32026,-0.42653 0.48039,-0.639795 0.14721,-0.266116 0.30984,-0.524267 0.44162,-0.798349 0.92952,-1.933205 1.37305,-4.065632 1.92975,-6.121973 0.72671,-3.087998 1.43434,-6.181864 1.91452,-9.32003 0.39689,-2.427113 0.72654,-4.862444 1.00487,-7.305978 0.033,-0.2089326 0.0597,-0.4189755 0.0991,-0.626797 0.0277,-0.146184 -0.0121,-0.3392137 0.10221,-0.4345098 0.90425,-0.7541258 2.05501,-2.3057487 2.6236,-1.0372391 0.24902,0.6582513 0.42292,1.3416973 0.62414,2.0154739 0,0 -2.178,1.155446 -2.178,1.155446 z"
       inkscape:connector-curvature="0"
       transform="translate(6.6292965,939.95564)" />
    <path
       style="fill:#0000ff;fill-opacity:1;stroke:#050101;stroke-width:0;stroke-miterlimit:0.30000001;stroke-opacity:1;stroke-dasharray:none"
       id="path5297"
       d="m 142.62428,23.273141 c -0.92467,0.611923 -1.67477,1.457962 -2.43767,2.253781 -1.38018,1.477992 -2.67628,3.033116 -3.95083,4.6024 -0.87572,1.093934 -1.77513,2.203047 -2.2258,3.547039 -0.13618,0.856801 0.52036,1.202496 1.16222,1.598019 1.19958,0.615561 2.50255,0.991781 3.77472,1.425356 0.25026,0.09159 0.50052,0.183171 0.75078,0.274756 0,0 -1.95151,1.316891 -1.95151,1.316891 l 0,0 c -0.25052,-0.08953 -0.50103,-0.179066 -0.75154,-0.2686 -1.29643,-0.438137 -2.62809,-0.807037 -3.84612,-1.442806 -0.71538,-0.443271 -1.44782,-0.928585 -1.32197,-1.87635 0.44178,-1.394932 1.3703,-2.539063 2.27608,-3.664822 1.27035,-1.563738 2.56309,-3.11131 3.91407,-4.606213 0.73605,-0.786279 1.46024,-1.601253 2.3063,-2.271633 0,0 2.30127,-0.887818 2.30127,-0.887818 z"
       inkscape:connector-curvature="0"
       transform="translate(6.6292965,939.95564)" />
    <path
       style="fill:#0000ff;fill-opacity:1;stroke:#050101;stroke-width:0;stroke-miterlimit:0.30000001;stroke-opacity:1;stroke-dasharray:none"
       id="path5299"
       d="m 152.30242,71.602793 c -0.21307,-1.31916 -0.4006,-2.639202 -0.65485,-3.951657 -0.27821,-1.344695 -0.66972,-2.67648 -1.31783,-3.893787 -0.44181,-0.829817 -0.6303,-1.026146 -1.18999,-1.784174 -1.29694,-1.537075 -2.99506,-2.611163 -4.85525,-3.343047 -0.41955,-0.165067 -0.85106,-0.297906 -1.2766,-0.446859 -2.70993,-0.883903 -5.55737,-1.092912 -8.38483,-1.227024 -2.19155,-0.07293 -4.37793,0.112233 -6.54973,0.38694 -1.54107,0.190103 -1.97566,0.805233 1.18932,-1.216953 0,0 -2.00186,1.411141 -2.00186,1.411141 l 0,0 c 1.84597,-1.584562 1.14454,-1.446115 2.71113,-1.606797 2.15231,-0.2177 4.3142,-0.377045 6.4793,-0.288587 2.84313,0.150914 5.70442,0.379321 8.42692,1.276843 0.43095,0.15235 0.86798,0.288453 1.29283,0.457051 1.89648,0.752602 3.63229,1.847912 4.94987,3.423345 0.22038,0.297219 0.45566,0.583956 0.66115,0.891657 0.97898,1.465884 1.54913,3.149205 1.92277,4.860026 0.26952,1.289153 0.47258,2.589274 0.75795,3.874311 0,0 -2.1603,1.177571 -2.1603,1.177571 z"
       inkscape:connector-curvature="0"
       transform="translate(6.6292965,939.95564)" />
    <path
       style="fill:#0000ff;fill-opacity:1;stroke:#050101;stroke-width:0;stroke-miterlimit:0.30000001;stroke-opacity:1;stroke-dasharray:none"
       id="path5301"
       d="m 131.50051,53.225371 c -1.04753,0.0394 -1.99663,0.487517 -2.91905,0.943674 -0.20572,0.112377 -0.81854,0.457095 -0.61716,0.337129 2.85353,-1.699835 1.28541,-0.748202 0.78974,-0.400692 -0.5551,0.389175 -1.04572,0.823379 -1.52884,1.296388 -0.45085,0.533785 -0.96132,1.258944 -0.56341,1.971187 0.0682,0.122075 0.16978,0.222234 0.25467,0.333351 1.02609,0.870952 2.37554,1.179355 3.65071,1.497538 1.29589,0.256057 2.53526,0.690593 3.72614,1.255302 0.14068,0.08595 0.28135,0.171906 0.42202,0.25786 0,0 -2.0229,1.307498 -2.0229,1.307498 l 0,0 c -0.13411,-0.08069 -0.26821,-0.161382 -0.40232,-0.242074 -1.16913,-0.561922 -2.3912,-0.98033 -3.66421,-1.240147 -1.3281,-0.338223 -2.73302,-0.670365 -3.78428,-1.60301 -0.098,-0.129795 -0.21352,-0.248079 -0.29407,-0.389384 -0.45283,-0.794388 -0.0397,-1.597068 0.47557,-2.236127 1.54183,-1.570659 3.44636,-2.649128 5.41501,-3.626011 0.96813,-0.45825 1.96503,-0.882209 3.05386,-0.909375 0,0 -1.99148,1.446893 -1.99148,1.446893 z"
       inkscape:connector-curvature="0"
       transform="translate(6.6292965,939.95564)" />
    <path
       style="fill:#ff0000;fill-opacity:1;stroke:#050101;stroke-width:0;stroke-miterlimit:0.30000001;stroke-opacity:1;stroke-dasharray:none"
       id="path5303"
       d="m 119.09897,45.871507 c -0.0898,-0.52256 -0.27251,-1.017116 -0.49162,-1.497113 -0.20052,-0.410063 -0.52884,-0.411766 -0.89337,-0.201739 3.44318,-1.959099 1.90134,-1.236635 1.31619,-0.551662 -0.29529,0.345666 -0.48304,0.721632 -0.66559,1.133586 -0.19089,0.550543 -0.39227,1.230079 -0.0161,1.755017 0.0598,0.08347 0.14234,0.14803 0.21352,0.222045 0.61444,0.366865 1.28498,0.129654 1.8528,-0.211295 -0.59191,0.332747 -1.17039,0.690595 -1.77573,0.99824 -0.10294,0.05232 0.18133,-0.144271 0.26061,-0.228224 0.29241,-0.309628 0.43597,-0.664292 0.47149,-1.080553 -0.0819,-0.610833 -0.43707,-0.795103 -1.01875,-0.685707 -0.0985,0.03477 -0.20126,0.05934 -0.29556,0.104314 -0.10359,0.04941 -0.39594,0.232199 -0.29509,0.177402 0.59469,-0.323146 1.16296,-0.697637 1.77688,-0.982579 0.11812,-0.05483 -0.18962,0.180014 -0.26943,0.282915 -0.20514,0.264466 -0.24653,0.415237 -0.37732,0.720134 -0.14835,0.532636 -0.21549,1.256901 0.24088,1.680211 0.0725,0.06721 0.16941,0.101852 0.25411,0.152778 0.46223,0.184931 0.95502,0.109013 1.3899,-0.121438 0.12115,-0.0642 0.46701,-0.28654 0.34505,-0.223887 -0.59113,0.303687 -1.16938,0.631833 -1.75407,0.94775 0.56325,-0.667776 0.77136,-1.245536 0.38659,-2.060855 -0.5873,-0.686458 -1.24009,-0.635431 -2.04002,-0.413741 -0.4683,0.209548 -2.85448,1.291655 1.2907,-0.76464 0.12924,-0.06411 -0.23254,0.17208 -0.33696,0.271625 -0.30345,0.289262 -0.47095,0.61113 -0.61966,0.994695 -0.14954,0.821015 0.14879,1.126294 0.93743,1.251722 0.12736,-0.0048 0.25539,-4.47e-4 0.38207,-0.01439 0.2998,-0.033 0.52234,-0.08728 0.79386,-0.22251 0.12542,-0.06247 0.48129,-0.286693 0.35735,-0.221351 -1.76203,0.928899 -2.21629,1.414726 -1.44543,0.671634 0.31019,-0.384905 0.49707,-0.930391 0.0499,-1.301414 -0.0807,-0.06697 -0.17988,-0.107931 -0.26982,-0.161897 -0.50696,-0.170794 -1.05801,-0.154311 -1.55747,0.04386 -0.13641,0.05412 -0.51974,0.272679 -0.39201,0.200404 0.56465,-0.319514 1.13536,-0.62818 1.70305,-0.942269 -0.39406,0.321174 -0.97927,0.858487 -0.78535,1.446819 0.0233,0.07075 0.0781,0.126885 0.11714,0.190328 0.58655,0.458288 1.21487,0.298004 1.83242,0.0059 1.06495,-0.65817 -0.58116,0.366579 -1.53271,0.816829 -0.085,0.04022 0.12693,-0.140033 0.17734,-0.219419 0.13763,-0.216724 0.13826,-0.345294 0.0306,-0.561226 -0.4305,-0.401153 -1.01945,-0.380199 -1.55367,-0.233685 -1.03193,0.567088 1.12242,-0.650182 1.69489,-0.954724 0.0571,-0.03039 -0.10128,0.08193 -0.14249,0.131805 -0.12709,0.153792 -0.0987,0.253975 -0.0173,0.415322 0.38069,0.319707 0.89455,0.319182 1.35735,0.225496 0.82112,-0.372361 0.87333,-0.40325 -1.72343,0.989456 -0.0513,0.02749 0.0962,-0.06932 0.12933,-0.117099 0.11938,-0.17201 0.0414,-0.361095 -0.0169,-0.534731 -0.25748,-0.369779 -0.6717,-0.577564 -1.11579,-0.475278 -0.79307,0.544475 0.13904,-0.10169 1.8388,-1.016909 0.0249,-0.01338 -0.12683,0.0682 -0.11447,0.215644 0.0109,0.129565 0.11018,0.213035 0.18577,0.305571 0.53449,0.452324 1.18401,0.451287 1.8411,0.375479 0.79606,-0.348489 2.16332,-1.082425 -1.42334,0.845441 -0.0464,0.02493 0.0831,-0.06739 0.11203,-0.111372 0.0615,-0.0934 0.0205,-0.123689 -0.0185,-0.211953 -0.31354,-0.243476 -0.72507,-0.310259 -1.09514,-0.172522 -0.68084,0.650648 -0.0733,0.05311 1.91048,-1.062978 0.0394,-0.02218 -0.0691,0.08396 -0.0514,0.125587 0.0557,0.13107 0.10361,0.143797 0.21659,0.234437 0.36176,0.217098 0.78643,0.343894 1.19146,0.182301 0.96655,-0.56691 -2.69938,1.522218 -1.84706,1.04634 0,0 2.25485,-1.022711 2.25485,-1.022711 l 0,0 c -0.158,0.954342 -1.46541,1.246183 -2.36753,1.4669 -0.47755,0.03529 -0.92664,-0.09184 -1.31582,-0.376247 -1.13815,-1.056278 0.61216,-1.669958 1.96942,-2.080818 0.47821,-0.0328 0.94402,0.07832 1.276,0.44608 0.0741,0.150695 0.15352,0.256448 0.12977,0.436924 -0.009,0.0693 -0.0268,0.153319 -0.0853,0.191574 -0.93045,0.608435 -1.75114,1.286191 -2.81213,1.5097 -0.72466,0.04166 -1.43131,-0.05017 -1.98636,-0.5649 -0.13411,-0.166957 -0.22504,-0.242327 -0.28259,-0.451272 -0.26404,-0.958745 1.6688,-1.643771 2.44977,-1.769834 0.53676,0.0276 0.99098,0.288991 1.28263,0.746295 0.0749,0.191712 0.13025,0.28761 0.14235,0.495802 0.0641,1.104015 -1.7148,1.605276 -2.63466,1.819546 -0.55949,0.03984 -1.13453,-0.03268 -1.53139,-0.471156 -0.086,-0.164193 -0.16205,-0.261175 -0.16077,-0.457123 6.6e-4,-0.100337 0.0815,-0.344469 0.17503,-0.404108 2.00352,-1.277211 1.47494,-1.089295 2.53052,-1.423786 0.64484,-0.08714 1.28305,-0.0249 1.73687,0.492394 0.0444,0.08497 0.10527,0.163202 0.13319,0.254917 0.0687,0.225743 -0.007,0.66968 -0.21679,0.815519 -1.53936,1.069641 -1.61294,1.094948 -2.62822,1.611132 -0.70932,0.2484 -1.47198,0.29016 -2.04047,-0.283287 -0.0533,-0.09174 -0.12389,-0.175431 -0.16002,-0.275208 -0.23938,-0.661075 0.238,-1.290592 0.69546,-1.705385 1.38848,-0.820526 2.84494,-2.198198 4.5417,-1.496327 0.10483,0.07398 0.22081,0.134268 0.3145,0.221931 0.49192,0.460286 0.43275,1.097253 0.0953,1.622819 -0.88989,0.987584 -0.24515,0.329771 -2.67407,1.777622 -0.50033,0.298238 -1.07179,0.388605 -1.64494,0.323578 -0.12803,-0.03568 -0.26185,-0.05487 -0.38409,-0.107036 -0.60779,-0.25937 -0.86454,-0.874615 -0.75601,-1.499632 0.11212,-0.360469 0.10983,-0.432596 0.31705,-0.762323 0.70918,-1.128455 2.28399,-1.8014 3.46882,-2.23379 0.92626,-0.180533 1.61202,-0.09301 2.23286,0.681757 0.43461,0.927156 0.29457,1.507051 -0.25914,2.347055 -0.78999,0.495537 -1.57418,1.000455 -2.36998,1.486609 -0.59236,0.361874 -1.27643,0.448243 -1.90535,0.132153 -0.0998,-0.07578 -0.21296,-0.136668 -0.2995,-0.227333 -0.48087,-0.503776 -0.47793,-1.268408 -0.33872,-1.89846 0.1204,-0.335813 0.15382,-0.484785 0.34213,-0.789834 0.58532,-0.948176 1.52408,-1.128841 2.61974,-1.767675 0.10313,-0.06013 0.21533,-0.105119 0.32912,-0.14123 0.10714,-0.034 0.22019,-0.04536 0.33029,-0.06804 0.71564,0.02934 1.0998,0.312145 1.23401,1.033421 -0.008,1.668759 -1.74346,2.241412 -3.03114,2.931183 -0.68461,0.310965 -1.40079,0.44759 -2.03935,-0.04662 -0.0819,-0.09247 -0.17563,-0.175666 -0.24565,-0.277417 -0.40852,-0.593672 -0.27224,-1.313698 -0.0639,-1.952455 0.71505,-1.817835 1.54277,-2.096298 3.47104,-3.103008 0.49799,-0.109409 0.87232,0.03285 1.09787,0.509923 0.22011,0.500854 0.39945,1.014274 0.53558,1.544761 0,0 -2.17801,1.155445 -2.17801,1.155445 z"
       inkscape:connector-curvature="0"
       transform="translate(6.6292965,939.95564)" />
  </g>
</svg>
