<?xml version="1.0" encoding="UTF-8" standalone="no"?>
<!-- Created with Inkscape (http://www.inkscape.org/) -->

<svg
   xmlns:dc="http://purl.org/dc/elements/1.1/"
   xmlns:cc="http://creativecommons.org/ns#"
   xmlns:rdf="http://www.w3.org/1999/02/22-rdf-syntax-ns#"
   xmlns:svg="http://www.w3.org/2000/svg"
   xmlns="http://www.w3.org/2000/svg"
   xmlns:sodipodi="http://sodipodi.sourceforge.net/DTD/sodipodi-0.dtd"
   xmlns:inkscape="http://www.inkscape.org/namespaces/inkscape"
   width="160"
   height="72.949997"
   id="svg2"
   version="1.1"
   inkscape:version="0.48.3.1 r9886"
   inkscape:export-filename="integral.png"
   inkscape:export-xdpi="150"
   inkscape:export-ydpi="150"
   sodipodi:docname="banach.svg">
  <defs
     id="defs4" />
  <sodipodi:namedview
     id="base"
     pagecolor="#9fffa7"
     bordercolor="#666666"
     borderopacity="1.0"
     inkscape:pageopacity="0"
     inkscape:pageshadow="2"
     inkscape:zoom="4.8164584"
     inkscape:cx="88.007994"
     inkscape:cy="43.108928"
     inkscape:document-units="px"
     inkscape:current-layer="layer1"
     showgrid="false"
     inkscape:window-width="1231"
     inkscape:window-height="776"
     inkscape:window-x="49"
     inkscape:window-y="24"
     inkscape:window-maximized="1"
     fit-margin-top="0"
     fit-margin-left="0"
     fit-margin-right="0"
     fit-margin-bottom="0"
     showguides="true"
     inkscape:guide-bbox="true">
    <sodipodi:guide
       orientation="0,1"
       position="109.62412,63.532159"
       id="guide4800" />
  </sodipodi:namedview>
  <metadata
     id="metadata7">
    <rdf:RDF>
      <cc:Work
         rdf:about="">
        <dc:format>image/svg+xml</dc:format>
        <dc:type
           rdf:resource="http://purl.org/dc/dcmitype/StillImage" />
        <dc:title />
      </cc:Work>
    </rdf:RDF>
  </metadata>
  <g
     inkscape:label="Layer 1"
     inkscape:groupmode="layer"
     id="layer1"
     transform="translate(-6.6292965,-958.95563)">
    <path
       style="fill:#008000;fill-opacity:1;stroke:#050101;stroke-width:0;stroke-miterlimit:0.30000000999999998;stroke-opacity:1;stroke-dasharray:none"
       id="path5402"
       d="m 12.626366,10.593731 c 0.179173,-0.9774664 0.111643,-1.9549229 -0.10048,-2.9188067 -0.189241,-0.612595 -0.557353,-1.3801147 -1.297222,-1.4291471 -0.128735,-0.00853 -0.256967,0.023455 -0.385451,0.035182 -0.720081,0.2445977 -1.7589256,0.6242123 1.240658,-0.7736833 0.172447,-0.080365 -0.311515,0.2210107 -0.448364,0.3531801 -0.547562,0.5288399 -0.83359,1.1704435 -1.130555,1.8558089 -0.6855074,2.1648219 -0.337181,4.1098881 0.215483,6.2501651 0.692147,2.16205 1.774735,4.169579 2.735655,6.219276 0.924775,1.947085 1.432726,4.025234 1.725486,6.149515 0.174795,1.403669 0.218906,2.822768 0.09137,4.231799 -0.06338,0.476662 -0.02951,0.255087 -0.09833,0.665218 0,0 -2.197439,1.064972 -2.197439,1.064972 l 0,0 c 0.09643,-0.407211 0.04887,-0.187119 0.138372,-0.661192 0.188277,-1.398505 0.159973,-2.816737 0.008,-4.217943 C 12.856543,25.297738 12.382083,23.259221 11.45384,21.318964 10.488501,19.255625 9.4076269,17.231651 8.7083484,15.05725 8.137839,12.896741 7.7557509,10.908712 8.3696433,8.7016592 8.6660729,7.9353313 9.0938377,6.8309462 9.8394569,6.3712268 12.160363,4.9402474 11.46192,5.1321572 12.800461,4.85556 c 0.143935,0.00865 0.29083,-0.00433 0.431807,0.025964 0.79094,0.1699646 1.190744,0.9571486 1.410328,1.6566808 0.213808,0.9784869 0.29931,1.9678148 0.186738,2.9673496 0,0 -2.202968,1.0881768 -2.202968,1.0881768 z"
       inkscape:connector-curvature="0"
       transform="translate(6.6292965,958.95563)" />
    <path
       style="fill:#008000;fill-opacity:1;stroke:#050101;stroke-width:0;stroke-miterlimit:0.30000000999999998;stroke-opacity:1;stroke-dasharray:none"
       id="path5404"
       d="M 6.928537,20.233466 C 6.4903567,20.055827 5.9630567,20.108872 5.5705542,19.831231 5.1955238,18.864061 5.4001378,19.556924 7.7201186,18.307156 c 0.089791,-0.04837 0.2041191,0.0018 0.305949,-0.0039 0.1547935,-0.0087 0.3087959,-0.0284 0.4634422,-0.03943 2.1046592,-0.150034 -1.0611438,0.09496 1.4458575,-0.102765 2.1682687,-0.132406 4.3305527,-0.342696 6.4961777,-0.509829 1.113149,-0.08765 2.229198,-0.123339 3.341913,-0.214637 0,0 -1.911712,1.409915 -1.911712,1.409915 l 0,0 c -1.09526,0.06673 -2.192529,0.09297 -3.286986,0.175352 -2.177827,0.16228 -4.352672,0.361754 -6.5294327,0.537563 -0.656374,0.06206 -1.3245539,0.09775 -1.9767273,0.199515 -0.099851,0.01558 -0.3783078,0.122638 -0.2964947,0.06331 1.8805161,-1.363656 2.5693487,-0.782508 1.8784631,-1.326188 0.3946115,0.221523 0.9010073,0.183365 1.3173453,0.353709 0,0 -2.0393767,1.383697 -2.0393767,1.383697 z"
       inkscape:connector-curvature="0"
       transform="translate(6.6292965,958.95563)" />
    <path
       style="fill:#008000;fill-opacity:1;stroke:#050101;stroke-width:0;stroke-miterlimit:0.30000000999999998;stroke-opacity:1;stroke-dasharray:none"
       id="path5406"
       d="m 26.124062,13.048129 c -0.952662,1.199484 -1.620356,2.566196 -2.187568,3.979394 -0.490124,1.37979 -0.759585,2.842077 -0.735355,4.309931 0.01537,0.93127 0.104779,1.241313 0.261991,2.150927 0.301769,1.291418 0.841206,2.51201 1.625498,3.58362 0.172681,0.235941 0.368274,0.454227 0.552411,0.68134 0,0 -2.007748,1.200007 -2.007748,1.200007 l 0,0 C 23.44777,28.718435 23.250668,28.492221 23.076729,28.248607 22.287057,27.142615 21.73961,25.891159 21.427515,24.570202 21.268121,23.662331 21.17069,23.304035 21.147933,22.374537 c -0.03635,-1.484534 0.219258,-2.970349 0.690366,-4.374276 0.52846,-1.400297 1.151323,-2.757364 2.033676,-3.975409 0,0 2.252087,-0.976723 2.252087,-0.976723 z"
       inkscape:connector-curvature="0"
       transform="translate(6.6292965,958.95563)" />
    <path
       style="fill:#008000;fill-opacity:1;stroke:#050101;stroke-width:0;stroke-miterlimit:0.30000000999999998;stroke-opacity:1;stroke-dasharray:none"
       id="path5408"
       d="m 29.6293,17.989084 c 1.018155,0.899729 1.973492,1.872887 2.93741,2.830871 1.152892,1.104288 2.282874,2.232499 3.529533,3.231567 0,0 -2.023117,1.2666 -2.023117,1.2666 l 0,0 c -1.218944,-1.033969 -2.334691,-2.17791 -3.493201,-3.27805 -0.972145,-0.941455 -1.932118,-1.920922 -3.022931,-2.724113 0,0 2.072306,-1.326875 2.072306,-1.326875 z"
       inkscape:connector-curvature="0"
       transform="translate(6.6292965,958.95563)" />
    <path
       style="fill:#008000;fill-opacity:1;stroke:#050101;stroke-width:0;stroke-miterlimit:0.30000000999999998;stroke-opacity:1;stroke-dasharray:none"
       id="path5410"
       d="m 34.769914,20.391468 c -1.076131,0.617709 1.218905,-0.700649 1.421927,-0.797552 0.191991,-0.09164 -0.346027,0.248477 -0.507581,0.386891 -0.697568,0.597649 -1.283662,1.304395 -1.874814,2.002725 -1.265968,1.582997 -2.376152,3.292544 -3.228142,5.132668 0,0 -2.141746,0.976265 -2.141746,0.976265 l 0,0 c 0.867634,-1.85584 1.989894,-3.581556 3.239031,-5.203292 1.499265,-1.836729 2.657194,-3.08422 5.040823,-3.998725 0,0 -1.949498,1.50102 -1.949498,1.50102 z"
       inkscape:connector-curvature="0"
       transform="translate(6.6292965,958.95563)" />
    <path
       style="fill:#008000;fill-opacity:1;stroke:#050101;stroke-width:0;stroke-miterlimit:0.30000000999999998;stroke-opacity:1;stroke-dasharray:none"
       id="path5412"
       d="m 36.661427,14.132802 c 1.280102,0.479069 2.293102,1.464606 3.21343,2.439696 1.107247,1.279172 2.002012,2.747048 2.464672,4.3848 0.09037,0.319883 0.14434,0.648946 0.216509,0.973419 0.323316,1.999242 -0.04852,3.676879 -0.790021,5.522451 -0.118228,0.239092 -0.236455,0.478184 -0.354683,0.717276 0,0 -2.145885,0.968728 -2.145885,0.968728 l 0,0 c 0.123619,-0.23476 0.247238,-0.46952 0.370858,-0.70428 0.779006,-1.821513 1.168917,-3.407694 0.873577,-5.405817 -0.06732,-0.317147 -0.116538,-0.638683 -0.201955,-0.951442 -0.440251,-1.612006 -1.322713,-3.047418 -2.421881,-4.292012 -0.909242,-0.931481 -1.933713,-1.929393 -3.242923,-2.236763 0,0 2.018302,-1.416056 2.018302,-1.416056 z"
       inkscape:connector-curvature="0"
       transform="translate(6.6292965,958.95563)" />
    <path
       style="fill:#008000;fill-opacity:1;stroke:#050101;stroke-width:0;stroke-miterlimit:0.30000000999999998;stroke-opacity:1;stroke-dasharray:none"
       id="path5414"
       d="m 51.170996,18.617864 c 1.43169,-0.07454 2.865785,-0.08548 4.299022,-0.103552 0.320579,-0.0032 0.641159,-0.0063 0.961738,-0.0095 0,0 -1.880633,1.369329 -1.880633,1.369329 l 0,0 c -0.320376,0.0035 -0.640751,0.0069 -0.961127,0.01036 -1.463434,0.02498 -2.936109,0.02678 -4.389439,0.215303 0,0 1.970439,-1.481935 1.970439,-1.481935 z"
       inkscape:connector-curvature="0"
       transform="translate(6.6292965,958.95563)" />
    <path
       style="fill:#008000;fill-opacity:1;stroke:#050101;stroke-width:0;stroke-miterlimit:0.30000000999999998;stroke-opacity:1;stroke-dasharray:none"
       id="path5416"
       d="m 50.13602,23.222688 c -0.197785,-0.01747 -0.395531,0.02094 -0.585242,0.07506 -0.04275,0.0122 -0.162382,0.07042 -0.125093,0.04622 2.110389,-1.369428 1.282846,-1.418795 2.292682,-1.310414 1.044861,0.14528 2.1039,0.15152 3.156798,0.174839 0,0 -1.896929,1.373057 -1.896929,1.373057 l 0,0 c -1.093353,-0.01473 -2.19707,0.0014 -3.280645,-0.16237 -0.09169,-0.0365 -0.347082,-0.04203 -0.275057,-0.109491 1.190312,-1.114874 1.491343,-1.538295 2.708414,-1.536305 0,0 -1.994928,1.4494 -1.994928,1.4494 z"
       inkscape:connector-curvature="0"
       transform="translate(6.6292965,958.95563)" />
    <path
       style="fill:#008000;fill-opacity:1;stroke:#050101;stroke-width:0;stroke-miterlimit:0.30000000999999998;stroke-opacity:1;stroke-dasharray:none"
       id="path5420"
       d="m 76.797619,41.231883 c 1.654598,1.225346 3.060288,2.754218 4.477513,4.238347 1.803654,1.905211 3.647059,3.774605 5.415464,5.71295 0.695124,0.724391 1.37445,1.461983 1.990443,2.25499 0,0 -2.062152,1.223158 -2.062152,1.223158 l 0,0 c -0.578046,-0.807024 -1.22893,-1.553613 -1.901254,-2.283712 -1.73191,-1.961875 -3.543356,-3.85394 -5.360352,-5.736538 -1.42695,-1.457029 -2.844514,-3.007313 -4.609133,-4.060716 0,0 2.049471,-1.348479 2.049471,-1.348479 z"
       inkscape:connector-curvature="0"
       transform="translate(6.6292965,958.95563)" />
    <path
       style="fill:#008000;fill-opacity:1;stroke:#050101;stroke-width:0;stroke-miterlimit:0.30000000999999998;stroke-opacity:1;stroke-dasharray:none"
       id="path5422"
       d="m 86.286526,43.442926 c -0.09663,0.03796 -0.197695,0.06616 -0.289901,0.113884 -0.138473,0.07167 -0.536353,0.31805 -0.399681,0.243005 0.501052,-0.275122 0.973124,-0.606003 1.493114,-0.843397 0.255532,-0.11666 -0.46714,0.312409 -0.693719,0.478445 -0.590798,0.432934 -1.132134,0.886525 -1.700999,1.34925 -2.020115,1.661127 -3.911017,3.467073 -5.776664,5.297285 -0.960332,1.039024 -2.17279,1.987591 -2.837881,3.261836 0,0 -2.208357,1.000556 -2.208357,1.000556 l 0,0 c 0.247911,-0.529602 0.526415,-0.868225 0.917152,-1.309025 0.641794,-0.724024 1.319984,-1.41367 2.019324,-2.082201 1.869936,-1.82389 3.755997,-3.632457 5.759106,-5.311334 0.739694,-0.615873 1.479981,-1.316826 2.303194,-1.82483 0.855554,-0.527962 1.729092,-1.026281 2.598884,-1.530445 0.393531,-0.228106 0.38981,-0.212271 0.762604,-0.355006 0,0 -1.946176,1.511977 -1.946176,1.511977 z"
       inkscape:connector-curvature="0"
       transform="translate(6.6292965,958.95563)" />
    <path
       style="fill:#008000;fill-opacity:1;stroke:#050101;stroke-width:0;stroke-miterlimit:0.30000000999999998;stroke-opacity:1;stroke-dasharray:none"
       id="path5424"
       d="m 101.00327,44.607696 c -0.0723,0.01042 -0.14457,0.02141 -0.21698,0.03126 -0.10199,0.01387 -0.41647,0.05209 -0.52011,0.07065 -0.0577,0.01033 -0.1176,0.01629 -0.17117,0.04003 -0.0216,0.0096 -0.0636,0.06877 -0.0442,0.05541 0.70116,-0.481203 1.39446,-0.973745 2.09169,-1.460617 1.38917,0.173833 2.80076,0.02233 4.19105,-0.07312 1.05463,-0.08755 2.10761,-0.188276 3.1597,-0.301849 0,0 -1.85754,1.379534 -1.85754,1.379534 l 0,0 c -1.05388,0.107787 -2.1085,0.205599 -3.16408,0.295468 -1.44615,0.107226 -2.90684,0.26188 -4.3555,0.117105 1.89072,-1.51037 1.29437,-1.483674 2.88205,-1.603264 0,0 -1.99493,1.4494 -1.99493,1.4494 z"
       inkscape:connector-curvature="0"
       transform="translate(6.6292965,958.95563)" />
    <path
       style="fill:#008000;fill-opacity:1;stroke:#050101;stroke-width:0;stroke-miterlimit:0.30000000999999998;stroke-opacity:1;stroke-dasharray:none"
       id="path5426"
       d="m 103.34918,46.828331 c 1.57334,-0.218782 3.15228,-0.387175 4.73632,-0.505539 0.38647,-0.03056 0.77294,-0.06112 1.1594,-0.09168 0,0 -1.84226,1.361598 -1.84226,1.361598 l 0,0 c -0.38977,0.03295 -0.77955,0.0659 -1.16933,0.09885 -1.61879,0.141989 -3.2397,0.309477 -4.83596,0.621131 0,0 1.95183,-1.484361 1.95183,-1.484361 z"
       inkscape:connector-curvature="0"
       transform="translate(6.6292965,958.95563)" />
    <path
       style="fill:#008000;fill-opacity:1;stroke:#050101;stroke-width:0;stroke-miterlimit:0.30000000999999998;stroke-opacity:1;stroke-dasharray:none"
       id="path5428"
       d="m 118.02349,36.331008 c -0.57575,-0.820147 0.55911,-1.411275 1.13338,-1.779437 2.29669,-1.475564 4.18614,-2.277579 6.82855,-2.585578 0.75035,0.0014 1.69355,-0.0023 2.228,0.635098 0.26845,0.320176 0.25437,0.517834 0.33561,0.91556 -0.0156,0.198926 -0.009,0.400761 -0.0468,0.596777 -0.14708,0.772586 -0.54889,1.472388 -0.9289,2.147703 -0.29981,0.532773 -0.67003,1.15382 -0.97925,1.677952 -0.84041,1.455651 -1.67696,2.954002 -2.06019,4.606258 -0.062,0.267397 -0.095,0.540708 -0.14249,0.811062 -0.0906,0.894293 0.052,1.778339 0.84815,2.316209 0.49784,0.336339 0.77426,0.348448 1.35875,0.497 2.2892,0.243965 4.51099,-0.499223 6.63163,-1.273453 1.09283,-0.431096 2.17179,-0.903854 3.21937,-1.436491 0.26644,-0.135471 1.04479,-0.580713 0.78907,-0.425953 -0.45701,0.276584 -0.92891,0.527782 -1.39337,0.791673 0,0 2.20942,-0.850061 2.20942,-0.850061 l 0,0 c -0.87998,0.508057 -1.75483,1.025083 -2.63993,1.524172 -1.2659,0.713822 -2.63007,1.247047 -3.97278,1.792817 -2.17163,0.771822 -4.44901,1.517915 -6.78309,1.210086 -0.62758,-0.177809 -0.91619,-0.195908 -1.44436,-0.579056 -0.83949,-0.608996 -1.02691,-1.560409 -0.9328,-2.53778 0.14063,-0.797571 0.14154,-0.960566 0.40265,-1.7555 0.4338,-1.320692 1.10289,-2.547099 1.79029,-3.748966 0.43495,-0.74617 0.54234,-0.924182 0.95895,-1.662396 0.45363,-0.803789 0.93873,-1.623357 0.98974,-2.568477 -0.0542,-0.318929 -0.0384,-0.512036 -0.25601,-0.766966 -0.49125,-0.575547 -1.40286,-0.512009 -2.07131,-0.508775 -1.12398,0.145128 -2.21129,0.377486 -3.27002,0.793614 -0.26445,0.103938 -0.99593,0.526952 -0.7814,0.340643 0.39242,-0.340795 0.8858,-0.543964 1.3287,-0.815946 -0.30276,0.181407 -1.23318,0.676331 -1.35496,1.058435 -0.0449,0.140945 0.0332,0.188998 0.10915,0.290599 0,0 -2.10375,1.289177 -2.10375,1.289177 z"
       inkscape:connector-curvature="0"
       transform="translate(6.6292965,958.95563)" />
    <path
       style="fill:#008000;fill-opacity:1;stroke:#050101;stroke-width:0;stroke-miterlimit:0.30000000999999998;stroke-opacity:1;stroke-dasharray:none"
       id="path5430"
       d="m 127.18313,55.001879 c 0.21743,0.231966 0.52522,0.299908 0.82255,0.167009 0.0777,-0.03473 0.28587,-0.184246 0.21085,-0.144048 -0.62763,0.336266 -1.24653,0.688577 -1.86979,1.032866 0.41014,-0.479831 0.48879,-0.990998 0.0865,-1.496689 -0.31192,-0.254145 -0.65659,-0.262801 -1.01629,-0.09212 -0.0973,0.04615 -0.3688,0.221956 -0.27404,0.170886 0.60312,-0.325024 1.19971,-0.662005 1.79957,-0.993007 -0.36547,0.365132 -0.76091,0.896419 -0.64412,1.452763 0.0165,0.07854 0.0615,0.148273 0.0922,0.22241 0.44692,0.490168 1.00493,0.405378 1.54662,0.132926 -3.99524,2.179563 -1.1583,1.09556 -1.33694,0.07018 -0.0121,-0.06971 -0.0537,-0.130937 -0.0805,-0.196406 -0.45492,-0.501729 -1.12777,-0.408784 -1.69336,-0.169832 -0.0921,0.06097 -0.18422,0.121944 -0.27633,0.182916 0,0 1.89314,-1.530511 1.89314,-1.530511 l 0,0 c 0.10049,-0.04817 0.20099,-0.09633 0.30148,-0.1445 0.70293,-0.186012 1.42827,-0.156083 1.90819,0.462952 0.0417,0.09296 0.1,0.180148 0.12509,0.278886 0.34752,1.365745 -2.34988,2.306782 -2.75515,2.551749 -0.69607,0.214855 -1.28741,0.163465 -1.76324,-0.442986 -0.0419,-0.09777 -0.0991,-0.190328 -0.12565,-0.293317 -0.15858,-0.614217 0.18738,-1.211543 0.55234,-1.673621 0.78575,-0.477582 1.56329,-0.96895 2.35726,-1.432745 0.50759,-0.296508 1.07365,-0.192794 1.48976,0.195472 0.4642,0.634315 0.44834,1.145409 0.0762,1.826398 -0.76871,0.470161 -1.52717,0.957518 -2.30615,1.410483 -0.41774,0.242915 -0.93072,0.02447 -1.23531,-0.283925 0,0 2.11515,-1.264186 2.11515,-1.264186 z"
       inkscape:connector-curvature="0"
       transform="translate(6.6292965,958.95563)" />
    <path
       style="fill:#008000;fill-opacity:1;stroke:#050101;stroke-width:0;stroke-miterlimit:0.30000001;stroke-opacity:1;stroke-dasharray:none"
       id="path5420-7"
       d="m 70.457629,973.28555 c 1.654599,1.22535 3.060289,2.75422 4.477513,4.23835 1.803655,1.90521 3.64706,3.7746 5.415464,5.71295 0.695124,0.72439 1.37445,1.46198 1.990443,2.25499 0,0 -2.062152,1.22315 -2.062152,1.22315 l 0,0 c -0.578046,-0.80702 -1.22893,-1.55361 -1.901254,-2.28371 -1.731909,-1.96187 -3.543355,-3.85394 -5.360351,-5.73654 -1.426951,-1.45702 -2.844515,-3.00731 -4.609134,-4.06071 0,0 2.049471,-1.34848 2.049471,-1.34848 z"
       inkscape:connector-curvature="0" />
    <path
       style="fill:#008000;fill-opacity:1;stroke:#050101;stroke-width:0;stroke-miterlimit:0.30000001;stroke-opacity:1;stroke-dasharray:none"
       id="path5422-0"
       d="m 79.946536,975.49659 c -0.09663,0.038 -0.197695,0.0662 -0.289901,0.11389 -0.138473,0.0717 -0.536353,0.31805 -0.399681,0.243 0.501052,-0.27512 0.973124,-0.606 1.493114,-0.8434 0.255533,-0.11666 -0.46714,0.31241 -0.693719,0.47845 -0.590798,0.43293 -1.132134,0.88652 -1.700999,1.34925 -2.020114,1.66113 -3.911016,3.46707 -5.776664,5.29728 -0.960331,1.03903 -2.17279,1.9876 -2.837881,3.26184 0,0 -2.208357,1.00056 -2.208357,1.00056 l 0,0 c 0.247911,-0.52961 0.526415,-0.86823 0.917152,-1.30903 0.641794,-0.72402 1.319984,-1.41367 2.019324,-2.0822 1.869937,-1.82389 3.755997,-3.63246 5.759107,-5.31133 0.739693,-0.61588 1.47998,-1.31683 2.303193,-1.82483 0.855554,-0.52797 1.729092,-1.02628 2.598884,-1.53045 0.393531,-0.2281 0.38981,-0.21227 0.762604,-0.355 0,0 -1.946176,1.51197 -1.946176,1.51197 z"
       inkscape:connector-curvature="0" />
  </g>
</svg>
