<?xml version="1.0" encoding="UTF-8" standalone="no"?>
<!-- Created with Inkscape (http://www.inkscape.org/) -->

<svg
   xmlns:dc="http://purl.org/dc/elements/1.1/"
   xmlns:cc="http://creativecommons.org/ns#"
   xmlns:rdf="http://www.w3.org/1999/02/22-rdf-syntax-ns#"
   xmlns:svg="http://www.w3.org/2000/svg"
   xmlns="http://www.w3.org/2000/svg"
   xmlns:sodipodi="http://sodipodi.sourceforge.net/DTD/sodipodi-0.dtd"
   xmlns:inkscape="http://www.inkscape.org/namespaces/inkscape"
   width="160"
   height="91.949997"
   id="svg2"
   version="1.1"
   inkscape:version="0.48.4 r9939"
   inkscape:export-filename="integral.png"
   inkscape:export-xdpi="150"
   inkscape:export-ydpi="150"
   sodipodi:docname="definite.svg">
  <defs
     id="defs4" />
  <sodipodi:namedview
     id="base"
     pagecolor="#9fffa7"
     bordercolor="#666666"
     borderopacity="1.0"
     inkscape:pageopacity="0"
     inkscape:pageshadow="2"
     inkscape:zoom="4.8164584"
     inkscape:cx="80"
     inkscape:cy="61.974998"
     inkscape:document-units="px"
     inkscape:current-layer="layer1"
     showgrid="false"
     inkscape:window-width="1237"
     inkscape:window-height="1003"
     inkscape:window-x="43"
     inkscape:window-y="21"
     inkscape:window-maximized="1"
     fit-margin-top="0"
     fit-margin-left="0"
     fit-margin-right="0"
     fit-margin-bottom="0"
     showguides="true"
     inkscape:guide-bbox="true">
    <sodipodi:guide
       orientation="0,1"
       position="109.62412,63.532159"
       id="guide4800" />
  </sodipodi:namedview>
  <metadata
     id="metadata7">
    <rdf:RDF>
      <cc:Work
         rdf:about="">
        <dc:format>image/svg+xml</dc:format>
        <dc:type
           rdf:resource="http://purl.org/dc/dcmitype/StillImage" />
        <dc:title />
      </cc:Work>
    </rdf:RDF>
  </metadata>
  <g
     inkscape:label="Layer 1"
     inkscape:groupmode="layer"
     id="layer1"
     transform="translate(-6.6292965,-939.95564)">
    <path
       style="fill:#0000ff;fill-opacity:1;stroke:#050101;stroke-width:0;stroke-miterlimit:0.30000000999999998;stroke-opacity:1;stroke-dasharray:none"
       id="path5129"
       d="m 24.662406,19.88255 c 0.09828,-0.63264 -0.02091,-1.239029 -0.267499,-1.820795 -0.262333,-0.461397 -0.715036,-0.814613 -1.267299,-0.82389 -0.120837,-0.002 -0.240125,0.02762 -0.360188,0.04143 -0.134415,0.0427 -0.273301,0.07329 -0.403245,0.128112 -0.155166,0.06547 -0.595823,0.314125 -0.449081,0.231488 0.520182,-0.29294 1.019156,-0.631439 1.569617,-0.862516 0.20624,-0.08658 -0.3545,0.273489 -0.521344,0.422464 -0.53927,0.481513 -0.610976,0.607039 -1.090503,1.17121 -1.035948,1.358438 -1.788734,2.906778 -2.242466,4.553156 -0.09964,0.361545 -0.171756,0.730117 -0.257634,1.095175 -0.353588,1.928927 -0.327864,3.904802 0.207956,5.798634 0.11139,0.393702 0.26008,0.775882 0.39012,1.163824 0.962532,2.43108 2.529367,4.539602 4.090494,6.611839 0.264638,0.351151 0.526539,0.704381 0.793913,1.053453 0.456034,0.595376 1.120448,1.424971 1.569279,2.028076 0.731061,0.982345 1.401154,2.003138 2.067346,3.029778 1.214668,1.803808 2.140145,3.764764 2.884221,5.801971 0.555683,1.573562 0.962023,3.184759 1.102186,4.84829 0.110031,1.308646 -0.08912,2.436163 -0.662083,3.611825 -0.355966,0.647587 -0.869044,1.163356 -1.514336,1.523886 -2.592709,1.44857 -1.66098,1.150047 -3.137056,1.549046 -1.416819,0.228352 -2.851079,0.04752 -4.266228,-0.09801 -1.077915,-0.119799 -2.145547,-0.307199 -3.215471,-0.481136 0,0 1.97028,-1.380155 1.97028,-1.380155 l 0,0 c 1.050942,0.196077 2.104424,0.379438 3.168032,0.493563 1.406159,0.138846 2.839844,0.307328 4.237076,0.0049 1.152819,-0.371168 0.629659,-0.251283 -0.994675,0.778175 -0.149634,0.09483 0.310663,-0.171008 0.459293,-0.267409 0.357359,-0.231783 0.530745,-0.366529 0.801574,-0.698102 0.11309,-0.138455 0.204374,-0.293373 0.306561,-0.44006 0.639125,-1.159304 0.816364,-2.184899 0.746251,-3.506127 -0.10929,-1.649529 -0.498888,-3.250296 -1.033153,-4.813446 -0.718528,-2.028731 -1.630102,-3.978355 -2.82486,-5.774888 -0.66125,-1.021956 -1.325045,-2.040307 -2.048649,-3.01991 -0.377094,-0.510504 -1.181337,-1.532817 -1.563201,-2.034041 -0.266389,-0.349654 -0.527975,-0.702942 -0.791963,-1.054413 -1.576197,-2.091224 -3.155649,-4.218957 -4.140341,-6.666567 -0.135464,-0.393477 -0.290292,-0.780812 -0.406393,-1.180431 -0.557346,-1.918391 -0.598467,-3.923927 -0.265991,-5.885871 0.08213,-0.369757 0.150399,-0.742871 0.246403,-1.109271 0.434582,-1.658589 1.158212,-3.226904 2.163735,-4.616576 0.38288,-0.480282 1.020206,-1.305833 1.544105,-1.642016 0.827725,-0.531148 1.682057,-1.020242 2.538239,-1.504184 0.373102,-0.210889 0.529772,-0.214695 0.928256,-0.298845 0.87983,0.01421 1.334509,0.269189 1.79399,1.026062 0.264341,0.618609 0.393793,1.253659 0.359706,1.929427 0,0 -2.214974,1.082889 -2.214974,1.082889 z"
       inkscape:connector-curvature="0"
       transform="translate(6.6292965,939.95564)" />
    <path
       style="fill:#0000ff;fill-opacity:1;stroke:#050101;stroke-width:0;stroke-miterlimit:0.30000000999999998;stroke-opacity:1;stroke-dasharray:none"
       id="path5131"
       d="m 30.416153,70.901208 c 0.03292,0.05793 0.06301,0.117551 0.09875,0.173781 0.02997,0.04715 0.120982,0.1866 0.188275,0.218608 0.01647,0.0078 0.0698,-0.01899 0.05375,-0.01033 -2.169786,1.169578 -2.322273,1.900103 -2.088117,0.99035 -0.02071,-0.823381 -0.401567,-1.573464 -0.854294,-2.240532 -0.481625,-0.579859 -1.135583,-1.22293 -1.961574,-1.15187 -0.156445,0.01346 -0.305504,0.07274 -0.458255,0.109114 -0.15544,0.0793 -0.618947,0.322499 -0.466321,0.237907 0.520732,-0.28861 1.014696,-0.637526 1.570828,-0.850068 0.202474,-0.07738 -0.334185,0.277672 -0.483712,0.434595 -0.535673,0.562168 -0.800627,1.119966 -1.085984,1.828331 -0.291432,1.075355 -0.318259,2.310426 0.379334,3.250746 0.119797,0.161481 0.279439,0.289177 0.419159,0.433766 0.671794,0.474104 1.441908,0.638419 2.239189,0.393432 0.203786,-0.06262 0.76983,-0.362637 0.58838,-0.250718 -0.473129,0.291828 -0.978127,0.528514 -1.46719,0.79277 1.088082,-0.813812 1.717612,-1.857291 1.992516,-3.17341 0.04646,-0.273516 0.02626,-1.417331 -0.484412,-0.818599 0.649668,-0.359024 1.274472,-0.767276 1.949004,-1.077072 0.07805,-0.03585 -0.09023,0.14929 -0.11059,0.232734 -0.02432,0.09971 -0.02939,0.204867 -0.02111,0.307161 0.03573,0.441444 0.267163,0.793101 0.497796,1.153998 1.02164,1.153683 2.29897,1.366108 3.765437,1.468866 0.92295,0.05128 1.820913,-0.123314 2.719128,-0.30286 0,0 -1.857987,1.404171 -1.857987,1.404171 l 0,0 c -0.915702,0.16648 -1.831309,0.32763 -2.768032,0.261403 -1.59222,-0.138361 -2.822138,-0.381642 -3.935216,-1.617892 -0.325383,-0.492383 -0.648712,-1.015521 -0.609498,-1.633901 0.0067,-0.105682 -0.02105,-0.247418 0.06341,-0.311291 0.702926,-0.531583 1.485872,-0.94812 2.228808,-1.42218 0.06897,-0.008 0.138135,-0.03371 0.206902,-0.02411 0.587304,0.08196 0.546012,0.919911 0.517136,1.33177 -0.259885,1.357266 -0.863628,2.468842 -1.941542,3.359275 -1.473918,0.865664 -3.244018,2.465538 -5.079517,1.518462 -0.188193,-0.0971 -0.352137,-0.235337 -0.528206,-0.353005 -0.148852,-0.161893 -0.318139,-0.307142 -0.446557,-0.485677 -0.720032,-1.001038 -0.734858,-2.289914 -0.462685,-3.441329 0.08453,-0.232228 0.152141,-0.471328 0.253578,-0.696683 0.788726,-1.75226 2.513871,-2.763635 4.281606,-3.398362 0.168218,-0.01824 0.335525,-0.05977 0.504655,-0.05473 0.875181,0.02612 1.544973,0.700304 2.062676,1.328319 0.487304,0.707385 0.873104,1.488173 0.982106,2.350676 0.08837,1.041862 0.08904,0.300323 -2.172708,1.489487 -0.06438,0.03385 -0.29107,-0.326414 -0.306027,-0.349186 -0.0366,-0.05573 -0.07129,-0.112692 -0.106938,-0.169038 0,0 2.13405,-1.236885 2.13405,-1.236885 z"
       inkscape:connector-curvature="0"
       transform="translate(6.6292965,939.95564)" />
    <path
       style="fill:#0000ff;fill-opacity:1;stroke:#050101;stroke-width:0;stroke-miterlimit:0.30000000999999998;stroke-opacity:1;stroke-dasharray:none"
       id="path5133"
       d="m 17.128381,0.72516252 c 0.582782,1.12725338 1.132745,2.27052078 1.653589,3.42758578 0.587105,1.3073574 1.072478,2.6559189 1.603572,3.9859454 0.144237,0.2094517 0.140177,0.5433166 0.336448,0.7242996 0.07514,0.069289 0.127639,-0.1041298 0.112284,-0.096279 -0.673085,0.3441454 -1.324416,0.7292762 -1.986624,1.0939143 0.385269,-0.3474795 0.727328,-0.7369429 1.144129,-1.0506375 0.768449,-0.5783527 2.937968,-1.7255258 2.998177,-1.7598676 0.906119,-0.3869093 1.90839,-0.6386216 2.894517,-0.4351539 0.183904,0.037945 0.360201,0.1062864 0.540301,0.1594297 0.793997,0.3187492 1.393882,0.923462 1.614056,1.7655357 0.03885,0.1485813 0.04535,0.3037858 0.06803,0.4556787 0.01986,0.8699988 -0.369267,1.6407534 -1.050927,2.1818564 -0.154803,0.122883 -0.330221,0.217283 -0.495331,0.325924 -0.870217,0.478015 -1.723606,0.988035 -2.610651,1.434047 -0.196664,0.09888 -0.417648,0.140384 -0.630702,0.195726 -0.940722,0.244358 -1.893498,0.264458 -2.85855,0.242591 -1.238395,-0.04227 -2.412411,-0.393762 -3.560091,-0.829581 0,0 2.002236,-1.344543 2.002236,-1.344543 l 0,0 c 1.114252,0.440546 2.266396,0.760012 3.474148,0.78578 0.956925,0.0039 1.89656,-0.036 2.820378,-0.313362 0.209947,-0.06303 0.790778,-0.357638 0.619363,-0.221009 -0.454558,0.362316 -0.990895,0.608036 -1.486342,0.912054 0.168616,-0.0939 0.346617,-0.172646 0.50585,-0.281706 0.670719,-0.459384 1.107168,-1.146559 1.131062,-1.963984 -0.0132,-0.135941 -0.0092,-0.2746659 -0.03961,-0.4078234 C 25.749737,8.9317744 25.180217,8.3971359 24.448392,8.1315594 24.276538,8.0888785 24.107687,8.0314525 23.93283,8.0035167 22.962418,7.8484807 21.994009,8.140274 21.1251,8.5507964 25.377494,6.0337271 22.435546,7.76276 22.22412,7.91115 21.811199,8.2009596 21.451809,8.5586329 21.132535,8.9468444 20.376618,9.3846363 19.641593,9.8606686 18.864785,10.26022 18.596274,10.398329 18.315934,9.4096363 18.282175,9.3075299 17.805803,7.9591895 17.328061,6.6103648 16.741592,5.3046915 16.215745,4.1627856 15.663569,3.028182 14.994331,1.9620478 c 0,0 2.13405,-1.23688528 2.13405,-1.23688528 z"
       inkscape:connector-curvature="0"
       transform="translate(6.6292965,939.95564)" />
    <path
       style="fill:#0000ff;fill-opacity:1;stroke:#050101;stroke-width:0;stroke-miterlimit:0.30000000999999998;stroke-opacity:1;stroke-dasharray:none"
       id="path5135"
       d="m 42.886704,30.109012 c -0.199528,-0.648685 -0.515372,-0.986958 -1.17226,-1.163026 -0.112743,-0.0044 -0.225883,-0.02354 -0.338231,-0.01313 -0.473794,0.04389 -3.321894,1.309608 0.965055,-0.700192 0.152526,-0.07151 -0.267228,0.206381 -0.387952,0.323868 -0.130746,0.127241 -0.242957,0.272232 -0.364435,0.408348 -0.862608,1.261805 -0.975255,2.63803 -0.940915,4.124438 0.151847,2.010263 0.921432,3.864876 1.776226,5.663625 1.003224,2.056668 2.127974,4.050114 3.148028,6.098059 0.679578,1.360455 1.24859,2.771926 1.674537,4.231619 0.08496,0.294281 0.09513,0.539667 0.0025,0.824453 0,0 -2.255789,0.984675 -2.255789,0.984675 l 0,0 c 0.28154,-0.190802 0.147299,-0.340042 0.135506,-0.660367 -0.34637,-1.471268 -0.91131,-2.878444 -1.561931,-4.240192 -1.003048,-2.057479 -2.121925,-4.055039 -3.146031,-6.10206 -0.879782,-1.819089 -1.668172,-3.693811 -1.858111,-5.728782 -0.06421,-1.516888 0.02233,-2.924058 0.819666,-4.259126 0.970336,-1.226053 1.319395,-1.219694 3.166339,-2.219634 0.357787,-0.193707 0.795521,-0.175378 1.178043,-0.102828 0.720382,0.273524 1.038068,0.628794 1.318501,1.34134 0,0 -2.15874,1.188913 -2.15874,1.188913 z"
       inkscape:connector-curvature="0"
       transform="translate(6.6292965,939.95564)" />
    <path
       style="fill:#0000ff;fill-opacity:1;stroke:#050101;stroke-width:0;stroke-miterlimit:0.30000000999999998;stroke-opacity:1;stroke-dasharray:none"
       id="path5137"
       d="m 36.966882,45.579343 c 0.07158,-0.08416 0.135522,-0.175456 0.214739,-0.252465 0.216174,-0.21015 0.563982,-0.462966 0.815298,-0.609244 0.872961,-0.508104 1.74767,-1.013958 2.637898,-1.491165 0.206183,-0.110525 1.276418,-0.522846 1.46244,-0.595902 1.474032,-0.547125 2.99628,-0.944176 4.515983,-1.339888 0,0 -1.84774,1.416005 -1.84774,1.416005 l 0,0 c -1.521605,0.39908 -3.045173,0.804407 -4.513574,1.375172 -0.260199,0.106342 -0.522379,0.207957 -0.780595,0.319026 -0.231806,0.09971 -0.892806,0.462253 -0.689199,0.313189 0.453712,-0.332169 0.960965,-0.584335 1.446641,-0.867725 0.238646,-0.139249 -0.485811,0.278091 -0.799002,0.53805 -0.07565,0.06279 -0.139018,0.139058 -0.208527,0.208588 0,0 -2.254362,0.986359 -2.254362,0.986359 z"
       inkscape:connector-curvature="0"
       transform="translate(6.6292965,939.95564)" />
    <path
       style="fill:#0000ff;fill-opacity:1;stroke:#050101;stroke-width:0;stroke-miterlimit:0.30000000999999998;stroke-opacity:1;stroke-dasharray:none"
       id="path5139"
       d="m 53.788852,33.648062 c -0.681776,1.02842 -1.255569,2.120316 -1.765088,3.242316 -0.601278,1.546949 -1.015186,3.186529 -0.978827,4.858083 0.0071,0.32478 0.05369,0.647492 0.08054,0.971238 0.126668,0.87469 0.372813,1.715825 0.861723,2.460477 0.142503,0.217044 0.320783,0.40836 0.481174,0.61254 0,0 -2.023165,1.204489 -2.023165,1.204489 l 0,0 c -0.164382,-0.216419 -0.346689,-0.420327 -0.493146,-0.649257 -0.497799,-0.778127 -0.754412,-1.648312 -0.886103,-2.556413 -0.02987,-0.332669 -0.08008,-0.664135 -0.08962,-0.998007 -0.04828,-1.689877 0.347697,-3.351388 0.921726,-4.928549 0.470128,-1.109776 1.015866,-2.183059 1.635763,-3.217457 0,0 2.255025,-0.99946 2.255025,-0.99946 z"
       inkscape:connector-curvature="0"
       transform="translate(6.6292965,939.95564)" />
    <path
       style="fill:#0000ff;fill-opacity:1;stroke:#050101;stroke-width:0;stroke-miterlimit:0.30000000999999998;stroke-opacity:1;stroke-dasharray:none"
       id="path5141"
       d="m 57.432912,39.073394 c 0.830216,0.805535 1.7954,1.441677 2.771761,2.052616 1.101558,0.704792 2.26195,1.305428 3.477146,1.785895 0,0 -1.966898,1.316148 -1.966898,1.316148 l 0,0 c -1.21429,-0.506762 -2.375706,-1.122628 -3.48834,-1.826299 -1.000711,-0.615138 -1.975716,-1.265735 -2.880324,-2.017677 0,0 2.086655,-1.310683 2.086655,-1.310683 z"
       inkscape:connector-curvature="0"
       transform="translate(6.6292965,939.95564)" />
    <path
       style="fill:#0000ff;fill-opacity:1;stroke:#050101;stroke-width:0;stroke-miterlimit:0.30000000999999998;stroke-opacity:1;stroke-dasharray:none"
       id="path5143"
       d="m 63.312889,38.637127 c -1.178297,0.703208 -2.160096,1.6832 -3.138753,2.632606 -1.267472,1.293635 -2.385169,2.667228 -3.116354,4.333228 0,0 -2.158294,0.990015 -2.158294,0.990015 l 0,0 c 0.09265,-0.213201 0.173826,-0.431765 0.277951,-0.639603 0.712708,-1.4226 1.779129,-2.635492 2.848972,-3.796534 0.940603,-0.931737 1.878691,-1.89478 2.98521,-2.631894 0,0 2.301268,-0.887818 2.301268,-0.887818 z"
       inkscape:connector-curvature="0"
       transform="translate(6.6292965,939.95564)" />
    <path
       style="fill:#0000ff;fill-opacity:1;stroke:#050101;stroke-width:0;stroke-miterlimit:0.30000000999999998;stroke-opacity:1;stroke-dasharray:none"
       id="path5145"
       d="m 65.540375,33.628883 c 1.14191,0.697298 2.249194,1.449843 3.336256,2.229398 1.187395,0.917342 2.461717,1.880388 3.199083,3.226022 0.126886,0.231556 0.208082,0.485361 0.312123,0.728041 0.521094,1.861505 -0.202504,3.031319 -1.2424,4.50915 -0.72771,0.952353 -1.589131,1.791183 -2.445158,2.626043 0,0 -2.164186,0.892102 -2.164186,0.892102 l 0,0 c 0.859823,-0.823328 1.719146,-1.655724 2.463593,-2.587278 1.003063,-1.389191 1.791377,-2.499526 1.330104,-4.286722 -0.09378,-0.231253 -0.164462,-0.473272 -0.281327,-0.693759 -0.705876,-1.331765 -1.971132,-2.269811 -3.140275,-3.161164 -1.100368,-0.770974 -2.222205,-1.524959 -3.425251,-2.128112 0,0 2.057438,-1.353721 2.057438,-1.353721 z"
       inkscape:connector-curvature="0"
       transform="translate(6.6292965,939.95564)" />
    <path
       style="fill:#0000ff;fill-opacity:1;stroke:#050101;stroke-width:0;stroke-miterlimit:0.30000000999999998;stroke-opacity:1;stroke-dasharray:none"
       id="path5147"
       d="m 79.682087,43.343772 c 0.127275,-0.839065 -0.22263,-1.375488 -0.804989,-1.936079 -0.770702,-0.577968 -1.704604,-0.620248 -2.574407,-0.222953 -0.206675,0.0944 -0.395856,0.223169 -0.593783,0.334753 0.481073,-0.245476 0.915925,-0.61959 1.443219,-0.736428 0.252259,-0.0559 -0.386923,0.344679 -0.556199,0.539882 -0.175464,0.202338 -0.334721,0.419953 -0.474343,0.6485 -0.446498,0.730875 -0.558783,1.321246 -0.654263,2.151066 0.03043,0.834315 0.349865,1.670523 1.131841,2.082341 0.46179,0.243196 0.709844,0.20367 1.220386,0.237877 -0.271324,0.444842 1.782537,-0.672524 1.373941,-0.422302 -0.431699,0.264369 -0.842343,0.635075 -1.343189,0.708619 -0.292233,0.04291 0.45063,-0.384953 0.646225,-0.606277 0.542683,-0.614066 0.671795,-0.958177 1.061787,-1.682743 0.804114,-1.825775 1.041073,-3.808781 0.910202,-5.787987 -0.02651,-0.40087 -0.08445,-0.799039 -0.126681,-1.198559 -0.276771,-1.935318 -0.854675,-3.807585 -1.587716,-5.61484 -0.07171,-0.158679 -0.141103,-0.318425 -0.215132,-0.476035 -0.05409,-0.115167 -0.110182,-0.22944 -0.169174,-0.342176 -0.03248,-0.06207 -0.06081,-0.127714 -0.105107,-0.181985 -0.0074,-0.0091 -0.04326,0.01838 -0.03278,0.01304 2.260953,-1.152461 1.988109,-1.890379 2.23718,-0.788518 0.493182,1.776596 1.254636,3.465541 1.947854,5.170144 0.97738,2.374971 1.932921,4.759011 2.9168,7.131306 0.15928,0.344007 0.31856,0.688013 0.477841,1.032019 0,0 -1.998637,1.128634 -1.998637,1.128634 l 0,0 c -0.156932,-0.34874 -0.313865,-0.69748 -0.470797,-1.046221 -0.965154,-2.379888 -1.918422,-4.764516 -2.913377,-7.132209 -0.717807,-1.698038 -1.487928,-3.377519 -2.09842,-5.118392 -0.373119,-1.094363 -0.23848,-0.367743 2.002725,-1.6952 0.03264,-0.01933 0.04887,0.05888 0.06593,0.09276 0.09127,0.181311 0.157713,0.374104 0.233899,0.562252 0.06669,0.164686 0.130184,0.330645 0.195275,0.495968 0.675996,1.855218 1.25112,3.752616 1.53661,5.711362 0.04393,0.4052 0.10325,0.809025 0.131777,1.215599 0.140387,2.000842 -0.06506,4.011972 -0.829698,5.87864 -0.367652,0.738348 -0.495669,1.098624 -1.009112,1.739223 -0.893318,1.11455 -1.942666,1.500267 -3.318706,2.250895 -0.22823,0.124499 -0.479752,0.207562 -0.732908,0.266729 -0.235737,0.0551 -0.481698,0.04896 -0.722548,0.07343 -0.570301,-0.07503 -0.798772,-0.0442 -1.302269,-0.344983 -0.569294,-0.340085 -0.986966,-0.952449 -1.147965,-1.590453 -0.05835,-0.231236 -0.056,-0.473671 -0.084,-0.710507 0.02388,-0.251656 0.02616,-0.506305 0.07163,-0.754967 0.145743,-0.796978 0.494306,-1.557219 0.997099,-2.192321 0.161531,-0.204038 0.323155,-0.418165 0.536532,-0.567142 0.839214,-0.585926 1.736458,-1.084006 2.604687,-1.626009 0.208658,-0.101494 0.408765,-0.222874 0.625973,-0.304483 0.958071,-0.359961 1.945184,-0.214879 2.74484,0.41677 0.648262,0.637884 0.991657,1.18054 0.96692,2.115059 0,0 -2.214973,1.082889 -2.214973,1.082889 z"
       inkscape:connector-curvature="0"
       transform="translate(6.6292965,939.95564)" />
    <path
       style="fill:#0000ff;fill-opacity:1;stroke:#050101;stroke-width:0;stroke-miterlimit:0.30000000999999998;stroke-opacity:1;stroke-dasharray:none"
       id="path5149"
       d="m 91.456855,39.757992 c 0.550031,1.089697 1.321232,2.05014 2.14092,2.946588 0.905004,1.015537 1.976265,1.830001 3.120351,2.552355 0,0 -1.989938,1.278456 -1.989938,1.278456 l 0,0 c -1.14348,-0.75241 -2.215806,-1.593268 -3.139123,-2.61145 -0.839133,-0.907975 -1.615227,-1.875449 -2.26626,-2.929063 0,0 2.13405,-1.236886 2.13405,-1.236886 z"
       inkscape:connector-curvature="0"
       transform="translate(6.6292965,939.95564)" />
    <path
       style="fill:#0000ff;fill-opacity:1;stroke:#050101;stroke-width:0;stroke-miterlimit:0.30000000999999998;stroke-opacity:1;stroke-dasharray:none"
       id="path5151"
       d="m 97.03065,41.255557 c -0.10876,0.04931 -0.221071,0.09143 -0.326281,0.147922 -0.157349,0.08448 -0.618186,0.357659 -0.460212,0.27435 0.477493,-0.251809 0.909999,-0.60087 1.419205,-0.780081 0.290854,-0.102364 -0.503529,0.356292 -0.748207,0.543929 -0.796658,0.610936 -0.95641,0.776682 -1.726308,1.456383 -1.720781,1.629591 -3.359252,3.350186 -4.863229,5.182192 0,0 -2.130847,0.907223 -2.130847,0.907223 l 0,0 c 1.511642,-1.842177 3.166794,-3.563275 4.873732,-5.224853 0.772202,-0.700801 0.884116,-0.825545 1.676815,-1.458867 0.2342,-0.187113 0.461621,-0.385209 0.71478,-0.545744 0.868967,-0.551032 1.761373,-1.064283 2.647893,-1.586608 0.468487,-0.276027 0.428979,-0.242218 0.873875,-0.407858 0,0 -1.951216,1.492012 -1.951216,1.492012 z"
       inkscape:connector-curvature="0"
       transform="translate(6.6292965,939.95564)" />
    <path
       style="fill:#ff0000;stroke-width:1.89999998;stroke-miterlimit:4;stroke-dasharray:7.6, 7.6;stroke-dashoffset:0"
       id="path3001"
       d="m 134.62751,23.142208 c -0.71889,1.183874 -2.18583,2.464198 -3.59204,2.10327 -0.6002,-0.203635 -1.0474,-0.628959 -1.45435,-1.09693 -0.50395,-0.66053 -0.72612,-1.43595 -0.85026,-2.243476 -0.16513,-0.988708 0.0321,-1.857847 0.38142,-2.777371 0.4205,-0.958869 1.02787,-1.809196 1.77296,-2.53929 1.12432,-0.968117 2.42058,-1.584062 3.75028,-2.301202 0.33337,-0.179796 1.08804,-0.331763 1.46663,-0.41706 0.78461,-0.1228 1.60009,-0.175117 2.39228,-0.08207 0.46044,0.05408 0.76882,0.147457 1.21649,0.260491 1.22024,0.393315 2.0368,0.929585 2.88891,1.873835 0.6043,0.706644 0.97204,1.527945 1.08281,2.445964 0.0689,0.773204 -0.17121,1.516517 -0.38968,2.247284 -0.22518,0.736716 -0.50383,1.455085 -0.77671,2.174937 -0.28412,0.769389 -0.63054,1.513102 -0.98308,2.252887 -0.47031,0.906083 -0.97761,1.790817 -1.51343,2.659509 -0.53709,0.90141 -1.12402,1.771112 -1.61721,2.697812 -0.43511,0.902884 -0.96403,1.755118 -1.46884,2.619554 -0.52598,0.908204 -1.04755,1.818593 -1.54663,2.741909 -0.47802,0.887411 -0.89875,1.804441 -1.31646,2.721363 -0.40729,0.912008 -0.80055,1.83099 -1.26331,2.716582 -0.498,0.917007 -1.04063,1.808261 -1.53426,2.727593 -0.4141,0.839952 -0.76955,1.714902 -0.95573,2.634576 -0.13313,0.87115 -0.0728,1.74742 0.04,2.616051 0.17136,0.976601 0.49579,1.919417 0.91302,2.816476 0.43651,0.906913 1.00887,1.730065 1.67955,2.476823 0.62615,0.625627 1.365,1.075876 2.18484,1.394845 0.91345,0.327653 1.83694,0.280871 2.77285,0.101037 0.68138,-0.14466 1.34111,-0.357889 1.96976,-0.659057 0.23855,-0.114282 0.93131,-0.501758 0.70249,-0.369077 -2.4992,1.449101 -2.11716,1.222811 -0.9965,0.46532 1.70263,-1.243702 3.25137,-2.683435 4.80048,-4.109809 1.0843,-0.98708 2.11542,-2.02996 3.0129,-3.190444 0.34265,-0.42225 0.64013,-0.873934 0.91219,-1.343531 0.0274,-0.04988 0.0547,-0.09976 0.0821,-0.149633 0,0 2.81916,-1.236332 2.81916,-1.236332 l 0,0 c -0.0324,0.04144 -0.0648,0.08288 -0.0972,0.124325 -0.24789,0.517234 -0.6037,0.973377 -0.95729,1.421776 -0.92858,1.190425 -1.9767,2.273944 -3.10222,3.280904 -1.54621,1.424058 -3.09058,2.860017 -4.76138,4.138136 -1.67255,1.174521 -0.94208,0.69232 -4.00531,2.436201 -0.85497,0.48673 -1.8004,0.789475 -2.76028,0.984363 -0.98803,0.153239 -1.95965,0.169236 -2.90336,-0.214901 -0.84372,-0.364375 -1.60678,-0.851883 -2.2484,-1.518272 -0.67436,-0.779418 -1.26843,-1.622476 -1.71664,-2.554272 -0.43329,-0.920912 -0.77028,-1.890005 -0.96309,-2.891068 -0.13541,-0.893478 -0.2042,-1.796876 -0.0917,-2.697935 0.15549,-0.955122 0.52892,-1.854924 0.937,-2.72847 0.48588,-0.921008 1.01958,-1.813792 1.52405,-2.724425 0.48232,-0.871422 0.8696,-1.79077 1.27675,-2.698943 0.40837,-0.925769 0.83898,-1.843762 1.30642,-2.741075 0.49945,-0.926164 1.02108,-1.839645 1.54535,-2.751931 0.50021,-0.861582 1.03126,-1.70791 1.46759,-2.604482 0.48641,-0.940307 1.07638,-1.81476 1.62051,-2.722069 0.52916,-0.858554 1.03476,-1.72833 1.50519,-2.62055 0.34964,-0.730859 0.69499,-1.464863 0.98011,-2.223897 0.27124,-0.714879 0.55725,-1.424784 0.78635,-2.154871 0.20709,-0.699938 0.4742,-1.402342 0.44534,-2.143954 -0.0635,-0.860538 -0.40185,-1.633793 -0.96316,-2.292885 -0.80328,-0.885018 -1.61734,-1.398953 -2.7748,-1.733861 -1.19522,-0.269344 -2.33763,-0.33166 -3.54197,-0.05133 -0.4131,0.10977 -0.57586,0.141983 -0.97447,0.291064 -0.15356,0.05743 -0.59228,0.277283 -0.45402,0.189159 4.00771,-2.554531 2.22004,-1.340068 1.37818,-0.724058 -0.76978,0.678551 -1.38549,1.488091 -1.82915,2.417468 -0.34649,0.846849 -0.59493,1.703428 -0.438,2.628586 0.11229,0.750498 0.29848,1.474269 0.78065,2.081427 0.37356,0.405815 0.78699,0.80596 1.35672,0.889001 0.0555,-0.0063 0.1128,-0.0035 0.16649,-0.01885 0.055,-0.01574 0.2043,-0.102622 0.15522,-0.07322 -0.81329,0.487321 -1.63229,0.965057 -2.44855,1.447376 -0.0558,0.03299 0.11809,-0.05705 0.16722,-0.09937 0.10854,-0.0935 0.16175,-0.208451 0.23113,-0.328917 0,0 2.81811,-1.249025 2.81811,-1.249025 z"
       inkscape:connector-curvature="0"
       transform="translate(6.6292965,939.95564)" />
    <path
       style="fill:#ff0000;stroke-width:1.89999998;stroke-miterlimit:4;stroke-dasharray:7.6, 7.6;stroke-dashoffset:0"
       id="path3003"
       d="m 135.81958,67.175303 c -0.54695,-0.364036 -1.1876,-0.541344 -1.83751,-0.581459 -0.1151,0.01103 -0.23243,0.008 -0.3453,0.03308 -0.11162,0.02481 -0.21535,0.07698 -0.32302,0.115471 0.76748,-0.426356 1.52092,-0.879042 2.30245,-1.279069 0.12008,-0.06147 -0.21859,0.160811 -0.31055,0.259511 -0.25989,0.278948 -0.30491,0.445882 -0.46798,0.789981 -0.24374,0.825545 -0.0863,1.702107 0.64169,2.237788 0.14884,0.109513 0.32439,0.177063 0.48659,0.265594 0.77061,0.303223 1.61012,0.422683 2.40743,0.132485 0.19223,-0.06997 0.72768,-0.373938 0.54905,-0.274221 -0.6817,0.380555 -1.37246,0.744645 -2.05869,1.116967 0.69149,-0.612882 1.12901,-1.515288 0.79676,-2.441409 -0.0589,-0.164275 -0.16458,-0.307817 -0.24687,-0.461726 -0.63763,-0.798477 -1.61338,-1.223135 -2.63696,-1.180299 -0.21067,0.0088 -0.41801,0.05569 -0.62702,0.08353 -0.19959,0.07029 -0.40751,0.120337 -0.59877,0.210884 -0.18927,0.08961 -0.72502,0.41807 -0.53662,0.326651 0.70201,-0.340651 1.34219,-0.819331 2.07933,-1.07525 0.18339,-0.06367 -0.24991,0.300618 -0.34136,0.471858 -0.2422,0.453553 -0.19271,0.56656 -0.21248,1.057754 0.0528,0.172617 0.0819,0.354325 0.15832,0.517849 0.36199,0.774509 1.1546,1.25453 1.94017,1.504622 0.22309,0.07102 0.45587,0.106922 0.68381,0.160383 0.65694,0.08831 1.33587,0.118608 1.95715,-0.161133 0.17279,-0.07781 0.65057,-0.387426 0.48041,-0.303992 -2.25974,1.108076 -2.63041,1.863004 -1.95256,0.755143 0.0319,-0.137105 0.0887,-0.270721 0.0957,-0.411314 0.0477,-0.958654 -0.94242,-1.417417 -1.67187,-1.717174 -0.84184,-0.228594 -1.7285,-0.295126 -2.56576,-0.002 -0.17577,0.06154 -0.66773,0.329298 -0.50574,0.237418 0.71396,-0.404955 1.44184,-0.78485 2.16276,-1.177275 -0.0967,0.107022 -0.21256,0.199496 -0.29024,0.321068 -0.35945,0.562554 -0.0755,1.15596 0.37506,1.560159 0.14792,0.132691 0.32336,0.231066 0.48504,0.346599 0.93484,0.511474 2.02021,0.904708 3.10656,0.767756 0.15599,-0.01967 0.30512,-0.07603 0.45769,-0.114047 1.31971,-0.793017 -0.96409,0.585681 -2.00674,1.077966 -0.0857,0.04048 0.11558,-0.154146 0.14651,-0.243757 0.11593,-0.335814 -0.10601,-0.596883 -0.28413,-0.850829 -0.51749,-0.45343 -1.22578,-0.800541 -1.93233,-0.791177 -0.12368,0.0016 -0.24462,0.03688 -0.36694,0.05531 -1.31612,0.696004 1.36665,-0.799754 2.06838,-1.165687 0.0749,-0.03903 -0.13177,0.10938 -0.17843,0.179735 -0.18525,0.27934 -0.0848,0.522418 0.0348,0.796486 0.60602,0.709332 1.49316,0.900728 2.38554,0.842085 0.12317,-0.04002 0.25098,-0.06788 0.3695,-0.120075 0.10644,-0.04687 0.40323,-0.231956 0.30159,-0.175432 -0.79585,0.442588 -1.57792,0.910476 -2.38425,1.333652 -0.0602,0.03162 0.10089,-0.09424 0.1349,-0.153162 0.0775,-0.13433 0.0243,-0.173098 -0.0293,-0.30213 -0.42731,-0.432097 -1.03727,-0.484309 -1.61184,-0.474303 -0.99062,0.223061 -2.77507,1.461621 2.02371,-1.234347 0.046,-0.02582 -0.18925,0.03333 -0.0573,0.13587 0.4709,0.287829 0.99873,0.320175 1.53471,0.303585 0.12159,-0.03399 0.34002,0.0214 0.43666,-0.07962 0,0 -2.4669,1.887196 -2.4669,1.887196 l 0,0 c -0.14476,-0.03706 -0.3028,0.01695 -0.45001,-0.01054 -0.60122,-0.03428 -1.20262,-0.135931 -1.69303,-0.51292 -0.05,-0.06626 -0.11313,-0.124451 -0.15012,-0.198792 -0.0252,-0.05057 -0.11417,-0.335249 -0.012,-0.399932 1.32855,-0.841083 1.99467,-1.630015 3.30277,-1.675204 0.67858,0.04219 1.35597,0.203697 1.80796,0.752024 0.0459,0.09329 0.10881,0.179997 0.13764,0.279886 0.0336,0.116496 0.0616,0.44636 -0.0783,0.539765 -1.18269,0.789923 -2.19035,1.688148 -3.55647,1.882614 -0.98806,-0.03455 -1.94863,-0.323831 -2.58659,-1.126223 -0.0606,-0.124287 -0.13919,-0.241316 -0.1818,-0.372862 -0.50277,-1.552253 2.26178,-2.497781 3.33735,-2.729188 0.92573,0.0081 1.8031,0.336286 2.46594,0.996775 0.18611,0.261438 0.34203,0.426152 0.42088,0.745701 0.35332,1.431815 -2.16242,2.215202 -3.28534,2.620515 -1.36529,0.161456 -2.49001,-0.199239 -3.67438,-0.872724 -0.17731,-0.132018 -0.3689,-0.246748 -0.53191,-0.396053 -0.52806,-0.483657 -0.895,-1.205651 -0.58479,-1.916135 0.0645,-0.147648 0.17939,-0.267658 0.26909,-0.401487 0.29335,-0.17553 2.34529,-1.672086 3.50561,-1.9677 0.88945,-0.226605 1.80203,-0.116475 2.66741,0.153469 0.20458,0.09158 0.41788,0.16574 0.61373,0.274731 0.64794,0.360568 1.25945,0.984177 1.29209,1.768376 0.007,0.167016 -0.0402,0.331895 -0.0603,0.497842 -0.67171,1.507233 -0.11934,0.49718 -3.11865,2.355608 -0.76696,0.475225 -1.69479,0.41226 -2.54365,0.26695 -0.23658,-0.06562 -0.47856,-0.114172 -0.70972,-0.196858 -0.86263,-0.308556 -1.68494,-0.86026 -2.09545,-1.706993 -0.0924,-0.190587 -0.13741,-0.400702 -0.20612,-0.601053 -0.0128,-0.551856 -0.0734,-0.688275 0.14593,-1.214189 0.55474,-1.330442 2.17382,-1.762203 3.30917,-2.462062 0.18035,-0.111174 0.37295,-0.204521 0.57194,-0.277248 0.20503,-0.07493 0.42275,-0.109029 0.63413,-0.163544 0.21965,-0.01347 0.43898,-0.04663 0.65896,-0.0404 1.11087,0.03146 2.13405,0.545233 2.81121,1.420014 0.0962,0.177909 0.21652,0.344774 0.28869,0.533727 0.37985,0.9945 0.0365,2.014541 -0.66069,2.761285 -1.87322,1.122292 -3.35188,2.641187 -5.57411,1.976895 -0.20518,-0.06134 -0.39942,-0.154651 -0.59913,-0.231977 -0.17802,-0.109285 -0.37039,-0.19807 -0.53406,-0.327856 -0.78934,-0.625901 -1.01314,-1.591187 -0.82052,-2.543202 0.13914,-0.376557 0.1793,-0.559362 0.40455,-0.890007 0.83405,-1.224312 2.45819,-2.073838 3.94434,-2.044505 0.68899,0.101353 1.34636,0.313222 1.95092,0.665424 0,0 -2.58802,1.674496 -2.58802,1.674496 z"
       inkscape:connector-curvature="0"
       transform="translate(6.6292965,939.95564)" />
    <path
       style="fill:#ff0000;stroke-width:1.89999998;stroke-miterlimit:4;stroke-dasharray:7.6, 7.6;stroke-dashoffset:0"
       id="path3004"
       d="m 103.63829,35.75815 c -0.54938,-0.09349 -1.10503,-0.143349 -1.66045,-0.183945 -0.18548,-0.01505 -0.37097,-0.02392 -0.55699,-0.01966 0.0351,-0.02007 -0.0878,0.01668 -0.0689,0.0035 2.50115,-1.750716 1.66466,-1.833689 3.16897,-1.811954 0.77838,-0.0094 1.54611,0.117192 2.32423,0.118337 1.10173,-0.02538 2.20317,-0.05816 3.30502,-0.07875 1.12051,-0.03917 2.24157,0.02874 3.35587,0.144333 1.11376,0.100078 2.22488,0.222411 3.33782,0.330722 0.79006,0.07395 1.58317,0.101771 2.3763,0.110698 0.35327,0.0019 0.70665,6.52e-4 1.05978,-0.01023 0.1108,-0.0091 0.22141,-0.0032 0.33235,-8.11e-4 0.17743,-0.0056 0.3534,-0.117342 0.50874,-0.206283 0.86938,-0.587441 1.71216,-1.08649 -2.52829,1.5961 0,0 2.72644,-1.471768 2.72644,-1.471768 l 0,0 c -2.00692,1.397725 -1.59745,1.436626 -2.62572,1.805232 -0.1901,0.0679 -0.37876,0.115898 -0.58316,0.09505 -0.11116,0.0025 -0.2221,0.0094 -0.33322,0.0026 -0.34297,-0.0081 -0.68603,-0.01141 -1.02893,-0.02281 -0.78356,-0.02837 -1.56647,-0.07793 -2.34632,-0.160639 -1.10921,-0.114801 -2.21776,-0.232046 -3.32812,-0.335635 -1.11083,-0.09566 -2.22543,-0.155435 -3.34065,-0.113716 -1.10798,0.01967 -2.21531,0.06255 -3.32328,0.08054 -0.78987,-0.01867 -1.57617,-0.118735 -2.3673,-0.08258 -0.14092,0.0018 -0.28183,0.004 -0.42276,0.0053 -0.047,4.55e-4 -0.17769,0.03039 -0.14113,7.78e-4 2.17666,-1.762657 1.39925,-1.88846 2.45671,-1.815902 0.18104,0.01263 0.36081,0.03644 0.54104,0.05732 0.5489,0.06208 1.09839,0.137978 1.65061,0.156043 0,0 -2.48862,1.808095 -2.48862,1.808095 z"
       inkscape:connector-curvature="0"
       transform="translate(6.6292965,939.95564)" />
    <path
       style="fill:#ff0000;stroke-width:1.89999998;stroke-miterlimit:4;stroke-dasharray:7.6, 7.6;stroke-dashoffset:0"
       id="path3006"
       d="m 104.58339,44.537144 c 0.53657,-0.08893 1.07802,-0.136861 1.62052,-0.169134 0.56171,-0.02259 1.12385,-0.03258 1.68599,-0.03238 0.49559,1.95e-4 0.99118,-0.003 1.48677,-2.74e-4 0.61109,0.0044 1.22219,0.0048 1.83329,0.006 0.67935,0.01425 1.36047,-0.03241 2.03727,0.03455 0.63282,0.07919 1.26834,0.128287 1.90543,0.153388 0.70143,0.0035 1.39746,0.0268 2.09543,0.09495 0.78788,0.08064 1.57942,0.109934 2.37086,0.124319 0.58503,0.0105 1.17018,0.0065 1.75526,0.0037 0.3215,0.01605 0.61526,-0.133888 0.92847,-0.184623 0.12707,-0.01776 0.25358,-0.0447 0.38194,-0.05198 1.12161,0.109682 -1.61661,1.791158 -2.66533,1.841481 -0.005,3.28e-4 -0.0104,6.55e-4 -0.0156,9.82e-4 0,0 2.51501,-1.831194 2.51501,-1.831194 l 0,0 c 0.005,2.26e-4 0.01,4.51e-4 0.0143,6.77e-4 1.16284,0.04041 -1.35225,1.449508 -2.34399,1.843134 -0.11562,0.01879 -0.23169,0.03551 -0.34588,0.06221 -0.31053,0.08015 -0.62203,0.147203 -0.94574,0.118657 -0.57991,-0.0031 -1.15981,-0.0096 -1.73954,-0.02524 -0.7929,-0.02901 -1.5857,-0.06605 -2.37557,-0.143976 -0.7011,-0.05675 -1.40239,-0.05007 -2.10503,-0.07276 -0.63548,-0.03609 -1.26802,-0.101059 -1.90117,-0.165453 -0.67501,-0.03018 -1.35114,-0.01019 -2.02668,-0.01519 -0.61617,0.0011 -1.23234,0.0013 -1.8485,0.0048 -0.49417,0.0018 -0.98834,-0.0034 -1.48251,-7.17e-4 -0.55693,0.0054 -1.11442,0.0057 -1.67031,0.04461 -0.55455,0.04181 -1.1041,0.123932 -1.65782,0.170853 0,0 2.49305,-1.811303 2.49305,-1.811303 z"
       inkscape:connector-curvature="0"
       transform="translate(6.6292965,939.95564)" />
    <path
       style="fill:#ff0000;stroke-width:1.89999998;stroke-miterlimit:4;stroke-dasharray:7.6, 7.6;stroke-dashoffset:0"
       id="path3008"
       d="m 102.47896,34.827295 c 1.69552,-0.493498 3.47149,-0.565597 5.22363,-0.660635 2.88384,-0.153361 5.77034,-0.102617 8.6557,-0.04471 2.04559,0.06532 4.09343,0.01223 6.13742,0.120552 1.52732,0.13462 0.99057,0.02963 -2.0014,1.917069 -0.0917,0.05784 -0.21595,-0.02102 -0.3243,-0.02474 -0.42933,-0.01474 -0.85913,-0.0073 -1.2887,-0.01081 -2.73184,-0.02621 -5.46378,-0.03671 -8.19572,-0.04607 -2.82716,0.02607 -5.65346,-0.03348 -8.47996,-0.08316 -1.96417,-0.04711 -2.404166,0.302272 1.43077,-1.826174 0.14679,-0.08147 0.33552,0.01288 0.50335,0.01726 0.27132,0.0071 0.54271,0.01138 0.81406,0.01708 2.75706,0.01362 5.51297,0.07299 8.26931,0.132957 1.77591,0.08734 3.58187,-0.01206 5.3441,0.266911 0.0563,0.02538 0.21729,0.03762 0.16899,0.07615 -0.8325,0.664106 -1.69256,1.298539 -2.59699,1.860745 -0.10327,0.06419 -0.24267,-0.01766 -0.36424,-0.02002 -0.20568,-0.004 -0.41144,9.61e-4 -0.61716,9.33e-4 -1.34184,-1.82e-4 -0.48054,-0.0083 -2.02616,0.01948 -3.19939,0.07561 -6.39744,0.202684 -9.59632,0.299856 -1.09336,0.02301 -2.18515,0.08794 -3.279,0.08354 -0.16168,-6.52e-4 -0.325377,0.016 -0.484936,-0.01011 -0.06215,-0.01017 -0.213824,-0.05901 -0.162777,-0.09589 0.906053,-0.654528 1.877243,-1.213794 2.815863,-1.820692 2.44718,-0.198983 4.90423,-0.247351 7.35848,-0.252181 2.57839,-0.0078 5.16558,0.06568 7.70659,0.52974 0.23593,0.07626 1.10978,0.15885 1.25034,0.483886 0.0415,0.09603 0.10462,0.255818 0.0173,0.31338 -2.54829,1.679091 -1.92339,1.564484 -3.51385,1.646303 -2.57762,0.06157 -5.15664,0.03059 -7.7348,0.02825 -2.24624,0.02616 -4.49175,0.0056 -6.73697,-0.06401 -0.0802,-0.0049 -0.30384,0.03484 -0.24062,-0.01477 0.83441,-0.654765 1.6896,-1.289841 2.59894,-1.835801 0.12002,-0.07206 0.27938,0.01925 0.4193,0.02366 0.23875,0.0075 0.47766,0.0087 0.7165,0.01214 1.00311,0.01452 1.17536,0.01421 2.23629,0.02315 2.99513,0.08653 5.99049,0.153794 8.98681,0.17623 0,0 -2.27721,1.6495 -2.27721,1.6495 l 0,0 c -3.00183,-0.06415 -6.00384,-0.133982 -9.0063,-0.155899 -1.02835,0.01519 -2.06552,0.0055 -3.09232,0.07745 -0.15066,0.01056 -0.56189,0.154344 -0.45,0.0529 2.09626,-1.900546 1.42163,-1.996435 2.54926,-1.758385 2.16751,0.214109 4.34898,0.192118 6.5244,0.194572 2.63455,-0.0096 5.27573,0.0092 7.90404,-0.191499 0.1938,-0.0327 0.73623,-0.219195 0.58142,-0.0981 -0.71287,0.557657 -1.56881,0.909626 -2.30026,1.442683 -0.0593,0.04318 0.12986,0.09715 0.20235,0.08621 0.0455,-0.0069 -0.0522,-0.07978 -0.092,-0.10286 -0.28811,-0.167105 -0.62746,-0.229053 -0.94186,-0.315068 -2.47931,-0.510444 -5.01496,-0.592623 -7.54063,-0.579093 -2.51971,0.02385 -5.06082,0.06231 -7.552643,0.46801 0.736533,-0.565141 1.469223,-1.135333 2.209603,-1.695425 0.11629,-0.08797 0.28845,0.04615 0.43401,0.05473 1.04411,0.06153 2.0901,0.0081 3.13484,0.0072 3.22259,-0.06592 6.44219,-0.200249 9.66185,-0.349886 0.70644,-0.03151 1.41348,-0.05104 2.11946,-0.0915 0.21899,-0.01255 0.43889,-0.02076 0.65595,-0.05233 0.11775,-0.01713 0.43675,-0.168458 0.3446,-0.09318 -2.27026,1.854507 -1.50297,2.191753 -2.47711,1.724246 -0.55655,-0.120464 -1.10704,-0.165058 -1.67559,-0.205729 -1.14738,-0.08208 -2.29639,-0.142225 -3.4467,-0.162005 -2.79067,-0.07436 -5.5818,-0.129018 -8.37319,-0.04735 -0.28949,0.0084 -0.57908,0.01395 -0.86847,0.02531 -0.1841,0.0072 -0.68105,0.161806 -0.55188,0.03043 2.10716,-2.143067 1.57463,-1.79384 3.39801,-1.687362 2.77961,0.136229 5.56121,0.20674 8.34447,0.16977 2.78482,-0.0094 5.57002,-0.0125 8.3543,-0.07382 0.21677,-0.0071 1.07721,-0.02823 1.35966,-0.05982 0.1083,-0.01211 0.40404,-0.135212 0.3203,-0.06548 -2.45373,2.04311 -1.46284,1.923312 -2.87334,1.715096 -1.98716,-0.182335 -3.98744,-0.134498 -5.97978,-0.216092 -2.88756,-0.06587 -5.77725,-0.108709 -8.66195,0.07873 -1.78845,0.128871 -3.66545,0.19517 -5.33401,0.915703 0,0 2.38695,-1.931149 2.38695,-1.931149 z"
       inkscape:connector-curvature="0"
       transform="translate(6.6292965,939.95564)" />
    <path
       style="fill:#ff0000;stroke-width:1.89999998;stroke-miterlimit:4;stroke-dasharray:7.6, 7.6;stroke-dashoffset:0"
       id="path3010"
       d="m 102.81583,46.302773 c -0.23478,-0.100618 -0.74432,-5.03e-4 -0.9318,-0.167749 -0.0574,-0.05118 -0.17353,-0.158335 -0.11055,-0.202442 0.89822,-0.62907 1.87974,-1.129902 2.81961,-1.694854 2.17672,-0.164283 4.35823,-0.251061 6.53995,-0.31646 2.8903,-0.09505 5.77912,-0.272523 8.67119,-0.301772 1.9707,0.03934 3.29486,-0.554555 -1.20749,1.718349 -0.17211,0.08688 -0.38303,-0.04598 -0.57542,-0.05845 -0.26742,-0.01733 -0.53557,-0.02062 -0.80335,-0.03093 -2.82945,-0.09593 -5.65922,0.02078 -8.48563,0.146177 -2.00465,0.04648 -4.00688,0.273397 -6.01311,0.231736 -0.0695,-0.0073 -0.26314,0.02142 -0.20843,-0.02202 0.82793,-0.657295 1.67886,-1.289913 2.57241,-1.854765 0.10581,-0.06689 0.25035,-0.004 0.37545,-0.0087 0.21431,-0.008 0.4284,-0.02122 0.64271,-0.02932 0.81167,-0.03068 1.17445,-0.03514 2.02027,-0.05408 2.76843,-0.111407 5.53799,-0.18765 8.30774,-0.256875 0.8651,-0.0068 1.73042,-2.69e-4 2.59521,0.02486 0.13083,0.0038 0.2633,-0.0068 0.39238,0.0149 0.058,0.0097 0.20527,0.04216 0.15839,0.07765 -0.86749,0.656597 -1.79633,1.227939 -2.69449,1.841909 -2.24238,0.176492 -4.4894,0.281905 -6.73364,0.432186 -3.01511,0.221021 -6.02976,0.454169 -9.0362,0.774364 1.03615,-0.759689 -1.04739,0.322476 -0.81841,0.164391 0.88423,-0.610454 1.73957,-1.272145 2.68225,-1.787782 0.15655,-0.08563 0.35629,0.02092 0.53458,0.02819 0.84401,0.03443 1.16226,0.0351 2.05851,0.05254 3.05851,0.03361 6.1166,0.01925 9.17483,0.07633 1.50591,0.01754 3.01235,0.07355 4.51857,0.05485 -0.86688,0.606684 -1.69928,1.265882 -2.60063,1.820053 -0.094,0.05779 -0.22045,-0.01035 -0.33053,-0.01792 -0.19443,-0.01336 -0.38849,-0.03187 -0.58295,-0.04484 -1.03283,-0.06889 -2.06125,-0.09938 -3.09627,-0.112043 -3.03571,-0.0036 -6.07013,0.127561 -9.10395,0.224563 -0.90868,0.06499 -1.82659,0.07803 -2.72979,0.210757 -0.10412,0.0153 -0.39326,0.129959 -0.30838,0.06774 2.46102,-1.804001 1.56564,-1.790248 2.90734,-1.710219 2.53791,0.204795 5.08677,0.278541 7.63147,0.360725 2.44734,0.09708 4.89448,0.180219 7.33857,0.341657 1.57819,0.141002 1.28255,-0.05638 -1.90852,1.917764 -0.10365,0.06412 -0.24278,-0.0233 -0.36457,-0.0279 -0.4936,-0.01863 -0.98782,-0.01349 -1.48174,-0.01942 -2.92954,0.01338 -5.85565,0.158289 -8.78001,0.320178 -1.70682,0.07254 -3.40957,0.222187 -5.09874,0.474 0.87076,-0.61086 1.7016,-1.282992 2.61228,-1.832579 0.11844,-0.07148 0.27666,0.0082 0.41497,0.0056 0.23811,-0.0044 0.47597,-0.0179 0.71396,-0.02643 1.15827,-0.04154 2.31603,-0.07886 3.47392,-0.130902 2.52562,-0.12668 5.05314,-0.207857 7.58061,-0.286587 0.5934,-0.02121 1.18753,-0.03003 1.78055,-0.06216 0.0667,-0.0036 0.25439,-0.0534 0.19978,-0.01497 -2.68098,1.886519 -1.67078,1.83185 -3.17202,1.790492 -1.90286,-0.09951 -3.80566,-0.113878 -5.71105,-0.103301 -1.9124,0.01549 -3.82516,0.03186 -5.73665,0.09687 -0.10293,0.0057 -0.20585,0.01132 -0.30878,0.01698 -0.0224,0.007 -0.0865,0.03424 -0.0671,0.0211 0.90266,-0.610849 1.76855,-1.282774 2.71923,-1.815839 0.14143,-0.0793 0.32395,0.01747 0.48609,0.01854 0.21585,0.0014 1.68459,-0.02714 1.77717,-0.02884 2.66549,-0.05539 5.33146,-0.08251 7.99727,-0.117672 0.95271,-0.03203 1.90604,-0.01276 2.8584,0.0189 0.3025,0.01005 0.72175,-0.02039 1.02142,0.083 -0.90412,0.587576 -1.7679,1.242457 -2.71235,1.762727 -0.12255,0.06751 -0.27844,-0.02825 -0.41799,-0.03832 -0.2141,-0.01544 -0.42844,-0.02743 -0.64282,-0.03819 -1.07942,-0.05417 -2.15883,-0.108875 -3.23832,-0.162502 -3.09467,-0.102187 -6.18937,-0.02202 -9.28222,0.09104 -1.00752,0.04213 -2.01566,0.07629 -3.02221,0.138946 -0.16017,0.01 -0.32053,0.01867 -0.480136,0.0354 -0.06412,0.0067 -0.242495,0.07266 -0.19026,0.03486 0.862636,-0.624193 1.757236,-1.202977 2.635856,-1.804465 2.17102,0.105514 4.34495,0.07205 6.51715,0.03395 2.81374,-0.03098 5.62713,-0.158368 8.44117,-0.142769 0.69719,0.01331 0.82387,0.01244 1.46964,0.03551 0.27561,0.0098 0.57541,0.06237 0.8391,-0.04387 0,0 -2.47424,1.852357 -2.47424,1.852357 l 0,0 c -0.72007,-0.08821 -1.4493,-0.1066 -2.17262,-0.150352 -2.77916,-0.06491 -5.55956,0.0264 -8.33823,0.08054 -2.26164,0.05891 -4.52328,0.09426 -6.785292,0.132814 0.781392,-0.606746 1.543922,-1.238593 2.344172,-1.820238 0.0392,-0.02852 0.0966,0.0099 0.14513,0.01094 0.14436,0.003 0.28878,0.0016 0.43316,8.94e-4 0.96575,-0.0045 1.93136,-0.02565 2.89686,-0.04634 3.10549,-0.07235 6.21159,-0.155211 9.31816,-0.09296 1.11723,0.03312 2.23353,0.06516 3.3511,0.08042 0.22806,0.0031 0.45609,0.0088 0.68416,0.01127 0.15352,0.0017 0.57236,-0.103998 0.46059,0.0013 -0.71333,0.671784 -1.56311,1.182047 -2.34467,1.773071 -0.18705,-0.06583 -0.70808,-0.0862 -0.84911,-0.09594 -0.9181,-0.06345 -1.83877,-0.08237 -2.75888,-0.07302 -2.67848,0.0067 -5.35746,0.03696 -8.03375,0.153173 -0.62539,0.02944 -1.25062,0.0627 -1.87618,0.08854 -0.17906,0.0074 -0.6614,0.146593 -0.53735,0.01726 2.19392,-2.287331 1.32962,-1.838824 2.56498,-1.789537 1.86957,0.03611 3.73965,0.01637 5.6093,-0.0041 1.95049,-0.02031 3.89982,-0.007 5.84983,0.0054 1.387,-0.03494 0.78209,-0.114707 -1.7524,1.792196 -0.0442,0.03325 -0.11034,-0.0083 -0.16562,-0.0102 -0.24047,-0.0083 -0.7063,-0.01251 -0.91216,-0.01304 -0.25454,-6.55e-4 -0.50908,0.0012 -0.76361,0.0017 -2.50426,0.02249 -5.00789,0.09685 -7.50811,0.24441 -1.19275,0.0679 -2.38617,0.123798 -3.57779,0.209801 -0.25731,0.01857 -0.51441,0.04006 -0.77162,0.06 -0.15628,0.01212 -0.58251,0.144134 -0.46886,0.03618 0.71836,-0.682384 1.56577,-1.21455 2.34865,-1.821825 0.4212,-0.0049 0.84883,-0.05609 1.2679,-0.08472 1.19451,-0.0816 2.39,-0.149701 3.58647,-0.19533 2.96984,-0.150867 5.93964,-0.304869 8.9119,-0.400891 0.24667,-0.0068 1.24367,-0.02753 1.56714,-0.05857 0.12438,-0.01193 0.46419,-0.146182 0.36918,-0.06502 -2.41101,2.05992 -1.47864,1.919219 -2.95299,1.690434 -2.3794,-0.268969 -4.77278,-0.348291 -7.16401,-0.446635 -2.62144,-0.07779 -5.24331,-0.142311 -7.86435,-0.225788 -1.428072,-0.234717 -0.78867,-0.01817 2.00585,-1.866878 0.0813,-0.05381 1.70912,-0.07313 1.71544,-0.07335 0.3831,-0.01331 0.76629,-0.02391 1.14943,-0.03587 3.04418,-0.05853 6.08628,-0.189035 9.13062,-0.233322 1.074,-0.0025 2.14519,0.02179 3.21884,0.03506 0.20649,0.0026 0.41309,0.0055 0.61953,1.11e-4 0.12175,-0.0032 0.45596,-0.106428 0.36446,-0.02603 -0.75059,0.659497 -1.59435,1.20472 -2.39152,1.80708 -0.36765,-0.05975 -0.75106,-0.06467 -1.1213,-0.0834 -1.05352,-0.05331 -2.10762,-0.09454 -3.16199,-0.126846 -3.07103,-0.08522 -6.14257,-0.0758 -9.21447,-0.04107 -0.72461,0.0072 -1.44918,0.02023 -2.17381,0.02176 -0.20617,4.35e-4 -0.75581,0.147535 -0.61848,-0.0062 1.74122,-1.949515 1.50645,-1.790435 2.98143,-1.877829 2.97049,-0.192154 5.9374,-0.436412 8.90465,-0.672201 1.0838,-0.08327 2.16789,-0.162698 3.25158,-0.247276 1.06664,-0.08325 2.14874,-0.150311 3.20667,-0.320458 0.16909,-0.02719 0.33483,-0.0722 0.50224,-0.108305 -0.7718,0.578674 -1.53483,1.169239 -2.31541,1.736021 -0.0143,0.01041 -0.0323,-0.01607 -0.0498,-0.01864 -0.11434,-0.01676 -0.22933,-0.02924 -0.34446,-0.03915 -0.82049,-0.07063 -1.64486,-0.08635 -2.46787,-0.09385 -2.77737,0.03561 -5.55391,0.116522 -8.32715,0.277123 -0.92412,0.04572 -1.86316,0.06461 -2.78039,0.201377 -0.13448,0.02005 -0.50178,0.174557 -0.39878,0.0858 2.18502,-1.88285 1.42507,-1.994829 2.54016,-1.774561 1.92552,0.145135 3.86295,-0.08729 5.7891,-0.101128 2.87656,-0.122005 5.75416,-0.244196 8.63405,-0.22981 0.28386,0.004 0.56778,0.005 0.85158,0.01194 0.20675,0.0051 0.75118,-0.135686 0.61998,0.02419 -1.76223,2.14737 -1.71425,1.821302 -3.59591,1.747871 -2.85784,-0.03169 -5.71388,0.124584 -8.56853,0.239688 -2.25216,0.09587 -4.5204,0.174311 -6.74809,0.536608 0.7896,-0.532169 1.60527,-1.02756 2.3688,-1.596507 0.0366,-0.02731 -0.12723,-0.05881 -0.0991,-0.09481 0.0309,-0.0395 0.0971,0.02586 0.14656,0.03412 0.25443,0.04249 0.51324,0.0581 0.76795,0.09905 0,0 -2.52224,1.769625 -2.52224,1.769625 z"
       inkscape:connector-curvature="0"
       transform="translate(6.6292965,939.95564)" />
    <path
       style="fill:#ff0000;stroke-width:1.89999998;stroke-miterlimit:4;stroke-dasharray:7.6, 7.6;stroke-dashoffset:0"
       id="path3012"
       d="m 103.64631,34.053109 c -0.11185,-0.0562 -0.79342,-0.07929 -0.83882,-0.154886 -0.0565,-0.094 -0.0778,-0.205024 -0.11677,-0.307537 0.94244,-0.528087 1.86867,-1.086196 2.82731,-1.584261 0.0958,-0.04976 0.21317,-0.03381 0.31974,-0.0508 0.16641,-0.02653 0.33268,-0.05393 0.4992,-0.07976 0.88387,-0.137076 1.76508,-0.225491 2.65619,-0.302874 2.63467,-0.223464 5.2758,-0.183843 7.90748,0.03867 1.80096,0.223877 3.63212,0.431786 5.3807,0.939689 0.0935,0.04205 0.19878,0.06435 0.28064,0.126138 0.0556,0.04198 0.17204,0.131532 0.11649,0.173609 -0.86296,0.653642 -1.76882,1.254802 -2.70956,1.790488 -0.11169,0.0636 -0.25617,-0.02194 -0.38453,-0.02862 -0.41897,-0.02179 -0.83852,-0.03025 -1.25779,-0.04531 -2.32964,-0.158701 -4.65986,-0.303467 -6.99042,-0.448012 -2.2988,-0.134262 -4.59484,-0.306425 -6.89574,-0.402875 -1.89809,-0.08607 -2.26831,0.317312 1.35791,-1.79606 0.09,-0.05246 0.20253,0.04986 0.3053,0.06698 0.18535,0.03088 0.37229,0.05128 0.55844,0.07692 2.42777,0.296369 4.86682,0.4963 7.30299,0.711203 2.22329,0.22486 4.46158,0.302655 6.68374,0.533557 1.48322,0.124567 1.2644,-0.119306 -2.08288,1.810595 -0.0987,0.05694 -0.22619,-0.02852 -0.33921,-0.04333 -0.91346,-0.119668 -0.32443,-0.05219 -1.40884,-0.159453 -2.56948,-0.20295 -5.15185,-0.136641 -7.72465,-0.04033 -0.99652,0.04438 -1.99321,0.08777 -2.98855,0.154388 -0.1808,0.0121 -0.36168,0.02361 -0.54211,0.0404 -0.0964,0.009 -0.3672,0.09267 -0.28809,0.03685 0.89416,-0.630946 1.83906,-1.186734 2.75858,-1.780101 0.73158,0.03592 1.46419,0.04268 2.19641,0.05406 0,0 -2.34873,1.705561 -2.34873,1.705561 l 0,0 c -0.77511,0.0078 -1.55022,0.01912 -2.32538,0.01991 0.72632,-0.603947 1.42201,-1.246754 2.17896,-1.811839 0.0659,-0.04917 0.16441,0.0019 0.24661,0.0011 0.16711,-0.0017 0.3342,-0.0054 0.50129,-0.0087 0.96282,-0.01938 1.92539,-0.04863 2.88796,-0.07746 2.60912,-0.07549 5.22362,-0.137005 7.83157,0.0037 0.49832,0.03258 0.99639,0.06921 1.49487,0.0994 0.12874,0.0078 0.48238,-0.06756 0.38648,0.01869 -2.30091,2.069272 -1.48375,1.936595 -2.86468,1.69697 -2.16115,-0.314502 -4.35029,-0.420586 -6.5223,-0.635004 -2.48897,-0.208205 -4.97894,-0.40346 -7.46854,-0.603316 -0.20432,-0.01892 -0.40882,-0.03599 -0.61296,-0.05675 -0.11808,-0.01201 -0.44261,0.03701 -0.35364,-0.04156 2.38381,-2.105246 1.67066,-1.828855 3.5675,-1.690687 2.2633,0.164736 4.52477,0.35829 6.79102,0.479019 2.36554,0.136659 4.73196,0.271081 7.10001,0.353724 0.21023,-3.7e-4 1.0419,0.0071 1.30571,-0.02259 0.12027,-0.01353 0.44967,-0.155639 0.35374,-0.08185 -3.02761,2.328836 -1.55815,2.037317 -2.58546,1.516098 -1.67374,-0.556877 -3.4454,-0.785698 -5.18922,-0.995894 -2.63786,-0.218157 -5.28638,-0.236815 -7.92273,0.0367 -0.92092,0.10257 -1.82908,0.218113 -2.73883,0.394972 -1.31551,0.255741 -2.58036,0.913253 1.6041,-1.305252 -0.0607,-0.07644 -0.13159,-0.145766 -0.18201,-0.229329 -1.3e-4,-2.13e-4 0.015,0.0044 0.19899,0.03759 0.12208,0.022 0.27255,0.04835 0.3939,0.06719 0.0702,0.0109 0.14057,0.02044 0.21086,0.03065 0,0 -2.52225,1.769626 -2.52225,1.769626 z"
       inkscape:connector-curvature="0"
       transform="translate(6.6292965,939.95564)" />
  </g>
</svg>
