<?xml version="1.0" encoding="UTF-8" standalone="no"?>
<!-- Created with Inkscape (http://www.inkscape.org/) -->

<svg
   xmlns:dc="http://purl.org/dc/elements/1.1/"
   xmlns:cc="http://creativecommons.org/ns#"
   xmlns:rdf="http://www.w3.org/1999/02/22-rdf-syntax-ns#"
   xmlns:svg="http://www.w3.org/2000/svg"
   xmlns="http://www.w3.org/2000/svg"
   xmlns:sodipodi="http://sodipodi.sourceforge.net/DTD/sodipodi-0.dtd"
   xmlns:inkscape="http://www.inkscape.org/namespaces/inkscape"
   width="160"
   height="94.949997"
   id="svg2"
   version="1.1"
   inkscape:version="0.48.3.1 r9886"
   inkscape:export-filename="integral.png"
   inkscape:export-xdpi="150"
   inkscape:export-ydpi="150"
   sodipodi:docname="definite.svg">
  <defs
     id="defs4" />
  <sodipodi:namedview
     id="base"
     pagecolor="#9fffa7"
     bordercolor="#666666"
     borderopacity="1.0"
     inkscape:pageopacity="0"
     inkscape:pageshadow="2"
     inkscape:zoom="6.2875199"
     inkscape:cx="80"
     inkscape:cy="47.474998"
     inkscape:document-units="px"
     inkscape:current-layer="layer1"
     showgrid="false"
     inkscape:window-width="1231"
     inkscape:window-height="776"
     inkscape:window-x="49"
     inkscape:window-y="24"
     inkscape:window-maximized="1"
     fit-margin-top="0"
     fit-margin-left="0"
     fit-margin-right="0"
     fit-margin-bottom="0" />
  <metadata
     id="metadata7">
    <rdf:RDF>
      <cc:Work
         rdf:about="">
        <dc:format>image/svg+xml</dc:format>
        <dc:type
           rdf:resource="http://purl.org/dc/dcmitype/StillImage" />
        <dc:title></dc:title>
      </cc:Work>
    </rdf:RDF>
  </metadata>
  <g
     inkscape:label="Layer 1"
     inkscape:groupmode="layer"
     id="layer1"
     transform="translate(-6.6292965,-936.95566)">
    <path
       style="fill:#008080;fill-opacity:1;stroke:#050101;stroke-width:1.10000002;stroke-miterlimit:0.30000001;stroke-opacity:1;stroke-dasharray:none"
       id="path4716"
       d="m 35.022812,16.563465 c -0.414675,0.0018 -0.823434,0.116703 -1.213005,0.251133 -0.723133,0.327945 -1.933582,1.037427 1.30865,-0.776638 0.08181,-0.04577 -0.157333,0.101987 -0.235185,0.154209 -0.266648,0.178866 -0.221988,0.150818 -0.480189,0.345494 -0.500192,0.378215 -0.954531,0.80996 -1.391321,1.258527 -0.504171,0.547982 -0.938546,1.155896 -1.355857,1.771215 -0.462107,0.654309 -0.786901,1.384228 -1.122225,2.107291 -0.361899,0.763165 -0.61015,1.57358 -0.881438,2.371821 -0.279437,0.896819 -0.510022,1.807412 -0.702164,2.726621 -0.1893,0.988907 -0.244128,1.996734 -0.240086,3.001581 -0.0014,1.181658 0.132471,2.354583 0.285941,3.524203 0.137851,1.172005 0.477193,2.293608 0.913778,3.384751 0.42572,1.024806 0.978611,1.988856 1.59008,2.912545 0.626652,0.939794 1.31877,1.830299 2.042261,2.69648 0.719591,0.812785 1.499185,1.568534 2.29989,2.300362 0.727938,0.665708 1.459258,1.32847 2.213685,1.964153 0.741927,0.581006 1.428402,1.221825 2.117106,1.863354 0.746369,0.701401 1.415744,1.476052 2.079916,2.253791 0.691692,0.781623 1.386098,1.558901 2.057177,2.358453 0.725395,0.783177 1.370813,1.625767 1.9985,2.487275 0.583069,0.824382 1.084453,1.699738 1.549514,2.594653 0.451658,0.922475 0.899473,1.84678 1.231888,2.819671 0.314704,0.982516 0.553719,1.987362 0.776523,2.99408 0.226769,0.919364 0.334526,1.860634 0.459464,2.797461 0.13345,0.835933 0.06436,1.670165 -0.06772,2.499369 -0.126496,0.841972 -0.446207,1.630262 -0.803257,2.397005 -0.426827,0.892015 -0.987135,1.701915 -1.59823,2.47537 -0.737125,0.875168 -1.615992,1.614133 -2.51168,2.320094 -1.478238,1.09893 -3.055499,2.109376 -4.77888,2.774687 -0.924864,0.333326 -1.890356,0.31011 -2.85068,0.193769 -1.161986,-0.141037 -2.310199,-0.380199 -3.443553,-0.669398 -1.304203,-0.353212 -2.560254,-0.83617 -3.7712,-1.432017 -1.00376,-0.521147 -1.795207,-1.135593 -2.461977,-2.049234 -0.488094,-0.758711 -0.599957,-1.43694 -0.487295,-2.317109 0.111291,-0.62907 0.409105,-1.183925 0.74387,-1.71788 0.158389,-0.231908 0.08034,-0.127039 0.230848,-0.317027 0,0 2.169217,-0.903716 2.169217,-0.903716 l 0,0 c -0.182985,0.1575 -0.09159,0.06576 -0.267048,0.282169 -0.333625,0.515791 -0.673139,1.027036 -0.803043,1.640202 -0.150326,0.797358 -0.06295,1.474195 0.384675,2.168733 0.631767,0.890324 1.403408,1.471924 2.368467,1.976462 1.199513,0.58783 2.444978,1.062156 3.740801,1.394516 1.138391,0.272532 2.289553,0.499754 3.454427,0.624541 0.9453,0.08936 1.888335,0.07416 2.784319,-0.282999 0.71732,-0.297056 2.39475,-1.217722 -0.53544,0.440896 -0.164259,0.09298 0.319462,-0.201144 0.47768,-0.304066 0.536463,-0.348975 0.427355,-0.280368 0.946389,-0.663408 0.894804,-0.690737 1.769893,-1.416052 2.519766,-2.26605 0.610816,-0.755105 1.175548,-1.543659 1.601737,-2.420048 0.365199,-0.7423 0.686306,-1.514249 0.823501,-2.334789 0.138623,-0.809634 0.235952,-1.62357 0.105326,-2.443534 -0.114233,-0.933303 -0.214104,-1.871062 -0.437823,-2.786272 -0.215125,-1.000125 -0.450813,-1.997846 -0.760179,-2.973487 -0.327579,-0.962513 -0.771179,-1.875846 -1.219555,-2.787177 -0.460424,-0.884362 -0.953201,-1.75199 -1.527762,-2.568275 -0.621606,-0.859677 -1.267789,-1.69524 -1.991133,-2.473296 -0.669046,-0.80043 -1.365821,-1.575264 -2.057909,-2.355711 -0.657338,-0.772491 -1.324397,-1.538543 -2.06958,-2.228912 -0.689301,-0.637186 -1.382137,-1.266935 -2.116735,-1.852405 -0.747453,-0.645899 -1.48372,-1.304877 -2.205915,-1.978911 -0.803111,-0.742804 -1.589693,-1.504989 -2.311242,-2.328481 -0.728054,-0.873029 -1.416661,-1.775862 -2.051998,-2.7193 -0.623973,-0.933931 -1.186104,-1.911458 -1.610124,-2.953977 -0.450744,-1.105665 -0.79058,-2.247773 -0.935842,-3.437117 -0.16113,-1.175373 -0.297981,-2.354094 -0.3107,-3.542092 -0.02165,-1.01629 0.02582,-2.036717 0.205842,-3.039019 0.185181,-0.926457 0.416663,-1.842012 0.68276,-2.7486 0.268125,-0.802981 0.512567,-1.619178 0.863946,-2.390216 0.331763,-0.732614 0.651041,-1.473986 1.10726,-2.140682 0.41003,-0.62321 0.839445,-1.235674 1.325918,-1.802158 0.429704,-0.457147 0.872656,-0.903373 1.372704,-1.284612 0.219815,-0.184962 0.453065,-0.37696 0.700942,-0.524194 0.843291,-0.500898 1.73825,-1.156376 2.707497,-1.4924 0.422192,-0.118217 0.856104,-0.232182 1.29832,-0.177665 0,0 -1.932612,1.355935 -1.932612,1.355935 z"
       inkscape:connector-curvature="0"
       transform="translate(6.6292965,936.95566)" />
    <path
       style="fill:#008080;fill-opacity:1;stroke:#050101;stroke-width:1.10000002;stroke-miterlimit:0.30000001;stroke-opacity:1;stroke-dasharray:none"
       id="path4718"
       d="m 54.49411,81.948606 c 0.25587,-0.491461 0.295402,-0.996251 0.180354,-1.529601 -0.209514,-0.605529 -0.743835,-0.88591 -1.2955,-1.127151 -0.845366,-0.265916 -1.48196,-0.186749 -2.30307,0.100986 -0.142754,0.06424 -0.289041,0.121139 -0.428263,0.192709 -0.150023,0.07712 -0.586949,0.332703 -0.438383,0.25281 0.503755,-0.270898 0.982834,-0.590426 1.504089,-0.825903 0.171213,-0.07734 -0.301543,0.224681 -0.444097,0.347053 -0.405421,0.34802 -0.482113,0.461679 -0.840482,0.863777 -0.715081,0.931374 -1.170146,2.032212 -1.394941,3.181995 -0.04719,0.241359 -0.07208,0.486548 -0.108116,0.729822 -0.06429,1.034936 0.02062,2.172021 0.691732,3.020144 0.104517,0.132084 0.236634,0.239759 0.354951,0.359638 0.668473,0.514204 1.475229,0.628985 2.266191,0.333534 0.158923,-0.05936 0.306876,-0.144738 0.460314,-0.217107 -0.499272,0.272958 -0.972987,0.599024 -1.497815,0.818873 -0.175974,0.07371 0.297763,-0.239601 0.433947,-0.373221 0.624936,-0.61317 1.019272,-1.384437 1.407675,-2.156917 0.461118,-0.954539 0.782777,-1.968562 0.989167,-3.006637 0.261768,-1.628357 -0.339734,-0.738458 2.25865,-1.999402 0.288858,0.677833 0.511748,1.382293 0.802923,2.06167 0.391339,0.905339 0.938337,1.791637 1.784481,2.338577 0.170583,0.110264 0.357866,0.192247 0.536799,0.288371 1.231469,0.483859 2.534396,0.31625 3.800536,0.08969 0.917771,-0.17871 1.806881,-0.467292 2.693533,-0.758139 0,0 -1.806116,1.399934 -1.806116,1.399934 l 0,0 c -0.882955,0.277036 -1.769761,0.548141 -2.682893,0.709124 -1.307596,0.207434 -2.642446,0.33722 -3.891282,-0.211171 -0.18533,-0.106102 -0.379384,-0.198243 -0.55599,-0.318305 -0.862351,-0.586252 -1.434208,-1.49159 -1.857629,-2.424175 -0.292999,-0.646742 -0.535239,-1.318653 -0.84901,-1.953078 0.673822,-0.395491 1.343614,-0.797929 2.021465,-1.186474 0.01904,-0.01091 -0.03432,0.03053 -0.04119,0.05138 -0.01359,0.04129 -0.01251,0.08603 -0.01822,0.129118 -0.03462,0.261117 -0.06585,0.522961 -0.125049,0.780111 -0.225899,1.061172 -0.555484,2.101496 -1.018072,3.084528 -0.291156,0.597254 -0.577164,1.210057 -0.966793,1.752101 -0.813681,1.131976 -1.917002,1.622143 -3.204085,2.294496 -0.162698,0.06281 -0.320534,0.140059 -0.488093,0.188429 -0.860177,0.248315 -1.715295,0.03632 -2.394139,-0.53267 -0.123654,-0.134429 -0.261321,-0.257204 -0.370963,-0.403287 -0.680517,-0.906701 -0.788023,-2.083635 -0.731923,-3.176747 0.03363,-0.249391 0.05663,-0.500448 0.100899,-0.748172 0.208879,-1.168825 0.637731,-2.296225 1.324011,-3.268497 0.334669,-0.401266 0.432145,-0.545735 0.813997,-0.896911 1.063895,-0.978428 2.399499,-1.644268 3.718326,-2.213744 0.863437,-0.250559 1.557857,-0.292494 2.415348,0.02519 0.614879,0.282308 1.180962,0.632396 1.420352,1.302 0.134157,0.560534 0.143158,1.108037 -0.08813,1.648094 0,0 -2.139492,0.983159 -2.139492,0.983159 z"
       inkscape:connector-curvature="0"
       transform="translate(6.6292965,936.95566)" />
    <path
       style="fill:#008080;fill-opacity:1;stroke:#050101;stroke-width:1.10000002;stroke-miterlimit:0.30000001;stroke-opacity:1;stroke-dasharray:none"
       id="path4720"
       d="m 43.142978,6.9759245 c -0.08248,-0.3667316 -0.197089,-0.722943 -0.337169,-1.0713942 -0.0097,-0.027801 -0.05513,-0.069822 -0.02901,-0.083403 0.698273,-0.3631457 1.38644,-0.7640629 2.133701,-1.0111665 0.0919,-0.030389 0.07052,0.1803381 0.102172,0.2718106 0.178677,0.5164094 0.32834,1.0441276 0.488721,1.5663069 0.572571,1.8447358 1.117146,3.6967415 1.617001,5.5624665 0.475163,1.879757 0.901439,3.770989 1.457167,5.629293 0.161306,0.448117 0.254175,0.940225 0.490168,1.36064 0.03083,0.05491 0.06117,0.121122 0.118535,0.147112 0.02936,0.0133 0.105715,-0.07309 0.07696,-0.05853 -0.645348,0.326758 -1.285397,0.663878 -1.928096,0.995816 0.05758,-0.08263 0.122571,-0.160568 0.172735,-0.247902 0.274411,-0.477747 0.45851,-1.010222 0.695585,-1.506356 0.287294,-0.601228 0.349949,-0.695616 0.674692,-1.288379 0.597473,-1.027626 1.285678,-2.025291 2.228084,-2.768654 0.15541,-0.122587 0.324457,-0.226819 0.486686,-0.340228 1.526186,-0.896787 2.74354,-1.923573 4.5265,-1.478167 0.169057,0.04223 0.329457,0.113634 0.494186,0.17045 0.889338,0.413366 1.594135,1.106401 2.101553,1.940744 0.113911,0.187302 0.207252,0.386365 0.310879,0.579547 0.508208,1.085972 0.741795,2.292645 0.62081,3.49101 -0.02387,0.236458 -0.07832,0.468823 -0.117487,0.703234 -0.237515,0.896243 -0.624646,1.769945 -1.306003,2.421483 -0.796824,0.761951 -2.494486,1.528666 -3.112615,1.874282 -1.27554,0.42093 -2.613496,0.330702 -3.881413,-0.07687 -0.258553,-0.08311 -0.507817,-0.192744 -0.761726,-0.289116 -1.271289,-0.567753 -2.417235,-1.37962 -3.424973,-2.334706 -0.406175,-0.413168 -0.215601,-0.212277 -0.57353,-0.600954 0,0 1.973241,-1.192922 1.973241,-1.192922 l 0,0 c 0.332997,0.390864 0.155897,0.188791 0.532961,0.604759 0.966348,0.949578 2.077206,1.752732 3.327807,2.287532 0.248699,0.09035 0.4927,0.19487 0.746098,0.271056 1.255951,0.377609 2.571678,0.416888 3.804779,-0.06179 -0.421719,0.263842 -0.829916,0.550641 -1.265156,0.791527 -0.20408,0.112949 0.392756,-0.254385 0.569549,-0.406539 0.698084,-0.600794 1.105944,-1.441396 1.361627,-2.309137 0.04475,-0.22599 0.10576,-0.449359 0.134238,-0.677969 0.143965,-1.155732 -0.07879,-2.33159 -0.577339,-3.376482 C 56.97353,16.27946 56.882042,16.088829 56.770802,15.909736 56.278848,15.11771 55.59463,14.46639 54.728903,14.106269 54.572085,14.0601 54.418725,13.999933 54.258448,13.967763 c -0.489205,-0.09819 -1.02391,-0.077 -1.506576,0.04613 -0.170262,0.04343 -0.639913,0.274759 -0.499101,0.16965 0.449921,-0.335843 0.960483,-0.581682 1.440724,-0.872523 -0.168833,0.106615 -0.344772,0.202732 -0.506498,0.319847 -0.969498,0.702069 -1.676602,1.681959 -2.278544,2.701402 -0.542744,0.984154 -1.008497,1.997527 -1.409808,3.047398 -0.724627,0.41935 -1.423153,0.887451 -2.173883,1.25805 -0.106903,0.05277 -0.272838,-0.301616 -0.277042,-0.311279 -0.197304,-0.453561 -0.281362,-0.9531 -0.424668,-1.423128 C 46.12358,17.023193 45.711581,15.121732 45.228074,13.237632 44.719593,11.384479 44.167937,9.5444751 43.536859,7.7288457 43.360745,7.2252662 43.196891,6.7110423 42.985223,6.2205632 42.949291,6.1373005 42.795351,6.0331202 42.86586,5.9760913 43.480465,5.478988 44.189203,5.1105839 44.864856,4.7002851 c 0.01725,-0.010477 0.0015,0.040342 0.0023,0.060513 0.120394,0.3571367 0.234871,0.7158673 0.342943,1.0766906 0,0 -2.067088,1.1384354 -2.067088,1.1384354 z"
       inkscape:connector-curvature="0"
       transform="translate(6.6292965,936.95566)" />
    <path
       style="fill:#008080;fill-opacity:1;stroke:#050101;stroke-width:1.10000002;stroke-miterlimit:0.30000001;stroke-opacity:1;stroke-dasharray:none"
       id="path4722"
       d="m 80.062971,35.709916 c 0.02017,-0.765048 -0.255136,-1.411368 -0.666917,-2.039014 -0.425549,-0.537973 -1.001747,-1.026938 -1.706738,-1.127852 -0.138267,-0.01979 -0.279221,-0.0085 -0.418832,-0.0128 -0.152983,0.03009 -0.309059,0.04734 -0.458949,0.09027 -0.171229,0.04903 -0.33989,0.109606 -0.501387,0.184722 -0.179357,0.08342 -0.693508,0.38079 -0.518053,0.289444 0.465936,-0.242577 0.889458,-0.582713 1.389637,-0.743211 0.21502,-0.069 -0.345441,0.292541 -0.499551,0.457599 -0.159094,0.170397 -0.291526,0.363864 -0.437289,0.545797 -0.731822,1.094866 -1.069502,2.37892 -1.11054,3.688225 -0.0091,0.290102 0.0099,0.580405 0.01485,0.870608 0.150812,1.981214 0.932277,3.805871 1.746025,5.591022 0.758688,1.646777 1.673261,3.219064 2.393032,4.884234 0.134615,0.311428 0.254406,0.629057 0.381609,0.943585 0.423107,1.12666 0.782247,2.288608 0.918834,3.48878 0.06653,0.584576 0.06005,0.957049 0.07087,1.540446 -0.01302,1.046858 -0.09437,2.107696 -0.598248,3.042371 0,0 -2.117607,0.936005 -2.117607,0.936005 l 0,0 c 0.623751,-0.897434 0.682954,-1.901785 0.734298,-2.966129 -0.0012,-0.549116 0.01023,-0.972463 -0.04197,-1.522094 -0.112955,-1.189416 -0.450462,-2.344448 -0.859199,-3.462346 -0.362605,-0.918466 -0.373158,-0.987006 -0.797699,-1.890769 -0.622927,-1.326089 -1.337722,-2.607201 -1.959618,-3.933892 -0.840287,-1.80063 -1.642351,-3.646431 -1.82528,-5.64872 -0.01024,-0.295532 -0.03444,-0.590909 -0.03073,-0.886595 0.01675,-1.333158 0.328126,-2.65065 1.028701,-3.792391 0.139795,-0.191628 0.266064,-0.393896 0.419385,-0.574883 0.809183,-0.9552 1.733668,-1.274212 2.93996,-1.980235 0.488526,-0.285926 1.016089,-0.462994 1.58305,-0.485388 0.150466,0.01709 0.303459,0.01894 0.4514,0.05128 0.737808,0.161298 1.336704,0.687635 1.786503,1.266181 0.447577,0.67637 0.714642,1.312369 0.790632,2.125653 0,0 -2.100183,1.070097 -2.100183,1.070097 z"
       inkscape:connector-curvature="0"
       transform="translate(6.6292965,936.95566)" />
    <path
       style="fill:#008080;fill-opacity:1;stroke:#050101;stroke-width:1.10000002;stroke-miterlimit:0.30000001;stroke-opacity:1;stroke-dasharray:none"
       id="path4724"
       d="m 70.009902,50.322277 c -0.254019,-0.24074 -0.388371,-0.586673 -0.0093,-0.803138 0.779362,-0.444991 1.577494,-0.856275 2.36624,-1.284413 1.689609,-0.544358 3.420871,-0.935011 5.154325,-1.308814 1.528475,-0.32634 3.065371,-0.609104 4.607213,-0.864076 0,0 -1.773306,1.332263 -1.773306,1.332263 l 0,0 c -1.524022,0.239936 -3.043077,0.509889 -4.551192,0.836476 -1.769565,0.386715 -3.540792,0.796332 -5.24254,1.426564 0.538284,-0.325322 1.087782,-0.632771 1.61485,-0.975965 0.06693,-0.04358 -0.152094,0.04882 -0.228196,0.07306 -0.03912,0.01246 -0.09007,0.0065 -0.117482,0.03704 -0.07471,0.0833 0.162332,0.261216 0.193768,0.296561 0,0 -2.014427,1.234442 -2.014427,1.234442 z"
       inkscape:connector-curvature="0"
       transform="translate(6.6292965,936.95566)" />
    <path
       style="fill:#008080;fill-opacity:1;stroke:#050101;stroke-width:1.10000002;stroke-miterlimit:0.30000001;stroke-opacity:1;stroke-dasharray:none"
       id="path4726"
       d="m 94.837732,35.905689 c -0.946178,0.505817 0.952865,-0.574992 1.445259,-0.833495 0.151171,-0.07936 -0.284654,0.189235 -0.419086,0.294492 -0.594213,0.465254 -1.094433,1.013465 -1.598112,1.571707 -0.911445,1.07575 -1.649057,2.285092 -2.187345,3.588488 -0.391543,0.948073 -0.470133,1.316998 -0.760264,2.308122 -0.481289,1.970145 -0.743936,4.005808 -0.617359,6.035844 0.02233,0.358073 0.07113,0.714003 0.106688,1.071004 0.250926,1.791129 0.935514,3.237323 1.962092,4.699137 0.690848,0.886221 1.519748,1.646994 2.395135,2.345866 0,0 -1.937472,1.214318 -1.937472,1.214318 l 0,0 c -0.872633,-0.728042 -1.696363,-1.517527 -2.379523,-2.430202 -1.009952,-1.496644 -1.718509,-3.019873 -1.948722,-4.833463 -0.09276,-0.993601 -0.14032,-1.233225 -0.129987,-2.246745 0.017,-1.667191 0.255407,-3.325418 0.635266,-4.946617 0.110949,-0.39988 0.208741,-0.803645 0.332848,-1.199639 0.539974,-1.722924 1.35657,-3.346917 2.499513,-4.749977 1.291243,-1.516876 2.481668,-2.589503 4.467798,-3.326132 0,0 -1.866729,1.437292 -1.866729,1.437292 z"
       inkscape:connector-curvature="0"
       transform="translate(6.6292965,936.95566)" />
    <path
       style="fill:#008080;fill-opacity:1;stroke:#050101;stroke-width:1.10000002;stroke-miterlimit:0.30000001;stroke-opacity:1;stroke-dasharray:none"
       id="path4728"
       d="m 101.43002,44.284504 c 0.38349,1.24663 1.25011,2.292787 2.04557,3.301548 1.20616,1.485997 2.58595,2.815211 3.93775,4.165412 0.85061,0.844156 1.68339,1.706327 2.53163,2.552635 0,0 -1.96606,1.198416 -1.96606,1.198416 l 0,0 c -0.79975,-0.881309 -1.61253,-1.750338 -2.44468,-2.601469 -1.33395,-1.376416 -2.70316,-2.722641 -3.93506,-4.193632 -0.8347,-1.030991 -1.712275,-2.073428 -2.238018,-3.304111 0,0 2.068868,-1.118799 2.068868,-1.118799 z"
       inkscape:connector-curvature="0"
       transform="translate(6.6292965,936.95566)" />
    <path
       style="fill:#008080;fill-opacity:1;stroke:#050101;stroke-width:1.10000002;stroke-miterlimit:0.30000001;stroke-opacity:1;stroke-dasharray:none"
       id="path4730"
       d="m 107.2332,46.848242 c -0.0679,0.02372 -0.13864,0.04045 -0.20368,0.07115 -0.0897,0.04234 -0.34542,0.195029 -0.2586,0.147092 0.54928,-0.303299 1.07564,-0.651736 1.64603,-0.913188 0.15612,-0.07156 -0.2653,0.218622 -0.3895,0.337226 -0.38375,0.366457 -0.57988,0.61748 -0.93328,1.028761 -1.19772,1.457614 -2.29788,2.991626 -3.38594,4.531733 -0.40886,0.582958 -0.79943,1.178436 -1.18689,1.775727 -0.19241,0.296606 -0.37404,0.580889 -0.51461,0.904859 0,0 -2.121432,0.973561 -2.121432,0.973561 l 0,0 c 0.154922,-0.356031 0.350762,-0.653974 0.570612,-0.974958 0.41374,-0.604058 0.81915,-1.213869 1.24634,-1.808626 1.0917,-1.527236 2.18142,-3.057298 3.3437,-4.532095 0.37415,-0.463092 0.48362,-0.617754 0.87543,-1.035377 0.11518,-0.122767 0.21562,-0.265635 0.35664,-0.35756 0.74986,-0.488788 1.53001,-0.929734 2.30508,-1.377461 0.20227,-0.116843 0.32287,-0.131799 0.53695,-0.183049 0,0 -1.88685,1.412207 -1.88685,1.412207 z"
       inkscape:connector-curvature="0"
       transform="translate(6.6292965,936.95566)" />
    <path
       style="fill:#008080;fill-opacity:1;stroke:#050101;stroke-width:1.10000002;stroke-miterlimit:0.30000001;stroke-opacity:1;stroke-dasharray:none"
       id="path4732"
       d="m 112.6027,33.824895 c 0.951,0.907036 1.84166,1.871712 2.70358,2.862888 1.15234,1.360618 2.30768,2.745457 3.13582,4.335392 0.16338,0.313688 0.29955,0.640822 0.44932,0.961232 0.67378,1.654103 0.86524,3.430546 0.60036,5.194593 -0.0533,0.355264 -0.13961,0.704798 -0.20942,1.057196 -0.51875,2.122521 -1.62266,4.004723 -2.74259,5.854611 -0.96677,1.496883 -1.95734,2.979309 -2.99312,4.429454 0,0 -2.05717,0.889348 -2.05717,0.889348 l 0,0 c 1.08178,-1.443347 2.09158,-2.939053 3.08063,-4.447086 1.11603,-1.83163 2.23139,-3.687801 2.77184,-5.786193 0.0723,-0.346079 0.16085,-0.689145 0.21677,-1.038237 0.27644,-1.725996 0.10598,-3.466248 -0.5474,-5.090504 -0.1452,-0.315708 -0.27591,-0.638492 -0.4356,-0.947124 -0.81721,-1.57944 -1.967,-2.956464 -3.13362,-4.28532 -0.88444,-0.973344 -1.79329,-1.933659 -2.8351,-2.742259 0,0 1.9957,-1.247991 1.9957,-1.247991 z"
       inkscape:connector-curvature="0"
       transform="translate(6.6292965,936.95566)" />
    <path
       style="fill:#008080;fill-opacity:1;stroke:#050101;stroke-width:1.10000002;stroke-miterlimit:0.30000001;stroke-opacity:1;stroke-dasharray:none"
       id="path4734"
       d="m 129.24536,54.274737 c 0.36427,-0.697569 0.47169,-1.478209 0.52894,-2.252436 -0.0197,-0.758177 -0.15041,-1.61816 -0.74921,-2.154981 -0.10426,-0.09347 -0.23041,-0.159196 -0.34561,-0.238793 -0.67994,-0.273884 -1.34205,-0.122393 -1.97572,0.205819 -0.20134,0.104285 -0.79297,0.435878 -0.58276,0.350868 0.4505,-0.182192 0.87189,-0.429404 1.30784,-0.644105 -0.976,0.902053 -1.72389,2.048 -2.06089,3.342511 -0.0601,0.230775 -0.0906,0.468257 -0.13584,0.702385 -0.0503,0.855796 0.0394,1.900548 0.89479,2.356249 0.13645,0.0727 0.29232,0.100828 0.43848,0.151242 0.57483,0.09427 1.0976,-0.04742 1.61016,-0.310596 0.20093,-0.103168 0.78815,-0.43693 0.57856,-0.352727 -1.3035,0.523696 -1.79061,1.12234 -0.70002,0.05472 1.2278,-1.427176 2.02551,-3.151652 2.57356,-4.941033 0.13366,-0.436402 0.24025,-0.880639 0.36037,-1.320958 0.66334,-2.657187 0.9247,-5.38609 1.13464,-8.10937 0.0997,-1.684248 0.11625,-3.371679 -0.0895,-5.047579 -0.0449,-0.356961 -0.10014,-0.716652 -0.21488,-1.059117 -0.0168,-0.05025 -0.0305,-0.103437 -0.0609,-0.146851 -0.007,-0.0099 -0.0322,0.03465 -0.0214,0.02933 0.67764,-0.332152 1.35027,-0.674422 2.02541,-1.011632 -0.0314,0.08267 -0.0703,0.162866 -0.0942,0.24801 -0.085,0.30308 -0.12732,0.651916 -0.1667,0.958928 -0.10648,0.830081 -0.16922,1.661586 -0.22843,2.496118 -0.17361,2.58348 -0.11416,5.173252 -0.0374,7.758866 0.0678,2.541433 0.28839,5.073217 0.75629,7.572387 0.24738,1.302065 0.69236,2.535223 1.33532,3.689983 0,0 -1.95301,1.120129 -1.95301,1.120129 l 0,0 c -0.62552,-1.19484 -1.05289,-2.465747 -1.28632,-3.79728 -0.42767,-2.524773 -0.62761,-5.076518 -0.70159,-7.635753 -0.0824,-2.575517 -0.17146,-5.153363 -0.0613,-7.729707 0.0529,-1.23731 0.10138,-2.48196 0.28793,-3.707464 0.71058,-0.40936 1.40202,-0.853909 2.13175,-1.22808 0.032,-0.01639 0.0799,0.109056 0.12177,0.274986 0.0925,0.366796 0.14297,0.743158 0.17094,1.119953 0.14844,1.713389 0.11995,3.430482 -0.0113,5.14534 -0.24868,2.735879 -0.52513,5.477072 -1.14957,8.157906 -0.11425,0.442191 -0.21624,0.887732 -0.34275,1.326572 -0.51691,1.793018 -1.2688,3.525475 -2.44186,4.99061 -1.22318,1.291146 -0.45437,0.578292 -3.07681,2.199499 -0.7209,0.445666 -1.49368,0.728448 -2.34246,0.525087 -0.42323,-0.184896 -0.55358,-0.188559 -0.87271,-0.54014 -0.56001,-0.616938 -0.61072,-1.474847 -0.57157,-2.262292 0.0436,-0.243465 0.0721,-0.490131 0.13085,-0.730396 0.3228,-1.320331 1.05412,-2.505996 2.00752,-3.462283 0.83153,-0.530314 1.65606,-1.071769 2.4946,-1.590941 0.68059,-0.421384 1.48979,-0.764537 2.30326,-0.556496 0.15638,0.03999 0.29957,0.120334 0.44936,0.180501 0.12499,0.09537 0.262,0.176755 0.37497,0.286094 0.61654,0.5967 0.77968,1.494073 0.82297,2.311522 -0.0331,0.776852 -0.11696,1.570543 -0.42622,2.292238 0,0 -2.1395,0.983158 -2.1395,0.983158 z"
       inkscape:connector-curvature="0"
       transform="translate(6.6292965,936.95566)" />
    <path
       style="fill:#008080;fill-opacity:1;stroke:#050101;stroke-width:1.10000002;stroke-miterlimit:0.30000001;stroke-opacity:1;stroke-dasharray:none"
       id="path4736"
       d="m 149.1927,43.743733 c -0.8733,1.18857 -1.50496,2.534934 -2.19193,3.834916 -0.95162,1.872352 -1.94849,3.72135 -2.89634,5.595577 -0.45517,0.95011 -0.91616,1.898513 -1.32531,2.86966 -0.0834,0.205096 -0.0463,0.111903 -0.11201,0.27929 0,0 -2.14348,0.98471 -2.14348,0.98471 l 0,0 c 0.0827,-0.177921 0.0365,-0.0792 0.13893,-0.29601 0.46998,-0.983732 0.95975,-1.957748 1.4421,-2.935441 0.97442,-1.870962 1.9948,-3.718083 2.92718,-5.61085 0.65241,-1.272608 1.25189,-2.577954 2.00746,-3.793873 0,0 2.1534,-0.927979 2.1534,-0.927979 z"
       inkscape:connector-curvature="0"
       transform="translate(6.6292965,936.95566)" />
    <path
       style="fill:#008080;fill-opacity:1;stroke:#050101;stroke-width:1.10000002;stroke-miterlimit:0.30000001;stroke-opacity:1;stroke-dasharray:none"
       id="path4738"
       d="m 142.1232,41.586062 c 0.0824,1.367078 0.66303,2.655563 1.17166,3.908291 0.89195,2.160195 2.05482,4.183611 3.33035,6.135925 0.97265,1.45069 2.03075,2.840898 3.05307,4.256295 0.47226,0.649177 0.85336,1.353873 1.19196,2.079632 0,0 -2.01419,1.134139 -2.01419,1.134139 l 0,0 c -0.30251,-0.726149 -0.65881,-1.427292 -1.10388,-2.077996 -0.99419,-1.436121 -2.02462,-2.847347 -2.98073,-4.309573 -1.25872,-1.976224 -2.42149,-4.011306 -3.36325,-6.16052 -0.54917,-1.262499 -1.13495,-2.533162 -1.38517,-3.896096 0,0 2.10018,-1.070097 2.10018,-1.070097 z"
       inkscape:connector-curvature="0"
       transform="translate(6.6292965,936.95566)" />
  </g>
</svg>
