<?xml version="1.0" encoding="UTF-8" standalone="no"?>
<!-- Created with Inkscape (http://www.inkscape.org/) -->

<svg
   xmlns:dc="http://purl.org/dc/elements/1.1/"
   xmlns:cc="http://creativecommons.org/ns#"
   xmlns:rdf="http://www.w3.org/1999/02/22-rdf-syntax-ns#"
   xmlns:svg="http://www.w3.org/2000/svg"
   xmlns="http://www.w3.org/2000/svg"
   xmlns:sodipodi="http://sodipodi.sourceforge.net/DTD/sodipodi-0.dtd"
   xmlns:inkscape="http://www.inkscape.org/namespaces/inkscape"
   width="320"
   height="120.95"
   id="svg2"
   version="1.1"
   inkscape:version="0.48.4 r9939"
   inkscape:export-filename="integral.png"
   inkscape:export-xdpi="150"
   inkscape:export-ydpi="150"
   sodipodi:docname="derivace.svg">
  <defs
     id="defs4" />
  <sodipodi:namedview
     id="base"
     pagecolor="#9fffa7"
     bordercolor="#666666"
     borderopacity="1.0"
     inkscape:pageopacity="0"
     inkscape:pageshadow="2"
     inkscape:zoom="3.35"
     inkscape:cx="160"
     inkscape:cy="60.474998"
     inkscape:document-units="px"
     inkscape:current-layer="layer1"
     showgrid="false"
     inkscape:window-width="1237"
     inkscape:window-height="1003"
     inkscape:window-x="43"
     inkscape:window-y="21"
     inkscape:window-maximized="1"
     fit-margin-top="0"
     fit-margin-left="0"
     fit-margin-right="0"
     fit-margin-bottom="0" />
  <metadata
     id="metadata7">
    <rdf:RDF>
      <cc:Work
         rdf:about="">
        <dc:format>image/svg+xml</dc:format>
        <dc:type
           rdf:resource="http://purl.org/dc/dcmitype/StillImage" />
        <dc:title />
      </cc:Work>
    </rdf:RDF>
  </metadata>
  <g
     inkscape:label="Layer 1"
     inkscape:groupmode="layer"
     id="layer1"
     transform="translate(-6.6292965,-910.95568)">
    <path
       style="fill:#000080;stroke-width:1.89999998;stroke-miterlimit:4;stroke-dasharray:7.6, 7.6;stroke-dashoffset:0"
       id="path2989"
       d="m 13.33564,57.439655 c 0.09441,0.553958 0.148912,1.115804 0.255279,1.667477 0.183232,0.563439 0.234989,1.152768 0.27236,1.740226 0.0328,0.810594 0.054,1.620514 -0.03172,2.428083 -0.263073,1.941995 -0.250347,1.21434 -4.1392626,2.437861 -0.1615716,0.05083 -0.089232,-0.32711 -0.1216991,-0.493349 -0.043565,-0.223062 -0.070795,-0.449006 -0.1061931,-0.673509 -0.2059624,-2.496341 0.081864,-4.995648 0.4521207,-7.461786 0.4239371,-2.661657 1.1009301,-5.271701 1.7984281,-7.872004 0.08163,-0.163382 0.528156,-1.95296 0.678934,-2.031454 4.167803,-2.169761 3.408144,-3.277873 4.320849,-1.477149 0.717723,2.111152 1.337143,4.254189 2.077379,6.35891 0.618622,1.528402 1.363488,3.24279 2.82567,4.161838 0.188263,0.118332 0.402271,0.189631 0.603407,0.284446 0.518698,0.06091 0.657336,0.139092 1.164902,-0.04767 0.201392,-0.0741 0.755197,-0.407986 0.567379,-0.304186 -1.032037,0.570368 -2.03023,1.208075 -3.100074,1.703911 -0.241594,0.111971 0.404497,-0.347692 0.588703,-0.539977 0.18876,-0.19704 0.351944,-0.417081 0.527917,-0.625621 0.70348,-0.931002 1.250466,-1.967912 1.762894,-3.012937 0.767889,-1.629302 -0.389349,-0.502047 4.146358,-2.301479 0.114817,-0.04555 0.09539,0.227971 0.138121,0.343866 0.187212,0.507718 0.211779,0.641719 0.37858,1.221425 1.008279,3.577598 1.883563,7.189943 2.868095,10.773886 1.505093,5.622774 3.623075,11.049617 5.577572,16.524514 1.253005,3.577636 2.350551,7.217955 3.173799,10.920166 0.44012,1.979253 0.64094,3.255206 0.988855,5.241665 0.600244,4.04121 1.117334,8.10154 1.305175,12.18485 -0.03839,1.26782 0.01643,2.82237 -0.929402,3.82833 -0.181637,0.19318 -0.400757,0.35499 -0.635196,0.47888 -1.515059,0.80069 -3.068637,1.52626 -4.602955,2.28938 -3.494858,0.10531 -6.868378,-1.08495 -10.131287,-2.2004 -3.81982,-1.42545 -7.603683,-3.13257 -10.897745,-5.57064 -0.625721,-0.46312 -1.207865,-0.98239 -1.811797,-1.47359 -2.141331,-1.93683 -3.829331,-4.31735 -4.2865985,-7.229014 -0.3083088,-1.963168 -0.08205,-2.555524 0.1763019,-4.530028 0.2454662,-0.804398 0.4320537,-1.629177 0.7363986,-2.413195 1.82119,-4.691539 5.304876,-8.452278 8.658956,-12.089102 2.985389,-2.992278 1.487505,-1.521724 4.492431,-4.412909 0,0 3.507882,-1.444215 3.507882,-1.444215 l 0,0 c -3.025013,2.885779 -1.519222,1.420069 -4.516427,4.398101 -3.31302,3.571999 -6.76444,7.262183 -8.588221,11.869119 -0.30051,0.759101 -0.487389,1.558401 -0.731084,2.337602 -0.261615,1.90935 -0.481171,2.467775 -0.19886,4.368408 0.420492,2.830928 2.046513,5.142973 4.112191,7.037573 0.591387,0.48488 1.160403,0.99842 1.77416,1.45466 3.270275,2.43099 7.048655,4.10331 10.866613,5.46157 2.876814,0.92689 6.020325,2.00346 9.084756,1.94857 0.385109,-0.007 0.767061,-0.071 1.150591,-0.10651 -0.93734,0.61918 -1.900586,1.20082 -2.812022,1.85753 -0.208216,0.15003 0.489253,-0.1781 0.694677,-0.33193 0.203267,-0.15221 0.369539,-0.35499 0.507428,-0.56823 0.587879,-0.90914 0.625246,-2.02905 0.694026,-3.06858 -0.05327,-4.10194 -0.496944,-8.18581 -1.067866,-12.24561 -0.329586,-1.995362 -0.511855,-3.249597 -0.942565,-5.236599 -0.801091,-3.69569 -1.891824,-7.32823 -3.125223,-10.900331 -1.946303,-5.481679 -4.054204,-10.911455 -5.659073,-16.507714 -1.050842,-3.529355 -1.990787,-7.093068 -3.211704,-10.569601 -0.292816,-0.806863 -0.159798,-0.495898 -0.452525,-1.137113 -0.02536,-0.05555 -0.129584,-0.134297 -0.07741,-0.166016 7.69504,-4.67819 4.355238,-3.167688 3.66282,-1.849234 -0.574098,1.065485 -1.146603,2.137268 -1.830372,3.137133 -1.647601,2.171344 -1.904842,1.901091 -5.36769,3.833095 -0.620732,0.34632 -1.314326,0.258107 -1.949322,0.03608 C 18.392481,58.753329 18.168028,58.650178 17.970722,58.505719 16.522718,57.44556 15.762525,55.701292 15.13217,54.086844 14.401486,52.018652 13.770395,49.907277 12.909585,47.889434 11.993991,46.42826 12.699761,47.733782 16.49,45.497725 c 0.06735,-0.03973 -0.1703,0.01891 -0.221111,0.07834 -0.09857,0.115296 -0.416275,0.978181 -0.431422,1.019556 -0.09602,0.262283 -0.184473,0.527274 -0.27671,0.790911 -0.788662,2.586189 -1.501281,5.198456 -1.926217,7.872716 -0.357106,2.397104 -0.612885,4.830421 -0.344374,7.252064 0.0414,0.20621 0.07448,0.414267 0.124201,0.618629 0.0334,0.137287 0.239362,0.32226 0.124876,0.405063 -5.2859441,3.823089 -4.0303647,3.470271 -3.6549361,1.683535 0.1349201,-0.779349 0.1138058,-1.560886 0.069807,-2.349166 -0.033082,-0.56353 -0.078872,-1.129833 -0.2572053,-1.669542 -0.136711,-0.552236 -0.1323189,-1.130792 -0.274568,-1.684147 0,0 3.9132993,-2.076029 3.9132993,-2.076029 z"
       inkscape:connector-curvature="0"
       transform="translate(6.6292965,910.95568)" />
    <path
       style="fill:#000080;stroke-width:1.89999998;stroke-miterlimit:4;stroke-dasharray:7.6, 7.6;stroke-dashoffset:0"
       id="path2991"
       d="m 29.26468,28.248097 c 2.038003,1.309015 3.912536,2.822015 5.695186,4.457333 2.307439,2.233771 4.436043,4.691002 6.06072,7.473421 0.304103,0.520806 0.568618,1.063739 0.852928,1.595608 0.715281,1.41523 1.18641,2.919794 1.627019,4.435601 0,0 -3.650744,1.987616 -3.650744,1.987616 l 0,0 c -0.404753,-1.50033 -0.841542,-2.989299 -1.520236,-4.395102 -0.273853,-0.52617 -0.527409,-1.063412 -0.82156,-1.578509 -1.582272,-2.770763 -3.703278,-5.190309 -6.026601,-7.360617 -1.828587,-1.598546 -3.747869,-3.094866 -5.917821,-4.20948 0,0 3.701109,-2.405871 3.701109,-2.405871 z"
       inkscape:connector-curvature="0"
       transform="translate(6.6292965,910.95568)" />
    <path
       style="fill:#000080;stroke-width:1.89999998;stroke-miterlimit:4;stroke-dasharray:7.6, 7.6;stroke-dashoffset:0"
       id="path2993"
       d="m 115.17028,945.74107 c -0.0419,0.59421 0.074,1.18436 0.19891,1.76253 -0.0641,-0.13706 0.0924,0.30378 0.056,0.23274 -0.80068,-1.56435 1.50733,-1.07797 -3.89261,1.85022 -0.0502,0.0272 0.0724,-0.0909 0.0918,-0.14452 0.0365,-0.10072 0.0492,-0.20852 0.0739,-0.31277 0.13492,-1.28183 -0.15653,-2.29196 -0.74626,-3.42069 -1.07336,-1.7054 -2.82304,-2.64822 -4.64771,-3.35716 -1.78793,-0.47958 -3.74796,-0.63932 -5.47002,0.1787 -0.34814,0.16538 -0.66181,0.39524 -0.992724,0.59285 0.888794,-0.44587 1.694644,-1.12664 2.666354,-1.33762 0.39828,-0.0865 -0.56149,0.59526 -0.79278,0.93083 -0.24426,0.35441 -0.45767,0.73314 -0.62682,1.12893 -0.61651,1.44255 -0.54004,2.40633 -0.39703,3.91319 0.13696,0.42461 0.22847,0.86667 0.41088,1.27383 0.77847,1.73761 2.3737,3.00958 4.15682,3.61054 0.4872,0.16419 1.00104,0.23498 1.50156,0.35247 1.70406,0.18187 3.37836,-0.006 4.9553,-0.71124 0.56696,-0.25355 2.14869,-0.58572 1.62261,-0.91583 -0.90967,-0.57079 -4.05135,3.00495 -0.32616,-0.76645 2.59617,-3.11757 4.22739,-6.87955 5.01495,-10.84608 0.15012,-0.75608 0.23222,-1.5241 0.34832,-2.28615 0.43017,-3.74443 0.0266,-7.15271 -1.12421,-10.71615 -0.34731,-0.82011 -0.6235,-1.68694 -1.13201,-2.42851 -0.0822,-0.11982 -0.16304,-0.24791 -0.28014,-0.33391 -0.0481,-0.0353 -0.23173,0.0248 -0.17909,-0.003 1.22879,-0.65763 2.48455,-1.26357 3.72682,-1.89535 -0.0621,0.14412 -0.15301,0.279 -0.18623,0.43236 -0.44303,2.04545 0.48028,5.02076 1.01534,6.96778 1.2227,3.88006 2.85211,7.68047 5.30455,10.95565 0.51876,0.69278 1.10669,1.33096 1.66003,1.99643 2.34086,2.6431 5.29206,4.52115 8.27547,6.33838 0,0 -3.27475,2.11475 -3.27475,2.11475 l 0,0 c -3.01032,-1.85105 -5.98832,-3.76309 -8.3471,-6.44487 -0.56033,-0.67637 -1.15406,-1.32642 -1.68101,-2.02912 -2.47565,-3.3013 -4.14796,-7.11539 -5.48264,-10.99566 -0.76456,-2.46106 -1.58587,-5.00061 -1.35903,-7.61334 1.34797,-0.75381 2.65071,-1.59491 4.04391,-2.26143 0.0904,-0.0432 0.36024,0.33832 0.51651,0.61716 0.4551,0.81208 0.72522,1.70763 1.0446,2.57679 0.34113,1.18732 0.50126,1.64435 0.73245,2.90101 0.49002,2.66356 0.60299,5.38337 0.2861,8.07492 -0.11794,0.77537 -0.20352,1.55636 -0.35381,2.32611 -0.77941,3.9918 -2.35003,7.80675 -4.87498,11.01327 -2.69582,2.89912 -1.27181,1.62774 -6.53423,4.85445 -2.08391,1.27777 -4.39287,1.77349 -6.81252,1.42422 -0.51796,-0.13717 -1.05066,-0.22749 -1.55389,-0.41149 -1.877214,-0.68638 -3.523144,-2.04908 -4.360254,-3.88495 -0.19714,-0.43235 -0.3032,-0.90068 -0.4548,-1.35102 -0.0546,-0.46606 -0.15129,-0.92909 -0.16385,-1.39817 -0.037,-1.38043 0.30526,-2.74321 1.02146,-3.92669 0.21709,-0.35873 0.41706,-0.75758 0.75444,-1.00656 1.439984,-1.06274 3.016684,-1.92651 4.525024,-2.88976 0.34806,-0.1772 0.68111,-0.38765 1.0442,-0.53158 1.81534,-0.71963 3.82987,-0.49527 5.6524,0.0523 1.9028,0.78076 3.71812,1.80047 4.86182,3.57535 0.67145,1.22398 0.97833,2.21795 0.96407,3.6181 -0.007,0.11708 -0.0362,0.5996 -0.0426,0.60383 -0.0235,0.0155 -3.82658,3.9001 -4.15122,1.7987 -0.0965,-0.60897 -0.21358,-1.21964 -0.23374,-1.83652 0,0 3.94763,-2.01141 3.94763,-2.01141 z"
       inkscape:connector-curvature="0" />
    <path
       style="fill:#000080;stroke-width:1.89999998;stroke-miterlimit:4;stroke-dasharray:7.6, 7.6;stroke-dashoffset:0"
       id="path2995"
       d="m 86.36532,966.39516 c -0.773955,0.0397 -1.549862,0.0934 -2.310713,0.2504 -1.425535,0.29415 -4.11884,2.20584 3.362881,-1.99845 0.03224,-0.12634 -0.02699,-0.33777 0.09671,-0.37901 0.276058,-0.092 0.580531,0.0417 0.871157,0.0564 1.450754,0.0729 2.20255,0.0899 3.752025,0.089 2.41481,-0.001 4.24728,-0.0563 6.70651,-0.10974 11.58142,-0.26056 23.16615,-0.31971 34.74993,-0.38691 12.12542,0.0193 24.24671,-0.26695 36.35928,-0.80715 6.32504,-0.29958 12.65003,-0.60038 18.97483,-0.905 0,0 -3.18056,2.32625 -3.18056,2.32625 l 0,0 c -6.15319,0.0886 -12.30402,0.28007 -18.45287,0.52679 -12.04425,0.43592 -24.09368,0.66539 -36.14643,0.63859 -11.75045,0.0912 -23.50375,0.21553 -35.24377,0.7584 -2.60344,0.11856 -4.42654,0.21104 -6.977019,0.29488 -1.414091,0.0465 -2.617925,0.0764 -4.008207,0.0721 -0.332464,-0.001 -0.679329,0.0786 -0.997222,-0.0187 -0.253349,-0.0776 -0.422105,-0.32038 -0.633158,-0.48058 1.296695,-0.74387 2.573678,-1.52321 3.890085,-2.23161 0.105851,-0.057 0.237572,-0.0369 0.356599,-0.0537 0.787869,-0.11113 1.579989,-0.17787 2.368683,-0.28082 0,0 -3.538737,2.6389 -3.538737,2.6389 z"
       inkscape:connector-curvature="0" />
    <path
       style="fill:#000080;stroke-width:1.89999998;stroke-miterlimit:4;stroke-dasharray:7.6, 7.6;stroke-dashoffset:0"
       id="path2997"
       d="m 110.30859,996.61005 c -0.17375,-1.45246 -0.91858,-2.43209 -1.93472,-3.4255 -1.32003,-1.05361 -2.93447,-1.72904 -4.64545,-1.68422 -0.35248,0.009 -0.70138,0.0732 -1.05206,0.10982 -0.35469,0.0959 -0.72021,0.15817 -1.06406,0.28764 -0.35149,0.13234 -1.34041,0.67743 -1.01252,0.49427 0.88978,-0.49703 1.73209,-1.11465 2.69915,-1.43643 0.36231,-0.12055 -0.5678,0.51453 -0.81163,0.80838 -0.69308,0.83532 -0.67932,1.02966 -1.07362,2.02472 -0.0539,0.3943 -0.15617,0.78496 -0.1617,1.18288 -0.0276,1.98579 0.99616,3.82935 2.36419,5.20379 0.41455,0.4165 0.89199,0.7653 1.33798,1.148 2.14506,1.4188 4.59564,2.3072 7.19118,2.3068 1.6736,-3e-4 2.02067,-0.2074 3.61025,-0.6406 0.52517,-0.2814 2.16275,-0.9449 1.57551,-0.8442 -0.75613,0.1296 -1.39705,1.2345 -2.10314,0.9346 -0.54368,-0.231 0.82618,-0.8507 1.16985,-1.3311 0.72192,-1.0093 1.23871,-2.17429 1.56558,-3.36725 0.17089,-0.62369 0.24202,-1.27051 0.36302,-1.90576 0.36854,-4.25423 -0.98404,-8.32341 -2.55587,-12.21065 -0.68032,-1.59482 -1.4403,-3.1505 -2.30645,-4.65221 -0.44484,-0.77125 -0.88412,-1.52268 -1.47282,-2.19083 -1.44413,-0.61757 -1.2145,-0.48325 3.82645,-2.04932 0.23747,-0.0738 0.20929,0.45139 0.32583,0.67105 0.18674,0.352 0.37869,0.70151 0.58364,1.04322 0.74387,1.24021 1.10139,1.71233 1.95379,2.94867 2.34458,3.26904 4.94279,6.36831 7.8232,9.18027 0.57552,0.56185 1.17525,1.09835 1.76288,1.64752 2.02182,1.88475 4.30678,3.43168 6.63574,4.90245 0,0 -3.43029,2.20313 -3.43029,2.20313 l 0,0 c -2.3022,-1.52437 -4.5555,-3.12707 -6.56371,-5.03369 -3.52657,-3.34448 -6.80971,-6.93734 -9.71447,-10.84044 -0.13767,-0.18447 -3.2816,-4.46319 -3.20953,-4.53285 3.36312,-3.25067 3.01635,-3.80658 3.75633,-2.36376 1.41404,2.2415 2.48404,4.68372 3.53493,7.1092 1.56619,3.95749 2.97947,8.07358 2.68745,12.39512 -0.10851,0.65281 -0.16777,1.31575 -0.32553,1.95844 -0.29691,1.20958 -0.79411,2.44724 -1.48012,3.49249 -1.75176,2.6691 -4.83363,3.99 -7.63799,5.3111 -0.60006,0.1395 -1.19009,0.3329 -1.80018,0.4183 -3.28437,0.46 -6.5104,-0.6136 -9.22983,-2.3998 -0.46442,-0.3969 -0.96022,-0.7598 -1.39326,-1.1907 -1.449224,-1.442 -2.549964,-3.36657 -2.613474,-5.45259 -0.0129,-0.42427 0.0727,-0.84582 0.10909,-1.26873 0.36207,-1.09264 0.31687,-1.24177 0.99926,-2.17835 1.34245,-1.84251 3.125104,-2.38418 5.320944,-3.62761 0.33324,-0.18871 0.69742,-0.32193 1.0632,-0.43537 0.36232,-0.11237 0.74172,-0.15962 1.11257,-0.23943 0.36378,-0.0191 0.72716,-0.066 1.09133,-0.0573 1.79269,0.0428 3.45951,0.80188 4.83862,1.91158 0.22499,0.21848 0.46454,0.42291 0.67498,0.65545 0.75001,0.82879 1.25384,1.85653 1.52878,2.93377 0,0 -3.9133,2.07603 -3.9133,2.07603 z"
       inkscape:connector-curvature="0" />
    <path
       style="fill:#000080;stroke-width:1.89999998;stroke-miterlimit:4;stroke-dasharray:7.6, 7.6;stroke-dashoffset:0"
       id="path2999"
       d="m 157.75892,987.34345 c -1.9524,1.76352 -3.53968,3.90213 -5.18135,5.94816 -2.09394,2.6073 -4.03234,5.33042 -5.77783,8.18199 -0.31343,0.516 -0.6055,1.0442 -0.90426,1.5686 0,0 -4.01948,1.7674 -4.01948,1.7674 l 0,0 c 0.37562,-0.5288 0.70177,-1.0877 1.05524,-1.6315 1.84895,-2.854 3.81321,-5.62754 5.9249,-8.29459 1.56014,-1.99265 3.08019,-4.02602 4.79394,-5.89115 0,0 4.10884,-1.64891 4.10884,-1.64891 z"
       inkscape:connector-curvature="0" />
    <path
       style="fill:#000080;stroke-width:1.89999998;stroke-miterlimit:4;stroke-dasharray:7.6, 7.6;stroke-dashoffset:0"
       id="path3001"
       d="m 140.93979,987.9982 c 1.73441,1.86158 3.86057,3.32754 5.85887,4.89073 3.06804,2.43121 6.15285,4.83492 9.32406,7.12987 1.49175,1.0783 3.03396,2.0822 4.53786,3.1434 0,0 -3.57856,2.2694 -3.57856,2.2694 l 0,0 c -1.4517,-1.1014 -2.95084,-2.1349 -4.41115,-3.2246 -3.13771,-2.33786 -6.2011,-4.76891 -9.30468,-7.1517 -2.09056,-1.56484 -4.27292,-3.03186 -6.2127,-4.78381 0,0 3.7863,-2.27329 3.7863,-2.27329 z"
       inkscape:connector-curvature="0" />
    <path
       style="fill:#000080;stroke-width:1.89999998;stroke-miterlimit:4;stroke-dasharray:7.6, 7.6;stroke-dashoffset:0"
       id="path3003"
       d="m 259.86184,947.01574 c -0.17355,-0.97977 -0.47108,-1.93724 -0.81526,-2.86984 -0.0536,-0.12802 -0.10549,-0.25681 -0.16092,-0.38407 -0.0115,-0.0264 -0.17311,-0.40938 -0.24127,-0.47127 -0.0165,-0.015 -0.0843,0.0283 -0.0645,0.0181 3.91937,-2.00473 4.72743,-3.05519 3.68143,-1.7612 -0.3313,1.62719 0.23398,3.18422 0.88308,4.65101 0.98969,1.75265 2.45066,3.24361 4.37403,3.94422 0.37097,0.13513 0.76206,0.20687 1.14309,0.3103 1.10906,0.0555 1.32093,0.15592 2.41698,-0.15762 0.41161,-0.11775 1.54512,-0.71821 1.19405,-0.47317 -5.67928,3.96396 -1.47886,0.55267 -1.23896,0.3011 0.37022,-0.38825 0.67098,-0.83724 1.00647,-1.25586 1.35067,-2.13698 1.86254,-4.56994 1.58096,-7.08161 -0.20663,-1.8431 -0.50578,-2.38952 -1.11124,-4.15055 -1.31937,-2.93911 -3.33753,-5.44397 -5.89897,-7.39741 -1.78467,-1.36106 -2.37017,-1.5492 -4.36217,-2.57136 -4.32535,-1.85066 -9.01251,-2.26929 -13.6521,-1.63537 -0.98489,0.13457 -1.95419,0.36556 -2.93128,0.54834 -3.27477,0.99969 -2.28396,0.56786 -5.33369,2.00159 -0.36958,0.17374 1.30947,-0.8473 1.12624,-0.48232 -0.36041,0.71793 -1.22396,1.05442 -1.72761,1.68024 -1.31847,1.63829 -1.24642,2.15877 -1.79323,4.13236 0.0228,0.79136 0.0455,1.58271 0.0683,2.37407 0,0 -3.50712,1.80615 -3.50712,1.80615 l 0,0 c -0.0472,-0.8231 -0.0944,-1.6462 -0.14166,-2.46929 0.50442,-2.06439 0.41026,-2.6 1.73302,-4.33586 1.83892,-2.41323 4.68036,-3.68665 7.27113,-5.1041 0.81483,-0.44581 1.68574,-0.78706 2.56089,-1.09816 0.91314,-0.32461 1.86242,-0.53687 2.79363,-0.80531 0.98469,-0.17312 1.9623,-0.39296 2.95408,-0.51936 4.71604,-0.60104 9.47089,-0.15025 13.85062,1.76115 2.01919,1.05332 2.61302,1.25088 4.42436,2.64121 2.60941,2.0029 4.68019,4.55475 6.05317,7.54479 0.65077,1.80111 0.95838,2.34196 1.2102,4.23223 0.34065,2.55713 -0.0946,5.06203 -1.38044,7.30117 -0.32059,0.43773 -0.60759,0.90217 -0.96178,1.3132 -1.61246,1.8713 -3.55351,2.616 -5.89664,3.84894 -0.66264,0.34868 -1.79323,0.55257 -2.53407,0.55773 -0.41888,0.003 -0.83331,-0.0863 -1.24997,-0.1295 -0.39222,-0.12357 -0.79576,-0.21575 -1.17667,-0.37072 -1.97382,-0.80302 -3.49778,-2.36067 -4.54897,-4.17987 -0.74037,-1.57124 -1.27654,-3.08415 -1.18798,-4.84698 0.12312,-1.8745 -0.0694,-0.5807 4.05911,-2.51541 0.12201,-0.0572 0.3769,0.68934 0.38382,0.70732 0.0516,0.13418 0.10178,0.26893 0.15267,0.4034 0.3459,0.96046 0.62052,1.94487 0.9064,2.92429 0,0 -3.91126,2.06331 -3.91126,2.06331 z"
       inkscape:connector-curvature="0" />
    <path
       style="fill:#000080;stroke-width:1.89999998;stroke-miterlimit:4;stroke-dasharray:7.6, 7.6;stroke-dashoffset:0"
       id="path3005"
       d="m 239.68409,961.55445 c -2.49877,0.0449 -4.99147,0.23994 -7.48717,0.36385 -1.82134,0.0987 -3.64521,0.14173 -5.46682,0.23374 -0.0637,0.006 -0.24269,0.0573 -0.19104,0.0195 1.22528,-0.89691 2.43766,-1.81835 3.73237,-2.61176 0.13981,-0.0857 0.32752,0.0172 0.49139,0.0234 0.3349,0.0127 0.66976,0.0293 1.00488,0.0334 1.38786,0.0173 2.43061,-0.0174 3.86024,-0.0453 8.92197,-0.2396 17.82962,-0.82998 26.73736,-1.36509 12.15159,-0.78777 24.32168,-1.18774 36.49588,-1.36761 7.64277,-0.13324 15.28514,0.10383 22.92759,-0.0385 1.17554,-0.0235 2.35024,-0.0667 3.52299,-0.14997 0,0 -3.50203,2.55788 -3.50203,2.55788 l 0,0 c -1.08233,-0.0289 -2.16492,-0.0437 -3.24745,-0.0639 -7.44844,-0.15101 -14.89461,-0.4583 -22.3465,-0.3794 -12.15451,0.0643 -24.30561,0.43635 -36.42947,1.34078 -9.11776,0.62776 -18.23277,1.30271 -27.35839,1.80885 -1.99274,0.106 -2.28049,0.13036 -4.09565,0.19844 -0.36604,0.0137 -0.73228,0.0215 -1.09837,0.0338 -0.18798,0.006 -0.70383,0.14786 -0.56383,0.0223 2.99097,-2.68325 2.03187,-2.7196 3.6072,-2.60442 1.75741,0.0259 3.51501,-0.0379 5.27077,-0.10642 2.56511,-0.12897 5.12563,-0.3218 7.68868,-0.48459 0,0 -3.55263,2.58113 -3.55263,2.58113 z"
       inkscape:connector-curvature="0" />
    <path
       style="fill:#000080;stroke-width:1.89999998;stroke-miterlimit:4;stroke-dasharray:7.6, 7.6;stroke-dashoffset:0"
       id="path3007"
       d="m 251.14927,985.88458 c -0.94021,0.75553 -1.80295,1.65137 -2.35448,2.73701 -0.1273,0.25057 -0.21645,0.51876 -0.32467,0.77814 -0.0523,0.25684 -0.13706,0.50915 -0.15679,0.77051 -0.0909,1.20393 0.54788,2.2016 1.4844,2.90126 0.29425,0.21982 0.62329,0.38874 0.93493,0.58311 2.07263,0.95771 4.3725,1.3257 6.63982,0.99311 0.46307,-0.0679 0.91488,-0.19796 1.37232,-0.29695 -0.73991,0.64047 3.26891,-1.53704 2.43597,-1.18747 -0.88213,0.37021 -1.62948,1.09668 -2.56819,1.28111 -0.39603,0.0778 0.55287,-0.59305 0.77641,-0.92909 0.61517,-0.92473 0.53926,-1.07732 0.7422,-2.12858 -0.0359,-0.39101 -0.0161,-0.79119 -0.10767,-1.17301 -0.50879,-2.12218 -2.37618,-3.75549 -4.0881,-4.93699 -0.62914,-0.43421 -1.30224,-0.801 -1.95336,-1.2015 -4.14022,-2.21846 -8.72415,-3.39554 -13.38249,-3.84686 -0.96581,-0.0936 -1.93663,-0.12518 -2.90494,-0.18776 -3.31712,-0.0545 -6.72241,0.1151 -9.89455,1.18873 -0.6191,0.20954 -2.14964,1.31707 -1.80742,0.76022 0.40293,-0.65562 1.34892,-0.74108 2.02338,-1.11162 -0.85146,0.75597 -1.32993,1.03032 -1.85403,2.04743 -0.18624,0.36143 -0.26207,0.7698 -0.3931,1.1547 0,0 -3.79638,1.79281 -3.79638,1.79281 l 0,0 c 0.1196,-0.42408 0.17713,-0.87082 0.35879,-1.27225 0.49572,-1.09542 1.00336,-1.42056 1.85929,-2.2494 1.6618,-0.95519 3.28736,-1.9764 4.9854,-2.86557 1.0561,-0.55302 2.74576,-0.97233 3.88493,-1.19015 2.5545,-0.48845 5.15965,-0.60218 7.75377,-0.48892 0.96897,0.0718 1.9406,0.114 2.90691,0.21553 4.72114,0.49606 9.37138,1.69085 13.59137,3.89969 0.67562,0.40225 1.3725,0.77076 2.02686,1.20673 1.84651,1.23026 3.78968,2.90236 4.41025,5.13225 0.11463,0.41188 0.11583,0.84718 0.17374,1.27076 -0.0556,0.40099 -0.055,0.81391 -0.16683,1.20297 -0.78532,2.73134 -3.58244,3.67688 -5.82953,5.0569 -0.38225,0.23476 -0.77739,0.45229 -1.1897,0.62901 -0.42561,0.18243 -0.87732,0.29665 -1.31599,0.44498 -0.46623,0.0833 -0.92816,0.19586 -1.39869,0.2498 -2.34902,0.26925 -4.71552,-0.16083 -6.84412,-1.1722 -0.33223,-0.21115 -0.6835,-0.39497 -0.99671,-0.63344 -1.32783,-1.01099 -1.97239,-2.45993 -1.60123,-4.10528 0.0994,-0.2791 0.17778,-0.56658 0.29812,-0.8373 0.48704,-1.09565 1.28999,-2.03626 2.17481,-2.82943 0,0 4.0953,-1.65299 4.0953,-1.65299 z"
       inkscape:connector-curvature="0" />
    <path
       style="fill:#000080;stroke-width:1.89999998;stroke-miterlimit:4;stroke-dasharray:7.6, 7.6;stroke-dashoffset:0"
       id="path3009"
       d="m 271.48854,992.90927 c -0.91249,-0.12197 -1.80136,-0.42669 -2.32674,-1.24191 -0.14061,-0.21817 -0.22383,-0.46838 -0.33575,-0.70257 -0.6042,-2.0337 -0.17254,-4.15824 0.14253,-6.20463 0.14496,-0.64235 0.20435,-1.31488 0.44887,-1.93243 0.58616,-1.4804 4.16396,-2.17143 4.26961,-2.20778 0.17125,-0.0589 0.23653,0.27431 0.35479,0.41147 0.86821,1.30795 1.96061,2.43062 3.29437,3.26842 0.34777,0.21845 0.71675,0.40118 1.07512,0.60177 1.82291,0.8378 3.84,1.40022 5.8633,1.13626 0.3362,-0.0439 0.6635,-0.13999 0.99525,-0.20998 1.46529,-0.57253 2.756,-1.12176 -2.09971,1.31636 -0.208,0.10444 0.37676,-0.27611 0.54284,-0.43918 0.41507,-0.40753 0.59417,-0.82319 0.71159,-1.37473 -0.002,-0.34239 -0.0312,-0.69905 -0.23108,-0.99133 -0.13241,-0.19365 -0.22312,-0.1395 -0.21563,-0.14332 1.2868,-0.65608 2.58746,-1.28462 3.88119,-1.92694 0.73696,2.02112 2.10833,3.7612 3.31987,5.51793 1.56699,2.19784 3.15958,4.38292 4.53196,6.71066 1.05769,1.79398 1.24722,2.24721 2.18642,4.11143 1.98382,4.00603 3.49187,8.21833 4.7421,12.50333 0.60633,2.5575 1.45516,5.1632 1.37141,7.826 -0.0122,0.3886 -0.0754,0.7739 -0.11307,1.1608 -0.19406,0.8299 -0.2308,1.1921 -0.59144,1.9585 -1.14488,2.4331 -4.00889,3.4012 -6.14322,4.6377 -2.75871,0.9296 -5.72793,0.5481 -8.56289,0.2499 -3.07746,-0.4106 -6.15201,-0.9304 -9.14289,-1.7793 -1.95438,-0.5547 -2.49438,-0.8027 -4.36855,-1.5106 -2.46774,-1.1511 -5.68961,-2.5633 -6.80703,-5.288 -0.17943,-0.4375 -0.22375,-0.9189 -0.33563,-1.3784 0.0425,-0.501 0.007,-1.0149 0.12747,-1.503 0.92713,-3.7535 5.44639,-6.6852 8.39394,-8.7157 1.00557,-0.587 1.99774,-1.1976 3.01669,-1.761 2.12725,-1.1762 4.25091,-2.3615 6.4207,-3.4573 1.10051,-0.5557 2.24695,-1.0162 3.38353,-1.4938 3.27804,-1.37776 6.52525,-2.46029 9.91771,-3.50362 0,0 -2.97147,2.29704 -2.97147,2.29704 l 0,0 c -2.77198,0.84797 -3.6627,1.07383 -6.42309,2.11548 -2.92226,1.1027 -3.92115,1.6028 -6.77736,2.8831 -0.0595,0.023 -0.0231,-0.2025 -0.08,-0.1738 -1.01981,0.5146 -1.97904,1.1413 -2.96856,1.7119 -2.82304,1.9281 -7.16834,4.7223 -8.18616,8.2479 -0.12795,0.4432 -0.1155,0.9153 -0.17325,1.373 0.0887,0.4242 0.11216,0.8675 0.26614,1.2726 0.98733,2.5976 4.18414,4.0665 6.50502,5.1488 1.90856,0.7307 2.30875,0.9331 4.31045,1.4934 3.00164,0.8403 6.09082,1.3314 9.18428,1.6759 2.86054,0.2312 5.88962,0.559 8.60352,-0.5909 -0.95599,0.5703 -1.89216,1.1752 -2.86797,1.7109 -0.25281,0.1387 0.47607,-0.3278 0.69353,-0.5173 0.97678,-0.8508 1.50684,-1.9829 1.78977,-3.2304 0.0534,-0.3748 0.13211,-0.747 0.1601,-1.1246 0.19583,-2.6414 -0.60927,-5.2599 -1.17283,-7.8057 -1.18145,-4.2836 -2.66525,-8.4841 -4.64559,-12.4696 -0.96127,-1.89786 -1.09466,-2.24875 -2.19095,-4.06606 -1.39372,-2.31033 -3.01554,-4.4694 -4.63022,-6.62702 -1.29675,-1.78233 -2.71882,-3.52625 -3.6592,-5.53106 2.86999,-1.94775 3.98634,-4.09916 4.37611,-0.94063 -0.0555,0.49956 -0.0267,0.62989 -0.26662,1.1 -0.17507,0.3431 -0.5781,0.89249 -0.90765,1.09492 -4.01186,2.46438 -2.92018,2.06136 -5.30042,2.78602 -0.33867,0.0497 -0.67464,0.12397 -1.01602,0.14895 -2.07539,0.15188 -4.11585,-0.45716 -5.96785,-1.3432 -0.37056,-0.20978 -0.75171,-0.40185 -1.11167,-0.62933 -1.35717,-0.8577 -2.48507,-1.98739 -3.4688,-3.24675 -1.38958,-1.12894 -0.33326,-0.11965 3.34147,-2.39216 0.0761,-0.047 -0.19654,0.006 -0.25914,0.0696 -0.18029,0.18401 -0.35554,0.87935 -0.40015,1.04989 -0.0732,0.27969 -0.13168,0.56302 -0.19753,0.84453 -0.34807,1.94926 -0.7887,3.99643 -0.21073,5.94243 0.0957,0.1954 0.16366,0.407 0.28704,0.58621 0.49355,0.71686 1.39399,0.88534 2.20255,0.8867 0,0 -3.58437,2.6042 -3.58437,2.6042 z"
       inkscape:connector-curvature="0" />
    <path
       style="fill:#000000;stroke-width:1.89999998;stroke-miterlimit:4;stroke-dasharray:7.6, 7.6;stroke-dashoffset:0"
       id="path3011"
       d="m 60.097196,75.505115 c -0.07364,-0.886846 -0.325856,-1.752474 -0.623869,-2.58778 -0.970967,-2.309949 -0.614364,-1.060063 3.558141,-3.052513 0.721139,1.75181 0.97857,3.625572 1.139835,5.498373 0.220008,3.068894 -0.469324,6.050654 -1.37473,8.956229 -0.584547,1.56135 -0.283026,0.809169 -0.898973,2.258775 0,0 -3.840624,1.759572 -3.840624,1.759572 l 0,0 c 0.662083,-1.441022 0.337318,-0.694085 0.969095,-2.243064 0.97518,-2.925011 1.664827,-5.678837 1.437408,-8.799055 -0.17738,-1.794436 -0.43793,-3.608749 -1.271976,-5.233932 4.453064,-2.762678 3.238545,-3.55281 4.120754,-1.26674 0.296764,0.856793 0.530588,1.743503 0.698238,2.634106 0,0 -3.913299,2.076029 -3.913299,2.076029 z"
       inkscape:connector-curvature="0"
       transform="translate(6.6292965,910.95568)" />
    <path
       style="fill:#000000;stroke-width:1.89999998;stroke-miterlimit:4;stroke-dasharray:7.6, 7.6;stroke-dashoffset:0"
       id="path3013"
       d="m 197.07168,71.517585 c -0.38427,-0.486368 -0.89049,-0.908389 -1.17479,-1.457667 1.3682,-0.60554 2.6782,-1.36491 4.1046,-1.81662 0.15841,-0.05016 0.15512,0.294266 0.22115,0.446745 0.59682,1.378197 0.81965,2.835399 1.01443,4.312937 0.25538,3.459213 -0.5228,6.865145 -1.84082,10.051388 -0.32109,0.776221 -0.7037,1.52554 -1.05555,2.28831 0,0 -3.57414,1.629865 -3.57414,1.629865 l 0,0 c 0.34881,-0.749261 0.72919,-1.484615 1.04642,-2.247783 1.28738,-3.097132 2.04538,-6.416686 1.74241,-9.779715 -0.18399,-1.196785 -0.38028,-2.330305 -0.83519,-3.458514 -0.0847,-0.209969 -0.18322,-0.414509 -0.28971,-0.614297 -0.0682,-0.127908 -0.3513,-0.282798 -0.23329,-0.366947 1.19495,-0.852063 2.54632,-1.460124 3.81948,-2.190186 -0.0576,-0.08942 -0.12383,-0.173819 -0.17277,-0.268246 -0.0278,-0.0536 0.0723,0.09673 0.1088,0.144816 0.27268,0.359166 0.55141,0.718313 0.89891,1.009563 0,0 -3.77994,2.316351 -3.77994,2.316351 z"
       inkscape:connector-curvature="0"
       transform="translate(6.6292965,910.95568)" />
  </g>
</svg>
