<?xml version="1.0" encoding="UTF-8" standalone="no"?>
<!-- Created with Inkscape (http://www.inkscape.org/) -->

<svg
   xmlns:dc="http://purl.org/dc/elements/1.1/"
   xmlns:cc="http://creativecommons.org/ns#"
   xmlns:rdf="http://www.w3.org/1999/02/22-rdf-syntax-ns#"
   xmlns:svg="http://www.w3.org/2000/svg"
   xmlns="http://www.w3.org/2000/svg"
   xmlns:sodipodi="http://sodipodi.sourceforge.net/DTD/sodipodi-0.dtd"
   xmlns:inkscape="http://www.inkscape.org/namespaces/inkscape"
   width="320"
   height="120.95"
   id="svg2"
   version="1.1"
   inkscape:version="0.48.3.1 r9886"
   inkscape:export-filename="integral.png"
   inkscape:export-xdpi="150"
   inkscape:export-ydpi="150"
   sodipodi:docname="derivace.svg">
  <defs
     id="defs4" />
  <sodipodi:namedview
     id="base"
     pagecolor="#9fffa7"
     bordercolor="#666666"
     borderopacity="1.0"
     inkscape:pageopacity="0"
     inkscape:pageshadow="2"
     inkscape:zoom="3.43125"
     inkscape:cx="160"
     inkscape:cy="67.975708"
     inkscape:document-units="px"
     inkscape:current-layer="layer1"
     showgrid="false"
     inkscape:window-width="1231"
     inkscape:window-height="776"
     inkscape:window-x="49"
     inkscape:window-y="24"
     inkscape:window-maximized="1"
     fit-margin-top="0"
     fit-margin-left="0"
     fit-margin-right="0"
     fit-margin-bottom="0" />
  <metadata
     id="metadata7">
    <rdf:RDF>
      <cc:Work
         rdf:about="">
        <dc:format>image/svg+xml</dc:format>
        <dc:type
           rdf:resource="http://purl.org/dc/dcmitype/StillImage" />
        <dc:title></dc:title>
      </cc:Work>
    </rdf:RDF>
  </metadata>
  <g
     inkscape:label="Layer 1"
     inkscape:groupmode="layer"
     id="layer1"
     transform="translate(-6.6292965,-910.95568)">
    <path
       style="fill:#000080;fill-opacity:1;stroke:#050101;stroke-width:1.60000002;stroke-miterlimit:4;stroke-opacity:1;stroke-dasharray:none"
       id="path4464"
       d="m 53.689665,965.33053 c -0.88009,2.57644 0.48948,0.92763 -4.30348,3.15655 -0.0044,-0.13595 -0.01846,-0.27195 -0.01306,-0.40786 0.03594,-0.90408 0.22722,-1.8135 0.374713,-2.70237 0.302376,-1.82228 0.177503,-1.09496 0.53439,-3.02816 0.772147,-3.78663 1.274755,-7.61871 1.804045,-11.44454 0.433786,-3.55077 1.033111,-7.07168 1.727479,-10.57931 0.233825,-0.8611 0.321856,-1.77386 0.655265,-2.6084 0.596911,-1.49411 3.562764,-2.19256 4.167693,-2.42359 0.176854,-0.0675 0.246564,0.28734 0.369846,0.43101 0.806712,1.48411 1.434017,3.06287 2.370635,4.47729 0.230767,0.34848 0.492812,0.67521 0.739217,1.01282 1.270092,1.44527 2.898123,2.73825 4.901076,2.86225 0.367988,0.0228 0.736545,-0.0352 1.104818,-0.0528 1.03606,-0.22012 1.195539,-0.19994 2.182471,-0.63208 0.364645,-0.15966 1.407803,-0.74297 1.063674,-0.54288 -4.374261,2.54329 -2.667368,1.5784 -1.5934,0.68376 0.277571,-0.23123 0.533044,-0.48776 0.799566,-0.73164 0.920022,-0.94632 1.829271,-1.99537 2.128568,-3.31228 0.176003,-1.66277 -0.69957,-0.32188 3.828232,-1.99372 0.11004,-0.0406 -0.101104,0.21375 -0.127212,0.32811 -0.08495,0.37209 -0.08539,0.93083 -0.09991,1.28738 -0.03084,2.73837 0.836167,5.35259 1.71645,7.90973 1.562504,4.43229 3.578489,8.68371 5.440341,12.99378 2.51112,5.78207 5.0747,11.54106 7.619979,17.30811 2.660223,5.98601 5.180529,12.02787 7.511524,18.14937 1.564085,4.24289 3.171685,8.50945 4.120615,12.94325 0.15971,0.7463 0.2739,1.5016 0.41085,2.2523 0.33244,2.9823 0.49824,6.2262 -0.85801,9.0095 -0.20843,0.4277 -0.49539,0.8125 -0.74309,1.2187 -0.30937,0.3372 -0.58495,0.7089 -0.92812,1.0116 -1.310589,1.1561 -5.809303,3.3014 -5.916851,3.3506 -0.460579,0.2106 -0.984857,0.2431 -1.485837,0.3174 -1.43193,0.2122 -1.952491,0.1387 -3.420015,0.1113 -3.568999,-0.3104 -7.051987,-1.3203 -10.287948,-2.8495 -0.69586,-0.3289 -1.368121,-0.7055 -2.052181,-1.0583 -2.59669,-1.4704 -5.079755,-3.1704 -7.277993,-5.1968 -1.343664,-1.2385 -1.589036,-1.5998 -2.765523,-2.9635 -1.470232,-1.8852 -2.674836,-3.99 -3.164454,-6.3536 -0.311583,-1.5042 -0.222979,-1.8547 -0.201707,-3.3825 0.328991,-3.3148 1.832706,-6.33959 3.769781,-9.01043 0.48586,-0.6699 1.026803,-1.29807 1.540205,-1.94711 4.177214,-4.79952 9.278719,-8.64825 14.295178,-12.51291 5.781043,-4.33567 11.448314,-8.8128 16.919575,-13.53339 2.30138,-1.9716 4.44025,-4.11005 6.53591,-6.29436 0,0 3.47942,-1.44916 3.47942,-1.44916 l 0,0 c -2.1356,2.21483 -4.31554,4.38207 -6.65817,6.38185 -5.476769,4.72149 -11.138796,9.21301 -16.920993,13.55539 -4.948647,3.81733 -9.982908,7.6136 -14.116068,12.34081 -0.504287,0.6328 -1.035505,1.24505 -1.512859,1.89841 -1.894994,2.5937 -3.381937,5.53859 -3.754312,8.7576 -0.04312,1.4788 -0.134947,1.8188 0.148006,3.2795 0.447891,2.3121 1.601021,4.3843 3.024715,6.232 0.419425,0.4944 0.818772,1.0065 1.258275,1.483 2.47033,2.6788 5.479861,4.8078 8.642867,6.5864 0.679774,0.3446 1.347606,0.7139 2.039322,1.0338 3.235142,1.4965 6.723662,2.4488 10.285904,2.6599 1.439295,-0.017 2.013472,0.043 3.410206,-0.2227 0.49476,-0.094 1.746278,-0.7995 1.461146,-0.3844 -0.49635,0.7227 -1.477961,0.9446 -2.193681,1.4509 -0.732422,0.518 3.090568,-1.8656 2.121816,-1.6558 0.264177,-0.3861 0.567482,-0.7481 0.792531,-1.1582 1.478835,-2.6949 1.378427,-5.9287 1.105406,-8.8847 -0.123307,-0.7492 -0.222262,-1.5028 -0.369919,-2.2475 -0.880513,-4.4411 -2.449225,-8.7211 -3.96716,-12.97235 -2.288372,-6.13261 -4.79192,-12.17481 -7.475363,-18.14573 -2.560191,-5.75721 -5.116539,-11.51611 -7.709593,-17.25861 -1.923044,-4.28532 -4.004276,-8.50614 -5.646275,-12.91154 -0.938504,-2.5641 -1.869419,-5.17693 -1.975876,-7.93426 -0.0024,-0.0992 -0.05007,-1.69843 0.03386,-1.7497 3.494938,-2.13484 4.189518,-3.52537 3.978626,-1.64865 -0.274198,1.4274 -1.178664,2.57691 -2.164023,3.61036 -2.128008,2.04689 -3.038616,2.37544 -6.247633,4.18417 -1.036613,0.58427 -2.189017,0.91868 -3.36743,1.0412 -0.385664,-0.006 -0.774066,0.0277 -1.156992,-0.0186 -2.065339,-0.24967 -3.729645,-1.6161 -5.039585,-3.13542 -0.817617,-1.11806 -0.72319,-0.92997 -1.419631,-2.11398 -0.522647,-0.88855 -0.958204,-1.82513 -1.478079,-2.71405 -0.10248,-0.17523 -0.223461,-0.33896 -0.335191,-0.50845 -1.332111,-0.89863 -0.342134,-0.1353 3.238344,-2.25819 0.103301,-0.0612 -0.210418,0.12974 -0.278301,0.22881 -0.520891,0.76019 -0.521431,1.79282 -0.849454,2.62275 -0.783663,3.50488 -1.414825,7.03404 -1.838448,10.60249 -0.534169,3.8144 -1.026569,7.63599 -1.730623,11.42405 -0.31646,1.91584 -0.638411,3.84373 -0.71387,5.78516 -1.283846,0.67761 -2.569882,1.35108 -3.851536,2.03283 -0.02907,0.0155 0.0741,-0.007 0.09291,-0.0335 0.04472,-0.0643 0.05904,-0.14516 0.08325,-0.2196 0.02342,-0.072 0.16942,-0.59679 0.185186,-0.65622 0.02861,-0.10786 0.05458,-0.2164 0.08187,-0.3246 0,0 3.914099,-1.83821 3.914099,-1.83821 z"
       inkscape:connector-curvature="0" />
    <path
       style="fill:#000080;fill-opacity:1;stroke:#050101;stroke-width:1.60000002;stroke-miterlimit:4;stroke-opacity:1;stroke-dasharray:none"
       id="path4466"
       d="m 104.23008,916.45215 c 1.87223,0.35622 3.54183,1.26636 5.17918,2.19752 1.73725,1.13064 3.39365,2.40897 4.81962,3.92012 0.9801,1.03865 1.16805,1.36418 2.01435,2.50842 0.93638,1.28106 1.49138,2.73936 2.03142,4.21291 0,0 -3.53399,1.95947 -3.53399,1.95947 l 0,0 c -0.52355,-1.43785 -1.05346,-2.86665 -1.96453,-4.1177 -0.82462,-1.11229 -1.01992,-1.44757 -1.97908,-2.45304 -1.41516,-1.4835 -3.06086,-2.73438 -4.80742,-3.79989 -1.66439,-0.88958 -3.379,-1.75846 -5.28909,-1.93919 0,0 3.52954,-2.48862 3.52954,-2.48862 z"
       inkscape:connector-curvature="0" />
    <path
       style="fill:#000080;fill-opacity:1;stroke:#050101;stroke-width:1.60000002;stroke-miterlimit:4;stroke-opacity:1;stroke-dasharray:none"
       id="path4468"
       d="m 151.52107,948.16566 c 2.8535,0.11112 5.68032,-0.46859 8.47922,-0.94598 2.04957,-0.37338 4.08814,-0.80311 6.12735,-1.2284 0,0 -3.14047,2.38057 -3.14047,2.38057 l 0,0 c -2.0396,0.41441 -4.0788,0.83138 -6.12522,1.21119 -2.91702,0.51222 -5.84417,1.08762 -8.81702,1.10819 0,0 3.47614,-2.52557 3.47614,-2.52557 z"
       inkscape:connector-curvature="0" />
    <path
       style="fill:#000080;fill-opacity:1;stroke:#050101;stroke-width:1.60000002;stroke-miterlimit:4;stroke-opacity:1;stroke-dasharray:none"
       id="path4470"
       d="m 152.46056,960.68852 c -0.49862,0.53431 -0.56831,0.57598 0.21746,0.64222 2.48511,-0.22277 4.88262,-1.03228 7.27951,-1.68687 1.61651,-0.46209 3.2303,-0.93353 4.84552,-1.4001 0,0 -3.19011,2.45681 -3.19011,2.45681 l 0,0 c -1.61113,0.45919 -3.22107,0.92247 -4.83146,1.38423 -1.54099,0.43029 -3.07621,0.89373 -4.63147,1.27089 -0.65521,0.1589 -1.52516,0.35821 -2.21347,0.41673 -0.25311,0.0215 -0.50804,0.001 -0.76206,0.002 -0.17163,-0.048 -0.35515,-0.0651 -0.51489,-0.1441 -0.57223,-0.28313 -0.54789,-0.85211 -0.19874,-1.28538 0,0 3.99971,-1.65673 3.99971,-1.65673 z"
       inkscape:connector-curvature="0" />
    <path
       style="fill:#000080;fill-opacity:1;stroke:#050101;stroke-width:1.60000002;stroke-miterlimit:4;stroke-opacity:1;stroke-dasharray:none"
       id="path4472"
       d="m 201.61708,969.81338 c -0.52766,-0.14513 -1.12267,-0.24169 -1.65108,-0.0355 -0.10135,0.0395 -0.37807,0.2155 -0.28338,0.16192 1.15803,-0.65527 2.31561,-1.31134 3.47342,-1.96702 -0.20813,0.12899 -0.12013,0.0756 -0.26314,0.16147 0,0 -3.91527,1.86505 -3.91527,1.86505 l 0,0 c 0.004,-0.35007 -0.047,-0.19145 0.15243,-0.47648 2.93216,-1.6689 3.37426,-2.77797 6.04889,-2.14883 0,0 -3.56187,2.43936 -3.56187,2.43936 z"
       inkscape:connector-curvature="0" />
    <path
       style="fill:#000080;fill-opacity:1;stroke:#050101;stroke-width:1.60000002;stroke-miterlimit:4;stroke-opacity:1;stroke-dasharray:none"
       id="path4474"
       d="m 231.38896,969.87088 c -0.61868,-0.22738 -1.28264,-0.14603 -1.90613,-0.3569 -0.24981,-0.21514 -0.14482,-0.0759 -0.27599,-0.44442 0,0 3.86076,-1.99057 3.86076,-1.99057 l 0,0 c -0.12136,-0.0502 -0.12483,-0.0517 -0.0105,-0.004 0.6118,0.15938 1.26122,0.14124 1.87321,0.31149 0,0 -3.54138,2.48465 -3.54138,2.48465 z"
       inkscape:connector-curvature="0" />
    <path
       style="fill:#000080;fill-opacity:1;stroke:#050101;stroke-width:1.60000002;stroke-miterlimit:4;stroke-opacity:1;stroke-dasharray:none"
       id="path4476"
       d="m 272.21093,969.06068 c -0.37635,-0.007 -0.18964,-0.0232 -0.5601,0.0499 0,0 3.45515,-2.57316 3.45515,-2.57316 l 0,0 c 0.40812,-0.0196 0.20634,-0.0131 0.60531,-0.0199 0,0 -3.50036,2.54316 -3.50036,2.54316 z"
       inkscape:connector-curvature="0" />
  </g>
</svg>
