<?xml version="1.0" encoding="UTF-8" standalone="no"?>
<!-- Created with Inkscape (http://www.inkscape.org/) -->

<svg
   xmlns:dc="http://purl.org/dc/elements/1.1/"
   xmlns:cc="http://creativecommons.org/ns#"
   xmlns:rdf="http://www.w3.org/1999/02/22-rdf-syntax-ns#"
   xmlns:svg="http://www.w3.org/2000/svg"
   xmlns="http://www.w3.org/2000/svg"
   xmlns:sodipodi="http://sodipodi.sourceforge.net/DTD/sodipodi-0.dtd"
   xmlns:inkscape="http://www.inkscape.org/namespaces/inkscape"
   width="160"
   height="123.95"
   id="svg2"
   version="1.1"
   inkscape:version="0.48.3.1 r9886"
   inkscape:export-filename="integral.png"
   inkscape:export-xdpi="150"
   inkscape:export-ydpi="150"
   sodipodi:docname="minmax3d.svg">
  <defs
     id="defs4" />
  <sodipodi:namedview
     id="base"
     pagecolor="#9fffa7"
     bordercolor="#666666"
     borderopacity="1.0"
     inkscape:pageopacity="0"
     inkscape:pageshadow="2"
     inkscape:zoom="4.8164584"
     inkscape:cx="80"
     inkscape:cy="61.974998"
     inkscape:document-units="px"
     inkscape:current-layer="layer1"
     showgrid="false"
     inkscape:window-width="1231"
     inkscape:window-height="776"
     inkscape:window-x="49"
     inkscape:window-y="24"
     inkscape:window-maximized="1"
     fit-margin-top="0"
     fit-margin-left="0"
     fit-margin-right="0"
     fit-margin-bottom="0"
     showguides="true"
     inkscape:guide-bbox="true">
    <sodipodi:guide
       orientation="0,1"
       position="109.62412,63.532159"
       id="guide4800" />
  </sodipodi:namedview>
  <metadata
     id="metadata7">
    <rdf:RDF>
      <cc:Work
         rdf:about="">
        <dc:format>image/svg+xml</dc:format>
        <dc:type
           rdf:resource="http://purl.org/dc/dcmitype/StillImage" />
        <dc:title></dc:title>
      </cc:Work>
    </rdf:RDF>
  </metadata>
  <g
     inkscape:label="Layer 1"
     inkscape:groupmode="layer"
     id="layer1"
     transform="translate(-6.6292965,-907.95565)">
    <path
       style="fill:#000000;fill-opacity:1;stroke:#050101;stroke-width:1.10000002;stroke-miterlimit:0.30000001;stroke-opacity:1;stroke-dasharray:none"
       id="path4949"
       d="m 22.939688,18.336873 c 0.17745,-1.000236 0.171105,-2.006445 0.03505,-3.009336 -0.176404,-0.744732 -0.433813,-1.577782 -1.091503,-2.047428 -0.100793,-0.07197 -0.219368,-0.115048 -0.329052,-0.172573 -0.277291,-0.05808 -0.425763,-0.127436 -0.710975,-0.03199 -0.130989,0.04383 -0.484071,0.266339 -0.362382,0.200985 0.725795,-0.389795 1.412836,-0.860887 2.174726,-1.174323 0.195059,-0.08025 -0.304615,0.293626 -0.435672,0.458888 -0.160992,0.203012 -0.291771,0.428252 -0.437656,0.642378 -0.969702,1.689412 -1.312534,3.609086 -1.366389,5.537277 -0.01399,0.501063 0.0086,1.00248 0.0129,1.503721 0.107531,2.267986 0.445529,4.521114 1.016229,6.718821 0.34003,1.309418 0.619356,2.112346 1.034112,3.399067 1.084553,3.027373 2.184968,6.047045 3.107704,9.128442 0.563764,1.885098 0.912346,3.823769 0.832952,5.79316 -0.102727,0.804627 -0.03463,0.419167 -0.197027,1.157643 0,0 -2.704044,1.295132 -2.704044,1.295132 l 0,0 c 0.201661,-0.713701 0.114884,-0.339723 0.25223,-1.123785 0.164973,-1.953205 -0.135597,-3.888137 -0.65674,-5.772968 -0.871745,-3.099637 -1.935731,-6.134299 -3.029343,-9.161974 -0.438867,-1.357958 -0.678879,-2.037531 -1.043555,-3.418599 -0.582803,-2.207129 -0.950567,-4.464822 -1.096586,-6.7433 -0.01477,-0.503798 -0.04751,-1.007389 -0.04432,-1.511393 0.01225,-1.936254 0.295531,-3.873626 1.18415,-5.613324 1.073095,-1.82822 1.13283,-1.499023 3.771925,-2.982697 0.398235,-0.223884 0.851843,-0.10719 1.239341,0.0524 0.120213,0.07869 0.249633,0.14486 0.360639,0.236083 0.676475,0.555918 0.969086,1.413884 1.164854,2.234753 0.14872,1.013373 0.167215,2.023948 0.07214,3.044724 0,0 -2.75371,1.360221 -2.75371,1.360221 z"
       inkscape:connector-curvature="0"
       transform="translate(6.6292965,907.95565)" />
    <path
       style="fill:#000000;fill-opacity:1;stroke:#050101;stroke-width:1.10000002;stroke-miterlimit:0.30000001;stroke-opacity:1;stroke-dasharray:none"
       id="path4951"
       d="m 12.530102,33.339988 c -0.475738,0.113491 -0.930637,0.287815 -1.379799,0.479397 -0.02988,0.02223 -0.120162,0.08805 -0.08965,0.0667 0.871662,-0.610032 1.723049,-1.249919 2.613128,-1.832751 0.08843,-0.0579 0.203319,-0.05882 0.306997,-0.07938 0.194262,-0.03852 0.39172,-0.0595 0.586041,-0.09772 0.195289,-0.03841 1.972957,-0.432397 2.009597,-0.440488 3.405542,-0.764067 6.825153,-1.461196 10.249041,-2.137456 2.408333,-0.484024 4.833581,-0.891536 7.275037,-1.164682 0,0 -2.302381,1.710873 -2.302381,1.710873 l 0,0 c -2.395763,0.248502 -4.777649,0.621003 -7.139609,1.093478 -3.464565,0.679803 -6.923079,1.392139 -10.353784,2.228611 -0.907254,0.21952 -1.828199,0.491327 -2.753745,0.630594 -1.6241413,0.244384 0.971873,-1.468462 2.017809,-1.880027 0.464699,-0.174378 0.93627,-0.333848 1.424363,-0.429572 0,0 -2.463048,1.852418 -2.463048,1.852418 z"
       inkscape:connector-curvature="0"
       transform="translate(6.6292965,907.95565)" />
    <path
       style="fill:#000000;fill-opacity:1;stroke:#050101;stroke-width:1.10000002;stroke-miterlimit:0.30000001;stroke-opacity:1;stroke-dasharray:none"
       id="path4953"
       d="m 48.654598,20.281243 c -1.115236,1.309217 -1.934376,2.832839 -2.753799,4.335046 -1.163282,2.370456 -2.246938,4.815903 -2.800342,7.410936 -0.108041,0.50663 -0.17444,1.021254 -0.261659,1.53188 -0.231427,1.877716 -0.122434,3.774015 0.53118,5.561883 0.408655,1.117817 0.594225,1.311745 1.206556,2.314864 0.961148,1.405276 2.239395,2.52094 3.704684,3.375954 0.367021,0.214161 0.751216,0.397429 1.126824,0.596144 0,0 -2.375148,1.553791 -2.375148,1.553791 l 0,0 C 46.652018,46.756904 46.262111,46.568038 45.890266,46.34723 44.3966,45.460268 43.10639,44.296957 42.126169,42.857597 c -0.610922,-1.014138 -0.823188,-1.25774 -1.234418,-2.383093 -0.66865,-1.829795 -0.781003,-3.773804 -0.54913,-5.69565 0.08642,-0.518509 0.151897,-1.040946 0.259259,-1.555527 0.542334,-2.599379 1.611608,-5.049181 2.719948,-7.447878 0.758924,-1.468553 1.512441,-2.952017 2.500268,-4.284054 0,0 2.832502,-1.210152 2.832502,-1.210152 z"
       inkscape:connector-curvature="0"
       transform="translate(6.6292965,907.95565)" />
    <path
       style="fill:#000000;fill-opacity:1;stroke:#050101;stroke-width:1.10000002;stroke-miterlimit:0.30000001;stroke-opacity:1;stroke-dasharray:none"
       id="path4955"
       d="m 60.825112,30.53714 c 1.084146,1.468782 2.46048,2.697974 3.780141,3.949487 2.110709,1.964464 4.292364,3.851288 6.464613,5.747065 0,0 -2.399297,1.490914 -2.399297,1.490914 l 0,0 c -2.153145,-1.922115 -4.324424,-3.823491 -6.472556,-5.751142 -1.371184,-1.255947 -2.77698,-2.485803 -4.015313,-3.876482 0,0 2.642412,-1.559842 2.642412,-1.559842 z"
       inkscape:connector-curvature="0"
       transform="translate(6.6292965,907.95565)" />
    <path
       style="fill:#000000;fill-opacity:1;stroke:#050101;stroke-width:1.10000002;stroke-miterlimit:0.30000001;stroke-opacity:1;stroke-dasharray:none"
       id="path4957"
       d="m 69.82187,34.414859 c -0.108552,0.02701 -0.219449,0.04591 -0.325658,0.08102 -0.269137,0.08898 -0.835257,0.335894 -1.057785,0.449162 -0.250961,0.127742 -0.985174,0.546095 -0.738661,0.409968 1.940064,-1.071331 2.105363,-1.238794 0.575417,-0.171752 -2.572575,1.849218 -4.808035,4.097791 -6.935088,6.431764 -1.18674,1.403392 -0.635369,0.706443 -1.662692,2.08403 0,0 -2.610653,1.125407 -2.610653,1.125407 l 0,0 c 1.061365,-1.414457 0.493959,-0.701108 1.710018,-2.133818 2.117343,-2.32046 4.320495,-4.577548 6.846745,-6.460232 1.947732,-1.420648 0.915162,-0.715378 4.356743,-2.712183 0.717465,-0.416272 1.477542,-0.760009 2.278487,-0.979646 0,0 -2.436873,1.876275 -2.436873,1.876275 z"
       inkscape:connector-curvature="0"
       transform="translate(6.6292965,907.95565)" />
    <path
       style="fill:#000000;fill-opacity:1;stroke:#050101;stroke-width:1.10000002;stroke-miterlimit:0.30000001;stroke-opacity:1;stroke-dasharray:none"
       id="path4959"
       d="m 80.602352,22.505667 c 1.435286,0.876398 2.764414,1.924738 3.972746,3.093927 0.39587,0.383046 0.769717,0.788217 1.154576,1.182326 2.096529,2.345537 3.937536,4.956204 5.150266,7.873956 0.249466,0.6002 0.444841,1.22148 0.667262,1.832221 0.570346,1.885565 0.863464,3.838454 0.830315,5.810153 -0.01105,0.656998 -0.09242,1.310929 -0.138624,1.966393 0,0 -2.409235,1.205184 -2.409235,1.205184 l 0,0 c 0.05037,-0.646724 0.135783,-1.291672 0.151111,-1.940174 0.04598,-1.945301 -0.236308,-3.871681 -0.79373,-5.733705 -0.217852,-0.603894 -0.407671,-1.218648 -0.653555,-1.811681 -1.198819,-2.891357 -3.037996,-5.475823 -5.157728,-7.760059 -0.39135,-0.383032 -0.770144,-0.779328 -1.174049,-1.149096 -1.240851,-1.135975 -2.620549,-2.162151 -4.149494,-2.874896 0,0 2.550139,-1.694549 2.550139,-1.694549 z"
       inkscape:connector-curvature="0"
       transform="translate(6.6292965,907.95565)" />
    <path
       style="fill:#000000;fill-opacity:1;stroke:#050101;stroke-width:1.10000002;stroke-miterlimit:0.30000001;stroke-opacity:1;stroke-dasharray:none"
       id="path4961"
       d="m 27.251896,84.025953 c -0.169785,-0.634785 -0.347774,-1.269464 -0.474033,-1.914666 -0.149801,-1.180792 -0.130458,-0.591487 2.855988,-1.400994 0.146059,-0.03959 0.156951,0.258826 0.238799,0.386112 0.126054,0.196034 0.253259,0.391387 0.384844,0.583752 0.571116,0.834915 0.596526,0.842115 1.259354,1.709165 2.113184,2.586556 4.52587,4.90585 6.984152,7.159023 1.205818,1.110916 2.447729,2.18087 3.695086,3.244456 0,0 -2.362753,1.471326 -2.362753,1.471326 l 0,0 c -1.229473,-1.081013 -2.456322,-2.16508 -3.65765,-3.277499 -2.466196,-2.278149 -4.89491,-4.606314 -7.112072,-7.131082 -0.612352,-0.732515 -1.202115,-1.4762 -1.792379,-2.226098 -0.0888,-0.112816 -0.381354,-0.246706 -0.269144,-0.336272 0.790913,-0.631305 1.766788,-0.989961 2.617436,-1.538129 0.03929,-0.02532 -0.08083,-0.04697 -0.12124,-0.07045 0.02181,0.639782 0.248793,1.269774 0.453996,1.869393 0,0 -2.700384,1.471964 -2.700384,1.471964 z"
       inkscape:connector-curvature="0"
       transform="translate(6.6292965,907.95565)" />
    <path
       style="fill:#000000;fill-opacity:1;stroke:#050101;stroke-width:1.10000002;stroke-miterlimit:0.30000001;stroke-opacity:1;stroke-dasharray:none"
       id="path4963"
       d="m 45.320863,79.460006 c -1.552015,1.139674 -3.070517,2.323692 -4.595491,3.499179 -2.942093,2.200749 -5.744999,4.576054 -8.475962,7.031422 -1.373276,1.209657 -2.646259,2.524496 -3.874717,3.878771 0,0 -2.651852,1.112173 -2.651852,1.112173 l 0,0 c 1.272143,-1.377602 2.584565,-2.72006 3.9947,-3.958263 2.725301,-2.439032 5.506033,-4.817477 8.420207,-7.029924 1.441236,-1.129116 2.870005,-2.274456 4.324527,-3.386184 0,0 2.858588,-1.147174 2.858588,-1.147174 z"
       inkscape:connector-curvature="0"
       transform="translate(6.6292965,907.95565)" />
    <path
       style="fill:#000000;fill-opacity:1;stroke:#050101;stroke-width:1.10000002;stroke-miterlimit:0.30000001;stroke-opacity:1;stroke-dasharray:none"
       id="path4965"
       d="m 65.836297,83.639451 c 1.691915,0.143135 3.400955,-0.05753 5.088337,-0.197112 1.609234,-0.130667 0.809466,-0.06823 2.399289,-0.18749 0,0 -2.301374,1.698201 -2.301374,1.698201 l 0,0 c -1.583418,0.115939 -0.785098,0.05334 -2.394928,0.18823 -1.757287,0.154494 -3.52572,0.366692 -5.291596,0.272788 0,0 2.500272,-1.774617 2.500272,-1.774617 z"
       inkscape:connector-curvature="0"
       transform="translate(6.6292965,907.95565)" />
    <path
       style="fill:#000000;fill-opacity:1;stroke:#050101;stroke-width:1.10000002;stroke-miterlimit:0.30000001;stroke-opacity:1;stroke-dasharray:none"
       id="path4967"
       d="m 66.173729,87.748478 c 1.548304,0.0062 3.095984,-0.117411 4.642865,-0.185496 0.421054,-0.01444 0.842108,-0.02888 1.263162,-0.04332 0,0 -2.292086,1.679275 -2.292086,1.679275 l 0,0 c -0.42581,0.01928 -0.85162,0.03855 -1.27743,0.05783 -1.610565,0.09406 -3.218455,0.232227 -4.830172,0.303464 0,0 2.493661,-1.81175 2.493661,-1.81175 z"
       inkscape:connector-curvature="0"
       transform="translate(6.6292965,907.95565)" />
    <path
       style="fill:#000000;fill-opacity:1;stroke:#050101;stroke-width:1.10000002;stroke-miterlimit:0.30000001;stroke-opacity:1;stroke-dasharray:none"
       id="path4969"
       d="m 91.099336,68.740462 c 1.658697,-0.525613 3.344189,-0.935701 5.051688,-1.266429 1.885705,-0.302719 3.862016,-0.564906 5.746326,-0.0885 0.27952,0.07067 0.54588,0.185786 0.81882,0.278678 0.21742,0.135832 0.45568,0.242945 0.65227,0.407496 1.25541,1.050822 0.76086,2.539767 0.34637,3.852501 -0.81141,2.083295 -2.04955,3.962516 -2.9508,6.004317 -0.17063,0.386573 -0.31375,0.784715 -0.47062,1.177073 -0.376031,1.206887 -0.792205,2.581235 -0.311876,3.829716 0.244306,0.63501 0.448066,0.723819 0.929776,1.178456 0.25345,0.135934 0.4949,0.297124 0.76036,0.407802 1.98725,0.828558 4.44747,0.588297 6.53175,0.425044 3.77275,-0.43609 7.46312,-1.361747 11.13754,-2.293083 2.28926,-0.56846 1.15837,-0.302513 3.3921,-0.800315 0,0 -2.19228,1.667024 -2.19228,1.667024 l 0,0 c -2.20612,0.4862 -1.08759,0.226508 -3.35499,0.781624 -3.69801,0.920039 -7.41006,1.839962 -11.20163,2.284051 -2.14757,0.171453 -4.7231,0.425749 -6.759053,-0.468783 -0.286757,-0.125991 -0.545121,-0.308638 -0.817681,-0.462957 -0.529213,-0.521687 -0.74082,-0.615625 -1.008756,-1.328161 -0.495026,-1.316449 -0.08515,-2.755872 0.317818,-4.028704 0.160703,-0.401044 0.30786,-0.807785 0.48211,-1.203131 0.888676,-2.01628 2.093732,-3.880835 2.898292,-5.935856 0.35754,-1.120978 0.88392,-2.580058 -0.213,-3.483639 -0.17972,-0.148041 -0.3975,-0.242604 -0.59625,-0.363906 -0.2574,-0.08584 -0.508763,-0.192526 -0.7722,-0.257525 -1.851268,-0.45677 -3.789196,-0.176462 -5.635041,0.140394 -1.76201,0.367626 -3.507864,0.810336 -5.197433,1.438485 0,0 2.41639,-1.89167 2.41639,-1.89167 z"
       inkscape:connector-curvature="0"
       transform="translate(6.6292965,907.95565)" />
    <path
       style="fill:#000000;fill-opacity:1;stroke:#050101;stroke-width:1.10000002;stroke-miterlimit:0.30000001;stroke-opacity:1;stroke-dasharray:none"
       id="path4971"
       d="m 104.88368,94.607833 c -0.22573,-0.07451 -0.47691,-0.118728 -0.71363,-0.06242 -0.0906,0.02156 -0.34023,0.150222 -0.25939,0.103938 2.64427,-1.514022 3.02376,-1.856042 2.07974,-1.076113 -0.42116,0.504962 -0.74567,1.263135 -0.44975,1.916448 0.0503,0.111131 0.13925,0.200361 0.20887,0.300542 0.10424,0.07719 0.19705,0.172876 0.31272,0.231558 0.63501,0.322146 1.44216,0.161453 2.05999,-0.113003 0.20135,-0.08945 0.38719,-0.210385 0.58079,-0.315578 -3.7283,2.172349 -1.72434,1.066256 -1.07556,0.203217 0.30408,-0.404505 0.40788,-0.689359 0.41326,-1.180351 -0.0406,-0.07816 -0.0603,-0.171532 -0.12195,-0.234491 -0.46538,-0.475412 -1.56981,0.0071 -2.04317,0.203498 -1.58688,0.919113 0.99215,-0.581185 1.62546,-0.858983 0.15511,-0.06804 -0.24345,0.236804 -0.34931,0.369025 -0.27915,0.348668 -0.41274,0.683664 -0.47887,1.116115 0.0541,0.652214 0.55614,0.7979 1.12494,0.838498 0,0 -2.47691,1.746684 -2.47691,1.746684 l 0,0 c -0.7881,-0.161658 -1.20673,-0.398628 -1.36473,-1.237016 0.01,-0.138723 -4.2e-4,-0.280157 0.0285,-0.41617 0.3896,-1.834119 2.83257,-2.649877 4.24549,-3.401699 0.70472,-0.239087 1.75879,-0.582861 2.3322,0.13294 0.0834,0.104096 0.11892,0.238775 0.17839,0.358163 0.007,0.140084 0.0361,0.280865 0.0206,0.420252 -0.21419,1.918805 -3.30482,3.134439 -4.37846,3.795453 -0.20595,0.09358 -0.40475,0.204833 -0.61784,0.280731 -0.71941,0.256225 -1.58505,0.316278 -2.26116,-0.09982 -0.13528,-0.08326 -0.24243,-0.205344 -0.36365,-0.308015 -0.0851,-0.128958 -0.19029,-0.246684 -0.2552,-0.386874 -0.33413,-0.72164 -0.0894,-1.563 0.29933,-2.202247 1.02808,-1.184274 2.72681,-2.437075 4.28797,-1.799186 0,0 -2.58864,1.674899 -2.58864,1.674899 z"
       inkscape:connector-curvature="0"
       transform="translate(6.6292965,907.95565)" />
  </g>
</svg>
