<?xml version="1.0" encoding="UTF-8" standalone="no"?>
<!-- Created with Inkscape (http://www.inkscape.org/) -->

<svg
   xmlns:dc="http://purl.org/dc/elements/1.1/"
   xmlns:cc="http://creativecommons.org/ns#"
   xmlns:rdf="http://www.w3.org/1999/02/22-rdf-syntax-ns#"
   xmlns:svg="http://www.w3.org/2000/svg"
   xmlns="http://www.w3.org/2000/svg"
   xmlns:sodipodi="http://sodipodi.sourceforge.net/DTD/sodipodi-0.dtd"
   xmlns:inkscape="http://www.inkscape.org/namespaces/inkscape"
   width="160"
   height="123.95"
   id="svg2"
   version="1.1"
   inkscape:version="0.48.4 r9939"
   inkscape:export-filename="integral.png"
   inkscape:export-xdpi="150"
   inkscape:export-ydpi="150"
   sodipodi:docname="df.svg">
  <defs
     id="defs4" />
  <sodipodi:namedview
     id="base"
     pagecolor="#9fffa7"
     bordercolor="#666666"
     borderopacity="1.0"
     inkscape:pageopacity="0"
     inkscape:pageshadow="2"
     inkscape:zoom="4.8164584"
     inkscape:cx="80"
     inkscape:cy="61.974998"
     inkscape:document-units="px"
     inkscape:current-layer="layer1"
     showgrid="false"
     inkscape:window-width="1237"
     inkscape:window-height="1003"
     inkscape:window-x="43"
     inkscape:window-y="21"
     inkscape:window-maximized="1"
     fit-margin-top="0"
     fit-margin-left="0"
     fit-margin-right="0"
     fit-margin-bottom="0"
     showguides="true"
     inkscape:guide-bbox="true">
    <sodipodi:guide
       orientation="0,1"
       position="109.62412,63.532159"
       id="guide4800" />
  </sodipodi:namedview>
  <metadata
     id="metadata7">
    <rdf:RDF>
      <cc:Work
         rdf:about="">
        <dc:format>image/svg+xml</dc:format>
        <dc:type
           rdf:resource="http://purl.org/dc/dcmitype/StillImage" />
        <dc:title />
      </cc:Work>
    </rdf:RDF>
  </metadata>
  <g
     inkscape:label="Layer 1"
     inkscape:groupmode="layer"
     id="layer1"
     transform="translate(-6.6292965,-907.95565)">
    <path
       style="fill:#000000;fill-opacity:1;stroke:#050101;stroke-width:1.10000002;stroke-miterlimit:0.30000001;stroke-opacity:1;stroke-dasharray:none"
       id="path4949"
       d="m 22.939688,18.336873 c 0.17745,-1.000236 0.171105,-2.006445 0.03505,-3.009336 -0.176404,-0.744732 -0.433813,-1.577782 -1.091503,-2.047428 -0.100793,-0.07197 -0.219368,-0.115048 -0.329052,-0.172573 -0.277291,-0.05808 -0.425763,-0.127436 -0.710975,-0.03199 -0.130989,0.04383 -0.484071,0.266339 -0.362382,0.200985 0.725795,-0.389795 1.412836,-0.860887 2.174726,-1.174323 0.195059,-0.08025 -0.304615,0.293626 -0.435672,0.458888 -0.160992,0.203012 -0.291771,0.428252 -0.437656,0.642378 -0.969702,1.689412 -1.312534,3.609086 -1.366389,5.537277 -0.01399,0.501063 0.0086,1.00248 0.0129,1.503721 0.107531,2.267986 0.445529,4.521114 1.016229,6.718821 0.34003,1.309418 0.619356,2.112346 1.034112,3.399067 1.084553,3.027373 2.184968,6.047045 3.107704,9.128442 0.563764,1.885098 0.912346,3.823769 0.832952,5.79316 -0.102727,0.804627 -0.03463,0.419167 -0.197027,1.157643 0,0 -2.704044,1.295132 -2.704044,1.295132 l 0,0 c 0.201661,-0.713701 0.114884,-0.339723 0.25223,-1.123785 0.164973,-1.953205 -0.135597,-3.888137 -0.65674,-5.772968 -0.871745,-3.099637 -1.935731,-6.134299 -3.029343,-9.161974 -0.438867,-1.357958 -0.678879,-2.037531 -1.043555,-3.418599 -0.582803,-2.207129 -0.950567,-4.464822 -1.096586,-6.7433 -0.01477,-0.503798 -0.04751,-1.007389 -0.04432,-1.511393 0.01225,-1.936254 0.295531,-3.873626 1.18415,-5.613324 1.073095,-1.82822 1.13283,-1.499023 3.771925,-2.982697 0.398235,-0.223884 0.851843,-0.10719 1.239341,0.0524 0.120213,0.07869 0.249633,0.14486 0.360639,0.236083 0.676475,0.555918 0.969086,1.413884 1.164854,2.234753 0.14872,1.013373 0.167215,2.023948 0.07214,3.044724 0,0 -2.75371,1.360221 -2.75371,1.360221 z"
       inkscape:connector-curvature="0"
       transform="translate(6.6292965,907.95565)" />
    <path
       style="fill:#000000;fill-opacity:1;stroke:#050101;stroke-width:1.10000002;stroke-miterlimit:0.30000001;stroke-opacity:1;stroke-dasharray:none"
       id="path4951"
       d="m 12.530102,33.339988 c -0.475738,0.113491 -0.930637,0.287815 -1.379799,0.479397 -0.02988,0.02223 -0.120162,0.08805 -0.08965,0.0667 0.871662,-0.610032 1.723049,-1.249919 2.613128,-1.832751 0.08843,-0.0579 0.203319,-0.05882 0.306997,-0.07938 0.194262,-0.03852 0.39172,-0.0595 0.586041,-0.09772 0.195289,-0.03841 1.972957,-0.432397 2.009597,-0.440488 3.405542,-0.764067 6.825153,-1.461196 10.249041,-2.137456 2.408333,-0.484024 4.833581,-0.891536 7.275037,-1.164682 0,0 -2.302381,1.710873 -2.302381,1.710873 l 0,0 c -2.395763,0.248502 -4.777649,0.621003 -7.139609,1.093478 -3.464565,0.679803 -6.923079,1.392139 -10.353784,2.228611 -0.907254,0.21952 -1.828199,0.491327 -2.753745,0.630594 -1.6241413,0.244384 0.971873,-1.468462 2.017809,-1.880027 0.464699,-0.174378 0.93627,-0.333848 1.424363,-0.429572 0,0 -2.463048,1.852418 -2.463048,1.852418 z"
       inkscape:connector-curvature="0"
       transform="translate(6.6292965,907.95565)" />
    <path
       style="fill:#000000;fill-opacity:1;stroke:#050101;stroke-width:1.10000002;stroke-miterlimit:0.30000001;stroke-opacity:1;stroke-dasharray:none"
       id="path4953"
       d="m 48.654598,20.281243 c -1.115236,1.309217 -1.934376,2.832839 -2.753799,4.335046 -1.163282,2.370456 -2.246938,4.815903 -2.800342,7.410936 -0.108041,0.50663 -0.17444,1.021254 -0.261659,1.53188 -0.231427,1.877716 -0.122434,3.774015 0.53118,5.561883 0.408655,1.117817 0.594225,1.311745 1.206556,2.314864 0.961148,1.405276 2.239395,2.52094 3.704684,3.375954 0.367021,0.214161 0.751216,0.397429 1.126824,0.596144 0,0 -2.375148,1.553791 -2.375148,1.553791 l 0,0 C 46.652018,46.756904 46.262111,46.568038 45.890266,46.34723 44.3966,45.460268 43.10639,44.296957 42.126169,42.857597 c -0.610922,-1.014138 -0.823188,-1.25774 -1.234418,-2.383093 -0.66865,-1.829795 -0.781003,-3.773804 -0.54913,-5.69565 0.08642,-0.518509 0.151897,-1.040946 0.259259,-1.555527 0.542334,-2.599379 1.611608,-5.049181 2.719948,-7.447878 0.758924,-1.468553 1.512441,-2.952017 2.500268,-4.284054 0,0 2.832502,-1.210152 2.832502,-1.210152 z"
       inkscape:connector-curvature="0"
       transform="translate(6.6292965,907.95565)" />
    <path
       style="fill:#000000;fill-opacity:1;stroke:#050101;stroke-width:1.10000002;stroke-miterlimit:0.30000001;stroke-opacity:1;stroke-dasharray:none"
       id="path4955"
       d="m 60.825112,30.53714 c 1.084146,1.468782 2.46048,2.697974 3.780141,3.949487 2.110709,1.964464 4.292364,3.851288 6.464613,5.747065 0,0 -2.399297,1.490914 -2.399297,1.490914 l 0,0 c -2.153145,-1.922115 -4.324424,-3.823491 -6.472556,-5.751142 -1.371184,-1.255947 -2.77698,-2.485803 -4.015313,-3.876482 0,0 2.642412,-1.559842 2.642412,-1.559842 z"
       inkscape:connector-curvature="0"
       transform="translate(6.6292965,907.95565)" />
    <path
       style="fill:#000000;fill-opacity:1;stroke:#050101;stroke-width:1.10000002;stroke-miterlimit:0.30000001;stroke-opacity:1;stroke-dasharray:none"
       id="path4957"
       d="m 69.82187,34.414859 c -0.108552,0.02701 -0.219449,0.04591 -0.325658,0.08102 -0.269137,0.08898 -0.835257,0.335894 -1.057785,0.449162 -0.250961,0.127742 -0.985174,0.546095 -0.738661,0.409968 1.940064,-1.071331 2.105363,-1.238794 0.575417,-0.171752 -2.572575,1.849218 -4.808035,4.097791 -6.935088,6.431764 -1.18674,1.403392 -0.635369,0.706443 -1.662692,2.08403 0,0 -2.610653,1.125407 -2.610653,1.125407 l 0,0 c 1.061365,-1.414457 0.493959,-0.701108 1.710018,-2.133818 2.117343,-2.32046 4.320495,-4.577548 6.846745,-6.460232 1.947732,-1.420648 0.915162,-0.715378 4.356743,-2.712183 0.717465,-0.416272 1.477542,-0.760009 2.278487,-0.979646 0,0 -2.436873,1.876275 -2.436873,1.876275 z"
       inkscape:connector-curvature="0"
       transform="translate(6.6292965,907.95565)" />
    <path
       style="fill:#000000;fill-opacity:1;stroke:#050101;stroke-width:1.10000002;stroke-miterlimit:0.30000001;stroke-opacity:1;stroke-dasharray:none"
       id="path4959"
       d="m 80.602352,22.505667 c 1.435286,0.876398 2.764414,1.924738 3.972746,3.093927 0.39587,0.383046 0.769717,0.788217 1.154576,1.182326 2.096529,2.345537 3.937536,4.956204 5.150266,7.873956 0.249466,0.6002 0.444841,1.22148 0.667262,1.832221 0.570346,1.885565 0.863464,3.838454 0.830315,5.810153 -0.01105,0.656998 -0.09242,1.310929 -0.138624,1.966393 0,0 -2.409235,1.205184 -2.409235,1.205184 l 0,0 c 0.05037,-0.646724 0.135783,-1.291672 0.151111,-1.940174 0.04598,-1.945301 -0.236308,-3.871681 -0.79373,-5.733705 -0.217852,-0.603894 -0.407671,-1.218648 -0.653555,-1.811681 -1.198819,-2.891357 -3.037996,-5.475823 -5.157728,-7.760059 -0.39135,-0.383032 -0.770144,-0.779328 -1.174049,-1.149096 -1.240851,-1.135975 -2.620549,-2.162151 -4.149494,-2.874896 0,0 2.550139,-1.694549 2.550139,-1.694549 z"
       inkscape:connector-curvature="0"
       transform="translate(6.6292965,907.95565)" />
    <path
       style="fill:#000000;fill-opacity:1;stroke:#050101;stroke-width:1.10000002;stroke-miterlimit:0.30000001;stroke-opacity:1;stroke-dasharray:none"
       id="path4961"
       d="m 27.251896,84.025953 c -0.169785,-0.634785 -0.347774,-1.269464 -0.474033,-1.914666 -0.149801,-1.180792 -0.130458,-0.591487 2.855988,-1.400994 0.146059,-0.03959 0.156951,0.258826 0.238799,0.386112 0.126054,0.196034 0.253259,0.391387 0.384844,0.583752 0.571116,0.834915 0.596526,0.842115 1.259354,1.709165 2.113184,2.586556 4.52587,4.90585 6.984152,7.159023 1.205818,1.110916 2.447729,2.18087 3.695086,3.244456 0,0 -2.362753,1.471326 -2.362753,1.471326 l 0,0 c -1.229473,-1.081013 -2.456322,-2.16508 -3.65765,-3.277499 -2.466196,-2.278149 -4.89491,-4.606314 -7.112072,-7.131082 -0.612352,-0.732515 -1.202115,-1.4762 -1.792379,-2.226098 -0.0888,-0.112816 -0.381354,-0.246706 -0.269144,-0.336272 0.790913,-0.631305 1.766788,-0.989961 2.617436,-1.538129 0.03929,-0.02532 -0.08083,-0.04697 -0.12124,-0.07045 0.02181,0.639782 0.248793,1.269774 0.453996,1.869393 0,0 -2.700384,1.471964 -2.700384,1.471964 z"
       inkscape:connector-curvature="0"
       transform="translate(6.6292965,907.95565)" />
    <path
       style="fill:#000000;fill-opacity:1;stroke:#050101;stroke-width:1.10000002;stroke-miterlimit:0.30000001;stroke-opacity:1;stroke-dasharray:none"
       id="path4963"
       d="m 45.320863,79.460006 c -1.552015,1.139674 -3.070517,2.323692 -4.595491,3.499179 -2.942093,2.200749 -5.744999,4.576054 -8.475962,7.031422 -1.373276,1.209657 -2.646259,2.524496 -3.874717,3.878771 0,0 -2.651852,1.112173 -2.651852,1.112173 l 0,0 c 1.272143,-1.377602 2.584565,-2.72006 3.9947,-3.958263 2.725301,-2.439032 5.506033,-4.817477 8.420207,-7.029924 1.441236,-1.129116 2.870005,-2.274456 4.324527,-3.386184 0,0 2.858588,-1.147174 2.858588,-1.147174 z"
       inkscape:connector-curvature="0"
       transform="translate(6.6292965,907.95565)" />
    <path
       style="fill:#000000;stroke-width:1.89999998000000003;stroke-miterlimit:4;stroke-dasharray:7.59999999999999964, 7.59999999999999964;stroke-dashoffset:0"
       id="path2995"
       d="m 66.048975,81.276738 c -0.519454,-0.459772 -1.11203,-0.790296 -1.747471,-1.057322 -1.15772,-0.431067 -2.376373,-0.27946 -3.566101,-0.09155 -1.321159,0.259607 -2.601158,0.712456 -3.807258,1.309414 -0.353648,0.175038 -1.386469,0.754072 -1.043836,0.558348 0.452668,-0.25858 0.916026,-0.497981 1.374039,-0.746971 -1.879721,1.253485 -3.604669,2.76437 -4.928497,4.607061 -0.253368,0.352674 -0.474071,0.727705 -0.711106,1.091557 -0.705132,1.279632 -1.320077,2.699564 -1.208849,4.198413 0.05668,0.76377 0.205626,0.954351 0.501187,1.63867 0.175258,0.220323 0.327562,0.461047 0.525776,0.66097 1.391478,1.403483 3.508864,1.666776 5.359742,1.946811 3.458941,0.341352 6.938665,0.151436 10.387591,-0.197785 2.083726,-0.229556 1.071251,-0.107118 3.037834,-0.363927 0,0 -2.245133,1.673367 -2.245133,1.673367 l 0,0 c -1.932616,0.220734 -0.935951,0.113319 -2.990257,0.319834 -3.477771,0.321631 -6.984894,0.505789 -10.47009,0.174122 -1.948504,-0.285545 -4.137868,-0.563138 -5.587854,-2.056324 -0.2135,-0.219862 -0.376013,-0.484046 -0.56402,-0.726068 -0.321964,-0.746421 -0.473106,-0.930329 -0.537689,-1.762443 -0.120526,-1.552924 0.484038,-3.033388 1.205022,-4.368859 0.237052,-0.372856 0.458,-0.756452 0.711154,-1.118568 1.3025,-1.863118 3.002989,-3.405474 4.867429,-4.690688 2.735731,-1.615687 5.29719,-3.351215 8.471421,-3.906218 1.254861,-0.181397 2.527795,-0.313759 3.735209,0.173512 0.662794,0.285934 1.262758,0.662785 1.839388,1.096718 0,0 -2.607631,1.637922 -2.607631,1.637922 z"
       inkscape:connector-curvature="0"
       transform="translate(6.6292965,907.95565)" />
    <path
       style="fill:#000000;stroke-width:1.89999998000000003;stroke-miterlimit:4;stroke-dasharray:7.59999999999999964, 7.59999999999999964;stroke-dashoffset:0"
       id="path2997"
       d="m 51.001749,88.118784 c 1.552218,-0.06672 3.102509,-0.171934 4.653589,-0.261419 2.636793,-0.132557 5.27344,-0.26784 7.907123,-0.45282 1.040856,-0.05109 2.075651,-0.177586 3.107005,-0.321712 0,0 -2.405462,1.791833 -2.405462,1.791833 l 0,0 c -0.999157,0.0985 -1.99961,0.186725 -3.003262,0.224712 -2.632103,0.151059 -5.265565,0.275856 -7.896615,0.445564 -1.609484,0.116923 -3.22422,0.220333 -4.824809,0.425796 0,0 2.462431,-1.851954 2.462431,-1.851954 z"
       inkscape:connector-curvature="0"
       transform="translate(6.6292965,907.95565)" />
    <path
       style="fill:#000000;stroke-width:1.89999998000000003;stroke-miterlimit:4;stroke-dasharray:7.59999999999999964, 7.59999999999999964;stroke-dashoffset:0"
       id="path2999"
       d="m 89.703606,67.673073 c -0.840985,-0.236028 -1.586747,-0.132562 -2.400639,0.141482 -0.748724,0.352749 -2.605982,1.242944 1.556303,-0.931039 0.189401,-0.09892 -0.357928,0.234579 -0.525273,0.367449 -0.538529,0.427585 -0.948884,0.939273 -1.356668,1.486279 -0.654732,1.048841 -1.117328,2.240775 -1.272465,3.472908 -0.03089,0.245366 -0.03589,0.493302 -0.05384,0.739953 -0.04118,1.626399 0.436146,2.802458 1.213588,4.190864 0.824767,1.286653 1.768202,2.489107 2.46749,3.851447 0.35114,0.774312 0.65081,1.702831 0.174264,2.498413 -0.08235,0.137473 -0.198989,0.25124 -0.298483,0.376859 -1.537014,1.36709 -3.265576,2.231832 -5.240421,2.516448 -1.999058,0.16643 -1.501292,0.345213 1.590989,-1.696683 1.032921,0.08914 2.050308,0.267277 3.054293,0.523914 1.195705,0.376929 2.373841,0.88068 3.371497,1.654222 0.19965,0.1548 0.381932,0.330788 0.572898,0.496182 0.918809,0.972639 1.327106,2.20136 1.318768,3.527912 -0.0019,0.300171 -0.03499,0.599333 -0.05248,0.899 -0.243116,1.933241 -0.890915,3.783016 -1.436048,5.645159 -0.318224,1.102554 -0.610342,2.244695 -0.575618,3.403398 0.01974,0.65859 0.104096,0.86464 0.257386,1.49687 0.421152,1.23678 1.266003,2.26819 2.385704,2.94626 0.239105,0.1448 0.498192,0.25369 0.747287,0.38053 1.662686,0.73988 3.464712,0.89913 5.261572,0.86579 0.99187,-0.0921 0.50908,-0.0387 1.44862,-0.15757 0,0 -2.377531,1.76871 -2.377531,1.76871 l 0,0 c -0.932394,0.0932 -0.452183,0.0546 -1.440892,0.11256 -1.827704,-0.0143 -3.657226,-0.21468 -5.338617,-0.98557 -0.258221,-0.13781 -0.526662,-0.25798 -0.774663,-0.41343 -1.168319,-0.73232 -2.05045,-1.81629 -2.502176,-3.11746 -0.163637,-0.65487 -0.257575,-0.89082 -0.285628,-1.5742 -0.04859,-1.18361 0.243874,-2.356037 0.570571,-3.481784 0.540297,-1.84238 1.192703,-3.669217 1.450301,-5.579309 0.107817,-1.725063 0.04446,-2.834403 -1.161366,-4.175996 -0.183785,-0.157053 -0.358743,-0.325064 -0.551354,-0.471159 -0.9826,-0.745299 -2.149124,-1.214879 -3.324064,-1.55685 -1.029309,-0.232535 -2.069778,-0.379268 -3.124599,-0.429807 2.765891,-2.176822 1.404194,-1.680827 3.334883,-1.896667 0.438151,-0.07398 0.869175,-0.155894 1.287014,-0.313685 0.799017,-0.301739 2.6122,-1.401788 -1.65501,1.050413 -0.142243,0.08174 0.27336,-0.181474 0.41004,-0.272212 0.108313,-0.100887 0.229667,-0.189378 0.324939,-0.302662 0.564776,-0.67155 0.303673,-1.547544 -0.0027,-2.268679 -0.665043,-1.376266 -1.607744,-2.573774 -2.439431,-3.850728 -0.803509,-1.427208 -1.319124,-2.664763 -1.296568,-4.338937 0.01445,-0.255901 0.01652,-0.512802 0.04335,-0.767701 0.132975,-1.263156 0.580721,-2.488386 1.202945,-3.588552 0.132726,-0.195077 0.255035,-0.397664 0.398177,-0.585231 1.237059,-1.620985 3.17981,-2.586167 5.017323,-3.348816 0.880068,-0.234092 1.674853,-0.275871 2.563017,-0.04558 0,0 -2.536716,1.737281 -2.536716,1.737281 z"
       inkscape:connector-curvature="0"
       transform="translate(6.6292965,907.95565)" />
    <path
       style="fill:#000000;stroke-width:1.89999998000000003;stroke-miterlimit:4;stroke-dasharray:7.59999999999999964, 7.59999999999999964;stroke-dashoffset:0"
       id="path3005"
       d="m 134.06443,68.158684 c 1.95729,-1.526793 3.37536,-2.114536 5.61581,-2.235003 1.17689,0.0045 2.40148,0.111708 3.45068,0.697832 0.18178,0.101553 0.34515,0.23303 0.51773,0.349545 1.11206,1.04837 1.21924,2.043578 1.11293,3.503125 -0.28748,1.657689 -1.0116,3.197451 -1.63617,4.748239 -0.47316,1.202568 -1.08903,2.433262 -1.13162,3.753508 -0.006,0.200356 0.0264,0.400048 0.0397,0.600073 0.0552,0.180496 0.0859,0.370358 0.16553,0.541488 0.4987,1.071992 1.73922,1.386929 2.77384,1.667964 1.56735,0.332887 3.17459,0.383089 4.77121,0.399328 0.20529,0.07129 1.20329,-0.116687 1.36625,0.01365 0.0632,0.05057 0.10868,0.130589 0.12101,0.210611 0.0129,0.08409 -0.0333,0.166862 -0.05,0.250293 -1.72236,1.235585 -3.67225,2.015714 -5.51796,3.017689 3.86664,-2.272438 1.52935,-0.918583 0.77503,-0.277485 -0.47866,0.406818 -0.83538,0.863726 -1.17767,1.384344 -0.6267,1.150755 -0.4834,2.404976 -0.22656,3.635864 0.38633,1.513272 0.9583,2.972896 1.50647,4.433342 0.51562,1.457591 1.12745,2.876617 1.72841,4.300048 0.60033,1.27273 1.07208,2.59593 1.37813,3.96866 0.17506,1.09985 0.18979,2.25436 -0.13322,3.3313 -0.0576,0.19204 -0.13835,0.37635 -0.20752,0.56453 -0.29097,0.66099 -0.75449,1.20495 -1.3896,1.55717 -3.09701,1.71754 -1.94911,1.42683 -3.62163,1.76888 -1.33176,0.17041 -2.67686,0.15723 -4.01575,0.23693 -0.53883,0.0316 -1.07759,0.0639 -1.61625,0.0983 0,0 2.43204,-1.78587 2.43204,-1.78587 l 0,0 c 0.52567,-0.0195 1.05123,-0.0415 1.57647,-0.0706 1.33459,-0.067 2.68262,-0.0465 4.00018,-0.29341 1.36285,-0.38376 0.54748,-0.20638 -1.55787,1.12436 -0.1416,0.0895 0.30483,-0.14152 0.44574,-0.23211 0.44685,-0.2873 0.79965,-0.67638 1.03823,-1.14989 0.0758,-0.17783 0.16312,-0.35116 0.22738,-0.53347 0.36212,-1.02736 0.366,-2.14934 0.21407,-3.21512 -0.29717,-1.35684 -0.76138,-2.66544 -1.34688,-3.9256 -0.59271,-1.431335 -1.20322,-2.855761 -1.7189,-4.317563 -0.55491,-1.471503 -1.13106,-2.941255 -1.54646,-4.459432 -0.29744,-1.280847 -0.47139,-2.595233 0.10237,-3.83086 0.10156,-0.172768 0.1908,-0.353394 0.30468,-0.518303 1.20376,-1.7432 3.44175,-2.603562 5.13264,-3.64796 1.16692,-0.622466 5.55728,-2.878267 0.35433,-0.01473 0.0996,0.03783 0.3207,0.06935 0.27373,0.164978 -0.0205,0.0417 -0.0925,-0.0096 -0.13889,-0.01168 -0.37435,-0.01714 -0.74975,-0.01231 -1.12399,-0.03308 -1.6004,-0.05967 -3.21105,-0.134614 -4.77941,-0.483559 -1.15073,-0.330446 -2.41646,-0.713252 -2.96883,-1.893825 -0.0896,-0.191535 -0.12789,-0.403125 -0.19184,-0.604688 -0.0176,-0.218881 -0.0574,-0.437098 -0.0529,-0.656644 0.0274,-1.348662 0.64234,-2.619126 1.13603,-3.841953 0.60881,-1.524159 1.31691,-3.032657 1.6361,-4.650888 0.12476,-1.31897 0.0562,-2.277412 -0.97328,-3.216587 -0.16179,-0.104062 -0.31543,-0.222051 -0.48538,-0.312188 -1.02686,-0.544634 -2.21596,-0.621188 -3.35398,-0.587128 -0.64709,0.06094 -1.27442,0.133881 -1.89716,0.331444 -0.15923,0.05052 -0.60874,0.268492 -0.46872,0.177381 0.64602,-0.420363 3.14348,-1.869208 1.98962,-1.178089 0,0 -2.85784,1.146872 -2.85784,1.146872 z"
       inkscape:connector-curvature="0"
       transform="translate(6.6292965,907.95565)" />
    <path
       style="fill:#aa0000;stroke-width:1.89999998;stroke-miterlimit:4;stroke-dasharray:7.6, 7.6;stroke-dashoffset:0"
       id="path3007"
       d="m 106.15237,73.365533 c -0.58844,-0.08699 -1.05191,-0.401542 -1.45922,-0.816428 -0.6004,-0.673432 -0.81424,-1.552917 -0.9797,-2.416287 -0.19629,-1.185307 -0.10193,-2.3829 0.14555,-3.550846 0.36113,-1.315291 1.08718,-2.471698 1.90223,-3.548754 1.4638,-1.82637 3.50343,-2.769599 5.51296,-3.918598 1.08967,-0.519392 2.24116,-0.82881 3.44253,-0.911821 1.19178,-0.08611 2.32708,0.256868 3.41417,0.708477 1.02533,0.441404 1.95411,1.075184 2.74082,1.86384 0.73271,0.769713 1.11051,1.752778 1.44339,2.741243 0.34757,1.041058 0.3116,2.127504 0.19732,3.20263 -0.16425,1.098001 -0.45701,2.169996 -0.75743,3.236819 -0.28865,0.909432 -0.55896,1.823496 -0.8124,2.743386 -0.27815,0.970744 -0.64378,1.912971 -1.00806,2.85376 -0.45014,1.023665 -0.92117,2.039296 -1.4196,3.040403 -0.43771,0.922346 -1.02196,1.757703 -1.61489,2.584164 -0.524,0.757197 -1.046,1.515615 -1.57475,2.269528 -0.54434,0.74218 -1.14677,1.440167 -1.74797,2.136477 -0.65853,0.744085 -1.27434,1.514525 -1.76572,2.379224 -0.42672,0.717637 -0.64182,1.517615 -0.82547,2.323714 -0.16548,0.785127 -0.19548,1.588478 -0.21651,2.387836 -0.0224,0.814646 0.15442,1.585417 0.43858,2.341643 0.29789,0.823478 0.7915,1.539858 1.32516,2.225335 0.58385,0.798844 1.30433,1.47779 2.06085,2.1094 0.69581,0.575101 1.52684,0.933352 2.37364,1.222132 0.80833,0.29151 1.5821,0.14978 2.38665,-0.0573 1.0735,-0.28208 5.18836,-2.753796 0.88145,-0.27789 1.32573,-0.810782 2.61337,-1.678598 3.81674,-2.662295 0.94238,-0.791069 1.82268,-1.650136 2.62537,-2.582085 0.34857,-0.421791 0.6829,-0.855127 1.01806,-1.287587 0,0 2.82254,-1.205015 2.82254,-1.205015 l 0,0 c -0.36373,0.436786 -0.71872,0.880611 -1.07744,1.321492 -0.80316,0.960642 -1.70061,1.834241 -2.65088,2.64931 -1.19594,1.001411 -2.4793,1.878674 -3.80045,2.707375 -1.05681,0.611623 -2.11244,1.225325 -3.17045,1.834875 -0.91031,0.52445 -1.83769,1.04702 -2.85714,1.32746 -0.87866,0.19624 -1.64115,0.25331 -2.50197,-0.0757 -0.86318,-0.32708 -1.70584,-0.71771 -2.41313,-1.3238 -0.76692,-0.6513 -1.50045,-1.344474 -2.09793,-2.159116 -0.55811,-0.70551 -1.06745,-1.446837 -1.38431,-2.295947 -0.30562,-0.788364 -0.49805,-1.593588 -0.49284,-2.445638 0.0163,-0.815162 0.0382,-1.634182 0.18733,-2.438114 0.17382,-0.832531 0.38247,-1.662969 0.80406,-2.410242 0.4774,-0.889137 1.07401,-1.684973 1.7451,-2.439017 0.59892,-0.68812 1.18807,-1.38626 1.74941,-2.105235 0.5388,-0.751134 1.05908,-1.514986 1.5844,-2.275543 0.58997,-0.821634 1.19946,-1.635361 1.64615,-2.547736 0.50955,-0.986916 0.95925,-2.004342 1.42862,-3.010878 0.356,-0.932781 0.7207,-1.863355 1.00573,-2.821109 0.25975,-0.920456 0.50783,-1.843742 0.8194,-2.748507 0.30346,-1.054809 0.61944,-2.108467 0.78662,-3.196213 0.12471,-1.03113 0.18321,-2.080188 -0.14233,-3.083839 -0.31447,-0.944313 -0.66895,-1.88802 -1.3713,-2.620622 -0.77183,-0.750529 -1.66599,-1.360226 -2.66474,-1.77168 -1.07146,-0.41716 -2.1764,-0.71242 -3.33802,-0.590251 -1.17622,0.126154 -2.30599,0.45707 -3.36068,1.000713 4.19048,-2.479697 2.13088,-1.29802 1.48904,-0.851556 -0.7183,0.499652 -1.39407,1.060726 -1.95714,1.733919 -0.82146,1.036031 -1.54483,2.15214 -1.94437,3.424669 -0.26467,1.12355 -0.36321,2.282562 -0.17574,3.428756 0.15429,0.799293 0.34531,1.627672 0.92086,2.237362 0.38312,0.351975 0.82271,0.612367 1.36089,0.598454 0,0 -2.49304,1.811303 -2.49304,1.811303 z"
       inkscape:connector-curvature="0"
       transform="translate(6.6292965,907.95565)" />
    <path
       style="fill:#aa0000;stroke-width:1.89999998;stroke-miterlimit:4;stroke-dasharray:7.6, 7.6;stroke-dashoffset:0"
       id="path3009"
       d="m 115.47268,111.21735 c -0.4582,-0.34491 -1.01049,-0.54386 -1.58,-0.58036 0.29086,-0.35614 -1.06121,0.47725 -0.81485,0.34524 0.78508,-0.42068 1.53608,-0.90541 2.33532,-1.29851 0.10766,-0.0529 -0.16769,0.17248 -0.24022,0.26805 -0.0745,0.0982 -0.13306,0.20766 -0.19959,0.31149 -0.40784,0.84893 -0.42327,1.47461 0.008,2.30752 0.5717,0.67354 1.21739,0.9488 2.09034,0.85824 0.10608,-0.0316 0.21706,-0.05 0.31825,-0.0949 0.0999,-0.0443 0.37547,-0.22356 0.27996,-0.17049 -0.78735,0.43752 -1.55977,0.90225 -2.35571,1.32395 -0.0801,0.0425 0.14084,-0.11539 0.20164,-0.1827 0.14578,-0.16142 0.12502,-0.16466 0.17083,-0.35156 -0.11441,-0.60196 -0.95214,-0.86719 -1.46309,-1.00737 -0.53552,-0.0923 -1.10917,-0.20698 -1.64756,-0.0558 -0.11305,0.0317 -0.21639,0.0913 -0.32459,0.13691 0.78833,-0.44108 1.57665,-0.88216 2.36497,-1.32323 -0.72156,0.55045 0.0181,1.19484 0.48569,1.61075 1.10938,0.81261 2.00069,1.13047 3.37132,1.12089 0.16826,-0.0338 0.34247,-0.0456 0.50478,-0.1014 0.15221,-0.0523 0.57046,-0.29814 0.4299,-0.21975 -0.73666,0.41087 -1.45652,0.85545 -2.21846,1.2173 -0.11771,0.0559 0.1887,-0.18208 0.26341,-0.28884 0.18189,-0.2599 0.15468,-0.32211 0.19236,-0.61908 -0.13821,-0.83683 -0.95724,-1.07917 -1.67755,-1.25744 -0.73094,-0.14042 -1.50909,-0.24802 -2.15242,0.19641 6.53688,-3.57557 2.05865,-2.00428 2.3977,-1.01521 0.11493,0.33526 0.42439,0.52499 0.69495,0.71836 0.59421,0.32475 1.31897,0.59244 2.00382,0.3894 0.10621,-0.0315 0.19974,-0.0959 0.29961,-0.1438 -5.73718,3.01594 -2.26791,1.79015 -2.09878,0.9111 0.0564,-0.29309 -0.13516,-0.5051 -0.30029,-0.71511 -0.54948,-0.56219 -1.32809,-0.73691 -2.0776,-0.8576 -0.14434,-0.0166 -0.35324,-0.0611 -0.50397,-0.0118 -0.0468,0.0153 -0.1611,0.11279 -0.11843,0.0882 4.03625,-2.32221 1.81741,-2.12491 2.69998,-1.38835 0.58765,0.46795 1.29191,0.66857 2.01562,0.8087 0.27778,0.0135 0.39833,0.0401 0.66782,-0.0236 0.0893,-0.0211 0.33787,-0.14071 0.25835,-0.0949 -0.8167,0.45209 -1.63339,0.90419 -2.45009,1.35628 0.0401,-0.0376 0.0922,-0.0656 0.12038,-0.11286 0.0296,-0.0497 0.0311,-0.11153 0.0466,-0.16729 -0.12582,-0.73166 -0.80141,-1.13303 -1.42509,-1.41054 -0.53885,-0.19123 -1.21908,-0.54168 -1.80077,-0.28266 -0.066,0.0294 -0.11581,0.0864 -0.17372,0.1296 0.83545,-0.47229 1.65858,-0.96705 2.50634,-1.41685 0.033,-0.0175 -0.0405,0.069 -0.0358,0.10607 0.008,0.0664 0.0365,0.13091 0.0729,0.18715 0.20438,0.31658 0.56929,0.51285 0.8738,0.71255 0.88002,0.47945 1.83258,0.72355 2.82664,0.77914 0.11379,-0.0108 0.23085,-0.003 0.34139,-0.0325 0.0889,-0.0234 0.16465,-0.0817 0.24697,-0.12257 -0.81989,0.4567 -1.63315,0.92552 -2.45967,1.37012 -0.0423,0.0228 0.0816,-0.0584 0.10205,-0.1019 0.0646,-0.13783 -0.0343,-0.21549 -0.10211,-0.32458 -0.60958,-0.65222 -1.54395,-0.75318 -2.38404,-0.86356 -0.54722,-0.01 -0.29121,-0.0302 -0.76919,0.0449 0,0 2.44359,-1.80785 2.44359,-1.80785 l 0,0 c 0.48988,-0.009 0.22841,-0.0157 0.78406,0.0314 0.92703,0.15242 1.90748,0.31778 2.56173,1.05694 0.0638,0.0978 0.14372,0.18675 0.19131,0.29336 0.0256,0.0573 0.14179,0.44794 0.0185,0.52924 -1.45542,0.95978 -2.04006,1.73106 -3.43398,1.68221 -1.01836,-0.11603 -2.00458,-0.40566 -2.90288,-0.90876 -0.43813,-0.28961 -0.96433,-0.59174 -1.14429,-1.12246 -0.0301,-0.0887 -0.12199,-0.22076 -0.0471,-0.277 0.85629,-0.64299 1.8074,-1.14892 2.7111,-1.72337 0.72902,-0.16859 1.4254,0.10947 2.08934,0.39803 0.73872,0.36893 1.41912,0.86595 1.64906,1.70162 0.005,0.0949 0.0257,0.19031 0.0152,0.2848 -0.009,0.0833 -0.003,0.19504 -0.0735,0.24043 -1.59596,1.02842 -2.24699,1.86402 -3.8111,1.61662 -0.76643,-0.18062 -1.51094,-0.43262 -2.13887,-0.92605 -0.0672,-0.0675 -0.1457,-0.12534 -0.20148,-0.20251 -0.86855,-1.20152 2.09965,-2.17579 3.22394,-1.83462 0.8049,0.17507 1.61667,0.42189 2.19716,1.04094 0.0776,0.1 0.16596,0.19243 0.23285,0.29984 1.01257,1.62604 -2.01872,2.53383 -2.84236,2.92838 -0.87023,0.20043 -1.70585,-0.0231 -2.45577,-0.49626 -0.40728,-0.30387 -0.86792,-0.65437 -0.92073,-1.2071 -0.009,-0.0976 -0.0576,-0.23536 0.0215,-0.29333 0.87185,-0.63926 1.82779,-1.15513 2.74168,-1.73269 0.73796,-0.26783 1.4998,-0.1694 2.25082,0.0107 0.86728,0.255 1.69932,0.62994 1.90629,1.59879 7.5e-4,0.13544 0.0237,0.27259 0.002,0.40634 -0.0275,0.1717 -0.21692,0.65122 -0.36776,0.75206 -0.95033,0.63534 -1.94724,1.19931 -2.94425,1.75857 -0.1438,0.0807 -0.30796,0.12238 -0.46932,0.15627 -0.17252,0.0362 -0.3508,0.0352 -0.52621,0.0528 -0.19388,-0.0107 -0.38888,-0.009 -0.58166,-0.0322 -1.07481,-0.12998 -2.04973,-0.62436 -2.91194,-1.2595 -0.47646,-0.42332 -1.22688,-1.09432 -0.95176,-1.83532 0.0354,-0.0953 0.11144,-0.17015 0.16716,-0.25523 2.44965,-1.39379 2.65023,-2.09152 4.94389,-1.55842 0.69611,0.23487 1.49598,0.56061 1.7097,1.33616 0.008,0.26901 -0.0161,0.61237 -0.28199,0.78141 -1.06788,0.67898 -2.19308,1.68665 -3.52217,1.85727 -0.94963,-0.0336 -1.67128,-0.39595 -2.26409,-1.15011 -0.48979,-0.93415 -0.51931,-1.5781 -0.15336,-2.57252 0.71427,-1.41043 1.26669,-1.23796 3.23659,-2.42724 0.28778,-0.17374 0.60831,-0.22386 0.93802,-0.19391 0.60237,0.1088 1.16283,0.33745 1.6804,0.66653 0,0 -2.58802,1.6745 -2.58802,1.6745 z"
       inkscape:connector-curvature="0"
       transform="translate(6.6292965,907.95565)" />
  </g>
</svg>
