<?xml version="1.0" encoding="UTF-8" standalone="no"?>
<!-- Created with Inkscape (http://www.inkscape.org/) -->

<svg
   xmlns:dc="http://purl.org/dc/elements/1.1/"
   xmlns:cc="http://creativecommons.org/ns#"
   xmlns:rdf="http://www.w3.org/1999/02/22-rdf-syntax-ns#"
   xmlns:svg="http://www.w3.org/2000/svg"
   xmlns="http://www.w3.org/2000/svg"
   xmlns:sodipodi="http://sodipodi.sourceforge.net/DTD/sodipodi-0.dtd"
   xmlns:inkscape="http://www.inkscape.org/namespaces/inkscape"
   width="160"
   height="123.95"
   id="svg2"
   version="1.1"
   inkscape:version="0.48.3.1 r9886"
   inkscape:export-filename="integral.png"
   inkscape:export-xdpi="150"
   inkscape:export-ydpi="150"
   sodipodi:docname="df.svg">
  <defs
     id="defs4" />
  <sodipodi:namedview
     id="base"
     pagecolor="#9fffa7"
     bordercolor="#666666"
     borderopacity="1.0"
     inkscape:pageopacity="0"
     inkscape:pageshadow="2"
     inkscape:zoom="4.8164584"
     inkscape:cx="80"
     inkscape:cy="61.974998"
     inkscape:document-units="px"
     inkscape:current-layer="layer1"
     showgrid="false"
     inkscape:window-width="1231"
     inkscape:window-height="776"
     inkscape:window-x="49"
     inkscape:window-y="24"
     inkscape:window-maximized="1"
     fit-margin-top="0"
     fit-margin-left="0"
     fit-margin-right="0"
     fit-margin-bottom="0"
     showguides="true"
     inkscape:guide-bbox="true">
    <sodipodi:guide
       orientation="0,1"
       position="109.62412,63.532159"
       id="guide4800" />
  </sodipodi:namedview>
  <metadata
     id="metadata7">
    <rdf:RDF>
      <cc:Work
         rdf:about="">
        <dc:format>image/svg+xml</dc:format>
        <dc:type
           rdf:resource="http://purl.org/dc/dcmitype/StillImage" />
        <dc:title></dc:title>
      </cc:Work>
    </rdf:RDF>
  </metadata>
  <g
     inkscape:label="Layer 1"
     inkscape:groupmode="layer"
     id="layer1"
     transform="translate(-6.6292965,-907.95565)">
    <path
       style="fill:#000000;fill-opacity:1;stroke:#050101;stroke-width:1.10000002;stroke-miterlimit:0.30000001;stroke-opacity:1;stroke-dasharray:none"
       id="path4992"
       d="m 31.049569,20.417541 c 0.268815,-0.752028 0.247797,-1.513765 0.0742,-2.281101 -0.264643,-0.897023 -0.586923,-1.3185 -1.491068,-1.596681 -0.432754,-0.112123 -0.851345,-0.07164 -1.270463,0.07767 -0.153717,0.05476 -0.587655,0.282166 -0.447293,0.198943 2.66095,-1.577718 2.669995,-1.624145 1.655163,-0.82355 -1.316628,1.33742 -1.521046,2.799693 -1.657968,4.598091 -0.0944,2.745518 0.487435,5.43921 1.202724,8.071509 0.536802,1.983286 1.288426,3.897118 1.960637,5.835782 0.4187,1.207535 0.573709,1.723317 0.959981,2.939769 0.798634,2.535059 1.414237,5.119014 1.79868,7.748188 0.148005,1.096154 0.22953,2.199025 0.288528,3.302944 0,0 -2.642542,1.358752 -2.642542,1.358752 l 0,0 C 31.457376,48.738736 31.416293,47.629287 31.28975,46.526212 30.959257,43.8958 30.384418,41.309563 29.594938,38.777263 29.236677,37.641817 29.033579,36.97082 28.643646,35.844702 27.970164,33.899699 27.204874,31.984315 26.664614,29.995024 25.926427,27.350773 25.313475,24.646912 25.334539,21.88477 c 0.08025,-1.794324 0.248976,-3.358935 1.468385,-4.769386 1.242151,-1.171664 0.521443,-0.555973 3.477737,-2.155638 0.565683,-0.306094 1.263835,-0.279592 1.860153,-0.112208 0.961944,0.396751 1.342321,0.859152 1.644278,1.855375 0.190235,0.797678 0.253049,1.591747 0.04257,2.39517 0,0 -2.77809,1.319458 -2.77809,1.319458 z"
       inkscape:connector-curvature="0"
       transform="translate(6.6292965,907.95565)" />
    <path
       style="fill:#000000;fill-opacity:1;stroke:#050101;stroke-width:1.10000002;stroke-miterlimit:0.30000001;stroke-opacity:1;stroke-dasharray:none"
       id="path4994"
       d="m 24.676941,34.868327 c 1.954034,-0.604844 3.97706,-0.936748 5.98603,-1.29877 1.744805,-0.295627 3.495982,-0.55121 5.244625,-0.822755 0,0 -2.172579,1.630741 -2.172579,1.630741 l 0,0 c -1.765847,0.280057 -3.534516,0.544759 -5.292992,0.869042 -2.075181,0.399766 -4.186527,0.756601 -6.164732,1.523424 0,0 2.399648,-1.901682 2.399648,-1.901682 z"
       inkscape:connector-curvature="0"
       transform="translate(6.6292965,907.95565)" />
    <path
       style="fill:#000000;fill-opacity:1;stroke:#050101;stroke-width:1.10000002;stroke-miterlimit:0.30000001;stroke-opacity:1;stroke-dasharray:none"
       id="path4996"
       d="m 58.402691,18.428008 c -0.814829,0.559988 -2.514909,0.971988 1.253582,-0.69476 0.276925,-0.12248 -0.491796,0.353853 -0.728228,0.543032 -0.813095,0.65059 -0.978368,0.846622 -1.762485,1.600139 -1.93857,2.023948 -3.635598,4.292742 -4.864275,6.820091 -0.25315,0.520723 -0.461788,1.061933 -0.692682,1.592899 -0.726861,1.968078 -1.120606,4.057608 -0.796946,6.153123 0.205853,1.332786 0.387978,1.562361 0.900542,2.802826 1.289964,2.485765 3.36635,4.344193 5.719318,5.80618 0.503844,0.313057 1.02896,0.590505 1.543439,0.885758 0,0 -2.289573,1.487316 -2.289573,1.487316 l 0,0 c -0.519307,-0.299698 -1.049201,-0.581755 -1.55792,-0.899093 -2.399741,-1.496954 -4.514525,-3.388148 -5.849063,-5.916329 -0.538719,-1.278791 -0.724802,-1.503061 -0.94315,-2.879524 -0.339748,-2.141766 0.04817,-4.281067 0.784238,-6.29719 0.230885,-0.53913 0.440202,-1.088015 0.692654,-1.617389 1.201756,-2.519994 2.847378,-4.800229 4.728902,-6.853732 0.762702,-0.772066 0.883493,-0.930794 1.672371,-1.601374 0.222175,-0.188858 0.437807,-0.389077 0.683966,-0.545395 1.027594,-0.652548 2.083992,-1.258664 3.132024,-1.877856 0.401644,-0.237297 0.424969,-0.231943 0.810159,-0.384997 0,0 -2.436873,1.876275 -2.436873,1.876275 z"
       inkscape:connector-curvature="0"
       transform="translate(6.6292965,907.95565)" />
    <path
       style="fill:#000000;fill-opacity:1;stroke:#050101;stroke-width:1.10000002;stroke-miterlimit:0.30000001;stroke-opacity:1;stroke-dasharray:none"
       id="path4998"
       d="m 72.042914,31.906162 c 1.387189,1.123243 2.913751,2.060901 4.416267,3.019198 1.613311,1.03143 3.230446,2.056836 4.843901,3.088035 0,0 -2.36604,1.520256 -2.36604,1.520256 l 0,0 C 77.329746,38.490794 75.713658,37.4615 74.081786,36.457403 72.522503,35.501738 70.94951,34.565647 69.437684,33.53532 c 0,0 2.60523,-1.629158 2.60523,-1.629158 z"
       inkscape:connector-curvature="0"
       transform="translate(6.6292965,907.95565)" />
    <path
       style="fill:#000000;fill-opacity:1;stroke:#050101;stroke-width:1.10000002;stroke-miterlimit:0.30000001;stroke-opacity:1;stroke-dasharray:none"
       id="path5000"
       d="m 80.437475,32.968357 c -0.88458,0.448678 -2.487874,1.08626 1.476615,-0.881963 0.203536,-0.101047 -0.368371,0.266569 -0.544903,0.409655 -0.539122,0.436983 -0.740022,0.651452 -1.249919,1.140807 -1.6401,1.629992 -3.00693,3.500343 -4.202718,5.472261 -0.756579,1.399036 -0.40811,0.697492 -1.049569,2.102561 0,0 -2.607537,1.191597 -2.607537,1.191597 l 0,0 c 0.645831,-1.432114 0.296316,-0.718452 1.051901,-2.139339 1.170097,-1.975335 2.509648,-3.851755 4.104759,-5.510239 0.542519,-0.545491 0.636084,-0.658438 1.196681,-1.152557 0.166637,-0.146876 0.321671,-0.31122 0.510223,-0.428647 0.998717,-0.62198 2.024027,-1.200379 3.044847,-1.785378 0.216691,-0.124179 0.469478,-0.216649 0.70234,-0.308729 0,0 -2.43272,1.889971 -2.43272,1.889971 z"
       inkscape:connector-curvature="0"
       transform="translate(6.6292965,907.95565)" />
    <path
       style="fill:#000000;fill-opacity:1;stroke:#050101;stroke-width:1.10000002;stroke-miterlimit:0.30000001;stroke-opacity:1;stroke-dasharray:none"
       id="path5002"
       d="m 91.031835,42.076511 c -0.408591,1.220957 -0.717142,2.473073 -0.988455,3.730696 -0.204197,0.856654 -0.242777,1.723711 -0.246431,2.598738 0,0 -2.610211,1.329985 -2.610211,1.329985 l 0,0 c -0.0037,-0.891693 0.02408,-1.776573 0.220444,-2.652118 0.2417,-1.238183 0.537263,-2.464867 0.846563,-3.687843 0,0 2.77809,-1.319458 2.77809,-1.319458 z"
       inkscape:connector-curvature="0"
       transform="translate(6.6292965,907.95565)" />
    <path
       style="fill:#000000;fill-opacity:1;stroke:#050101;stroke-width:1.10000002;stroke-miterlimit:0.30000001;stroke-opacity:1;stroke-dasharray:none"
       id="path5004"
       d="m 100.98655,40.595556 c 0.0567,-1.204509 0.18026,-2.405056 0.3153,-3.602962 0.0829,-0.593101 0.12599,-1.191058 0.19712,-1.785438 0.007,-0.0548 0.0689,-0.503923 0.0889,-0.515984 0.89577,-0.539968 1.83569,-1.003049 2.75353,-1.504573 0.0538,0.09822 0.11678,0.191925 0.16133,0.294661 0.0728,0.167997 0.22112,0.686941 0.26934,0.834827 0.18536,0.568551 0.39423,1.117825 0.6382,1.663505 0.35208,0.639987 0.92058,1.541036 1.7857,1.457209 0.12845,-0.01245 0.24612,-0.07772 0.36918,-0.116575 1.33737,-0.800777 -1.00714,0.609753 -1.84805,0.987193 -0.15445,0.06932 0.24103,-0.238583 0.34898,-0.368994 0.33817,-0.408525 0.58542,-0.871653 0.82466,-1.34112 0.82074,-1.744293 0.76737,-1.587851 3.47571,-2.623446 0.11764,-0.04498 0.17965,0.176574 0.26948,0.26486 0.99486,1.550873 1.64604,3.368344 2.31587,5.078548 1.26402,3.207885 2.26121,6.510423 3.30551,9.793714 1.05947,3.485026 2.20013,6.944121 3.2261,10.439306 0.51537,2.121407 1.35504,4.374849 1.34896,6.585266 -8.1e-4,0.293587 -0.0482,0.585196 -0.0723,0.877794 -0.0684,0.24308 -0.10757,0.496344 -0.20515,0.729242 -0.0867,0.206944 -0.19886,0.407246 -0.34307,0.579142 -0.13938,0.166135 -0.30657,0.315409 -0.49599,0.421 -1.0515,0.586175 -2.09948,1.192246 -3.21405,1.647203 -0.31919,0.130287 -1.43729,-0.116599 -1.70539,-0.163567 -1.97483,-0.563878 -3.76554,-1.635699 -5.35306,-2.925424 -0.36251,-0.294515 -0.70037,-0.618156 -1.05055,-0.927234 -1.5816,-1.521164 -3.03094,-3.264268 -3.91216,-5.295832 -0.14936,-0.344335 -0.25534,-0.705905 -0.38301,-1.058858 -0.37947,-1.317907 -0.43681,-2.690114 0.17331,-3.952972 0.39839,-0.824613 0.69661,-1.073314 1.29604,-1.765568 1.22292,-1.123983 0.57604,-0.581715 1.94594,-1.620473 0,0 2.63513,-1.047143 2.63513,-1.047143 l 0,0 c -1.35821,0.996062 -0.71608,0.476303 -1.93164,1.552766 -0.59689,0.646338 -0.89567,0.883844 -1.30988,1.657441 -0.63995,1.195209 -0.6347,2.501986 -0.29185,3.784605 0.11724,0.345465 0.21277,0.699076 0.35172,1.036394 0.83023,2.015458 2.25335,3.735455 3.81755,5.222522 0.34705,0.301614 0.68129,0.618637 1.04117,0.904841 1.58295,1.258919 3.37853,2.289405 5.35859,2.752304 0.2955,0.03356 0.58917,0.0947 0.88651,0.100685 0.26139,0.0053 0.96062,-0.2575 0.78146,-0.0671 -0.52167,0.554379 -1.27629,0.830313 -1.90437,1.260422 -0.17349,0.118807 0.3834,-0.185766 0.53999,-0.326094 0.42243,-0.378546 0.457,-0.679847 0.6497,-1.19847 0.0406,-0.284119 0.10616,-0.565777 0.12167,-0.852357 0.11805,-2.180852 -0.69845,-4.500931 -1.18466,-6.596507 -0.99065,-3.504865 -2.13575,-6.962035 -3.19917,-10.445121 -1.04815,-3.268451 -2.0563,-6.556742 -3.38146,-9.72695 -0.46715,-1.101619 -0.93566,-2.199196 -1.47666,-3.267218 -0.17843,-0.352234 -0.46252,-0.895488 -0.69926,-1.237708 -0.0796,-0.115076 -0.17718,-0.216624 -0.26577,-0.324935 -1.03967,-0.549092 -0.23221,-0.05544 2.30463,-1.581698 0.0572,-0.03444 -0.128,0.04832 -0.17738,0.09333 -0.281,0.256159 -0.34818,0.679458 -0.55394,0.983477 -0.9643,2.048675 -1.96974,2.930503 -4.47751,3.784437 -0.14355,0.0081 -0.28775,0.04003 -0.43064,0.02417 -0.92612,-0.102802 -1.50734,-0.977935 -1.90479,-1.721775 -0.36788,-0.820361 -0.64702,-1.681212 -1.01651,-2.495884 0.86253,-0.514445 1.71232,-1.050886 2.5876,-1.543335 0.0498,-0.028 -0.075,0.08871 -0.0963,0.141693 -0.0424,0.105351 -0.0706,0.21644 -0.0926,0.327853 -0.11743,0.595349 -0.13947,1.208874 -0.24274,1.806378 -0.14039,1.165114 -0.25845,2.343161 -0.22334,3.517594 0,0 -2.74163,1.39693 -2.74163,1.39693 z"
       inkscape:connector-curvature="0"
       transform="translate(6.6292965,907.95565)" />
    <path
       style="fill:#000000;fill-opacity:1;stroke:#050101;stroke-width:1.10000002;stroke-miterlimit:0.30000001;stroke-opacity:1;stroke-dasharray:none"
       id="path5006"
       d="m 122.25698,20.926689 c 1.10063,1.814927 2.10758,3.68097 3.0584,5.578021 1.36179,2.835739 2.53259,5.776899 3.24512,8.847841 0.14861,0.640499 0.25832,1.289406 0.38747,1.934109 0.42867,2.535079 0.53773,5.111579 0.2769,7.670547 -0.0612,0.600096 -0.16373,1.195249 -0.24559,1.792873 0,0 -2.44689,1.203317 -2.44689,1.203317 l 0,0 c 0.0884,-0.59385 0.19814,-1.184912 0.26519,-1.781548 0.2853,-2.538439 0.19545,-5.097013 -0.2242,-7.615641 -0.12758,-0.639367 -0.23598,-1.282864 -0.38275,-1.918103 -0.70468,-3.04996 -1.87273,-5.971396 -3.27335,-8.764055 -0.98401,-1.856821 -2.01178,-3.702759 -3.30423,-5.367129 0,0 2.64393,-1.580232 2.64393,-1.580232 z"
       inkscape:connector-curvature="0"
       transform="translate(6.6292965,907.95565)" />
    <path
       style="fill:#000000;fill-opacity:1;stroke:#050101;stroke-width:1.10000002;stroke-miterlimit:0.30000001;stroke-opacity:1;stroke-dasharray:none"
       id="path5008"
       d="m 20.942669,88.441075 c 0.90532,1.599913 2.022042,3.067927 3.127236,4.532471 1.600226,2.084329 3.303504,4.096713 5.155111,5.962377 0,0 -2.443509,1.493237 -2.443509,1.493237 l 0,0 c -1.825501,-1.903192 -3.513443,-3.936472 -5.140156,-6.010947 -1.1363,-1.459678 -2.273785,-2.918908 -3.352509,-4.422076 0,0 2.653827,-1.555062 2.653827,-1.555062 z"
       inkscape:connector-curvature="0"
       transform="translate(6.6292965,907.95565)" />
    <path
       style="fill:#000000;fill-opacity:1;stroke:#050101;stroke-width:1.10000002;stroke-miterlimit:0.30000001;stroke-opacity:1;stroke-dasharray:none"
       id="path5010"
       d="m 28.089962,89.64216 c -1.228033,0.656741 1.229636,-0.744875 1.879448,-1.049 0.203473,-0.09523 -0.354537,0.276793 -0.520018,0.428735 -0.736824,0.676538 -1.324698,1.469182 -1.927339,2.262154 -1.634122,2.294409 -3.096436,4.706262 -4.494353,7.149995 -0.592638,1.021148 -1.11884,2.076256 -1.622728,3.142966 0,0 -2.631447,1.19542 -2.631447,1.19542 l 0,0 c 0.529361,-1.08186 1.079085,-2.15281 1.686004,-3.193956 1.396058,-2.432406 2.851395,-4.833523 4.424582,-7.156032 1.64717,-2.274947 2.705411,-3.551496 5.642723,-4.656556 0,0 -2.436872,1.876274 -2.436872,1.876274 z"
       inkscape:connector-curvature="0"
       transform="translate(6.6292965,907.95565)" />
    <path
       style="fill:#000000;fill-opacity:1;stroke:#050101;stroke-width:1.10000002;stroke-miterlimit:0.30000001;stroke-opacity:1;stroke-dasharray:none"
       id="path5012"
       d="m 46.007048,96.875879 c 0.0097,1.538355 0.13983,3.074245 0.291959,4.604171 0.114353,1.40247 0.427728,2.76935 0.81088,4.11874 0,0 -2.541514,1.38403 -2.541514,1.38403 l 0,0 c -0.380805,-1.36589 -0.703797,-2.74618 -0.832146,-4.16251 -0.172243,-1.51507 -0.301884,-3.034193 -0.466058,-4.549921 0,0 2.736879,-1.39451 2.736879,-1.39451 z"
       inkscape:connector-curvature="0"
       transform="translate(6.6292965,907.95565)" />
    <path
       style="fill:#000000;fill-opacity:1;stroke:#050101;stroke-width:1.10000002;stroke-miterlimit:0.30000001;stroke-opacity:1;stroke-dasharray:none"
       id="path5014"
       d="m 53.403772,94.078524 c -0.430722,-0.960242 -0.608893,-1.992811 -0.626619,-3.038332 0.134412,-1.509168 0.858757,-1.339695 2.993406,-2.183343 0.126588,-0.05003 1.059859,1.094736 1.136225,1.187804 0.911788,1.107755 1.790741,2.28465 2.971624,3.126392 0.213437,0.152139 0.444574,0.277777 0.666861,0.416666 0.548213,0.266138 1.147624,0.523091 1.770076,0.343796 0.174525,-0.05027 0.648107,-0.327856 0.489196,-0.239916 -2.353403,1.302344 -2.650137,1.680509 -1.687683,0.715335 0.625573,-0.817753 0.948536,-1.797387 1.165052,-2.791081 0.244356,-1.286896 -1.951831,-0.079 2.841473,-1.47604 0.111627,-0.03253 0.03751,0.229503 0.05477,0.344487 0.140836,0.938402 0.0087,0.152162 0.206984,1.262478 0.465056,2.515494 1.257618,4.949002 2.092728,7.3612 1.061459,3.02957 2.37014,5.96277 3.693439,8.88466 0.795295,1.77645 1.679557,3.51766 2.392759,5.33029 0.392844,0.99843 0.464287,1.2905 0.774386,2.28967 0.253222,1.10612 0.561292,2.34125 0.128165,3.45079 -0.230012,0.58923 -0.378741,0.63524 -0.826095,1.05515 -1.06376,0.59362 -2.094777,1.25016 -3.19128,1.78087 -0.24664,0.11937 -0.534921,0.1254 -0.807383,0.1545 -1.352709,0.14447 -2.644437,-0.23385 -3.917922,-0.63438 -1.705684,-0.68384 -3.340392,-1.65962 -4.548893,-3.06978 -0.221348,-0.25828 -0.407441,-0.5448 -0.611162,-0.81721 -0.876181,-1.35967 -1.217782,-2.91596 -0.872079,-4.50744 0.06665,-0.30685 0.176936,-0.60256 0.265403,-0.90385 0.77499,-1.98614 2.169432,-3.2858 3.828939,-4.54256 0,0 2.685577,-1.06638 2.685577,-1.06638 l 0,0 c -1.624763,1.18021 -3.08139,2.46961 -3.878125,4.36399 -0.09432,0.28831 -0.210259,0.57043 -0.282951,0.86494 -0.373588,1.51359 -0.08128,3.00376 0.747037,4.31236 0.195231,0.26282 0.37354,0.53911 0.585693,0.78847 1.176705,1.38312 2.77934,2.32172 4.461796,2.95187 1.263278,0.36532 2.547839,0.71135 3.874175,0.47884 0.267579,-0.0469 0.990661,-0.39399 0.786013,-0.21533 -0.556546,0.48585 -1.254257,0.78105 -1.881385,1.17158 0.462021,-0.32951 0.641283,-0.3729 0.907728,-0.89692 0.525407,-1.03334 0.23947,-2.27683 0.02909,-3.34384 -0.292647,-1.03401 -0.331743,-1.25114 -0.72098,-2.28538 -0.685746,-1.82211 -1.555076,-3.5701 -2.34362,-5.34796 -1.315457,-2.93353 -2.632399,-5.87042 -3.713296,-8.90071 -0.858235,-2.403785 -1.683062,-4.822438 -2.264719,-7.310906 -0.05645,-0.236275 -0.112904,-0.472549 -0.169357,-0.708824 -0.038,-0.171313 -0.07386,-0.343113 -0.113994,-0.513939 -0.02374,-0.101066 -0.164357,-0.244601 -0.07761,-0.30163 0.867501,-0.570283 1.849592,-0.944907 2.7527,-1.456938 0.02911,-0.0165 -0.05821,-0.0796 -0.08273,-0.05684 -0.04931,0.04577 -0.04179,0.127891 -0.06269,0.191836 -0.256763,1.02942 -0.576801,2.054387 -1.155256,2.954121 -1.100756,1.331491 -0.445652,0.645903 -3.421273,2.288684 -0.32565,0.179784 -0.77027,0.200421 -1.125768,0.140972 -0.520593,-0.08706 -0.781986,-0.26622 -1.253272,-0.502864 -0.224376,-0.150483 -0.457357,-0.288868 -0.673128,-0.451449 -1.172006,-0.88309 -2.063735,-2.061809 -3.033502,-3.147437 -0.209964,-0.229305 -0.534833,-0.618945 -0.810378,-0.807253 -0.07492,-0.0512 -0.325638,-0.04642 -0.252913,-0.100686 0.760648,-0.567587 1.608717,-1.007469 2.413076,-1.511204 -0.05759,0.04987 -0.139138,0.08125 -0.172783,0.149602 -0.05578,0.11332 -0.05524,0.246495 -0.08286,0.369743 -0.0425,0.991112 0.109382,1.982931 0.614903,2.853219 0,0 -2.667563,1.546107 -2.667563,1.546107 z"
       inkscape:connector-curvature="0"
       transform="translate(6.6292965,907.95565)" />
    <path
       style="fill:#000000;fill-opacity:1;stroke:#050101;stroke-width:1.10000002;stroke-miterlimit:0.30000001;stroke-opacity:1;stroke-dasharray:none"
       id="path5016"
       d="m 89.922361,90.138829 c -0.526914,-0.09065 -1.069979,-0.105464 -1.595913,3.55e-4 0.884851,-0.595383 1.737768,-1.241221 2.654554,-1.78615 0.09306,-0.05531 0.216139,0.01485 0.32439,0.01549 0.175909,0.001 0.351924,-0.002 0.527633,-0.01045 0.8258,-0.03967 1.649455,-0.144359 2.47183,-0.224873 1.337435,-0.150991 0.666322,-0.07702 2.013346,-0.221837 0,0 -2.323904,1.727144 -2.323904,1.727144 l 0,0 c -1.351317,0.148341 -0.676105,0.07194 -2.025636,0.229193 -0.850006,0.09296 -1.700634,0.208094 -2.554731,0.257679 -1.853408,0.107599 -1.115813,-0.01392 1.385776,-1.828533 0.5477,-0.01909 1.093282,-0.0087 1.637105,0.06908 0,0 -2.51445,1.772894 -2.51445,1.772894 z"
       inkscape:connector-curvature="0"
       transform="translate(6.6292965,907.95565)" />
    <path
       style="fill:#000000;fill-opacity:1;stroke:#050101;stroke-width:1.10000002;stroke-miterlimit:0.30000001;stroke-opacity:1;stroke-dasharray:none"
       id="path5018"
       d="m 88.447091,94.77389 c 1.770828,-0.319941 3.53284,-0.686407 5.300837,-1.022321 0.416942,-0.06802 0.833883,-0.136041 1.250824,-0.204061 0,0 -2.271241,1.70829 -2.271241,1.70829 l 0,0 c -0.417305,0.07133 -0.834609,0.142654 -1.251914,0.213981 -1.833454,0.360742 -3.656991,0.766532 -5.488894,1.133624 0,0 2.460388,-1.829513 2.460388,-1.829513 z"
       inkscape:connector-curvature="0"
       transform="translate(6.6292965,907.95565)" />
    <path
       style="fill:#000000;fill-opacity:1;stroke:#050101;stroke-width:1.10000002;stroke-miterlimit:0.30000001;stroke-opacity:1;stroke-dasharray:none"
       id="path5024"
       d="m 113.60378,84.434382 c -0.39914,-0.282948 -0.80705,-0.69384 -0.84129,-1.214965 -0.009,-0.136195 0.0221,-0.272077 0.0332,-0.408116 0.056,-0.144903 0.0935,-0.298409 0.16802,-0.434709 0.41979,-0.767639 1.24779,-1.339504 1.98553,-1.764423 1.07327,-0.61817 2.15912,-1.214216 3.23868,-1.821324 1.18113,-0.508002 2.4746,-0.750274 3.75796,-0.5709 0.21637,0.03024 0.42746,0.09049 0.64119,0.135734 1.01476,0.345097 1.78694,1.070932 2.13167,2.095685 0.0708,0.210448 0.10897,0.430498 0.16346,0.645747 0.27935,1.682314 -0.27682,3.297854 -0.86196,4.850596 -0.8237,1.920291 -1.86526,3.739064 -2.89825,5.552486 -0.68251,1.2281 -1.34319,2.476888 -1.81378,3.804675 -0.24881,0.70204 -0.27722,0.916257 -0.43948,1.625501 -0.14057,0.907192 -0.19079,1.960834 0.37771,2.750646 0.0842,0.117037 0.19796,0.209737 0.29694,0.314606 1.03709,0.732719 2.0441,0.484479 3.17006,0.123589 0.25137,-0.10874 0.50616,-0.209878 0.7541,-0.326201 0.27558,-0.129283 0.54825,-0.265158 0.8158,-0.410313 0.29473,-0.159903 1.16774,-0.659279 0.87031,-0.504459 -0.52936,0.275542 -1.0135,0.642464 -1.56649,0.866836 -0.33661,0.136576 0.60974,-0.395161 0.90954,-0.600288 0.29449,-0.201489 0.58204,-0.412925 0.87306,-0.619388 0,0 2.68219,-1.059697 2.68219,-1.059697 l 0,0 c -0.50076,0.361312 -1.24731,0.914713 -1.77475,1.235852 -1.11669,0.679903 -2.2469,1.337398 -3.37512,1.997988 -0.80892,0.47364 -1.63973,0.91356 -2.52675,1.22433 -1.32004,0.36685 -2.26079,0.51745 -3.40979,-0.36662 -0.10987,-0.12651 -0.23503,-0.24122 -0.32961,-0.37954 -0.59325,-0.86768 -0.5744,-1.981773 -0.4148,-2.972357 0.16446,-0.721563 0.19953,-0.968 0.45241,-1.681338 0.47599,-1.342631 1.13713,-2.610611 1.82525,-3.853828 1.01951,-1.796333 2.04177,-3.599992 2.8733,-5.492589 0.57552,-1.489911 1.14342,-3.041334 0.89209,-4.664467 -0.0497,-0.200113 -0.0846,-0.404482 -0.14904,-0.60034 -0.31023,-0.942834 -1.02697,-1.5803 -1.97025,-1.853932 -0.20348,-0.03646 -0.40499,-0.08657 -0.61045,-0.109376 -1.25843,-0.139656 -2.50571,0.145831 -3.64142,0.681402 0.60227,-0.361558 1.20489,-0.72253 1.80681,-1.084674 0.2163,-0.130139 -0.43932,0.249553 -0.64997,0.388658 -0.4836,0.319357 -0.998,0.707143 -1.33762,1.186472 -0.077,0.108687 -0.12717,0.234097 -0.19075,0.351146 -0.0241,0.101997 -0.0675,0.20129 -0.0724,0.30599 -0.0211,0.453444 0.39275,0.783918 0.74332,0.981007 0,0 -2.58864,1.674898 -2.58864,1.674898 z"
       inkscape:connector-curvature="0"
       transform="translate(6.6292965,907.95565)" />
    <path
       style="fill:#000000;fill-opacity:1;stroke:#050101;stroke-width:1.10000002;stroke-miterlimit:0.30000001;stroke-opacity:1;stroke-dasharray:none"
       id="path5026"
       d="m 117.97018,111.48247 c -0.25362,-0.50405 -0.53896,-1.0373 -1.05126,-1.31169 -0.0572,-0.007 -0.11564,-0.0364 -0.17161,-0.0224 -0.0545,0.0136 -0.18545,0.12579 -0.13599,0.0993 0.82611,-0.44325 1.62885,-0.93069 2.46731,-1.3501 0.0812,-0.0406 -0.13026,0.12862 -0.17875,0.20531 -0.1507,0.23834 -0.18168,0.43557 -0.25776,0.70749 -0.11477,0.66619 -0.24787,1.47694 0.16111,2.07986 0.0595,0.0877 0.14737,0.15232 0.22106,0.22848 0.0946,0.0276 0.18542,0.076 0.28369,0.0829 0.69107,0.049 3.95515,-1.76748 -1.51256,1.05547 -0.14064,0.0726 0.26268,-0.17874 0.37897,-0.28612 0.11876,-0.10965 0.21522,-0.24123 0.32283,-0.36185 0.29517,-0.45159 0.75392,-1.23504 0.28353,-1.74447 -0.0633,-0.0686 -0.15635,-0.10213 -0.23452,-0.15319 -0.53291,-0.14658 -1.08334,0.006 -1.57007,0.2411 -0.1356,0.0655 -0.52478,0.29574 -0.39298,0.22289 0.75138,-0.41528 1.50116,-0.83346 2.25173,-1.2502 -0.26149,0.25353 -0.49121,0.44714 -0.34008,0.81802 0,0 -2.66816,1.50283 -2.66816,1.50283 l 0,0 c -0.25372,-0.5478 -0.1705,-0.72408 0.19867,-1.19993 0.68235,-0.41169 3.21716,-2.4485 4.69977,-2.1115 0.13781,0.0313 0.26309,0.10334 0.39463,0.15501 0.0995,0.0868 0.21599,0.15743 0.29855,0.26053 0.50843,0.635 0.19799,1.46202 -0.15541,2.07688 -0.96432,1.34769 -1.75632,1.4622 -3.65165,2.43778 -0.20424,0.10513 -0.6218,0.091 -0.8341,0.0207 -0.1272,-0.0421 -0.2344,-0.12984 -0.3516,-0.19476 -0.0855,-0.10237 -0.18514,-0.19444 -0.25651,-0.30711 -0.42421,-0.6697 -0.35603,-1.51698 -0.25117,-2.26294 0.0317,-0.16714 0.1607,-0.96617 0.3216,-1.07171 1.0712,-0.70265 2.06132,-2.10873 3.25372,-1.53261 0.50756,0.37402 0.83801,0.90381 1.15229,1.4428 0,0 -2.67528,1.52327 -2.67528,1.52327 z"
       inkscape:connector-curvature="0"
       transform="translate(6.6292965,907.95565)" />
  </g>
</svg>
