<?xml version="1.0" encoding="UTF-8" standalone="no"?>
<!-- Created with Inkscape (http://www.inkscape.org/) -->

<svg
   xmlns:dc="http://purl.org/dc/elements/1.1/"
   xmlns:cc="http://creativecommons.org/ns#"
   xmlns:rdf="http://www.w3.org/1999/02/22-rdf-syntax-ns#"
   xmlns:svg="http://www.w3.org/2000/svg"
   xmlns="http://www.w3.org/2000/svg"
   xmlns:sodipodi="http://sodipodi.sourceforge.net/DTD/sodipodi-0.dtd"
   xmlns:inkscape="http://www.inkscape.org/namespaces/inkscape"
   width="160"
   height="123.95"
   id="svg2"
   version="1.1"
   inkscape:version="0.48.4 r9939"
   inkscape:export-filename="integral.png"
   inkscape:export-xdpi="150"
   inkscape:export-ydpi="150"
   sodipodi:docname="df3d.svg">
  <defs
     id="defs4" />
  <sodipodi:namedview
     id="base"
     pagecolor="#9fffa7"
     bordercolor="#666666"
     borderopacity="1.0"
     inkscape:pageopacity="0"
     inkscape:pageshadow="2"
     inkscape:zoom="6.7"
     inkscape:cx="80"
     inkscape:cy="61.974998"
     inkscape:document-units="px"
     inkscape:current-layer="layer1"
     showgrid="false"
     inkscape:window-width="1237"
     inkscape:window-height="1003"
     inkscape:window-x="43"
     inkscape:window-y="21"
     inkscape:window-maximized="1"
     fit-margin-top="0"
     fit-margin-left="0"
     fit-margin-right="0"
     fit-margin-bottom="0"
     showguides="true"
     inkscape:guide-bbox="true">
    <sodipodi:guide
       orientation="0,1"
       position="109.62412,63.532159"
       id="guide4800" />
  </sodipodi:namedview>
  <metadata
     id="metadata7">
    <rdf:RDF>
      <cc:Work
         rdf:about="">
        <dc:format>image/svg+xml</dc:format>
        <dc:type
           rdf:resource="http://purl.org/dc/dcmitype/StillImage" />
        <dc:title />
      </cc:Work>
    </rdf:RDF>
  </metadata>
  <g
     inkscape:label="Layer 1"
     inkscape:groupmode="layer"
     id="layer1"
     transform="translate(-6.6292965,-907.95565)">
    <path
       style="fill:#000000;fill-opacity:1;stroke:#050101;stroke-width:1.10000002;stroke-miterlimit:0.30000001;stroke-opacity:1;stroke-dasharray:none"
       id="path4992"
       d="m 31.049569,20.417541 c 0.268815,-0.752028 0.247797,-1.513765 0.0742,-2.281101 -0.264643,-0.897023 -0.586923,-1.3185 -1.491068,-1.596681 -0.432754,-0.112123 -0.851345,-0.07164 -1.270463,0.07767 -0.153717,0.05476 -0.587655,0.282166 -0.447293,0.198943 2.66095,-1.577718 2.669995,-1.624145 1.655163,-0.82355 -1.316628,1.33742 -1.521046,2.799693 -1.657968,4.598091 -0.0944,2.745518 0.487435,5.43921 1.202724,8.071509 0.536802,1.983286 1.288426,3.897118 1.960637,5.835782 0.4187,1.207535 0.573709,1.723317 0.959981,2.939769 0.798634,2.535059 1.414237,5.119014 1.79868,7.748188 0.148005,1.096154 0.22953,2.199025 0.288528,3.302944 0,0 -2.642542,1.358752 -2.642542,1.358752 l 0,0 C 31.457376,48.738736 31.416293,47.629287 31.28975,46.526212 30.959257,43.8958 30.384418,41.309563 29.594938,38.777263 29.236677,37.641817 29.033579,36.97082 28.643646,35.844702 27.970164,33.899699 27.204874,31.984315 26.664614,29.995024 25.926427,27.350773 25.313475,24.646912 25.334539,21.88477 c 0.08025,-1.794324 0.248976,-3.358935 1.468385,-4.769386 1.242151,-1.171664 0.521443,-0.555973 3.477737,-2.155638 0.565683,-0.306094 1.263835,-0.279592 1.860153,-0.112208 0.961944,0.396751 1.342321,0.859152 1.644278,1.855375 0.190235,0.797678 0.253049,1.591747 0.04257,2.39517 0,0 -2.77809,1.319458 -2.77809,1.319458 z"
       inkscape:connector-curvature="0"
       transform="translate(6.6292965,907.95565)" />
    <path
       style="fill:#000000;fill-opacity:1;stroke:#050101;stroke-width:1.10000002;stroke-miterlimit:0.30000001;stroke-opacity:1;stroke-dasharray:none"
       id="path4994"
       d="m 24.676941,34.868327 c 1.954034,-0.604844 3.97706,-0.936748 5.98603,-1.29877 1.744805,-0.295627 3.495982,-0.55121 5.244625,-0.822755 0,0 -2.172579,1.630741 -2.172579,1.630741 l 0,0 c -1.765847,0.280057 -3.534516,0.544759 -5.292992,0.869042 -2.075181,0.399766 -4.186527,0.756601 -6.164732,1.523424 0,0 2.399648,-1.901682 2.399648,-1.901682 z"
       inkscape:connector-curvature="0"
       transform="translate(6.6292965,907.95565)" />
    <path
       style="fill:#000000;fill-opacity:1;stroke:#050101;stroke-width:1.10000002;stroke-miterlimit:0.30000001;stroke-opacity:1;stroke-dasharray:none"
       id="path4996"
       d="m 58.402691,18.428008 c -0.814829,0.559988 -2.514909,0.971988 1.253582,-0.69476 0.276925,-0.12248 -0.491796,0.353853 -0.728228,0.543032 -0.813095,0.65059 -0.978368,0.846622 -1.762485,1.600139 -1.93857,2.023948 -3.635598,4.292742 -4.864275,6.820091 -0.25315,0.520723 -0.461788,1.061933 -0.692682,1.592899 -0.726861,1.968078 -1.120606,4.057608 -0.796946,6.153123 0.205853,1.332786 0.387978,1.562361 0.900542,2.802826 1.289964,2.485765 3.36635,4.344193 5.719318,5.80618 0.503844,0.313057 1.02896,0.590505 1.543439,0.885758 0,0 -2.289573,1.487316 -2.289573,1.487316 l 0,0 c -0.519307,-0.299698 -1.049201,-0.581755 -1.55792,-0.899093 -2.399741,-1.496954 -4.514525,-3.388148 -5.849063,-5.916329 -0.538719,-1.278791 -0.724802,-1.503061 -0.94315,-2.879524 -0.339748,-2.141766 0.04817,-4.281067 0.784238,-6.29719 0.230885,-0.53913 0.440202,-1.088015 0.692654,-1.617389 1.201756,-2.519994 2.847378,-4.800229 4.728902,-6.853732 0.762702,-0.772066 0.883493,-0.930794 1.672371,-1.601374 0.222175,-0.188858 0.437807,-0.389077 0.683966,-0.545395 1.027594,-0.652548 2.083992,-1.258664 3.132024,-1.877856 0.401644,-0.237297 0.424969,-0.231943 0.810159,-0.384997 0,0 -2.436873,1.876275 -2.436873,1.876275 z"
       inkscape:connector-curvature="0"
       transform="translate(6.6292965,907.95565)" />
    <path
       style="fill:#000000;fill-opacity:1;stroke:#050101;stroke-width:1.10000002;stroke-miterlimit:0.30000001;stroke-opacity:1;stroke-dasharray:none"
       id="path4998"
       d="m 72.042914,31.906162 c 1.387189,1.123243 2.913751,2.060901 4.416267,3.019198 1.613311,1.03143 3.230446,2.056836 4.843901,3.088035 0,0 -2.36604,1.520256 -2.36604,1.520256 l 0,0 C 77.329746,38.490794 75.713658,37.4615 74.081786,36.457403 72.522503,35.501738 70.94951,34.565647 69.437684,33.53532 c 0,0 2.60523,-1.629158 2.60523,-1.629158 z"
       inkscape:connector-curvature="0"
       transform="translate(6.6292965,907.95565)" />
    <path
       style="fill:#000000;fill-opacity:1;stroke:#050101;stroke-width:1.10000002;stroke-miterlimit:0.30000001;stroke-opacity:1;stroke-dasharray:none"
       id="path5000"
       d="m 80.437475,32.968357 c -0.88458,0.448678 -2.487874,1.08626 1.476615,-0.881963 0.203536,-0.101047 -0.368371,0.266569 -0.544903,0.409655 -0.539122,0.436983 -0.740022,0.651452 -1.249919,1.140807 -1.6401,1.629992 -3.00693,3.500343 -4.202718,5.472261 -0.756579,1.399036 -0.40811,0.697492 -1.049569,2.102561 0,0 -2.607537,1.191597 -2.607537,1.191597 l 0,0 c 0.645831,-1.432114 0.296316,-0.718452 1.051901,-2.139339 1.170097,-1.975335 2.509648,-3.851755 4.104759,-5.510239 0.542519,-0.545491 0.636084,-0.658438 1.196681,-1.152557 0.166637,-0.146876 0.321671,-0.31122 0.510223,-0.428647 0.998717,-0.62198 2.024027,-1.200379 3.044847,-1.785378 0.216691,-0.124179 0.469478,-0.216649 0.70234,-0.308729 0,0 -2.43272,1.889971 -2.43272,1.889971 z"
       inkscape:connector-curvature="0"
       transform="translate(6.6292965,907.95565)" />
    <path
       style="fill:#000000;fill-opacity:1;stroke:#050101;stroke-width:1.10000002;stroke-miterlimit:0.30000001;stroke-opacity:1;stroke-dasharray:none"
       id="path5002"
       d="m 91.031835,42.076511 c -0.408591,1.220957 -0.717142,2.473073 -0.988455,3.730696 -0.204197,0.856654 -0.242777,1.723711 -0.246431,2.598738 0,0 -2.610211,1.329985 -2.610211,1.329985 l 0,0 c -0.0037,-0.891693 0.02408,-1.776573 0.220444,-2.652118 0.2417,-1.238183 0.537263,-2.464867 0.846563,-3.687843 0,0 2.77809,-1.319458 2.77809,-1.319458 z"
       inkscape:connector-curvature="0"
       transform="translate(6.6292965,907.95565)" />
    <path
       style="fill:#000000;fill-opacity:1;stroke:#050101;stroke-width:1.10000002;stroke-miterlimit:0.30000001;stroke-opacity:1;stroke-dasharray:none"
       id="path5004"
       d="m 100.98655,40.595556 c 0.0567,-1.204509 0.18026,-2.405056 0.3153,-3.602962 0.0829,-0.593101 0.12599,-1.191058 0.19712,-1.785438 0.007,-0.0548 0.0689,-0.503923 0.0889,-0.515984 0.89577,-0.539968 1.83569,-1.003049 2.75353,-1.504573 0.0538,0.09822 0.11678,0.191925 0.16133,0.294661 0.0728,0.167997 0.22112,0.686941 0.26934,0.834827 0.18536,0.568551 0.39423,1.117825 0.6382,1.663505 0.35208,0.639987 0.92058,1.541036 1.7857,1.457209 0.12845,-0.01245 0.24612,-0.07772 0.36918,-0.116575 1.33737,-0.800777 -1.00714,0.609753 -1.84805,0.987193 -0.15445,0.06932 0.24103,-0.238583 0.34898,-0.368994 0.33817,-0.408525 0.58542,-0.871653 0.82466,-1.34112 0.82074,-1.744293 0.76737,-1.587851 3.47571,-2.623446 0.11764,-0.04498 0.17965,0.176574 0.26948,0.26486 0.99486,1.550873 1.64604,3.368344 2.31587,5.078548 1.26402,3.207885 2.26121,6.510423 3.30551,9.793714 1.05947,3.485026 2.20013,6.944121 3.2261,10.439306 0.51537,2.121407 1.35504,4.374849 1.34896,6.585266 -8.1e-4,0.293587 -0.0482,0.585196 -0.0723,0.877794 -0.0684,0.24308 -0.10757,0.496344 -0.20515,0.729242 -0.0867,0.206944 -0.19886,0.407246 -0.34307,0.579142 -0.13938,0.166135 -0.30657,0.315409 -0.49599,0.421 -1.0515,0.586175 -2.09948,1.192246 -3.21405,1.647203 -0.31919,0.130287 -1.43729,-0.116599 -1.70539,-0.163567 -1.97483,-0.563878 -3.76554,-1.635699 -5.35306,-2.925424 -0.36251,-0.294515 -0.70037,-0.618156 -1.05055,-0.927234 -1.5816,-1.521164 -3.03094,-3.264268 -3.91216,-5.295832 -0.14936,-0.344335 -0.25534,-0.705905 -0.38301,-1.058858 -0.37947,-1.317907 -0.43681,-2.690114 0.17331,-3.952972 0.39839,-0.824613 0.69661,-1.073314 1.29604,-1.765568 1.22292,-1.123983 0.57604,-0.581715 1.94594,-1.620473 0,0 2.63513,-1.047143 2.63513,-1.047143 l 0,0 c -1.35821,0.996062 -0.71608,0.476303 -1.93164,1.552766 -0.59689,0.646338 -0.89567,0.883844 -1.30988,1.657441 -0.63995,1.195209 -0.6347,2.501986 -0.29185,3.784605 0.11724,0.345465 0.21277,0.699076 0.35172,1.036394 0.83023,2.015458 2.25335,3.735455 3.81755,5.222522 0.34705,0.301614 0.68129,0.618637 1.04117,0.904841 1.58295,1.258919 3.37853,2.289405 5.35859,2.752304 0.2955,0.03356 0.58917,0.0947 0.88651,0.100685 0.26139,0.0053 0.96062,-0.2575 0.78146,-0.0671 -0.52167,0.554379 -1.27629,0.830313 -1.90437,1.260422 -0.17349,0.118807 0.3834,-0.185766 0.53999,-0.326094 0.42243,-0.378546 0.457,-0.679847 0.6497,-1.19847 0.0406,-0.284119 0.10616,-0.565777 0.12167,-0.852357 0.11805,-2.180852 -0.69845,-4.500931 -1.18466,-6.596507 -0.99065,-3.504865 -2.13575,-6.962035 -3.19917,-10.445121 -1.04815,-3.268451 -2.0563,-6.556742 -3.38146,-9.72695 -0.46715,-1.101619 -0.93566,-2.199196 -1.47666,-3.267218 -0.17843,-0.352234 -0.46252,-0.895488 -0.69926,-1.237708 -0.0796,-0.115076 -0.17718,-0.216624 -0.26577,-0.324935 -1.03967,-0.549092 -0.23221,-0.05544 2.30463,-1.581698 0.0572,-0.03444 -0.128,0.04832 -0.17738,0.09333 -0.281,0.256159 -0.34818,0.679458 -0.55394,0.983477 -0.9643,2.048675 -1.96974,2.930503 -4.47751,3.784437 -0.14355,0.0081 -0.28775,0.04003 -0.43064,0.02417 -0.92612,-0.102802 -1.50734,-0.977935 -1.90479,-1.721775 -0.36788,-0.820361 -0.64702,-1.681212 -1.01651,-2.495884 0.86253,-0.514445 1.71232,-1.050886 2.5876,-1.543335 0.0498,-0.028 -0.075,0.08871 -0.0963,0.141693 -0.0424,0.105351 -0.0706,0.21644 -0.0926,0.327853 -0.11743,0.595349 -0.13947,1.208874 -0.24274,1.806378 -0.14039,1.165114 -0.25845,2.343161 -0.22334,3.517594 0,0 -2.74163,1.39693 -2.74163,1.39693 z"
       inkscape:connector-curvature="0"
       transform="translate(6.6292965,907.95565)" />
    <path
       style="fill:#000000;fill-opacity:1;stroke:#050101;stroke-width:1.10000002;stroke-miterlimit:0.30000001;stroke-opacity:1;stroke-dasharray:none"
       id="path5006"
       d="m 122.25698,20.926689 c 1.10063,1.814927 2.10758,3.68097 3.0584,5.578021 1.36179,2.835739 2.53259,5.776899 3.24512,8.847841 0.14861,0.640499 0.25832,1.289406 0.38747,1.934109 0.42867,2.535079 0.53773,5.111579 0.2769,7.670547 -0.0612,0.600096 -0.16373,1.195249 -0.24559,1.792873 0,0 -2.44689,1.203317 -2.44689,1.203317 l 0,0 c 0.0884,-0.59385 0.19814,-1.184912 0.26519,-1.781548 0.2853,-2.538439 0.19545,-5.097013 -0.2242,-7.615641 -0.12758,-0.639367 -0.23598,-1.282864 -0.38275,-1.918103 -0.70468,-3.04996 -1.87273,-5.971396 -3.27335,-8.764055 -0.98401,-1.856821 -2.01178,-3.702759 -3.30423,-5.367129 0,0 2.64393,-1.580232 2.64393,-1.580232 z"
       inkscape:connector-curvature="0"
       transform="translate(6.6292965,907.95565)" />
    <path
       style="fill:#000000;fill-opacity:1;stroke:#050101;stroke-width:1.10000002;stroke-miterlimit:0.30000001;stroke-opacity:1;stroke-dasharray:none"
       id="path5008"
       d="m 19.810771,996.24747 c 0.90532,1.59991 2.022042,3.06793 3.127236,4.53243 1.600226,2.0844 3.303504,4.0968 5.155111,5.9624 0,0 -2.443509,1.4933 -2.443509,1.4933 l 0,0 c -1.825501,-1.9032 -3.513443,-3.9365 -5.140156,-6.011 -1.1363,-1.4597 -2.273785,-2.9189 -3.352509,-4.42207 0,0 2.653827,-1.55506 2.653827,-1.55506 z"
       inkscape:connector-curvature="0" />
    <path
       style="fill:#000000;fill-opacity:1;stroke:#050101;stroke-width:1.10000002;stroke-miterlimit:0.30000001;stroke-opacity:1;stroke-dasharray:none"
       id="path5010"
       d="m 26.958064,997.44856 c -1.228033,0.65674 1.229636,-0.74488 1.879448,-1.049 0.203473,-0.0952 -0.354537,0.27679 -0.520018,0.42873 -0.736824,0.67654 -1.324698,1.46918 -1.927339,2.26216 -1.634122,2.29445 -3.096436,4.70625 -4.494353,7.14995 -0.592638,1.0212 -1.11884,2.0763 -1.622728,3.143 0,0 -2.631447,1.1954 -2.631447,1.1954 l 0,0 c 0.529361,-1.0818 1.079085,-2.1528 1.686004,-3.1939 1.396058,-2.4324 2.851395,-4.8336 4.424582,-7.1561 1.64717,-2.27491 2.705411,-3.55146 5.642723,-4.65652 0,0 -2.436872,1.87628 -2.436872,1.87628 z"
       inkscape:connector-curvature="0" />
    <path
       style="fill:#000000;fill-opacity:1;stroke:#050101;stroke-width:1.10000002;stroke-miterlimit:0.30000001;stroke-opacity:1;stroke-dasharray:none"
       id="path5012"
       d="m 44.87515,1004.6823 c 0.0097,1.5383 0.13983,3.0742 0.291959,4.6041 0.114353,1.4025 0.427728,2.7694 0.81088,4.1188 0,0 -2.541514,1.384 -2.541514,1.384 l 0,0 c -0.380805,-1.3659 -0.703797,-2.7462 -0.832146,-4.1625 -0.172243,-1.5151 -0.301884,-3.0342 -0.466058,-4.5499 0,0 2.736879,-1.3945 2.736879,-1.3945 z"
       inkscape:connector-curvature="0" />
    <path
       style="fill:#000000;fill-opacity:1;stroke:#050101;stroke-width:1.10000002;stroke-miterlimit:0.30000001;stroke-opacity:1;stroke-dasharray:none"
       id="path5014"
       d="m 52.271874,1001.8849 c -0.430722,-0.9602 -0.608893,-1.99279 -0.626619,-3.03831 0.134412,-1.50917 0.858757,-1.3397 2.993406,-2.18334 0.126588,-0.05 1.059859,1.09473 1.136225,1.1878 0.911788,1.10775 1.790741,2.28465 2.971624,3.12635 0.213437,0.1522 0.444574,0.2778 0.666861,0.4167 0.548213,0.2661 1.147624,0.5231 1.770076,0.3438 0.174525,-0.05 0.648107,-0.3279 0.489196,-0.2399 -2.353403,1.3023 -2.650137,1.6805 -1.687683,0.7153 0.625573,-0.8177 0.948536,-1.7974 1.165052,-2.79106 0.244356,-1.28689 -1.951831,-0.079 2.841473,-1.47604 0.111627,-0.0325 0.03751,0.2295 0.05477,0.34449 0.140836,0.9384 0.0087,0.15216 0.206984,1.26248 0.465056,2.51553 1.257618,4.94903 2.092728,7.36123 1.061459,3.0295 2.37014,5.9627 3.693439,8.8846 0.795295,1.7765 1.679557,3.5177 2.392759,5.3303 0.392844,0.9984 0.464287,1.2905 0.774386,2.2897 0.253222,1.1061 0.561292,2.3412 0.128165,3.4508 -0.230012,0.5892 -0.378741,0.6352 -0.826095,1.0551 -1.06376,0.5936 -2.094777,1.2502 -3.19128,1.7809 -0.24664,0.1194 -0.534921,0.1254 -0.807383,0.1545 -1.352709,0.1445 -2.644437,-0.2339 -3.917922,-0.6344 -1.705684,-0.6838 -3.340392,-1.6596 -4.548893,-3.0698 -0.221348,-0.2582 -0.407441,-0.5448 -0.611162,-0.8172 -0.876181,-1.3596 -1.217782,-2.9159 -0.872079,-4.5074 0.06665,-0.3069 0.176936,-0.6026 0.265403,-0.9039 0.77499,-1.9861 2.169432,-3.2858 3.828939,-4.5425 0,0 2.685577,-1.0664 2.685577,-1.0664 l 0,0 c -1.624763,1.1802 -3.08139,2.4696 -3.878125,4.364 -0.09432,0.2883 -0.210259,0.5704 -0.282951,0.8649 -0.373588,1.5136 -0.08128,3.0038 0.747037,4.3124 0.195231,0.2628 0.37354,0.5391 0.585693,0.7885 1.176705,1.3831 2.77934,2.3217 4.461796,2.9518 1.263278,0.3653 2.547839,0.7114 3.874175,0.4789 0.267579,-0.047 0.990661,-0.394 0.786013,-0.2154 -0.556546,0.4859 -1.254257,0.7811 -1.881385,1.1716 0.462021,-0.3295 0.641283,-0.3729 0.907728,-0.8969 0.525407,-1.0333 0.23947,-2.2768 0.02909,-3.3438 -0.292647,-1.0341 -0.331743,-1.2512 -0.72098,-2.2854 -0.685746,-1.8221 -1.555076,-3.5701 -2.34362,-5.348 -1.315457,-2.9335 -2.632399,-5.8704 -3.713296,-8.9007 -0.858235,-2.4038 -1.683062,-4.8224 -2.264719,-7.3109 -0.05645,-0.2363 -0.112904,-0.4725 -0.169357,-0.7088 -0.038,-0.1713 -0.07386,-0.34314 -0.113994,-0.51396 -0.02374,-0.10107 -0.164357,-0.2446 -0.07761,-0.30163 0.867501,-0.57029 1.849592,-0.94491 2.7527,-1.45694 0.02911,-0.0165 -0.05821,-0.0796 -0.08273,-0.0568 -0.04931,0.0458 -0.04179,0.12789 -0.06269,0.19184 -0.256763,1.02942 -0.576801,2.05443 -1.155256,2.95413 -1.100756,1.3315 -0.445652,0.6459 -3.421273,2.2887 -0.32565,0.1798 -0.77027,0.2004 -1.125768,0.1409 -0.520593,-0.087 -0.781986,-0.2662 -1.253272,-0.5028 -0.224376,-0.1505 -0.457357,-0.2889 -0.673128,-0.4515 -1.172006,-0.8831 -2.063735,-2.0618 -3.033502,-3.14741 -0.209964,-0.2293 -0.534833,-0.61894 -0.810378,-0.80725 -0.07492,-0.0512 -0.325638,-0.0464 -0.252913,-0.10069 0.760648,-0.56758 1.608717,-1.00747 2.413076,-1.5112 -0.05759,0.0499 -0.139138,0.0813 -0.172783,0.1496 -0.05578,0.11332 -0.05524,0.2465 -0.08286,0.36974 -0.0425,0.99112 0.109382,1.98294 0.614903,2.85321 0,0 -2.667563,1.5461 -2.667563,1.5461 z"
       inkscape:connector-curvature="0" />
    <path
       style="fill:#ff0000;fill-opacity:1;stroke:#050101;stroke-width:1.10000001999999997;stroke-miterlimit:0.30000000999999998;stroke-opacity:1;stroke-dasharray:none"
       id="path5024"
       d="m 113.60378,84.434382 c -0.39914,-0.282948 -0.80705,-0.69384 -0.84129,-1.214965 -0.009,-0.136195 0.0221,-0.272077 0.0332,-0.408116 0.056,-0.144903 0.0935,-0.298409 0.16802,-0.434709 0.41979,-0.767639 1.24779,-1.339504 1.98553,-1.764423 1.07327,-0.61817 2.15912,-1.214216 3.23868,-1.821324 1.18113,-0.508002 2.4746,-0.750274 3.75796,-0.5709 0.21637,0.03024 0.42746,0.09049 0.64119,0.135734 1.01476,0.345097 1.78694,1.070932 2.13167,2.095685 0.0708,0.210448 0.10897,0.430498 0.16346,0.645747 0.27935,1.682314 -0.27682,3.297854 -0.86196,4.850596 -0.8237,1.920291 -1.86526,3.739064 -2.89825,5.552486 -0.68251,1.2281 -1.34319,2.476888 -1.81378,3.804675 -0.24881,0.70204 -0.27722,0.916257 -0.43948,1.625501 -0.14057,0.907192 -0.19079,1.960834 0.37771,2.750646 0.0842,0.117037 0.19796,0.209737 0.29694,0.314606 1.03709,0.732719 2.0441,0.484479 3.17006,0.123589 0.25137,-0.10874 0.50616,-0.209878 0.7541,-0.326201 0.27558,-0.129283 0.54825,-0.265158 0.8158,-0.410313 0.29473,-0.159903 1.16774,-0.659279 0.87031,-0.504459 -0.52936,0.275542 -1.0135,0.642464 -1.56649,0.866836 -0.33661,0.136576 0.60974,-0.395161 0.90954,-0.600288 0.29449,-0.201489 0.58204,-0.412925 0.87306,-0.619388 0,0 2.68219,-1.059697 2.68219,-1.059697 l 0,0 c -0.50076,0.361312 -1.24731,0.914713 -1.77475,1.235852 -1.11669,0.679903 -2.2469,1.337398 -3.37512,1.997988 -0.80892,0.47364 -1.63973,0.91356 -2.52675,1.22433 -1.32004,0.36685 -2.26079,0.51745 -3.40979,-0.36662 -0.10987,-0.12651 -0.23503,-0.24122 -0.32961,-0.37954 -0.59325,-0.86768 -0.5744,-1.981773 -0.4148,-2.972357 0.16446,-0.721563 0.19953,-0.968 0.45241,-1.681338 0.47599,-1.342631 1.13713,-2.610611 1.82525,-3.853828 1.01951,-1.796333 2.04177,-3.599992 2.8733,-5.492589 0.57552,-1.489911 1.14342,-3.041334 0.89209,-4.664467 -0.0497,-0.200113 -0.0846,-0.404482 -0.14904,-0.60034 -0.31023,-0.942834 -1.02697,-1.5803 -1.97025,-1.853932 -0.20348,-0.03646 -0.40499,-0.08657 -0.61045,-0.109376 -1.25843,-0.139656 -2.50571,0.145831 -3.64142,0.681402 0.60227,-0.361558 1.20489,-0.72253 1.80681,-1.084674 0.2163,-0.130139 -0.43932,0.249553 -0.64997,0.388658 -0.4836,0.319357 -0.998,0.707143 -1.33762,1.186472 -0.077,0.108687 -0.12717,0.234097 -0.19075,0.351146 -0.0241,0.101997 -0.0675,0.20129 -0.0724,0.30599 -0.0211,0.453444 0.39275,0.783918 0.74332,0.981007 0,0 -2.58864,1.674898 -2.58864,1.674898 z"
       inkscape:connector-curvature="0"
       transform="translate(6.6292965,907.95565)" />
    <path
       style="fill:#ff0000;fill-opacity:1;stroke:#050101;stroke-width:1.10000001999999997;stroke-miterlimit:0.30000000999999998;stroke-opacity:1;stroke-dasharray:none"
       id="path5026"
       d="m 117.97018,111.48247 c -0.25362,-0.50405 -0.53896,-1.0373 -1.05126,-1.31169 -0.0572,-0.007 -0.11564,-0.0364 -0.17161,-0.0224 -0.0545,0.0136 -0.18545,0.12579 -0.13599,0.0993 0.82611,-0.44325 1.62885,-0.93069 2.46731,-1.3501 0.0812,-0.0406 -0.13026,0.12862 -0.17875,0.20531 -0.1507,0.23834 -0.18168,0.43557 -0.25776,0.70749 -0.11477,0.66619 -0.24787,1.47694 0.16111,2.07986 0.0595,0.0877 0.14737,0.15232 0.22106,0.22848 0.0946,0.0276 0.18542,0.076 0.28369,0.0829 0.69107,0.049 3.95515,-1.76748 -1.51256,1.05547 -0.14064,0.0726 0.26268,-0.17874 0.37897,-0.28612 0.11876,-0.10965 0.21522,-0.24123 0.32283,-0.36185 0.29517,-0.45159 0.75392,-1.23504 0.28353,-1.74447 -0.0633,-0.0686 -0.15635,-0.10213 -0.23452,-0.15319 -0.53291,-0.14658 -1.08334,0.006 -1.57007,0.2411 -0.1356,0.0655 -0.52478,0.29574 -0.39298,0.22289 0.75138,-0.41528 1.50116,-0.83346 2.25173,-1.2502 -0.26149,0.25353 -0.49121,0.44714 -0.34008,0.81802 0,0 -2.66816,1.50283 -2.66816,1.50283 l 0,0 c -0.25372,-0.5478 -0.1705,-0.72408 0.19867,-1.19993 0.68235,-0.41169 3.21716,-2.4485 4.69977,-2.1115 0.13781,0.0313 0.26309,0.10334 0.39463,0.15501 0.0995,0.0868 0.21599,0.15743 0.29855,0.26053 0.50843,0.635 0.19799,1.46202 -0.15541,2.07688 -0.96432,1.34769 -1.75632,1.4622 -3.65165,2.43778 -0.20424,0.10513 -0.6218,0.091 -0.8341,0.0207 -0.1272,-0.0421 -0.2344,-0.12984 -0.3516,-0.19476 -0.0855,-0.10237 -0.18514,-0.19444 -0.25651,-0.30711 -0.42421,-0.6697 -0.35603,-1.51698 -0.25117,-2.26294 0.0317,-0.16714 0.1607,-0.96617 0.3216,-1.07171 1.0712,-0.70265 2.06132,-2.10873 3.25372,-1.53261 0.50756,0.37402 0.83801,0.90381 1.15229,1.4428 0,0 -2.67528,1.52327 -2.67528,1.52327 z"
       inkscape:connector-curvature="0"
       transform="translate(6.6292965,907.95565)" />
    <path
       style="fill:#000000;stroke-width:1.89999998;stroke-miterlimit:4;stroke-dasharray:7.6, 7.6;stroke-dashoffset:0"
       id="path2999"
       d="m 76.599789,92.326773 c -0.266251,-0.426262 -0.747617,-0.499065 -1.210086,-0.521499 -0.991574,0.03143 -1.913616,0.40338 -2.800949,0.814026 0.329577,-0.228812 -1.510702,0.821521 -1.130498,0.620837 0.408578,-0.21566 0.786729,-0.491662 1.211696,-0.672902 0.218218,-0.09307 -0.39413,0.264466 -0.584845,0.405561 -0.555909,0.411274 -0.593177,0.47002 -1.100505,0.935565 -0.778558,0.803505 -1.485071,1.714565 -1.882675,2.772305 -0.07126,0.189561 -0.118462,0.387312 -0.177693,0.580969 -0.185828,0.89849 -0.205763,1.857449 0.24532,2.686589 0.08266,0.151936 0.192208,0.287606 0.288311,0.431416 0.897437,1.07618 2.155487,1.35687 3.474405,1.57947 1.454884,0.19074 2.923458,0.21511 4.387074,0.14733 0.431367,-0.0288 0.860522,-0.062 1.29277,-0.0665 0,0 -1.749243,1.27319 -1.749243,1.27319 l 0,0 c -0.415114,0.003 -0.82914,0.0228 -1.243999,0.038 -1.462122,0.0354 -2.928265,-0.0101 -4.379268,-0.20581 -1.405589,-0.24712 -2.656293,-0.54913 -3.611419,-1.6937 -0.102626,-0.1547 -0.219309,-0.30096 -0.307877,-0.46412 -0.473647,-0.87258 -0.47354,-1.873752 -0.296155,-2.825137 0.05708,-0.202287 0.10131,-0.40865 0.171247,-0.606859 0.382847,-1.085034 1.089798,-2.023675 1.864955,-2.857467 0.500167,-0.477903 0.537337,-0.539275 1.08717,-0.961166 1.259834,-0.966681 2.688651,-1.69681 4.093025,-2.428506 0.922047,-0.408923 1.888967,-0.774122 2.913402,-0.762792 0.532939,0.06083 1.039446,0.207098 1.363019,0.67002 0,0 -1.917182,1.11119 -1.917182,1.11119 z"
       inkscape:connector-curvature="0"
       transform="translate(6.6292965,907.95565)" />
    <path
       style="fill:#000000;stroke-width:1.89999998;stroke-miterlimit:4;stroke-dasharray:7.6, 7.6;stroke-dashoffset:0"
       id="path3001"
       d="m 70.447688,97.006138 c 1.298411,-0.155425 2.60382,-0.240863 3.907615,-0.337852 1.376727,-0.110694 2.754473,-0.162476 4.135078,-0.134913 0.285354,0.0059 0.570417,0.01938 0.85522,0.03752 0,0 -1.801305,1.285761 -1.801305,1.285761 l 0,0 c -0.263581,-0.02792 -0.527151,-0.05651 -0.792037,-0.06958 -1.34896,-0.06703 -2.697179,-0.0096 -4.043156,0.09667 -1.346893,0.107071 -2.696247,0.210065 -4.029462,0.43709 0,0 1.768047,-1.314697 1.768047,-1.314697 z"
       inkscape:connector-curvature="0"
       transform="translate(6.6292965,907.95565)" />
    <path
       style="fill:#000000;stroke-width:1.89999998;stroke-miterlimit:4;stroke-dasharray:7.6, 7.6;stroke-dashoffset:0"
       id="path3003"
       d="m 98.520975,73.758222 c -0.529377,-0.246979 -1.100886,-0.282541 -1.674626,-0.256246 -0.986751,0.09282 -1.91608,0.463773 -2.800693,0.89103 0.459387,-0.260384 0.907147,-0.542444 1.378162,-0.781151 0.151688,-0.07688 -0.282824,0.189439 -0.416931,0.294006 -0.567507,0.442503 -1.004674,0.986146 -1.424612,1.564178 -0.596018,0.905574 -1.092937,1.880611 -1.400371,2.923202 -0.06436,0.218276 -0.112598,0.440988 -0.168897,0.661483 -0.22336,1.123334 -0.199678,2.279116 0.02845,3.400261 0.04594,0.22577 0.111499,0.447099 0.167248,0.670649 0.35685,1.292403 0.949662,2.503117 1.515767,3.713596 0.455263,0.970407 0.831455,1.972077 1.020405,3.028496 0.0771,0.634003 0.05797,1.307168 -0.312372,1.855668 -0.06541,0.09687 -0.148746,0.18035 -0.223118,0.270524 -0.244647,0.217965 -0.273854,0.268105 -0.56449,0.428962 -1.684917,0.932546 -1.864435,1.214633 -3.334497,1.451011 -0.642785,0.06327 -1.295621,0.156986 -1.942159,0.103352 -1.433611,-0.1717 0.01232,-0.550033 1.417129,-1.356519 0.585707,0.08107 1.153576,0.268802 1.709777,0.46397 0.953798,0.307076 1.832077,0.785708 2.679535,1.311951 0.846894,0.526424 1.554175,1.216629 2.133925,2.022275 0.582192,0.883151 0.835528,1.884599 0.941301,2.923483 0.05139,1.090857 0.0097,2.183517 -0.0073,3.274827 0.003,1.0007 -0.04923,2.00025 -0.128623,2.99751 -0.112988,1.01552 -0.280132,2.02329 -0.382006,3.04009 -0.09943,0.87515 -0.08561,1.75332 0.03791,2.6242 0.122439,0.76301 0.387502,1.47324 0.787174,2.13115 0.401855,0.60258 0.967817,1.01455 1.589667,1.36349 0.666857,0.38299 1.403909,0.59338 2.138079,0.80129 0.51877,0.16747 1.09282,0.20522 1.57879,0.46141 0.14627,0.0614 0.24288,0.16324 0.33918,0.28366 0,0 -1.89737,1.13777 -1.89737,1.13777 l 0,0 c -0.0796,-0.0923 -0.1666,-0.16147 -0.28017,-0.2115 -0.47938,-0.22258 -1.02005,-0.28962 -1.520236,-0.45282 -0.745745,-0.21738 -1.488973,-0.4527 -2.16513,-0.84493 -0.647715,-0.3743 -1.235821,-0.81941 -1.651054,-1.45484 -0.410613,-0.68391 -0.685921,-1.42409 -0.815905,-2.21378 -0.129049,-0.88766 -0.159371,-1.78339 -0.05202,-2.67618 0.109614,-1.01566 0.269281,-2.02416 0.38905,-3.03858 0.08544,-0.99343 0.130403,-1.99034 0.138884,-2.98742 0.02332,-1.08408 0.0649,-2.1695 0.01875,-3.25344 -0.09048,-1.003714 -0.329602,-1.969807 -0.896706,-2.819573 -0.564462,-0.782741 -1.258685,-1.445963 -2.083184,-1.954914 -0.842355,-0.515316 -1.716544,-0.977079 -2.667861,-1.259891 -0.571679,-0.177174 -1.15,-0.343089 -1.748097,-0.400884 0.590794,-0.397166 1.198742,-0.769936 1.772383,-1.191498 0.02403,-0.01766 -0.0478,-0.04237 -0.0536,-0.07162 -0.0028,-0.01404 0.0276,0.0076 0.04154,0.01085 0.136215,0.03165 0.274241,0.05472 0.413821,0.06542 0.628961,0.02364 1.260439,-0.03168 1.882333,-0.12344 0.339524,-0.06693 0.430003,-0.07552 0.758848,-0.176466 0.119169,-0.03658 0.456199,-0.192824 0.35341,-0.122299 -0.486277,0.333641 -1.013664,0.60325 -1.512605,0.917636 -0.09933,0.06259 0.213477,-0.09928 0.312916,-0.161702 0.09648,-0.06057 0.181823,-0.137296 0.272734,-0.205945 0.07975,-0.07679 0.167807,-0.145808 0.239263,-0.230377 0.410217,-0.485494 0.457826,-1.122836 0.402265,-1.729148 -0.162812,-1.045623 -0.515176,-2.037969 -0.960522,-2.997075 -0.557127,-1.22917 -1.155231,-2.451792 -1.519518,-3.755405 -0.05881,-0.228766 -0.127536,-0.455212 -0.176438,-0.6863 -0.242004,-1.143607 -0.27503,-2.323435 -0.06797,-3.47455 0.05372,-0.225016 0.09905,-0.452204 0.161168,-0.675047 0.293791,-1.053895 0.774876,-2.042442 1.350462,-2.969385 0.256996,-0.374678 0.359552,-0.546104 0.653091,-0.889269 0.925778,-1.082293 2.141448,-1.69577 3.412387,-2.353077 0.911851,-0.414969 1.867043,-0.774884 2.876438,-0.838942 0.613794,-0.0092 1.217937,0.058 1.785101,0.310701 0,0 -1.848285,1.216108 -1.848285,1.216108 z"
       inkscape:connector-curvature="0"
       transform="translate(6.6292965,907.95565)" />
    <path
       style="fill:#000000;stroke-width:1.89999998;stroke-miterlimit:4;stroke-dasharray:7.6, 7.6;stroke-dashoffset:0"
       id="path3005"
       d="m 140.78783,74.004032 c -0.31943,0.0068 -0.6277,-0.0012 -0.93562,-0.0906 -0.0175,-0.0096 -0.19491,-0.09246 -0.12533,-0.143939 1.98674,-1.470037 1.25478,-1.143726 2.54515,-1.320735 1.01655,-0.12348 2.017,-0.04028 3.01875,0.145957 0.83205,0.204481 1.67976,0.556798 2.25058,1.2253 0.10482,0.122758 0.1859,0.26395 0.27885,0.395926 0.52954,1.013212 0.56687,1.965419 0.4477,3.078101 -0.17439,1.3231 -0.72456,2.542754 -1.28106,3.741308 -0.65082,1.365922 -1.357,2.703947 -2.0227,4.062549 -0.58392,1.206758 -1.07942,2.449293 -1.38445,3.755534 -0.17253,0.84664 -0.24331,1.737632 0.10163,2.553467 0.0632,0.149578 0.15036,0.287894 0.22555,0.431841 0.57115,0.934999 1.45256,1.590675 2.35136,2.185854 0.80411,0.513354 1.69615,0.850387 2.61932,1.073964 0.52222,0.08197 1.04283,0.174326 1.56521,0.256359 0.0382,0.05341 0.14021,-0.01065 0.1868,0.03201 0.0347,0.03177 0.15578,0.24489 0.0853,0.290922 -1.3504,0.88169 -1.35252,0.873837 -2.17882,1.193466 -0.67424,0.242565 -1.33698,0.518445 -1.99236,0.808115 -0.64472,0.343671 -2.28271,1.190465 0.64948,-0.405851 0.12568,-0.06843 -0.24259,0.152136 -0.3597,0.234374 -0.33037,0.231977 -0.32371,0.245234 -0.61429,0.519282 -0.50182,0.514714 -0.79239,1.14829 -0.95591,1.838597 -0.15572,0.708158 -0.0862,1.425798 -0.007,2.137728 0.12204,0.85886 0.29805,1.7094 0.50657,2.55119 0.20586,0.93744 0.42853,1.87092 0.61456,2.8126 0.17185,0.90034 0.21391,1.81674 0.23929,2.73069 0.0304,0.87704 0.0305,1.74951 -0.1042,2.61773 -0.10191,0.49435 -0.22656,0.9963 -0.4944,1.43105 -0.16814,0.27293 -0.26057,0.35221 -0.47501,0.5874 -1.12334,1.01319 -2.50058,1.7559 -3.95976,2.14372 -0.88464,0.16394 -1.78095,0.26095 -2.67711,0.33683 -0.54101,0.0394 -1.08326,0.0576 -1.62539,0.0734 -0.13386,0.004 -0.0727,0.002 -0.18359,0.004 0,0 1.79856,-1.30676 1.79856,-1.30676 l 0,0 c 0.10137,0.002 0.0452,0.001 0.16852,0.003 0.52409,0.003 1.04826,-0.0133 1.57097,-0.0525 0.88762,-0.0717 1.7786,-0.16658 2.64735,-0.36676 0.35682,-0.1084 0.45841,-0.12873 0.8008,-0.27429 0.12382,-0.0526 0.47946,-0.24287 0.36523,-0.1718 -2.84423,1.76959 -1.46782,0.90107 -0.897,0.43912 0.21209,-0.20599 0.3217,-0.29362 0.49389,-0.53528 0.2894,-0.40616 0.42503,-0.88938 0.53648,-1.36849 0.1562,-0.8556 0.16266,-1.71664 0.13031,-2.5845 -0.0217,-0.90363 -0.0567,-1.80999 -0.21851,-2.70148 -0.17972,-0.93896 -0.4004,-1.86884 -0.61197,-2.80099 -0.21519,-0.84804 -0.3951,-1.70496 -0.53216,-2.56917 -0.0887,-0.72962 -0.17678,-1.46659 -0.035,-2.19662 0.15231,-0.74924 0.40702,-1.373118 0.91828,-1.956432 0.2927,-0.308909 0.59263,-0.586796 0.96158,-0.806025 0.99337,-0.590254 1.98014,-1.198487 3.02645,-1.69179 0.67631,-0.292517 1.35697,-0.574939 2.04403,-0.841223 0.8728,-0.367679 -0.53538,0.217219 -1.62658,0.967897 -0.0629,0.04327 0.17371,0.11528 0.16335,0.176034 -0.009,0.05558 -0.19965,-0.162934 -0.16526,-0.03605 -0.50955,-0.104682 -1.02206,-0.192203 -1.5307,-0.300601 -0.92696,-0.259351 -1.82351,-0.620568 -2.63057,-1.152565 -0.92011,-0.626325 -1.82448,-1.306151 -2.41542,-2.270486 -0.0806,-0.153752 -0.17319,-0.301775 -0.24173,-0.461257 -0.36548,-0.850385 -0.3198,-1.779254 -0.13623,-2.666692 0.30078,-1.328165 0.80422,-2.588759 1.3962,-3.813986 0.66474,-1.355801 1.36322,-2.694192 2.01714,-4.055257 0.5462,-1.175672 1.09576,-2.369226 1.27785,-3.665274 0.12854,-1.053511 0.10525,-1.967775 -0.39314,-2.9313 -0.0858,-0.120657 -0.16035,-0.250098 -0.25729,-0.36197 -0.55046,-0.63525 -1.36826,-0.950843 -2.16572,-1.130817 -1.00098,-0.170397 -2.01668,-0.227507 -3.02351,-0.05549 -0.0772,0.01303 -0.40596,0.06315 -0.50794,0.09693 -0.043,0.01425 -0.15823,0.08788 -0.12067,0.06254 0.59557,-0.40179 1.19695,-0.794912 1.79543,-1.192368 -0.0185,-0.02422 -0.0461,-0.04367 -0.0555,-0.07266 -0.004,-0.01158 0.0234,0.0066 0.0352,0.0099 0.29549,0.07115 0.59875,0.05085 0.90041,0.04458 0,0 -1.79219,1.302099 -1.79219,1.302099 z"
       inkscape:connector-curvature="0"
       transform="translate(6.6292965,907.95565)" />
  </g>
</svg>
