<?xml version="1.0" encoding="UTF-8" standalone="no"?>
<!-- Created with Inkscape (http://www.inkscape.org/) -->

<svg
   xmlns:dc="http://purl.org/dc/elements/1.1/"
   xmlns:cc="http://creativecommons.org/ns#"
   xmlns:rdf="http://www.w3.org/1999/02/22-rdf-syntax-ns#"
   xmlns:svg="http://www.w3.org/2000/svg"
   xmlns="http://www.w3.org/2000/svg"
   xmlns:sodipodi="http://sodipodi.sourceforge.net/DTD/sodipodi-0.dtd"
   xmlns:inkscape="http://www.inkscape.org/namespaces/inkscape"
   width="160"
   height="123.95"
   id="svg2"
   version="1.1"
   inkscape:version="0.48.3.1 r9886"
   inkscape:export-filename="integral.png"
   inkscape:export-xdpi="150"
   inkscape:export-ydpi="150"
   sodipodi:docname="geom.svg">
  <defs
     id="defs4" />
  <sodipodi:namedview
     id="base"
     pagecolor="#9fffa7"
     bordercolor="#666666"
     borderopacity="1.0"
     inkscape:pageopacity="0"
     inkscape:pageshadow="2"
     inkscape:zoom="4.8164584"
     inkscape:cx="80"
     inkscape:cy="61.974998"
     inkscape:document-units="px"
     inkscape:current-layer="layer1"
     showgrid="false"
     inkscape:window-width="1231"
     inkscape:window-height="776"
     inkscape:window-x="49"
     inkscape:window-y="24"
     inkscape:window-maximized="1"
     fit-margin-top="0"
     fit-margin-left="0"
     fit-margin-right="0"
     fit-margin-bottom="0"
     showguides="true"
     inkscape:guide-bbox="true">
    <sodipodi:guide
       orientation="0,1"
       position="109.62412,63.532159"
       id="guide4800" />
  </sodipodi:namedview>
  <metadata
     id="metadata7">
    <rdf:RDF>
      <cc:Work
         rdf:about="">
        <dc:format>image/svg+xml</dc:format>
        <dc:type
           rdf:resource="http://purl.org/dc/dcmitype/StillImage" />
        <dc:title></dc:title>
      </cc:Work>
    </rdf:RDF>
  </metadata>
  <g
     inkscape:label="Layer 1"
     inkscape:groupmode="layer"
     id="layer1"
     transform="translate(-6.6292965,-907.95565)">
    <path
       style="fill:#800000;fill-opacity:1;stroke:#050101;stroke-width:1.10000002;stroke-miterlimit:0.30000001;stroke-opacity:1;stroke-dasharray:none"
       id="path4782"
       d="m 10.971895,5.355081 c 0.411028,0.4840874 0.756256,1.0157505 1.124051,1.5320744 0.401195,0.6477117 0.850322,1.2593939 1.305104,1.8697075 0.429481,0.5699308 0.870915,1.1277392 1.332764,1.6711961 0.258186,0.342557 0.57258,0.630094 0.868422,0.937517 0.119218,0.0894 0.245398,0.191379 0.394139,0.226179 0.07288,-0.01912 -0.32645,-0.606634 0.137485,0.19549 -0.02459,0.09421 0.04256,0.241889 -0.06424,0.0076 0.06576,-0.05699 0.200201,0.120616 0.296108,0.139792 0.161098,0.07782 0.317971,0.205921 0.464424,0.319236 0.231149,0.190754 0.469908,0.372709 0.711174,0.552674 0.316511,0.27325 0.652287,0.523469 0.990434,0.769675 0.536996,0.457779 1.042392,0.947607 1.53229,1.455073 0.652585,0.671274 1.289367,1.358665 1.971909,1.999768 0.839827,0.77133 1.617993,1.607225 2.412773,2.424342 0.900084,0.824271 1.818006,1.633923 2.640845,2.536523 0.823226,0.937406 1.675004,1.849767 2.519996,2.767778 0.873298,1.002142 1.764913,1.987798 2.645812,2.983193 0.891322,1.09026 1.842923,2.126764 2.83403,3.12643 1.054252,1.0233 2.153646,1.995854 3.279716,2.939032 1.214787,1.060986 2.517218,2.014518 3.805423,2.983098 1.394519,1.027776 2.797125,2.044293 4.185792,3.079935 1.424111,1.061587 2.889468,2.063735 4.366782,3.049342 1.571612,1.061897 3.176871,2.07269 4.773204,3.096765 1.687727,1.057308 3.416294,2.046876 5.129477,3.061723 1.649891,0.97823 3.339965,1.885429 5.011235,2.826113 1.695269,0.958001 3.440969,1.823139 5.20564,2.64486 1.860769,0.789815 3.735725,1.545472 5.598882,2.329803 1.826925,0.694763 3.60542,1.506133 5.410914,2.25245 1.757003,0.740864 3.544935,1.406492 5.351,2.01717 1.929424,0.595602 3.871946,1.147601 5.830317,1.63985 1.931971,0.472933 3.874356,0.901904 5.816255,1.331782 1.899733,0.40017 3.811373,0.754996 5.728213,1.064147 1.96455,0.334808 3.94021,0.591483 5.91686,0.841481 1.8689,0.266341 3.74633,0.475335 5.62748,0.632814 1.53964,0.173898 3.08524,0.275087 4.63344,0.325501 0.98595,-0.0097 1.96672,0.06736 2.94788,0.152471 0.161,-0.02471 0.46503,0.132003 0.57943,-0.01075 0,0 -2.4682,1.87261 -2.4682,1.87261 l 0,0 c -0.19411,-0.05394 -0.39573,-0.06702 -0.59475,-0.09569 -0.95498,-0.112301 -1.91257,-0.173179 -2.87443,-0.182335 -1.53902,-0.0734 -3.07492,-0.190536 -4.6063,-0.362731 -1.87464,-0.177951 -3.74669,-0.387607 -5.61043,-0.657788 -1.98105,-0.247682 -3.95877,-0.517852 -5.92833,-0.84632 -1.91992,-0.315933 -3.835537,-0.668243 -5.737741,-1.077541 -1.940924,-0.430543 -3.881022,-0.866332 -5.810515,-1.345911 -1.965672,-0.496752 -3.917493,-1.047116 -5.852577,-1.652508 -1.811738,-0.613597 -3.606146,-1.279343 -5.36557,-2.031124 -1.800336,-0.753352 -3.58209,-1.55099 -5.400786,-2.260362 C 72.169764,57.70537 70.289842,56.952 68.430488,56.149982 66.656626,55.327771 64.904677,54.455978 63.202612,53.492723 61.530528,52.55169 59.839661,51.643707 58.193062,50.658025 56.476795,49.643877 54.752671,48.642381 53.061628,47.586259 51.454178,46.570397 49.84625,45.554564 48.266378,44.496094 46.785673,43.506247 45.315937,42.501267 43.887517,41.436761 42.496065,40.403306 41.093838,39.384686 39.696175,38.359642 38.396596,37.394179 37.092035,36.432 35.866578,35.372547 34.732726,34.423523 33.622782,33.448301 32.564463,32.414958 31.570374,31.409794 30.615818,30.368046 29.714272,29.27858 28.836159,28.282439 27.938438,27.304084 27.063306,26.305293 26.219811,25.385198 25.361725,24.47806 24.538612,23.539809 23.713344,22.642605 22.79568,21.838116 21.899829,21.012716 21.106245,20.198225 20.324646,19.369599 19.478627,18.608664 18.79416,17.961333 18.142348,17.281205 17.479784,16.611675 16.992006,16.122967 16.497093,15.640388 15.951048,15.21611 15.605663,14.97154 15.26525,14.720189 14.937846,14.45194 14.698407,14.268598 14.456385,14.088686 14.216711,13.905695 14.081031,13.8059 13.941337,13.707917 13.784747,13.647854 13.669833,13.577373 13.573718,13.545046 13.462305,13.486857 13.357684,13.335 13.352388,13.333799 13.35442,13.181582 c 0.345151,0.499553 0.169825,0.20343 0.05216,0.127133 -0.155925,-0.100108 -0.306159,-0.20956 -0.436039,-0.342712 -0.288921,-0.31909 -0.600464,-0.616494 -0.852501,-0.968235 C 11.667169,11.44059 11.226805,10.875831 10.797047,10.301939 10.33764,9.6914338 9.8874639,9.0769724 9.4761802,8.4325359 9.1127811,7.918504 8.7713032,7.3866492 8.327958,6.9353132 c 0,0 2.643937,-1.5802322 2.643937,-1.5802322 z"
       inkscape:connector-curvature="0"
       transform="translate(6.6292965,907.95565)" />
    <path
       style="fill:#800000;fill-opacity:1;stroke:#050101;stroke-width:1.10000002;stroke-miterlimit:0.30000001;stroke-opacity:1;stroke-dasharray:none"
       id="path4784"
       d="m 7.983441,75.686755 c 0.09615,-0.615935 0.1740766,-1.234227 0.2696793,-1.850672 0.096226,-0.601068 0.2045504,-1.200084 0.3057191,-1.800505 0.1395411,-0.792114 0.3121136,-1.578108 0.4993659,-2.360189 0.2436253,-0.937183 0.5131045,-1.867053 0.7680946,-2.801143 0.2988731,-1.110305 0.6771861,-2.196816 1.0459701,-3.285223 0.437157,-1.330793 0.936086,-2.640678 1.450297,-3.943345 0.493295,-1.253737 1.030552,-2.48974 1.581549,-3.719047 0.582542,-1.234174 1.275647,-2.409074 1.97335,-3.580161 0.791228,-1.322778 1.603822,-2.63325 2.444669,-3.925051 0.923582,-1.468544 1.97324,-2.850663 3.050363,-4.208516 0.994974,-1.284569 2.066547,-2.505341 3.17486,-3.692423 1.11628,-1.229011 2.341695,-2.343626 3.625703,-3.393017 2.055436,-1.561251 4.307818,-2.869318 6.657607,-3.935777 1.474916,-0.59468 2.986902,-1.090597 4.48734,-1.615796 1.465853,-0.533559 2.915933,-1.109004 4.382555,-1.641447 1.202483,-0.501891 2.394956,-1.027238 3.605792,-1.508859 1.126861,-0.438749 2.293547,-0.765102 3.447619,-1.123412 1.375037,-0.345863 2.756182,-0.666744 4.134601,-0.99875 1.67626,-0.448055 3.376411,-0.781574 5.081696,-1.095494 1.89991,-0.385239 3.809205,-0.7157 5.72008,-1.040681 2.060235,-0.321541 4.128777,-0.58027 6.195348,-0.856184 2.255685,-0.257745 4.503836,-0.573754 6.755923,-0.860212 2.268893,-0.30974 4.544063,-0.575752 6.823699,-0.792914 2.411871,-0.18028 4.822235,-0.385475 7.227329,-0.64121 2.504299,-0.217096 4.99568,-0.547952 7.48391,-0.89967 2.7075,-0.369594 5.39828,-0.843191 8.0713,-1.408833 2.91945,-0.646923 5.80278,-1.441222 8.6808,-2.249349 2.92833,-0.859679 5.822,-1.831498 8.68962,-2.874585 1.84243,-0.726829 3.70528,-1.410524 5.51137,-2.226325 1.01475,-0.458362 1.51647,-0.731943 2.50185,-1.238703 -0.7783,0.5539 3.09288,-1.766022 2.3455,-1.2811808 -0.42735,0.2772291 -0.86981,0.5328289 -1.3254,0.7606828 -0.37151,0.1858024 0.71676,-0.4200616 1.07265,-0.6342739 0.68018,-0.4094138 1.35522,-0.8273382 2.03519,-1.2371241 1.65283,-0.9880597 3.28039,-2.0164343 4.87642,-3.0936214 0.50108,-0.3299843 0.9974,-0.6668361 1.49002,-1.0092803 0,0 2.79324,-1.0994901 2.79324,-1.0994901 l 0,0 c -0.50685,0.353702 -1.01828,0.7004823 -1.53891,1.0337649 -1.62413,1.0875474 -3.27081,2.1395821 -4.95126,3.1386853 -2.9708,1.7761286 -5.91603,3.6032226 -8.99775,5.1846456 -1.04565,0.528027 -1.42483,0.735498 -2.50235,1.214242 -1.80597,0.802396 -3.66227,1.486486 -5.50372,2.201004 -2.87445,1.038512 -5.77332,2.010703 -8.70888,2.863236 -2.88506,0.807186 -5.77619,1.598625 -8.70282,2.243084 -2.68647,0.563721 -5.38962,1.041813 -8.10966,1.414132 -2.492305,0.354678 -4.989377,0.67332 -7.497348,0.897 -2.411356,0.252405 -4.827319,0.458056 -7.244114,0.650856 -2.277089,0.227204 -4.550881,0.489168 -6.818219,0.799505 -2.254701,0.28931 -4.506195,0.602506 -6.763863,0.868513 -2.071272,0.280565 -4.144366,0.547494 -6.208423,0.878751 -1.913258,0.327589 -3.823495,0.668304 -5.726604,1.051275 -1.710967,0.32397 -3.413766,0.680171 -5.097588,1.127083 -1.385876,0.337661 -2.7764,0.658944 -4.152198,1.036027 -1.15141,0.357951 -2.313787,0.690062 -3.432886,1.142307 -1.20127,0.486206 -2.38676,1.010392 -3.592357,1.485882 -1.460699,0.531447 -2.904663,1.107092 -4.369568,1.626538 -1.50117,0.522462 -3.012505,1.023964 -4.477015,1.643983 -0.873648,0.410856 -3.38534,1.81501 0.417288,-0.360798 0.233893,-0.13383 -0.467921,0.267861 -0.694906,0.413098 -0.415819,0.266062 -0.95578,0.667233 -1.353808,0.956237 -1.283287,1.034507 -2.517489,2.123946 -3.624221,3.349454 -1.116715,1.18339 -2.20652,2.392856 -3.204481,3.679455 -1.079964,1.343545 -2.132284,2.713309 -3.046693,4.176759 -0.843412,1.281748 -1.644415,2.591941 -2.435742,3.906413 -0.684726,1.167363 -1.379731,2.328782 -1.97562,3.545414 -0.557118,1.226358 -1.087804,2.465013 -1.598251,3.711474 -0.513756,1.292678 -1.011474,2.593741 -1.434886,3.919058 -0.361928,1.080662 -0.736363,2.158842 -1.034395,3.259308 -0.247352,0.930194 -0.513362,1.854927 -0.75442,2.786751 -0.192315,0.770939 -0.361256,1.549231 -0.486251,2.333924 -0.117277,0.594645 -0.185795,1.199449 -0.307823,1.79364 -0.09892,0.61034 -0.205744,1.21864 -0.23722,1.837468 0,0 -2.768717,1.353612 -2.768717,1.353612 z"
       inkscape:connector-curvature="0"
       transform="translate(6.6292965,907.95565)" />
    <path
       style="fill:#b3b3b3;fill-opacity:1;stroke:#050101;stroke-width:1.10000001999999997;stroke-miterlimit:0.30000000999999998;stroke-opacity:1;stroke-dasharray:none"
       id="path4786"
       d="m 105.73378,4.1236242 c -0.19826,-0.5830586 -0.37321,-1.1710633 -0.48817,-1.7763608 -0.0585,-0.3440197 -0.0942,-0.6906021 -0.11593,-1.0386181 -0.0669,-1.13928052 -0.0116,-0.38234611 2.75092,-1.41519274 0.0717,-0.0268167 -0.007,0.15307321 -0.006,0.22964524 0.001,0.10218069 0.008,0.2042246 0.0116,0.3063369 0.10393,1.5097513 0.28414,3.0135057 0.42304,4.5205167 0.17083,2.2717414 0.28097,4.5476599 0.44696,6.8197696 0.0258,0.325624 0.0517,0.651247 0.0775,0.97687 0,0 -2.57728,1.336375 -2.57728,1.336375 l 0,0 c -0.0208,-0.328546 -0.0416,-0.657091 -0.0624,-0.985636 -0.14525,-2.270217 -0.23982,-4.5442798 -0.44532,-6.8103544 -0.16144,-1.4879979 -0.37225,-2.9686081 -0.56616,-4.4521827 -0.0194,-0.1571728 -0.0708,-0.5236613 -0.0475,-0.5386275 3.39782,-2.1873933 2.79,-2.5616387 2.74768,-1.39832433 -0.006,0.33952516 0.0147,0.67930423 0.06,1.01590628 0.0941,0.59208315 0.2395,1.17626295 0.48953,1.72373605 0,0 -2.69842,1.4861408 -2.69842,1.4861408 z"
       inkscape:connector-curvature="0"
       transform="translate(6.6292965,907.95565)" />
    <path
       style="fill:#b3b3b3;fill-opacity:1;stroke:#050101;stroke-width:1.10000001999999997;stroke-miterlimit:0.30000000999999998;stroke-opacity:1;stroke-dasharray:none"
       id="path4788"
       d="m 109.12396,16.526384 c -0.0455,1.23777 -0.0496,2.476765 -0.0636,3.715202 -0.002,0.313298 -0.005,0.626595 -0.007,0.939892 0,0 -2.59577,1.322615 -2.59577,1.322615 l 0,0 c -0.002,-0.310952 -0.005,-0.621904 -0.007,-0.932856 -0.0139,-1.216814 -0.0177,-2.434229 -0.0636,-3.650344 0,0 2.73687,-1.394509 2.73687,-1.394509 z"
       inkscape:connector-curvature="0"
       transform="translate(6.6292965,907.95565)" />
    <path
       style="fill:#b3b3b3;fill-opacity:1;stroke:#050101;stroke-width:1.10000001999999997;stroke-miterlimit:0.30000000999999998;stroke-opacity:1;stroke-dasharray:none"
       id="path4790"
       d="m 108.31113,28.078615 c 0.0753,1.32846 0.12939,2.658633 0.18204,3.988346 0.0112,0.359308 0.0223,0.718616 0.0334,1.077925 0,0 -2.56464,1.319112 -2.56464,1.319112 l 0,0 c -0.0162,-0.355453 -0.0323,-0.710906 -0.0485,-1.06636 -0.0781,-1.293057 -0.15944,-2.589916 -0.32485,-3.874716 0,0 2.72251,-1.444307 2.72251,-1.444307 z"
       inkscape:connector-curvature="0"
       transform="translate(6.6292965,907.95565)" />
    <path
       style="fill:#b3b3b3;fill-opacity:1;stroke:#050101;stroke-width:1.10000001999999997;stroke-miterlimit:0.30000000999999998;stroke-opacity:1;stroke-dasharray:none"
       id="path4792"
       d="m 108.51701,41.008827 c 0.0709,1.254149 0.0124,2.510727 -0.0164,3.765282 0,0 -2.5839,1.31161 -2.5839,1.31161 l 0,0 c 0.009,-1.215642 0.0569,-2.441766 -0.1187,-3.648611 0,0 2.71903,-1.428281 2.71903,-1.428281 z"
       inkscape:connector-curvature="0"
       transform="translate(6.6292965,907.95565)" />
    <path
       style="fill:#b3b3b3;fill-opacity:1;stroke:#050101;stroke-width:1.10000001999999997;stroke-miterlimit:0.30000000999999998;stroke-opacity:1;stroke-dasharray:none"
       id="path4794"
       d="m 109.13988,52.428006 c 0.0723,1.413558 0.16172,2.825727 0.21563,4.24025 0,0 -2.58132,1.33032 -2.58132,1.33032 l 0,0 c -0.0755,-1.384103 -0.17587,-2.767194 -0.35335,-4.142289 0,0 2.71904,-1.428281 2.71904,-1.428281 z"
       inkscape:connector-curvature="0"
       transform="translate(6.6292965,907.95565)" />
    <path
       style="fill:#b3b3b3;fill-opacity:1;stroke:#050101;stroke-width:1.10000001999999997;stroke-miterlimit:0.30000000999999998;stroke-opacity:1;stroke-dasharray:none"
       id="path4796"
       d="m 110.17798,61.355728 c 0.16236,1.529332 0.29056,3.060214 0.37926,4.595597 0.008,0.357769 0.0162,0.715539 0.0244,1.073309 0,0 -2.56776,1.31585 -2.56776,1.31585 l 0,0 c -0.008,-0.353355 -0.0168,-0.70671 -0.0252,-1.060065 -0.1021,-1.505916 -0.23076,-3.014795 -0.52972,-4.49641 0,0 2.71903,-1.428281 2.71903,-1.428281 z"
       inkscape:connector-curvature="0"
       transform="translate(6.6292965,907.95565)" />
    <path
       style="fill:#b3b3b3;fill-opacity:1;stroke:#050101;stroke-width:1.10000001999999997;stroke-miterlimit:0.30000000999999998;stroke-opacity:1;stroke-dasharray:none"
       id="path4798"
       d="m 110.16207,72.791793 c -0.0332,1.223945 -0.12659,2.444975 -0.18148,3.668133 -0.018,0.291003 -0.0361,0.582006 -0.0541,0.873009 0,0 -2.61626,1.314051 -2.61626,1.314051 l 0,0 c 0.0155,-0.287537 0.0309,-0.575074 0.0463,-0.862611 0.0375,-1.19861 0.12,-2.399182 0.0686,-3.598073 0,0 2.73688,-1.394509 2.73688,-1.394509 z"
       inkscape:connector-curvature="0"
       transform="translate(6.6292965,907.95565)" />
    <path
       style="fill:#ff0000;fill-opacity:1;stroke:#050101;stroke-width:1.10000002;stroke-miterlimit:0.30000001;stroke-opacity:1;stroke-dasharray:none"
       id="path4802"
       d="m 45.795181,37.04186 c 0.672005,-0.994606 1.558867,-1.819902 2.437438,-2.627847 0.750448,-0.668501 1.539167,-1.29152 2.325451,-1.916694 0,0 2.685004,-1.07619 2.685004,-1.07619 l 0,0 c -0.778269,0.615622 -1.558914,1.22908 -2.303423,1.885797 -0.839243,0.762351 -1.677476,1.548439 -2.32569,2.485609 0,0 -2.81878,1.249325 -2.81878,1.249325 z"
       inkscape:connector-curvature="0"
       transform="translate(6.6292965,907.95565)" />
    <path
       style="fill:#ff0000;fill-opacity:1;stroke:#050101;stroke-width:1.10000002;stroke-miterlimit:0.30000001;stroke-opacity:1;stroke-dasharray:none"
       id="path4804"
       d="m 52.484121,40.10746 c 1.219448,-1.349604 2.61515,-2.52354 3.995656,-3.702262 1.034968,-0.870315 2.07966,-1.728835 3.117618,-2.595573 0,0 2.618547,-1.057353 2.618547,-1.057353 l 0,0 c -1.033132,0.864076 -2.07387,1.718849 -3.104011,2.586497 -1.317913,1.130399 -2.658292,2.253009 -3.799798,3.567138 0,0 -2.828012,1.201553 -2.828012,1.201553 z"
       inkscape:connector-curvature="0"
       transform="translate(6.6292965,907.95565)" />
    <path
       style="fill:#ff0000;fill-opacity:1;stroke:#050101;stroke-width:1.10000002;stroke-miterlimit:0.30000001;stroke-opacity:1;stroke-dasharray:none"
       id="path4806"
       d="m 56.027861,44.466609 c 1.580131,-1.197935 3.10708,-2.46486 4.648493,-3.711945 2.697622,-2.236536 5.481955,-4.358191 8.38032,-6.327214 1.657729,-1.066062 0.846454,-0.561645 2.431092,-1.51764 0,0 2.63334,-1.015017 2.63334,-1.015017 l 0,0 c -1.633779,0.961891 -0.799569,0.45418 -2.499841,1.527707 -2.900545,1.939714 -5.683076,4.040383 -8.352335,6.288881 -1.462488,1.203002 -2.909604,2.427516 -4.391737,3.605148 0,0 -2.849332,1.15008 -2.849332,1.15008 z"
       inkscape:connector-curvature="0"
       transform="translate(6.6292965,907.95565)" />
    <path
       style="fill:#ff0000;fill-opacity:1;stroke:#050101;stroke-width:1.10000002;stroke-miterlimit:0.30000001;stroke-opacity:1;stroke-dasharray:none"
       id="path4808"
       d="m 65.221227,47.739482 c 2.120856,-1.918532 4.344273,-3.715712 6.588909,-5.486056 2.422498,-1.901127 4.927941,-3.690882 7.454816,-5.449294 0,0 2.449018,-0.963321 2.449018,-0.963321 l 0,0 c -2.526977,1.743986 -5.031259,3.521636 -7.441441,5.425683 -2.133237,1.700598 -4.267657,3.410341 -6.218676,5.321707 0,0 -2.832626,1.151281 -2.832626,1.151281 z"
       inkscape:connector-curvature="0"
       transform="translate(6.6292965,907.95565)" />
    <path
       style="fill:#ff0000;fill-opacity:1;stroke:#050101;stroke-width:1.10000002;stroke-miterlimit:0.30000001;stroke-opacity:1;stroke-dasharray:none"
       id="path4810"
       d="m 73.853841,52.171984 c 1.651371,-1.310775 3.258099,-2.678773 4.868095,-4.040089 2.118101,-1.754637 1.030033,-0.866865 3.265918,-2.661211 0,0 2.456713,-0.986785 2.456713,-0.986785 l 0,0 c -2.187892,1.767275 -1.12627,0.892823 -3.187016,2.620743 -1.512566,1.30937 -3.027717,2.61712 -4.545122,3.920168 0,0 -2.858588,1.147174 -2.858588,1.147174 z"
       inkscape:connector-curvature="0"
       transform="translate(6.6292965,907.95565)" />
    <path
       style="fill:#ff0000;fill-opacity:1;stroke:#050101;stroke-width:1.10000002;stroke-miterlimit:0.30000001;stroke-opacity:1;stroke-dasharray:none"
       id="path4812"
       d="m 85.147028,55.436246 c 1.61777,-1.168611 3.242874,-2.326951 4.873998,-3.476837 0,0 2.561929,-1.010735 2.561929,-1.010735 l 0,0 c -1.544867,1.098935 -3.085685,2.204324 -4.591587,3.35642 0,0 -2.84434,1.131152 -2.84434,1.131152 z"
       inkscape:connector-curvature="0"
       transform="translate(6.6292965,907.95565)" />
    <path
       style="fill:#ff0000;fill-opacity:1;stroke:#050101;stroke-width:1.10000002;stroke-miterlimit:0.30000001;stroke-opacity:1;stroke-dasharray:none"
       id="path4814"
       d="m 82.158698,33.486055 c 0.989163,-0.703974 2.003152,-1.372624 3.012603,-2.046984 0,0 2.686907,-1.052558 2.686907,-1.052558 l 0,0 c -0.951509,0.644278 -1.900557,1.29245 -2.840921,1.952368 0,0 -2.858589,1.147174 -2.858589,1.147174 z"
       inkscape:connector-curvature="0"
       transform="translate(6.6292965,907.95565)" />
    <path
       style="fill:#ff0000;fill-opacity:1;stroke:#050101;stroke-width:1.10000002;stroke-miterlimit:0.30000001;stroke-opacity:1;stroke-dasharray:none"
       id="path4816"
       d="m 87.564935,40.327826 c 1.476512,-1.450383 3.147353,-2.680649 4.786239,-3.937398 1.818128,-1.379468 0.897257,-0.692216 2.763073,-2.061141 0,0 2.547639,-1.009895 2.547639,-1.009895 l 0,0 c -1.850861,1.354854 -0.94035,0.674013 -2.732245,2.041571 -1.552,1.20445 -3.156159,2.369541 -4.522276,3.789491 0,0 -2.84243,1.177372 -2.84243,1.177372 z"
       inkscape:connector-curvature="0"
       transform="translate(6.6292965,907.95565)" />
    <path
       style="fill:#ff0000;fill-opacity:1;stroke:#050101;stroke-width:1.10000002;stroke-miterlimit:0.30000001;stroke-opacity:1;stroke-dasharray:none"
       id="path4818"
       d="m 91.697493,46.780481 c 1.277279,-1.341459 2.730289,-2.513496 4.146544,-3.704979 1.489735,-1.182742 0.742581,-0.600187 2.241229,-1.747962 0,0 2.611574,-1.04104 2.611574,-1.04104 l 0,0 c -1.499996,1.139461 -0.754619,0.562569 -2.23608,1.730739 -1.344544,1.141042 -2.717086,2.272726 -3.930766,3.553089 0,0 -2.832501,1.210153 -2.832501,1.210153 z"
       inkscape:connector-curvature="0"
       transform="translate(6.6292965,907.95565)" />
    <path
       style="fill:#ff0000;fill-opacity:1;stroke:#050101;stroke-width:1.10000002;stroke-miterlimit:0.30000001;stroke-opacity:1;stroke-dasharray:none"
       id="path4820"
       d="m 95.48922,60.218475 c 1.176011,-1.203954 2.493052,-2.26159 3.798036,-3.320826 0,0 2.678774,-1.077004 2.678774,-1.077004 l 0,0 c -1.25848,1.018646 -2.526524,2.037636 -3.654051,3.203135 0,0 -2.822759,1.194695 -2.822759,1.194695 z"
       inkscape:connector-curvature="0"
       transform="translate(6.6292965,907.95565)" />
    <path
       style="fill:#ff0000;fill-opacity:1;stroke:#050101;stroke-width:1.10000002;stroke-miterlimit:0.30000001;stroke-opacity:1;stroke-dasharray:none"
       id="path4822"
       d="m 76.541128,30.586009 c 0.624796,-0.771678 1.430695,-1.361658 2.22141,-1.950024 0,0 2.76513,-1.097419 2.76513,-1.097419 l 0,0 c -0.758665,0.556983 -1.550031,1.106875 -2.154038,1.83729 0,0 -2.832502,1.210153 -2.832502,1.210153 z"
       inkscape:connector-curvature="0"
       transform="translate(6.6292965,907.95565)" />
    <path
       style="fill:#ff0000;fill-opacity:1;stroke:#050101;stroke-width:1.10000001999999997;stroke-miterlimit:0.30000000999999998;stroke-opacity:1;stroke-dasharray:none"
       id="path4824"
       d="m 92.527978,30.378388 c 0.615572,-0.650714 1.40854,-1.099959 2.15811,-1.576516 0,0 2.75447,-1.071443 2.75447,-1.071443 l 0,0 c -0.709538,0.454815 -1.442339,0.882064 -2.080078,1.437806 0,0 -2.832502,1.210153 -2.832502,1.210153 z"
       inkscape:connector-curvature="0"
       transform="translate(6.6292965,907.95565)" />
    <path
       style="fill:#ff0000;fill-opacity:1;stroke:#050101;stroke-width:1.10000002;stroke-miterlimit:0.30000001;stroke-opacity:1;stroke-dasharray:none"
       id="path4826"
       d="m 87.904028,35.223444 c 0.02415,-0.535994 -0.08276,-1.066736 -0.131464,-1.599091 -0.04812,-0.530909 -0.125442,-1.062386 -0.225805,-1.586213 -0.08629,-0.44834 -0.243624,-0.87777 -0.468949,-1.274113 -0.212245,-0.338211 -0.464593,-0.648877 -0.744065,-0.933644 -0.259254,-0.24845 -0.581849,-0.44672 -0.916104,-0.579401 -0.369051,-0.08441 -0.728011,-0.198418 -1.10287,-0.259501 -0.405738,-0.05497 -0.815898,-0.05849 -1.224603,-0.06222 -0.461389,0.01253 -0.927913,-0.04171 -1.384145,0.03696 -0.440129,0.08358 -0.860254,0.25142 -1.282257,0.399164 -0.934336,0.486015 -2.291261,1.255129 2.010856,-1.164318 0.07463,-0.04197 -0.143639,0.09345 -0.212306,0.144602 -0.17609,0.131171 -0.208215,0.173429 -0.365147,0.327751 -0.42178,0.429676 -0.651743,0.97547 -0.841831,1.535629 -0.228941,0.697375 -0.288616,1.430257 -0.329951,2.158225 -0.0068,0.728905 0.0896,1.450651 0.248524,2.16034 0.176967,0.624591 0.315034,1.263265 0.537449,1.87374 0.181933,0.59968 0.476513,1.151099 0.819645,1.672145 0.343517,0.528133 0.804293,0.948329 1.272626,1.361328 0.538813,0.448492 1.120785,0.839654 1.69667,1.237868 0.612028,0.433055 1.24384,0.827391 1.910792,1.169271 0.656035,0.340059 1.317485,0.669397 1.970342,1.015599 0.588739,0.329544 1.133293,0.733112 1.666708,1.14468 0.519919,0.391655 0.907355,0.923285 1.276681,1.452208 0.30792,0.486161 0.594799,0.985773 0.913549,1.46494 0.272067,0.390272 0.435422,0.837569 0.638742,1.262963 0.122167,0.272403 0.243059,0.542542 0.378368,0.808636 0.136112,0.272336 0.115857,0.546658 0.03971,0.83056 -0.60799,1.225044 -2.199228,1.660851 -3.474354,2.018362 -0.467892,0.115733 -0.952971,0.116693 -1.431912,0.128414 -0.660445,-0.05655 -1.314158,-0.152104 -1.956686,-0.315481 -0.714891,-0.143156 -1.420607,-0.324083 -2.129569,-0.492976 -0.798141,-0.192408 -1.576329,-0.441125 -2.340043,-0.741324 -0.837055,-0.339383 -1.683051,-0.653252 -2.511442,-1.014518 -0.778796,-0.361882 -1.493696,-0.849212 -2.174761,-1.369009 -0.400487,-0.31127 -0.79552,-0.625839 -1.160182,-0.979112 -0.970346,-0.750835 2.158217,-2.580739 2.602056,-1.529419 0,0 -2.682396,1.533621 -2.682396,1.533621 l 0,0 c -0.592268,-1.055694 2.060108,-2.608281 2.715027,-1.61319 0.328313,0.362262 0.708602,0.665638 1.090216,0.969633 0.660474,0.508131 1.356692,0.97598 2.120857,1.315223 0.827837,0.353927 1.671535,0.666146 2.506368,1.002758 0.761718,0.284242 1.539917,0.510882 2.330596,0.700511 0.709002,0.173421 1.420135,0.335068 2.133689,0.488486 0.63132,0.137993 1.27417,0.23773 1.921875,0.240254 0.47114,-0.02141 0.946164,-0.0505 1.396698,-0.202686 0.122313,-0.04084 0.247426,-0.07385 0.367411,-0.121089 0.05046,-0.01987 0.19338,-0.09789 0.146768,-0.07018 -4.219447,2.508501 -3.171002,1.870623 -2.273801,1.343191 0.118688,-0.182302 0.170099,-0.392317 0.07864,-0.596106 -0.128089,-0.272286 -0.254621,-0.541805 -0.365634,-0.821845 -0.191108,-0.415038 -0.344252,-0.850025 -0.603854,-1.231185 -0.3151,-0.477745 -0.595111,-0.977545 -0.900004,-1.461868 -0.359609,-0.500535 -0.720382,-1.011043 -1.226592,-1.375779 -0.522558,-0.399007 -1.056811,-0.789026 -1.635411,-1.103531 -0.653139,-0.342405 -1.306106,-0.685398 -1.96464,-1.017246 -0.672702,-0.354611 -1.308958,-0.766554 -1.933515,-1.199928 -0.586113,-0.405222 -1.178002,-0.804194 -1.723507,-1.264174 -0.486194,-0.433052 -0.960271,-0.877565 -1.314415,-1.430513 -0.353348,-0.541628 -0.668521,-1.108936 -0.856503,-1.731431 -0.229031,-0.622038 -0.367589,-1.273929 -0.54746,-1.911169 -0.175204,-0.734234 -0.262872,-1.482198 -0.283693,-2.237005 0.03252,-0.748273 0.08881,-1.501087 0.287373,-2.226553 0.181422,-0.586401 0.374774,-1.168835 0.770659,-1.652433 0.999054,-1.131296 2.417412,-1.812176 3.809085,-2.372349 0.429072,-0.152266 0.868177,-0.295668 1.323155,-0.341249 0.469911,-0.02292 0.940886,-0.01 1.411229,-0.0097 0.41993,0.0098 0.841615,0.02457 1.255262,0.104215 0.388276,0.08219 0.777899,0.179016 1.149677,0.317633 0.354056,0.180298 0.700373,0.392514 0.976506,0.681421 0.286192,0.31273 0.558679,0.636464 0.780019,0.999375 0.238226,0.424879 0.407771,0.886944 0.504602,1.364584 0.112329,0.531746 0.183569,1.077251 0.238365,1.617174 0.04821,0.538038 0.138466,1.07189 0.169454,1.610687 0,0 -2.746379,1.39935 -2.746379,1.39935 z"
       inkscape:connector-curvature="0"
       transform="translate(6.6292965,907.95565)" />
    <path
       style="fill:#ff0000;fill-opacity:1;stroke:#050101;stroke-width:1.10000002;stroke-miterlimit:0.30000001;stroke-opacity:1;stroke-dasharray:none"
       id="path4828"
       d="m 16.321933,93.501846 c -0.0097,0.349577 -0.006,0.699609 0.0027,1.049199 0.08552,1.058207 2.298409,-0.588163 -2.748797,1.319838 -0.06636,0.02509 0.0039,-0.141833 0.0055,-0.212759 0.0053,-0.237367 0.006,-0.331433 0.0094,-0.576394 0.04202,-0.733043 -0.08252,-1.43873 -0.436685,-2.082143 -0.393755,-0.607912 -0.856532,-0.877019 -1.572421,-0.90638 -0.30248,0.04233 -0.365575,0.02641 -0.647503,0.169819 -0.110228,0.05607 -0.421166,0.259082 -0.312741,0.199599 0.754613,-0.413991 1.482775,-0.877132 2.251918,-1.263459 0.134446,-0.06753 -0.232214,0.192427 -0.336153,0.301205 -0.11362,0.118911 -0.209821,0.253324 -0.314732,0.379985 -0.642533,0.951482 -0.908705,2.045508 -0.949722,3.177895 0.0067,1.190168 0.39536,2.128428 1.090787,3.070909 0.756276,0.931568 1.798365,1.503915 2.833213,2.06681 1.12038,0.59284 2.314775,1.02261 3.491481,1.48645 0.975648,0.41112 1.720035,0.85552 2.368584,1.69864 0.47028,0.75169 0.36024,1.37674 -0.04222,2.12085 -1.213135,1.62165 -3.176166,2.58078 -5.086548,3.16783 -1.219056,0.33728 -2.458441,0.35556 -3.701577,0.1823 -1.129473,-0.22796 -2.124873,-0.76573 -3.0546638,-1.4245 -0.6327425,-0.41629 -1.1299626,-0.99315 -1.6254385,-1.55752 -0.1102354,-0.12596 -0.2200176,-0.25232 -0.3284998,-0.3798 0,0 2.66443,-1.58553 2.66443,-1.58553 l 0,0 c 0.091387,0.13285 0.1879671,0.26202 0.2877621,0.38868 0.45275,0.56424 0.928587,1.11915 1.539264,1.51963 0.893946,0.63381 1.859887,1.13194 2.953165,1.31586 1.222612,0.14042 2.44277,0.0807 3.62497,-0.29218 1.045916,-0.37677 2.996427,-1.44038 -1.03962,0.80388 -0.140799,0.0783 0.26173,-0.18825 0.386628,-0.29001 0.118018,-0.0961 0.23513,-0.19431 0.341501,-0.30321 0.09693,-0.0992 0.177801,-0.21295 0.266702,-0.31943 0.392065,-0.5665 0.603977,-1.16451 0.212073,-1.7976 -0.60414,-0.77812 -1.339118,-1.21359 -2.246362,-1.58606 -1.181725,-0.47599 -2.381732,-0.91639 -3.507678,-1.51815 -1.072086,-0.58212 -2.134165,-1.2056 -2.9097764,-2.172867 -0.7511839,-1.017155 -1.1396764,-1.963421 -1.1856437,-3.243373 0.011215,-1.194306 0.2592597,-2.294679 0.8546695,-3.341443 0.9605416,-1.371425 1.5511326,-1.360473 3.5259256,-2.50598 0.329696,-0.191245 0.699613,-0.251532 1.074905,-0.229898 0.778994,0.131308 1.302063,0.477736 1.725953,1.154728 0.372671,0.681117 0.544013,1.431887 0.519975,2.210631 0.0027,0.189826 0.03988,0.75795 0.01492,0.773948 -4.819139,3.089163 -2.829472,2.560725 -2.748797,1.481326 0.0085,-0.350518 0.01254,-0.701477 0.0027,-1.051976 0,0 2.746379,-1.39935 2.746379,-1.39935 z"
       inkscape:connector-curvature="0"
       transform="translate(6.6292965,907.95565)" />
    <path
       style="fill:#ff0000;fill-opacity:1;stroke:#050101;stroke-width:1.10000002;stroke-miterlimit:0.30000001;stroke-opacity:1;stroke-dasharray:none"
       id="path4830"
       d="m 31.085706,98.752414 c 0.873083,0.02321 1.74662,0.02378 2.619955,0.02694 0.693376,0.0018 1.38673,-0.0026 2.080074,-0.0085 0,0 -2.443017,1.774959 -2.443017,1.774959 l 0,0 c -0.685503,-0.006 -1.371016,-0.0103 -2.056551,-0.009 -0.89806,0.003 -1.796295,0.004 -2.694121,0.0269 0,0 2.49366,-1.811746 2.49366,-1.811746 z"
       inkscape:connector-curvature="0"
       transform="translate(6.6292965,907.95565)" />
    <path
       style="fill:#ff0000;fill-opacity:1;stroke:#050101;stroke-width:1.10000002;stroke-miterlimit:0.30000001;stroke-opacity:1;stroke-dasharray:none"
       id="path4832"
       d="m 31.108385,102.07592 c 0.84785,0.0221 1.696179,0.0199 2.544263,0.0206 0.512909,0.0289 1.025196,0.0675 1.537698,0.10265 0,0 -2.444652,1.75027 -2.444652,1.75027 l 0,0 c -0.508107,-0.036 -1.016246,-0.0773 -1.525828,-0.0854 -0.866944,6.6e-4 -1.734103,-0.001 -2.600829,0.0206 0,0 2.489348,-1.80862 2.489348,-1.80862 z"
       inkscape:connector-curvature="0"
       transform="translate(6.6292965,907.95565)" />
    <path
       style="fill:#ff0000;fill-opacity:1;stroke:#050101;stroke-width:1.10000002;stroke-miterlimit:0.30000001;stroke-opacity:1;stroke-dasharray:none"
       id="path4834"
       d="m 54.431671,83.811518 c -0.542157,-0.33333 -1.108009,-0.177248 -1.648031,0.06622 -1.309768,0.788581 0.885695,-0.537977 1.825568,-1.014968 0.149182,-0.07571 -0.264593,0.205491 -0.387254,0.319253 -0.424628,0.393819 -0.778861,0.852789 -1.129744,1.310491 -0.799619,1.084598 -1.171816,2.183175 -1.346299,3.50553 -0.136855,1.563103 0.420561,3.003932 1.080197,4.386589 0.869461,1.711159 2.04748,3.229526 3.216598,4.741309 1.247553,1.56435 2.457149,3.155714 3.574931,4.815554 0.61995,0.96269 1.207626,1.954 1.616665,3.02747 0.248651,0.65256 0.256509,0.77642 0.420195,1.45014 0.284378,1.28527 0.309607,2.58358 0.174642,3.88586 -0.09121,1.00742 -0.433892,1.93144 -0.980475,2.7748 -0.939439,1.12538 -2.312691,2.07246 -3.770081,2.3089 -0.321784,0.0522 -0.462563,0.0183 -0.789606,-0.0103 -0.936984,-0.23081 -1.807208,-0.67103 -2.664726,-1.1035 -0.134311,-0.0735 -0.268622,-0.14708 -0.402933,-0.22062 0,0 2.526632,-1.64883 2.526632,-1.64883 l 0,0 c 0.130639,0.0717 0.261278,0.14331 0.391918,0.21497 0.828385,0.41467 1.677814,0.8547 2.60456,0.98627 0.328429,-0.008 0.423858,0.0128 0.733929,-0.0813 0.110886,-0.0336 0.420595,-0.19163 0.322267,-0.13033 -4.254799,2.65278 -2.461328,1.62408 -1.724347,0.88974 0.594043,-0.78011 0.960771,-1.67323 1.074058,-2.65179 0.03243,-0.27642 0.10761,-0.87723 0.121072,-1.15405 0.04327,-0.88985 -0.07399,-1.78159 -0.218878,-2.65708 -0.145162,-0.63279 -0.163255,-0.79933 -0.386094,-1.41448 -0.384935,-1.06262 -0.96024,-2.04174 -1.563408,-2.99246 -1.097226,-1.66426 -2.301041,-3.25191 -3.545616,-4.808571 -1.186942,-1.524937 -2.389592,-3.051412 -3.281674,-4.774959 -0.688085,-1.424071 -1.288665,-2.900018 -1.190489,-4.515996 0.137918,-1.381345 0.473893,-2.484022 1.266143,-3.639979 1.349481,-1.881298 2.379574,-2.61046 4.818832,-3.666997 0.672251,-0.210021 1.221643,-0.231833 1.850087,0.128212 0,0 -2.588639,1.674898 -2.588639,1.674898 z"
       inkscape:connector-curvature="0"
       transform="translate(6.6292965,907.95565)" />
    <path
       style="fill:#ff0000;fill-opacity:1;stroke:#050101;stroke-width:1.10000002;stroke-miterlimit:0.30000001;stroke-opacity:1;stroke-dasharray:none"
       id="path4836"
       d="m 57.951395,120.10216 c -0.414982,-0.34079 -0.869635,-0.59529 -1.383022,-0.74939 -0.533703,-0.16906 -0.986314,-0.008 -1.461907,0.23684 -1.104024,0.69299 0.42526,-0.27181 2.097181,-1.18441 0.08591,-0.0469 -0.156323,0.11837 -0.228041,0.18498 -0.224771,0.20876 -0.373199,0.44458 -0.516349,0.712 -0.230433,0.48372 -0.277312,0.95556 -0.02016,1.42952 0.380879,0.39624 0.934968,0.4045 1.432173,0.26706 1.052906,-0.45263 0.861455,-0.38264 -2.034761,1.1851 -0.104114,0.0564 0.198047,-0.13078 0.288414,-0.20727 0.281128,-0.23794 0.479637,-0.52426 0.673779,-0.83226 0.142137,-0.30756 0.322367,-0.63493 0.352056,-0.98063 3.844848,-2.08067 2.065784,-1.99197 3.199991,-0.83288 0.161221,0.16476 0.323475,0.28704 0.503396,0.43363 0.784698,0.57153 1.704876,0.7804 2.646733,0.91464 0.697653,0.0252 0.34984,0.0311 1.043446,-0.0171 0,0 -2.420016,1.77466 -2.420016,1.77466 l 0,0 c -0.717314,0.0143 -0.357671,0.0243 -1.078904,-0.0309 -0.984592,-0.16597 -1.942696,-0.4222 -2.758298,-1.02832 -0.333752,-0.2607 -0.618264,-0.51622 -0.874001,-0.85356 -0.03433,-0.0453 -0.151392,-0.1035 -0.104101,-0.13501 0.851481,-0.5673 1.76321,-1.0385 2.644815,-1.55776 -0.164604,0.32009 -0.159199,0.77192 -0.377007,1.07823 -0.834821,1.53326 -2.421841,2.49596 -4.138801,2.92259 -0.630049,0.0551 -1.240852,-0.0523 -1.654872,-0.57641 -0.296102,-0.54704 -0.33587,-1.10617 -0.100236,-1.69116 0.692266,-1.62378 2.146068,-2.04585 3.814323,-2.86979 0.537092,-0.20509 1.052924,-0.2683 1.604257,-0.0577 0.528076,0.20137 1.001594,0.49532 1.458231,0.82695 0,0 -2.60832,1.63835 -2.60832,1.63835 z"
       inkscape:connector-curvature="0"
       transform="translate(6.6292965,907.95565)" />
    <path
       style="fill:#ff0000;fill-opacity:1;stroke:#050101;stroke-width:1.10000002;stroke-miterlimit:0.30000001;stroke-opacity:1;stroke-dasharray:none"
       id="path4838"
       d="m 49.274197,66.359906 c -0.06953,-0.428234 -0.05832,-0.877959 -0.161158,-1.300093 0.938035,-0.430162 1.843005,-0.941322 2.814103,-1.290486 0.08231,-0.02959 0.05494,0.166113 0.0797,0.250001 0.209632,0.710231 0.38167,1.43255 0.564443,2.149938 0.349899,1.386909 0.667271,2.780238 1.047305,4.159673 0.103331,0.271719 0.349617,1.503678 0.563152,1.683297 0.01833,0.01542 0.0479,-4.41e-4 0.07186,-6.62e-4 -0.05955,0.0019 0.255611,-0.261403 0.17434,-0.216762 -0.832462,0.457258 -1.646576,0.947158 -2.471129,1.418529 -0.06978,0.03989 0.137746,-0.08287 0.206765,-0.124066 0.0836,-0.04989 0.166767,-0.100515 0.251079,-0.149188 0.96516,-0.557189 1.931543,-1.112257 2.897314,-1.668385 0.816638,-0.407599 1.699648,-0.42245 2.582327,-0.291001 0.755974,0.226542 1.555924,0.581328 2.065096,1.214129 0.09105,0.113157 0.156555,0.244681 0.234833,0.367022 0.288611,0.620452 0.370231,1.362469 -0.102092,1.922444 -0.08529,0.101116 -0.196316,0.177354 -0.294475,0.266031 -0.9923,0.556831 -1.959628,1.160713 -2.976901,1.670493 -0.147091,0.07371 -0.324908,0.0558 -0.489092,0.0664 -0.822161,0.0531 -1.602076,-0.181263 -2.372687,-0.435259 -0.935891,-0.383019 -1.827539,-0.864928 -2.705211,-1.364725 0,0 2.517319,-1.634906 2.517319,-1.634906 l 0,0 c 0.851628,0.497713 1.719674,0.979015 2.646142,1.3244 0.586247,0.171023 1.16808,0.338679 1.785793,0.337974 1.201741,-0.0014 2.829026,-1.183707 -1.222885,1.15518 0.793643,-0.47709 0.939632,-0.908907 0.597621,-1.783818 -0.06459,-0.104282 -0.116604,-0.217491 -0.193766,-0.312844 -0.473943,-0.585678 -1.238969,-0.889235 -1.949159,-1.050993 -0.871697,-0.08263 -1.720244,0.0077 -2.489325,0.462385 0.772787,-0.446937 1.545454,-0.894081 2.31836,-1.340813 0.147856,-0.08546 -0.292161,0.176964 -0.439889,0.262646 -0.931466,0.540247 -1.854894,1.094817 -2.797507,1.615371 -0.149154,0.08237 -0.233429,0.01278 -0.36968,-0.04049 -0.450587,-0.437847 -0.461868,-1.360343 -0.658046,-1.931654 -0.346604,-1.388204 -0.669031,-2.782358 -1.033401,-4.165698 -0.162023,-0.578524 -0.32066,-1.158369 -0.511308,-1.728356 -0.03941,-0.117841 -0.08083,-0.235054 -0.125104,-0.351157 -0.02661,-0.06978 -0.150218,-0.165758 -0.08748,-0.206274 0.867116,-0.559965 1.809653,-0.993458 2.71448,-1.490188 -0.02151,-0.01247 -0.04645,-0.05448 -0.06454,-0.03742 -0.107825,0.101659 0.09734,0.97992 0.104004,1.15381 0,0 -2.721196,1.435514 -2.721196,1.435514 z"
       inkscape:connector-curvature="0"
       transform="translate(6.6292965,907.95565)" />
    <path
       style="fill:#ff0000;fill-opacity:1;stroke:#050101;stroke-width:1.10000002;stroke-miterlimit:0.30000001;stroke-opacity:1;stroke-dasharray:none"
       id="path4840"
       d="m 73.74681,90.097462 c -0.28639,-0.586893 -0.723867,-1.10696 -1.30836,-1.404796 -0.101119,-0.01956 -0.200378,-0.05702 -0.303358,-0.05868 -0.254541,-0.0041 -0.377191,0.08633 -0.601957,0.191045 0.762437,-0.421629 1.503978,-0.88348 2.287311,-1.264887 0.142674,-0.06947 -0.243913,0.204561 -0.350698,0.321944 -0.121887,0.133983 -0.221925,0.286322 -0.332888,0.429483 -0.650813,1.134287 -0.896268,2.475125 -0.83011,3.776324 0.01687,0.33182 0.07393,0.660371 0.110902,0.990556 0.337036,2.225252 1.35138,4.143206 2.580963,5.99152 0.869546,1.257615 1.862639,2.421715 2.805447,3.623535 0,0 -2.593406,1.53616 -2.593406,1.53616 l 0,0 c -0.869071,-1.25721 -1.848353,-2.43393 -2.700364,-3.70355 -1.222125,-1.875791 -2.282086,-3.865529 -2.657674,-6.100449 -0.04628,-0.338603 -0.1119,-0.67512 -0.138832,-1.015808 -0.105132,-1.329962 0.107801,-2.696815 0.67376,-3.905818 1.001844,-1.525257 1.112799,-1.226879 3.546414,-2.542258 0.328329,-0.177463 0.741243,-0.04821 1.054325,0.07467 0.60152,0.382921 1.075772,0.921217 1.433814,1.537738 0,0 -2.675289,1.523268 -2.675289,1.523268 z"
       inkscape:connector-curvature="0"
       transform="translate(6.6292965,907.95565)" />
    <path
       style="fill:#ff0000;fill-opacity:1;stroke:#050101;stroke-width:1.10000002;stroke-miterlimit:0.30000001;stroke-opacity:1;stroke-dasharray:none"
       id="path4842"
       d="m 69.750862,98.888515 c 1.583132,-0.315825 3.185899,-0.527711 4.787627,-0.724686 1.513663,-0.189721 0.755117,-0.10026 2.275648,-0.268288 0,0 -2.301156,1.711508 -2.301156,1.711508 l 0,0 c -1.520267,0.173262 -0.760641,0.08103 -2.278877,0.27671 -1.650399,0.223681 -3.305729,0.454231 -4.92303,0.860211 0,0 2.439788,-1.855455 2.439788,-1.855455 z"
       inkscape:connector-curvature="0"
       transform="translate(6.6292965,907.95565)" />
    <path
       style="fill:#ff0000;fill-opacity:1;stroke:#050101;stroke-width:1.10000002;stroke-miterlimit:0.30000001;stroke-opacity:1;stroke-dasharray:none"
       id="path4844"
       d="m 85.212768,93.801437 c -0.07227,0.03166 -0.147903,0.05654 -0.2168,0.09498 -0.08747,0.04881 -0.338414,0.213964 -0.250585,0.165818 0.766197,-0.420011 1.504447,-0.892147 2.286491,-1.281855 0.141132,-0.07033 -0.240447,0.204719 -0.350862,0.317293 -0.292534,0.298251 -0.449689,0.528947 -0.704441,0.864628 -0.676014,0.985361 -1.145542,2.10392 -1.301967,3.293457 -0.03394,0.258103 -0.04049,0.519073 -0.06073,0.77861 -0.0089,1.25989 0.393441,2.45809 1.333265,3.32926 0.184183,0.17072 0.395014,0.31024 0.59252,0.46536 0.896888,0.49241 0.433137,0.26875 1.392374,0.66864 0,0 -2.44856,1.63192 -2.44856,1.63192 l 0,0 c -0.991438,-0.43512 -0.511669,-0.19048 -1.439911,-0.73272 -0.206661,-0.16826 -0.427356,-0.32061 -0.619984,-0.50477 -0.981178,-0.93804 -1.42942,-2.1991 -1.441605,-3.538483 0.01465,-0.268214 0.01578,-0.537511 0.04395,-0.804643 0.128068,-1.214353 0.563281,-2.368526 1.207813,-3.400583 0.20105,-0.285933 0.433875,-0.632077 0.662051,-0.900704 0.96127,-1.131687 2.397945,-1.764787 3.7497,-2.336181 0,0 -2.43272,1.889971 -2.43272,1.889971 z"
       inkscape:connector-curvature="0"
       transform="translate(6.6292965,907.95565)" />
    <path
       style="fill:#ff0000;fill-opacity:1;stroke:#050101;stroke-width:1.10000002;stroke-miterlimit:0.30000001;stroke-opacity:1;stroke-dasharray:none"
       id="path4846"
       d="m 92.55626,95.268525 c 1.099253,0.303358 2.157742,0.733836 3.218025,1.149635 0.738921,0.30959 1.481551,0.610005 2.22539,0.907518 0,0 -2.447233,1.638568 -2.447233,1.638568 l 0,0 c -0.741694,-0.301275 -1.481501,-0.607195 -2.225703,-0.902259 -1.072574,-0.408797 -2.155582,-0.836696 -3.293357,-1.023393 0,0 2.522878,-1.770069 2.522878,-1.770069 z"
       inkscape:connector-curvature="0"
       transform="translate(6.6292965,907.95565)" />
    <path
       style="fill:#ff0000;fill-opacity:1;stroke:#050101;stroke-width:1.10000002;stroke-miterlimit:0.30000001;stroke-opacity:1;stroke-dasharray:none"
       id="path4848"
       d="m 96.186018,96.562988 c -1.342763,0.77905 1.336276,-0.776339 1.699676,-0.967767 0.227986,-0.120097 -0.430857,0.282882 -0.64262,0.429705 -0.787911,0.546291 -1.528158,1.137125 -2.261621,1.753636 -1.104681,1.039703 -2.307108,2.054116 -2.996153,3.431798 0,0 -2.744512,1.24493 -2.744512,1.24493 l 0,0 c 0.688777,-1.4441 1.914248,-2.50225 3.055465,-3.589068 1.920576,-1.667739 3.98086,-3.095791 6.284517,-4.218809 0,0 -2.394752,1.915575 -2.394752,1.915575 z"
       inkscape:connector-curvature="0"
       transform="translate(6.6292965,907.95565)" />
    <path
       style="fill:#ff0000;fill-opacity:1;stroke:#050101;stroke-width:1.10000002;stroke-miterlimit:0.30000001;stroke-opacity:1;stroke-dasharray:none"
       id="path4850"
       d="m 101.15687,91.228362 c 1.39897,0.650046 2.61059,1.588711 3.76648,2.595617 1.25768,1.194039 2.21503,2.658294 2.51083,4.390399 0.0558,0.32689 0.0636,0.660187 0.0954,0.990281 -0.0144,1.543091 -0.51211,3.009581 -1.53838,4.175251 -0.1792,0.20354 -0.3847,0.38233 -0.57706,0.57349 0,0 -2.71967,1.11809 -2.71967,1.11809 l 0,0 c 0.19927,-0.18023 0.41085,-0.34771 0.59781,-0.54068 1.05115,-1.08496 1.6064,-2.4824 1.66044,-3.98528 -0.0238,-0.31804 -0.023,-0.63888 -0.0713,-0.954122 -0.2579,-1.681782 -1.19,-3.094317 -2.4213,-4.231801 -1.16936,-0.985489 -2.40142,-1.908065 -3.853415,-2.436696 0,0 2.550135,-1.694549 2.550135,-1.694549 z"
       inkscape:connector-curvature="0"
       transform="translate(6.6292965,907.95565)" />
    <path
       style="fill:#ff0000;fill-opacity:1;stroke:#050101;stroke-width:1.10000002;stroke-miterlimit:0.30000001;stroke-opacity:1;stroke-dasharray:none"
       id="path4852"
       d="m 118.46268,99.743533 c 0.41888,-0.655215 0.22251,-1.121178 -0.17343,-1.719445 -0.78134,-0.788089 -1.40918,-0.831398 -2.43569,-0.52817 -1.52483,0.790999 1.10034,-0.678849 1.68191,-0.958403 0.1653,-0.07946 -0.28911,0.227528 -0.41686,0.359124 -0.41097,0.423346 -0.61908,0.908381 -0.82622,1.448883 -0.2389,0.862295 -0.19661,1.805308 0.43767,2.496718 0.11549,0.12589 0.2593,0.22251 0.38895,0.33377 0.67058,0.38614 1.45823,0.40081 2.17102,0.094 0.21596,-0.093 0.82417,-0.45217 0.61263,-0.34956 -0.64069,0.31075 -1.26735,0.64965 -1.90102,0.97447 1.75492,-1.73587 2.40421,-4.043705 2.95687,-6.376 0.45843,-2.285454 0.40536,-4.627617 -0.0609,-6.906792 -0.0752,-0.367606 -0.17734,-0.729185 -0.26601,-1.093777 -0.21427,-0.797527 -0.50188,-1.572422 -0.84838,-2.321408 -0.12559,-0.271465 -0.25268,-0.609995 -0.49455,-0.802991 0.88993,-0.436394 1.76431,-0.906035 2.66978,-1.309182 0.056,-0.02493 -0.0804,0.09992 -0.0898,0.16049 -0.0222,0.142738 -0.01,0.289086 -0.003,0.433364 0.0384,0.768818 0.20369,1.51299 0.36597,2.262616 0.56633,2.284812 1.36947,4.505482 2.27623,6.675176 0.76027,1.773761 1.58173,3.545946 2.76713,5.08273 0.20603,0.267108 0.43537,0.515401 0.65306,0.773101 0.23067,0.226903 0.46134,0.453807 0.69202,0.68071 0,0 -2.47546,1.517163 -2.47546,1.517163 l 0,0 c -0.23279,-0.236 -0.46559,-0.47201 -0.69838,-0.70802 -0.21866,-0.266639 -0.4489,-0.524186 -0.65598,-0.799916 -1.17761,-1.568015 -1.99808,-3.360955 -2.76269,-5.155486 -0.914,-2.178776 -1.73026,-4.403837 -2.3667,-6.680433 -0.22603,-0.902743 -0.42909,-1.795562 -0.53218,-2.721295 -0.0132,-0.118724 -0.1354,-0.291848 -0.035,-0.356656 0.88954,-0.574476 1.88535,-0.964718 2.82803,-1.447077 0.20331,0.290692 0.32601,0.61501 0.45491,0.945263 0.30732,0.787365 0.58014,1.588849 0.78127,2.410569 0.60907,2.714171 0.86138,5.385388 0.32894,8.144266 -0.51151,2.321486 -1.12368,4.682585 -2.75416,6.496265 -1.04672,0.65792 -2.07919,1.33908 -3.14017,1.97375 -0.74395,0.44502 -1.70462,0.59994 -2.52436,0.26895 -0.17668,-0.0713 -0.3308,-0.18916 -0.4962,-0.28375 -0.14116,-0.13056 -0.29705,-0.24681 -0.4235,-0.39168 -0.67117,-0.76896 -0.7904,-1.78994 -0.56396,-2.753567 0.15213,-0.468411 0.19082,-0.670965 0.43721,-1.100079 0.85773,-1.493883 2.68676,-2.237789 4.22051,-2.838253 0.1716,-0.03223 0.34089,-0.08121 0.51481,-0.09669 0.84445,-0.07516 1.58901,0.298244 2.14115,0.91748 0.44237,0.648348 0.7204,1.228361 0.38306,2.000427 0,0 -2.81878,1.249325 -2.81878,1.249325 z"
       inkscape:connector-curvature="0"
       transform="translate(6.6292965,907.95565)" />
    <path
       style="fill:#ff0000;fill-opacity:1;stroke:#050101;stroke-width:1.10000002;stroke-miterlimit:0.30000001;stroke-opacity:1;stroke-dasharray:none"
       id="path4854"
       d="m 137.44423,91.944492 c 1.39074,0.53952 2.57766,1.502157 3.74194,2.412745 1.42403,1.151507 2.85156,2.295746 4.311,3.402134 0,0 -2.49467,1.572924 -2.49467,1.572924 l 0,0 c -1.43439,-1.128691 -2.83838,-2.294024 -4.26847,-3.427881 -1.02632,-0.77257 -2.17714,-1.712357 -3.42044,-2.108374 -0.12204,-0.03887 -0.25092,-0.05153 -0.37638,-0.0773 0,0 2.50702,-1.77425 2.50702,-1.77425 z"
       inkscape:connector-curvature="0"
       transform="translate(6.6292965,907.95565)" />
    <path
       style="fill:#ff0000;fill-opacity:1;stroke:#050101;stroke-width:1.10000002;stroke-miterlimit:0.30000001;stroke-opacity:1;stroke-dasharray:none"
       id="path4856"
       d="m 144.80012,92.76333 c -0.0868,0.03929 -0.3427,0.165955 -0.26044,0.117859 4.72957,-2.765282 2.27921,-1.342027 1.64219,-0.883764 -0.85351,0.614006 -1.61882,1.327932 -2.39013,2.039258 -2.28654,2.163871 -4.36047,4.537606 -6.41802,6.916227 -0.32137,0.37125 -0.64274,0.7425 -0.96411,1.11375 0,0 -2.57604,1.08793 -2.57604,1.08793 l 0,0 c 0.32705,-0.37349 0.6541,-0.74698 0.98116,-1.12047 2.05337,-2.358666 4.10554,-4.725686 6.34158,-6.914947 1.80215,-1.736645 3.66157,-3.356569 6.07653,-4.245814 0,0 -2.43272,1.889971 -2.43272,1.889971 z"
       inkscape:connector-curvature="0"
       transform="translate(6.6292965,907.95565)" />
  </g>
</svg>
