<?xml version="1.0" encoding="UTF-8" standalone="no"?>
<!-- Created with Inkscape (http://www.inkscape.org/) -->

<svg
   xmlns:dc="http://purl.org/dc/elements/1.1/"
   xmlns:cc="http://creativecommons.org/ns#"
   xmlns:rdf="http://www.w3.org/1999/02/22-rdf-syntax-ns#"
   xmlns:svg="http://www.w3.org/2000/svg"
   xmlns="http://www.w3.org/2000/svg"
   xmlns:sodipodi="http://sodipodi.sourceforge.net/DTD/sodipodi-0.dtd"
   xmlns:inkscape="http://www.inkscape.org/namespaces/inkscape"
   width="320"
   height="154.95"
   id="svg2"
   version="1.1"
   inkscape:version="0.48.3.1 r9886"
   inkscape:export-filename="integral.png"
   inkscape:export-xdpi="150"
   inkscape:export-ydpi="150"
   sodipodi:docname="graf.svg">
  <defs
     id="defs4" />
  <sodipodi:namedview
     id="base"
     pagecolor="#9fffa7"
     bordercolor="#666666"
     borderopacity="1.0"
     inkscape:pageopacity="0"
     inkscape:pageshadow="2"
     inkscape:zoom="3.43125"
     inkscape:cx="160"
     inkscape:cy="67.975708"
     inkscape:document-units="px"
     inkscape:current-layer="layer1"
     showgrid="false"
     inkscape:window-width="1231"
     inkscape:window-height="776"
     inkscape:window-x="49"
     inkscape:window-y="24"
     inkscape:window-maximized="1"
     fit-margin-top="0"
     fit-margin-left="0"
     fit-margin-right="0"
     fit-margin-bottom="0" />
  <metadata
     id="metadata7">
    <rdf:RDF>
      <cc:Work
         rdf:about="">
        <dc:format>image/svg+xml</dc:format>
        <dc:type
           rdf:resource="http://purl.org/dc/dcmitype/StillImage" />
        <dc:title></dc:title>
      </cc:Work>
    </rdf:RDF>
  </metadata>
  <g
     inkscape:label="Layer 1"
     inkscape:groupmode="layer"
     id="layer1"
     transform="translate(-6.6292965,-876.95567)">
    <path
       style="fill:#aa4400;fill-opacity:1;stroke:#050101;stroke-width:0;stroke-miterlimit:4;stroke-opacity:1;stroke-dasharray:none"
       id="path4577"
       d="m 49.019581,144.73526 c -0.452469,-1.19112 -0.57323,-2.4743 -0.733033,-3.72924 -0.194948,-1.88096 -0.396279,-3.76137 -0.655791,-5.63463 -0.240434,-1.96193 -0.475689,-3.9242 -0.730882,-5.88431 -0.293378,-1.98449 -0.543435,-3.97404 -0.791758,-5.96438 -0.284846,-2.09688 -0.639155,-4.18299 -0.979214,-6.27135 -0.388785,-2.18905 -0.756248,-4.38188 -1.076798,-6.58198 -0.367738,-2.23816 -0.672343,-4.48428 -0.932087,-6.73741 -0.332557,-2.44279 -0.487324,-4.901337 -0.581163,-7.363102 -0.07534,-2.400725 -0.07782,-4.802897 -0.08104,-7.204555 0.0029,-2.25056 0.0184,-4.499723 -0.08215,-6.74837 -0.104238,-2.22943 -0.147507,-4.460127 -0.265564,-6.688901 -0.13485,-2.31992 -0.183491,-4.643278 -0.212413,-6.96652 -0.02525,-2.420673 -0.0131,-4.841503 -0.0116,-7.26225 -0.0024,-2.418943 2.74e-4,-4.837902 -0.0082,-7.256834 -0.0043,-2.265604 -0.0013,-4.531215 -3.7e-5,-6.796821 -0.03967,-2.252759 0.0266,-4.501636 0.122199,-6.751825 0.08911,-2.149932 0.118877,-4.300483 0.229673,-6.449489 0.107451,-1.820391 0.152699,-3.643256 0.180261,-5.466308 8.89e-4,-1.450013 0.135697,-2.895693 0.215382,-4.342769 0.132808,-1.398965 0.254313,-2.797816 0.316677,-4.201843 0.003,-1.190043 0.06655,-2.372793 0.175203,-3.557308 0.04569,-1.180828 -0.03839,-2.361828 -0.08308,-3.541559 -0.08128,-0.955602 -0.210793,-1.906016 -0.292343,-2.861773 -0.05292,-0.390286 -0.148629,-0.7725712 -0.269011,-1.1469985 0,0 3.811712,-2.0777698 3.811712,-2.0777698 l 0,0 c 0.104649,0.4131838 0.199334,0.8295873 0.260992,1.2516132 0.05873,0.9669088 0.170895,1.9280281 0.27185,2.8911811 0.03547,1.196814 0.101948,2.39324 0.09739,3.590753 -0.09251,1.183011 -0.201291,2.362099 -0.199454,3.550545 -0.06362,1.405014 -0.171097,2.805923 -0.31616,4.204949 -0.07084,1.448047 -0.23337,2.891174 -0.245624,4.341562 -0.03464,1.836298 -0.109802,3.671391 -0.221969,5.504643 -0.121303,2.148383 -0.14895,4.298612 -0.235941,6.448524 -0.107175,2.246132 -0.186952,4.491504 -0.141749,6.74086 0.0012,2.265794 0.0041,4.531593 -9.01e-4,6.797384 -0.0094,2.422395 -0.0085,4.844822 -0.01233,7.26723 0.0012,2.416282 0.0086,4.832579 0.02699,7.248795 0.02712,2.31735 0.07199,4.634996 0.208594,6.948938 0.123905,2.22846 0.179055,4.458465 0.276801,6.688175 0.09481,2.256992 0.0954,4.51313 0.07466,6.771984 5.7e-5,2.399385 -0.0033,4.799232 0.06166,7.197946 0.08534,2.44968 0.235351,4.897542 0.582847,7.326093 0.257581,2.2481 0.563403,4.48872 0.939213,6.72023 0.313723,2.19882 0.672316,4.3912 1.068493,6.57665 0.351286,2.0895 0.714916,4.17674 1.006118,6.27573 0.249032,1.98896 0.494752,3.9777 0.798488,5.95941 0.246883,1.95993 0.491713,3.91992 0.726896,5.88121 0.261889,1.86937 0.475921,3.74508 0.687838,5.62065 0.165632,1.19239 0.284345,2.43455 0.775667,3.54502 0,0 -3.755314,2.13822 -3.755314,2.13822 z"
       inkscape:connector-curvature="0"
       transform="translate(6.6292965,876.95567)" />
    <path
       style="fill:#aa4400;fill-opacity:1;stroke:#050101;stroke-width:0;stroke-miterlimit:4;stroke-opacity:1;stroke-dasharray:none"
       id="path4579"
       d="m 35.358532,26.064173 c -0.175268,-1.538347 0.191638,-3.057406 0.541004,-4.543926 0.569869,-2.407515 1.280847,-4.776876 1.889124,-7.174462 0.42569,-1.797893 0.955313,-3.567946 1.481344,-5.3382008 0.263958,-0.8396802 0.529445,-1.7070885 1.101498,-2.3920647 1.425099,-1.121801 2.989318,-2.7162759 4.856049,-2.583448 0.458118,0.032598 0.558002,0.09337 1.018911,0.2319556 1.903702,0.728881 3.417325,2.1347291 4.836975,3.5514545 2.159011,2.172391 3.961379,4.6508874 5.704619,7.1581984 1.443752,2.068254 2.815737,4.18525 4.237257,6.268485 0.719296,1.060156 1.414517,2.135203 2.181497,3.1619 0,0 -3.652673,2.159386 -3.652673,2.159386 l 0,0 C 58.816062,25.511997 58.149085,24.414872 57.445723,23.340256 56.066877,21.233794 54.728747,19.100295 53.305125,17.023166 51.580766,14.53038 49.789714,12.069098 47.600074,9.956453 46.181741,8.6092859 44.663249,7.2541319 42.749279,6.6818138 42.33663,6.6101204 42.188769,6.5483385 41.786198,6.6009481 c -0.112926,0.014758 -0.427072,0.1477204 -0.330157,0.087906 5.845531,-3.6077957 4.202774,-2.4269658 2.901365,-1.7070199 -0.725193,0.5100302 -0.972435,1.425407 -1.26938,2.2203692 -0.554822,1.7821646 -1.163218,3.5498317 -1.591281,5.3691557 -0.609347,2.38798 -1.329588,4.745834 -1.866093,7.152263 -0.312285,1.405582 -0.697589,2.866356 -0.450528,4.313173 0,0 -3.821592,2.027378 -3.821592,2.027378 z"
       inkscape:connector-curvature="0"
       transform="translate(6.6292965,876.95567)" />
    <path
       style="fill:#aa4400;fill-opacity:1;stroke:#050101;stroke-width:0;stroke-miterlimit:4;stroke-opacity:1;stroke-dasharray:none"
       id="path4581"
       d="m 14.460174,125.32926 c 1.370075,-1.16239 3.433331,-2.09839 4.76341,-2.80038 0.35619,-0.18799 1.571263,-0.40757 1.982857,-0.49188 1.810582,-0.40935 3.662959,-0.52186 5.511361,-0.60186 2.182347,0.0154 4.361383,0.13107 6.538151,0.27801 2.464516,0.17176 4.934944,0.21905 7.404443,0.25235 2.929515,0.0285 5.859202,0.03 8.788825,0.0354 3.240181,0.007 6.480365,-8.4e-4 9.720546,-8.4e-4 3.162767,-0.091 6.32484,-0.19273 9.488645,-0.24137 3.321203,0.003 6.639715,-0.0857 9.9591,-0.18252 3.248475,-0.1676 6.497788,-0.30959 9.745964,-0.48197 3.18892,-0.15956 6.381264,-0.20584 9.571447,-0.33325 3.284067,-0.14613 6.569477,-0.28178 9.852297,-0.45595 3.15134,-0.19962 6.30928,-0.22524 9.45916,-0.44445 3.4021,-0.21375 6.79402,-0.54689 10.18708,-0.86732 3.48345,-0.34445 6.96879,-0.67282 10.45654,-0.97085 3.52349,-0.34664 7.05983,-0.53258 10.59108,-0.77935 3.7911,-0.25448 7.58118,-0.52677 11.36915,-0.82446 3.90417,-0.30507 7.81086,-0.57488 11.71623,-0.86345 4.25424,-0.29091 8.50993,-0.56126 12.763,-0.86923 4.35921,-0.31576 8.72254,-0.55949 13.08752,-0.77946 4.39968,-0.16862 8.79838,-0.36518 13.19958,-0.4923 4.22651,-0.10998 8.45472,-0.11827 12.68239,-0.12277 4.25688,0.0124 8.51428,-0.0453 12.77065,0.0305 4.08483,0.0482 8.16362,0.267 12.24172,0.48897 3.96506,0.23742 7.92568,0.5373 11.88723,0.82524 3.64401,0.29658 7.28661,0.6033 10.93844,0.78546 3.48694,0.18848 6.97372,0.38352 10.46189,0.54862 2.66917,0.17202 5.34084,0.30542 8.00114,0.58875 1.61163,0.12975 3.1934,0.46078 4.77856,0.76101 0,0 -3.48573,2.42732 -3.48573,2.42732 l 0,0 c -1.5407,-0.33473 -3.08811,-0.6434 -4.65952,-0.79724 -2.62746,-0.28814 -5.26578,-0.45176 -7.90244,-0.63107 -3.47757,-0.1933 -6.95496,-0.38715 -10.43313,-0.56941 -3.64799,-0.19504 -7.28663,-0.51263 -10.92789,-0.80425 -3.94844,-0.30293 -7.8963,-0.61413 -11.85003,-0.84207 -4.07413,-0.22135 -8.14949,-0.4171 -12.22981,-0.47952 -4.24967,-0.0693 -8.50029,-0.0281 -12.7504,-0.0358 -4.22819,0.0151 -8.45677,0.0311 -12.68389,0.13651 -4.392,0.12325 -8.78207,0.30613 -13.17212,0.48332 -4.3705,0.23026 -8.73937,0.4843 -13.10451,0.80159 -4.25839,0.30037 -8.51861,0.57423 -12.77658,0.88069 -3.91284,0.29336 -7.82588,0.58359 -11.73835,0.88169 -3.7915,0.29633 -7.58497,0.5681 -11.37912,0.82811 -3.53914,0.2539 -7.08232,0.46031 -10.61439,0.80392 -3.48387,0.29961 -6.96624,0.61822 -10.44551,0.96733 -3.40503,0.32644 -6.81009,0.65527 -10.22376,0.8805 -3.14947,0.20316 -6.30555,0.2462 -9.45604,0.43454 -3.28487,0.1658 -6.571421,0.30518 -9.857066,0.45327 -3.190814,0.1237 -6.383745,0.17718 -9.572961,0.34128 -3.243161,0.17317 -6.488167,0.30427 -9.7322,0.46026 -3.32542,0.10157 -6.650204,0.17909 -9.977378,0.18948 -3.165287,0.0591 -6.328983,0.16932 -9.49401,0.23688 -3.241716,0.001 -6.483438,-0.004 -9.725149,0.004 -2.944682,0.006 -5.889448,0.0142 -8.834078,-0.009 -2.484968,-0.0275 -4.970819,-0.0722 -7.450693,-0.24609 -2.17521,-0.13971 -4.354742,-0.24697 -6.535136,-0.22222 -1.851646,0.0961 -3.704539,0.25014 -5.511242,0.69182 -0.582587,0.14127 -0.836039,0.18842 -1.396198,0.37826 -0.192034,0.0651 -0.73944,0.32571 -0.568249,0.21705 5.560249,-3.52924 3.820341,-2.22049 2.568881,-1.5089 0,0 -3.999707,1.65673 -3.999707,1.65673 z"
       inkscape:connector-curvature="0"
       transform="translate(6.6292965,876.95567)" />
    <path
       style="fill:#aa4400;fill-opacity:1;stroke:#050101;stroke-width:0;stroke-miterlimit:4;stroke-opacity:1;stroke-dasharray:none"
       id="path4583"
       d="m 280.61401,105.71835 c 1.36789,0.64248 2.76184,1.2253 4.12483,1.88025 2.03221,0.91391 3.90256,2.09649 5.69213,3.41377 1.39672,1.11074 2.65646,2.37988 3.74126,3.79526 0.85136,1.15216 1.25243,2.10483 1.20996,3.54252 -0.18466,1.62485 -1.1798,2.86055 -2.23314,4.0347 -1.49611,1.56705 -3.19174,2.92669 -4.8102,4.36359 -0.87692,0.80246 -1.7013,1.6596 -2.50501,2.5346 0,0 -3.94154,1.64744 -3.94154,1.64744 l 0,0 c 0.85044,-0.88908 1.70549,-1.77464 2.603,-2.61671 1.6105,-1.42915 3.29819,-2.77954 4.80856,-4.3154 1.0113,-1.09063 2.03229,-2.22138 2.28117,-3.74417 0.14134,-1.35644 -0.26362,-2.19843 -1.0386,-3.29247 -1.04257,-1.39289 -2.2413,-2.65953 -3.61692,-3.73096 -1.76782,-1.30836 -3.62821,-2.46543 -5.65213,-3.34237 -1.38969,-0.63713 -2.80205,-1.22703 -4.24172,-1.74217 0,0 3.57835,-2.42788 3.57835,-2.42788 z"
       inkscape:connector-curvature="0"
       transform="translate(6.6292965,876.95567)" />
    <path
       style="fill:#808080;fill-opacity:1;stroke:#050101;stroke-width:0;stroke-miterlimit:4;stroke-opacity:1;stroke-dasharray:none"
       id="path4585"
       d="m 10.971167,38.972261 c 1.451307,-0.44871 2.945566,-0.710017 4.440974,-0.960008 1.607924,-0.213743 3.212668,-0.447901 4.815191,-0.698665 0,0 -3.267982,2.453309 -3.267982,2.453309 l 0,0 c -1.618792,0.257103 -3.240406,0.494225 -4.860643,0.741827 -1.525132,0.280382 -3.0668632,0.559058 -4.5126019,1.138804 0,0 3.3850619,-2.675267 3.3850619,-2.675267 z"
       inkscape:connector-curvature="0"
       transform="translate(6.6292965,876.95567)" />
    <path
       style="fill:#808080;fill-opacity:1;stroke:#050101;stroke-width:0;stroke-miterlimit:4;stroke-opacity:1;stroke-dasharray:none"
       id="path4587"
       d="m 37.528336,37.919976 c 1.736463,-0.180169 3.468894,-0.42341 5.199217,-0.661194 3.172805,-0.475689 6.353292,-0.901789 9.540104,-1.272451 0,0 -3.207878,2.389013 -3.207878,2.389013 l 0,0 c -3.21114,0.388088 -6.416378,0.825537 -9.610343,1.33683 -1.793,0.264873 -3.58667,0.524117 -5.378605,0.795571 0,0 3.457505,-2.587769 3.457505,-2.587769 z"
       inkscape:connector-curvature="0"
       transform="translate(6.6292965,876.95567)" />
    <path
       style="fill:#808080;fill-opacity:1;stroke:#050101;stroke-width:0;stroke-miterlimit:4;stroke-opacity:1;stroke-dasharray:none"
       id="path4589"
       d="m 86.413765,35.171512 c 1.329036,-0.553579 2.778121,-0.757487 4.196998,-0.938855 1.400546,-0.183653 0.685619,-0.09914 2.145036,-0.251374 0,0 -3.313817,2.464577 -3.313817,2.464577 l 0,0 c -1.470949,0.176055 -0.749842,0.08222 -2.163527,0.279924 -1.445931,0.222925 -2.925729,0.466362 -4.239279,1.14508 0,0 3.374589,-2.699352 3.374589,-2.699352 z"
       inkscape:connector-curvature="0"
       transform="translate(6.6292965,876.95567)" />
    <path
       style="fill:#808080;fill-opacity:1;stroke:#050101;stroke-width:0;stroke-miterlimit:4;stroke-opacity:1;stroke-dasharray:none"
       id="path4591"
       d="m 134.57752,35.879903 c 1.18437,-0.283562 2.40085,-0.353728 3.61256,-0.412971 2.33018,-0.160997 4.64919,-0.439976 6.9619,-0.762616 0.49198,-0.0732 0.98395,-0.146408 1.47592,-0.219613 0,0 -3.23993,2.428846 -3.23993,2.428846 l 0,0 c -0.49785,0.07603 -0.9957,0.152063 -1.49355,0.228095 -2.35438,0.336632 -4.71607,0.627896 -7.08754,0.814179 -1.2409,0.08692 -2.47394,0.225706 -3.68687,0.511849 0,0 3.45751,-2.587769 3.45751,-2.587769 z"
       inkscape:connector-curvature="0"
       transform="translate(6.6292965,876.95567)" />
    <path
       style="fill:#808080;fill-opacity:1;stroke:#050101;stroke-width:0;stroke-miterlimit:4;stroke-opacity:1;stroke-dasharray:none"
       id="path4593"
       d="m 184.08722,32.667836 c 1.13881,-0.121818 2.27612,-0.254689 3.41438,-0.387608 2.41345,-0.243736 4.82847,-0.470144 7.24301,-0.703127 0.51398,-0.04318 1.02797,-0.08636 1.54195,-0.129535 0,0 -3.24587,2.402182 -3.24587,2.402182 l 0,0 c -0.51771,0.04784 -1.03542,0.09568 -1.55313,0.143518 -2.45158,0.251846 -4.90355,0.500018 -7.35053,0.794022 -1.17081,0.146953 -2.342,0.294897 -3.5072,0.480795 0,0 3.45739,-2.600247 3.45739,-2.600247 z"
       inkscape:connector-curvature="0"
       transform="translate(6.6292965,876.95567)" />
    <path
       style="fill:#808080;fill-opacity:1;stroke:#050101;stroke-width:0;stroke-miterlimit:4;stroke-opacity:1;stroke-dasharray:none"
       id="path4595"
       d="m 230.46094,30.925441 c 1.09581,-0.129363 2.19956,-0.152532 3.30154,-0.173839 1.57737,-0.0174 3.15409,0.0097 4.73063,-0.04758 0,0 -3.34167,2.445297 -3.34167,2.445297 l 0,0 c -1.59747,0.05089 -3.19571,0.04149 -4.79332,0.09015 -1.1213,0.04044 -2.24635,0.08593 -3.35468,0.27374 0,0 3.4575,-2.587769 3.4575,-2.587769 z"
       inkscape:connector-curvature="0"
       transform="translate(6.6292965,876.95567)" />
    <path
       style="fill:#808080;fill-opacity:1;stroke:#050101;stroke-width:0;stroke-miterlimit:4;stroke-opacity:1;stroke-dasharray:none"
       id="path4597"
       d="m 273.30247,30.051124 c 1.26137,-0.06244 2.5336,0.0248 3.79767,0.0553 2.55671,0.02878 5.1137,-0.08627 7.67024,-0.133259 0.51243,-0.0077 1.02485,-0.01544 1.53728,-0.02317 0,0 -3.26535,2.380795 -3.26535,2.380795 l 0,0 c -0.51369,0.0095 -1.02737,0.01898 -1.54105,0.02847 -2.59618,0.06576 -5.19153,0.201243 -7.78855,0.199149 -1.28686,-0.01458 -2.59033,-0.103672 -3.86774,0.08048 0,0 3.4575,-2.587769 3.4575,-2.587769 z"
       inkscape:connector-curvature="0"
       transform="translate(6.6292965,876.95567)" />
    <path
       style="fill:#808080;fill-opacity:1;stroke:#050101;stroke-width:0;stroke-miterlimit:4;stroke-opacity:1;stroke-dasharray:none"
       id="path4599"
       d="m 12.255213,94.814341 c 1.893201,0.0837 3.786657,-0.06161 5.669323,-0.249322 0.443228,-0.04275 0.886455,-0.08551 1.329682,-0.128263 0,0 -3.279648,2.432813 -3.279648,2.432813 l 0,0 c -0.44716,0.04576 -0.89432,0.09151 -1.34148,0.137269 -1.948327,0.195033 -3.901219,0.325714 -5.8600741,0.337467 0,0 3.4821971,-2.529964 3.4821971,-2.529964 z"
       inkscape:connector-curvature="0"
       transform="translate(6.6292965,876.95567)" />
    <path
       style="fill:#808080;fill-opacity:1;stroke:#050101;stroke-width:0;stroke-miterlimit:4;stroke-opacity:1;stroke-dasharray:none"
       id="path4601"
       d="m 40.442726,95.624894 c 1.610426,-0.119624 3.226112,-0.129328 4.840068,-0.144648 2.849508,-0.05609 5.693048,-0.165375 8.543855,-0.13012 0,0 -3.258552,2.363847 -3.258552,2.363847 l 0,0 c -2.875167,-0.0065 -5.74348,0.122413 -8.617048,0.19576 -1.656747,0.04149 -3.323274,0.06279 -4.965828,0.30293 0,0 3.457505,-2.587769 3.457505,-2.587769 z"
       inkscape:connector-curvature="0"
       transform="translate(6.6292965,876.95567)" />
    <path
       style="fill:#808080;fill-opacity:1;stroke:#050101;stroke-width:0;stroke-miterlimit:4;stroke-opacity:1;stroke-dasharray:none"
       id="path4603"
       d="m 75.359199,96.723194 c 1.269745,-0.282074 2.579498,-0.311774 3.874364,-0.357084 2.29846,-0.02113 4.58588,-0.232012 6.865172,-0.513196 0.470055,-0.0674 0.94011,-0.134809 1.410166,-0.202214 0,0 -3.25359,2.435388 -3.25359,2.435388 l 0,0 c -0.475177,0.06808 -0.950354,0.136167 -1.425531,0.20425 -2.313197,0.290224 -4.63459,0.496035 -6.966697,0.547743 -1.314297,0.07187 -2.659485,0.117848 -3.918702,0.538072 0,0 3.414818,-2.652959 3.414818,-2.652959 z"
       inkscape:connector-curvature="0"
       transform="translate(6.6292965,876.95567)" />
    <path
       style="fill:#808080;fill-opacity:1;stroke:#050101;stroke-width:0;stroke-miterlimit:4;stroke-opacity:1;stroke-dasharray:none"
       id="path4605"
       d="m 125.84142,93.123224 c 1.07278,0.171141 2.16231,0.196417 3.24615,0.229067 1.38298,0.127094 2.76548,0.226642 4.15445,0.224376 0,0 -3.3685,2.446024 -3.3685,2.446024 l 0,0 c -1.4073,-0.0095 -2.80861,-0.104124 -4.21256,-0.196303 -1.12218,-0.03272 -2.24648,-0.07446 -3.36091,-0.218511 0,0 3.54137,-2.484653 3.54137,-2.484653 z"
       inkscape:connector-curvature="0"
       transform="translate(6.6292965,876.95567)" />
    <path
       style="fill:#808080;fill-opacity:1;stroke:#050101;stroke-width:0;stroke-miterlimit:4;stroke-opacity:1;stroke-dasharray:none"
       id="path4607"
       d="m 168.94889,90.321149 c 1.16942,-0.207591 2.37463,-0.159006 3.55894,-0.158009 1.97945,0.0039 3.9583,0.05461 5.93724,9.66e-4 2.32766,-0.09157 4.65638,-0.144007 6.98548,-0.178713 0,0 -3.26912,2.384095 -3.26912,2.384095 l 0,0 c -2.3462,0.04889 -4.69169,0.118033 -7.03624,0.220499 -2.00704,0.05494 -4.01478,0.03494 -6.02243,0.05015 -1.19293,0.01497 -2.41916,-0.02457 -3.57452,0.314749 0,0 3.42065,-2.633734 3.42065,-2.633734 z"
       inkscape:connector-curvature="0"
       transform="translate(6.6292965,876.95567)" />
    <path
       style="fill:#808080;fill-opacity:1;stroke:#050101;stroke-width:0;stroke-miterlimit:4;stroke-opacity:1;stroke-dasharray:none"
       id="path4609"
       d="m 210.06729,88.4602 c 1.00572,0.161535 2.02666,0.193375 3.04304,0.224811 1.7546,0.250486 3.50888,0.180575 5.26994,0.0747 0,0 -3.32845,2.449975 -3.32845,2.449975 l 0,0 c -1.79781,0.115343 -3.58732,0.141033 -5.38271,-0.04207 -1.04982,-0.0379 -2.10063,-0.08698 -3.1432,-0.222768 0,0 3.54138,-2.484653 3.54138,-2.484653 z"
       inkscape:connector-curvature="0"
       transform="translate(6.6292965,876.95567)" />
    <path
       style="fill:#808080;fill-opacity:1;stroke:#050101;stroke-width:0;stroke-miterlimit:4;stroke-opacity:1;stroke-dasharray:none"
       id="path4611"
       d="m 247.67424,86.94109 c 1.09536,0.02161 2.19107,0.02434 3.28661,0.03015 1.94577,0.01483 3.8916,0.02057 5.83742,0.02442 0,0 -3.34408,2.429613 -3.34408,2.429613 l 0,0 c -1.96823,0.0039 -3.93645,0.0097 -5.90464,0.02442 -1.12321,0.0059 -2.24658,0.0089 -3.36961,0.03015 0,0 3.4943,-2.538761 3.4943,-2.538761 z"
       inkscape:connector-curvature="0"
       transform="translate(6.6292965,876.95567)" />
    <path
       style="fill:#808080;fill-opacity:1;stroke:#050101;stroke-width:0;stroke-miterlimit:4;stroke-opacity:1;stroke-dasharray:none"
       id="path4613"
       d="m 279.73253,86.94109 c 1.02421,-0.0227 2.03947,0.08226 3.05834,0.168203 1.25721,0.10064 2.51716,0.14212 3.77753,0.105661 0,0 -3.37791,2.466485 -3.37791,2.466485 l 0,0 c -1.2855,0.0241 -2.57162,-0.0078 -3.85403,-0.105833 -1.03156,-0.08431 -2.06262,-0.151695 -3.09824,-0.09575 0,0 3.49431,-2.538761 3.49431,-2.538761 z"
       inkscape:connector-curvature="0"
       transform="translate(6.6292965,876.95567)" />
    <path
       style="fill:#ff0000;fill-opacity:1;stroke:#050101;stroke-width:0;stroke-miterlimit:4;stroke-opacity:1;stroke-dasharray:none"
       id="path4615"
       d="m 10.415348,66.39298 c 0.182987,0.713916 0.471594,1.393516 0.657978,2.10655 0.170792,0.575476 0.320915,1.155771 0.540547,1.715151 0.229135,0.552618 0.461557,1.103403 0.719087,1.643332 0.248538,0.496805 0.513771,0.981369 0.799612,1.457084 0.206161,0.436306 0.493535,0.827271 0.726023,1.248703 0.21563,0.321106 0.454536,0.623626 0.686922,0.933445 0.236149,0.376215 0.523381,0.718377 0.751911,1.100183 0.227153,0.400169 0.495193,0.772429 0.754713,1.150944 0.245382,0.325886 0.45122,0.674645 0.667695,1.019494 0.163441,0.390621 0.424586,0.723898 0.63733,1.085442 0.203375,0.347002 0.414824,0.686687 0.621221,1.031921 0.198062,0.314705 0.423876,0.60976 0.58965,0.943218 0.223412,0.361601 0.443108,0.724198 0.650758,1.09507 0.234745,0.396787 0.399363,0.822727 0.67638,1.193489 0.279089,0.47271 0.579537,0.924187 0.903265,1.368203 0.348354,0.426248 0.680425,0.86534 1.061476,1.26295 0.380569,0.336857 0.798319,0.626785 1.193308,0.946449 0.379639,0.283477 0.807439,0.461938 1.229666,0.66498 0.416274,0.168317 0.828809,0.330791 1.246353,0.498842 0.33114,0.101522 0.679593,0.115982 1.023456,0.122286 0.208807,-0.141389 0.475676,-0.129742 0.700699,-0.211762 0.122074,-0.04449 0.228149,-0.125371 0.347885,-0.17582 1.288192,-0.664562 2.961505,-1.650594 -3.181902,1.836477 -0.06719,0.03814 0.130282,-0.08385 0.189465,-0.133522 0.129177,-0.108408 0.283458,-0.287631 0.39426,-0.409665 0.514169,-0.538616 0.901517,-1.17533 1.262926,-1.821713 0.416429,-0.794191 0.707903,-1.642779 0.994134,-2.489875 0.32869,-0.935137 0.584358,-1.889694 0.80829,-2.854494 0.238117,-1.036926 0.403122,-2.084858 0.565025,-3.135416 0.149054,-1.057892 0.360489,-2.105161 0.495959,-3.164936 0.07488,-1.016842 0.218972,-2.026055 0.322942,-3.03993 0.08646,-1.01004 0.09222,-2.022779 0.194912,-3.031436 0.0855,-1.001624 0.186948,-1.999031 0.320284,-2.995445 0.09333,-0.989708 0.18711,-1.977428 0.302989,-2.964985 0.152801,-0.974306 0.316099,-1.94641 0.551892,-2.904399 0.215743,-0.899607 0.531107,-1.770448 0.777991,-2.661128 0.233537,-0.848821 0.481576,-1.693199 0.716578,-2.541575 0.218463,-0.801424 0.490566,-1.586487 0.769869,-2.36832 0.265308,-0.741969 0.47767,-1.500526 0.743756,-2.242429 0.241703,-0.627416 0.531927,-1.233506 0.785195,-1.856127 0.248848,-0.574734 0.479284,-1.156173 0.708203,-1.739032 0.255974,-0.669835 0.517026,-1.337002 0.802112,-1.995065 0.281791,-0.617215 0.563475,-1.235603 0.893805,-1.828579 0.312342,-0.548248 0.631133,-1.091724 0.970849,-1.623382 0.319232,-0.475434 0.66158,-0.934085 0.998504,-1.396886 0.334945,-0.433927 0.673311,-0.865242 1.050784,-1.263091 1.331828,-1.376666 3.03838,-2.021875 4.75311,-3.016017 0.418545,-0.139511 0.855034,-0.139331 1.290705,-0.14401 0.492728,-0.02263 0.940149,0.218414 1.347153,0.471868 0.437355,0.250037 0.783458,0.594426 1.091045,0.98697 0.32494,0.491174 0.523285,1.05049 0.788815,1.573921 0.30742,0.516517 0.6431,1.016485 1.013483,1.490209 0.419746,0.557269 0.766572,1.162037 1.180823,1.723054 0.516211,0.733317 0.940119,1.528371 1.371419,2.31366 0.494842,0.894008 0.98103,1.797695 1.427297,2.717399 0.446923,0.914566 0.912896,1.818519 1.36234,2.731662 0.454477,0.925283 0.907681,1.852594 1.318463,2.798097 0.39546,0.946583 0.838997,1.872267 1.258326,2.808627 0.457903,0.917596 0.867051,1.857695 1.271015,2.799836 0.443557,0.920767 0.847728,1.85656 1.21578,2.810224 0.422337,0.948846 0.829493,1.904709 1.213729,2.869658 0.363962,0.940012 0.862722,1.816773 1.301253,2.722167 0.439647,0.863719 0.847498,1.744974 1.233898,2.634042 0.381441,0.883446 0.810296,1.744775 1.21322,2.618139 0.422971,0.833632 0.851698,1.66552 1.288792,2.49215 0.498867,0.787627 0.901415,1.629231 1.384692,2.425477 0.507781,0.805481 0.931099,1.65811 1.343451,2.514772 0.427377,0.764004 0.864087,1.526567 1.335981,2.26455 0.457241,0.625315 0.906478,1.257559 1.393703,1.860315 0.415852,0.613049 0.906795,1.167858 1.358276,1.753152 0.456431,0.574564 0.892888,1.163322 1.336383,1.747787 0.380152,0.528075 0.849113,0.97131 1.310262,1.423771 0.398359,0.345733 0.870891,0.566579 1.37998,0.690146 0.538041,0.162961 0.969705,-0.02602 1.461034,-0.214488 3.03924,-1.903078 -12.374213,7.273485 0.764868,-0.451103 1.138179,-0.669146 -2.28406,1.325271 -3.435024,1.97218 -0.163923,0.09213 0.300192,-0.226855 0.443819,-0.348226 0.393029,-0.310969 0.657642,-0.730464 0.897627,-1.162777 0.216801,-0.540073 0.33207,-1.120264 0.432746,-1.692244 0.115602,-0.784399 0.423545,-1.503211 0.767633,-2.209805 0.575354,-1.208801 1.23252,-2.372792 1.924977,-3.517571 0.942466,-1.646693 1.923584,-3.26978 2.936042,-4.874242 1.152421,-1.80893 2.233784,-3.662069 3.24431,-5.553691 0.921646,-1.681699 1.787295,-3.386429 2.557358,-5.142503 0.494045,-1.165918 0.860625,-2.378254 1.266207,-3.575944 0.26848,-0.743463 0.447088,-1.515724 0.631999,-2.283331 0.131347,-0.72399 0.214724,-1.455356 0.32838,-2.182876 0.134452,-0.804564 0.381105,-1.581884 0.639571,-2.353406 0.255468,-0.850349 0.545567,-1.687805 0.797174,-2.539478 0.28068,-0.943875 0.672427,-1.844145 1.06073,-2.746673 0.385197,-0.896355 0.789527,-1.783842 1.202779,-2.667481 0.371702,-0.790918 0.756415,-1.575963 1.160565,-2.350902 0.374386,-0.707322 0.703153,-1.440412 1.177917,-2.087513 0.388479,-0.546212 0.833335,-1.036038 1.315099,-1.499487 0.483086,-0.519246 0.97346,-1.032498 1.44494,-1.562359 0.41241,-0.486328 0.86843,-0.93506 1.33686,-1.367114 1.46298,-1.31093 3.26019,-2.168293 5.00996,-3.047611 0.49612,-0.219667 1.03454,-0.299861 1.5696,-0.355617 0.45708,-0.03893 0.86101,0.205433 1.20952,0.475284 0.38018,0.348746 0.66779,0.763364 0.94168,1.1969 0.2991,0.560564 0.60699,1.114532 0.92166,1.666355 0.3689,0.678176 0.65708,1.395562 0.99299,2.089597 0.37737,0.818775 0.67634,1.668338 0.99241,2.511531 0.3183,0.898093 0.59758,1.808886 0.88803,2.716268 0.30571,0.958565 0.55992,1.93015 0.79705,2.907701 0.25751,0.977727 0.45593,1.969094 0.71504,2.946462 0.23065,0.87177 0.51062,1.729644 0.81963,2.576469 0.29512,0.842243 0.49361,1.712216 0.71533,2.574978 0.21081,0.878731 0.46257,1.748522 0.74905,2.605602 0.30329,0.85079 0.48836,1.736279 0.707,2.610644 0.20807,0.889071 0.46118,1.768419 0.75001,2.634622 0.24604,0.876721 0.57533,1.72165 0.90998,2.566583 0.33447,0.775881 0.73542,1.521406 1.1219,2.27229 0.38229,0.733919 0.73129,1.485301 1.08516,2.233693 0.40183,0.697932 0.72092,1.437126 1.09733,2.147745 0.32059,0.662574 0.73545,1.27189 1.09766,1.911264 0.34222,0.596824 0.72856,1.166293 1.09549,1.747697 0.39123,0.589564 0.80563,1.164965 1.22786,1.733028 0.38115,0.567391 0.87256,1.040256 1.31269,1.558333 0.39256,0.565958 0.91597,1.005224 1.39372,1.491744 0.44659,0.42858 0.93555,0.800242 1.44091,1.15555 0.47184,0.337574 0.94498,0.677204 1.44952,0.96541 0.4409,0.15939 0.86986,0.359323 1.33049,0.458393 0.33354,0.0699 0.6754,0.07788 1.01492,0.07707 0.0434,-3.18e-4 0.0899,0.01547 0.13006,-9.55e-4 0.0706,-0.02892 0.2246,-0.203291 0.15839,-0.165344 -2.25391,1.291597 -4.73238,3.081317 -3.4356,1.921288 0.17434,-0.212116 0.27475,-0.461595 0.40591,-0.700155 0.20027,-0.404909 0.39034,-0.815157 0.57623,-1.228044 0.39271,-0.715843 0.87424,-1.380952 1.32197,-2.063768 0.64952,-1.006967 1.21744,-2.063458 1.75501,-3.133415 0.66546,-1.266069 1.3653,-2.512493 1.99836,-3.795395 0.59518,-1.262789 1.24001,-2.502908 1.77204,-3.794143 0.48412,-1.308741 1.01999,-2.598171 1.49542,-3.909916 0.45664,-1.399061 0.95715,-2.781918 1.48877,-4.154027 0.57559,-1.366826 1.0372,-2.775774 1.53936,-4.169981 0.46454,-1.252258 0.91847,-2.507906 1.38322,-3.760108 0.4408,-1.149787 0.82207,-2.320742 1.26255,-3.470556 0.46325,-1.099765 0.91149,-2.206777 1.41321,-3.289799 0.44716,-0.908558 0.89191,-1.81839 1.33108,-2.730867 0.33376,-0.80528 0.73361,-1.578964 1.14356,-2.347325 0.37283,-0.628049 0.78185,-1.236217 1.20372,-1.832588 0.30827,-0.461662 0.65899,-0.893938 1.04235,-1.29511 0.35388,-0.340713 0.70219,-0.69019 1.0943,-0.987037 0.46589,-0.370318 0.91054,-0.767123 1.37765,-1.136477 1.80672,-1.269839 3.74497,-2.283681 5.6699,-3.380873 0.63948,-0.330591 1.31199,-0.615398 2.00409,-0.816667 0.57279,-0.163511 1.16352,-0.118762 1.71864,0.08389 0.54396,0.242611 0.96931,0.650081 1.40234,1.04631 0.48666,0.454582 0.94192,0.936048 1.36049,1.453528 0.49132,0.637981 0.90039,1.34616 1.29029,2.051261 0.45194,0.846581 0.88766,1.699329 1.29363,2.569003 0.39204,0.899873 0.79076,1.796165 1.17061,2.70136 0.33142,0.824463 0.65031,1.655334 0.94175,2.494754 0.32392,0.829475 0.5868,1.678555 0.82884,2.534846 0.2528,0.888795 0.50328,1.779123 0.78314,2.659771 0.30213,0.943559 0.56952,1.898041 0.86455,2.843753 0.29212,0.982282 0.56667,1.970324 0.87529,2.947488 0.2667,0.961671 0.64384,1.887147 0.96466,2.831064 0.31868,0.894843 0.63683,1.790664 0.92618,2.695566 0.25071,0.843749 0.46189,1.697978 0.68328,2.549625 0.25894,0.714961 0.42506,1.454763 0.6165,2.189031 0.21702,0.742522 0.41482,1.490487 0.6571,2.225273 0.23279,0.738739 0.47122,1.475587 0.70445,2.214094 0.28825,0.743982 0.47683,1.519809 0.74768,2.269697 0.25877,0.759399 0.52484,1.518308 0.82258,2.263508 0.27839,0.724709 0.63166,1.417459 0.96161,2.119373 0.3257,0.627494 0.68487,1.23777 1.03604,1.85153 0.36568,0.570563 0.73586,1.134002 1.20515,1.624521 0.37037,0.465876 0.83422,0.834286 1.34807,1.128615 0.55871,0.380493 1.22472,0.498269 1.88363,0.56709 0.74958,0.08474 1.48703,0.04763 2.2304,-0.05238 0.12634,-0.03332 0.25503,-0.05874 0.37902,-0.09996 0.18126,-0.06026 0.58296,-0.241913 0.7465,-0.326601 0.12971,-0.06717 0.50799,-0.288639 0.38123,-0.216059 -3.43241,1.965386 -4.30951,2.605642 -2.91054,1.6134 0.77469,-0.635623 1.46445,-1.36642 2.06241,-2.169086 0.62431,-0.921915 1.09506,-1.92512 1.53457,-2.943798 0.52184,-1.224599 1.04818,-2.447056 1.58175,-3.666592 0.58507,-1.329135 1.1566,-2.664968 1.77408,-3.979433 0.71217,-1.522107 1.4347,-3.039735 2.12113,-4.573682 0.73139,-1.691248 1.34018,-3.430698 2.02425,-5.141052 0.66174,-1.631512 1.31335,-3.264596 1.86091,-4.938254 0.46586,-1.384339 0.85383,-2.792746 1.19287,-4.212985 0.29265,-1.217456 0.58518,-2.434858 0.88236,-3.651237 0.27272,-1.005997 0.54783,-2.010816 0.81245,-3.018906 0.22886,-0.859282 0.46514,-1.716575 0.69844,-2.574738 0.25854,-0.728817 0.42704,-1.481563 0.62125,-2.228553 0.2293,-0.761298 0.58105,-1.48238 0.94785,-2.185893 0.38172,-0.791134 0.82559,-1.543146 1.30605,-2.277219 0.41574,-0.680977 0.92405,-1.294182 1.45646,-1.885471 0.50301,-0.579529 1.06618,-1.092078 1.6937,-1.53204 1.43996,-0.937749 2.89471,-1.885745 4.48489,-2.533977 0.22905,-0.09337 0.43588,-0.20946 0.6712,-0.288548 0.33819,-0.103687 0.77552,0.01886 1.08405,0.18737 0.41133,0.236354 0.81593,0.47949 1.2392,0.701285 0.7159,0.305066 1.43363,0.5927 2.11984,0.96202 0.8722,0.466796 1.68536,1.029699 2.49865,1.589822 0.81483,0.634281 1.53748,1.373569 2.26382,2.104352 0.73501,0.769151 1.28181,1.69119 1.76302,2.633626 0.47437,0.948933 0.79326,1.960291 1.10257,2.971583 0.2436,1.000401 0.44546,2.012331 0.57341,3.03441 0.0986,1.064678 0.262,2.120173 0.34489,3.186561 0.0204,1.087857 0.1584,2.166094 0.25516,3.248338 0.0465,1.123494 0.26794,2.22639 0.44342,3.333775 0.21471,1.231755 0.41931,2.46609 0.60144,3.703217 0.18861,1.268397 0.44119,2.524403 0.70556,3.77869 0.2761,1.170953 0.61876,2.326117 0.97761,3.474233 0.26023,0.962535 0.52376,1.923122 0.80171,2.880585 0.2282,0.74997 0.52555,1.473543 0.86438,2.179401 0.29903,0.666359 0.57987,1.340868 0.86962,2.011465 0.25094,0.52262 0.53125,1.030468 0.73957,1.572326 0.16911,0.478213 0.43221,0.907533 0.70256,1.332304 0.26545,0.404096 0.56838,0.780044 0.8528,1.169924 0.30339,0.368878 0.63313,0.710972 0.94671,1.071482 0.34987,0.362931 0.74598,0.672853 1.12783,1.000962 0.38547,0.238529 0.80822,0.44291 1.2435,0.575261 0.51037,0.103668 1.04562,0.181015 1.5606,0.08354 0.64811,-0.121588 1.25479,-0.40104 1.81542,-0.742267 -6.38107,3.953854 -2.89258,1.666475 -1.5348,0.555432 0.9043,-0.777205 1.68273,-1.674947 2.42276,-2.605545 0.92225,-1.146118 1.70687,-2.396619 2.44993,-3.663988 0.76529,-1.405559 1.5497,-2.800814 2.16534,-4.279742 0.57017,-1.587075 1.08547,-3.193565 1.62227,-4.792281 0.5929,-1.665074 1.07464,-3.365892 1.50864,-5.078413 0.40463,-1.539395 0.78454,-3.084356 1.14537,-4.634545 0.33855,-1.374873 0.70766,-2.741023 1.0996,-4.101568 0.36773,-1.204946 0.76548,-2.399978 1.15403,-3.598268 0.31599,-1.032872 0.67821,-2.049404 0.99574,-3.081798 0.30885,-0.911716 0.65378,-1.810625 0.9577,-2.72397 0.25503,-0.790548 0.54137,-1.570162 0.82179,-2.351889 0.24134,-0.607184 0.45893,-1.225891 0.72839,-1.821303 0.28778,-0.601039 0.60622,-1.185476 0.94964,-1.756215 0.4032,-0.680955 0.86171,-1.328044 1.34432,-1.954601 0.51562,-0.629492 1.1842,-1.114785 1.85488,-1.567001 1.80962,-1.155133 3.14579,-2.376124 5.14085,-2.477609 0.51974,0.12185 0.89573,0.468116 1.2288,0.863694 0.30854,0.501038 0.63263,0.985446 0.96786,1.468615 0.3956,0.534452 0.79134,1.068915 1.19294,1.599159 0.49922,0.668714 0.93472,1.37993 1.38768,2.079716 0.53825,0.740668 1.02414,1.513113 1.49887,2.294985 0.51557,0.880686 1.0776,1.734152 1.5604,2.633503 0.5085,0.891601 0.94135,1.818946 1.38863,2.741394 0.39202,0.922458 0.82989,1.823955 1.17215,2.766657 0.34209,0.915263 0.74169,1.808239 1.02641,2.74375 0.32094,0.944422 0.45486,1.931927 0.63446,2.908696 0.13516,1.004516 0.3166,2.001939 0.43133,3.009276 0.0887,1.050122 0.24596,2.093716 0.4147,3.133641 0.22992,1.024458 0.41738,2.057136 0.67141,3.076133 0.25226,0.903824 0.49239,1.810656 0.74908,2.713274 0.25822,0.78805 0.45065,1.595844 0.71464,2.381809 0.24507,0.715565 0.4323,1.449751 0.66231,2.170233 0.20741,0.614007 0.44316,1.218461 0.67138,1.825246 0.21778,0.545007 0.48197,1.068461 0.7461,1.591906 0.2188,0.505029 0.48609,0.982387 0.77684,1.448766 0.2551,0.523711 0.62799,0.970898 0.95437,1.448321 0.33097,0.492198 0.61964,1.01026 0.92926,1.515842 0.26592,0.430272 0.57631,0.828739 0.87067,1.238647 0.27184,0.364312 0.5309,0.750424 0.88419,1.04085 0.31082,0.217893 0.62041,0.419414 0.84575,0.727558 0,0 -3.73841,2.212038 -3.73841,2.212038 l 0,0 c -0.20226,-0.277784 -0.53351,-0.423954 -0.77842,-0.659508 -0.35642,-0.335425 -0.64706,-0.727485 -0.93287,-1.123637 -0.30135,-0.418832 -0.61048,-0.83184 -0.88139,-1.27182 -0.30012,-0.50178 -0.58228,-1.015179 -0.91551,-1.496036 -0.32987,-0.481555 -0.6981,-0.939256 -0.96433,-1.462157 -0.30043,-0.47516 -0.56692,-0.968926 -0.79697,-1.482024 -0.27492,-0.536284 -0.52407,-1.085778 -0.76232,-1.639247 -0.22647,-0.614673 -0.46663,-1.224609 -0.67301,-1.846068 -0.23397,-0.71763 -0.40627,-1.455002 -0.65057,-2.169682 -0.2706,-0.793033 -0.45633,-1.610901 -0.72091,-2.406045 -0.24479,-0.910661 -0.48991,-1.820627 -0.73621,-2.730682 -0.26527,-1.028877 -0.44477,-2.075875 -0.68325,-3.111009 -0.17424,-1.045258 -0.34661,-2.092953 -0.43035,-3.150077 -0.1103,-0.998706 -0.29664,-1.985549 -0.42192,-2.982205 -0.16965,-0.961994 -0.30715,-1.934205 -0.61741,-2.864039 -0.27081,-0.93212 -0.66831,-1.817694 -1.00887,-2.725418 -0.33435,-0.930093 -0.76872,-1.81739 -1.14862,-2.729144 -0.44298,-0.91824 -0.87783,-1.838076 -1.37743,-2.727831 -0.47651,-0.894346 -1.04459,-1.734992 -1.5615,-2.606131 -0.47219,-0.778484 -0.95636,-1.546734 -1.49572,-2.281372 -0.45047,-0.68928 -0.88034,-1.393093 -1.38689,-2.043652 -0.4076,-0.534019 -0.81012,-1.071464 -1.21442,-1.607719 -0.32695,-0.4692 -0.63594,-0.944811 -0.94809,-1.423647 -0.27045,-0.293735 -0.58581,-0.577464 -1.01542,-0.520176 -1.57654,0.193814 -4.04168,2.199898 2.34446,-1.654672 -0.68543,0.414828 -1.34709,0.885088 -1.92474,1.44141 -0.48994,0.601912 -0.93731,1.234623 -1.35074,1.891307 -0.32504,0.573674 -0.68894,1.125174 -0.95903,1.729325 -0.31186,0.567277 -0.49321,1.193717 -0.75157,1.785945 -0.3132,0.769419 -0.57395,1.560765 -0.8588,2.341192 -0.27636,0.922804 -0.63618,1.817844 -0.95802,2.725454 -0.34084,1.031362 -0.67456,2.064532 -1.01807,3.095467 -0.39298,1.196288 -0.78422,2.392619 -1.16902,3.591509 -0.40643,1.355147 -0.7767,2.719134 -1.12685,4.089615 -0.37427,1.553727 -0.73918,3.108974 -1.16292,4.650341 -0.43645,1.719666 -0.9048,3.43292 -1.49582,5.106763 -0.5339,1.603368 -1.06335,3.208277 -1.60212,4.809915 -0.58106,1.506545 -1.38022,2.904801 -2.13166,4.330832 -0.73095,1.277541 -1.49951,2.543774 -2.40423,3.706504 -0.72138,0.949671 -1.48316,1.86073 -2.35783,2.674113 -1.74058,1.523585 -3.6656,2.673943 -5.75638,3.736071 -0.61077,0.30527 -1.25333,0.564146 -1.94151,0.615029 -0.5657,0.003 -1.136,-0.04506 -1.67482,-0.229201 -0.46689,-0.18384 -0.93339,-0.395011 -1.32878,-0.708448 -0.40063,-0.335721 -0.79747,-0.674453 -1.15719,-1.05472 -0.32906,-0.36404 -0.66765,-0.717753 -0.97257,-1.102883 -0.29179,-0.396609 -0.59476,-0.78455 -0.86663,-1.195648 -0.2845,-0.451392 -0.55569,-0.909449 -0.74058,-1.412968 -0.19639,-0.539269 -0.48023,-1.040966 -0.71825,-1.562513 -0.27989,-0.666872 -0.55947,-1.334077 -0.84796,-1.997031 -0.36361,-0.723547 -0.65157,-1.477794 -0.88979,-2.251848 -0.2728,-0.957833 -0.52887,-1.918919 -0.77649,-2.883614 -0.36139,-1.162403 -0.69071,-2.33652 -0.98361,-3.517792 -0.25953,-1.263516 -0.52314,-2.525852 -0.72002,-3.80121 -0.17187,-1.235781 -0.38049,-2.467158 -0.60718,-3.693852 -0.17275,-1.115577 -0.41785,-2.223143 -0.46646,-3.354436 -0.0926,-1.084233 -0.23583,-2.163946 -0.25667,-3.253185 -0.0779,-1.060439 -0.2333,-2.110365 -0.33852,-3.167699 -0.1193,-1.000399 -0.31802,-1.98872 -0.54001,-2.970761 -0.289,-0.990681 -0.61078,-1.97593 -1.06519,-2.904885 -0.4565,-0.904393 -0.98582,-1.787703 -1.69475,-2.518663 -0.71019,-0.710664 -1.4177,-1.433057 -2.2247,-2.03543 -0.80408,-0.549516 -1.61057,-1.099231 -2.48256,-1.538022 -0.69863,-0.349333 -1.43072,-0.616909 -2.13902,-0.944871 -0.42178,-0.20775 -0.81096,-0.472949 -1.24501,-0.651792 -0.31914,-0.068 -0.58422,-0.09684 -0.88155,0.07093 -0.21781,0.09973 -0.44049,0.190388 -0.65736,0.291786 -0.0778,0.03637 -0.30385,0.159942 -0.2297,0.116628 3.19061,-1.863884 4.62319,-2.618762 3.12962,-1.826793 -0.63198,0.421256 -1.24918,0.854543 -1.73986,1.445258 -0.5366,0.57197 -1.06459,1.156345 -1.48741,1.820118 -0.47023,0.734148 -0.97945,1.441924 -1.32535,2.249047 -0.3769,0.670517 -0.6897,1.373778 -0.97565,2.086059 -0.19969,0.749351 -0.34515,1.513238 -0.63128,2.236764 -0.23264,0.861276 -0.47682,1.719081 -0.71151,2.579676 -0.27578,1.00761 -0.53732,2.018091 -0.83231,3.020362 -0.31082,1.217006 -0.60409,2.437858 -0.90644,3.65691 -0.33702,1.436864 -0.72424,2.861772 -1.20646,4.257405 -0.54346,1.688343 -1.19606,3.333301 -1.86999,4.97353 -0.68654,1.710662 -1.30006,3.448331 -2.00872,5.150125 -0.67111,1.535849 -1.39118,3.04946 -2.09178,4.571973 -0.62163,1.305753 -1.17956,2.64112 -1.76947,3.961411 -0.51837,1.218256 -1.0578,2.427458 -1.55762,3.653603 -0.43759,1.037248 -0.88307,2.064556 -1.49019,3.01762 -0.54911,0.856653 -1.25326,1.591672 -1.99993,2.278435 -1.49927,1.337057 -0.33715,0.34286 -4.39013,2.653909 -0.49302,0.281119 -1.0498,0.447519 -1.60861,0.526985 -0.76531,0.08236 -1.53509,0.0638 -2.29934,-0.03072 -0.70611,-0.11106 -1.39483,-0.303375 -1.99476,-0.708217 -0.52802,-0.34015 -1.01476,-0.731592 -1.404,-1.229937 -0.48311,-0.521994 -0.86742,-1.117807 -1.2551,-1.712342 -0.3573,-0.624458 -0.71546,-1.249591 -1.04717,-1.887801 -0.32471,-0.712827 -0.69512,-1.406279 -0.96842,-2.141243 -0.30103,-0.748644 -0.56925,-1.511433 -0.83302,-2.273799 -0.27562,-0.75471 -0.45731,-1.539127 -0.75235,-2.287259 -0.2346,-0.735529 -0.48238,-1.466493 -0.70234,-2.206779 -0.25448,-0.741831 -0.44445,-1.501339 -0.67722,-2.249913 -0.18675,-0.736239 -0.3528,-1.477576 -0.60708,-2.194787 -0.21297,-0.846627 -0.42598,-1.692644 -0.6625,-2.533088 -0.28526,-0.903999 -0.60317,-1.79779 -0.9167,-2.692203 -0.31714,-0.948361 -0.70495,-1.872998 -0.96771,-2.838928 -0.30816,-0.977873 -0.58367,-1.965932 -0.87505,-2.948946 -0.29552,-0.944164 -0.57088,-1.894718 -0.86873,-2.83816 -0.2844,-0.883078 -0.5447,-1.774521 -0.79367,-2.668149 -0.24863,-0.8464 -0.49059,-1.693981 -0.82224,-2.513189 -0.28598,-0.833164 -0.59832,-1.658361 -0.92685,-2.475636 -0.36102,-0.905424 -0.76572,-1.791273 -1.14785,-2.687799 -0.41168,-0.856889 -0.8372,-1.704735 -1.29629,-2.537377 -0.37516,-0.683754 -0.78541,-1.362062 -1.26595,-1.975734 -0.41089,-0.499555 -0.86254,-0.957705 -1.33984,-1.394522 -0.38481,-0.357212 -0.78782,-0.713152 -1.29866,-0.873108 -0.53288,-0.101763 -1.04274,-0.08718 -1.55603,0.113352 -0.6676,0.242656 -1.32485,0.516589 -1.94762,0.860131 6.39394,-3.719582 3.06386,-1.856051 1.67126,-0.869916 -0.50547,0.29447 -0.93093,0.725863 -1.36461,1.115006 -0.39712,0.284862 -0.77262,0.583616 -1.12024,0.931042 -0.40039,0.370883 -0.77812,0.778408 -1.07511,1.236677 -0.44651,0.574253 -0.83589,1.189648 -1.24706,1.788741 -0.42996,0.754264 -0.8372,1.524779 -1.16523,2.329575 -0.43551,0.919958 -0.89639,1.827515 -1.34811,2.739518 -0.52927,1.065737 -0.95843,2.177613 -1.43882,3.265738 -0.45113,1.144533 -0.82349,2.316265 -1.26703,3.463626 -0.4562,1.260041 -0.94488,2.508515 -1.40175,3.768353 -0.51671,1.392633 -0.96109,2.811071 -1.53986,4.18051 -0.53807,1.36424 -1.04436,2.740113 -1.48972,4.137702 -0.44739,1.324894 -1.0141,2.607304 -1.48383,3.92491 -0.5088,1.311101 -1.16379,2.555258 -1.76491,3.825533 -0.62322,1.28438 -1.3025,2.537087 -1.98722,3.789625 -0.51186,1.083059 -1.08053,2.139433 -1.70111,3.164303 -0.42391,0.671719 -0.85838,1.336453 -1.30103,1.995338 -0.19997,0.393309 -0.31714,0.830416 -0.56744,1.192152 -0.0285,0.100895 -0.0544,0.229372 -0.11577,0.319789 -0.0213,0.03144 -0.066,0.04423 -0.0828,0.07831 -0.0601,0.121814 -0.0499,0.292607 -0.15856,0.398952 -0.0557,0.114053 -0.0583,0.166689 -0.16579,0.232391 -2.92989,1.790126 -2.43365,2.368269 -4.19339,2.276913 -0.35531,-0.02605 -0.71076,-0.06467 -1.05307,-0.169191 -0.47619,-0.148819 -0.94892,-0.332269 -1.3898,-0.565091 -0.49967,-0.31592 -0.99172,-0.646007 -1.46643,-0.99826 -0.51118,-0.381574 -1.02177,-0.764427 -1.47093,-1.22028 -0.48773,-0.490623 -1.00036,-0.955315 -1.41106,-1.517553 -0.44924,-0.522593 -0.93175,-1.014602 -1.32075,-1.5873 -0.42942,-0.576822 -0.84977,-1.161869 -1.24853,-1.759997 -0.36845,-0.588943 -0.7621,-1.16238 -1.10626,-1.766507 -0.35749,-0.645768 -0.7764,-1.257003 -1.09131,-1.926126 -0.38065,-0.715737 -0.7039,-1.460155 -1.103,-2.166763 -0.35389,-0.744095 -0.70488,-1.489827 -1.0819,-2.222125 -0.38448,-0.766988 -0.80128,-1.519523 -1.13452,-2.311083 -0.33656,-0.852251 -0.67273,-1.702772 -0.91966,-2.587174 -0.295,-0.87519 -0.55318,-1.764306 -0.76624,-2.6629 -0.21986,-0.863233 -0.39822,-1.738388 -0.69085,-2.581874 -0.29263,-0.865038 -0.54968,-1.74348 -0.76603,-2.630565 -0.22266,-0.848478 -0.40777,-1.707813 -0.6965,-2.538004 -0.31547,-0.858204 -0.59528,-1.730318 -0.82699,-2.614956 -0.26931,-0.979167 -0.44657,-1.979348 -0.71989,-2.9574 -0.23046,-0.96802 -0.47818,-1.930069 -0.78194,-2.87796 -0.29597,-0.898373 -0.56859,-1.804248 -0.88551,-2.695651 -0.31199,-0.82974 -0.60367,-1.667145 -0.98081,-2.470773 -0.33832,-0.682833 -0.62092,-1.39311 -0.99403,-2.058409 -0.30968,-0.545363 -0.62287,-1.087339 -0.91943,-1.640143 -0.25086,-0.381371 -0.50797,-0.756687 -0.86786,-1.046233 -0.3266,-0.20153 -0.64226,-0.299478 -1.02854,-0.212718 -0.51107,0.07691 -1.0106,0.21173 -1.46681,0.461702 -1.45128,0.729606 -0.26479,0.13968 3.1974,-1.882092 0.0763,-0.04456 -0.15763,0.08072 -0.23144,0.129312 -0.14376,0.09463 -0.28305,0.196721 -0.41481,0.30745 -0.0701,0.05887 -0.13119,0.127601 -0.19678,0.191401 -0.51584,0.366584 -0.93108,0.858942 -1.38445,1.297446 -0.44004,0.558855 -0.96343,1.045291 -1.4231,1.588349 -0.44676,0.488998 -0.99026,0.884965 -1.33764,1.464807 -0.52768,0.597638 -0.87257,1.300994 -1.22267,2.013778 -0.39937,0.776239 -0.80357,1.547656 -1.181496,2.334501 -0.387337,0.894872 -0.844568,1.759243 -1.213222,2.663297 -0.378661,0.892947 -0.785013,1.772852 -1.076939,2.699651 -0.252587,0.851948 -0.523546,1.695967 -0.775304,2.547031 -0.255703,0.752026 -0.519319,1.501987 -0.666329,2.284923 -0.114359,0.736075 -0.225626,1.46962 -0.309069,2.209797 -0.180334,0.78798 -0.382052,1.576457 -0.640991,2.341364 -0.456075,1.205213 -0.812628,2.447818 -1.320192,3.634479 -0.788164,1.769443 -1.643927,3.499305 -2.590763,5.190253 -0.999727,1.900694 -2.079253,3.757535 -3.219811,5.577262 -1.006321,1.591559 -1.988167,3.198419 -2.897497,4.847893 -0.676446,1.123708 -1.332071,2.259537 -1.875232,3.454605 -0.330663,0.671615 -0.658056,1.339142 -0.793811,2.082645 -0.08988,0.602989 -0.223279,1.197417 -0.365314,1.789474 -0.185293,0.484542 -0.476271,0.953957 -0.833762,1.327698 -1.339864,1.264773 -2.03136,1.161667 -4.350937,2.710063 -1.092436,0.729238 4.569181,-2.592431 3.41175,-1.971498 -4.977706,2.670411 -2.481526,1.701453 -4.232139,2.369834 -0.542758,0.173623 -1.070108,0.172797 -1.616743,-0.005 -0.551081,-0.188559 -1.070339,-0.45988 -1.491893,-0.869236 -0.475107,-0.467259 -0.936569,-0.943685 -1.329748,-1.48484 -0.443195,-0.583487 -0.878361,-1.171966 -1.334677,-1.745418 -0.448348,-0.583498 -0.939998,-1.133796 -1.350818,-1.746448 -0.495546,-0.616395 -0.950162,-1.264065 -1.410857,-1.9064 -0.47592,-0.755394 -0.92051,-1.532832 -1.352461,-2.313569 -0.403507,-0.845632 -0.821177,-1.686444 -1.324294,-2.478533 -0.4832,-0.805712 -0.895065,-1.651248 -1.395286,-2.447304 -0.440429,-0.833888 -0.875728,-1.67111 -1.297024,-2.514409 -0.402325,-0.876545 -0.839427,-1.737092 -1.218041,-2.624745 -0.388253,-0.882273 -0.785576,-1.761737 -1.222599,-2.620843 -0.44542,-0.914101 -0.94354,-1.803621 -1.311844,-2.753328 -0.379406,-0.967826 -0.796466,-1.920504 -1.218949,-2.87002 C 56.63703,63.159775 56.246761,62.223324 55.796749,61.310286 55.397902,60.369231 54.986581,59.433488 54.53414,58.516681 54.105733,57.581825 53.672332,56.648904 53.267594,55.703743 52.864758,54.762085 52.417109,53.839 51.959092,52.923045 51.515256,52.006287 51.042057,51.105462 50.595784,50.189744 50.157219,49.275921 49.673426,48.37999 49.182739,47.493722 48.748619,46.730908 48.328855,45.952866 47.811165,45.24313 47.398301,44.685987 47.050722,44.087007 46.634,43.532622 46.242443,43.03739 45.883425,42.516263 45.563026,41.972401 c -0.24022,-0.499809 -0.4435,-1.022785 -0.744731,-1.489155 -0.286011,-0.342186 -0.612832,-0.633746 -1.00783,-0.84811 -0.387893,-0.196875 -0.767765,-0.331199 -1.21153,-0.273543 -0.410556,0.02888 -0.819013,0.08036 -1.174544,0.306112 6.579869,-3.83654 3.787853,-2.453877 2.603239,-1.352243 -0.39316,0.376431 -0.740214,0.776812 -1.074367,1.205751 -0.346199,0.455703 -0.681164,0.915051 -1.015154,1.378172 -0.356775,0.520855 -0.687533,1.054185 -0.989001,1.609348 -0.360241,0.564122 -0.619193,1.179458 -0.918535,1.776591 -0.276043,0.655638 -0.573871,1.301319 -0.802448,1.976168 -0.218059,0.592201 -0.456245,1.174752 -0.702816,1.755145 -0.272402,0.610886 -0.509957,1.23641 -0.804183,1.838386 -0.270877,0.744764 -0.519965,1.493882 -0.752294,2.251082 -0.297707,0.767002 -0.552262,1.550951 -0.78431,2.340424 -0.256644,0.840243 -0.469162,1.693719 -0.728651,2.533522 -0.218525,0.899838 -0.55827,1.763789 -0.782634,2.662545 -0.253627,0.939341 -0.413971,1.895875 -0.578132,2.854118 -0.121337,0.98829 -0.232673,1.974713 -0.299308,2.968398 -0.128017,0.994982 -0.271153,1.985503 -0.329536,2.988268 -0.111546,1.008378 -0.129106,2.017146 -0.20007,3.02891 -0.09007,1.01993 -0.255671,2.029964 -0.317637,3.052339 -0.135277,1.065212 -0.331215,2.119331 -0.497159,3.179798 -0.171103,1.054793 -0.295107,2.116069 -0.548723,3.156501 -0.207072,0.979342 -0.450101,1.946652 -0.776286,2.893363 -0.302016,0.854633 -0.554291,1.728488 -0.954535,2.546056 -0.340172,0.666464 -0.706457,1.335848 -1.200901,1.90119 -0.108177,0.128702 -0.396248,0.56025 -0.527377,0.640299 -1.567409,0.956839 -2.708102,1.822078 -4.243244,2.418191 -0.366289,0.142743 -0.774374,0.25033 -1.16849,0.239964 -0.377593,-0.0329 -0.754883,-0.09252 -1.104211,-0.247394 -0.411853,-0.17996 -0.839464,-0.318231 -1.241805,-0.519635 -0.45767,-0.201246 -0.890208,-0.445261 -1.288113,-0.750225 -0.415573,-0.323116 -0.837691,-0.637876 -1.2206,-1.000443 -0.390277,-0.413298 -0.727821,-0.871593 -1.088233,-1.310774 -0.325711,-0.44072 -0.620859,-0.896541 -0.906475,-1.362899 -0.285905,-0.385056 -0.47624,-0.81719 -0.706823,-1.235623 -0.219102,-0.374208 -0.439177,-0.746926 -0.670932,-1.113694 -0.159718,-0.324353 -0.392577,-0.607045 -0.578988,-0.916477 -0.196362,-0.34984 -0.411371,-0.687823 -0.615834,-1.032878 -0.209445,-0.359612 -0.466923,-0.691484 -0.632612,-1.07658 -0.20747,-0.341807 -0.422485,-0.676394 -0.650646,-1.004614 -0.266212,-0.385557 -0.535211,-0.768431 -0.77163,-1.173653 C 11.336005,78.395941 11.055405,78.069135 10.823175,77.708876 10.575178,77.385011 10.329006,77.059607 10.108262,76.716531 9.8834131,76.297035 9.5962121,75.911963 9.3991253,75.477133 9.1104604,74.986969 8.8394287,74.488967 8.5787043,73.983171 8.3247795,73.432397 8.0937421,72.872476 7.855842,72.314685 7.618157,71.739377 7.4645991,71.14 7.2871339,70.544431 7.1269789,69.836936 6.8693842,69.161572 6.6275575,68.479081 c 0,0 3.7877905,-2.086101 3.7877905,-2.086101 z"
       inkscape:connector-curvature="0"
       transform="translate(6.6292965,876.95567)" />
  </g>
</svg>
