<?xml version="1.0" encoding="UTF-8" standalone="no"?>
<!-- Created with Inkscape (http://www.inkscape.org/) -->

<svg
   xmlns:dc="http://purl.org/dc/elements/1.1/"
   xmlns:cc="http://creativecommons.org/ns#"
   xmlns:rdf="http://www.w3.org/1999/02/22-rdf-syntax-ns#"
   xmlns:svg="http://www.w3.org/2000/svg"
   xmlns="http://www.w3.org/2000/svg"
   xmlns:sodipodi="http://sodipodi.sourceforge.net/DTD/sodipodi-0.dtd"
   xmlns:inkscape="http://www.inkscape.org/namespaces/inkscape"
   width="320"
   height="154.95"
   id="svg2"
   version="1.1"
   inkscape:version="0.48.4 r9939"
   inkscape:export-filename="integral.png"
   inkscape:export-xdpi="150"
   inkscape:export-ydpi="150"
   sodipodi:docname="graf.svg">
  <defs
     id="defs4" />
  <sodipodi:namedview
     id="base"
     pagecolor="#9fffa7"
     bordercolor="#666666"
     borderopacity="1.0"
     inkscape:pageopacity="0"
     inkscape:pageshadow="2"
     inkscape:zoom="3.43125"
     inkscape:cx="160"
     inkscape:cy="67.975708"
     inkscape:document-units="px"
     inkscape:current-layer="layer1"
     showgrid="false"
     inkscape:window-width="1237"
     inkscape:window-height="1003"
     inkscape:window-x="43"
     inkscape:window-y="21"
     inkscape:window-maximized="1"
     fit-margin-top="0"
     fit-margin-left="0"
     fit-margin-right="0"
     fit-margin-bottom="0" />
  <metadata
     id="metadata7">
    <rdf:RDF>
      <cc:Work
         rdf:about="">
        <dc:format>image/svg+xml</dc:format>
        <dc:type
           rdf:resource="http://purl.org/dc/dcmitype/StillImage" />
        <dc:title />
      </cc:Work>
    </rdf:RDF>
  </metadata>
  <g
     inkscape:label="Layer 1"
     inkscape:groupmode="layer"
     id="layer1"
     transform="translate(-6.6292965,-876.95567)">
    <path
       style="fill:#1a1a1a;stroke-width:1.89999998000000003;stroke-miterlimit:4;stroke-dasharray:7.59999999999999964, 7.59999999999999964;stroke-dashoffset:0"
       id="path3004"
       d="m 101.55163,10.297383 c -0.32122,0.870368 -0.37596,1.773662 -0.36847,2.690431 0.0292,1.155254 0.082,2.309305 0.0361,3.464498 -0.11745,1.453072 -0.1898,2.90327 -0.14644,4.360566 0.077,1.705306 0.12652,3.411434 0.14503,5.118339 0.0615,1.917562 -0.0182,3.83134 -0.11226,5.745957 -0.10481,1.992998 -0.13351,3.988755 -0.15635,5.984019 -0.0808,1.958589 -0.1891,3.915359 -0.24309,5.875043 -0.085,1.883494 0.0326,3.765393 0.11399,5.646536 0.11649,2.061974 0.0681,4.122789 -0.0181,6.18424 -0.0967,2.116528 -0.12798,4.235058 -0.14874,6.353424 -0.0173,2.223701 -0.0239,4.447498 -0.0187,6.671259 0.0584,2.092576 -0.0783,4.18122 -0.15951,6.270891 -0.0669,1.951927 -0.0856,3.903739 -0.19308,5.854046 -0.10915,1.832433 -0.15455,3.66757 -0.1893,5.502628 -0.0428,2.08561 -0.039,4.17183 -0.0333,6.257763 0.0527,2.162059 -0.101236,4.319925 -0.186981,6.478926 -0.130648,2.095911 -0.250287,4.191771 -0.32436,6.290481 -0.04565,1.81841 -0.185416,3.6325 -0.258848,5.44989 -0.0643,1.45363 -0.07792,2.90565 0.0042,4.35824 0.09598,1.92113 0.13532,3.84455 0.167747,5.76763 0.02442,1.71571 0.01879,3.42971 0.118144,5.14307 0.141059,1.90313 0.147529,3.8115 0.161076,5.71863 0.02017,1.8376 0.04477,3.67509 0.05942,5.51277 -0.03408,1.12454 0.08068,2.24021 0.191367,3.35697 0.130171,0.84539 0.251431,1.69291 0.429791,2.52972 0.10181,0.45596 0.18648,0.91492 0.26244,1.37577 0,0 -3.83401,2.01556 -3.83401,2.01556 l 0,0 c -0.04216,-0.45953 -0.110724,-0.91577 -0.204969,-1.36766 -0.176698,-0.85585 -0.298988,-1.71934 -0.436617,-2.5824 -0.0935,-1.13782 -0.227294,-2.27393 -0.156449,-3.41796 0.01408,-1.84892 0.03433,-3.69802 0.01848,-5.54694 -0.03237,-1.89084 -0.08719,-3.7816 -0.215024,-5.66875 -0.105345,-1.725 -0.09441,-3.44967 -0.092,-5.17763 -0.02304,-1.90912 -0.05812,-3.81936 -0.210052,-5.72343 -0.09978,-1.46931 -0.09124,-2.93705 -0.0057,-4.408 0.09019,-1.81943 0.246077,-3.63586 0.282479,-5.45736 0.07517,-2.10859 0.239238,-4.21173 0.376089,-6.31692 0.07005,-2.149295 0.186801,-4.297723 0.160493,-6.448778 0.0058,-2.083592 0.006,-4.167186 0.0058,-6.250784 0.02062,-1.843754 0.08576,-3.686101 0.200774,-5.526533 0.102933,-1.949639 0.124755,-3.89977 0.196345,-5.850694 0.09909,-2.087475 0.222978,-4.174857 0.188739,-6.265657 0.0048,-2.223154 -0.0047,-4.446327 0.007,-6.669469 0.0171,-2.121576 0.04903,-4.243195 0.138348,-6.36315 0.08334,-2.048874 0.155664,-4.096914 0.02061,-6.14619 -0.08154,-1.889331 -0.228193,-3.778917 -0.132249,-5.670817 0.05862,-1.959154 0.15863,-3.916161 0.257989,-5.873562 0.01449,-1.999705 0.04988,-3.999298 0.145363,-5.997011 0.09399,-1.904102 0.174954,-3.806953 0.107745,-5.713917 -0.03095,-1.700178 -0.07021,-3.400285 -0.164006,-5.0984 -0.06236,-1.462479 -0.02036,-2.91794 0.106953,-4.376994 0.04853,-1.142434 -0.01897,-2.284606 -0.05498,-3.426926 -0.0254,-0.940569 -0.0077,-1.868707 0.262729,-2.779793 0,0 3.898443,-1.851572 3.898443,-1.851572 z"
       inkscape:connector-curvature="0"
       transform="translate(6.6292965,876.95567)" />
    <path
       style="fill:#1a1a1a;stroke-width:1.89999998000000003;stroke-miterlimit:4;stroke-dasharray:7.59999999999999964, 7.59999999999999964;stroke-dashoffset:0"
       id="path3006"
       d="m 93.981535,20.178369 c -0.18614,0.488873 -0.334633,0.989943 -0.45002,1.499839 -0.344635,1.608121 3.019528,-0.731212 -3.925564,1.91187 -0.08184,0.03115 0.03002,-0.172589 0.04831,-0.258226 0.08179,-0.382945 0.09806,-0.408623 0.216313,-0.816967 0.391899,-1.518063 0.783179,-3.035726 1.249416,-4.532903 0.634501,-1.864914 1.138661,-3.770169 1.704329,-5.656324 0.429157,-1.542378 0.833545,-3.0924336 1.311527,-4.6206474 0.280703,-0.8885116 0.510704,-1.7932911 0.879509,-2.6508512 0.145583,-0.3924656 0.368367,-0.7368576 0.664672,-1.0298463 3.619684,-1.9893755 3.39704,-3.0201697 5.634023,-1.0034463 1.35366,1.3200974 2.35388,2.9241937 3.31105,4.5395446 1.15991,1.895522 2.21199,3.8487706 3.1857,5.8453476 0.87987,1.84941 1.66055,3.744023 2.39124,5.656583 0.43055,1.142215 0.88132,2.276334 1.34349,3.406086 0.10111,0.292804 0.30248,0.532512 0.43485,0.807818 0,0 -3.7857,2.134931 -3.7857,2.134931 l 0,0 c -0.1172,-0.293024 -0.31169,-0.554281 -0.40614,-0.858718 -0.38117,-1.165399 -0.81847,-2.311563 -1.22961,-3.466458 -0.69996,-1.911583 -1.47278,-3.797104 -2.33715,-5.640693 -0.97443,-1.982685 -2.00631,-3.934201 -3.17033,-5.8136844 C 100.09701,8.0599431 99.108836,6.4915498 97.7121,5.2671488 97.362175,4.9846211 97.019706,4.6745842 96.580508,4.5371446 c -0.309905,-0.09698 -0.508516,0.021496 -0.447953,-0.014796 1.183795,-0.7093872 2.397224,-1.3681093 3.595836,-2.052164 -0.389883,0.098924 -0.634288,0.450503 -0.802148,0.7959934 -0.403487,0.8520216 -0.704642,1.7366504 -0.973074,2.6416754 -0.509322,1.5290649 -0.937503,3.0846996 -1.365673,4.6380379 -0.578739,1.883995 -1.079686,3.791293 -1.706619,5.660246 -0.455216,1.472476 -0.835715,2.967153 -1.154482,4.475237 -0.04046,0.149129 -0.159869,0.573925 -0.195286,0.753341 -0.01562,0.07913 0.03728,0.199821 -0.0328,0.239743 -1.284449,0.731635 -2.629867,1.350626 -3.9448,2.025939 0.07432,-0.04668 0.03462,-0.0095 0.06981,-0.147569 0.135214,-0.516182 0.274894,-1.030836 0.445137,-1.536731 0,0 3.913079,-1.837728 3.913079,-1.837728 z"
       inkscape:connector-curvature="0"
       transform="translate(6.6292965,876.95567)" />
    <path
       style="fill:#1a1a1a;stroke-width:1.89999998000000003;stroke-miterlimit:4;stroke-dasharray:7.59999999999999964, 7.59999999999999964;stroke-dashoffset:0"
       id="path3010"
       d="m 14.795591,104.36844 c 1.109057,-0.13034 2.226522,-0.036 3.338309,0.009 1.498395,0.0344 2.993117,0.0713 4.488332,0.17569 1.692299,0.19549 3.385183,0.38266 5.072059,0.62129 1.989662,0.29323 3.999649,0.3811 6.007337,0.43857 2.216302,0.0323 4.42864,0.18094 6.638068,0.34916 2.346646,0.13842 4.689236,0.32949 7.037328,0.44435 2.784435,0.0696 5.566921,0.17546 8.350311,0.27903 3.095493,0.1318 6.192945,0.24321 9.287148,0.40463 3.257823,0.19891 6.520851,0.27237 9.783801,0.31738 3.610995,0.058 7.220743,0.0519 10.83067,-0.0472 3.487194,-0.1156 6.97571,-0.16841 10.464554,-0.19584 3.636565,-0.0337 7.271642,-0.0201 10.906982,0.0761 3.70486,0.11586 7.4113,0.15674 11.11765,0.18629 3.8063,0.0213 7.61267,0.0263 11.41902,0.0297 3.90042,0.003 7.80083,-0.003 11.70125,-0.009 3.69403,-0.0216 7.38637,0.13381 11.07575,0.30174 3.78815,0.1627 7.5748,0.35986 11.36111,0.56118 3.54301,0.21815 7.07967,0.52198 10.61898,0.7905 3.69308,0.31371 7.39248,0.55938 11.09405,0.74782 3.64415,0.16657 7.29257,0.19595 10.93988,0.21533 3.80198,0.0613 7.60213,-0.0778 11.40244,-0.16698 3.65335,-0.0388 7.3042,-0.14306 10.95575,-0.25765 3.56423,-0.0814 7.12827,-0.18877 10.68905,-0.36758 3.467,-0.14772 6.92908,-0.38548 10.39621,-0.52907 3.15583,-0.14181 6.30295,-0.41177 9.45154,-0.65906 3.17044,-0.28078 6.34422,-0.5301 9.52106,-0.7266 2.78023,-0.22878 5.56577,-0.37488 8.34835,-0.56955 2.38579,-0.16834 4.76778,-0.36507 7.15794,-0.4644 2.40814,-0.0772 4.81269,-0.22903 7.22115,-0.30504 2.4037,-0.01 4.80294,-0.10451 7.20353,-0.21563 2.1762,-0.13572 4.34444,-0.36354 6.51795,-0.53126 2.01731,-0.13788 4.03781,-0.17133 6.05549,-0.30143 1.71153,-0.10566 3.42375,-0.14786 5.132,-0.29877 0.87935,-0.0818 0.45362,-0.0429 1.27716,-0.1172 0,0 -3.41095,2.52148 -3.41095,2.52148 l 0,0 c -0.80338,0.0602 -0.38726,0.0285 -1.24833,0.0953 -1.69851,0.12689 -3.40139,0.15247 -5.1009,0.26542 -2.00973,0.11731 -4.02321,0.14117 -6.0311,0.29284 -2.17034,0.17867 -4.33816,0.38856 -6.51296,0.50991 -2.39899,0.10543 -4.79772,0.16856 -7.19873,0.20563 -2.40885,0.08 -4.81426,0.22689 -7.22283,0.31179 -2.38146,0.10697 -4.75565,0.30653 -7.13425,0.4595 -2.7655,0.18183 -5.53393,0.31327 -8.29723,0.52906 -3.17481,0.19867 -6.34673,0.44698 -9.51501,0.73083 -3.14571,0.25423 -6.2918,0.50814 -9.44587,0.63602 -3.45822,0.14511 -6.91272,0.3613 -10.37062,0.5138 -3.56375,0.1686 -7.12982,0.28503 -10.69663,0.36438 -3.64364,0.11158 -7.28694,0.1972 -10.93217,0.23658 -3.80844,0.0872 -7.61665,0.2235 -11.42675,0.17058 -3.64759,-0.0214 -7.29621,-0.0546 -10.94003,-0.23786 -3.70823,-0.19628 -7.41454,-0.43687 -11.11526,-0.74447 -3.53561,-0.27119 -7.07007,-0.55765 -10.6087,-0.78778 -3.78072,-0.21927 -7.5633,-0.40975 -11.34714,-0.56583 -3.68702,-0.16014 -7.37659,-0.2973 -11.06775,-0.28575 -3.89395,-0.005 -7.78791,-0.009 -11.68187,-0.005 -3.81574,0.003 -7.63154,0.0109 -11.44722,-0.013 -3.706,-0.0277 -7.41154,-0.09 -11.11617,-0.19619 -3.6412,-0.0911 -7.282417,-0.0863 -10.924507,-0.0466 -3.481414,0.0304 -6.962611,0.0836 -10.442674,0.18877 -3.619894,0.0912 -7.239975,0.0906 -10.860789,0.0494 -3.275476,-0.0435 -6.551029,-0.11481 -9.821644,-0.30881 -3.096565,-0.15686 -6.195502,-0.28049 -9.2939,-0.39248 -2.798256,-0.10158 -5.596509,-0.17739 -8.39548,-0.25238 -2.357418,-0.11331 -4.710595,-0.29367 -7.066251,-0.43699 -2.208682,-0.1632 -4.420634,-0.29998 -6.635787,-0.32746 -2.02479,-0.0595 -4.049998,-0.16151 -6.056449,-0.457 -1.689827,-0.21623 -3.382921,-0.40649 -5.077386,-0.58231 -1.502371,-0.0915 -3.005785,-0.10362 -4.510133,-0.14487 -1.122574,-0.0358 -2.254419,-0.11023 -3.365235,0.10531 0,0 3.456496,-2.58702 3.456496,-2.58702 z"
       inkscape:connector-curvature="0"
       transform="translate(6.6292965,876.95567)" />
    <path
       style="fill:#1a1a1a;stroke-width:1.89999998000000003;stroke-miterlimit:4;stroke-dasharray:7.59999999999999876, 7.59999999999999876;stroke-dashoffset:0"
       id="path3012"
       d="m 294.31117,99.307008 c 1.34054,0.345094 2.67401,0.719302 3.98582,1.161232 1.93413,0.64892 3.81849,1.43575 5.69294,2.23813 1.54097,0.60699 2.95194,1.4823 4.42371,2.22973 0.83752,0.42333 1.64058,0.9107 2.49014,1.31004 0.67109,0.33335 0.92731,0.54896 0.85999,1.33627 -0.50096,1.25293 -1.57056,2.18991 -2.53021,3.09786 -1.59609,1.50093 -3.316,2.85896 -5.0815,4.15307 -0.93503,0.65189 -1.89125,1.27292 -2.85448,1.88217 -4.51126,2.48993 -5.92052,3.695 -0.46132,-0.30717 0,0 -3.55315,2.51158 -3.55315,2.51158 l 0,0 c 1.1268,-0.87906 2.25011,-1.76262 3.38041,-2.63718 0.0404,-0.0313 0.11311,-0.002 0.14262,-0.0562 -1.17865,0.68214 -2.35731,1.36428 -3.53596,2.04643 1.03056,-0.6096 2.0368,-1.2592 3.03648,-1.91793 1.76733,-1.2627 3.48531,-2.5976 5.06608,-4.09066 0.9253,-0.855 1.84485,-1.72867 2.51679,-2.80531 0.22874,-0.56586 -0.13163,-0.59379 -0.57796,-0.85062 -0.81813,-0.43939 -1.61355,-0.91909 -2.43224,-1.35747 -1.43044,-0.77996 -2.82739,-1.63173 -4.34346,-2.24287 -1.86651,-0.80216 -3.74625,-1.5853 -5.68533,-2.19703 -1.3557,-0.42074 -2.72965,-0.77508 -4.11679,-1.07679 0,0 3.57742,-2.427242 3.57742,-2.427242 z"
       inkscape:connector-curvature="0"
       transform="translate(6.6292965,876.95567)" />
    <path
       style="fill:#999999;stroke-width:1.89999998;stroke-miterlimit:4;stroke-dasharray:7.6, 7.6;stroke-dashoffset:0"
       id="path3014"
       d="m 150.82251,4.7663337 c -0.26749,2.2217344 -0.36845,4.4625625 -0.53317,6.6942453 -0.1202,2.102685 -0.29439,4.200162 -0.48812,6.297074 0,0 -3.4607,1.726448 -3.4607,1.726448 l 0,0 c 0.16137,-2.073934 0.30634,-4.148062 0.3698,-6.22787 0.11087,-2.192893 0.18765,-4.3864943 0.24808,-6.5811863 0,0 3.86411,-1.908711 3.86411,-1.908711 z"
       inkscape:connector-curvature="0"
       transform="translate(6.6292965,876.95567)" />
    <path
       style="fill:#999999;stroke-width:1.89999998;stroke-miterlimit:4;stroke-dasharray:7.6, 7.6;stroke-dashoffset:0"
       id="path3016"
       d="m 149.06916,30.15543 c -0.33814,2.751267 -0.58389,5.514213 -0.82051,8.275897 -0.21788,2.272238 -0.35709,4.55035 -0.49142,6.828623 0,0 -3.44501,1.731028 -3.44501,1.731028 l 0,0 c 0.12123,-2.268843 0.24906,-4.537255 0.42288,-6.802837 0.17909,-2.705915 0.39349,-5.411403 0.47939,-8.122088 0,0 3.85467,-1.910623 3.85467,-1.910623 z"
       inkscape:connector-curvature="0"
       transform="translate(6.6292965,876.95567)" />
    <path
       style="fill:#999999;stroke-width:1.89999998;stroke-miterlimit:4;stroke-dasharray:7.6, 7.6;stroke-dashoffset:0"
       id="path3018"
       d="m 147.3483,58.075607 c -0.25694,3.001813 -0.4478,6.009014 -0.68781,9.012552 -0.24857,2.680946 -0.42199,5.367415 -0.58639,8.054485 0,0 -3.37042,1.691759 -3.37042,1.691759 l 0,0 c 0.15978,-2.674651 0.32784,-5.348698 0.51504,-8.021599 0.1593,-2.925077 0.28379,-5.850426 0.28908,-8.780366 0,0 3.8405,-1.956831 3.8405,-1.956831 z"
       inkscape:connector-curvature="0"
       transform="translate(6.6292965,876.95567)" />
    <path
       style="fill:#999999;stroke-width:1.89999998;stroke-miterlimit:4;stroke-dasharray:7.6, 7.6;stroke-dashoffset:0"
       id="path3020"
       d="m 145.87874,88.927035 c -0.34884,1.565435 -0.55032,3.161666 -0.75359,4.751312 0,0 -3.63815,1.802128 -3.63815,1.802128 l 0,0 c 0.15441,-1.552458 0.31586,-3.105954 0.50625,-4.653846 0,0 3.88549,-1.899594 3.88549,-1.899594 z"
       inkscape:connector-curvature="0"
       transform="translate(6.6292965,876.95567)" />
    <path
       style="fill:#999999;stroke-width:1.89999998;stroke-miterlimit:4;stroke-dasharray:7.6, 7.6;stroke-dashoffset:0"
       id="path3022"
       d="m 145.28517,102.39839 c -0.34285,2.33318 -0.54021,4.68454 -0.75484,7.03204 -0.24712,2.73375 -0.3486,5.47686 -0.43611,8.2193 0,0 -3.49764,1.76756 -3.49764,1.76756 l 0,0 c 0.0941,-2.73756 0.20123,-5.47486 0.37567,-8.20871 0.1485,-2.30057 0.30929,-4.60068 0.44881,-6.90148 0,0 3.86411,-1.90871 3.86411,-1.90871 z"
       inkscape:connector-curvature="0"
       transform="translate(6.6292965,876.95567)" />
    <path
       style="fill:#999999;stroke-width:1.89999998;stroke-miterlimit:4;stroke-dasharray:7.6, 7.6;stroke-dashoffset:0"
       id="path3024"
       d="m 144.13906,130.68051 c -0.14079,2.58317 -0.3419,5.1624 -0.48425,7.74561 -0.10391,2.4768 -0.0597,1.24151 -0.13295,3.70586 0,0 -3.53898,1.78978 -3.53898,1.78978 l 0,0 c 0.0755,-2.46751 0.0354,-1.23182 0.1204,-3.70707 0.0988,-2.52474 0.28087,-5.05396 0.20211,-7.58082 0,0 3.83367,-1.95336 3.83367,-1.95336 z"
       inkscape:connector-curvature="0"
       transform="translate(6.6292965,876.95567)" />
    <path
       style="fill:#999999;stroke-width:1.89999998;stroke-miterlimit:4;stroke-dasharray:7.6, 7.6;stroke-dashoffset:0"
       id="path3026"
       d="m 15.43062,77.734832 c 1.952127,0.376477 3.950414,0.485164 5.928554,0.663188 2.66657,0.258616 5.337543,0.468589 8.006108,0.705817 0,0 -3.153873,2.251331 -3.153873,2.251331 l 0,0 c -2.708945,-0.213904 -5.419488,-0.405044 -8.128642,-0.616061 -2.072344,-0.142526 -4.163674,-0.21197 -6.212945,-0.565648 0,0 3.560798,-2.438627 3.560798,-2.438627 z"
       inkscape:connector-curvature="0"
       transform="translate(6.6292965,876.95567)" />
    <path
       style="fill:#999999;stroke-width:1.89999998;stroke-miterlimit:4;stroke-dasharray:7.6, 7.6;stroke-dashoffset:0"
       id="path3028"
       d="m 43.338173,77.49823 c 2.260193,-0.227195 4.552194,-0.07898 6.818864,-8.42e-4 2.741997,0.1368 1.345462,0.05717 4.189473,0.241207 0,0 -3.161131,2.268505 -3.161131,2.268505 l 0,0 c -2.878867,-0.151774 -1.462609,-0.09212 -4.248649,-0.181879 -2.311907,-0.0325 -4.747006,-0.188053 -7.018177,0.305951 0,0 3.41962,-2.632942 3.41962,-2.632942 z"
       inkscape:connector-curvature="0"
       transform="translate(6.6292965,876.95567)" />
    <path
       style="fill:#999999;stroke-width:1.89999998;stroke-miterlimit:4;stroke-dasharray:7.6, 7.6;stroke-dashoffset:0"
       id="path3030"
       d="m 75.528585,77.622164 c 2.730592,0.104617 5.45463,0.331222 8.175355,0.580983 0,0 -3.200659,2.284596 -3.200659,2.284596 l 0,0 c -2.8101,-0.21544 -5.629142,-0.417772 -8.449397,-0.341061 0,0 3.474701,-2.524518 3.474701,-2.524518 z"
       inkscape:connector-curvature="0"
       transform="translate(6.6292965,876.95567)" />
    <path
       style="fill:#999999;stroke-width:1.89999998;stroke-miterlimit:4;stroke-dasharray:7.6, 7.6;stroke-dashoffset:0"
       id="path3032"
       d="m 93.592581,77.437032 c 2.49273,0.455586 5.042264,0.423402 7.566249,0.429292 0.69161,-0.01628 1.38322,-0.03255 2.07483,-0.04883 0,0 -3.15839,2.30764 -3.15839,2.30764 l 0,0 c -0.703177,0.02105 -1.406351,0.04209 -2.109525,0.06314 -2.636269,0.02782 -5.2901,0.07478 -7.907147,-0.2999 0,0 3.533983,-2.451348 3.533983,-2.451348 z"
       inkscape:connector-curvature="0"
       transform="translate(6.6292965,876.95567)" />
    <path
       style="fill:#999999;stroke-width:1.89999998;stroke-miterlimit:4;stroke-dasharray:7.6, 7.6;stroke-dashoffset:0"
       id="path3034"
       d="m 119.40375,78.663986 c 1.40772,-0.121147 2.81337,0.03205 4.21636,0.139004 0,0 -3.33776,2.392214 -3.33776,2.392214 l 0,0 c -1.42727,-0.07637 -2.89082,-0.2272 -4.29822,0.101724 0,0 3.41962,-2.632942 3.41962,-2.632942 z"
       inkscape:connector-curvature="0"
       transform="translate(6.6292965,876.95567)" />
    <path
       style="fill:#999999;stroke-width:1.89999998;stroke-miterlimit:4;stroke-dasharray:7.6, 7.6;stroke-dashoffset:0"
       id="path3036"
       d="m 140.95382,77.258325 c 1.91488,-0.145987 3.83581,-0.03016 5.75201,0.02599 4.07529,0.13008 8.1489,0.289357 12.22584,0.366513 0,0 -3.15659,2.283573 -3.15659,2.283573 l 0,0 c -4.11213,-0.09002 -8.22312,-0.236282 -12.33587,-0.286101 -1.97907,-0.01683 -3.98049,-0.110878 -5.94191,0.209616 0,0 3.45652,-2.599596 3.45652,-2.599596 z"
       inkscape:connector-curvature="0"
       transform="translate(6.6292965,876.95567)" />
    <path
       style="fill:#999999;stroke-width:1.89999998;stroke-miterlimit:4;stroke-dasharray:7.6, 7.6;stroke-dashoffset:0"
       id="path3038"
       d="m 174.26288,77.326222 c 2.16069,0.04038 4.31555,0.218976 6.47149,0.357301 2.50844,0.129968 1.22799,0.05957 3.84128,0.212256 0,0 -3.19045,2.292477 -3.19045,2.292477 l 0,0 c -2.65121,-0.124192 -1.35004,-0.06831 -3.90347,-0.168744 -2.23307,-0.102821 -4.46985,-0.247047 -6.70595,-0.159765 0,0 3.4871,-2.533525 3.4871,-2.533525 z"
       inkscape:connector-curvature="0"
       transform="translate(6.6292965,876.95567)" />
    <path
       style="fill:#999999;stroke-width:1.89999998;stroke-miterlimit:4;stroke-dasharray:7.6, 7.6;stroke-dashoffset:0"
       id="path3040"
       d="m 198.72767,77.561359 c 2.29919,0.05144 4.5966,0.132565 6.89455,0.225174 4.8078,0.251637 9.61465,0.509027 14.42659,0.6677 0,0 -3.09479,2.232454 -3.09479,2.232454 l 0,0 c -4.85025,-0.170029 -9.69653,-0.432001 -14.54765,-0.578466 -2.37584,-0.048 -4.76086,-0.125376 -7.13364,0.02954 0,0 3.45494,-2.576406 3.45494,-2.576406 z"
       inkscape:connector-curvature="0"
       transform="translate(6.6292965,876.95567)" />
    <path
       style="fill:#999999;stroke-width:1.89999998;stroke-miterlimit:4;stroke-dasharray:7.6, 7.6;stroke-dashoffset:0"
       id="path3042"
       d="m 243.02832,77.675338 c 1.88161,0.276179 3.77374,0.468229 5.66454,0.670187 3.29726,0.429038 6.61674,0.601029 9.93813,0.680349 0,0 -3.11401,2.252642 -3.11401,2.252642 l 0,0 c -3.38239,-0.05916 -6.76299,-0.204311 -10.127,-0.581817 -1.96397,-0.172044 -3.92703,-0.353093 -5.89017,-0.533469 0,0 3.52851,-2.487892 3.52851,-2.487892 z"
       inkscape:connector-curvature="0"
       transform="translate(6.6292965,876.95567)" />
    <path
       style="fill:#999999;stroke-width:1.89999998;stroke-miterlimit:4;stroke-dasharray:7.6, 7.6;stroke-dashoffset:0"
       id="path3044"
       d="m 277.43426,75.40332 c 2.63992,0.452227 5.3413,0.454101 8.01235,0.523245 0.75829,0.01217 1.51658,0.02434 2.27487,0.03651 0,0 -3.13243,2.270022 -3.13243,2.270022 l 0,0 c -0.76769,-0.0064 -1.53537,-0.01283 -2.30306,-0.01924 -2.8023,-0.03287 -5.63243,0.02134 -8.41252,-0.371912 0,0 3.56079,-2.438627 3.56079,-2.438627 z"
       inkscape:connector-curvature="0"
       transform="translate(6.6292965,876.95567)" />
    <path
       style="fill:#999999;stroke-width:1.89999998000000003;stroke-miterlimit:4;stroke-dasharray:7.59999999999999876, 7.59999999999999876;stroke-dashoffset:0"
       id="path3046"
       d="m 297.25012,75.577588 c 1.77825,-0.114832 3.5603,-0.150526 5.34152,-0.185367 0,0 -3.324,2.427016 -3.324,2.427016 l 0,0 c -1.83738,0.05061 -3.67348,0.126334 -5.50461,0.291876 0,0 3.48709,-2.533525 3.48709,-2.533525 z"
       inkscape:connector-curvature="0"
       transform="translate(6.6292965,876.95567)" />
    <path
       style="fill:#ff0000;stroke-width:1;stroke-miterlimit:4;stroke-dasharray:none;stroke-dashoffset:0;stroke:#000000;stroke-opacity:1"
       id="path3048"
       d="m 172.39968,5.2840482 c -0.14093,0.6108651 -0.17124,1.2381906 -0.26358,1.856176 -0.1257,0.5218596 -0.21207,1.0491224 -0.26369,1.5830013 -0.0676,0.4687668 -0.19139,0.930677 -0.33595,1.3813775 -0.16605,0.588687 -0.24032,1.196457 -0.38218,1.791677 -0.1186,0.444715 -0.14719,0.903721 -0.20138,1.35838 -0.12707,0.460577 -0.20798,0.926855 -0.2509,1.40224 -0.0113,0.651913 -0.0754,1.295486 -0.16915,1.940157 -0.0925,0.672353 -0.13604,1.350206 -0.14916,2.02842 -0.0106,0.519583 -0.012,1.039284 -0.013,1.558955 -0.008,0.578635 0.0195,1.15793 -0.0237,1.735278 -0.0999,0.612388 -0.17587,1.227641 -0.22571,1.846032 -0.0323,0.551321 -0.0577,1.10467 -0.0225,1.656173 0.0949,0.654283 0.1815,1.308634 0.23006,1.968122 0.0502,0.589811 0.0138,1.183458 0.0663,1.772491 0.0973,0.610566 0.14234,1.229828 0.25131,1.83824 0.13504,0.54459 0.20547,1.100402 0.33534,1.645888 0.0846,0.547251 0.26841,1.068347 0.40303,1.603149 0.0852,0.472751 0.24446,0.925329 0.3498,1.393711 0.11547,0.448062 0.32806,0.860851 0.48181,1.295551 0.17607,0.47892 0.35371,0.956241 0.53285,1.433997 0.13055,0.445938 0.26495,0.891003 0.41656,1.330296 0.17402,0.489039 0.38657,0.963605 0.52871,1.463901 0.17619,0.538299 0.35069,1.082387 0.58138,1.600081 0.23076,0.4157 0.31208,0.880824 0.44546,1.328934 0.13476,0.450175 0.38061,0.853006 0.58618,1.271834 0.1745,0.325343 0.40054,0.606877 0.62004,0.900588 0.21794,0.187329 0.38719,0.428466 0.57858,0.643614 0.20882,0.226688 0.44328,0.413232 0.65196,0.643717 0.24149,0.300372 0.53906,0.540363 0.81278,0.806585 0.3464,0.291283 0.71519,0.544143 1.12171,0.742935 0.34973,0.31089 0.80526,0.388841 1.21965,0.563082 0.40753,0.150886 0.79397,0.348478 1.21593,0.460271 0.43286,0.100305 0.85481,0.27391 1.26197,0.456449 0.45275,0.181936 0.89947,0.370128 1.3446,0.570393 0.50504,0.269433 1.00505,0.550738 1.52262,0.796235 0.51277,0.27856 1.05173,0.500871 1.56159,0.785209 0.54393,0.277692 1.09679,0.539127 1.63428,0.829628 0.58073,0.290875 1.17017,0.565906 1.7428,0.872859 0.66451,0.295492 1.29785,0.65345 1.95491,0.964058 0.67957,0.348731 1.38902,0.646684 2.10768,0.906917 0.71203,0.320524 1.40807,0.673376 2.11318,1.009036 0.66277,0.263125 1.28559,0.615349 1.95757,0.85492 0.58301,0.326358 1.24446,0.366924 1.87806,0.520073 0.64405,0.169824 1.26298,0.394289 1.92594,0.487648 0.69504,0.07843 1.39558,0.08129 2.09413,0.08425 0.7884,-0.02417 1.56405,0.0026 2.34524,0.103983 0.84882,0.133856 1.71167,0.108495 2.56109,0.223714 0.88316,0.08668 1.7523,0.252691 2.6288,0.384705 0.87937,0.123528 1.76824,0.146459 2.65481,0.16024 0.82782,0.0082 1.64645,0.160727 2.47143,0.228697 0.78796,0.01331 1.55924,0.174472 2.34115,0.258456 0.81612,0.09556 1.64024,0.04574 2.45456,0.146129 0.81901,0.09956 1.6344,0.180401 2.44684,0.322396 0.85308,0.109692 1.69133,0.292851 2.54597,0.394551 0.95951,0.05247 1.90634,0.213324 2.86246,0.304226 0.89571,0.02291 1.7743,0.195178 2.66331,0.289528 0.79962,0.07794 1.6033,0.08685 2.40592,0.09615 0.79164,-0.04296 1.57004,0.1059 2.35303,0.195466 0.69906,0.09645 1.4113,0.02578 2.10568,0.143969 0.53964,0.137734 1.10903,0.124954 1.64275,0.275526 0.40468,0.141599 0.82721,0.206191 1.25324,0.233541 0.4585,-0.01697 0.8841,0.153509 1.33353,0.225266 0.56004,0.04198 1.10553,0.08494 1.6558,0.196928 0.64184,0.0773 1.26854,0.226436 1.90624,0.328622 0.78561,0.131084 1.58509,0.09074 2.37199,0.196099 0.88235,0.13903 1.7734,0.192437 2.66491,0.225622 0.93616,0.02637 1.87274,0.0246 2.80917,0.02709 0.91051,-0.112857 1.82185,-0.20551 2.73831,-0.2525 0.92557,0.0088 1.83742,-0.09029 2.75501,-0.195867 0.89843,-0.04923 1.78006,-0.225237 2.67281,-0.32795 0.90518,-0.06184 1.80485,-0.09353 2.7056,-0.202411 0.96962,-0.07134 1.92236,-0.263712 2.88831,-0.368448 0.94889,-0.110438 1.88912,-0.267162 2.84336,-0.336335 1.02117,-0.112233 2.03274,-0.0141 3.0494,0.0798 1.09825,0.101767 2.2015,0.127952 3.30378,0.141027 1.06155,-0.01615 2.12911,0.0664 3.18658,-0.0425 0.97138,-0.124556 1.94769,-0.187251 2.92598,-0.218283 0.97453,-0.02207 1.94935,-0.0318 2.92412,-0.03275 0.82089,-0.0045 1.64177,-1.57e-4 2.46265,-4.78e-4 0.83318,0.0029 1.66635,0.002 2.49952,-0.0013 0.43096,-0.0072 0.95092,-0.04782 1.32339,-0.296506 0,0 -3.41875,2.690901 -3.41875,2.690901 l 0,0 c -0.45483,0.08251 -0.90747,0.164768 -1.37352,0.125853 -0.83152,-0.0035 -1.66303,-0.0045 -2.49455,-0.0026 -0.81869,-0.0014 -1.63738,6.99e-4 -2.45607,-0.0031 -0.96769,0.0023 -1.93575,-0.002 -2.90288,0.0373 -0.97658,0.04643 -1.94935,0.133265 -2.9219,0.232359 -1.06415,0.04454 -2.13004,0.0065 -3.19478,0.0016 -1.11223,-0.0249 -2.2256,-0.04868 -3.33346,-0.158796 -1.00231,-0.09184 -2.00388,-0.128013 -3.00751,-0.01747 -0.94881,0.09178 -1.88774,0.252729 -2.83597,0.348586 -0.9641,0.123706 -1.92262,0.287915 -2.89192,0.369397 -0.90165,0.09844 -1.80891,0.102439 -2.70994,0.208878 -0.89006,0.113352 -1.77541,0.261291 -2.67161,0.322221 -0.92068,0.100186 -1.84106,0.154517 -2.76703,0.177374 -0.91781,0.06315 -1.82984,0.186681 -2.74881,0.227903 -0.94121,3.66e-4 -1.8829,-9.3e-5 -2.82348,-0.0383 -0.90024,-0.04221 -1.79704,-0.119756 -2.69026,-0.241371 -0.79808,-0.06285 -1.60248,-0.06596 -2.3925,-0.212285 -0.64193,-0.110793 -1.28408,-0.21657 -1.92654,-0.324125 -0.55135,-0.09223 -1.1121,-0.08642 -1.6624,-0.189255 -0.43872,-0.08715 -0.87025,-0.190488 -1.32084,-0.192341 -0.43297,-0.05686 -0.85393,-0.163913 -1.27432,-0.2807 -0.53659,-0.08047 -1.07196,-0.166333 -1.60772,-0.252321 -0.69927,-0.05424 -1.40285,-0.05407 -2.09936,-0.146674 -0.77018,-0.100418 -1.53874,-0.198678 -2.318,-0.163351 -0.80963,-0.01217 -1.6201,-0.03938 -2.42484,-0.135051 -0.88334,-0.106493 -1.76211,-0.24878 -2.6522,-0.291979 -0.95784,-0.106079 -1.91265,-0.235606 -2.8737,-0.30983 -0.85701,-0.119379 -1.70693,-0.281561 -2.56373,-0.402206 -0.80425,-0.130632 -1.6158,-0.199061 -2.42416,-0.299774 -0.82126,-0.05156 -1.64673,-0.04365 -2.46421,-0.150534 -0.77847,-0.09573 -1.55357,-0.215205 -2.33844,-0.247603 -0.81327,-0.0803 -1.62232,-0.223726 -2.44224,-0.213267 -0.89914,-0.02437 -1.80027,-0.0567 -2.68927,-0.205635 -0.87072,-0.140295 -1.74104,-0.275909 -2.61861,-0.368464 -0.85593,-0.0721 -1.71593,-0.09971 -2.56743,-0.221669 -0.77492,-0.07768 -1.55073,-0.0605 -2.32885,-0.06042 -0.71384,-0.0108 -1.43063,-0.01954 -2.13686,-0.136471 -0.65776,-0.127253 -1.28176,-0.3658 -1.9364,-0.505838 -0.66064,-0.128455 -1.31143,-0.268602 -1.91925,-0.572129 -0.66276,-0.275896 -1.30164,-0.605847 -1.96194,-0.887906 -0.69949,-0.323534 -1.37583,-0.696171 -2.09217,-0.981691 -0.72539,-0.280701 -1.44754,-0.576111 -2.13772,-0.936086 -0.65326,-0.328569 -1.305,-0.659779 -1.96755,-0.969215 -0.58037,-0.293174 -1.16315,-0.58158 -1.74446,-0.872894 -0.54723,-0.277043 -1.09645,-0.550141 -1.64365,-0.82726 -0.51496,-0.26131 -1.03492,-0.51247 -1.54852,-0.776451 -0.51,-0.258099 -1.0153,-0.525453 -1.52813,-0.777927 -0.44102,-0.203541 -0.89845,-0.36802 -1.34374,-0.562121 -0.40124,-0.169129 -0.81797,-0.303163 -1.23794,-0.417236 -0.41387,-0.148814 -0.81667,-0.326714 -1.22826,-0.481834 -0.4427,-0.147732 -0.8574,-0.346393 -1.24408,-0.610228 -0.4258,-0.237939 -0.8262,-0.51076 -1.19001,-0.837472 -0.29141,-0.262147 -0.579,-0.526018 -0.83589,-0.823389 -0.22024,-0.22343 -0.46543,-0.418277 -0.66951,-0.657389 -0.19072,-0.231002 -0.38375,-0.46018 -0.5926,-0.67508 -0.22657,-0.319395 -0.46052,-0.628484 -0.64221,-0.977949 -0.20812,-0.439816 -0.4708,-0.856473 -0.62308,-1.320854 -0.14387,-0.428798 -0.17879,-0.894 -0.40878,-1.296286 -0.23636,-0.53853 -0.41776,-1.101791 -0.61567,-1.655457 -0.12711,-0.492776 -0.3446,-0.95173 -0.51171,-1.431011 -0.16718,-0.433731 -0.3057,-0.879245 -0.41963,-1.329504 -0.1707,-0.483854 -0.35438,-0.963152 -0.54025,-1.441017 -0.14744,-0.457143 -0.37326,-0.881474 -0.51227,-1.34157 -0.084,-0.469964 -0.24899,-0.916077 -0.33464,-1.384585 -0.12158,-0.538505 -0.31426,-1.058233 -0.39408,-1.606471 -0.13579,-0.550209 -0.21617,-1.106905 -0.34639,-1.658536 -0.13691,-0.614352 -0.12542,-1.253866 -0.26343,-1.870173 -0.0891,-0.594004 -0.0311,-1.196927 -0.0741,-1.795708 -0.037,-0.654901 -0.1054,-1.306867 -0.22011,-1.953142 -0.0828,-0.569848 -0.043,-1.146148 -0.0227,-1.720448 0.0424,-0.625131 0.12882,-1.245991 0.22132,-1.865501 0.0956,-0.555841 0.0235,-1.125062 0.0428,-1.687132 -0.002,-0.52416 -0.007,-1.048508 0.009,-1.572513 0.0302,-0.693334 0.0577,-1.387396 0.14736,-2.076346 0.078,-0.636051 0.18521,-1.262674 0.16009,-1.906751 0.0277,-0.487964 0.0624,-0.980728 0.21467,-1.448698 0.1434,-0.438398 0.0549,-0.932017 0.20793,-1.375754 0.14659,-0.602794 0.28696,-1.199417 0.3652,-1.816277 0.13274,-0.430694 0.25186,-0.860862 0.3741,-1.295421 0.0429,-0.548122 0.114,-1.0955736 0.25333,-1.6283776 0.14759,-0.6005971 0.13764,-1.2305762 0.25372,-1.8384808 0,0 3.88548,-1.8995934 3.88548,-1.8995934 z"
       inkscape:connector-curvature="0"
       transform="translate(6.6292965,876.95567)" />
    <path
       style="fill:#ff0000;stroke-width:1;stroke-miterlimit:4;stroke-dasharray:none;stroke-dashoffset:0;stroke:#000000;stroke-opacity:1"
       id="path3050"
       d="m 16.217939,87.167251 c 0.699992,0.03177 1.400931,0.04046 2.101493,0.05403 0.523437,0.01042 1.046992,0.0096 1.570506,0.01163 0.471035,-0.01626 0.929509,-0.165384 1.396996,-0.24289 0.463587,0.103753 0.93229,0.166735 1.405067,0.208051 0.489388,0.03424 0.980324,0.03512 1.470665,0.0379 0.514096,0.0024 1.028158,-0.0025 1.542258,-0.0022 0.545128,8.64e-4 1.090256,0.0015 1.635384,0.0019 0.60124,-0.05541 1.17588,0.06208 1.763788,0.161742 0.652302,0.09317 1.311583,0.114186 1.969436,0.12722 0.574208,0.0095 1.148464,0.0047 1.722688,0.0016 0.492393,4.6e-4 0.984769,-0.0014 1.477154,-0.0026 0.4644,9.13e-4 0.92874,-0.0029 1.393123,0.0024 0.638823,0.0024 1.277651,0.0044 1.916477,0.0055 0.862666,0.002 1.725328,0.0086 2.588,0.0078 1.021478,0.0033 2.042949,0.0027 3.064427,0.0024 1.091213,0.0012 2.182425,0.0028 3.273638,0.0037 1.106442,0.0016 2.212881,4.97e-4 3.319312,-0.0045 0.973742,-0.01528 1.93833,0.146646 2.892276,0.323432 0.888335,0.244811 1.778925,0.4796 2.664637,0.733824 0.816931,0.230083 1.660602,0.325763 2.493892,0.477084 0.865359,0.09477 1.722371,0.232604 2.584358,0.353345 0.903562,0.176739 1.800271,0.388201 2.707378,0.546052 0.928408,0.223671 1.873262,0.355965 2.810474,0.534945 0.874968,0.1086 1.706299,0.411311 2.563305,0.601871 0.766595,0.220446 1.542142,0.400126 2.294704,0.666186 0.686617,0.201488 1.315795,0.548717 1.989425,0.784014 0.549898,0.202299 1.082786,0.451778 1.638444,0.637303 0.463803,0.231091 0.903692,0.505002 1.369098,0.732818 0.589667,0.332238 1.216324,0.597133 1.84266,0.851994 0.622092,0.244738 1.272728,0.411491 1.870463,0.713197 0.650946,0.301733 1.287119,0.630295 1.930079,0.949316 0.670903,0.401201 1.381606,0.726585 2.071977,1.090962 0.628082,0.357185 1.239203,0.740386 1.846253,1.132137 0.557012,0.413421 1.175348,0.729733 1.750314,1.115541 0.544008,0.359369 1.126942,0.640669 1.729601,0.885989 0.478888,0.15786 0.906301,0.42333 1.291462,0.74417 0.337103,0.25393 0.678676,0.50343 1.016016,0.75936 0.351427,0.25467 0.669401,0.55041 1.011499,0.81709 0.371882,0.32951 0.785673,0.60054 1.179238,0.90197 0.533341,0.30306 1.014157,0.67445 1.513876,1.02609 0.529845,0.41076 1.073377,0.80427 1.663182,1.12484 0.687733,0.3745 1.304845,0.85954 1.941163,1.31252 0.615826,0.36115 1.186025,0.79082 1.771595,1.19759 0.58587,0.37104 1.09901,0.82009 1.5914,1.30585 0.55911,0.45121 1.10109,0.92173 1.62888,1.40906 0.60241,0.42597 1.12701,0.92865 1.62344,1.47098 0.5468,0.58656 1.08691,1.17545 1.59798,1.79337 0.53393,0.63989 1.16221,1.19146 1.73167,1.79904 0.63011,0.59968 1.0933,1.32882 1.59023,2.03447 0.52162,0.77695 1.06219,1.54235 1.6291,2.28704 0.4474,0.687 0.98144,1.30831 1.47839,1.95778 0.43384,0.64154 0.78438,1.33643 1.11923,2.03362 0.33322,0.63065 0.61646,1.2838 0.8872,1.94315 0.31289,0.72407 0.59989,1.4604 0.87156,2.20118 0.31324,0.79646 0.60767,1.60131 0.87339,2.41502 0.21933,0.74174 0.44089,1.48296 0.68235,2.21783 0.2024,0.60756 0.38759,1.21651 0.54243,1.83799 0.16372,0.67219 0.30147,1.34978 0.45849,2.02372 0.0791,0.53347 0.21959,1.05 0.36646,1.56772 0.0554,0.36174 0.16116,0.70516 0.29294,1.04565 0.10308,0.25554 0.0948,0.53597 0.19426,0.79078 0.12285,0.29281 0.18435,0.60084 0.22332,0.91423 4e-4,0.25246 0.0438,0.47414 0.12588,0.71006 0.0926,0.23555 0.14971,0.48129 0.17786,0.7323 0.0201,0.2292 0.018,0.45965 0.0195,0.68952 0.008,0.1595 0.0968,0.30572 0.18522,0.43518 0.6203,1.5945 0.15722,0.18502 -3.75757,2.38544 0,0 3.53914,-2.53306 3.53914,-2.53306 l 0,0 c -3.72687,2.2078 -4.49706,1.01801 -3.55203,2.33716 -0.11617,-0.20775 -0.21518,-0.42504 -0.2888,-0.65167 0.002,-0.21912 0.003,-0.43832 -0.003,-0.65738 -0.01,-0.21819 -0.0395,-0.43346 -0.11821,-0.63872 -0.0941,-0.26727 -0.21016,-0.50907 -0.17678,-0.80082 -0.0185,-0.2753 -0.0544,-0.54791 -0.16338,-0.80431 -0.11062,-0.26524 -0.15156,-0.5241 -0.20199,-0.80522 -0.12112,-0.35791 -0.2626,-0.70847 -0.29936,-1.08739 -0.12701,-0.53029 -0.29108,-1.05067 -0.35043,-1.59497 -0.14091,-0.67166 -0.30046,-1.33845 -0.44874,-2.00822 -0.17234,-0.60826 -0.32533,-1.22049 -0.53136,-1.81886 -0.23351,-0.73877 -0.45096,-1.4821 -0.66039,-2.22812 -0.2638,-0.80902 -0.56298,-1.60674 -0.8746,-2.39832 -0.26484,-0.7371 -0.56034,-1.46435 -0.87131,-2.18285 -0.26279,-0.65397 -0.55776,-1.29327 -0.87884,-1.92059 -0.31287,-0.67428 -0.64481,-1.34759 -1.06912,-1.9593 -0.49204,-0.65262 -1.02459,-1.27516 -1.46104,-1.96908 -0.5656,-0.75224 -1.11319,-1.51833 -1.64467,-2.29503 -0.48402,-0.68882 -0.9437,-1.39555 -1.55914,-1.97898 -0.58592,-0.60355 -1.2091,-1.17369 -1.74292,-1.82527 -0.51265,-0.60847 -1.06154,-1.18239 -1.60246,-1.76562 -0.49286,-0.52899 -1.02368,-1.00443 -1.598988,-1.44336 -0.53651,-0.48536 -1.09579,-0.94287 -1.643464,-1.41518 -0.482614,-0.4607 -0.989667,-0.88503 -1.552007,-1.24696 -0.587817,-0.40563 -1.163657,-0.82792 -1.770878,-1.20482 -0.624906,-0.44532 -1.231403,-0.92112 -1.915748,-1.27493 -0.594739,-0.34645 -1.15873,-0.73702 -1.704969,-1.15569 -0.492122,-0.36516 -1.000475,-0.69938 -1.516706,-1.0297 -0.410154,-0.29235 -0.821337,-0.58121 -1.204244,-0.90958 -0.329205,-0.27771 -0.663688,-0.54744 -1.009953,-0.80376 -0.334861,-0.26 -0.676628,-0.51165 -1.013888,-0.76837 -0.372273,-0.27798 -0.774187,-0.49816 -1.21132,-0.65967 -0.612329,-0.274 -1.20927,-0.57368 -1.765055,-0.95253 -0.582818,-0.37026 -1.185341,-0.70975 -1.747643,-1.11215 -0.59992,-0.37975 -1.196247,-0.76489 -1.820938,-1.103564 -0.692472,-0.356818 -1.386725,-0.710174 -2.069006,-1.086355 -0.63622,-0.32745 -1.286028,-0.624357 -1.931459,-0.932887 -0.607453,-0.260679 -1.245711,-0.443953 -1.854727,-0.702576 -0.632199,-0.272711 -1.270856,-0.534086 -1.873785,-0.868675 -0.446196,-0.233722 -0.884314,-0.485415 -1.346149,-0.687436 -0.542547,-0.216754 -1.082853,-0.437571 -1.627879,-0.648435 -0.654622,-0.263464 -1.29061,-0.576204 -1.968878,-0.77851 -0.748436,-0.235126 -1.506411,-0.437377 -2.264283,-0.639555 -0.846844,-0.20974 -1.68263,-0.471472 -2.549916,-0.590088 -0.934225,-0.181884 -1.876025,-0.32214 -2.804472,-0.534055 -0.90259,-0.172626 -1.80002,-0.372543 -2.705836,-0.528443 -0.864206,-0.131172 -1.731356,-0.231815 -2.595176,-0.36396 -0.840313,-0.152793 -1.692277,-0.252199 -2.509119,-0.513884 -0.879978,-0.235986 -1.750611,-0.506696 -2.640699,-0.702888 -0.9382,-0.166232 -1.887408,-0.28855 -2.842589,-0.264932 -1.102284,-0.0051 -2.204576,-0.0061 -3.306871,-0.0045 -1.094571,8.54e-4 -2.18914,0.0025 -3.28371,0.0037 -1.023721,-2.99e-4 -2.047434,-8.27e-4 -3.071154,0.0024 -0.869834,-7.78e-4 -1.739659,0.0058 -2.609488,0.0078 -0.643879,0.0012 -1.287759,0.0031 -1.931635,0.0055 -0.466672,0.0052 -0.933301,0.0016 -1.399989,0.003 -0.491434,-5.8e-4 -0.982856,-0.0013 -1.474295,5.91e-4 -0.572361,-0.0023 -1.144837,-0.0056 -1.717005,-0.02146 -0.671547,-0.0255 -1.343564,-0.06582 -2.007902,-0.17246 -0.572632,-0.09525 -1.142905,-0.127686 -1.723875,-0.102092 -0.547339,5.38e-4 -1.094677,0.0014 -1.642012,0.0034 -0.513434,0.0013 -1.026828,-0.0014 -1.540255,-0.0039 -0.501061,-0.0048 -1.003339,-0.0092 -1.501765,-0.06661 -0.441942,-0.05342 -0.895636,-0.168463 -1.338944,-0.109275 -0.476087,0.08564 -0.946394,0.216559 -1.435917,0.177529 -0.521386,-0.0023 -1.042599,-0.01291 -1.563799,-0.02698 -0.688981,-0.01957 -1.385669,-0.0722 -2.070405,0.02436 0,0 3.456524,-2.599595 3.456524,-2.599595 z"
       inkscape:connector-curvature="0"
       transform="translate(6.6292965,876.95567)" />
    <path
       style="fill:#1a1a1a;stroke:#000000;stroke-width:0.5740186;stroke-miterlimit:4;stroke-opacity:1;stroke-dasharray:none;stroke-dashoffset:0"
       id="path3824"
       d="m 301.49479,1003.0335 c 0.16097,-0.6717 0.30803,-1.3459 0.41367,-2.0262 0.0123,-0.097 0.0255,-0.1933 0.037,-0.2901 0.009,-0.072 0.0322,-0.2873 0.0367,-0.3779 10e-4,-0.021 -0.0228,-0.054 -0.001,-0.063 2.44983,-1.10514 2.3869,-1.77894 2.37247,-0.79199 -0.19513,1.66859 -0.31788,3.34259 -0.43021,5.01709 -0.0831,2.0101 -0.25025,4.0598 0.15166,6.0545 0.0582,0.2888 0.15366,0.5708 0.23047,0.8561 0.26384,0.5732 0.57918,1.1851 1.33152,1.3473 0.80399,0.1735 1.58163,-0.2038 2.28266,-0.4795 -1.49673,0.7386 -1.5072,0.7868 -0.16055,-0.039 0,0 2.23683,-0.7813 2.23683,-0.7813 l 0,0 c -1.90872,1.2232 -0.61782,0.4408 -4.00422,2.1674 -0.63625,0.2242 -1.05073,0.4342 -1.74285,0.449 -1.22567,0.026 -1.72742,-0.735 -2.0968,-1.6394 -0.0691,-0.2972 -0.15551,-0.5915 -0.20732,-0.8914 -0.34831,-2.0163 -0.18469,-4.0735 -0.13647,-6.1014 0.076,-1.6339 0.16319,-3.268 0.21517,-4.9023 -0.0721,-0.95929 -0.0747,-0.1885 2.34499,-1.28743 0.0202,-0.009 -0.0241,0.0348 -0.0296,0.0544 -0.0146,0.0515 -0.0213,0.10458 -0.0304,0.1571 -0.0306,0.17764 -0.0531,0.35634 -0.0853,0.53379 -0.10934,0.67054 -0.25527,1.33504 -0.36467,2.00534 0,0 -2.36336,1.0291 -2.36336,1.0291 z"
       inkscape:connector-curvature="0" />
    <path
       style="fill:#1a1a1a;stroke:#000000;stroke-width:0.5740186;stroke-miterlimit:4;stroke-opacity:1;stroke-dasharray:none;stroke-dashoffset:0"
       id="path3826"
       d="m 308.05761,1002.1236 c -0.0362,-0.4499 -0.0275,-0.9172 -0.18936,-1.349 -0.0254,-0.036 -0.0798,-0.1814 -0.18299,-0.1217 -0.0534,0.031 -0.17595,0.158 -0.11865,0.1331 0.67347,-0.2929 1.28774,-0.6931 1.98263,-0.94365 0.16891,-0.0609 -0.25216,0.23395 -0.36541,0.36055 -0.1603,0.1791 -0.30275,0.3702 -0.45412,0.5554 -1.66519,2.2279 -3.19438,4.5312 -4.84217,6.7695 -1.90505,2.5423 -3.931,5.0196 -6.17408,7.337 -0.6365,0.5903 -1.2512,1.2458 -2.08816,1.6255 -0.73945,0.3355 -2.18296,1.6831 -3.23297,0.9883 -0.16122,-0.1067 -0.26114,-0.2713 -0.39171,-0.4069 -0.41171,-0.6395 -0.45816,-1.3434 -0.52802,-2.0575 0,0 2.19404,-1.0121 2.19404,-1.0121 l 0,0 c 0.0713,0.6615 0.1131,1.3158 0.51325,1.9009 0.11088,0.1018 0.19616,0.2319 0.33263,0.3053 0.81401,0.4381 1.63614,-0.8688 -1.22832,1.0787 -0.19664,0.1337 0.45116,-0.187 0.65529,-0.3116 0.60036,-0.3664 1.09091,-0.8471 1.60319,-1.2991 0.31642,-0.3149 0.64155,-0.6231 0.94924,-0.9448 1.93533,-2.0228 3.6612,-4.2021 5.32894,-6.4003 1.60164,-2.1964 3.08426,-4.4541 4.61761,-6.6876 1.00046,-1.3888 0.84477,-1.136 3.19701,-2.2862 0.23604,-0.11543 0.45359,0.1581 0.52768,0.29985 0.16512,0.45595 0.1429,0.93755 0.24554,1.40565 0,0 -2.35109,1.0607 -2.35109,1.0607 z"
       inkscape:connector-curvature="0" />
    <path
       style="fill:#1a1a1a;stroke:#000000;stroke-width:0.67185891;stroke-miterlimit:4;stroke-opacity:1;stroke-dasharray:none;stroke-dashoffset:0"
       id="path3828"
       d="m 81.076844,884.07938 c -0.01884,-0.5523 -0.103034,-1.10407 -0.271604,-1.65028 0.446967,-0.008 -0.31113,-0.23154 -0.139503,-0.27545 1.228732,-0.27835 2.457463,-0.55671 3.686195,-0.83506 -0.0546,0.0476 -0.133157,0.0903 -0.163824,0.14278 -0.130248,0.22278 -0.248241,0.795 -0.293116,0.9748 -0.262825,1.42543 -0.330994,2.87466 0.156238,4.29143 0.08624,0.25078 0.215291,0.4976 0.322936,0.7464 0.307592,0.50204 1.037462,1.77255 2.620166,1.61469 0.222955,-0.0223 0.411497,-0.0949 0.617246,-0.14237 -0.930206,0.2377 -1.791866,0.55498 -2.790617,0.7131 -0.331702,0.0525 0.490084,-0.24388 0.695531,-0.38141 1.035668,-0.69328 1.561089,-1.54382 2.067159,-2.35285 0.09626,-0.1903 0.200676,-0.37966 0.288789,-0.5709 0.1811,-0.39306 0.338852,-0.80077 0.340831,-1.20572 0.0011,-0.22496 0.0053,-0.21348 -0.06491,-0.1335 1.172209,-0.27107 2.277779,-0.62558 3.516626,-0.8132 0.214753,-0.0325 -0.156287,0.20626 -0.211479,0.31265 -0.08808,0.16979 -0.157391,0.34194 -0.217675,0.5146 -0.301042,0.86225 -0.405717,1.73425 -0.529286,2.60552 -0.402816,3.11908 -0.55809,6.24429 -0.771319,9.36743 -0.205667,2.91727 -0.304012,5.8361 -0.268031,8.75502 -0.06827,0.62185 0.123098,1.28714 -0.249203,1.89693 -0.497058,0.81412 -3.249045,1.16724 -4.235835,1.37349 -0.219958,0.046 -0.444985,-0.0859 -0.667478,-0.12891 -2.423876,-0.87058 -3.740602,-2.21971 -4.914828,-3.52956 -1.383872,-1.81288 -1.749779,-3.75804 -1.210442,-5.6725 0.120158,-0.42653 0.32602,-0.84625 0.48903,-1.26936 0.254888,-0.41736 0.509777,-0.83472 0.764666,-1.25208 0,0 3.271702,-0.75546 3.271702,-0.75546 l 0,0 c -0.258252,0.41128 -0.516505,0.82256 -0.774757,1.23384 -0.165322,0.41695 -0.375265,0.83026 -0.495965,1.25084 -0.538989,1.87811 -0.155307,3.78825 1.25272,5.55765 1.051099,1.12275 2.199745,2.32269 4.256242,3.10119 0.219199,0.083 0.474505,0.14033 0.711757,0.21049 1.655951,0.0808 1.112425,-9.4e-4 -2.44492,0.95689 -0.178989,0.0482 0.302304,-0.14074 0.390802,-0.23068 0.559602,-0.56874 0.383275,-1.31858 0.530707,-1.91838 0.194023,-2.94332 0.354271,-5.88716 0.558063,-8.83033 0.190422,-3.09873 0.273218,-6.1986 0.469997,-9.29719 0.07223,-1.03169 0.153828,-2.05747 0.431547,-3.08154 0.03069,-0.11317 -0.0897,-0.27058 0.09728,-0.33916 1.175597,-0.43121 2.535303,-0.72763 3.802954,-1.09145 0.04679,0.0381 0.120484,0.071 0.140358,0.11439 0.05159,0.11261 -0.04364,0.45497 -0.06298,0.52885 -0.13522,0.51659 -0.375763,1.02224 -0.660354,1.52399 -0.391035,0.63739 -0.792203,1.27274 -1.372824,1.87693 -0.145416,0.15133 -0.840099,0.82377 -1.194825,0.94596 -1.317985,0.454 -2.759165,0.81616 -4.138747,1.22424 -0.24684,0.0228 -0.489482,0.0728 -0.740521,0.0683 -1.734923,-0.0311 -2.348483,-1.23742 -2.697819,-1.86289 -0.09987,-0.256 -0.218543,-0.51041 -0.299598,-0.76798 -0.447177,-1.42098 -0.423423,-2.86654 -0.306319,-4.29886 0.03338,-0.31893 0.09332,-0.63717 0.119626,-0.95626 0.0068,-0.0831 -0.152563,-0.2059 -0.0074,-0.24951 3.818465,-1.1473 3.663376,-1.53151 3.943414,-0.59116 0.150849,0.55309 0.201807,1.10968 0.346955,1.6631 0,0 -3.693314,0.9185 -3.693314,0.9185 z"
       inkscape:connector-curvature="0" />
  </g>
</svg>
