<?xml version="1.0" encoding="UTF-8" standalone="no"?>
<!-- Created with Inkscape (http://www.inkscape.org/) -->

<svg
   xmlns:dc="http://purl.org/dc/elements/1.1/"
   xmlns:cc="http://creativecommons.org/ns#"
   xmlns:rdf="http://www.w3.org/1999/02/22-rdf-syntax-ns#"
   xmlns:svg="http://www.w3.org/2000/svg"
   xmlns="http://www.w3.org/2000/svg"
   xmlns:sodipodi="http://sodipodi.sourceforge.net/DTD/sodipodi-0.dtd"
   xmlns:inkscape="http://www.inkscape.org/namespaces/inkscape"
   width="160"
   height="91.949997"
   id="svg2"
   version="1.1"
   inkscape:version="0.48.3.1 r9886"
   inkscape:export-filename="integral.png"
   inkscape:export-xdpi="150"
   inkscape:export-ydpi="150"
   sodipodi:docname="autsyst.svg">
  <defs
     id="defs4" />
  <sodipodi:namedview
     id="base"
     pagecolor="#9fffa7"
     bordercolor="#666666"
     borderopacity="1.0"
     inkscape:pageopacity="0"
     inkscape:pageshadow="2"
     inkscape:zoom="4.8164584"
     inkscape:cx="80"
     inkscape:cy="43.108928"
     inkscape:document-units="px"
     inkscape:current-layer="layer1"
     showgrid="false"
     inkscape:window-width="1231"
     inkscape:window-height="776"
     inkscape:window-x="49"
     inkscape:window-y="24"
     inkscape:window-maximized="1"
     fit-margin-top="0"
     fit-margin-left="0"
     fit-margin-right="0"
     fit-margin-bottom="0"
     showguides="true"
     inkscape:guide-bbox="true">
    <sodipodi:guide
       orientation="0,1"
       position="109.62412,63.532159"
       id="guide4800" />
  </sodipodi:namedview>
  <metadata
     id="metadata7">
    <rdf:RDF>
      <cc:Work
         rdf:about="">
        <dc:format>image/svg+xml</dc:format>
        <dc:type
           rdf:resource="http://purl.org/dc/dcmitype/StillImage" />
        <dc:title></dc:title>
      </cc:Work>
    </rdf:RDF>
  </metadata>
  <g
     inkscape:label="Layer 1"
     inkscape:groupmode="layer"
     id="layer1"
     transform="translate(-6.6292965,-939.95564)">
    <path
       style="fill:#808000;fill-opacity:1;stroke:#050101;stroke-width:0;stroke-miterlimit:0.30000001;stroke-opacity:1;stroke-dasharray:none"
       id="path5324"
       d="m 21.043989,958.2927 c -0.516897,-0.89972 -0.530509,-1.91897 -0.442352,-2.92282 0.215377,-1.1678 0.634737,-2.37763 1.479763,-3.25008 0.137508,-0.14198 0.302324,-0.25468 0.453487,-0.38201 0.853705,-0.46078 1.673702,-0.99038 2.561114,-1.38233 0.16579,-0.0732 0.36602,-0.0251 0.543613,0.011 1.054021,0.21475 1.493708,1.26419 1.882294,2.12961 0.689572,2.34107 0.496585,4.82222 0.05696,7.19332 -0.118904,0.64131 -0.277789,1.27455 -0.416683,1.91183 -0.847161,3.68472 -2.241839,7.2022 -3.810986,10.6307 -0.732295,1.36086 -1.206914,2.90715 -2.1789,4.13028 -0.728621,0.41547 -1.408875,0.9305 -2.185863,1.2464 -0.169332,0.0688 -0.116325,-0.38476 -0.03286,-0.54739 0.177995,-0.34681 0.472591,-0.60923 0.753141,-0.8687 1.526721,-1.11599 2.938486,-1.98127 4.803399,-1.889 0.263302,0.013 0.524512,0.0536 0.786768,0.0805 1.983925,0.25196 3.865705,0.95272 5.751396,1.58309 1.337328,0.4673 0.673279,0.23673 1.992105,0.69181 0,0 -1.916008,1.29643 -1.916008,1.29643 l 0,0 c -1.312768,-0.45949 -0.65136,-0.22828 -1.984231,-0.6936 -1.88405,-0.62624 -3.77227,-1.30731 -5.760884,-1.50863 -0.712385,-0.0454 -1.388985,-0.078 -2.089533,0.0951 -0.182463,0.0451 -0.686156,0.28802 -0.53602,0.17495 0.313049,-0.23576 2.494439,-1.49338 1.192217,-0.7401 -0.307299,0.25115 -0.330963,0.24595 -0.576869,0.5345 -0.01286,0.0151 -0.278031,0.37 -0.287213,0.37187 -0.05136,0.0104 -0.08607,-0.0598 -0.129101,-0.0898 -0.680335,0.4025 -1.360671,0.805 -2.041006,1.2075 0.564518,-0.51806 0.908198,-1.20223 1.263913,-1.87097 0.56035,-1.05347 0.598394,-1.15375 1.156745,-2.28448 1.626484,-3.40644 3.050654,-6.91895 3.886979,-10.61193 0.133977,-0.62955 0.288511,-1.25508 0.401933,-1.88866 0.413971,-2.31247 0.569996,-4.73447 -0.133691,-7.00506 -0.314342,-0.661 -0.603679,-1.36975 -1.300371,-1.72487 -0.149807,-0.0764 -0.318467,-0.12062 -0.485978,-0.1352 -0.163948,-0.0143 -0.614256,0.15936 -0.491152,0.0501 0.456674,-0.40515 1.029565,-0.65634 1.544348,-0.98451 -0.160906,0.11335 -0.336388,0.20842 -0.482718,0.34005 -0.882542,0.79388 -1.314004,1.98846 -1.540058,3.11817 -0.09519,0.92893 -0.105608,1.9064 0.427451,2.71867 0,0 -2.115149,1.26418 -2.115149,1.26418 z"
       inkscape:connector-curvature="0" />
    <path
       style="fill:#808000;fill-opacity:1;stroke:#050101;stroke-width:0;stroke-miterlimit:0.30000001;stroke-opacity:1;stroke-dasharray:none"
       id="path5326"
       d="m 39.165297,964.69506 c 1.159863,1.28662 2.315219,2.57424 3.541885,3.79853 1.820121,1.77728 3.795796,3.37854 5.823804,4.90953 0,0 -1.945954,1.22768 -1.945954,1.22768 l 0,0 c -2.006599,-1.568 -3.97552,-3.18493 -5.81713,-4.94676 -1.149069,-1.1164 -0.641896,-0.60597 -1.705214,-1.70491 -0.556276,-0.57491 -1.097142,-1.17852 -1.685238,-1.72203 -0.09035,-0.0835 -0.18964,-0.15678 -0.284459,-0.23517 0,0 2.072306,-1.32687 2.072306,-1.32687 z"
       inkscape:connector-curvature="0" />
    <path
       style="fill:#808000;fill-opacity:1;stroke:#050101;stroke-width:0;stroke-miterlimit:0.30000001;stroke-opacity:1;stroke-dasharray:none"
       id="path5328"
       d="m 50.744295,966.3991 c -0.08601,0.02 -0.174803,0.0305 -0.258035,0.0601 -0.341835,0.12122 -1.291508,0.66016 -0.97481,0.48338 0.42482,-0.23712 0.800439,-0.61265 1.278174,-0.70468 0.367054,-0.0707 -0.619997,0.41796 -0.92338,0.63633 -0.360551,0.25952 -0.712047,0.5314 -1.06807,0.7971 -2.475155,1.92776 -4.77331,4.06604 -7.025948,6.24553 -0.775832,0.73748 -1.491922,1.52761 -2.170235,2.35385 0,0 -2.15466,0.9166 -2.15466,0.9166 l 0,0 c 0.705055,-0.84902 1.448585,-1.66054 2.254092,-2.41711 2.256132,-2.16823 4.544666,-4.30734 6.992026,-6.26085 0.336068,-0.25777 1.500278,-1.16786 1.913181,-1.42464 0.907186,-0.56418 1.832997,-1.09806 2.759057,-1.6307 0.330733,-0.19022 0.697854,-0.36825 1.071176,-0.46498 0.09839,-0.0255 0.201573,-0.0262 0.30236,-0.0393 0,0 -1.994928,1.4494 -1.994928,1.4494 z"
       inkscape:connector-curvature="0" />
    <path
       style="fill:#808000;fill-opacity:1;stroke:#050101;stroke-width:0;stroke-miterlimit:0.30000001;stroke-opacity:1;stroke-dasharray:none"
       id="path5330"
       d="m 58.488358,968.41211 c 1.526027,-0.26508 3.09234,-0.25012 4.637581,-0.27957 0,0 -1.872284,1.36673 -1.872284,1.36673 l 0,0 c -1.574121,0.0407 -3.176699,0.0355 -4.717127,0.3972 0,0 1.95183,-1.48436 1.95183,-1.48436 z"
       inkscape:connector-curvature="0" />
    <path
       style="fill:#808000;fill-opacity:1;stroke:#050101;stroke-width:0;stroke-miterlimit:0.30000001;stroke-opacity:1;stroke-dasharray:none"
       id="path5332"
       d="m 63.935123,963.0178 c -0.782707,0.9939 -0.761681,2.40274 -0.835047,3.60316 -0.08518,1.55803 0.08822,3.10015 0.333151,4.63458 0,0 -2.022602,1.07161 -2.022602,1.07161 l 0,0 c -0.251229,-1.5444 -0.428733,-3.09586 -0.378075,-4.66491 0.04076,-1.24532 0.015,-2.57254 0.623057,-3.70023 0,0 2.279516,-0.94421 2.279516,-0.94421 z"
       inkscape:connector-curvature="0" />
    <path
       style="fill:#808000;fill-opacity:1;stroke:#050101;stroke-width:0;stroke-miterlimit:0.30000001;stroke-opacity:1;stroke-dasharray:none"
       id="path5334"
       d="m 71.315324,972.91143 c -0.222435,-1.38705 -0.245675,-2.79504 -0.198599,-4.19571 0.04221,-0.76591 0.06688,-1.53866 0.209397,-2.29478 0.01253,-0.0665 0.124611,-0.64936 0.264914,-0.73288 0.74823,-0.44543 1.548832,-0.79632 2.323248,-1.19448 0.09589,0.11447 0.204385,0.21946 0.287661,0.3434 0.388773,0.57864 0.636343,1.26164 0.941063,1.88406 0.364738,0.74502 0.402255,0.78469 0.811534,1.50246 0.450128,0.61044 1.268978,1.96262 2.187264,1.90066 0.115501,-0.008 0.218926,-0.0753 0.328389,-0.11301 -3.120218,1.80168 -1.693935,1.12228 -1.202556,0.22289 0.26984,-0.4939 0.425914,-1.04028 0.586284,-1.57581 0.408704,-1.64186 0.252811,-1.66943 2.680868,-2.28179 0.136946,-0.0345 0.112328,0.25917 0.168492,0.38876 0.687576,2.00888 1.260414,4.05514 1.859159,6.09174 1.023887,3.47677 2.082074,6.9433 3.131126,10.41254 1.076041,3.44793 2.18099,6.88847 3.043614,10.39721 0.387627,2.05448 0.955972,4.29372 0.333829,6.36971 -0.08989,0.2999 -0.242869,0.5772 -0.364303,0.8658 -0.175542,0.2323 -0.321525,0.4902 -0.526625,0.6968 -0.746023,0.7517 -3.335912,1.8917 -3.50544,1.9595 -0.736708,0.2945 -2.466464,-0.1294 -3.19983,-0.2957 -1.711049,-0.5389 -3.290563,-1.4043 -4.719706,-2.4829 -0.898576,-0.6782 -1.245268,-1.03094 -2.069598,-1.78569 -1.348796,-1.36461 -2.68358,-2.89083 -3.221445,-4.77924 -0.08916,-0.31304 -0.12669,-0.63853 -0.190035,-0.95779 -0.0025,-0.32268 -0.03678,-0.64668 -0.0076,-0.96805 0.134037,-1.47527 0.921992,-2.81538 1.889915,-3.90062 0.295483,-0.33129 0.627644,-0.62796 0.941466,-0.94194 1.480875,-1.24099 0.705085,-0.64287 2.331786,-1.78862 0,0 2.077896,-0.81799 2.077896,-0.81799 l 0,0 c -1.61634,1.11466 -0.845685,0.53227 -2.316493,1.74117 -0.311655,0.30348 -0.640402,0.59035 -0.934965,0.91045 -0.95056,1.03298 -1.751598,2.31927 -1.914534,3.74119 -0.03529,0.308 -0.0096,0.61996 -0.0144,0.92994 0.05453,0.30976 0.08288,0.6253 0.163597,0.92929 0.494292,1.86148 1.800742,3.37216 3.117843,4.71236 0.326861,0.30056 0.6441,0.61193 0.980583,0.90168 1.690537,1.45576 3.611236,2.63026 5.76645,3.24956 0.86065,0.1704 1.334123,0.3179 2.209028,0.2897 0.320957,-0.01 1.05547,-0.4334 0.954767,-0.1285 -0.153204,0.4639 -0.814065,0.5429 -1.193339,0.8509 -0.432096,0.3508 1.92948,-1.2235 1.25994,-1.0957 0.132997,-0.276 0.298258,-0.5386 0.398992,-0.8279 0.709202,-2.0368 0.165752,-4.28773 -0.194277,-6.32717 -0.823598,-3.51825 -1.915307,-6.9634 -2.990426,-10.41147 -1.052593,-3.46243 -2.123226,-6.91909 -3.20454,-10.37268 -0.620904,-2.00451 -1.213911,-4.02542 -2.004501,-5.97106 -0.526714,-0.99869 -0.225741,-0.19796 1.923096,-1.50444 0.04047,-0.0246 -0.105715,0.005 -0.135943,0.0413 -0.199897,0.24113 -0.251227,0.86064 -0.360127,1.13402 -0.207238,0.7114 -0.402815,1.44551 -0.801097,2.07921 -0.08117,0.12915 -0.141478,0.28647 -0.268965,0.37023 -0.777033,0.51049 -1.610658,0.92914 -2.415987,1.39371 -0.12792,0.008 -0.256862,0.0407 -0.383762,0.0229 -0.988861,-0.13898 -1.705084,-1.38587 -2.225262,-2.10401 -0.413709,-0.7282 -0.445181,-0.76451 -0.826618,-1.51272 -0.299726,-0.58794 -0.553996,-1.25775 -0.969686,-1.77993 -0.05547,-0.0697 -0.13629,-0.1147 -0.204436,-0.17205 0.635811,-0.40309 1.258015,-0.8285 1.907431,-1.20928 0.08651,-0.0507 -0.162037,0.12698 -0.210937,0.21454 -0.395522,0.70822 -0.318597,1.94676 -0.414213,2.7257 -0.04839,1.36408 -0.02948,2.74385 0.271208,4.08212 0,0 -2.160595,1.16841 -2.160595,1.16841 z"
       inkscape:connector-curvature="0" />
    <path
       style="fill:#808000;fill-opacity:1;stroke:#050101;stroke-width:0;stroke-miterlimit:0.30000001;stroke-opacity:1;stroke-dasharray:none"
       id="path5336"
       d="m 106.27269,959.40607 c 0.21762,-0.36861 0.39576,-0.77346 0.47564,-1.196 -0.65433,0.36654 -2.55739,1.43006 0.40769,-0.23808 -1.97478,1.24386 -3.87655,2.59721 -5.74868,3.98925 -1.29693,1.08069 -2.808281,1.97849 -3.858338,3.32497 -0.02775,0.0809 -0.08476,0.1571 -0.08324,0.24257 0.003,0.17004 0.312894,0.22753 0.385845,0.24635 0.665328,0.17164 1.366724,0.18235 2.047647,0.22225 2.123276,0.0195 4.238596,0.10908 6.347366,0.362 1.21805,0.22626 0.62921,0.0989 1.76767,0.37657 0,0 -1.93128,1.33309 -1.93128,1.33309 l 0,0 c -1.1093,-0.2762 -0.53479,-0.15032 -1.72482,-0.3717 -2.11373,-0.25221 -4.23344,-0.32955 -6.361641,-0.33336 -0.547741,-0.0278 -2.598139,0.0347 -2.731693,-0.78242 -0.01867,-0.11422 0.0441,-0.22724 0.06615,-0.34086 1.047328,-1.41833 2.636636,-2.32057 3.966299,-3.44115 1.845075,-1.3764 3.715425,-2.71881 5.647705,-3.9711 0.87888,-0.51672 1.75441,-1.03917 2.63663,-1.55016 0.25971,-0.15042 0.75045,-0.48303 1.09225,-0.42845 0.1886,0.0301 0.20769,0.13036 0.28507,0.26746 -0.0325,0.4508 -0.25899,0.87814 -0.43124,1.28931 0,0 -2.25503,0.99946 -2.25503,0.99946 z"
       inkscape:connector-curvature="0" />
    <path
       style="fill:#808000;fill-opacity:1;stroke:#050101;stroke-width:0;stroke-miterlimit:0.30000001;stroke-opacity:1;stroke-dasharray:none"
       id="path5338"
       d="m 97.031252,972.66529 c -0.619343,0.0614 -1.241239,0.0926 -1.860764,0.15153 -0.03021,0.0213 -0.121808,0.0839 -0.09064,0.064 0.71445,-0.45668 1.403247,-0.95562 2.140584,-1.37434 0.06762,-0.0384 0.154301,0.0197 0.231712,0.0272 0.123515,0.0118 0.247152,0.0227 0.37098,0.0307 0.410008,0.0263 0.666764,0.0298 1.087103,0.0422 1.666923,-0.0459 3.333353,-0.10511 5.000503,-0.14454 1.14121,-0.0204 0.57678,-0.0112 1.6933,-0.0276 0,0 -1.8992,1.38359 -1.8992,1.38359 l 0,0 c -1.10944,0.0123 -0.54813,0.005 -1.68393,0.0236 -1.68274,0.0369 -3.363819,0.11313 -5.046038,0.16382 -0.504045,-0.01 -1.027697,0.007 -1.528115,-0.0705 -1.25423,-0.19411 0.790798,-1.54509 1.701522,-1.5772 0.619598,-0.0304 1.239977,-0.0726 1.853487,-0.16733 0,0 -1.970504,1.47482 -1.970504,1.47482 z"
       inkscape:connector-curvature="0" />
    <path
       style="fill:#808000;fill-opacity:1;stroke:#050101;stroke-width:0;stroke-miterlimit:0.30000001;stroke-opacity:1;stroke-dasharray:none"
       id="path5340"
       d="m 118.14086,946.10227 c 0.53169,-0.3098 1.77174,-1.29084 2.74485,-1.47871 1.07987,-0.20848 2.17068,-0.0472 3.24488,0.1009 2.57846,0.39213 5.03642,1.2524 7.42706,2.26733 1.46553,0.69588 2.91314,1.52359 3.98653,2.77008 0.63194,0.73386 0.7198,1.02345 1.15773,1.87035 0.11174,0.35425 0.25279,0.70055 0.33521,1.06274 0.45969,2.02022 -0.0135,4.46075 -0.30003,6.48596 -0.26359,1.91882 -0.516,3.84474 -0.57868,5.78278 -0.0383,1.18385 -0.009,1.43747 0.0356,2.59794 0.0867,1.5225 0.30951,2.88938 0.96143,4.27109 0,0 -2.07627,1.17094 -2.07627,1.17094 l 0,0 c -0.5987,-1.39604 -0.85676,-2.88489 -0.90866,-4.40228 -0.0352,-1.16475 -0.0619,-1.4418 -0.0206,-2.62817 0.0676,-1.9437 0.31733,-3.87559 0.57394,-5.80143 0.26919,-1.95246 0.72424,-4.42695 0.2936,-6.36924 -0.0776,-0.34985 -0.21304,-0.6843 -0.31957,-1.02645 -0.41988,-0.82442 -0.49916,-1.10023 -1.11162,-1.81314 -1.0512,-1.2236 -2.47266,-2.03519 -3.91019,-2.71617 -2.38731,-1.01049 -4.85059,-1.84829 -7.43311,-2.18589 -0.90088,-0.0978 -1.78112,-0.20053 -2.68571,-0.0748 -0.19561,0.0272 -0.38996,0.0679 -0.57942,0.12363 -0.13766,0.0405 -0.51902,0.24104 -0.39806,0.16385 0.60275,-0.38462 1.23199,-0.72605 1.84799,-1.08907 0,0 -2.28687,0.91774 -2.28687,0.91774 z"
       inkscape:connector-curvature="0" />
    <path
       style="fill:#808000;fill-opacity:1;stroke:#050101;stroke-width:0;stroke-miterlimit:0.30000001;stroke-opacity:1;stroke-dasharray:none"
       id="path5342"
       d="m 126.03431,962.70602 c 2.40319,0.33683 4.8261,0.52239 7.24492,0.70745 3.57535,0.23935 7.15926,0.29026 10.73785,0.46295 0,0 -1.81741,1.30538 -1.81741,1.30538 l 0,0 c -3.5627,-0.21658 -7.13195,-0.28363 -10.69476,-0.49844 -2.48851,-0.16524 -4.97592,-0.34936 -7.46106,-0.55858 0,0 1.99046,-1.41876 1.99046,-1.41876 z"
       inkscape:connector-curvature="0" />
    <path
       style="fill:#808000;fill-opacity:1;stroke:#050101;stroke-width:0;stroke-miterlimit:0.30000001;stroke-opacity:1;stroke-dasharray:none"
       id="path5344"
       d="m 34.076717,1009.9438 c -0.146765,0.6216 -0.24812,1.2521 -0.332558,1.8848 -0.0042,0.038 0.02228,0.099 -0.01266,0.1154 -0.727739,0.3454 -1.446373,0.735 -2.223746,0.9462 -0.111428,0.03 0.0047,-0.2311 0.01516,-0.3461 0.01518,-0.1673 0.03799,-0.3339 0.06162,-0.5002 0.06425,-0.4524 0.160006,-0.9892 0.236055,-1.4333 0.388923,-2.1106 0.898004,-4.1955 1.389545,-6.2837 0.452178,-1.6702 0.342491,-1.8079 2.741842,-2.3318 0.149405,-0.033 0.06272,0.2995 0.08439,0.4509 0.02779,0.1943 0.04259,0.3901 0.06388,0.5852 0.15631,1.1687 0.228952,2.3913 0.730208,3.4784 0.0796,0.1726 0.183256,0.3331 0.274884,0.4996 0.33193,0.4755 0.757854,0.8562 1.373704,0.6977 0.131542,-0.034 0.495099,-0.2203 0.378782,-0.1502 -0.546213,0.3294 -1.114806,0.6201 -1.672209,0.9302 0.863583,-0.6222 1.366229,-1.5397 1.72662,-2.5166 0.384839,-1.3361 0.420585,-1.171 2.466611,-2.0114 0.04958,-0.02 0.189337,0.3175 0.309384,0.5869 0.650633,1.7288 1.305408,3.4568 1.943807,5.1905 1.066041,2.8379 2.081543,5.6944 3.048141,8.5676 0.61312,1.9861 1.293753,3.9791 1.595942,6.0445 0.04199,0.2869 0.05734,0.5772 0.08601,0.8658 -1.35e-4,0.6649 -0.02713,1.3645 -0.375679,1.9561 -0.09703,0.1647 -0.197455,0.3427 -0.355812,0.4497 -2.248512,1.5202 -1.69229,1.3267 -3.204795,1.6542 -1.935312,0.1576 -3.834693,-0.3689 -5.667184,-0.9299 -1.459468,-0.5291 -3.044169,-1.0679 -4.177844,-2.1848 -0.181368,-0.1787 -0.32851,-0.3891 -0.492765,-0.5836 -0.110848,-0.2144 -0.254051,-0.4149 -0.332543,-0.6431 -0.554093,-1.6109 0.597471,-3.1781 1.446693,-4.4284 1.533511,-2.0218 3.512495,-3.6118 5.52002,-5.1331 0,0 2.066154,-0.8222 2.066154,-0.8222 l 0,0 c -1.994673,1.4945 -3.966304,3.0506 -5.495092,5.0432 -0.789647,1.1488 -1.959979,2.6605 -1.477481,4.1657 0.06826,0.213 0.199254,0.4005 0.298881,0.6007 0.152899,0.1848 0.288368,0.3856 0.458697,0.5546 1.105093,1.096 2.665883,1.6168 4.092717,2.129 1.823062,0.5439 3.729592,1.0603 5.645611,0.7855 0.62729,-0.1988 2.349377,-0.7991 -0.888346,0.7226 -0.165239,0.078 0.277332,-0.2421 0.385252,-0.3894 0.397385,-0.5423 0.44545,-1.2211 0.474676,-1.8661 -0.01824,-0.2861 -0.02142,-0.5734 -0.05472,-0.8581 -0.242249,-2.0707 -0.904371,-4.0715 -1.498896,-6.0585 -0.953558,-2.8722 -1.974546,-5.7219 -3.08231,-8.5386 -0.663234,-1.708 -1.335354,-3.4162 -2.074197,-5.0926 -0.541551,-1.0122 -0.530844,-0.2358 1.838888,-1.5685 0.04941,-0.028 -0.0712,0.089 -0.09605,0.1403 -0.08145,0.167 -0.164556,0.4649 -0.215803,0.6307 -0.35837,1.007 -0.843899,1.9594 -1.665983,2.6708 -0.675994,0.3845 -2.523134,2.076 -3.720775,1.3143 -0.33699,-0.2143 -0.44364,-0.4197 -0.682157,-0.7363 -0.09357,-0.1774 -0.199366,-0.349 -0.280706,-0.5324 -0.491477,-1.1082 -0.570876,-2.3408 -0.767781,-3.5213 -0.0282,-0.1863 -0.05394,-0.3729 -0.08461,-0.5588 -0.01836,-0.1113 -0.151441,-0.2633 -0.06245,-0.3325 0.638423,-0.4971 1.386507,-0.8345 2.085261,-1.2424 0.06384,-0.037 -0.139759,0.068 -0.179683,0.13 -0.153521,0.2392 -0.370109,0.9815 -0.434935,1.1807 -0.528405,2.0679 -1.033606,4.1433 -1.370421,6.2528 -0.09112,0.6218 -0.194799,1.2444 -0.238168,1.8721 -0.0068,0.099 0.07089,0.2398 -0.0098,0.2978 -0.684405,0.4911 -1.441553,0.8731 -2.181946,1.2749 -0.03398,0.018 0.02382,-0.074 0.03573,-0.1103 0.107911,-0.6265 0.208217,-1.2544 0.326285,-1.8791 0,0 2.208667,-1.0861 2.208667,-1.0861 z"
       inkscape:connector-curvature="0" />
    <path
       style="fill:#808000;fill-opacity:1;stroke:#050101;stroke-width:0;stroke-miterlimit:0.30000001;stroke-opacity:1;stroke-dasharray:none"
       id="path5346"
       d="m 46.108447,992.9968 c 0.297209,-0.27515 0.299607,-0.30685 0.688766,-0.52183 0.859574,-0.47484 1.708086,-0.97304 2.594828,-1.39498 0.460064,-0.21891 1.563789,-0.23964 2.069224,-0.24493 1.06893,0.0498 2.224806,0.29672 2.897634,1.21692 0.118659,0.16228 0.19306,0.35269 0.289591,0.52903 0.04789,0.20582 0.120385,0.40741 0.143678,0.61744 0.146549,1.32133 -0.478456,2.6239 -1.022127,3.78079 -0.612052,1.23898 -1.393789,2.39826 -1.885562,3.69396 -0.02741,0.1676 -0.107527,0.3522 0.01609,0.509 0.258,0.3272 1.278545,0.1578 1.603795,0.1297 1.575737,-0.1801 3.11063,-0.582 4.642101,-0.9782 0.679848,-0.089 1.737941,-0.57185 2.409097,-0.37939 0.192506,0.15969 0.111715,0.0663 0.242142,0.28039 0,0 -2.134471,1.2389 -2.134471,1.2389 l 0,0 c -0.06005,-0.099 -0.01847,-0.061 -0.126795,-0.1112 -0.750307,-0.058 -1.536802,0.3079 -2.269277,0.4098 -1.544576,0.3887 -3.094994,0.7748 -4.680749,0.9556 -0.572735,0.038 -1.852521,0.22 -1.935799,-0.6702 -0.01149,-0.1228 0.03095,-0.2447 0.04643,-0.3671 0.49074,-1.3202 1.313755,-2.48558 1.940473,-3.74162 0.533448,-1.10275 1.157305,-2.35198 1.050758,-3.62019 -0.01585,-0.18863 -0.07698,-0.37068 -0.115473,-0.55602 -0.08563,-0.15775 -0.150122,-0.32896 -0.256896,-0.47324 -0.640089,-0.8649 -1.767987,-1.03721 -2.76535,-1.06788 -0.676386,0.0315 -0.755796,0.005 -1.415896,0.15385 -0.210026,0.0472 -0.785161,0.31584 -0.621331,0.17618 0.457695,-0.39016 1.02834,-0.62437 1.532246,-0.95268 0.129748,-0.0845 -0.277907,0.13795 -0.408791,0.22072 -0.09476,0.0599 -0.177284,0.13729 -0.265926,0.20593 0,0 -2.26241,0.96125 -2.26241,0.96125 z"
       inkscape:connector-curvature="0" />
    <path
       style="fill:#808000;fill-opacity:1;stroke:#050101;stroke-width:0;stroke-miterlimit:0.30000001;stroke-opacity:1;stroke-dasharray:none"
       id="path5348"
       d="m 92.87829,997.82831 c -0.491558,-0.31338 -0.997489,-0.60295 -1.500471,-0.89761 -1.090813,-0.63186 0.548155,-0.92288 1.858185,-1.61997 0.02494,-0.0133 0.458181,0.16466 0.543414,0.1984 1.342525,0.54493 2.713046,1.01265 4.085149,1.47662 1.965716,0.60455 3.933533,1.20609 5.846493,1.96371 1.27462,0.48517 2.50305,1.07814 3.54232,1.96954 0.49523,0.4853 0.86174,0.8055 0.71344,1.5353 -0.49686,0.9072 -1.53998,1.547 -2.37552,2.1121 -1.81594,1.1812 -3.70881,2.2371 -5.57827,3.3299 -2.00842,1.2774 -4.139916,2.3432 -6.190796,3.5457 4.670421,-2.6881 -0.316102,0.1872 -0.475588,0.2783 -0.682477,0.3898 1.420369,-0.6979 2.042065,-1.1787 0.08699,-0.067 -0.08096,-0.2045 -0.121443,-0.3068 0,0 -1.979038,1.5014 -1.979038,1.5014 l 0,0 c -0.696964,-0.9802 -0.275578,-0.1844 1.970946,-1.5599 0.143636,-0.088 -6.062325,3.5217 0.437876,-0.2521 0.519693,-0.2933 1.047908,-0.5692 1.57116,-0.8559 0.25887,-0.1419 1.022713,-0.5898 0.772152,-0.4337 -0.05322,0.033 -2.645541,1.5381 -0.167962,0.085 1.850976,-1.0819 3.724218,-2.1286 5.524948,-3.2937 0.83875,-0.5588 1.71907,-1.129 2.35105,-1.9275 0.0302,-0.06 0.0737,-0.1151 0.0905,-0.1802 0.11637,-0.4498 -0.37877,-0.8459 -0.63475,-1.124 -0.99554,-0.886 -2.19386,-1.4639 -3.42829,-1.9475 -1.906987,-0.76295 -3.868996,-1.36973 -5.837238,-1.95374 -1.396477,-0.457 -2.787769,-0.92798 -4.173009,-1.41745 -0.106441,-0.029 -0.210749,-0.0675 -0.319323,-0.087 -0.06616,-0.0119 -0.255363,0.0335 -0.20156,-0.007 2.311596,-1.73162 1.343632,-1.72391 2.191612,-1.18087 0.494585,0.31202 1.000122,0.60689 1.512867,0.8879 0,0 -2.070911,1.33992 -2.070911,1.33992 z"
       inkscape:connector-curvature="0" />
    <path
       style="fill:#808000;fill-opacity:1;stroke:#050101;stroke-width:0;stroke-miterlimit:0.30000001;stroke-opacity:1;stroke-dasharray:none"
       id="path5350"
       d="m 122.69007,998.99006 c -0.30338,0.73245 -0.61137,1.46314 -0.90052,2.20144 -0.18203,-0.2019 -0.0185,0.366 -0.12451,0.3216 -0.0507,-0.021 -0.0145,-0.1723 -0.0653,-0.1514 -0.72287,0.298 -1.36762,0.7716 -2.10045,1.0442 -0.10334,0.038 0.0822,-0.2047 0.1211,-0.3078 0.0605,-0.1604 0.11808,-0.3219 0.17712,-0.4829 0.67159,-1.87982 1.10228,-3.82462 1.46662,-5.78304 0.20036,-1.39518 0.38016,-2.80783 0.25697,-4.21909 -0.0591,-0.67736 -0.12182,-0.88132 -0.25895,-1.52578 -0.12033,-0.44165 -0.23592,-0.90604 -0.47463,-1.30385 -0.0322,-0.0536 -0.0592,-0.12965 -0.12006,-0.14418 -0.0383,-0.009 -0.097,0.11792 -0.0616,0.1008 0.68875,-0.3326 1.35842,-0.70335 2.03763,-1.05502 -0.0252,0.10972 -0.0624,0.21736 -0.0755,0.32915 -0.1495,1.26861 0.34191,3.01969 0.62314,4.24897 0.60249,2.8223 1.28712,5.62424 2.08875,8.39644 0.60987,2.085 1.35481,4.0373 2.50028,5.8854 0,0 -2.03573,1.1809 -2.03573,1.1809 l 0,0 c -1.10509,-1.8691 -1.84637,-3.9051 -2.43616,-5.9915 -0.7858,-2.77571 -1.47118,-5.57675 -2.13027,-8.38509 -0.37924,-1.51171 -0.86081,-3.06394 -0.76733,-4.63856 0.73178,-0.47391 1.43345,-0.99792 2.19535,-1.42172 0.11364,-0.0632 0.28722,0.27651 0.2984,0.29895 0.21652,0.43468 0.33814,0.91235 0.4428,1.38331 0.13275,0.67382 0.19042,0.86821 0.24454,1.57534 0.10977,1.4342 -0.0693,2.86659 -0.2717,4.28427 -0.34751,1.94489 -0.75534,3.87577 -1.3447,5.764 -0.05,0.1564 -0.10191,0.3121 -0.15,0.4691 -0.0315,0.1029 -0.001,0.2478 -0.0888,0.3104 -0.36372,0.26 -2.90748,2.2855 -2.15747,0.8387 0.30111,-0.7268 0.61456,-1.4486 0.88499,-2.1877 0,0 2.226,-1.03534 2.226,-1.03534 z"
       inkscape:connector-curvature="0" />
    <path
       style="fill:#808000;fill-opacity:1;stroke:#050101;stroke-width:0;stroke-miterlimit:0.30000001;stroke-opacity:1;stroke-dasharray:none"
       id="path5352"
       d="m 130.86514,997.78886 c -0.8259,-0.70417 -1.01099,-1.35514 -1.10172,-2.41049 0.029,-0.21693 0.0331,-0.43866 0.087,-0.65078 0.26871,-1.05754 1.02151,-1.91758 1.88546,-2.54583 0.24398,-0.17742 0.51084,-0.32102 0.76626,-0.48153 1.77304,-0.98902 3.76821,-2.43477 5.91646,-1.62907 0.21033,0.0789 0.40056,0.20346 0.60084,0.30519 1.25327,0.92884 1.30675,2.14098 1.20543,3.5793 -0.16545,1.24057 -0.49576,2.45616 -0.49538,3.713 0.13612,1.04914 0.77748,1.10799 1.69828,1.13855 1.25694,-0.025 2.50617,-0.14948 3.76255,-0.0627 1.15878,0.19623 1.7995,0.63307 2.42984,1.60595 0.50102,0.9945 0.59596,2.1041 0.54344,3.1989 -0.12905,0.8931 -0.37044,1.8255 -1.07445,2.4483 -0.1389,0.1229 -0.30159,0.2159 -0.45238,0.3239 -0.86894,0.4672 -1.71378,0.9824 -2.60681,1.4018 -0.28246,0.1326 -1.23336,0.203 -1.49899,0.214 -0.99386,0.041 -1.95904,-0.093 -2.94075,-0.2261 -1.85407,-0.2968 -3.63846,-0.8953 -5.37581,-1.5926 -0.4128,-0.1664 -0.82597,-0.3309 -1.23226,-0.5126 0,0 2.03579,-1.3447 2.03579,-1.3447 l 0,0 c 0.38232,0.1956 0.77406,0.3702 1.16914,0.5387 1.69886,0.7195 3.45711,1.3131 5.28998,1.5767 0.98261,0.1186 1.94905,0.2357 2.94091,0.1582 0.27209,-0.021 0.54395,-0.054 0.81181,-0.1062 0.22941,-0.045 0.8483,-0.3426 0.67663,-0.184 -0.43504,0.402 -1.0021,0.6318 -1.50315,0.9476 0.15579,-0.091 0.32239,-0.166 0.46735,-0.2736 0.73678,-0.5468 1.00589,-1.4311 1.15399,-2.2945 0.0666,-1.0441 -0.007,-2.1056 -0.48655,-3.0561 -0.59038,-0.8931 -1.21371,-1.2875 -2.28943,-1.4313 -1.2597,-0.07 -2.51204,0.065 -3.77201,0.071 -1.04958,-0.083 -1.73859,-0.28639 -1.89107,-1.44683 9e-5,-1.26989 0.32965,-2.49576 0.5194,-3.74579 0.11241,-1.33113 0.11431,-2.4801 -1.07258,-3.32914 -0.18855,-0.0887 -0.36814,-0.19964 -0.56563,-0.26603 -0.69433,-0.23341 -1.45764,-0.20248 -2.16208,-0.0362 -0.27518,0.065 -0.97361,0.48567 -0.80871,0.25598 0.27614,-0.3846 0.7907,-0.52103 1.18605,-0.78155 -0.25843,0.15025 -0.52759,0.28341 -0.7753,0.45075 -0.84964,0.57397 -1.6136,1.36537 -1.91671,2.36911 -0.0584,0.1935 -0.07,0.39817 -0.10494,0.59725 0.0746,0.97165 0.24287,1.61343 1.06671,2.20268 0,0 -2.08666,1.31068 -2.08666,1.31068 z"
       inkscape:connector-curvature="0" />
  </g>
</svg>
