<?xml version="1.0" encoding="UTF-8" standalone="no"?>
<!-- Created with Inkscape (http://www.inkscape.org/) -->

<svg
   xmlns:dc="http://purl.org/dc/elements/1.1/"
   xmlns:cc="http://creativecommons.org/ns#"
   xmlns:rdf="http://www.w3.org/1999/02/22-rdf-syntax-ns#"
   xmlns:svg="http://www.w3.org/2000/svg"
   xmlns="http://www.w3.org/2000/svg"
   xmlns:sodipodi="http://sodipodi.sourceforge.net/DTD/sodipodi-0.dtd"
   xmlns:inkscape="http://www.inkscape.org/namespaces/inkscape"
   width="160"
   height="91.949997"
   id="svg2"
   version="1.1"
   inkscape:version="0.48.4 r9939"
   inkscape:export-filename="integral.png"
   inkscape:export-xdpi="150"
   inkscape:export-ydpi="150"
   sodipodi:docname="ineq2d.svg">
  <defs
     id="defs4" />
  <sodipodi:namedview
     id="base"
     pagecolor="#9fffa7"
     bordercolor="#666666"
     borderopacity="1.0"
     inkscape:pageopacity="0"
     inkscape:pageshadow="2"
     inkscape:zoom="4.8164584"
     inkscape:cx="80"
     inkscape:cy="43.108928"
     inkscape:document-units="px"
     inkscape:current-layer="layer1"
     showgrid="false"
     inkscape:window-width="1237"
     inkscape:window-height="1003"
     inkscape:window-x="43"
     inkscape:window-y="21"
     inkscape:window-maximized="1"
     fit-margin-top="0"
     fit-margin-left="0"
     fit-margin-right="0"
     fit-margin-bottom="0"
     showguides="true"
     inkscape:guide-bbox="true">
    <sodipodi:guide
       orientation="0,1"
       position="109.62412,63.532159"
       id="guide4800" />
  </sodipodi:namedview>
  <metadata
     id="metadata7">
    <rdf:RDF>
      <cc:Work
         rdf:about="">
        <dc:format>image/svg+xml</dc:format>
        <dc:type
           rdf:resource="http://purl.org/dc/dcmitype/StillImage" />
        <dc:title />
      </cc:Work>
    </rdf:RDF>
  </metadata>
  <g
     inkscape:label="Layer 1"
     inkscape:groupmode="layer"
     id="layer1"
     transform="translate(-6.6292965,-939.95564)">
    <path
       style="fill:#1a1a1a;stroke-width:1.89999998;stroke-miterlimit:4;stroke-dasharray:7.6, 7.6;stroke-dashoffset:0"
       id="path2998"
       d="m 16.026326,13.967681 c -1.048121,-1.376925 -1.094742,-0.355754 2.176876,-2.025036 0.446074,1.149191 0.725147,2.354965 1.066389,3.537989 0.461527,1.529574 0.989741,3.065176 1.838998,4.430047 0.167007,0.268402 0.361266,0.518856 0.541898,0.778285 0.995384,1.241165 2.355019,2.008176 3.925253,2.259794 0.319958,0.05127 0.645585,0.05681 0.968377,0.08521 1.967765,0.01929 3.806206,-0.681516 5.500366,-1.625401 0,0 -2.281861,1.83605 -2.281861,1.83605 l 0,0 c -1.735942,0.895329 -3.597568,1.550729 -5.579905,1.468369 -0.331562,-0.03878 -0.666504,-0.05522 -0.994685,-0.116326 -1.627284,-0.302993 -3.016369,-1.136423 -4.039683,-2.436091 -0.183817,-0.268583 -0.380774,-0.52863 -0.551452,-0.805749 -0.852978,-1.384926 -1.402082,-2.928865 -1.89659,-4.46926 -0.359723,-1.153366 -0.644527,-2.345231 -1.172573,-3.435809 3.080714,-2.10444 1.916537,-2.396568 3.127661,-1.093169 0,0 -2.629069,1.611096 -2.629069,1.611096 z"
       inkscape:connector-curvature="0"
       transform="translate(6.6292965,939.95564)" />
    <path
       style="fill:#1a1a1a;stroke-width:1.89999998;stroke-miterlimit:4;stroke-dasharray:7.6, 7.6;stroke-dashoffset:0"
       id="path3000"
       d="m 23.298984,15.98638 c -0.109997,-0.146338 -0.15962,-0.374682 -0.312242,-0.489402 -0.02896,-0.02177 -0.07462,-0.0401 -0.106324,-0.02257 -0.05144,0.02843 -0.158907,0.167399 -0.106732,0.140343 0.799088,-0.414381 1.574395,-0.873093 2.361593,-1.30964 -0.140305,0.110159 -0.287405,0.212174 -0.420915,0.330478 -0.296883,0.263071 -0.961044,0.950028 -1.197374,1.199036 -0.853376,0.899155 -1.667314,1.829542 -2.473279,2.771027 -1.533885,1.855968 -2.933766,3.815948 -4.367723,5.748546 -1.263126,1.647364 -2.066516,1.969041 -4.241225,3.094247 -0.121795,0.06302 -0.271629,0.05226 -0.408669,0.04727 -0.138922,-0.0051 -0.273237,-0.05139 -0.409855,-0.07708 -0.865864,-0.332982 -1.502024,-1.04654 -2.0764058,-1.74944 -0.2056739,-0.263823 -0.405538,-0.532062 -0.604706,-0.800799 0,0 2.6341618,-1.550954 2.6341618,-1.550954 l 0,0 c 0.178619,0.272997 0.359735,0.544564 0.562048,0.80093 0.520783,0.650548 1.119228,1.331778 1.954661,1.545289 0.118366,0.0012 0.23791,0.02043 0.355097,0.0037 0.716136,-0.102112 3.585567,-1.861965 -1.833928,1.206994 -0.152137,0.08615 0.291006,-0.195812 0.421489,-0.312182 0.261063,-0.232829 0.76285,-0.817953 0.975324,-1.058136 1.490056,-1.925837 2.910567,-3.905065 4.44369,-5.797649 1.233422,-1.476255 2.492266,-2.936965 3.852059,-4.298973 0.463079,-0.26392 2.550197,-2.289795 3.327385,-1.479663 0.142941,0.149001 0.214863,0.350383 0.338793,0.512873 0,0 -2.666923,1.545735 -2.666923,1.545735 z"
       inkscape:connector-curvature="0"
       transform="translate(6.6292965,939.95564)" />
    <path
       style="fill:#1a1a1a;stroke-width:1.89999998;stroke-miterlimit:4;stroke-dasharray:7.6, 7.6;stroke-dashoffset:0"
       id="path3008"
       d="m 67.038695,950.95034 c 1.304367,1.67106 3.019736,2.95709 4.694643,4.22993 2.649355,1.89401 5.358214,3.70136 7.996975,5.61016 1.322854,0.9789 0.692576,0.49717 1.893931,1.44112 0,0 -2.435258,1.52733 -2.435258,1.52733 l 0,0 c -1.150462,-0.96409 -0.543743,-0.47272 -1.824313,-1.46895 -2.606626,-1.9457 -5.289558,-3.78235 -7.963918,-5.63322 -1.749542,-1.27708 -3.508652,-2.56858 -5.003531,-4.14708 0,0 2.641471,-1.55929 2.641471,-1.55929 z"
       inkscape:connector-curvature="0" />
    <path
       style="fill:#1a1a1a;stroke-width:1.89999998;stroke-miterlimit:4;stroke-dasharray:7.6, 7.6;stroke-dashoffset:0"
       id="path3010"
       d="m 81.165493,952.08015 c -1.511358,0.40955 -2.875464,1.22663 -4.238459,1.97244 -0.291667,0.1596 0.581763,-0.32205 0.872645,-0.48307 -2.344033,1.41817 -4.677538,2.8642 -6.900656,4.46815 -1.275376,0.92017 -1.710732,1.29325 -2.909908,2.25537 -1.127001,0.90402 -2.162964,1.90672 -3.048645,3.04721 0,0 -2.718758,1.1644 -2.718758,1.1644 l 0,0 c 0.947264,-1.19313 2.041621,-2.24975 3.237149,-3.19613 1.179304,-0.94163 1.721654,-1.39616 2.965611,-2.29694 2.201585,-1.59422 4.509435,-3.03712 6.82409,-4.4592 1.283095,-0.75018 2.561338,-1.50871 3.849284,-2.25053 1.427192,-0.82201 2.914879,-1.66205 4.527113,-2.05053 0,0 -2.459466,1.82883 -2.459466,1.82883 z"
       inkscape:connector-curvature="0" />
    <path
       style="fill:#1a1a1a;stroke-width:1.89999998;stroke-miterlimit:4;stroke-dasharray:7.6, 7.6;stroke-dashoffset:0"
       id="path3016"
       d="m 97.501574,17.278653 c 0.09198,1.015646 1.068469,1.673988 1.8444,2.190836 0.893126,0.466637 1.967406,0.885409 2.988326,0.599251 0.1556,-0.04361 0.2987,-0.123424 0.44805,-0.185136 -4.19578,2.317208 -2.2666,1.535667 -1.65927,0.672677 0.19621,-0.278811 0.29827,-0.585066 0.39267,-0.907684 0.0419,-0.05586 0.0985,-0.723731 0.13263,-0.742388 2.8472,-1.555654 2.10738,-2.179526 3.05565,-1.181712 1.28145,1.530375 2.01263,3.437456 2.76317,5.262916 1.5029,3.826382 2.61254,7.789311 3.6748,11.755587 1.20793,4.40451 2.1691,8.867708 2.96115,13.36393 0.3536,2.0854 0.66635,4.178622 0.84724,6.286908 0.0813,0.947779 0.17432,2.346709 0.1344,3.320537 -0.0177,0.433175 -0.088,0.862602 -0.13198,1.293903 -0.19957,0.728218 -0.246,1.238592 -0.73502,1.830052 -0.18174,0.219809 -0.40506,0.413187 -0.65506,0.550459 -1.10389,0.606122 -2.20663,1.236227 -3.38891,1.669998 -0.43803,0.160708 -1.9462,-0.206277 -2.2985,-0.275833 -0.44501,-0.138557 -0.89837,-0.252683 -1.33502,-0.415672 -2.01727,-0.752986 -3.95774,-1.890725 -5.63285,-3.239582 -0.43363,-0.349177 -0.83307,-0.738808 -1.249611,-1.108212 -1.763873,-1.778548 -3.477635,-3.806137 -4.211049,-6.255328 -0.12812,-0.427851 -0.184911,-0.873895 -0.277366,-1.310843 -0.155817,-1.349984 0.0287,-2.645144 0.568731,-3.893921 0.187829,-0.434339 0.440239,-0.8378 0.660358,-1.2567 0,0 2.560346,-1.149532 2.560346,-1.149532 l 0,0 c -0.221182,0.403742 -0.471908,0.792653 -0.663548,1.211226 -0.549385,1.199951 -0.763919,2.442891 -0.635397,3.756941 0.0813,0.425424 0.126426,0.85938 0.243886,1.27627 0.681681,2.419417 2.35777,4.424224 4.09019,6.170694 0.41046,0.362744 0.80335,0.746411 1.2314,1.088234 1.66737,1.331504 3.60892,2.438441 5.63247,3.125969 0.43974,0.149408 0.89549,0.24673 1.34324,0.370094 0.41027,0.05924 0.81696,0.154256 1.23082,0.177718 0.35092,0.01989 1.21525,-0.360202 1.05335,-0.04823 -0.31137,0.599975 -1.11118,0.771252 -1.64427,1.186872 -0.22111,0.172391 0.50544,-0.260886 0.7068,-0.455977 0.5604,-0.542927 0.62038,-1.029394 0.86902,-1.752508 0.0649,-0.429445 0.15919,-0.855473 0.19487,-1.288334 0.0813,-0.986286 0.029,-2.37552 -0.0341,-3.34079 -0.13807,-2.112967 -0.43994,-4.210235 -0.78073,-6.298601 -0.77773,-4.490184 -1.75117,-8.942023 -2.96229,-13.336682 -1.06338,-3.943516 -2.18691,-7.883962 -3.78374,-11.651082 -0.78795,-1.751614 -1.55641,-3.626713 -2.93862,-5.004815 -1.03719,-0.639477 -0.1847,-0.03876 2.39945,-1.607759 0.0302,-0.01831 -0.076,-0.03216 -0.10515,-0.01224 -0.16119,0.110201 -0.0373,0.479532 -0.13837,0.619327 -0.57014,2.127318 -1.61229,2.130638 -3.85957,3.389724 -0.1595,0.04251 -0.3154,0.102049 -0.47848,0.127527 -1.079517,0.168653 -2.156721,-0.283221 -3.079021,-0.79075 -0.877601,-0.592386 -1.839436,-1.298653 -2.095175,-2.388334 0,0 2.7457,-1.399005 2.7457,-1.399005 z"
       inkscape:connector-curvature="0"
       transform="translate(6.6292965,939.95564)" />
    <path
       style="fill:#1a1a1a;stroke-width:1.89999998;stroke-miterlimit:4;stroke-dasharray:7.6, 7.6;stroke-dashoffset:0"
       id="path3018"
       d="m 105.39589,10.822445 c 0.34845,-0.676252 0.72119,-1.3481487 1.25594,-1.8951781 0.55343,-0.4125801 3.07868,-2.7597045 3.89206,-1.0204595 0.0592,0.1265757 0.0859,0.265952 0.12878,0.398928 0.18044,1.0972485 -0.22565,2.1403316 -0.58982,3.1549206 -0.10639,0.437982 -0.53365,1.200644 -0.30847,1.660347 0.0295,0.06012 0.0845,0.103913 0.12667,0.15587 0.76184,0.390324 1.67411,0.293144 2.49841,0.223381 0.63533,-0.08025 1.26733,-0.178149 1.89825,-0.287125 0,0 -2.37236,1.784807 -2.37236,1.784807 l 0,0 c -0.64175,0.105227 -1.28396,0.208044 -1.93096,0.276602 -0.91577,0.05644 -1.95075,0.150631 -2.72314,-0.437018 -0.0602,-0.08467 -0.13467,-0.160866 -0.18073,-0.254018 -0.29366,-0.593904 0.11293,-1.290732 0.27375,-1.857031 0.36241,-0.948921 0.78417,-1.924125 0.64985,-2.962719 -0.0707,-0.2340763 -0.0713,-0.3603583 -0.25147,-0.5304972 -0.1122,-0.1059487 -0.2596,-0.1520778 -0.41201,-0.1323566 -0.0779,0.010077 -0.1487,0.050542 -0.22305,0.075812 0.78265,-0.4647638 1.5653,-0.9295277 2.34796,-1.3942915 -0.6046,0.4342917 -0.95305,1.107215 -1.28759,1.7569913 0,0 -2.79207,1.2830346 -2.79207,1.2830346 z"
       inkscape:connector-curvature="0"
       transform="translate(6.6292965,939.95564)" />
    <path
       style="fill:#1a1a1a;stroke-width:1.89999998;stroke-miterlimit:4;stroke-dasharray:7.6, 7.6;stroke-dashoffset:0"
       id="path3020"
       d="m 125.20829,13.125809 c -1.47841,0.262209 -2.85539,0.920554 -4.21174,1.538733 -1.41064,0.690621 -2.84441,1.34208 -4.22362,2.0954 -0.29411,0.16064 -1.1647,0.663413 -0.87037,0.503182 0.59402,-0.323378 1.17972,-0.661801 1.76958,-0.992702 -0.29989,0.20923 -1.52943,0.960757 -1.21585,1.501613 0.0467,0.0806 0.12714,0.136222 0.19071,0.204333 1.25446,0.673256 2.74275,0.687438 4.12934,0.818325 2.05697,0.178066 4.12194,0.222523 6.18545,0.244104 0.28589,7.99e-4 0.57177,0.0016 0.85765,0.0024 0,0 -2.37035,1.718237 -2.37035,1.718237 l 0,0 c -0.28045,-0.0053 -0.5609,-0.01068 -0.84134,-0.01601 -2.06471,-0.04402 -4.13038,-0.09939 -6.18946,-0.26733 -1.26544,-0.106289 -2.79695,-0.114233 -3.96423,-0.675365 -0.14409,-0.06927 -0.27167,-0.168642 -0.4075,-0.252963 -0.19653,-0.23127 -0.36139,-0.345586 -0.38454,-0.670105 -0.0512,-0.717645 0.81079,-1.200472 1.27997,-1.549625 0.17224,-0.101106 3.00254,-1.795218 4.06957,-2.36301 1.38754,-0.738343 2.81651,-1.397844 4.23052,-2.082799 1.42482,-0.643239 2.88307,-1.364744 4.45042,-1.561295 0,0 -2.48421,1.804886 -2.48421,1.804886 z"
       inkscape:connector-curvature="0"
       transform="translate(6.6292965,939.95564)" />
    <path
       style="fill:#1a1a1a;stroke-width:1.89999998;stroke-miterlimit:4;stroke-dasharray:7.6, 7.6;stroke-dashoffset:0"
       id="path3022"
       d="m 118.2864,24.397865 c 1.34889,0.0017 2.69687,-0.122347 4.04364,-0.19773 1.82522,-0.14063 3.65153,-0.263973 5.48027,-0.348057 0.6289,-0.05393 1.25893,-0.01555 1.88583,0.03979 0,0 -2.47952,1.765681 -2.47952,1.765681 l 0,0 c -0.5951,-0.06129 -1.19227,-0.09699 -1.79079,-0.05861 -1.81255,0.05974 -3.6224,0.170845 -5.42991,0.318995 -1.40111,0.09357 -2.79951,0.231866 -4.20256,0.29123 0,0 2.49304,-1.811303 2.49304,-1.811303 z"
       inkscape:connector-curvature="0"
       transform="translate(6.6292965,939.95564)" />
    <path
       style="fill:#1a1a1a;stroke-width:1.89999998000000003;stroke-miterlimit:4;stroke-dasharray:7.59999999999999876, 7.59999999999999876;stroke-dashoffset:0"
       id="path3024"
       d="m 137.77527,10.064051 c -0.0623,0.913559 -0.0157,1.825059 0.0643,2.735407 0.18142,2.047158 0.57672,0.931921 -2.64329,2.505271 -0.38146,-0.97816 -0.6164,-1.967867 -0.72864,-3.010566 -0.094,-1.302326 0.21898,-2.578612 1.044,-3.610945 0.16066,-0.2010266 0.3534,-0.3741592 0.5301,-0.5612388 1.42009,-1.0672421 3.27531,-2.5830888 5.1714,-2.4274854 0.66283,0.054395 0.75178,0.1594735 1.34242,0.4350184 0.18747,0.1594472 0.39651,0.2965519 0.5624,0.4783415 1.04764,1.1480502 1.03981,2.7617364 0.97125,4.2116233 -0.11428,1.449174 -0.53429,2.848815 -0.72916,4.285167 -0.002,0.147958 -0.0381,0.39496 0.0536,0.54271 0.16978,0.273414 1.09785,0.235338 1.34363,0.238745 1.51971,-0.03538 3.03758,-0.116614 4.55799,-0.09938 1.21145,0.115523 2.6558,0.241227 3.51821,1.230158 0.14818,0.169929 0.24378,0.379353 0.36568,0.56903 0.0589,0.223657 0.15101,0.441121 0.17678,0.670971 0.17774,1.585713 -0.96553,2.868503 -1.95546,3.937851 -0.28625,0.251353 -0.55914,0.518777 -0.85874,0.754059 -0.31957,0.250967 -0.64788,0.493276 -0.99613,0.702631 -1.42462,0.856432 -3.04353,1.888174 -4.66674,2.519314 -0.9748,0.379023 -1.35325,0.442172 -2.35993,0.696836 -1.63933,0.307713 -3.37935,0.435792 -5.00233,-0.04845 -0.22818,-0.06808 -0.44494,-0.169768 -0.66741,-0.254652 -0.4206,-0.224704 -0.90519,-0.451154 -1.17212,-0.873153 -0.0595,-0.0941 -0.0829,-0.206667 -0.12442,-0.310001 0,0 2.67461,-1.472522 2.67461,-1.472522 l 0,0 c 0.0169,0.07271 0.0151,0.152589 0.0508,0.218144 0.21089,0.386946 0.67117,0.580638 1.02939,0.784124 0.20804,0.07824 0.41084,0.172144 0.62412,0.23473 1.57788,0.463038 3.26205,0.309533 4.8481,-0.01061 1.01524,-0.273355 1.34304,-0.327739 2.32422,-0.730013 0.3835,-0.157229 1.37231,-0.857211 1.12855,-0.521995 -0.30672,0.421805 -0.85601,0.612059 -1.33833,0.810481 -0.71205,0.292933 2.56838,-1.503441 1.84593,-1.388521 0.94042,-0.969126 2.10023,-2.157726 2.00075,-3.635475 -0.0134,-0.198923 -0.0874,-0.389041 -0.13116,-0.583562 -0.10623,-0.164588 -0.18845,-0.347438 -0.3187,-0.493765 -0.82475,-0.926595 -2.2302,-0.991576 -3.36831,-1.084385 -1.53918,-0.0047 -3.07443,0.09687 -4.61283,0.130375 -0.9287,-0.0435 -1.75894,-0.04279 -1.67307,-1.205575 0.22749,-1.444545 0.70753,-2.84385 0.83377,-4.306739 0.0816,-1.344454 0.13714,-2.8975992 -0.88102,-3.9459766 -0.15383,-0.1584024 -0.34829,-0.2715166 -0.52243,-0.4072749 -0.73146,-0.2928246 -1.1193,-0.4213375 -1.9257,-0.2559391 -0.22545,0.046243 -0.84139,0.3464014 -0.65899,0.2060388 0.38487,-0.2961792 3.04556,-1.8725788 1.26192,-0.7281391 -0.18336,0.1719639 -0.38213,0.3288455 -0.55007,0.5158916 -0.85018,0.9468831 -1.20678,2.1556698 -1.12432,3.4118113 0.11091,1.02901 0.33461,1.922429 0.78407,2.856369 -3.06625,1.878439 -2.56757,2.462545 -2.71097,0.410913 -0.0627,-0.910138 -0.11255,-1.819272 -0.12372,-2.731599 0,0 2.73597,-1.394049 2.73597,-1.394049 z"
       inkscape:connector-curvature="0"
       transform="translate(6.6292965,939.95564)" />
    <path
       style="fill:#ff0000;stroke-width:1.89999998;stroke-miterlimit:4;stroke-dasharray:7.6, 7.6;stroke-dashoffset:0"
       id="path3026"
       d="m 43.658319,42.196018 c -0.55956,0.01652 -1.116353,0.110783 -1.676803,0.149517 -0.728126,0.139486 -1.471813,0.147817 -2.203532,0.252649 -0.625067,0.09391 -1.252784,0.164714 -1.883858,0.199927 -0.507996,0.04995 -0.990746,0.210231 -1.488891,0.306041 -0.524357,0.155398 -1.0565,0.26956 -1.576626,0.440998 -0.673497,0.178815 -1.295387,0.49832 -1.945275,0.741621 -0.881814,0.392365 -1.751409,0.798063 -2.655725,1.136025 -0.989911,0.369879 -1.92431,0.876315 -2.83317,1.412015 4.023038,-2.396775 1.907365,-1.099703 1.077099,-0.480403 -0.470977,0.351304 -0.927316,0.721329 -1.377523,1.098568 -0.801549,0.69623 -1.519602,1.479634 -2.202843,2.290148 -0.647444,0.760059 -1.168661,1.611019 -1.655735,2.479019 -0.545313,0.937178 -1.03038,1.907128 -1.517973,2.875047 -0.529872,1.060005 -0.974552,2.155958 -1.361142,3.275087 -0.327219,0.906344 -0.449117,1.856289 -0.509375,2.81192 -0.04217,0.818295 0.0389,1.640408 0.139723,2.452158 0.09896,0.807833 0.218532,1.611989 0.419297,2.401195 0.208753,0.858096 0.433377,1.712776 0.669104,2.563788 0.263092,0.867205 0.608534,1.706245 0.972589,2.535126 0.408925,0.835543 0.747036,1.701796 1.108785,2.558055 0.271934,0.819099 0.665674,1.579482 1.085385,2.329882 0.453221,0.812206 0.886919,1.633762 1.36431,2.432142 0.487083,0.897529 1.111392,1.692607 1.842241,2.401143 0.84348,0.811701 1.848035,1.426186 2.879908,1.966204 1.168371,0.625597 2.382161,1.159069 3.572137,1.740379 1.112676,0.549134 2.252514,1.040504 3.399008,1.514029 0.985351,0.365933 1.983506,0.693378 3.000104,0.960506 0.914801,0.281642 1.861788,0.398034 2.812998,0.460223 1.08186,0.05125 2.165429,0.04996 3.248247,0.04845 1.078681,-0.07829 2.161707,-0.10988 3.238301,-0.213254 1.071675,-0.09458 2.12945,-0.277823 3.171469,-0.542515 1.12208,-0.3308 2.248213,-0.652216 3.358191,-1.022216 1.040571,-0.344294 2.023425,-0.845978 2.968372,-1.396701 -0.684619,0.387518 -1.359614,0.792555 -2.053858,1.162555 -0.182012,0.097 0.345408,-0.22557 0.515268,-0.342557 0.702078,-0.48354 1.375676,-1.005437 2.039021,-1.540217 0.933001,-0.723669 1.828247,-1.484103 2.627972,-2.35338 0.695514,-0.761975 1.224229,-1.646633 1.739631,-2.534079 0.46502,-0.726518 0.809045,-1.509793 1.09825,-2.319271 0.26155,-0.769231 0.438721,-1.561696 0.615391,-2.353483 0.17217,-0.785934 0.207311,-1.590654 0.232296,-2.391961 0.01647,-0.766644 0.01416,-1.533629 0.0089,-2.300397 -0.0035,-0.635084 0.0176,-1.268999 -0.06081,-1.900206 -0.04481,-0.515369 -0.152267,-1.014143 -0.309313,-1.505832 -0.158258,-0.472388 -0.29181,-0.952025 -0.439773,-1.427759 -0.175013,-0.487871 -0.358073,-0.973733 -0.626541,-1.418432 -0.288045,-0.52684 -0.663589,-0.996516 -0.982297,-1.50274 -0.327895,-0.524817 -0.678065,-1.033633 -1.003322,-1.560284 -0.32706,-0.519557 -0.608777,-1.065673 -0.934868,-1.58669 -0.373195,-0.532676 -0.722493,-1.081777 -1.100328,-1.61111 -0.45487,-0.59771 -0.917883,-1.188971 -1.382878,-1.778865 -0.527746,-0.681857 -1.087345,-1.337631 -1.630861,-2.006571 -0.498204,-0.631865 -1.004571,-1.256966 -1.527342,-1.868997 -0.404823,-0.519998 -0.758916,-1.075022 -1.171383,-1.589808 -0.37885,-0.511574 -0.76816,-1.016849 -1.223007,-1.463316 -0.509745,-0.52109 -1.015908,-1.047317 -1.546807,-1.54709 -0.593039,-0.542105 -1.207079,-1.070545 -1.878289,-1.514109 -0.534335,-0.349546 -1.093858,-0.660931 -1.654952,-0.965414 -0.447799,-0.246344 -0.888838,-0.502841 -1.322815,-0.7731 -0.394267,-0.189267 -0.748844,-0.452216 -1.14712,-0.631506 -0.328146,-0.176234 -0.684685,-0.288923 -0.996961,-0.493883 -0.263467,-0.152371 -0.536937,-0.289642 -0.829274,-0.376639 -0.363363,-0.08565 -0.738633,-0.09393 -1.110151,-0.100141 -0.282163,-0.004 -0.564336,1.52e-4 -0.846459,0.0048 -0.169471,3.05e-4 -0.338755,0.0048 -0.50821,0.0022 0,0 2.503114,-1.819173 2.503114,-1.819173 l 0,0 c 0.168522,-0.003 0.336943,-2.84e-4 0.505486,-0.0014 0.280061,0.0022 0.560194,0.0044 0.840085,0.01533 0.392036,0.02196 0.788566,0.04459 1.16317,0.173314 0.302168,0.115907 0.594279,0.254643 0.866305,0.431112 0.318637,0.173895 0.658316,0.304495 0.978778,0.475121 0.389566,0.210215 0.762309,0.451291 1.152423,0.661155 0.432708,0.26248 0.867742,0.519941 1.30931,0.76725 0.557299,0.3226 1.12601,0.62846 1.653594,0.999015 0.667483,0.4749 1.292515,1.008097 1.901263,1.55556 0.530961,0.50454 1.043876,1.028153 1.561283,1.546485 0.459372,0.459285 0.852675,0.975586 1.244903,1.492442 0.405407,0.515564 0.758084,1.067086 1.152842,1.590283 0.516148,0.619172 1.02802,1.241648 1.52168,1.87881 0.545213,0.669992 1.099505,1.332372 1.637425,2.008312 0.466812,0.594486 0.945915,1.178872 1.402744,1.781199 0.388614,0.529757 0.728657,1.093629 1.112279,1.627368 0.328095,0.521131 0.616674,1.064018 0.94016,1.587126 0.321796,0.527283 0.675192,1.031982 1.000073,1.557303 0.322422,0.506181 0.698348,0.978002 0.990137,1.504794 0.283351,0.464343 0.485297,0.969961 0.66988,1.480847 0.144423,0.476001 0.285731,0.952123 0.438899,1.425063 0.160482,0.509353 0.291679,1.023126 0.329894,1.558426 0.08033,0.645545 0.06939,1.29109 0.06278,1.941049 -0.0029,0.771116 2.17e-4,1.542288 -0.01418,2.313324 -0.0212,0.816191 -0.04975,1.636956 -0.204077,2.44085 -0.171319,0.804458 -0.363579,1.604584 -0.606645,2.39072 -0.28603,0.825927 -0.599744,1.639692 -1.081661,2.375669 -0.533115,0.897246 -1.042981,1.814529 -1.739233,2.600506 -0.197258,0.222073 -0.575555,0.656181 -0.788775,0.863247 -0.572034,0.555524 -1.222117,1.028133 -1.833927,1.537011 -1.735616,1.428604 -3.558579,2.692014 -5.581624,3.70897 -0.961649,0.537568 -1.957502,1.024727 -3.011974,1.353322 -1.116289,0.353968 -2.239559,0.688904 -3.367921,1.001817 -1.055233,0.249852 -2.126456,0.423777 -3.20786,0.512334 -1.07956,0.08485 -2.162471,0.136602 -3.244141,0.18509 -1.092836,-0.0023 -2.186866,0.009 -3.278377,-0.05377 C 39.700686,89.171649 38.74751,89.024471 37.820265,88.740985 36.804226,88.452888 35.799292,88.126491 34.817436,87.73618 33.671279,87.25605 32.535586,86.750422 31.421892,86.198663 30.226943,85.617635 29.01271,85.075396 27.836867,84.455176 26.783577,83.893584 25.761,83.259561 24.897976,82.425932 24.149355,81.699463 23.506569,80.882097 23.003144,79.9651 c -0.480675,-0.799726 -0.919508,-1.621422 -1.375006,-2.435633 -0.429012,-0.758875 -0.838077,-1.524163 -1.100623,-2.360136 -0.361809,-0.854881 -0.692533,-1.722839 -1.101831,-2.55689 -0.371068,-0.8408 -0.7331,-1.688891 -1.003771,-2.56825 -0.233196,-0.853108 -0.453778,-1.709651 -0.671768,-2.566798 -0.213732,-0.797799 -0.342378,-1.611857 -0.443131,-2.431156 -0.115355,-0.829161 -0.180589,-1.673584 -0.152369,-2.51037 0.05523,-0.982531 0.155379,-1.962741 0.492832,-2.895515 0.393294,-1.127236 0.822525,-2.2392 1.350303,-3.311824 0.475069,-0.970191 0.955965,-1.938735 1.490624,-2.87775 0.485481,-0.884396 0.999661,-1.756267 1.644416,-2.536367 0.683343,-0.822603 1.389354,-1.626508 2.189628,-2.339082 1.64904,-1.430595 3.438253,-2.623703 5.395235,-3.621753 0.926463,-0.52333 1.869169,-1.026801 2.874541,-1.383674 0.905419,-0.350254 1.773015,-0.782586 2.670748,-1.151423 0.652011,-0.266045 1.295915,-0.556172 1.977979,-0.740031 0.529015,-0.156144 1.064858,-0.286893 1.599011,-0.423942 0.500213,-0.120987 1.00283,-0.233761 1.517994,-0.269404 0.619199,-0.04074 1.235192,-0.113088 1.849788,-0.198393 0.741689,-0.07765 1.484288,-0.142984 2.222598,-0.250593 0.573551,-0.05278 1.144181,-0.146518 1.721021,-0.1514 0,0 -2.493044,1.811302 -2.493044,1.811302 z"
       inkscape:connector-curvature="0"
       transform="translate(6.6292965,939.95564)" />
    <path
       style="fill:#ff0000;stroke-width:1.89999998;stroke-miterlimit:4;stroke-dasharray:7.6, 7.6;stroke-dashoffset:0"
       id="path3028"
       d="m 30.385853,46.393608 c -0.08813,0.01846 -0.178942,0.02697 -0.264379,0.05539 -0.366896,0.122045 -1.045033,0.518017 -0.83383,0.399051 3.040116,-1.71243 2.208321,-1.358632 1.246263,-0.50548 -0.286242,0.25384 -0.554131,0.52765 -0.831197,0.791475 -2.276987,2.376296 -4.520266,4.788021 -6.667491,7.282572 -0.558255,0.675869 -0.962682,1.116641 -1.424532,1.832492 -0.159594,0.247365 -0.422596,0.721488 -0.297854,0.748409 0.08433,0.0182 0.116828,-0.130054 0.190023,-0.17572 0.179695,-0.112112 0.375457,-0.196139 0.563185,-0.294208 0.29332,-0.170947 1.198229,-0.631012 0.87996,-0.512841 -0.439714,0.163263 -1.44006,1.0776 -1.248229,0.649577 0.231814,-0.517236 0.933005,-0.643984 1.393706,-0.974173 1.585938,-1.136659 3.134099,-2.325078 4.682694,-3.511612 2.150868,-1.631928 4.183278,-3.404757 6.148038,-5.253472 0.783607,-0.7673 3.666778,-2.835356 2.960741,-1.141038 -0.100982,0.242335 -0.314154,0.420752 -0.475079,0.628181 -0.732211,0.943806 -0.973337,1.224763 -1.780832,2.213935 -3.042773,3.703385 -6.373265,7.153069 -9.702171,10.596464 -0.665137,0.71092 -1.588982,1.635548 -2.176298,2.46076 -0.291813,0.410013 -0.540412,0.878954 -0.251401,0.88789 0.188249,0.0058 0.356172,-0.12309 0.530803,-0.193627 0.366509,-0.148041 0.728111,-0.307951 1.092166,-0.461926 0.516673,-0.280599 1.046018,-0.539025 1.550017,-0.841798 0.08503,-0.05108 -0.365576,0.141583 -0.285951,0.08242 7.119589,-5.28985 -2.815425,2.412351 4.657994,-3.329698 1.816357,-1.395561 2.900363,-2.322088 4.657512,-3.779715 2.754597,-2.39087 5.486615,-4.834144 7.927033,-7.551291 0.08767,-0.109867 0.175342,-0.219735 0.263013,-0.329602 0.0022,0.02935 -0.02097,0.09825 0.0066,0.08804 0.832634,-0.308016 1.593296,-0.846757 2.467187,-1.003184 0.314288,-0.05626 -0.452472,0.4507 -0.672615,0.681955 -0.479828,0.50405 -1.884697,2.039437 -2.261893,2.450154 -3.531281,3.949537 -7.299222,7.674522 -11.006528,11.455786 -0.655549,0.716682 -1.575453,1.641108 -2.125534,2.494186 -0.250322,0.388205 -0.48135,0.891061 -0.169132,0.947218 0.188602,0.03392 0.378341,-0.06718 0.56136,-0.123969 0.364342,-0.11306 0.718566,-0.256466 1.077849,-0.384699 0.49854,-0.244603 0.996606,-0.490174 1.495619,-0.733809 0.155471,-0.07591 -0.606071,0.330757 -0.464985,0.230618 0.674019,-0.478406 1.391388,-0.893464 2.067902,-1.368336 1.333623,-0.936123 2.964074,-2.204776 4.211604,-3.251594 0.652589,-0.547596 1.280951,-1.123431 1.921427,-1.685146 1.47888,-1.350731 2.939238,-2.72697 4.272791,-4.223701 0.536806,-0.602491 1.102351,-1.223942 1.434793,-1.967281 0.08561,0.182499 -0.68366,0.621671 -0.457097,0.548653 0.56175,-0.181044 1.242408,-1.246704 1.593361,-0.772181 0.34566,0.467368 -0.891698,0.746081 -1.331741,1.125918 -0.626241,0.540559 -3.191547,2.807338 -3.692017,3.248902 -4.340769,3.89427 -9.004516,7.403963 -13.382583,11.253436 0.01808,0.502541 -1.168786,0.827456 -1.215445,1.458616 -0.0077,0.103841 0.15635,-0.141182 0.249133,-0.188438 0.301495,-0.153555 0.624039,-0.26262 0.928056,-0.411121 2.724487,-1.33081 2.041788,-1.021522 1.463313,-0.761588 5.001289,-3.016468 9.643347,-6.5764 14.07365,-10.37048 1.171014,-1.048092 2.372231,-2.081531 3.401863,-3.274948 0.133944,-0.155251 0.255353,-0.32132 0.371326,-0.490418 0.01133,-0.01652 -0.01237,-0.05188 0.006,-0.0598 0.790147,-0.340232 1.593819,-0.648151 2.390729,-0.972227 -0.309791,0.234336 -0.626841,0.459372 -0.929372,0.703007 -1.838509,1.480595 -3.598868,3.059703 -5.423538,4.557592 -2.157349,1.770988 -3.25852,2.624716 -5.480477,4.382195 -2.900885,2.320327 -5.855525,4.575381 -8.700005,6.965777 -1.031453,0.866795 -2.869296,2.452305 -3.871587,3.493678 -0.322688,0.335272 -0.595497,0.715208 -0.893246,1.072812 -0.05364,0.18244 -0.250568,0.379619 -0.160914,0.54732 0.06438,0.120428 0.265253,-0.06636 0.394542,-0.110316 0.366705,-0.124684 0.736933,-0.242084 1.092642,-0.395348 1.542604,-0.66466 3.095934,-1.439762 4.469205,-2.406738 5.337599,-3.298564 10.254496,-7.208726 14.987644,-11.312739 0.977936,-0.97147 2.127829,-1.810447 2.967133,-2.919631 0.04623,-0.0611 0.11218,-0.284133 0.0942,-0.209657 -0.24116,0.998982 -0.743625,0.768599 1.521302,-0.413911 -4.855329,3.638373 -9.498703,7.554171 -14.113791,11.490097 -1.768627,1.564185 -3.325765,2.892022 -4.99372,4.543762 -0.631739,0.625596 -2.029825,2.020266 -2.517872,2.963147 -0.448898,0.867245 0.01689,0.604642 0.463363,0.524019 1.660039,-0.683065 1.456248,-0.55118 3.329116,-1.603589 0.187458,-0.105337 0.350189,-0.249778 0.529532,-0.368405 1.034709,-0.684414 2.085701,-1.344305 3.112449,-2.040604 2.387054,-1.6188 4.363182,-3.076775 6.703029,-4.770115 4.904916,-3.608279 9.790179,-7.248655 14.479681,-11.13495 1.214667,-1.070756 1.610745,-1.550614 3.640889,-1.870092 0.351831,-0.05537 -0.550333,0.452259 -0.825015,0.678975 -3.029201,2.500239 0.483054,-0.391495 -3.268554,2.694452 -5.908589,4.775171 -11.815017,9.552706 -17.662528,14.40261 -1.652739,1.40825 -3.252787,2.718215 -4.808514,4.225061 -0.412702,0.399735 -1.650465,1.578552 -1.934757,2.3349 -0.03257,0.08665 0.05724,0.245054 0.149177,0.234235 0.265229,-0.03121 0.484472,-0.224873 0.726708,-0.337309 0.503003,-0.248552 1.01277,-0.48386 1.509008,-0.745657 0.01826,-0.0096 -0.07596,-0.0079 -0.05882,-0.01941 0.895173,-0.600809 1.815874,-1.162924 2.712458,-1.761625 3.127595,-2.088473 6.178505,-4.289374 9.233657,-6.481309 3.923924,-2.921825 7.909508,-5.787139 11.609488,-8.994646 0.103062,-0.108971 0.159661,-0.338705 0.309185,-0.326914 0.116649,0.0092 -0.0024,0.23401 -0.0035,0.351016 0.640493,-0.341353 1.218914,-0.84197 1.921478,-1.024057 0.510519,-0.132313 -0.886008,0.572475 -1.322298,0.868765 -1.715895,1.165286 -2.371494,1.663949 -4.130111,2.939118 -5.912575,4.398665 -11.681652,8.989751 -17.277992,13.783965 -0.840335,0.77284 -2.184965,1.927189 -2.958947,2.882953 -0.150852,0.186282 -0.304449,0.391942 -0.352518,0.626775 -0.02099,0.102542 0.170869,-0.121224 0.2602,-0.175772 0.318226,-0.194318 0.671128,-0.33746 0.962112,-0.570605 0.149188,-0.119533 -0.352233,0.148708 -0.528349,0.223061 0.837006,-0.5687 1.680144,-1.12848 2.511018,-1.706101 2.115365,-1.470595 4.090998,-2.919331 6.189106,-4.421287 3.238536,-2.318346 6.498023,-4.606333 9.761981,-6.888645 2.265563,-1.585388 4.529763,-3.173381 6.767257,-4.798328 0.655545,-0.47608 1.439273,-0.997818 2.059021,-1.548282 0.808555,-0.284028 1.574415,-0.753053 2.425664,-0.852084 0.424595,-0.0494 -0.720703,0.459917 -1.077549,0.69525 -0.562437,0.370916 -1.122424,0.745568 -1.680212,1.123439 -2.685213,1.819084 -5.31507,3.70698 -7.936711,5.616199 -3.278551,2.451057 -6.519675,4.95224 -9.690102,7.542024 -1.705142,1.392857 -3.60946,2.974432 -5.237433,4.480411 -0.578031,0.534716 -1.123552,1.10354 -1.685328,1.65531 0.894688,-0.0054 -1.518132,1.138253 -1.101644,1.653031 0.09573,0.118322 0.247096,-0.17857 0.378447,-0.255456 0.360715,-0.199832 0.721429,-0.399664 1.082144,-0.599496 -0.171736,0.06907 -0.662135,0.319812 -0.515209,0.207219 0.763351,-0.58498 1.58505,-1.089605 2.377575,-1.634407 5.283551,-3.80407 10.653904,-7.484777 15.995932,-11.205621 1.002512,-0.691414 1.967113,-1.345075 2.947856,-2.058535 0.243151,-0.176884 0.484874,-0.356052 0.719177,-0.5445 0.06301,-0.05068 0.159909,-0.251793 0.171346,-0.171739 0.129788,0.908527 -1.553837,1.328048 1.465852,-0.349658 -5.579863,3.542441 -10.804891,7.604757 -16.008572,11.669091 -1.046318,0.829988 -2.098302,1.652883 -3.138955,2.489964 -1.599454,1.28657 -3.314837,2.672108 -4.832642,4.073189 -0.462238,0.426691 -0.920927,0.860085 -1.337092,1.331823 -0.710347,0.805204 -0.799271,0.727306 -0.327871,0.812953 0.834557,-0.489678 1.718715,-0.892029 2.548063,-1.390418 0.09074,-0.05453 0.13169,-0.170213 0.219134,-0.229888 0.982898,-0.670772 1.993866,-1.299505 2.985592,-1.957153 2.236428,-1.483055 4.459016,-2.986876 6.68909,-4.479468 4.904443,-3.273217 9.90165,-6.404019 14.9411,-9.464278 0.997356,-0.610012 3.217801,-1.978323 3.721084,-2.172107 0.169034,-0.06508 0.128663,0.401094 0.01628,0.543148 -0.216855,0.274121 -0.59294,0.370285 -0.88761,0.558269 -1.818313,1.159988 -1.484382,0.954936 -3.516852,2.318872 -4.829246,3.329258 -9.523141,6.868895 -13.998764,10.662464 -0.758397,0.642822 -1.49695,1.308695 -2.245425,1.963042 -0.77093,0.736038 -1.906051,1.726552 -2.577997,2.639946 -0.117536,0.15977 -0.256439,0.343014 -0.24743,0.541155 0.005,0.111066 0.16876,-0.14605 0.26269,-0.205534 0.301685,-0.191052 0.685759,-0.277435 0.922331,-0.544921 0.170316,-0.192572 -0.472635,0.20244 -0.708953,0.30366 0.751841,-0.514753 1.508855,-1.02203 2.255522,-1.544259 2.808928,-1.964603 5.570916,-3.996068 8.374267,-5.968694 2.020922,-1.422058 3.281375,-2.280733 5.292874,-3.663288 1.722538,-1.176192 3.474874,-2.30782 5.200321,-3.479651 0.289258,-0.196449 0.576555,-0.395781 0.86338,-0.595766 0.146737,-0.102311 0.270734,-0.245805 0.437274,-0.311102 0.769573,-0.30173 1.56867,-0.52193 2.353005,-0.782896 -3.864154,2.690079 -7.627371,5.517016 -11.309405,8.450295 -1.950237,1.597148 -3.921181,3.183662 -5.720526,4.953827 -0.389111,0.382801 -1.172744,1.137231 -1.432432,1.737865 -0.03002,0.06943 0.03292,0.147662 0.04938,0.221492 0.547169,-0.360254 0.697307,-0.480668 1.423703,-0.795614 0.29978,-0.129977 -1.126565,0.656023 -0.866656,0.458008 0.603839,-0.460042 1.274835,-0.824681 1.904493,-1.248699 1.705265,-1.148342 2.598457,-1.803326 4.282857,-3.005202 2.866551,-2.061056 5.756819,-4.092763 8.549058,-6.254691 0.966249,-0.803031 0.587045,-0.532352 3.026249,-1.291713 0.212012,-0.066 -0.362047,0.257208 -0.541343,0.388198 -0.324885,0.237355 -0.649894,0.474594 -0.971167,0.716815 -1.454991,1.09698 -1.54449,1.18758 -3.076006,2.410218 -2.049267,1.679727 -4.077818,3.385872 -6.058219,5.146601 -1.133492,1.007761 -2.308288,2.068083 -3.364794,3.162891 -0.361236,0.374332 -0.693913,0.775208 -1.040869,1.162812 0.683696,-0.46078 -0.942948,0.93188 -0.567337,1.108643 0.108276,0.05095 0.191224,-0.144956 0.294849,-0.204806 0.263348,-0.152099 1.073902,-0.571396 0.804565,-0.430174 -1.634511,0.857025 -1.628279,0.932749 0.524366,-0.504513 3.214541,-2.269609 6.347787,-4.650439 9.486234,-7.023114 1.70755,-1.283919 1.70582,-1.468326 4.281196,-2.227759 0.184606,-0.05444 -0.280163,0.264161 -0.426029,0.389724 -0.243377,0.209502 -0.494254,0.410131 -0.741382,0.615196 -1.050107,0.880981 -2.102144,1.758884 -3.143411,2.650326 0,0 -2.592377,1.051093 -2.592377,1.051093 l 0,0 c 1.009761,-0.872851 2.03526,-1.726709 3.036278,-2.60958 1.620376,-1.398222 0.895673,-0.919621 3.933991,-2.141243 0.103632,-0.04167 -0.184582,0.125845 -0.275806,0.190297 -0.490364,0.34645 -0.974334,0.7019 -1.466042,1.046461 -3.203634,2.3509 -6.373486,4.747851 -9.592585,7.077831 -2.220035,1.536649 -2.232348,1.600309 -5.293044,3.288148 -0.238218,0.131366 -1.191617,0.723681 -1.544135,0.161936 -0.275808,-0.439506 0.909139,-1.245117 0.736419,-1.371426 0.380919,-0.407521 0.749508,-0.826927 1.142758,-1.222563 2.954565,-2.972495 6.250293,-5.586591 9.411197,-8.329916 1.660098,-1.370297 1.348594,-1.127316 2.871965,-2.337738 0.28542,-0.226787 0.571889,-0.452258 0.859223,-0.676615 0.145207,-0.113381 0.270762,-0.260127 0.438377,-0.336582 0.954555,-0.435411 1.928015,-0.830836 2.913018,-1.192122 0.131306,-0.04816 -0.225705,0.165229 -0.338558,0.247844 -2.958295,2.159171 -5.941435,4.283899 -8.923715,6.409731 -1.678222,1.207459 -2.506126,1.816217 -4.191886,2.978926 -0.598846,0.413038 -1.188547,0.840831 -1.807576,1.222957 -1.28537,0.793457 -2.585036,1.56465 -3.903219,2.302309 -0.369403,0.206719 -0.74214,0.434143 -1.154866,0.528208 -0.239355,0.05455 -0.48656,-0.06578 -0.72984,-0.09866 -0.01172,-0.154954 -0.09422,-0.321133 -0.03515,-0.46486 0.241531,-0.587597 1.328614,-1.591136 1.658816,-1.904437 1.877058,-1.780984 3.895634,-3.40626 5.896062,-5.043886 3.535571,-2.836127 7.148448,-5.569162 10.796749,-8.258456 1.070619,-0.470324 2.124741,-0.980147 3.211856,-1.410972 0.200401,-0.07942 -0.361799,0.234467 -0.541928,0.352878 -0.323004,0.212333 -0.644107,0.427552 -0.967463,0.639347 -1.832976,1.20058 -3.6832,2.374692 -5.503786,3.594215 -2.074328,1.409712 -3.306773,2.236435 -5.383996,3.694413 -2.755742,1.934222 -5.462001,3.935801 -8.195513,5.900786 -0.700633,0.50365 -1.407933,0.99796 -2.1119,1.49694 -1.33977,0.818323 -2.655478,1.677408 -4.019309,2.454969 -0.369099,0.210435 -0.748435,0.457288 -1.170729,0.504028 -0.192521,0.02131 -0.465539,-0.128062 -0.484494,-0.320828 -0.02559,-0.260208 0.222115,-0.479061 0.385786,-0.682958 0.728836,-0.907963 2.086001,-2.073375 2.873408,-2.795692 5.176524,-4.433776 10.518067,-8.681066 16.098356,-12.598328 2.177968,-1.513099 1.361204,-0.959644 3.227502,-2.212884 0.248303,-0.166738 0.453119,-0.436939 0.745691,-0.499049 0.172632,-0.03665 0.314394,0.160424 0.471591,0.240636 0.721567,-0.424678 1.443133,-0.849355 2.164699,-1.274033 0.319207,-0.189487 -0.641602,0.373551 -0.962403,0.560327 -5.233819,3.074325 -10.3927,6.276798 -15.442842,9.645211 -11.209504,7.532713 4.193075,-2.82442 -6.570258,4.434304 -0.94854,0.639689 -1.883522,1.30039 -2.850919,1.911188 -1.522319,0.961167 -3.064398,1.891202 -4.616448,2.803583 -0.612338,0.359966 -1.220008,0.737717 -1.875026,1.012464 -0.377902,0.158511 -0.798604,0.184318 -1.197905,0.276477 -0.386298,-0.740132 -0.413251,-0.451383 0.454396,-1.364392 0.475848,-0.500726 0.993555,-0.960572 1.510707,-1.418515 2.647889,-2.344726 5.476928,-4.473669 8.236529,-6.681858 5.024929,-3.943547 10.054595,-7.896371 15.369457,-11.447039 1.153952,-0.681789 2.242911,-1.488037 3.461855,-2.045367 0.182752,-0.08356 0.464212,0.0307 0.567647,0.202981 0.06667,0.111043 -0.188315,0.178653 -0.291626,0.256767 -1.291775,0.976723 -2.682721,1.818056 -4.008057,2.746025 -5.382582,3.682608 -10.775768,7.352899 -16.030367,11.217552 -2.861815,2.036223 -2.678207,1.98868 -6.386379,4.103702 -0.702584,0.400732 -1.726827,0.979961 -1.953601,0.343566 -0.26696,-0.749168 1.868711,-1.487307 1.413549,-1.922124 0.612529,-0.576743 1.211592,-1.16813 1.837588,-1.730227 1.708551,-1.534148 3.638377,-3.119737 5.411545,-4.561218 3.155099,-2.564909 6.363529,-5.062801 9.604329,-7.518354 2.507235,-1.856159 5.024396,-3.691466 7.57768,-5.483766 0.508483,-0.356935 1.018613,-0.711519 1.528267,-1.066781 0.308251,-0.21487 0.587028,-0.480333 0.925447,-0.643615 1.051402,-0.507287 2.151529,-0.906682 3.227294,-1.360022 -0.848552,0.519852 -1.653031,1.137244 -2.465465,1.707136 -2.355853,1.652545 -4.722391,3.289884 -7.088886,4.927118 -3.280046,2.276341 -6.553877,4.560211 -9.792008,6.896079 -2.717755,1.960488 -3.334878,2.450432 -5.983591,4.345609 -0.776926,0.555897 -1.561335,1.101262 -2.342002,1.651892 -1.385906,0.836423 -2.745599,1.717902 -4.157718,2.509267 -0.390228,0.218688 -0.793715,0.474107 -1.239152,0.515191 -0.190128,0.01754 -0.456929,-0.169188 -0.445706,-0.359792 0.01798,-0.305273 0.309528,-0.532012 0.511727,-0.761426 0.83274,-0.944823 2.414252,-2.277816 3.272063,-3.037653 5.61142,-4.717883 11.329777,-9.309393 17.159637,-13.754929 1.939296,-1.446353 2.048692,-1.544716 3.870361,-2.847318 1.444805,-1.03312 2.76681,-1.962044 4.471715,-2.68923 0.136015,-0.05801 0.32183,0.184632 0.296177,0.330261 -0.03376,0.191656 -0.283257,0.266931 -0.424886,0.400397 -3.943489,3.214039 -8.056711,6.216276 -12.151636,9.232192 -2.464055,1.770748 -3.705536,2.673274 -6.184469,4.413625 -1.141007,0.801051 -4.224353,2.957612 -5.497392,3.746436 -1.465105,0.907835 -2.944615,1.793687 -4.448349,2.635993 -0.548428,0.307198 -1.135421,0.539809 -1.703131,0.809714 -0.350326,0.01222 -0.730088,0.177762 -1.050978,0.03667 -0.172715,-0.07594 -0.191143,-0.376893 -0.122449,-0.552617 0.153271,-0.392075 0.458962,-0.709778 0.738865,-1.024212 0.477046,-0.535899 0.999658,-1.030305 1.525003,-1.518948 1.601463,-1.489581 3.365742,-2.926931 5.035707,-4.327567 5.768618,-4.761529 11.568366,-9.485256 17.322791,-14.263948 1.039565,-0.887414 1.978444,-1.677076 2.988214,-2.575965 0.228982,-0.203837 0.40526,-0.480548 0.676951,-0.622556 0.974202,-0.509197 2.000531,-0.91478 3.025294,-1.312538 0.512214,-0.198814 -3.115118,1.86594 -1.297192,1.017004 -4.908217,3.889883 -9.926988,7.636655 -14.972825,11.345712 -2.194796,1.597752 -4.362016,3.197591 -6.597041,4.738801 -0.989941,0.682635 -1.977665,1.370116 -2.997974,2.006467 -0.760486,0.474305 -5.272213,3.240696 -7.008246,4.023454 -0.496058,0.223667 -1.029788,0.352048 -1.544682,0.528071 -0.257049,-0.105477 -0.645967,-0.06838 -0.771146,-0.316431 -0.126462,-0.250594 0.05828,-0.575182 0.198471,-0.818365 0.280396,-0.486405 0.662808,-0.90878 1.037959,-1.32648 2.102833,-2.341336 4.580102,-4.31536 6.905552,-6.420931 4.460028,-3.82315 8.943317,-7.622755 13.535013,-11.287447 1.128987,-0.686216 2.19666,-1.485335 3.386961,-2.058647 0.173206,-0.08342 0.437556,0.0075 0.553973,0.160484 0.07632,0.100303 -0.09904,0.235364 -0.178026,0.333583 -0.941863,1.171217 -2.221213,2.038616 -3.280679,3.087268 -4.806138,4.084959 -9.746113,8.033671 -15.092113,11.398519 -1.687141,1.003321 -5.00486,3.041393 -7.103926,4.129902 -0.172862,0.08964 -3.47631,1.987864 -3.814446,0.918848 -0.07764,-0.245442 0.186532,-0.479876 0.279797,-0.719814 0.350537,-0.389972 0.678531,-0.801453 1.051612,-1.169916 1.029241,-1.016506 3.084273,-2.756694 4.112926,-3.609403 2.865647,-2.375494 5.820991,-4.640029 8.718363,-6.976078 3.807519,-3.041687 7.56945,-6.135857 11.176232,-9.415186 1.061246,-0.49018 2.094665,-1.045756 3.183737,-1.47054 0.07771,-0.03031 -2.98e-4,0.175632 -0.04476,0.246206 -0.128366,0.203735 -0.298058,0.37888 -0.460867,0.556303 -1.127937,1.229179 -2.401826,2.316185 -3.656479,3.410595 -4.458425,3.76535 -9.092542,7.336973 -14.059442,10.412902 -0.462704,0.269975 -4.60285,2.788542 -6.120967,3.453223 -0.371737,0.162758 -0.752974,0.365545 -1.158703,0.373525 -0.195854,0.0039 -0.463168,-0.146025 -0.478392,-0.341324 -0.05786,-0.742192 1.746274,-1.043318 1.486267,-1.666968 4.468544,-3.794323 9.145229,-7.34081 13.482827,-11.289526 6.854895,-6.20204 -2.360149,2.138629 3.49863,-3.173501 0.403523,-0.365872 0.768865,-0.779609 1.213062,-1.094859 1.092423,-0.775301 2.230958,-1.485794 3.383989,-2.167705 0.195419,-0.115572 0.419879,-0.235446 0.646055,-0.215691 0.12642,0.01104 0.161796,0.195546 0.242694,0.293319 -0.07222,0.144611 -0.127003,0.299339 -0.216666,0.433833 -0.339594,0.509386 -1.06882,1.326976 -1.437074,1.726792 -1.400113,1.520117 -2.910828,2.932076 -4.440533,4.319809 -0.645729,0.567614 -1.280085,1.148432 -1.937186,1.702841 -3.634548,3.066537 -7.574836,5.815625 -11.90541,7.812297 -0.409852,0.126283 -0.803702,0.3281 -1.229554,0.37885 -0.424232,0.05056 -1.083144,-0.03133 -0.976381,-0.655439 0.0507,-0.296351 0.235857,-0.557564 0.406106,-0.805374 0.576331,-0.838886 1.669173,-1.918904 2.32449,-2.610154 3.718019,-3.712875 7.463662,-7.405511 10.891759,-11.393608 0.915685,-1.046711 1.218046,-1.388416 2.068768,-2.373479 0.189165,-0.219038 0.318858,-0.507306 0.565365,-0.658948 0.983059,-0.60474 2.028812,-1.105247 3.079387,-1.583165 0.194131,-0.08831 -0.416947,1.377289 -0.325238,0.550993 -2.632979,2.737887 -5.462024,5.283011 -8.340464,7.758575 -2.290118,1.900606 -4.578209,3.796127 -6.983995,5.55079 -0.720821,0.525732 -1.436987,1.060207 -2.189734,1.539112 -1.395585,0.887885 -2.822849,1.725415 -4.251582,2.558914 -0.544819,0.317838 -1.111745,0.596166 -1.667618,0.894249 -0.416824,0.156886 -0.81234,0.390682 -1.250472,0.470657 -0.372617,0.06802 -1.097236,0.03813 -0.936292,-0.590234 0.07463,-0.291393 0.285671,-0.532214 0.467345,-0.771953 0.613314,-0.809337 1.688583,-1.867566 2.355849,-2.557894 3.321921,-3.374341 6.618473,-6.786367 9.557174,-10.506294 0.84738,-1.088891 0.886209,-1.115003 1.616558,-2.129687 0.136681,-0.189892 0.215011,-0.43458 0.401724,-0.575573 0.08824,-0.06663 0.232107,0.07184 0.330959,0.0223 0.885639,-0.44383 1.709147,-1.002601 2.577292,-1.479743 0.126639,-0.0696 -0.233404,0.170438 -0.350106,0.255657 -2.09131,1.842791 -4.166203,3.705948 -6.399225,5.380233 -1.427833,1.09778 -1.706894,1.318574 -3.14131,2.396713 -0.302436,0.227318 -2.418808,1.814511 -2.807554,2.06192 -1.185049,0.754198 -2.398124,1.463557 -3.605827,2.180918 -0.316627,0.188073 -0.644407,0.356703 -0.96661,0.535054 -0.237877,0.07716 -0.463558,0.229892 -0.713631,0.231486 -0.425533,0.0027 -0.538523,-0.277693 -0.416727,-0.59848 0.08198,-0.215935 0.219591,-0.407344 0.349476,-0.59834 0.508901,-0.748343 0.935152,-1.200124 1.539342,-1.906682 2.14093,-2.459623 4.357512,-4.852547 6.556174,-7.26046 0.178459,-0.181537 1.151031,-1.202048 1.438242,-1.388087 1.21808,-0.789003 2.787781,-1.95048 4.356325,-2.298994 0,0 -2.462431,1.851954 -2.462431,1.851954 z"
       inkscape:connector-curvature="0"
       transform="translate(6.6292965,939.95564)" />
    <path
       style="fill:#ff0000;stroke-width:1.89999998;stroke-miterlimit:4;stroke-dasharray:7.6, 7.6;stroke-dashoffset:0"
       id="path3030"
       d="m 35.30679,43.562687 c -0.985926,-0.30055 -1.935905,0.08129 -2.838957,0.461243 -0.280853,0.150763 -1.113843,0.619664 -0.842561,0.45229 0.469733,-0.289814 0.894562,-0.726529 1.438534,-0.819991 0.463106,-0.07957 -0.790286,0.508834 -1.177435,0.77513 -1.48635,1.022373 -2.899786,2.142917 -4.321173,3.252146 -1.489071,1.16882 -2.923901,2.404272 -4.308227,3.695054 -0.726053,0.67699 -1.433448,1.340695 -2.022697,2.139528 0.0038,0.03507 -0.01796,0.12465 0.01146,0.105197 0.107108,-0.07081 0.153552,-0.212258 0.259714,-0.284484 0.232143,-0.157935 0.984498,-0.540095 0.742651,-0.397462 -0.417006,0.245936 -1.621612,1.038602 -1.268389,0.707525 0.442648,-0.414895 1.031831,-0.638534 1.543156,-0.965065 0.589636,-0.376539 1.173066,-0.762709 1.759599,-1.144063 3.250732,-2.120527 6.420935,-4.360769 9.649856,-6.513671 1.326796,-0.861477 2.685238,-1.930683 4.151691,-2.477227 0.159492,-0.05944 0.159744,0.338186 0.105661,0.499573 -0.07579,0.226153 -0.297516,0.373272 -0.457458,0.550211 -0.261915,0.289751 -0.538301,0.566086 -0.807452,0.849128 -3.467045,3.475236 -7.072086,6.809067 -10.681757,10.134699 -0.874273,0.796033 -2.546692,2.302674 -3.446703,3.177394 -0.342484,0.33286 -1.185586,1.122427 -1.471688,1.669745 -0.0169,0.03234 0.06304,0.06968 0.09562,0.05327 0.204104,-0.102822 0.377456,-0.257778 0.566185,-0.386668 0.408795,-0.22166 0.824999,-0.430172 1.226387,-0.66498 0.174924,-0.102329 -0.711622,0.384097 -0.546175,0.267062 0.716954,-0.507158 1.470422,-0.960619 2.205633,-1.440929 0.795463,-0.552367 1.598328,-1.094225 2.386389,-1.657102 1.820111,-1.300025 3.048089,-2.251519 4.828387,-3.601937 1.930896,-1.528514 3.855919,-3.066967 5.705944,-4.693446 0.884066,-0.777241 1.752872,-1.568725 2.545649,-2.43889 0.02752,-0.05724 0.09774,-0.2334 0.08256,-0.171727 -0.274325,1.114505 -0.70613,0.116307 1.67459,-0.610264 0.483131,-0.147447 -0.848002,0.549376 -1.263686,0.836365 -1.389553,0.959347 -2.377907,1.713106 -3.761083,2.738781 -4.735424,3.633617 -9.51966,7.218393 -14.010836,11.154391 -0.338018,0.342937 -0.702154,0.661961 -1.014055,1.028812 -0.137501,0.161725 -0.290643,0.337816 -0.325849,0.547153 -0.0154,0.09154 0.168466,-0.07803 0.253293,-0.11573 0.32153,-0.142884 0.649498,-0.271812 0.965761,-0.426002 1.566532,-0.763739 1.196731,-0.487557 1.796202,-0.953441 5.474406,-3.373417 10.626557,-7.230753 15.692199,-11.181737 1.172331,-0.979084 2.41121,-1.886561 3.514607,-2.946717 0.102734,-0.09871 0.147237,-0.334065 0.288475,-0.315374 0.118478,0.01568 0.01924,0.238246 0.02886,0.357369 0.658915,-0.346902 1.31783,-0.693804 1.976744,-1.040706 -0.412608,0.295304 -0.830264,0.583679 -1.237823,0.885913 -2.281576,1.691948 -4.508745,3.458525 -6.767558,5.180375 -2.475317,1.886885 -3.74786,2.828053 -6.257655,4.70329 -2.598464,2.001043 -5.292046,3.885413 -7.792132,6.012497 -0.464654,0.39533 -0.928793,0.794104 -1.352702,1.23284 -0.715288,0.740308 -0.80593,0.609578 -0.374415,0.849901 2.760481,-0.916268 5.355364,-2.28187 7.849665,-3.763785 0.391654,-0.23269 0.747892,-0.520519 1.127396,-0.772542 1.055411,-0.700885 2.118122,-1.390714 3.177183,-2.086071 4.21315,-2.941494 8.436283,-5.892693 12.398269,-9.170546 0.13866,-0.131587 0.277321,-0.263174 0.415982,-0.394761 0.003,0.07548 -0.06188,0.252419 0.0091,0.226451 0.716324,-0.262215 1.314846,-0.84864 2.065229,-0.985758 0.492783,-0.09005 -0.838264,0.549016 -1.248494,0.836515 -1.341888,0.940424 -2.761452,2.018561 -4.063832,2.990727 -3.025411,2.250942 -6.050388,4.5026 -9.065218,6.767711 -1.817341,1.36541 -4.210532,3.150771 -5.992177,4.603112 -0.751281,0.612421 -1.473248,1.25995 -2.209871,1.889925 -0.488394,0.508744 -1.784605,1.628261 -2.036624,2.518551 -0.0458,0.161792 0.02389,0.406108 0.178706,0.471732 0.265674,0.112616 0.580841,0.01993 0.865177,-0.02924 1.561372,-0.270023 2.351206,-0.675081 3.905984,-1.265913 2.47805,-1.187419 3.252651,-1.485493 5.668566,-2.963777 0.363638,-0.222507 0.674953,-0.521252 1.021266,-0.769867 0.960007,-0.689181 1.948005,-1.339397 2.89731,-2.043246 2.359423,-1.749358 2.713813,-2.129157 4.856946,-3.998393 1.363268,-1.385361 2.952798,-2.703159 3.894253,-4.447525 0.183658,-0.34029 0.454863,-1.04306 0.08532,-1.156923 -0.202991,-0.06255 -0.420501,0.0604 -0.630752,0.0906 -2.156648,0.6688 -3.947875,1.952784 -5.808235,3.19517 -2.952807,1.971945 -3.305555,2.28279 -6.201726,4.412363 -2.621154,2.062818 -5.335608,4.089794 -7.541358,6.61815 -0.595861,0.683011 -1.63835,1.970458 -1.78744,3.012018 -0.0406,0.283625 0.14024,0.555605 0.210361,0.833407 0.278342,0.117276 0.535441,0.313394 0.835025,0.351826 1.116697,0.143253 2.558074,-0.251893 3.554756,-0.584531 2.123817,-0.708816 4.189609,-1.700797 6.052479,-2.938696 2.664266,-1.730694 5.215092,-3.646105 7.561032,-5.791655 0.947473,-0.86654 2.208324,-2.121356 3.004331,-3.181051 0.270944,-0.360698 0.472843,-0.768423 0.709264,-1.152635 0.05309,-0.253066 0.203847,-0.504498 0.159261,-0.7592 -0.09145,-0.522445 -1.132929,-0.186389 -1.206708,-0.167553 -2.20221,0.562229 -4.214897,1.762215 -6.205251,2.806821 -5.06589,2.999843 -10.048947,6.260412 -14.421485,10.228674 -0.798997,0.725124 -1.532421,1.519373 -2.298631,2.279059 -0.496344,0.646923 -1.064032,1.244893 -1.489032,1.940767 -0.680242,1.113795 -1.191357,2.684599 0.709655,2.74421 1.55366,0.04872 3.117238,-0.599296 4.548095,-1.036149 3.701824,-1.431936 7.223756,-3.291591 10.644812,-5.293874 0.91637,-0.536336 5.312676,-3.471953 5.433377,-3.555681 1.044851,-0.724796 2.055367,-1.497878 3.08305,-2.246817 1.979567,-1.611444 4.132559,-3.144362 5.713979,-5.185662 0.343417,-0.443283 0.860019,-1.229499 0.519593,-1.49077 -0.158402,-0.121571 -0.399351,-0.0016 -0.599026,-0.0024 -0.40971,0.117029 -0.829924,0.202115 -1.229129,0.351087 -1.731884,0.646291 -3.391261,1.523826 -4.952935,2.506423 -4.175559,2.62724 -2.426989,1.498737 -6.655927,4.343892 -3.120286,2.235525 -6.269571,4.466052 -9.081549,7.092086 -0.931991,0.870363 -2.330409,2.233403 -2.937823,3.471074 -0.161512,0.329101 -0.152431,0.717174 -0.228647,1.075761 0.164511,0.173244 0.265285,0.449163 0.493534,0.519732 0.790237,0.244324 2.549824,-0.289973 3.100635,-0.476816 2.352054,-0.79785 4.556352,-1.977314 6.685864,-3.238114 3.33332,-2.020605 6.531483,-4.257967 9.610386,-6.646865 1.651698,-1.281539 3.247307,-2.592606 4.778836,-4.014665 0.546232,-0.507189 1.058973,-1.049293 1.58846,-1.573939 0.262633,-0.316507 1.241229,-1.294041 1.335654,-1.927517 0.01332,-0.08938 -0.121615,-0.175567 -0.211763,-0.169274 -0.267795,0.01869 -0.518495,0.142427 -0.769439,0.237772 -1.591274,0.604602 -1.820541,0.800743 -3.498489,1.680302 -5.025319,3.112041 -9.895497,6.467652 -14.574407,10.080666 -1.150032,0.888045 -2.274307,1.808956 -3.411461,2.713435 -1.857715,1.601555 -3.326079,2.75091 -4.947939,4.536815 -0.10559,0.11627 -1.642266,1.735561 -1.442435,2.454519 0.05203,0.187208 0.366597,0.183165 0.5598,0.162513 0.476382,-0.05092 0.925757,-0.247194 1.388635,-0.370791 0.738351,-0.324141 1.494397,-0.610643 2.215052,-0.972424 2.543774,-1.277018 2.394992,-1.281627 4.300569,-2.526079 1.219758,-0.796573 2.448963,-1.578691 3.664851,-2.381158 2.285281,-1.50825 4.954329,-3.331456 7.225041,-4.873548 2.739643,-1.894748 5.495778,-3.767908 8.193902,-5.721996 0.959176,-0.694673 2.156694,-1.48659 2.967827,-2.383807 -0.04241,0.106019 -0.03945,0.245037 -0.127235,0.318056 -0.239626,0.199314 -0.540695,0.310229 -0.812187,0.463325 -0.496256,0.279843 -1.002882,0.541747 -1.491043,0.835483 -0.03188,0.01918 0.142459,-0.02602 0.111497,-0.0054 -0.894242,0.596016 -1.809408,1.160025 -2.714111,1.740038 -1.037284,0.702162 -2.074567,1.404323 -3.11185,2.106485 -3.446604,2.412512 -6.837259,4.905557 -10.146221,7.504023 -1.639994,1.287857 -3.423987,2.716274 -4.973066,4.137231 -0.472511,0.43343 -0.909901,0.903655 -1.364852,1.355482 -0.169299,0.256089 -0.39973,0.480962 -0.507899,0.768265 -0.02759,0.07327 0.161375,-0.0023 0.232137,-0.03582 0.329546,-0.156046 0.641195,-0.347487 0.958121,-0.527789 0.151296,-0.08607 -0.60584,0.341795 -0.461134,0.245049 0.85699,-0.572961 1.733217,-1.116613 2.599826,-1.67492 1.011596,-0.680211 2.023193,-1.360423 3.03479,-2.040634 5.604274,-3.892991 11.302483,-7.6461 17.102861,-11.239823 0.158447,-0.09645 1.781296,-1.088744 2.18665,-1.323319 0.921695,-0.533378 1.766367,-1.237975 2.772141,-1.587879 0.230472,-0.08018 -0.05029,0.521163 -0.217309,0.699065 -0.302672,0.322383 -0.74435,0.477624 -1.11453,0.719509 -0.557839,0.364504 -1.113,0.733093 -1.669499,1.099639 -5.448818,3.601122 -10.50526,7.75158 -15.408938,12.054161 -0.992463,0.940851 -2.28005,2.079521 -3.164121,3.177057 -0.32769,0.406813 -0.865887,1.225478 -0.539068,1.272208 0.199948,0.02859 0.364222,-0.174751 0.545178,-0.264481 0.410482,-0.203545 0.819403,-0.410221 1.229104,-0.615331 -0.137887,0.07084 -0.541938,0.299549 -0.41366,0.212512 0.789846,-0.535913 1.605661,-1.032645 2.400745,-1.560758 1.827159,-1.21364 3.631272,-2.461672 5.454423,-3.681325 2.973229,-1.989033 2.431768,-1.623162 5.346675,-3.506773 2.092988,-1.282028 4.141625,-2.641961 6.257258,-3.887387 0.939535,-0.553084 1.808256,-1.257636 2.828138,-1.642953 0.191966,-0.07252 -0.06069,0.405907 -0.09103,0.60886 -4.344032,2.642585 -8.393562,5.72555 -12.380634,8.870398 -2.290981,1.871315 -4.614649,3.729461 -6.703212,5.831813 -0.458911,0.461942 -1.39554,1.408149 -1.683794,2.13765 -0.03933,0.09954 0.03848,0.210564 0.05771,0.315847 0.517888,-0.319622 1.104186,-0.52116 1.612782,-0.855237 0.185777,-0.12203 -0.788916,0.39504 -0.61594,0.255455 0.689953,-0.556767 1.463124,-1.001967 2.18275,-1.519814 1.441778,-1.037512 3.463182,-2.583482 4.871669,-3.65085 2.113207,-1.634257 4.27479,-3.203626 6.442189,-4.764611 0.97528,-0.702407 1.966777,-1.386517 2.905555,-2.137654 0.03174,0.201862 -0.455051,0.636612 -0.247293,0.589393 0.564191,-0.12823 1.377393,-1.403511 1.517722,-0.842207 0.143078,0.572303 -0.997682,0.629982 -1.48924,0.95613 -1.659706,1.101212 -2.221121,1.525393 -3.887961,2.715953 -2.069943,1.549758 -4.120121,3.129969 -6.084861,4.812403 -0.802558,0.687242 -1.751835,1.512441 -2.460417,2.328558 -0.175866,0.202555 -0.311239,0.436989 -0.466858,0.655484 0.01729,0.0624 -0.01212,0.197079 0.05187,0.187193 0.171454,-0.02649 0.293823,-0.185434 0.44827,-0.264456 0.351518,-0.179853 0.719025,-0.327613 1.068422,-0.511553 0.533326,-0.297741 1.066652,-0.595482 1.599978,-0.893223 -0.05376,0.02238 -0.210798,0.09782 -0.161294,0.06715 0.800149,-0.495814 1.61001,-0.975781 2.415016,-1.463671 3.811554,-2.315452 7.63355,-4.613687 11.45137,-6.918789 1.148418,-0.722586 0.895189,-0.600663 3.188155,-1.325439 0.24253,-0.07666 -0.435585,0.262784 -0.653265,0.394362 -0.392965,0.237529 -0.787334,0.472754 -1.178668,0.71296 -1.881587,1.154945 -1.649475,1.023097 -3.652734,2.320052 -3.882855,2.62209 -7.761604,5.278039 -11.36657,8.278607 -0.517005,0.430325 -1.012771,0.885545 -1.519156,1.328317 -0.309156,0.328159 -0.647946,0.630734 -0.927468,0.984476 -0.133743,0.169254 -0.269032,0.358992 -0.302514,0.572095 -0.01092,0.06952 0.143264,0.03134 0.210807,0.01158 0.258152,-0.07553 0.505594,-0.184825 0.751768,-0.2932 1.398449,-0.615649 1.730823,-0.835808 3.194671,-1.619206 0.731583,-0.417875 1.467943,-0.827496 2.194748,-1.253627 0.08806,-0.05163 0.161118,-0.12622 0.248556,-0.1789 0.805536,-0.485317 1.618542,-0.958131 2.429398,-1.434507 2.732362,-1.605254 5.479738,-3.184325 8.243216,-4.735372 0.24349,-0.133031 1.863196,-1.028746 2.284825,-1.226297 0.167697,-0.07857 0.338983,-0.229046 0.520752,-0.193604 0.126125,0.02459 0.229951,0.209582 0.194203,0.333009 -0.116717,0.402992 -1.253231,1.139778 -1.396224,1.246873 -2.737857,2.010714 -5.501461,3.999594 -8.054551,6.246193 -0.450755,0.396644 -0.880881,0.816132 -1.321322,1.224198 -0.485771,0.546224 -1.097819,1.108034 -1.385648,1.813199 -0.06997,0.171413 -0.04786,0.367178 -0.07179,0.550768 0,0 -2.668974,1.317115 -2.668974,1.317115 l 0,0 c 0.02957,-0.231719 0.0015,-0.478443 0.08871,-0.695158 0.296202,-0.736173 1.028527,-1.409162 1.52856,-1.958751 0.45914,-0.419969 0.908999,-0.850315 1.377419,-1.259907 2.507313,-2.192423 5.191613,-4.168502 7.844784,-6.177235 0.283097,-0.217112 0.554992,-0.449669 0.849291,-0.651336 0.143574,-0.09838 0.290205,-0.210089 0.460471,-0.246169 0.07092,-0.01503 0.235644,0.05368 0.188402,0.108671 -0.09573,0.111435 -0.279752,0.09184 -0.413275,0.153099 -0.532447,0.244303 -1.697185,0.879112 -2.114976,1.101997 -0.55735,0.308274 -1.110416,0.624422 -1.672049,0.924821 -0.05817,0.03111 0.217518,-0.148856 0.160207,-0.116188 -3.881419,2.212386 -7.6782,4.57096 -11.571764,6.762475 -0.651755,0.351495 -1.293464,0.722292 -1.955265,1.054485 -0.452673,0.22722 -1.792512,0.969702 -2.505854,0.818957 -0.762217,-0.161073 -0.04101,-0.981628 0.07684,-1.123516 0.317927,-0.38278 0.699845,-0.707539 1.049768,-1.061308 0.538051,-0.459345 1.066727,-0.929904 1.614153,-1.378036 3.618396,-2.962073 7.462018,-5.638068 11.313931,-8.283231 2.301855,-1.526651 1.354766,-0.913962 3.439405,-2.244383 0.349849,-0.223275 0.697504,-0.450054 1.050258,-0.668712 0.176868,-0.109634 0.347113,-0.23404 0.538374,-0.316021 0.955651,-0.409623 1.918136,-0.805685 2.89692,-1.15646 0.194082,-0.06955 -0.356784,0.206708 -0.535175,0.310062 -3.965641,2.28688 -7.877028,4.667879 -11.78907,7.044684 -3.096453,1.902134 -2.791776,1.735714 -6.684942,3.992437 -0.5695,0.330117 -1.136658,0.66591 -1.724046,0.963032 -0.383562,0.194019 -1.399971,0.839464 -1.985609,0.434848 -0.124422,-0.08596 -0.02993,-0.300977 -0.0449,-0.451465 0.190758,-0.248017 0.361513,-0.512792 0.572275,-0.744051 0.76204,-0.836151 1.802575,-1.721577 2.646039,-2.433483 1.980839,-1.671881 4.029445,-3.262036 6.090606,-4.832901 1.672661,-1.21774 3.334233,-2.49342 5.097721,-3.580946 0.0032,-0.002 2.781885,-2.473488 4.196538,-2.06945 0.06216,0.01775 -0.03085,0.125559 -0.04628,0.188339 -1.062012,0.785896 -2.159516,1.52265 -3.241036,2.281388 -2.22937,1.564009 -4.444332,3.149112 -6.597326,4.817683 -0.963326,0.734628 -3.764855,2.877388 -4.770428,3.619851 -0.682424,0.503868 -1.352618,1.026833 -2.065488,1.486617 -1.332969,0.859734 -2.691071,1.681353 -4.067759,2.469186 -0.415638,0.237856 -0.837032,0.495247 -1.303291,0.604488 -0.2579,0.06042 -0.524199,-0.07661 -0.786299,-0.114909 -0.0049,-0.18367 -0.08566,-0.381582 -0.01458,-0.55101 0.305521,-0.728244 1.515063,-1.903191 1.94866,-2.323831 2.174713,-2.109728 4.546356,-4.010716 6.888059,-5.927419 3.803334,-3.029381 7.658451,-6.000561 11.740506,-8.649684 1.360497,0.504678 0.388376,0.306201 2.786988,-1.103118 0.309896,-0.182082 -0.622246,0.359976 -0.931772,0.542687 -1.934296,1.141798 -3.854236,2.308113 -5.756574,3.502426 -2.745456,1.757533 -5.462957,3.55029 -8.156978,5.385981 -0.627466,0.427552 -4.08386,2.823667 -4.860299,3.301229 -1.38909,0.854381 -2.814907,1.647558 -4.22236,2.471337 -0.34029,0.153152 -1.644683,1.046902 -2.269642,0.516653 -0.147773,-0.125378 -0.06452,-0.405041 0.01636,-0.581154 0.175503,-0.382177 0.45106,-0.713404 0.724755,-1.032703 0.936648,-1.092712 2.400635,-2.371175 3.416826,-3.307835 4.860486,-4.213101 9.813104,-8.342032 15.127845,-11.976584 0.509855,-0.349116 1.018817,-0.699541 1.529565,-1.047348 0.321532,-0.218956 0.599054,-0.527447 0.967262,-0.652933 0.19937,-0.06795 0.414673,0.0742 0.62201,0.111307 0.772162,-0.453241 1.544323,-0.906481 2.316485,-1.359721 0.8136,-0.491197 -4.342847,2.49058 -2.469337,1.425258 -5.914929,3.573963 -11.705537,7.347112 -17.356811,11.326218 -3.122585,2.140791 -6.199982,4.337142 -9.574245,6.081167 -0.398999,0.206227 -0.840231,0.405819 -1.28916,0.391963 -0.180618,-0.0056 -0.363222,-0.267413 -0.314636,-0.441462 0.101566,-0.363833 0.459351,-0.599797 0.689026,-0.899695 0.514338,-0.481558 1.014071,-0.979206 1.543014,-1.444674 1.650302,-1.45226 3.49668,-2.906809 5.22115,-4.250137 3.293945,-2.565919 6.644865,-5.058248 10.047333,-7.478398 1.599383,-1.103188 3.886818,-2.714259 5.578107,-3.762899 1.450598,-0.899405 2.924236,-1.761188 4.393908,-2.629075 0.0096,-0.0057 2.226506,-1.342972 2.662586,-1.381095 0.173022,-0.01513 0.270749,0.217616 0.406123,0.326424 -0.160442,0.16062 -0.306351,0.337207 -0.481325,0.48186 -0.535606,0.442792 -2.558791,1.883043 -2.913225,2.132671 -2.81094,1.979743 -5.665136,3.897746 -8.498015,5.845651 -1.717661,1.162671 -5.527271,3.746412 -7.234041,4.881066 -1.192769,0.792949 -2.37729,1.599173 -3.591545,2.358813 -1.769978,1.1073 -3.558697,2.184901 -5.359653,3.241069 -0.997444,0.58495 -2.001327,1.161576 -3.034169,1.681478 -0.785376,0.395334 -1.609887,0.70759 -2.414831,1.061385 -0.129824,0.02383 -2.169777,0.83055 -2.349179,-0.244144 -0.133918,-0.802227 1.609168,-2.561418 1.783733,-2.744507 1.736894,-1.821702 3.268039,-3.018045 5.216924,-4.671472 1.152724,-0.912643 2.294725,-1.838996 3.458174,-2.737928 5.898112,-4.557141 12.037191,-8.821815 18.539904,-12.475723 0.733686,-0.386848 1.451523,-0.805375 2.201057,-1.160543 0.506631,-0.240069 1.890993,-0.952962 2.655042,-0.674335 0.698005,0.254543 -0.121765,1.26138 -0.199239,1.365759 -0.336402,0.45323 -0.745045,0.848082 -1.117567,1.272123 -0.569489,0.545965 -1.123898,1.108108 -1.708468,1.637894 -4.475638,4.056198 -9.44924,7.548172 -14.544993,10.77182 -2.91828,1.696429 -5.309754,3.219323 -8.295547,4.597618 -0.863532,0.398621 -1.740081,0.775414 -2.641514,1.078734 -0.794699,0.267406 -2.534907,0.822389 -3.500563,0.362371 -0.289355,-0.137843 -0.366427,-0.525967 -0.54964,-0.78895 0.112215,-0.413348 0.13493,-0.862208 0.336644,-1.240044 0.681517,-1.276566 2.238441,-2.754934 3.224625,-3.657831 2.869948,-2.62757 6.04371,-4.894197 9.194101,-7.165444 2.20749,-1.501234 4.216329,-2.910824 6.493716,-4.295882 1.632685,-0.992964 3.282667,-1.957772 4.944412,-2.901298 1.175716,-0.667563 3.116153,-1.704793 4.469349,-2.17248 0.459984,-0.158978 0.948976,-0.216517 1.423464,-0.324776 0.271495,0.105104 0.632311,0.08822 0.814486,0.315312 0.428859,0.534593 -0.546661,1.652222 -0.687707,1.824542 -1.720863,2.102409 -3.982158,3.705694 -6.081986,5.388078 -1.051357,0.7617 -2.086298,1.546588 -3.15407,2.2851 -3.232544,2.23575 -5.592782,3.634591 -9.144475,5.703672 -2.314599,1.348396 -5.124326,2.877923 -7.561459,4.01746 -1.108143,0.518138 -2.249202,0.962747 -3.373803,1.444121 -0.943668,0.294767 -1.86619,0.668592 -2.831004,0.884303 -0.787764,0.176127 -2.586481,0.564825 -3.344158,-0.321173 -0.253917,-0.296921 -0.290979,-0.767839 -0.217887,-1.151627 0.259236,-1.361187 1.611602,-2.708247 2.38115,-3.667623 0.804351,-0.78176 1.578115,-1.596277 2.413054,-2.345281 5.556365,-4.984484 11.948121,-8.946175 18.421748,-12.606666 1.681633,-0.891471 3.214967,-1.77638 4.981746,-2.470954 0.538559,-0.211724 1.087081,-0.41899 1.657556,-0.51611 0.4828,-0.08219 1.405073,-0.14532 1.504128,0.611839 0.0401,0.306507 -0.154823,0.598537 -0.232234,0.897805 -0.269245,0.413482 -0.504233,0.851413 -0.807735,1.240447 -0.844625,1.082652 -2.196056,2.403209 -3.18261,3.295168 -2.38212,2.153715 -4.951428,4.097605 -7.631952,5.863233 -3.337773,1.975061 -6.642429,4.158707 -10.356999,5.392061 -1.028762,0.341582 -2.712296,0.821723 -3.883763,0.574757 -0.369055,-0.0778 -0.652525,-0.37846 -0.978787,-0.56769 -0.06119,-0.346373 -0.246541,-0.693067 -0.183564,-1.03912 0.199566,-1.096603 1.391276,-2.516418 2.031328,-3.228849 2.288945,-2.54778 5.050322,-4.621823 7.726102,-6.732326 2.880528,-2.138306 3.155602,-2.388818 6.069758,-4.374678 0.87813,-0.598404 1.752434,-1.204 2.657536,-1.760767 0.846171,-0.520516 4.677235,-2.871274 6.402854,-3.598983 0.444033,-0.187252 0.919845,-0.287751 1.379767,-0.431626 0.283809,0.05344 0.614992,-0.0055 0.851427,0.160319 0.510727,0.358227 0.0045,1.255464 -0.145896,1.516836 -1.021575,1.775845 -2.750541,3.218999 -4.176385,4.637034 -0.767131,0.663348 -1.517049,1.347142 -2.301394,1.990044 -1.512248,1.23954 -3.934519,3.075231 -5.559076,4.131401 -1.649231,1.07221 -3.33419,2.089053 -5.024072,3.095978 -0.995258,0.59303 -2.003399,1.165706 -3.029829,1.702979 -0.924558,0.48395 -1.880162,0.906118 -2.820242,1.359176 -0.805769,0.311054 -1.594875,0.669293 -2.417305,0.933161 -0.55033,0.176568 -2.220209,0.76165 -2.950864,0.201946 -1.018402,-0.780127 2.033453,-3.321293 2.190959,-3.489028 0.779043,-0.65041 1.545417,-1.316303 2.33713,-1.951231 1.777576,-1.425557 4.275357,-3.284571 6.075175,-4.640632 2.941133,-2.215977 5.879473,-4.4356 8.810357,-6.66513 1.203061,-0.926465 2.551728,-1.974924 3.783605,-2.891349 0.362822,-0.269912 0.706382,-0.570702 1.098159,-0.796541 1.078917,-0.621942 2.155372,-1.263387 3.305171,-1.741757 0.269402,-0.112084 0.112545,1.586661 -0.409018,0.77393 -4.188473,3.282719 -8.535937,6.359168 -12.90372,9.39685 -3.962868,2.618944 -3.434359,2.330263 -8.283213,5.185688 -1.723919,1.015192 -3.658358,2.080802 -5.489915,2.918966 -0.625576,0.286278 -1.250422,0.588875 -1.91242,0.776117 -0.389762,0.110242 -0.80695,0.07144 -1.210425,0.107161 -0.0747,-0.1677 -0.286716,-0.330523 -0.224102,-0.5031 0.201459,-0.555259 2.118264,-2.083827 2.233248,-2.178217 2.605382,-2.138736 5.373126,-4.067991 8.044233,-6.12131 4.585486,-3.441906 9.114762,-6.954289 13.599959,-10.525777 1.08228,-0.624418 2.102558,-1.371408 3.246839,-1.873253 0.130374,-0.05718 0.294387,0.190573 0.27008,0.330844 -0.03124,0.180263 -0.257224,0.260565 -0.393678,0.382429 -1.224298,1.093391 -2.552022,2.063493 -3.829094,3.092262 -5.107901,3.909446 -10.261502,7.773034 -15.698922,11.218113 -0.369228,0.21637 -4.868829,2.96663 -6.399958,3.61659 -0.393148,0.166891 -0.803266,0.365087 -1.230311,0.357913 -0.195208,-0.0033 -0.444489,-0.190787 -0.440533,-0.385982 0.01626,-0.802283 1.730523,-1.097665 1.619956,-1.780742 4.564908,-3.879584 9.34598,-7.495329 14.058306,-11.192184 2.463182,-1.878618 5.160925,-4.113416 7.997052,-5.374477 0.167879,-0.07465 0.404545,0.0518 0.513805,0.19951 0.06598,0.0892 -0.09627,0.199925 -0.144403,0.299888 -2.655504,2.717963 -5.76691,4.952208 -8.692532,7.359999 -4.693402,3.567144 -9.418054,7.15447 -14.707691,9.811664 -0.299514,0.03056 -0.610709,0.179975 -0.898541,0.09168 -0.135909,-0.04169 -0.180786,-0.274543 -0.128389,-0.406694 0.112386,-0.283453 0.36354,-0.491402 0.572516,-0.71345 1.469285,-1.561189 3.191436,-2.866964 4.735479,-4.348257 3.52645,-3.238135 7.033792,-6.503154 10.338887,-9.969526 0.23929,-0.265979 0.480003,-0.530684 0.717868,-0.797939 0.13237,-0.148725 0.211382,-0.367955 0.392807,-0.449967 0.09938,-0.04492 0.197642,0.09226 0.296464,0.138388 0.781239,-0.460753 1.562478,-0.921506 2.343717,-1.382259 0.504198,-0.293287 -2.52189,1.516003 -1.476686,0.938879 -3.299825,2.136998 -6.514795,4.401275 -9.793676,6.570001 -0.500903,0.331653 -2.558935,1.704426 -3.157418,2.064656 -1.201925,0.723446 -2.408998,1.439009 -3.632851,2.124707 -0.354382,0.198553 -0.980318,0.637875 -1.441276,0.278916 -0.09113,-0.07097 -0.0212,-0.230035 -0.0318,-0.345052 0.669267,-0.857912 1.427859,-1.547682 2.231781,-2.283944 1.407741,-1.289263 2.846436,-2.544925 4.343469,-3.730191 1.384213,-1.095243 2.760345,-2.20162 4.198921,-3.225677 0.372008,-0.264815 0.738849,-0.538707 1.129449,-0.775242 1.148634,-0.695578 2.316677,-1.358818 3.485702,-2.019553 0.290147,-0.163991 0.593872,-0.302705 0.890808,-0.454057 1.060099,-0.411007 1.938531,-0.691955 3.066579,-0.381558 0,0 -2.536716,1.73728 -2.536716,1.73728 z"
       inkscape:connector-curvature="0"
       transform="translate(6.6292965,939.95564)" />
    <path
       style="fill:#666666;stroke-width:1.89999998;stroke-miterlimit:4;stroke-dasharray:7.6, 7.6;stroke-dashoffset:0"
       id="path3032"
       d="m 6.1403466,63.75718 c 1.0239447,-0.286124 2.072858,-0.481877 3.1175641,-0.67902 1.6569443,-0.262788 3.3279183,-0.431049 5.0020623,-0.533971 1.710199,-0.09804 3.423641,-0.104885 5.13607,-0.106944 2.002186,0.04552 3.997756,0.217669 5.997686,0.314434 2.546246,0.130467 5.094749,0.110617 7.64135,0.01247 2.776704,-0.193359 5.554865,-0.347675 8.336822,-0.437741 2.658311,-0.100712 5.317109,0.004 7.97501,0.06088 2.847383,0.06023 5.695411,0.07591 8.543318,0.08858 3.105456,0.07265 6.210758,0.143132 9.316855,0.182248 3.065205,0.08691 6.130524,0.161276 9.196721,0.200933 2.981026,0.03073 5.962239,0.03644 8.9434,0.03881 2.876006,-0.01086 5.746535,-0.181157 8.614779,-0.375275 1.739341,-0.116636 3.479706,-0.217176 5.220692,-0.305591 0.191808,-0.05089 0.396949,0.0085 0.590316,-0.02922 0.04274,-0.0083 0.07801,-0.03873 0.117015,-0.05809 -0.871974,0.485783 -1.743948,0.971566 -2.615921,1.45735 0,0 2.890754,-1.117984 2.890754,-1.117984 l 0,0 c -2.409831,1.34807 -1.862346,1.550579 -3.412541,1.525872 -1.689591,0.02267 -3.377995,0.09818 -5.064435,0.202447 -2.8606,0.176095 -5.723287,0.327616 -8.590305,0.334734 -2.983874,-0.0016 -5.967872,0.0015 -8.951558,-0.03745 -3.059885,-0.0457 -6.118612,-0.131986 -9.177682,-0.214128 -3.111119,-0.03662 -6.221414,-0.109847 -9.332158,-0.168032 -2.856938,-0.005 -5.714037,-0.01499 -8.570449,-0.0753 -2.657598,-0.05765 -5.316409,-0.141428 -7.974241,-0.0431 -2.776049,0.08248 -5.54777,0.240837 -8.3187,0.427077 -2.570567,0.09893 -5.142885,0.131339 -7.713668,0.0099 -2.008044,-0.09283 -4.01302,-0.258271 -6.023893,-0.277106 -1.709179,0.01198 -3.419429,0.02205 -5.126252,0.122131 -1.676551,0.118402 -3.3520518,0.286803 -5.0073333,0.584033 -1.0742556,0.214448 -2.156383,0.42734 -3.1933642,0.786518 0,0 2.4320861,-1.889478 2.4320861,-1.889478 z"
       inkscape:connector-curvature="0"
       transform="translate(6.6292965,939.95564)" />
    <path
       style="fill:#666666;stroke-width:1.89999998;stroke-miterlimit:4;stroke-dasharray:7.6, 7.6;stroke-dashoffset:0"
       id="path3034"
       d="m 88.296927,60.259083 c -1.803187,-0.34875 -1.618,0.272105 1.669639,-1.835434 1.399587,0.292559 2.814596,0.486994 4.231354,0.673077 2.177071,0.302337 4.360425,0.574547 6.52517,0.957598 0.48797,0.137988 2.07083,0.319577 2.17419,1.016685 0.0162,0.10962 -0.0267,0.22002 -0.0401,0.33003 -0.0735,0.09971 -0.13384,0.210723 -0.22065,0.299142 -0.10783,0.109842 -0.22704,0.211034 -0.35862,0.290914 -1.00205,0.608337 -2.01903,1.191931 -3.038141,1.771237 -0.598627,0.340286 -1.251006,0.617764 -1.876991,0.902464 -1.176729,0.589435 -2.397379,1.085977 -3.578227,1.665435 -1.147435,0.639038 -0.508079,0.284368 1.90539,-1.086547 0,0 -2.82676,1.103853 -2.82676,1.103853 l 0,0 c 3.015343,-1.769027 1.896727,-1.189631 3.272429,-1.890563 1.177851,-0.543757 2.370123,-1.056094 3.535368,-1.627551 0.227832,-0.107894 0.457112,-0.212781 0.683492,-0.323683 0.2132,-0.104439 0.42427,-0.213166 0.63511,-0.322281 0.19339,-0.100086 0.76358,-0.418466 0.57754,-0.305301 -3.578775,2.176891 -2.521481,1.526593 -1.739184,0.986847 0.08454,-0.05833 0.16789,-0.118378 0.251834,-0.177568 0.046,-0.04091 0.11371,-0.06618 0.13811,-0.122728 0.0577,-0.13369 -0.19418,-0.27967 -0.23639,-0.304183 -0.502552,-0.291876 -1.098187,-0.3901 -1.650498,-0.534488 -2.143186,-0.417351 -4.311613,-0.699676 -6.477489,-0.969942 -1.484571,-0.174471 -2.976905,-0.33301 -4.445012,-0.614911 3.179519,-2.423767 1.39888,-1.764752 3.38145,-1.693404 0,0 -2.493044,1.811302 -2.493044,1.811302 z"
       inkscape:connector-curvature="0"
       transform="translate(6.6292965,939.95564)" />
    <path
       style="fill:#666666;stroke-width:1.89999998;stroke-miterlimit:4;stroke-dasharray:7.6, 7.6;stroke-dashoffset:0"
       id="path3036"
       d="m 95.170198,1010.4254 c 0.16328,-0.7069 0.32267,-1.4148 0.46555,-2.1261 0.24405,-1.2998 0.45352,-0.9453 2.7547,-2.0172 0.10773,-0.05 0.14336,0.1943 0.18179,0.3067 0.0563,0.1647 0.0213,0.6312 0.0169,0.7631 -0.10267,1.3369 -0.29655,2.703 0.0107,4.0296 0.0663,0.2863 0.17686,0.5605 0.26528,0.8407 0.13304,0.2462 0.24052,0.508 0.3991,0.7386 0.66554,0.9676 1.761232,1.4421 2.907912,1.5378 0.31383,0.026 0.62982,-0.01 0.94473,-0.01 1.54722,-0.1157 2.96679,-0.6696 4.29688,-1.4357 0,0 -2.29681,1.852 -2.29681,1.852 l 0,0 c -1.36022,0.7117 -2.8007,1.2159 -4.35022,1.2869 -0.32768,-0.01 -0.65756,0.01 -0.983032,-0.031 -1.22432,-0.1477 -2.35875,-0.7083 -3.05643,-1.7487 -0.16571,-0.2472 -0.27856,-0.5259 -0.41784,-0.7889 -0.0951,-0.2935 -0.21263,-0.5807 -0.28534,-0.8805 -0.32004,-1.3199 -0.17049,-2.6849 -0.12715,-4.0239 -0.003,-0.1364 -0.006,-0.2727 -0.009,-0.4091 -0.001,-0.065 -0.0419,-0.1453 -0.001,-0.1965 0.0262,-0.033 0.0424,0.1192 0.0791,0.099 0.8723,-0.4906 1.69269,-1.0688 2.55353,-1.5793 0.10525,-0.062 -0.45872,0.4678 -0.13821,0.3401 -0.16864,0.6945 -0.33255,1.3907 -0.44342,2.0971 0,0 -2.76803,1.3533 -2.76803,1.3533 z"
       inkscape:connector-curvature="0" />
    <path
       style="fill:#666666;stroke-width:1.89999998;stroke-miterlimit:4;stroke-dasharray:7.6, 7.6;stroke-dashoffset:0"
       id="path3038"
       d="m 100.75492,1009.1876 c -0.08,0.052 -0.324,0.2026 -0.24011,0.1568 2.88707,-1.5765 2.7263,-1.7 1.687,-0.8051 -0.74117,0.6382 -1.43262,1.3326 -2.13579,2.0115 -1.185466,1.0971 -2.397384,2.1849 -3.749004,3.0773 -1.06036,0.7001 -4.094276,2.3098 -4.351211,2.4514 -0.97863,0.391 -2.006427,0.7537 -3.074799,0.7555 -0.17412,3e-4 -0.347235,-0.026 -0.520852,-0.04 0,0 2.441017,-1.7515 2.441017,-1.7515 l 0,0 c 1.193296,0.049 2.327434,-0.2718 3.410836,-0.766 -0.512616,0.3207 -1.043923,0.6133 -1.537846,0.9621 -0.306804,0.2166 0.657905,-0.3635 0.975075,-0.5647 1.3596,-0.8623 2.57404,-1.9345 3.74918,-3.0278 1.762058,-1.7291 3.319964,-3.515 5.808934,-4.3119 0,0 -2.46243,1.852 -2.46243,1.852 z"
       inkscape:connector-curvature="0" />
    <path
       style="fill:#666666;stroke-width:1.89999998;stroke-miterlimit:4;stroke-dasharray:7.6, 7.6;stroke-dashoffset:0"
       id="path3040"
       d="m 59.017501,968.5312 c -0.03552,-0.35809 -0.179665,-0.69286 -0.301025,-1.0286 -0.347293,-0.9547 -0.418667,-0.11218 2.658686,-1.48676 0.04744,-0.0212 -0.01031,0.10344 -0.0136,0.15529 -0.0044,0.07 -0.0064,0.1402 -0.0095,0.21029 -0.05112,0.82476 0.0077,1.64728 0.06091,2.46997 0.079,1.27875 0.08484,2.56042 0.09084,3.84112 0.0086,1.48312 0.07662,2.96785 0.181352,4.44737 0.108752,1.34069 0.280614,2.6755 0.423758,4.0129 0.201829,1.58327 0.323295,3.17502 0.490926,4.76196 0.174893,1.8046 0.396027,3.60406 0.557583,5.40998 0.152968,1.91658 0.175283,3.83979 0.195906,5.7613 0.02037,1.90976 0.02132,3.81838 -0.04955,5.72698 -0.05146,1.9635 -0.245053,3.9189 -0.385081,5.877 -0.175904,2.147 -0.112148,4.3008 -0.06752,6.4513 0.12571,1.9942 0.180735,3.9874 0.165149,5.9851 -0.02628,1.6498 -0.03899,3.2996 -0.04028,4.9495 0.0431,1.1452 0.119507,2.2889 0.180013,3.4333 0.03203,0.3834 0.07771,0.7677 0.178477,1.1396 0,0 -2.711855,1.4557 -2.711855,1.4557 l 0,0 c -0.06912,-0.4033 -0.112311,-0.8105 -0.141856,-1.2186 -0.03225,-1.1571 -0.111374,-2.3119 -0.14167,-3.4689 0.02377,-1.6578 0.05462,-3.3154 0.08394,-4.973 0.0303,-2 -0.0081,-3.9959 -0.129907,-5.9929 -0.04194,-2.155 -0.121792,-4.3139 0.03975,-6.4662 0.132813,-1.954 0.322038,-3.9048 0.379276,-5.8633 0.06817,-1.9047 0.07763,-3.8094 0.05595,-5.71537 -0.01481,-1.9136 -0.04066,-3.82905 -0.191613,-5.73768 -0.157534,-1.80255 -0.390265,-3.59697 -0.569521,-5.3974 -0.174292,-1.5816 -0.306273,-3.16805 -0.522057,-4.74484 -0.152589,-1.34046 -0.324047,-2.67975 -0.425487,-4.02526 -0.104007,-1.48568 -0.161294,-2.9765 -0.185803,-4.46541 -0.01715,-1.2681 -0.03596,-2.5371 -0.126194,-3.80256 -0.06188,-0.82033 -0.138744,-1.63904 -0.130919,-2.46266 -0.0016,-0.0951 -0.0069,-0.37645 -0.0051,-0.37763 2.02791,-1.3121 2.465888,-2.59657 2.809139,-1.37812 0.10635,0.35762 0.250958,0.70501 0.318748,1.07258 0,0 -2.721824,1.44395 -2.721824,1.44395 z"
       inkscape:connector-curvature="0" />
    <path
       style="fill:#666666;stroke-width:1.89999998;stroke-miterlimit:4;stroke-dasharray:7.6, 7.6;stroke-dashoffset:0"
       id="path3042"
       d="m 56.944492,971.83754 c -0.311743,0.40905 -0.610896,0.82783 -0.917058,1.24125 -0.71647,0.98282 -0.590903,0.54611 -2.955679,1.38285 -0.01619,0.006 0.08195,-0.18144 0.246888,-0.50345 0.68926,-1.19412 1.487306,-2.32128 2.284575,-3.44471 0.673273,-0.94952 1.293414,-1.93532 1.999473,-2.86139 0.906508,-0.96713 0.424194,-0.49289 3.030773,-1.80712 0.0788,-0.0397 0.179321,0.009 0.261608,0.0406 0.376,0.14565 0.648583,0.51675 0.90251,0.80574 0.841197,1.09128 1.547581,2.28075 2.289388,3.4406 0.666762,1.02562 1.411366,2.0161 2.347647,2.81069 0.419609,0.28059 0.20547,0.16151 0.639395,0.36263 0,0 -2.536438,1.66468 -2.536438,1.66468 l 0,0 c -0.45401,-0.25558 -0.232575,-0.11051 -0.662062,-0.43862 -0.914332,-0.85177 -1.657828,-1.8669 -2.334265,-2.91365 -0.73596,-1.14328 -1.437915,-2.32094 -2.317581,-3.36132 -0.176336,-0.17729 -0.35597,-0.39305 -0.586346,-0.51063 -0.06727,-0.0343 -0.14394,-0.0544 -0.219439,-0.0564 -0.06632,-0.002 -0.249953,0.0807 -0.193826,0.0453 3.432044,-2.16352 3.059504,-1.90688 2.170248,-1.27235 -0.780071,0.90025 -1.407613,1.91648 -2.099758,2.88314 -0.775268,1.09209 -1.542737,2.1918 -2.206117,3.35664 -0.04469,0.0965 -0.08919,0.19308 -0.134079,0.28949 -0.02664,0.0572 -0.02458,0.14214 -0.08053,0.17135 -3.958728,2.06714 -3.444702,2.10086 -2.67049,1.12865 0.320745,-0.40098 0.643643,-0.80374 0.909405,-1.24406 0,0 2.831754,-1.20983 2.831754,-1.20983 z"
       inkscape:connector-curvature="0" />
    <path
       style="fill:#666666;stroke-width:1.89999998;stroke-miterlimit:4;stroke-dasharray:7.6, 7.6;stroke-dashoffset:0"
       id="path3044"
       d="m 60.255599,34.879931 c -0.190452,-0.43906 -0.472245,-0.836696 -0.648911,-1.280196 0.95529,-0.423165 1.874255,-0.940336 2.865871,-1.269495 0.101972,-0.03385 0.131319,0.170266 0.202084,0.251113 0.09676,0.110547 0.196759,0.218366 0.30018,0.322708 0.42749,0.431301 0.888172,0.804948 1.371511,1.17087 0.842274,0.55194 1.81291,0.94447 2.839721,0.834726 0.169188,-0.01808 0.332982,-0.07021 0.499473,-0.105307 0.142852,-0.07444 0.568532,-0.303046 0.428557,-0.223327 -4.126722,2.350259 -2.245902,1.512554 -1.633556,0.672111 0.149581,-0.205299 0.188683,-0.313892 0.291826,-0.534729 0.502633,-1.38288 -0.331167,-0.574148 2.940634,-1.907401 0.08872,-0.03615 0.124106,0.146083 0.182335,0.222156 0.07456,0.09741 0.143909,0.198717 0.215864,0.298075 0.953024,1.354768 1.904984,2.708452 2.797938,4.103855 0.847843,1.430313 1.645917,2.895964 2.274035,4.437878 0.395339,0.970484 0.52718,1.426443 0.853764,2.41679 0.430495,1.567004 0.909279,3.19825 0.814025,4.844837 -0.01109,0.191754 -0.05191,0.380626 -0.07787,0.570938 -0.06745,0.15051 -0.107538,0.31658 -0.202365,0.451528 -0.09016,0.128305 -0.204661,0.247312 -0.341951,0.32309 -1.011635,0.558377 -2.015129,1.147103 -3.089996,1.571192 -0.199788,0.07883 -0.427845,-0.04952 -0.63637,-0.100953 -0.591693,-0.145954 -0.995185,-0.348453 -1.559474,-0.589896 -1.459165,-0.754606 -3.022132,-1.544027 -4.08263,-2.844929 -0.184775,-0.226662 -0.326527,-0.485231 -0.48979,-0.727847 -0.100477,-0.247939 -0.237286,-0.484097 -0.301431,-0.743818 -0.311104,-1.259658 0.431941,-2.363248 1.345624,-3.152426 0.313879,-0.271108 0.667078,-0.493036 1.000617,-0.739554 0.392744,-0.235729 0.779046,-0.482538 1.178231,-0.707186 1.233436,-0.694137 2.463807,-1.39487 3.719013,-2.048819 1.366873,-0.712126 2.876242,-1.177425 4.327477,-1.679024 0,0 -2.189243,1.705496 -2.189243,1.705496 l 0,0 c -1.090681,0.382591 -1.840103,0.626653 -2.907442,1.077121 -0.475008,0.200477 -0.902937,0.744893 -1.407857,0.640587 -0.423049,-0.08739 1.477121,-0.523534 1.086064,-0.707063 -0.404477,-0.189827 -0.77296,0.448418 -1.159439,0.672627 -1.145051,0.797942 -2.752239,1.854329 -2.420454,3.50568 0.04875,0.242635 0.170043,0.464842 0.255065,0.697263 0.149636,0.230272 0.277717,0.476084 0.448908,0.690817 1.025525,1.28636 2.573969,2.043094 4.02223,2.73682 0.551587,0.206532 0.976353,0.404098 1.559213,0.485841 0.19897,0.0279 0.751318,-0.1236 0.602641,0.01154 -0.61732,0.561112 -1.412825,0.88801 -2.104844,1.353886 -0.123274,0.08299 0.284348,-0.106315 0.396503,-0.203808 0.114221,-0.09929 0.175594,-0.246547 0.263391,-0.36982 0.04281,-0.181158 0.103908,-0.358949 0.128433,-0.543474 0.215573,-1.622005 -0.267771,-3.262507 -0.66211,-4.813648 -0.324539,-1.00538 -0.435259,-1.411709 -0.835575,-2.394897 -0.622019,-1.527697 -1.424098,-2.973335 -2.285034,-4.377474 -0.916793,-1.374856 -1.885804,-2.712072 -2.926629,-3.996296 -0.07423,-0.08496 -0.142427,-0.175592 -0.222678,-0.254887 -0.03921,-0.03874 -0.179923,-0.06721 -0.133722,-0.09727 0.842069,-0.547849 1.742156,-1.000981 2.607118,-1.511921 0.02455,-0.0145 -0.06704,-0.0028 -0.08295,0.02088 -0.07843,0.116646 -0.01769,0.297064 -0.126367,0.402308 -0.09178,0.221384 -0.157337,0.399803 -0.282854,0.609121 -0.820498,1.368295 -2.518165,2.046383 -3.97641,2.549625 -0.174274,0.01884 -0.347583,0.05232 -0.522823,0.05653 -1.070892,0.02577 -2.057304,-0.410887 -2.92697,-1.00123 -0.6208,-0.468537 -1.206446,-0.960774 -1.764977,-1.502192 -0.07592,-0.0736 -0.312774,-0.161023 -0.226474,-0.222123 0.826816,-0.585382 1.765135,-0.994729 2.647702,-1.492094 -0.0412,-0.05596 -0.06464,-0.131097 -0.123596,-0.167866 -0.03663,-0.02284 0.02944,0.08126 0.04755,0.120445 0.112779,0.24403 0.233216,0.492107 0.369204,0.723994 0.04266,0.07275 0.09127,0.141855 0.136908,0.212783 0,0 -2.666923,1.545736 -2.666923,1.545736 z"
       inkscape:connector-curvature="0"
       transform="translate(6.6292965,939.95564)" />
    <path
       style="fill:#1a1a1a;stroke-width:1.89999998;stroke-miterlimit:4;stroke-dasharray:7.6, 7.6;stroke-dashoffset:0"
       id="path3046"
       d="m 25.384634,6.5885894 c -0.181586,-0.5980096 -0.275987,-1.194314 -0.166708,-1.8121456 0.08345,-0.2563473 0.198358,-0.5710976 0.44641,-0.7210152 1.751214,-1.0584008 2.120741,-1.667408 3.631161,-1.7517419 0.827842,0.025778 1.624242,0.3226502 2.136023,1.0026279 0.10702,0.1421914 0.1845,0.3043783 0.27675,0.4565675 0.54497,1.2743703 0.08139,2.5296896 -0.46482,3.7110015 -0.502573,1.0291032 -1.16798,1.9638483 -1.700147,2.9767194 -0.238316,0.547609 -0.433037,0.488792 0.09993,0.58484 1.16537,0.122843 2.341,0.112912 3.511518,0.121182 1.431223,0.0084 2.862439,-0.0026 4.293553,-0.01956 0.437986,0.01683 0.878984,-0.05767 1.312228,0.017 0,0 -2.508496,1.773669 -2.508496,1.773669 l 0,0 c -0.408227,-0.03152 -0.818395,-0.01953 -1.227468,-0.02917 -1.41648,-0.01297 -2.833,-0.01769 -4.249541,-0.01441 -1.21655,-0.0011 -2.445829,0.04619 -3.653696,-0.115762 -0.7348,-0.249717 -0.680913,-0.481407 -0.342079,-1.077233 0.559714,-1.017189 1.230406,-1.9654875 1.771871,-2.9926543 C 29.076916,7.6218273 29.590651,6.4631243 29.11053,5.2715438 29.028194,5.1384192 28.960093,4.9953594 28.863523,4.8721699 28.38173,4.2575674 27.612565,4.0651663 26.865466,4.1123735 c -0.123952,0.02229 -0.250336,0.033798 -0.371856,0.066871 -0.113186,0.030805 -0.428656,0.1864026 -0.329348,0.1239709 0.765494,-0.4812396 1.555429,-0.9224589 2.333143,-1.3836884 -0.198461,0.1184772 -0.27039,0.134169 -0.41003,0.3203634 -0.04909,0.065452 -0.08005,0.1427104 -0.120074,0.2140656 -0.167377,0.5605853 -0.09477,1.104747 0.115055,1.6488799 0,0 -2.697722,1.4857535 -2.697722,1.4857535 z"
       inkscape:connector-curvature="0"
       transform="translate(6.6292965,939.95564)" />
    <path
       style="fill:#1a1a1a;stroke-width:1.89999998;stroke-miterlimit:4;stroke-dasharray:7.6, 7.6;stroke-dashoffset:0"
       id="path3048"
       d="m 44.914543,12.351825 c -0.05446,-0.612961 -0.105176,-1.226258 -0.159745,-1.839214 -0.267754,-1.1089471 -1.990487,0.601813 2.665652,-1.4814929 0.05344,-0.023909 -0.0632,0.1011752 -0.07611,0.1582763 -0.05283,0.2337685 -0.07878,0.8087926 -0.09166,1.0034516 -0.05683,1.869632 -0.237833,3.732019 -0.407761,5.593843 -0.164092,1.517493 -0.212593,3.0398 -0.05618,4.558424 0.04505,0.380544 0.109035,0.758433 0.1922,1.132394 0,0 -2.718115,1.445323 -2.718115,1.445323 l 0,0 c -0.05336,-0.39725 -0.09545,-0.7959 -0.128439,-1.195373 -0.117759,-1.552126 -0.05717,-3.102537 0.117465,-4.649703 0.174677,-1.841067 0.367666,-3.686927 0.336645,-5.538847 4.94e-4,-0.333303 0.0058,-0.66663 0.0017,-0.999907 -0.0011,-0.08894 -0.08491,-0.219902 -0.0093,-0.266675 1.646404,-1.0178913 2.609645,-2.4742804 2.894905,-1.1674285 0.02144,0.6059567 0.05776,1.2132915 0.15911,1.8118335 0,0 -2.720403,1.435095 -2.720403,1.435095 z"
       inkscape:connector-curvature="0"
       transform="translate(6.6292965,939.95564)" />
    <path
       style="fill:#1a1a1a;stroke-width:1.89999998;stroke-miterlimit:4;stroke-dasharray:7.6, 7.6;stroke-dashoffset:0"
       id="path3050"
       d="m 38.44944,19.988702 c -0.159531,-0.202782 -0.448012,-0.29109 -0.599614,-0.499041 -0.636771,-0.873452 1.719563,-1.313657 2.625888,-1.902697 1.6209,-0.0066 3.242029,-0.07245 4.863322,-0.09974 2.94156,-0.0321 5.871914,-0.248152 8.798587,-0.527457 0,0 -2.261835,1.674741 -2.261835,1.674741 l 0,0 c -2.935895,0.25144 -5.874305,0.447835 -8.820878,0.521132 -1.145205,0.03885 -2.288795,0.08144 -3.43222,0.157659 -0.05584,0.0037 -1.103356,0.07609 -1.267224,0.103355 -0.101296,0.01685 -0.196965,0.05818 -0.295447,0.08727 2.757196,-1.848253 1.709956,-2.191666 3.01849,-1.126317 0,0 -2.629069,1.611095 -2.629069,1.611095 z"
       inkscape:connector-curvature="0"
       transform="translate(6.6292965,939.95564)" />
    <path
       style="fill:#1a1a1a;stroke-width:1.89999998;stroke-miterlimit:4;stroke-dasharray:7.6, 7.6;stroke-dashoffset:0"
       id="path3052"
       d="m 81.636794,11.797672 c -0.670869,-1.660983 -0.835434,-0.51638 2.343465,-2.2000089 0.295939,1.3813389 0.430039,2.7727639 0.469852,4.1830799 -0.0067,2.317178 -0.361928,4.611497 -0.496239,6.921305 -0.0057,0.937198 -0.116837,1.929892 0.197918,2.832135 0,0 -2.670279,1.465841 -2.670279,1.465841 l 0,0 c -0.284112,-0.970856 -0.141893,-2.00905 -0.107813,-3.004148 0.162283,-2.299967 0.533686,-4.58701 0.512512,-6.897666 -0.05571,-1.374096 -0.182244,-2.744314 -0.637185,-4.052848 3.163698,-1.942754 2.245929,-2.4224148 3.062318,-0.770537 0,0 -2.674549,1.522847 -2.674549,1.522847 z"
       inkscape:connector-curvature="0"
       transform="translate(6.6292965,939.95564)" />
    <path
       style="fill:#1a1a1a;stroke-width:1.89999998;stroke-miterlimit:4;stroke-dasharray:7.6, 7.6;stroke-dashoffset:0"
       id="path3054"
       d="m 80.094972,18.054868 c 1.581475,-0.452396 3.244493,-0.462129 4.875929,-0.485862 2.088419,0.01446 4.175809,-0.0032 6.261968,-0.104012 0,0 -2.298613,1.685157 -2.298613,1.685157 l 0,0 c -2.089441,0.07843 -4.179455,0.08969 -6.270125,0.10326 -1.67461,0.05551 -3.396245,0.09873 -4.984694,0.692458 0,0 2.415535,-1.891001 2.415535,-1.891001 z"
       inkscape:connector-curvature="0"
       transform="translate(6.6292965,939.95564)" />
  </g>
</svg>
