<?xml version="1.0" encoding="UTF-8" standalone="no"?>
<!-- Created with Inkscape (http://www.inkscape.org/) -->

<svg
   xmlns:dc="http://purl.org/dc/elements/1.1/"
   xmlns:cc="http://creativecommons.org/ns#"
   xmlns:rdf="http://www.w3.org/1999/02/22-rdf-syntax-ns#"
   xmlns:svg="http://www.w3.org/2000/svg"
   xmlns="http://www.w3.org/2000/svg"
   xmlns:sodipodi="http://sodipodi.sourceforge.net/DTD/sodipodi-0.dtd"
   xmlns:inkscape="http://www.inkscape.org/namespaces/inkscape"
   width="320"
   height="135.95142"
   id="svg2"
   version="1.1"
   inkscape:version="0.48.3.1 r9886"
   inkscape:export-filename="integral.png"
   inkscape:export-xdpi="150"
   inkscape:export-ydpi="150"
   sodipodi:docname="integral.svg">
  <defs
     id="defs4" />
  <sodipodi:namedview
     id="base"
     pagecolor="#9fffa7"
     bordercolor="#666666"
     borderopacity="1.0"
     inkscape:pageopacity="0"
     inkscape:pageshadow="2"
     inkscape:zoom="3.43125"
     inkscape:cx="160"
     inkscape:cy="67.975708"
     inkscape:document-units="px"
     inkscape:current-layer="layer1"
     showgrid="false"
     inkscape:window-width="1231"
     inkscape:window-height="776"
     inkscape:window-x="49"
     inkscape:window-y="24"
     inkscape:window-maximized="1"
     fit-margin-top="0"
     fit-margin-left="0"
     fit-margin-right="0"
     fit-margin-bottom="0" />
  <metadata
     id="metadata7">
    <rdf:RDF>
      <cc:Work
         rdf:about="">
        <dc:format>image/svg+xml</dc:format>
        <dc:type
           rdf:resource="http://purl.org/dc/dcmitype/StillImage" />
        <dc:title />
      </cc:Work>
    </rdf:RDF>
  </metadata>
  <g
     inkscape:label="Layer 1"
     inkscape:groupmode="layer"
     id="layer1"
     transform="translate(-6.6292965,-895.95426)">
    <path
       style="fill:#ff0000;fill-opacity:1;stroke:#050101;stroke-width:1.60000000000000009;stroke-miterlimit:4;stroke-opacity:1;stroke-dasharray:none"
       id="path3932"
       d="M 67.677099,8.629097 C 67.363386,8.1172459 66.964642,7.6759432 66.539155,7.2561153 66.307777,7.0015069 66.051987,6.7984993 65.768402,6.6137525 65.613248,6.465946 65.392817,6.4729926 65.20937,6.4012429 65.098809,6.3580002 65.001203,6.2864788 64.892849,6.2379699 64.479459,6.1462113 64.075342,6.0775187 63.668288,5.9582173 63.163937,5.8268281 62.641282,5.8050439 62.123099,5.7870046 61.601488,5.6705349 61.079275,5.5669388 60.546527,5.5211424 c -0.435082,-0.033494 -0.871749,-0.031213 -1.30779,-0.031518 -0.423025,0.019964 -0.854938,-0.050054 -1.266232,0.060049 -0.490514,0.071367 -0.942681,0.2601944 -1.421032,0.3762775 -0.494981,0.0796 -0.978535,0.1422556 -1.464252,0.2606733 -0.589279,0.089843 -1.169638,0.181408 -1.736701,0.370275 C 52.695091,6.730234 52.06843,6.9810069 51.403467,7.1189416 50.818625,7.32497 50.221392,7.5055398 49.650031,7.7470402 49.12206,7.9559033 48.62052,8.2497379 48.133218,8.5440477 46.616791,9.291692 43.767167,10.995937 50.231304,7.2772461 49.700572,7.5952428 49.180122,7.9297738 48.664893,8.2723173 48.148418,8.626696 47.680652,9.04336 47.223414,9.4695598 c -0.462788,0.413544 -0.835147,0.9126242 -1.200455,1.4109342 -0.424037,0.483681 -0.665304,1.071114 -0.904616,1.658532 -0.210343,0.577911 -0.418581,1.153574 -0.540122,1.757339 -0.06426,0.510049 -0.221853,0.999526 -0.307222,1.505851 -0.09934,0.50653 -0.240911,1.002252 -0.316493,1.5134 -0.03555,0.476938 -0.185664,0.932511 -0.264685,1.402755 -0.107545,0.483955 -0.25087,0.9539 -0.319691,1.446381 -0.0234,0.560031 -0.124026,1.108439 -0.227581,1.657851 -0.06527,0.523341 -0.231335,1.024373 -0.32205,1.543214 -0.07292,0.477812 -0.08757,0.960962 -0.09659,1.443322 -0.0069,0.50546 4.13e-4,1.010909 -6e-6,1.516398 0.0076,0.451637 -0.02958,0.904371 0.06484,1.348485 0.127041,0.469766 0.1675,0.953912 0.204615,1.437057 0.03484,0.557041 0.152405,1.104964 0.218885,1.659226 0.02197,0.614995 0.151474,1.214609 0.250871,1.81955 0.181194,0.617057 0.261907,1.25263 0.37834,1.882771 0.183876,0.805603 0.22563,1.630656 0.313794,2.449134 0.138403,0.905614 0.221945,1.817294 0.264921,2.732022 0.0616,0.949707 0.236549,1.884542 0.38863,2.822142 0.186548,0.999483 0.406217,1.993184 0.641786,2.98224 0.22288,0.981968 0.478257,1.957846 0.772162,2.920945 0.278021,0.86256 0.547877,1.729264 0.868756,2.577058 0.256788,0.760634 0.617388,1.477095 0.964028,2.198914 0.286106,0.604735 0.652303,1.151135 1.097346,1.647964 0.429952,0.532841 0.840286,1.083552 1.344763,1.54886 0.575896,0.489634 1.138186,0.994231 1.688677,1.512175 0.550404,0.480739 1.155802,0.886554 1.741076,1.321386 0.625878,0.479169 1.195408,1.025472 1.760905,1.572983 0.59547,0.623556 1.266228,1.165518 1.914978,1.731231 0.654374,0.559813 1.248613,1.184925 1.896157,1.751681 0.677697,0.494977 1.203155,1.151832 1.813734,1.718042 0.564762,0.512683 1.167655,0.986217 1.645976,1.582921 0.468173,0.673054 0.972503,1.316926 1.51305,1.932973 0.548843,0.61018 1.128752,1.191312 1.707536,1.772828 0.631755,0.636237 1.233771,1.297327 1.874807,1.92506 0.69499,0.704583 1.363817,1.436056 2.033179,2.16582 0.756581,0.773698 1.524818,1.535385 2.275602,2.314876 0.798052,0.83033 1.56945,1.684977 2.335017,2.545309 0.761157,0.882138 1.501737,1.777603 2.183323,2.723402 0.674465,0.948763 1.250115,1.958884 1.84644,2.956639 0.65022,0.99827 1.126107,2.084776 1.626378,3.160701 0.477655,1.038605 0.776994,2.141579 1.116266,3.229059 0.295617,1.013196 0.473576,2.057911 0.657942,3.096328 0.143049,0.87713 0.184751,1.765478 0.213625,2.652315 0.0094,0.710538 0.03647,1.423177 -0.01241,2.132536 -0.06536,0.71121 -0.247176,1.40028 -0.466296,2.07744 -0.234943,0.66483 -0.528655,1.30693 -0.855398,1.93111 -0.320437,0.67876 -0.70449,1.3236 -1.071105,1.97768 -0.380985,0.77414 -0.842326,1.50205 -1.287078,2.23966 -0.432556,0.81066 -0.960284,1.56323 -1.47886,2.31979 -0.551374,0.80774 -1.132891,1.59436 -1.715741,2.3795 -0.619298,0.85223 -1.33324,1.63201 -2.041693,2.41023 -0.780845,0.7546 -1.537779,1.5345 -2.330231,2.27716 -0.764263,0.71967 -1.51741,1.45122 -2.277597,2.17543 -0.830139,0.75568 -1.654222,1.51804 -2.510241,2.24451 -0.857554,0.67687 -1.76363,1.29009 -2.685103,1.8759 -2.117896,1.20349 -4.194342,2.63424 -6.529289,3.42132 -0.995996,0.3245 -2.047193,0.35976 -3.084848,0.39058 -1.047912,0.0844 -2.071774,-0.0664 -3.093571,-0.27684 -0.95971,-0.22219 -1.758287,-0.74739 -2.517726,-1.34921 -0.856839,-0.76227 -1.553285,-1.66834 -2.233437,-2.58478 -0.655494,-0.94252 -1.277822,-1.90827 -1.816363,-2.9226 -0.470299,-0.95452 -0.876531,-1.94148 -1.279178,-2.92659 -0.247412,-0.60063 -0.481078,-1.20486 -0.781508,-1.78163 -0.0846,-0.18908 -0.148624,-0.38624 -0.20073,-0.58644 -0.0028,-0.0103 -0.0055,-0.0206 -0.0083,-0.0308 0,0 3.872121,-2.0189 3.872121,-2.0189 l 0,0 c -0.0014,0.004 -0.0027,0.009 -0.0041,0.0132 0.006,0.16745 0.05063,0.33018 0.10986,0.48676 0.262746,0.60523 0.504412,1.21776 0.732215,1.83685 0.398465,0.97205 0.783628,1.95325 1.254585,2.89254 0.525432,0.99725 1.121105,1.95397 1.773307,2.87375 0.655044,0.8889 1.346279,1.75359 2.188834,2.47509 0.728358,0.55143 1.504974,1.0044 2.414375,1.18194 0.997938,0.19637 2.004,0.27968 3.021486,0.20336 1.019733,-0.0511 2.044945,-0.13198 3.00904,-0.49771 1.61673,-0.62938 5.673851,-2.85315 -0.791284,0.73734 0.927751,-0.56653 1.825024,-1.18058 2.702511,-1.82211 0.874413,-0.70134 1.683991,-1.47649 2.52399,-2.21698 0.758427,-0.72503 1.516401,-1.45046 2.269334,-2.17972 0.803261,-0.73007 1.542424,-1.52183 2.350128,-2.24727 0.707407,-0.76413 1.411123,-1.53837 2.048379,-2.36102 0.567755,-0.79213 1.167743,-1.56107 1.720337,-2.36431 0.502606,-0.7578 1.051428,-1.48755 1.486455,-2.28792 0.404129,-0.75074 0.925695,-1.43676 1.270448,-2.22203 0.347675,-0.66489 0.775533,-1.2861 1.077302,-1.97487 0.321851,-0.60896 0.623903,-1.22575 0.881854,-1.86485 0.218681,-0.65216 0.429127,-1.30493 0.503506,-1.99317 0.09937,-0.69047 0.0251,-1.39245 0.04505,-2.088204 -0.01078,-0.871237 -0.03741,-1.744248 -0.166111,-2.607484 -0.162982,-1.024896 -0.344337,-2.052311 -0.618409,-3.053395 -0.327788,-1.072295 -0.624009,-2.156351 -1.08414,-3.182749 -0.486388,-1.066822 -0.960296,-2.137004 -1.604824,-3.122069 -0.583728,-0.990438 -1.164063,-1.98307 -1.827163,-2.923731 -0.675368,-0.933361 -1.407427,-1.817269 -2.162676,-2.686628 -0.757542,-0.860111 -1.532256,-1.705408 -2.330954,-2.527432 -0.751455,-0.783673 -1.527827,-1.542659 -2.285585,-2.320209 -0.665432,-0.724341 -1.33912,-1.442059 -2.028955,-2.142646 -0.640184,-0.63116 -1.255786,-1.284505 -1.889335,-1.921958 -0.584621,-0.588408 -1.169938,-1.176942 -1.721869,-1.796489 -0.54076,-0.621708 -1.044672,-1.271283 -1.522828,-1.942413 -0.482149,-0.571465 -1.08308,-1.022817 -1.624158,-1.536453 -0.587181,-0.581002 -1.124858,-1.212769 -1.790871,-1.71015 -0.645235,-0.568551 -1.24176,-1.190177 -1.89485,-1.750569 -0.654789,-0.570347 -1.330031,-1.118551 -1.933438,-1.744876 -0.555864,-0.532618 -1.117596,-1.062268 -1.738419,-1.519761 -0.601856,-0.43717 -1.209018,-0.867936 -1.761477,-1.368332 -0.555656,-0.515874 -1.128301,-1.01193 -1.69846,-1.511546 -0.496524,-0.489358 -0.934381,-1.030573 -1.368418,-1.57538 -0.468692,-0.530141 -0.843334,-1.120996 -1.150828,-1.759117 -0.341465,-0.736773 -0.714764,-1.461671 -0.970284,-2.234846 -0.322339,-0.857596 -0.596139,-1.733899 -0.868717,-2.608284 -0.297381,-0.971081 -0.558974,-1.954178 -0.784741,-2.944328 -0.23906,-0.998504 -0.451105,-2.003722 -0.660081,-3.008915 -0.151082,-0.952748 -0.335539,-1.899404 -0.417365,-2.862128 -0.03878,-0.90465 -0.102975,-1.808166 -0.248485,-2.702908 -0.111703,-0.802736 -0.126421,-1.61909 -0.320157,-2.410273 -0.13367,-0.630767 -0.189299,-1.277492 -0.395294,-1.893342 -0.09201,-0.612595 -0.246252,-1.215167 -0.256384,-1.837512 -0.06024,-0.561941 -0.18786,-1.112713 -0.245317,-1.67153 -0.0195,-0.462239 -0.05473,-0.925583 -0.174766,-1.3744 -0.11113,-0.476564 -0.124178,-0.945573 -0.103717,-1.434554 -0.0023,-0.507716 0.0011,-1.015365 5.91e-4,-1.523079 0.002,-0.499848 -9.6e-4,-1.002282 0.07181,-1.498058 0.06852,-0.527381 0.214996,-1.030564 0.321429,-1.547859 0.07523,-0.548056 0.248558,-1.079785 0.233182,-1.63865 0.04631,-0.497492 0.119638,-0.991837 0.313955,-1.456452 0.05659,-0.47426 0.181895,-0.928371 0.265987,-1.393669 0.05121,-0.51937 0.165912,-1.023705 0.315935,-1.523651 0.06332,-0.518457 0.203469,-1.012914 0.307384,-1.52126 0.09855,-0.634904 0.293321,-1.233168 0.510039,-1.836069 0.22796,-0.61449 0.452888,-1.2439 0.847503,-1.774431 0.407051,-0.473519 0.716566,-1.032299 1.173282,-1.464611 0.455794,-0.442835 0.921795,-0.875653 1.427876,-1.2612602 0.495784,-0.3653358 1.018545,-0.696802 1.548156,-1.0092493 1.7527,-1.020798 3.474456,-2.0686109 5.269062,-3.004628 0.505694,-0.2741465 1.003077,-0.568086 1.554948,-0.7429629 0.592316,-0.2054578 1.175661,-0.4411133 1.788096,-0.5826027 0.647499,-0.1748448 1.279147,-0.4037393 1.928383,-0.5736558 0.585186,-0.1452003 1.177665,-0.2372628 1.76682,-0.3630129 0.482012,-0.1038861 0.979576,-0.1269831 1.453041,-0.274489 0.477691,-0.145638 0.95902,-0.2736404 1.455965,-0.3369746 0.436781,-0.01908 0.873893,-0.014026 1.311007,-0.011138 0.442864,0.00604 0.886947,0.014589 1.326673,0.072414 0.521275,0.069346 1.03087,0.2054795 1.555398,0.2485924 0.542963,0.033559 1.086368,0.086673 1.60991,0.2437062 0.423403,0.1121059 0.870557,0.1373443 1.271744,0.3265548 0.306232,0.1383509 0.640419,0.2175083 0.91102,0.4295117 0.310497,0.1969679 0.55283,0.4724041 0.806992,0.7356424 0.430961,0.4596012 0.832687,0.9402383 1.199101,1.4532732 0,0 -3.744468,2.1702756 -3.744468,2.1702756 z"
       inkscape:connector-curvature="0"
       transform="translate(6.6292965,895.95426)" />
    <path
       style="fill:#ff0000;fill-opacity:1;stroke:#050101;stroke-width:1.60000000000000009;stroke-miterlimit:4;stroke-opacity:1;stroke-dasharray:none"
       id="path3938"
       d="m 131.76845,38.618736 c -0.69348,-1.040609 -1.6735,-1.755508 -2.76141,-2.335134 -1.20063,-0.540381 -2.52656,-0.617811 -3.7745,-0.170466 -0.27312,0.09791 -0.52762,0.241529 -0.79143,0.362294 0.93592,-0.514684 1.82942,-1.115451 2.80776,-1.544051 0.30323,-0.132843 -0.52117,0.410846 -0.7553,0.644889 -1.14117,1.140715 -1.64103,2.355256 -2.13663,3.854365 -0.54322,2.123592 -0.3347,4.293189 0.43257,6.334482 0.16228,0.431753 0.36589,0.846823 0.54884,1.270235 1.41002,2.662678 3.31698,5.013051 5.01087,7.494864 1.16338,1.795477 2.26536,3.645017 3.09568,5.6218 0.54544,1.298548 0.66566,1.778016 1.09538,3.122595 0.93804,3.194163 1.47825,6.484536 1.85671,9.786311 0.30425,2.411576 0.44117,4.841984 0.80185,7.246289 0.16127,0.928058 0.0797,0.491934 0.24114,1.309061 0,0 -3.74894,1.990261 -3.74894,1.990261 l 0,0 c -0.12097,-0.847091 -0.0578,-0.396234 -0.18853,-1.352706 -0.29661,-2.434097 -0.3972,-4.886336 -0.67907,-7.322244 -0.34941,-3.28163 -0.85819,-6.554567 -1.80307,-9.72386 -0.42515,-1.325547 -0.54334,-1.795162 -1.0817,-3.074894 -0.82239,-1.954936 -1.90938,-3.78678 -3.06445,-5.560282 -1.71967,-2.496514 -3.65357,-4.858625 -5.08366,-7.541791 -0.19073,-0.433944 -0.40187,-0.859478 -0.57219,-1.301832 -0.80756,-2.097411 -1.07896,-4.338154 -0.57957,-6.542753 0.45331,-1.556452 0.91381,-2.797393 2.0068,-4.035962 1.38124,-1.565223 3.15306,-2.132268 5.08028,-3.263572 0.2796,-0.103476 0.55187,-0.229478 0.8388,-0.310427 1.34407,-0.379195 2.72532,-0.201471 3.96937,0.406284 1.1351,0.641893 2.15628,1.412271 2.95959,2.453398 0,0 -3.72519,2.182846 -3.72519,2.182846 z"
       inkscape:connector-curvature="0"
       transform="translate(6.6292965,895.95426)" />
    <path
       style="fill:#ff0000;fill-opacity:1;stroke:#050101;stroke-width:1.60000000000000009;stroke-miterlimit:4;stroke-opacity:1;stroke-dasharray:none"
       id="path3940"
       d="m 117.62957,69.317933 c 3.0116,-2.549525 6.64091,-3.605873 10.32913,-4.598475 2.01712,-0.528886 4.06282,-0.932642 6.10725,-1.337596 0,0 -3.12035,2.36279 -3.12035,2.36279 l 0,0 c -2.05308,0.416619 -4.10783,0.831652 -6.12856,1.389903 -1.62677,0.464608 -3.25146,0.911544 -4.81046,1.57816 -0.34035,0.145532 -1.31464,0.676268 -1.00322,0.476169 0.96887,-0.622539 1.98533,-1.167713 2.98076,-1.746828 0.12017,-0.06991 -0.23656,0.146097 -0.35484,0.219145 0,0 -3.99971,1.656732 -3.99971,1.656732 z"
       inkscape:connector-curvature="0"
       transform="translate(6.6292965,895.95426)" />
    <path
       style="fill:#ff0000;fill-opacity:1;stroke:#050101;stroke-width:1.60000000000000009;stroke-miterlimit:4;stroke-opacity:1;stroke-dasharray:none"
       id="path3942"
       d="m 164.69616,55.380557 c -0.15202,0.04087 -0.30911,0.06613 -0.45605,0.122605 -0.64658,0.248486 -1.80925,0.964111 -1.42839,0.775322 0.88762,-0.439989 1.67841,-1.105723 2.62802,-1.388059 0.43343,-0.128868 -0.68882,0.587426 -1.00903,0.906702 -0.35951,0.358468 -0.68513,0.749395 -1.0277,1.124093 -1.4006,1.76486 -2.64606,3.702436 -3.20664,5.911581 -0.37517,1.478431 -0.29512,1.816501 -0.3219,3.321511 0.1588,2.099301 0.82013,4.096389 2.2103,5.71001 0.87932,1.020663 1.25757,1.184989 2.35242,1.955361 0,0 -3.40298,2.163765 -3.40298,2.163765 l 0,0 c -1.12392,-0.812203 -1.52656,-0.998545 -2.42863,-2.064649 -1.4285,-1.688277 -2.12464,-3.768326 -2.30541,-5.948151 0.006,-1.543693 -0.0784,-1.912285 0.27562,-3.433192 0.52201,-2.242655 1.73346,-4.222721 3.09837,-6.044854 0.36881,-0.431336 1.41421,-1.722741 1.93095,-2.075998 1.43987,-0.984338 2.95566,-1.85296 4.44593,-2.759196 0.65293,-0.397045 1.33991,-0.735892 2.10121,-0.854117 0,0 -3.45609,2.577266 -3.45609,2.577266 z"
       inkscape:connector-curvature="0"
       transform="translate(6.6292965,895.95426)" />
    <path
       style="fill:#ff0000;fill-opacity:1;stroke:#050101;stroke-width:1.60000000000000009;stroke-miterlimit:4;stroke-opacity:1;stroke-dasharray:none"
       id="path3944"
       d="m 186.50976,60.492287 c 1.39352,1.970383 3.30819,3.487676 5.15174,5.012694 2.08123,1.70829 4.21115,3.35681 6.35697,4.982879 0,0 -3.44324,2.169893 -3.44324,2.169893 l 0,0 c -2.10571,-1.67352 -4.21707,-3.339864 -6.31754,-5.019974 -1.9101,-1.545924 -3.84813,-3.085205 -5.45709,-4.955936 0,0 3.70916,-2.189556 3.70916,-2.189556 z"
       inkscape:connector-curvature="0"
       transform="translate(6.6292965,895.95426)" />
    <path
       style="fill:#ff0000;fill-opacity:1;stroke:#050101;stroke-width:1.60000000000000009;stroke-miterlimit:4;stroke-opacity:1;stroke-dasharray:none"
       id="path3946"
       d="m 195.67905,64.779312 c -1.19996,0.620817 -3.40195,1.61013 1.90939,-1.145201 0.33709,-0.174867 -0.63567,0.415853 -0.94665,0.633787 -0.81139,0.568612 -1.47879,1.090117 -2.27127,1.693472 -2.3892,1.934124 -4.65273,4.025417 -6.74778,6.274648 0,0 -3.77999,1.58112 -3.77999,1.58112 l 0,0 c 2.11297,-2.261682 4.39437,-4.361778 6.76308,-6.353022 2.63535,-2.053743 5.35365,-4.093459 8.48804,-5.337763 0,0 -3.41482,2.652959 -3.41482,2.652959 z"
       inkscape:connector-curvature="0"
       transform="translate(6.6292965,895.95426)" />
    <path
       style="fill:#ff0000;fill-opacity:1;stroke:#050101;stroke-width:1.60000000000000009;stroke-miterlimit:4;stroke-opacity:1;stroke-dasharray:none"
       id="path3948"
       d="m 210.10287,53.103119 c 1.4723,1.448046 2.97769,2.856974 4.39386,4.360913 1.84378,2.116145 3.46774,4.465657 4.3207,7.166201 0.17246,0.546005 0.28198,1.109927 0.42296,1.664891 0.46238,2.901838 -0.10869,5.787361 -1.30288,8.447647 -0.22994,0.512231 -0.50244,1.004274 -0.75365,1.506411 -1.03239,1.815422 -0.49888,0.935307 -1.59645,2.642813 0,0 -3.70843,1.625699 -3.70843,1.625699 l 0,0 c 1.13271,-1.689979 0.58187,-0.818081 1.64843,-2.618274 0.61587,-1.177518 0.98359,-1.78368 1.43645,-3.041991 0.76954,-2.138194 1.08841,-4.400111 0.75137,-6.655901 -0.1333,-0.541503 -0.23489,-1.091813 -0.3999,-1.62451 -0.82282,-2.656221 -2.42874,-4.960084 -4.27731,-7.002827 -1.4615,-1.488562 -3.00853,-2.88622 -4.61742,-4.214574 0,0 3.68227,-2.256498 3.68227,-2.256498 z"
       inkscape:connector-curvature="0"
       transform="translate(6.6292965,895.95426)" />
    <path
       style="fill:#ff0000;fill-opacity:1;stroke:#050101;stroke-width:1.60000000000000009;stroke-miterlimit:4;stroke-opacity:1;stroke-dasharray:none"
       id="path3950"
       d="m 252.54589,65.556632 c -0.35516,1.844872 0.77955,0.524285 -3.85051,2.214886 -0.12707,0.0464 0.14267,-0.230908 0.19725,-0.354691 0.0738,-0.167305 0.1244,-0.343885 0.18661,-0.515828 0.34891,-1.269032 0.43323,-2.655951 -0.0368,-3.909818 -0.10292,-0.274589 -0.25261,-0.529297 -0.37892,-0.793945 -0.82295,-1.30118 -2.1246,-2.097204 -3.69685,-1.989428 -0.33172,0.02274 -0.65524,0.113566 -0.98286,0.170349 0.47269,-0.501379 -2.63599,1.238968 -1.98508,0.912387 0.86336,-0.433178 1.64334,-1.060955 2.56629,-1.345926 0.37825,-0.11679 -0.59305,0.526727 -0.85996,0.819074 -0.76649,0.839507 -0.76354,0.978596 -1.29728,1.968241 -0.12244,0.369202 -0.28344,0.727782 -0.36731,1.107608 -0.32229,1.45952 -0.0654,3.062351 0.69614,4.345948 0.1897,0.319757 0.43594,0.602397 0.6539,0.903596 1.32518,1.361544 3.14393,2.103711 5.05647,1.770718 0.39358,-0.06853 0.76913,-0.216424 1.15369,-0.324636 0.37308,-0.208681 1.50981,-0.799775 1.11924,-0.626042 -0.81017,0.36037 -1.49628,1.121494 -2.38055,1.187085 -0.50174,0.03722 0.72974,-0.696847 1.04605,-1.088099 1.15406,-1.42748 1.69181,-2.89104 2.30171,-4.589801 0.7769,-2.582624 1.1279,-5.284169 1.17232,-7.97792 0.0279,-1.691676 -0.0628,-2.49799 -0.17782,-4.179088 -0.26008,-3.112657 -0.8029,-6.185826 -1.69216,-9.178485 -0.0881,-0.222747 -0.29103,-0.844965 -0.50322,-1.075363 -0.0331,-0.03588 -0.18789,0.0011 -0.14472,-0.02165 1.21313,-0.638635 2.40412,-1.334468 3.67892,-1.838868 0.14766,-0.05842 -0.1345,0.291443 -0.16289,0.447685 -0.0515,0.283729 -0.05,0.574575 -0.075,0.861863 -0.0443,3.598644 0.51153,7.16695 1.00213,10.721605 0.45245,2.959604 0.92994,5.927262 1.71397,8.820959 0.45691,1.68632 0.68903,2.263131 1.25507,3.886912 0.51041,1.565949 1.37097,2.92936 2.29446,4.272009 0,0 -3.4983,2.050728 -3.4983,2.050728 l 0,0 c -0.90865,-1.394843 -1.75642,-2.809835 -2.25143,-4.416751 -0.53533,-1.607144 -0.7865,-2.281585 -1.22777,-3.942145 -0.77277,-2.908006 -1.25906,-5.883316 -1.73898,-8.850205 -0.52207,-3.53919 -1.08524,-7.079529 -1.28343,-10.655709 -0.006,-0.294497 -0.0191,-0.588934 -0.0181,-0.883492 6.6e-4,-0.198238 -0.13891,-0.479994 0.0231,-0.594269 3.62112,-2.55452 3.75285,-3.373005 4.58394,-0.765512 0.75978,3.073197 1.26965,6.198406 1.52827,9.355428 0.11265,1.635109 0.2092,2.576445 0.19421,4.221198 -0.0247,2.712935 -0.34403,5.435897 -1.06815,8.052915 -0.57022,1.722198 -1.08358,3.228947 -2.17424,4.712552 -1.65332,2.248992 -4.30505,3.43009 -6.78167,4.588278 -0.40461,0.08764 -0.80244,0.216547 -1.21383,0.262918 -1.57159,0.177146 -3.2017,-0.322498 -4.44028,-1.296805 -0.30606,-0.24076 -0.56113,-0.540078 -0.8417,-0.810116 -0.23094,-0.322208 -0.49104,-0.625398 -0.69283,-0.966625 -0.80669,-1.364168 -1.11132,-3.061513 -0.82785,-4.62356 0.0726,-0.400115 0.22645,-0.781137 0.33968,-1.171705 0.17654,-0.368264 0.32039,-0.754076 0.52964,-1.104792 1.38371,-2.319189 3.69059,-3.231049 6.02764,-4.613048 0.33211,-0.196385 0.68079,-0.367428 1.04034,-0.507374 0.34072,-0.132619 0.70195,-0.20492 1.05292,-0.307381 0.34874,-0.03548 0.69568,-0.10729 1.04621,-0.106427 1.69305,0.0042 3.06352,0.953954 3.93927,2.350475 0.1386,0.284682 0.30067,0.559091 0.41581,0.854045 0.50753,1.300152 0.49214,2.745976 0.21328,4.093503 -0.0365,0.143086 -0.22527,0.924699 -0.27137,0.951924 -2.84685,1.681355 -4.36805,3.533665 -3.9931,1.420688 0,0 3.88646,-1.900069 3.88646,-1.900069 z"
       inkscape:connector-curvature="0"
       transform="translate(6.6292965,895.95426)" />
    <path
       style="fill:#ff0000;fill-opacity:1;stroke:#050101;stroke-width:1.60000000000000009;stroke-miterlimit:4;stroke-opacity:1;stroke-dasharray:none"
       id="path3952"
       d="m 284.86759,60.335271 c 0.0203,-0.108544 0.0426,-0.216735 0.0609,-0.325634 0.0429,-0.255428 0.067,-0.407519 0.0712,-0.664712 7.2e-4,-0.04389 -0.007,-0.410073 -0.0341,-0.48945 -0.009,-0.0266 -0.0103,0.05532 -0.0154,0.08297 6.00521,-3.008733 3.98896,-2.532365 2.90477,-0.987334 -0.72576,1.034256 -1.36342,2.140074 -2.03192,3.211037 -1.85135,3.025598 -3.84625,5.956641 -5.87896,8.862075 -0.8848,1.188091 -1.6525,2.502104 -2.80012,3.463142 0,0 -3.98361,1.565585 -3.98361,1.565585 l 0,0 c 1.36313,-0.772771 2.13644,-2.242251 3.09265,-3.4265 2.06339,-2.869164 4.06798,-5.78107 5.86574,-8.826265 0.62913,-1.050657 1.23494,-2.115434 1.86493,-3.165352 0.11773,-0.196205 0.24503,-0.386512 0.3657,-0.580927 0.0793,-0.127792 0.10342,-0.31139 0.23421,-0.385666 1.3137,-0.746094 2.69665,-1.36308 4.04497,-2.044619 0.057,0.07654 0.13465,0.141402 0.1711,0.229621 0.13291,0.321726 -0.0175,1.222081 -0.0456,1.581958 0,0 -3.88646,1.900069 -3.88646,1.900069 z"
       inkscape:connector-curvature="0"
       transform="translate(6.6292965,895.95426)" />
    <path
       style="fill:#ff0000;fill-opacity:1;stroke:#050101;stroke-width:1.60000000000000009;stroke-miterlimit:4;stroke-opacity:1;stroke-dasharray:none"
       id="path3954"
       d="m 273.96459,55.814108 c 1.73445,2.300548 3.75398,4.370861 5.73569,6.4562 2.83941,3.012373 5.89814,5.804071 8.98479,8.558231 1.94029,1.774294 4.00387,3.398779 6.1322,4.939059 0.21518,0.156682 0.43036,0.313365 0.64554,0.470048 0,0 -3.55151,2.244769 -3.55151,2.244769 l 0,0 c -0.20654,-0.161636 -0.41308,-0.323271 -0.61962,-0.484906 -2.06768,-1.607022 -4.08114,-3.278248 -5.99071,-5.07253 -3.04236,-2.80722 -6.07156,-5.631324 -8.94687,-8.611475 -2.0459,-2.072784 -4.09778,-4.140808 -6.07522,-6.279529 0,0 3.68571,-2.219867 3.68571,-2.219867 z"
       inkscape:connector-curvature="0"
       transform="translate(6.6292965,895.95426)" />
  </g>
</svg>
