<?xml version="1.0" encoding="UTF-8" standalone="no"?>
<!-- Created with Inkscape (http://www.inkscape.org/) -->

<svg
   xmlns:dc="http://purl.org/dc/elements/1.1/"
   xmlns:cc="http://creativecommons.org/ns#"
   xmlns:rdf="http://www.w3.org/1999/02/22-rdf-syntax-ns#"
   xmlns:svg="http://www.w3.org/2000/svg"
   xmlns="http://www.w3.org/2000/svg"
   xmlns:sodipodi="http://sodipodi.sourceforge.net/DTD/sodipodi-0.dtd"
   xmlns:inkscape="http://www.inkscape.org/namespaces/inkscape"
   width="320"
   height="135.95142"
   id="svg2"
   version="1.1"
   inkscape:version="0.48.4 r9939"
   inkscape:export-filename="integral.png"
   inkscape:export-xdpi="150"
   inkscape:export-ydpi="150"
   sodipodi:docname="integral.svg">
  <defs
     id="defs4" />
  <sodipodi:namedview
     id="base"
     pagecolor="#9fffa7"
     bordercolor="#666666"
     borderopacity="1.0"
     inkscape:pageopacity="0"
     inkscape:pageshadow="2"
     inkscape:zoom="3.35"
     inkscape:cx="160"
     inkscape:cy="67.975708"
     inkscape:document-units="px"
     inkscape:current-layer="layer1"
     showgrid="false"
     inkscape:window-width="1237"
     inkscape:window-height="1003"
     inkscape:window-x="43"
     inkscape:window-y="21"
     inkscape:window-maximized="1"
     fit-margin-top="0"
     fit-margin-left="0"
     fit-margin-right="0"
     fit-margin-bottom="0" />
  <metadata
     id="metadata7">
    <rdf:RDF>
      <cc:Work
         rdf:about="">
        <dc:format>image/svg+xml</dc:format>
        <dc:type
           rdf:resource="http://purl.org/dc/dcmitype/StillImage" />
        <dc:title />
      </cc:Work>
    </rdf:RDF>
  </metadata>
  <g
     inkscape:label="Layer 1"
     inkscape:groupmode="layer"
     id="layer1"
     transform="translate(-6.6292965,-895.95426)">
    <path
       style="fill:#d40000;stroke-width:1.8;stroke-miterlimit:4;stroke-dasharray:none;stroke-dashoffset:0;stroke:#2d3028;stroke-opacity:1"
       id="path3050"
       d="m 27.116977,911.0205 c 0.209378,-1.23976 0.09329,-2.50334 -0.475623,-3.65318 -0.591874,-0.98962 -0.992653,-1.05488 -2.012673,-0.48414 -2.634266,1.73261 0.223565,-0.17286 6.299693,-3.12574 0.204906,-0.0996 -0.367376,0.25767 -0.531941,0.40472 -0.590724,0.52782 -0.968225,1.15343 -1.354961,1.80353 -1.115896,1.9087 -1.701383,3.98324 -2.090986,6.09035 -0.71493,3.65626 -0.870188,7.35691 -0.841571,11.05868 0.06354,4.57795 0.934735,9.08344 2.127463,13.52315 1.20013,4.17584 2.74145,8.27651 4.436156,12.31419 1.737701,4.1827 3.4199,8.38251 5.201782,12.55093 1.722129,4.21278 3.397133,8.44422 4.947289,12.70978 1.61712,4.36765 2.687248,8.86313 3.638426,13.37439 0.967144,4.82575 1.325118,9.71796 1.171197,14.61154 -0.153515,4.2902 -1.219944,8.4444 -2.646751,12.5234 -0.942427,2.6598 -2.124665,5.2853 -4.352818,7.3001 -4.621894,2.4426 -7.968204,6.2428 -12.525391,3.0363 -0.424715,-0.2987 -0.801668,-0.6474 -1.202504,-0.971 -3.02361,-3.003 -4.785492,-6.7603 -6.59344,-10.4006 -1.362888,-2.6326 -2.380803,-5.3724 -3.115847,-8.1896 0,0 7.400236,-3.514 7.400236,-3.514 l 0,0 c 0.595397,2.8071 1.516312,5.5387 2.849377,8.1463 1.745332,3.546 3.501431,7.2019 6.570079,10.0299 0.998096,0.7098 1.939849,1.4504 3.262236,1.6111 2.734853,0.3321 8.486963,-4.0536 -4.491957,3.0883 0.295669,-0.2062 0.616914,-0.3864 0.887006,-0.6185 1.984218,-1.7051 2.897239,-4.1733 3.843627,-6.3988 1.487778,-4.0312 2.67331,-8.1278 2.85942,-12.3931 0.211775,-4.8467 -0.131829,-9.69233 -1.087602,-14.47366 -0.937931,-4.48062 -2.052367,-8.92886 -3.644848,-13.26823 -1.526119,-4.2611 -3.167278,-8.49097 -4.898401,-12.6898 -1.785405,-4.16655 -3.493986,-8.35785 -5.23172,-12.53995 -1.724536,-4.06215 -3.261873,-8.19699 -4.454008,-12.40806 -1.205427,-4.48407 -2.110665,-9.02934 -2.243693,-13.65078 -0.06897,-3.70144 -0.01558,-7.40639 0.599314,-11.07723 0.296568,-2.15334 0.815503,-4.27923 1.865559,-6.25394 2.025393,-4.00447 4.348246,-4.81406 10.135126,-6.89582 1.300745,-0.17936 2.166933,0.40203 2.702279,1.44571 0.640426,1.27327 0.765121,2.63948 0.754613,4.02429 0,0 -7.754143,3.35947 -7.754143,3.35947 z"
       inkscape:connector-curvature="0" />
    <path
       style="fill:#d40000;stroke:#2d3028;stroke-width:1.79999995;stroke-miterlimit:4;stroke-opacity:1;stroke-dasharray:none;stroke-dashoffset:0"
       id="path3052"
       d="m 109.78926,933.13777 c -0.0533,1.10564 -0.0296,2.21286 -0.004,3.31889 0.0919,2.98492 1.91306,0.29518 -7.70095,3.74117 -0.16883,0.0605 0.0175,-0.32241 0.025,-0.48368 0.0121,-0.26353 0.0224,-0.52714 0.0335,-0.7907 0.12416,-2.3527 0.10769,-4.68291 -0.41594,-6.99627 -0.63848,-1.82171 -1.19295,-2.68197 -3.441081,-2.30258 -3.43747,1.79555 3.332081,-1.74969 5.617801,-2.71351 0.37966,-0.16009 -0.61984,0.50741 -0.88445,0.79697 -0.31051,0.33979 -0.58764,0.70485 -0.8341,1.08364 -0.70972,1.09079 -0.99254,1.87479 -1.51427,3.05881 -1.833361,4.71115 -1.508931,9.68003 -0.886111,14.54588 1.051411,6.02501 3.014331,11.88324 4.782251,17.76398 1.58127,5.14833 2.90833,10.34589 3.77471,15.62616 0.44331,2.84864 0.67693,5.71721 0.83819,8.58765 0.0221,0.56818 -0.0626,1.11652 -0.20859,1.66588 0,0 -7.83191,3.20183 -7.83191,3.20183 l 0,0 c 0.33237,-0.43913 0.40576,-0.89842 0.45643,-1.42766 0.0402,-2.89298 -0.10541,-5.78737 -0.46212,-8.66402 -0.74775,-5.28294 -2.037161,-10.47221 -3.586861,-15.61551 -1.73859,-5.91886 -3.69678,-11.80336 -4.851,-17.84144 -0.71363,-4.90681 -1.16311,-9.92933 0.46616,-14.74298 0.42555,-1.08794 0.78478,-2.11234 1.34404,-3.1521 1.93733,-3.60191 6.328291,-5.73505 10.656531,-6.66402 2.5682,0.0853 3.30919,1.19343 4.0011,3.26631 0.54794,2.34341 0.5905,4.70328 0.58118,7.09046 0.0111,0.25349 0.0213,0.50701 0.0335,0.76046 0.008,0.15374 0.17293,0.38054 0.025,0.46111 -9.7604,5.31577 -7.78433,6.21205 -7.70094,3.21323 0.0247,-1.1047 0.0497,-2.21067 -0.004,-3.31496 0,0 7.69161,-3.473 7.69161,-3.473 z"
       inkscape:connector-curvature="0" />
    <path
       style="fill:#d40000;stroke:#2d3028;stroke-width:1.79999995;stroke-miterlimit:4;stroke-opacity:1;stroke-dasharray:none;stroke-dashoffset:0"
       id="path3054"
       d="m 86.025935,973.28242 c 1.385731,-1.16618 2.988644,-2.11966 4.641694,-2.96215 8.95529,-4.56418 5.91405,-3.29003 10.887271,-5.26476 2.78971,-1.04201 5.66113,-1.878 8.57145,-2.60643 0,0 -6.52445,4.45489 -6.52445,4.45489 l 0,0 c -2.88834,0.75902 -5.747181,1.6067 -8.501181,2.69828 -3.74939,1.58586 -2.82884,1.25972 3.32669,-1.94052 0.51974,-0.27021 -1.03829,0.54243 -1.54956,0.82504 -0.68709,0.37979 -1.58733,0.90184 -2.23826,1.35961 -0.22815,0.16044 -0.43559,0.34272 -0.6534,0.51408 0,0 -7.960254,2.92196 -7.960254,2.92196 z"
       inkscape:connector-curvature="0" />
    <path
       style="fill:#d40000;stroke:#2d3028;stroke-width:1.79999995;stroke-miterlimit:4;stroke-opacity:1;stroke-dasharray:none;stroke-dashoffset:0"
       id="path3056"
       d="m 132.94514,953.46625 c 2.19922,-1.09586 4.3472,-2.27667 6.59763,-3.28758 0.42789,-0.19221 -0.76411,0.51834 -1.10291,0.8193 -0.45921,0.40795 -0.8857,0.8459 -1.28418,1.30124 -1.65147,1.88714 -2.77272,3.94868 -3.89141,6.10593 -1.59628,3.45864 -2.71524,7.09377 -2.85162,10.8463 -0.0883,2.43053 0.12534,3.2814 0.44162,5.68504 0.84169,4.34949 2.80451,8.43503 5.76478,11.98313 0.48886,0.58593 1.03578,1.13201 1.55367,1.69802 1.58799,1.76194 3.53473,3.15452 5.698,4.31103 0,0 -7.04613,4.0157 -7.04613,4.0157 l 0,0 c -2.15106,-1.28249 -4.08871,-2.77554 -5.67232,-4.61338 -1.35544,-1.55894 -1.89907,-2.09569 -3.06874,-3.8212 -2.14437,-3.16338 -3.58928,-6.64416 -4.3227,-10.2751 -0.34468,-2.46912 -0.56193,-3.31134 -0.51044,-5.81091 0.0784,-3.80496 1.12749,-7.49522 2.66024,-11.03278 1.03945,-2.17136 2.09817,-4.25361 3.60763,-6.20816 0.0447,-0.0578 1.76919,-2.11686 2.07246,-2.28594 2.65177,-1.4784 5.44501,-2.74748 8.16748,-4.12122 0,0 -6.81306,4.69058 -6.81306,4.69058 z"
       inkscape:connector-curvature="0" />
    <path
       style="fill:#d40000;stroke:#2d3028;stroke-width:1.79999995;stroke-miterlimit:4;stroke-opacity:1;stroke-dasharray:none;stroke-dashoffset:0"
       id="path3058"
       d="m 151.76397,962.27269 c 1.53038,2.41788 3.76537,4.35548 5.96889,6.28599 3.08153,2.60109 6.4747,4.9196 10.12196,6.86238 0.45742,0.23151 0.91482,0.463 1.37224,0.6945 0,0 -7.03115,4.03617 -7.03115,4.03617 l 0,0 c -0.44757,-0.24392 -0.89514,-0.48785 -1.34271,-0.73177 -3.60614,-2.07095 -7.00719,-4.42676 -10.13326,-7.04137 -2.30456,-1.95762 -4.60182,-3.93141 -6.42688,-6.26865 0,0 7.47091,-3.83725 7.47091,-3.83725 z"
       inkscape:connector-curvature="0" />
    <path
       style="fill:#d40000;stroke:#2d3028;stroke-width:1.79999995;stroke-miterlimit:4;stroke-opacity:1;stroke-dasharray:none;stroke-dashoffset:0"
       id="path3060"
       d="m 169.85726,965.94201 c -4.0182,2.90755 -7.52276,6.331 -11.07247,9.67098 -3.24111,3.19558 -6.42549,6.44168 -9.31201,9.89647 -0.43513,0.65799 -0.32179,0.37226 -0.46152,0.81136 0,0 -7.71553,3.4228 -7.71553,3.4228 l 0,0 c -0.0116,-0.82822 -0.10498,-0.39002 0.42883,-1.28281 3.09341,-3.47969 6.39035,-6.80797 9.70469,-10.12291 3.41992,-3.25264 6.80081,-6.5468 10.46338,-9.58899 0,0 7.96463,-2.8069 7.96463,-2.8069 z"
       inkscape:connector-curvature="0" />
    <path
       style="fill:#d40000;stroke:#2d3028;stroke-width:1.79999995;stroke-miterlimit:4;stroke-opacity:1;stroke-dasharray:none;stroke-dashoffset:0"
       id="path3062"
       d="m 175.09231,952.98269 c 3.46149,0.62023 6.26578,2.33842 8.93903,4.29479 3.32933,2.67061 5.45066,6.12872 6.23853,10.04585 0.17204,0.85582 0.22914,1.72673 0.34373,2.59008 0.39785,5.70285 -1.00904,11.30701 -2.70066,16.7679 -1.34433,3.97586 -3.18336,7.80651 -5.16407,11.56231 -0.31613,0.59354 -0.64409,1.18194 -0.98137,1.76638 0,0 -7.90336,3.0621 -7.90336,3.0621 l 0,0 c 0.50903,-0.5301 0.84464,-1.1496 1.22656,-1.7564 2.21197,-3.71729 4.15156,-7.57697 5.58992,-11.58513 1.71111,-5.36624 3.12912,-10.87099 2.76891,-16.48934 -0.1079,-0.83383 -0.16093,-1.67467 -0.32359,-2.50152 -0.74152,-3.77067 -2.79176,-7.07659 -6.0517,-9.59181 -2.79058,-1.93409 -5.42593,-3.42368 -9.02367,-3.76533 0,0 7.04174,-4.39988 7.04174,-4.39988 z"
       inkscape:connector-curvature="0" />
    <path
       style="fill:#d40000;stroke-width:1.8;stroke-miterlimit:4;stroke-dasharray:none;stroke-dashoffset:0;stroke:#2d3028;stroke-opacity:1"
       id="path3064"
       d="m 243.1037,978.05409 c 0.0727,0.052 0.54618,0.43321 0.70946,0.39675 0.11496,-0.0257 0.29391,-0.31552 0.1888,-0.26695 -2.39199,1.10567 -4.68614,2.37404 -7.09106,3.45743 -0.19016,0.0856 0.30485,-0.27354 0.39938,-0.44293 0.12841,-0.23005 0.17205,-0.49009 0.25813,-0.73515 0.49477,-2.33803 -0.25206,-4.56144 -1.53932,-6.58846 -1.08599,-1.38807 -2.73559,-2.7375 -4.81581,-2.28584 -0.38118,0.0828 -0.72342,0.26989 -1.08509,0.40485 2.03932,-1.0038 4.01756,-2.11196 6.11799,-3.0114 0.45307,-0.194 -0.79566,0.55208 -1.138,0.87887 -1.79187,1.71042 -2.61092,3.89259 -3.26611,6.09434 -0.50945,2.8772 -0.48287,6.12168 1.38382,8.65932 0.29345,0.39892 0.68925,0.73071 1.03386,1.09606 1.10561,0.83804 2.3907,1.48242 3.91226,1.28528 0.47617,-0.0617 1.77848,-0.63072 1.36859,-0.40728 -7.73825,4.21829 -6.90489,3.73268 -4.25654,1.59656 3.13568,-3.42411 4.51379,-7.7526 5.07185,-12.07569 0.14087,-1.09102 0.18315,-2.19027 0.27459,-3.2854 0.35955,-7.03908 -1.07566,-13.98716 -3.01316,-20.77909 -1.22325,-3.084 -2.00379,-7.38709 -4.73691,-9.77296 -2.96618,0.37461 -2.76242,0.38748 6.84229,-3.2586 0.24664,-0.0937 -0.24113,0.43351 -0.28003,0.66878 -0.0614,0.37149 -0.04,0.75138 -0.0175,1.12627 0.0793,1.28024 0.30312,2.13654 0.56147,3.4264 1.43148,5.60896 3.98601,10.90777 6.54782,16.16715 2.56994,5.4167 5.83609,10.51216 9.59636,15.34044 0.52407,0.61759 1.04811,1.2352 1.57218,1.85279 0,0 -7.00975,3.67848 -7.00975,3.67848 l 0,0 c -0.51391,-0.63338 -1.02782,-1.26677 -1.54173,-1.90016 -3.70161,-4.9132 -6.90926,-10.09065 -9.52545,-15.53038 -2.58796,-5.28676 -5.21567,-10.58143 -6.90785,-16.16219 -0.39672,-1.53841 -0.85028,-3.09968 -0.93385,-4.68564 -0.18101,-3.43493 5.31102,-6.81616 8.39235,-4.6293 2.57669,2.94939 3.19486,6.87033 4.41201,10.34189 1.83067,6.8753 3.31946,13.87778 3.10603,20.97554 -0.0651,1.10492 -0.0818,2.21294 -0.19543,3.31478 -0.4503,4.36543 -1.71185,8.7402 -4.56478,12.37358 -3.37726,3.36261 -1.70451,1.9858 -10.06958,5.72861 -0.80202,0.35884 -2.26347,0.20177 -3.06183,-0.0271 -1.30119,-0.37302 -1.669,-0.79851 -2.71114,-1.56404 -0.3654,-0.41603 -0.78288,-0.79993 -1.09623,-1.24808 -1.89029,-2.70358 -2.029,-6.0829 -1.59996,-9.13986 0.45799,-1.82093 0.98589,-3.47409 2.02186,-5.11491 0.30287,-0.47966 1.36489,-1.99405 1.96846,-2.33153 2.73689,-1.5304 5.62189,-2.84215 8.43284,-4.26323 0.41595,-0.0746 0.82414,-0.20272 1.24784,-0.22355 2.32662,-0.11437 4.04449,1.3955 5.25355,2.96747 1.35185,2.15879 2.22584,4.51607 1.9133,7.01672 -0.008,0.0642 -0.13152,1.44605 -0.34855,1.57359 -4.61143,2.70906 -6.01727,5.65729 -9.1472,3.30727 0,0 7.36489,-3.99951 7.36489,-3.99951 z"
       inkscape:connector-curvature="0" />
    <path
       style="fill:#d40000;stroke-width:1.8;stroke-miterlimit:4;stroke-dasharray:none;stroke-dashoffset:0;stroke:#2d3028;stroke-opacity:1"
       id="path3066"
       d="m 276.28938,964.8467 c 1.73918,2.69562 3.95829,5.10512 6.25189,7.43907 3.10249,2.94166 6.43462,5.69695 10.04732,8.13971 1.84302,1.29796 3.90841,2.15787 6.16579,2.68751 0,0 -6.92786,4.19193 -6.92786,4.19193 l 0,0 c -2.26653,-0.67526 -4.36879,-1.61695 -6.22668,-2.97645 -3.60228,-2.51833 -6.94564,-5.31806 -10.0899,-8.27844 -2.35922,-2.34785 -4.58878,-4.78522 -6.65258,-7.34406 0,0 7.43202,-3.85927 7.43202,-3.85927 z"
       inkscape:connector-curvature="0" />
    <path
       style="fill:#d40000;stroke-width:1.8;stroke-miterlimit:4;stroke-dasharray:none;stroke-dashoffset:0;stroke:#2d3028;stroke-opacity:1"
       id="path3068"
       d="m 309.10221,961.10617 c -3.46163,2.23895 -6.50509,4.92411 -9.54688,7.58494 -5.23276,4.69074 -9.6826,9.99516 -13.71289,15.52351 -2.76927,3.79212 -5.08992,7.82224 -7.0714,11.97932 -0.19581,0.41426 -0.39163,0.82853 -0.58745,1.2428 0,0 -7.62135,3.09826 -7.62135,3.09826 l 0,0 c 0.21567,-0.4215 0.43134,-0.84295 0.64702,-1.26443 2.11026,-4.22806 4.49958,-8.35212 7.35979,-12.2247 4.03362,-5.53423 8.44861,-10.86503 13.59071,-15.63986 2.8693,-2.57973 5.70703,-5.22001 8.9367,-7.45277 0,0 8.00575,-2.84707 8.00575,-2.84707 z"
       inkscape:connector-curvature="0" />
  </g>
</svg>
