<?xml version="1.0" encoding="UTF-8" standalone="no"?>
<!-- Created with Inkscape (http://www.inkscape.org/) -->

<svg
   xmlns:dc="http://purl.org/dc/elements/1.1/"
   xmlns:cc="http://creativecommons.org/ns#"
   xmlns:rdf="http://www.w3.org/1999/02/22-rdf-syntax-ns#"
   xmlns:svg="http://www.w3.org/2000/svg"
   xmlns="http://www.w3.org/2000/svg"
   xmlns:sodipodi="http://sodipodi.sourceforge.net/DTD/sodipodi-0.dtd"
   xmlns:inkscape="http://www.inkscape.org/namespaces/inkscape"
   width="320"
   height="135.95142"
   id="svg2"
   version="1.1"
   inkscape:version="0.48.4 r9939"
   inkscape:export-filename="integral.png"
   inkscape:export-xdpi="150"
   inkscape:export-ydpi="150"
   sodipodi:docname="integral.svg">
  <defs
     id="defs4" />
  <sodipodi:namedview
     id="base"
     pagecolor="#9fffa7"
     bordercolor="#666666"
     borderopacity="1.0"
     inkscape:pageopacity="0"
     inkscape:pageshadow="2"
     inkscape:zoom="3.35"
     inkscape:cx="160"
     inkscape:cy="67.975708"
     inkscape:document-units="px"
     inkscape:current-layer="layer1"
     showgrid="false"
     inkscape:window-width="1237"
     inkscape:window-height="1003"
     inkscape:window-x="43"
     inkscape:window-y="21"
     inkscape:window-maximized="1"
     fit-margin-top="0"
     fit-margin-left="0"
     fit-margin-right="0"
     fit-margin-bottom="0" />
  <metadata
     id="metadata7">
    <rdf:RDF>
      <cc:Work
         rdf:about="">
        <dc:format>image/svg+xml</dc:format>
        <dc:type
           rdf:resource="http://purl.org/dc/dcmitype/StillImage" />
        <dc:title />
      </cc:Work>
    </rdf:RDF>
  </metadata>
  <g
     inkscape:label="Layer 1"
     inkscape:groupmode="layer"
     id="layer1"
     transform="translate(-6.6292965,-895.95426)">
    <path
       style="fill:#ff0000;stroke-width:1.89999998;stroke-miterlimit:4;stroke-dasharray:7.6, 7.6;stroke-dashoffset:0"
       id="path2992"
       d="m 25.685348,25.955779 c -1.003822,-0.723353 -2.115043,-1.267626 -3.279076,-1.676218 -1.004583,-0.293363 -2.0599,-0.511057 -3.109804,-0.4275 -1.435437,0.357216 -4.429561,2.157445 2.011027,-1.360124 0.197911,-0.108091 -0.378873,0.24493 -0.562786,0.375423 -0.216731,0.153778 -0.425814,0.318058 -0.638722,0.477087 -1.862201,1.44243 -3.39019,3.240468 -4.7679,5.136598 -1.82134,2.666696 -2.37959,5.28457 -2.785011,8.424042 -0.390855,3.330591 0.168132,6.611331 0.923767,9.843538 0.757294,2.978628 2.09608,5.735024 3.676076,8.353171 1.525775,2.426111 3.402893,4.582483 5.3019,6.716218 2.274957,2.532917 4.607706,5.013121 6.876533,7.55145 2.428191,2.650894 4.539431,5.553536 6.413646,8.614983 1.709209,2.920484 3.22423,5.945518 4.532909,9.064854 0.816149,2.094027 1.584442,4.243177 1.855813,6.488008 0.04792,0.396427 0.05604,0.796658 0.08406,1.194986 0.0032,1.92941 -0.574713,3.735634 -1.828206,5.219174 -0.259629,0.307281 -0.558418,0.579201 -0.837627,0.868801 -2.062303,1.75913 -4.46502,2.96821 -6.846421,4.26499 -0.559564,0.30471 -1.945371,0.8395 -2.544417,1.03517 -0.44545,0.1455 -0.901484,0.25635 -1.352225,0.38452 -2.671268,0.59432 -5.410521,0.89612 -8.14427,0.97843 -2.214536,0.0932 -4.400101,-0.2132 -6.53447,-0.78012 -0.8411,-0.35473 -1.842834,-0.65545 -2.487873,-1.34966 -0.115287,-0.12407 -0.191283,-0.27956 -0.286925,-0.41934 0,0 3.779184,-2.214 3.779184,-2.214 l 0,0 c 0.06843,0.10684 0.119733,0.22683 0.205298,0.32051 0.592898,0.64915 1.530753,0.9217 2.313196,1.23959 2.090964,0.55051 4.232154,0.82478 6.399029,0.7241 2.707949,-0.10456 5.423907,-0.39117 8.058037,-1.04646 1.240488,-0.38279 1.431472,-0.40509 2.621976,-0.91775 0.415719,-0.17901 1.594162,-0.84487 1.22894,-0.57751 -0.749049,0.54834 -1.579374,0.9773 -2.390873,1.42811 -0.741784,0.41207 2.838399,-1.73407 2.086862,-1.45789 0.28355,-0.27155 0.584532,-0.526 0.850649,-0.81465 1.271699,-1.3794 1.90669,-3.083093 1.962768,-4.949583 -0.01693,-0.387513 -0.0115,-0.776653 -0.05081,-1.16254 -0.226409,-2.223081 -0.982599,-4.355184 -1.752336,-6.435758 -1.260684,-3.118192 -2.758015,-6.128548 -4.457575,-9.032261 -1.867265,-3.036758 -3.946589,-5.932549 -6.37451,-8.552423 -2.278285,-2.534594 -4.621395,-5.009309 -6.923233,-7.522475 -1.939011,-2.135451 -3.833273,-4.314761 -5.359357,-6.774495 -1.59193,-2.662231 -2.918226,-5.47222 -3.7001932,-8.487169 -0.7666724,-3.271508 -1.338187,-6.595018 -0.9971351,-9.968792 0.3550336,-3.065281 0.9096189,-5.967119 2.6504903,-8.58842 1.323599,-1.907731 2.807616,-3.71529 4.602997,-5.202814 1.980226,-1.595599 4.170605,-3.316806 6.725143,-3.674699 1.076841,0.02214 2.142149,0.238329 3.157841,0.596014 1.19264,0.45824 2.328766,1.038556 3.416823,1.708952 0,0 -3.723212,2.383932 -3.723212,2.383932 z"
       inkscape:connector-curvature="0"
       transform="translate(6.6292965,895.95426)" />
    <path
       style="fill:#ff0000;stroke-width:1.89999998;stroke-miterlimit:4;stroke-dasharray:7.6, 7.6;stroke-dashoffset:0"
       id="path2994"
       d="m 56.2548,52.530905 c 0.250109,-1.135242 0.06793,-2.270428 -0.233221,-3.373156 -0.508812,-1.612902 -1.556146,-2.851684 -2.831526,-3.916616 -1.098364,-0.766623 -2.29532,-1.549183 -3.630477,-1.808973 -0.126741,0.02374 -0.263953,0.01548 -0.380222,0.07123 -0.123148,0.05905 -0.43619,0.324924 -0.314917,0.26211 1.141684,-0.591344 2.209165,-1.328634 3.383732,-1.851626 0.188419,-0.0839 -0.257978,0.324261 -0.358262,0.504493 -0.316428,0.568685 -0.371282,0.9238 -0.55067,1.561918 -0.575524,2.395053 -0.36601,4.806342 0.06347,7.199901 0.649255,2.775979 1.71301,5.432256 2.667349,8.113056 0.89174,2.47802 1.435041,5.061913 1.834083,7.659697 0.157082,1.446774 0.339804,2.888452 0.55338,4.327905 0.03632,0.243454 0.07473,0.486583 0.113996,0.729573 0,0 -3.933525,2.06047 -3.933525,2.06047 l 0,0 c -0.01679,-0.251212 -0.03565,-0.502281 -0.05993,-0.752902 -0.145183,-1.463257 -0.28746,-2.926188 -0.4152,-4.390934 -0.346649,-2.585323 -0.842776,-5.161102 -1.731474,-7.62084 -0.954071,-2.702419 -2.040714,-5.369957 -2.71728,-8.160036 -0.469554,-2.423717 -0.714476,-4.869023 -0.230036,-7.316993 0.07458,-0.353742 0.403623,-1.998659 0.731655,-2.235573 1.301212,-0.939769 2.693834,-1.747445 4.072843,-2.568818 0.127468,-0.07592 0.282554,-0.101046 0.430403,-0.113429 0.147441,-0.01235 0.29469,0.02691 0.442035,0.04036 1.334615,0.424101 2.546949,1.186981 3.661258,2.021692 1.322268,1.131741 2.426525,2.442185 2.989525,4.119087 0.335431,1.138871 0.561809,2.299455 0.422741,3.492736 0,0 -3.979723,1.945666 -3.979723,1.945666 z"
       inkscape:connector-curvature="0"
       transform="translate(6.6292965,895.95426)" />
    <path
       style="fill:#ff0000;stroke-width:1.89999998;stroke-miterlimit:4;stroke-dasharray:7.6, 7.6;stroke-dashoffset:0"
       id="path2996"
       d="m 43.21615,63.738635 c 2.822996,-0.639398 5.698575,-1.02413 8.56697,-1.394853 1.993705,-0.248676 3.998388,-0.38261 6.001988,-0.518486 0,0 -3.265268,2.405419 -3.265268,2.405419 l 0,0 c -1.992184,0.128022 -3.98492,0.26114 -5.965045,0.52483 -2.957917,0.409127 -5.956364,0.801283 -8.811579,1.701875 0,0 3.472934,-2.718785 3.472934,-2.718785 z"
       inkscape:connector-curvature="0"
       transform="translate(6.6292965,895.95426)" />
    <path
       style="fill:#ff0000;stroke-width:1.89999998;stroke-miterlimit:4;stroke-dasharray:7.6, 7.6;stroke-dashoffset:0"
       id="path2998"
       d="m 68.726158,54.923942 c -1.308117,0.566018 -3.645215,1.537523 2.174906,-1.329343 0.252931,-0.124588 -0.449478,0.342465 -0.65327,0.53731 -0.64116,0.613012 -0.7371,0.836477 -1.25183,1.580291 -1.020357,1.805711 -1.475392,3.877208 -1.305738,5.94927 0.03616,0.441634 0.131502,0.876413 0.197253,1.31462 0.515902,2.515001 1.78823,4.74055 3.202806,6.84703 0.488031,0.715218 1.043577,1.378204 1.607176,2.033695 0,0 -3.704942,2.219249 -3.704942,2.219249 l 0,0 c -0.536264,-0.692557 -1.075051,-1.38407 -1.559902,-2.114413 -1.389039,-2.18889 -2.684107,-4.468564 -3.23918,-7.029956 -0.07504,-0.45426 -0.179821,-0.904597 -0.225122,-1.362778 -0.209372,-2.117643 0.182933,-4.256948 1.142778,-6.151677 0.186812,-0.305959 0.355007,-0.624094 0.560435,-0.917878 1.518352,-2.171414 4.099084,-3.496688 6.594959,-4.225178 0,0 -3.540329,2.649758 -3.540329,2.649758 z"
       inkscape:connector-curvature="0"
       transform="translate(6.6292965,895.95426)" />
    <path
       style="fill:#ff0000;stroke-width:1.89999998;stroke-miterlimit:4;stroke-dasharray:7.6, 7.6;stroke-dashoffset:0"
       id="path3000"
       d="m 79.134032,58.880998 c 1.627196,1.415638 3.426616,2.620316 5.182852,3.86782 2.077915,1.543082 4.243502,2.95784 6.393212,4.396248 0.837617,0.539197 0.441984,0.28974 1.185282,0.750931 0,0 -3.658803,2.343326 -3.658803,2.343326 l 0,0 c -0.699236,-0.498007 -0.324806,-0.231056 -1.12317,-0.80102 -2.086731,-1.50548 -4.222104,-2.944236 -6.305963,-4.454309 -1.80667,-1.253329 -3.641099,-2.468331 -5.411731,-3.772486 0,0 3.738321,-2.33051 3.738321,-2.33051 z"
       inkscape:connector-curvature="0"
       transform="translate(6.6292965,895.95426)" />
    <path
       style="fill:#ff0000;stroke-width:1.89999998;stroke-miterlimit:4;stroke-dasharray:7.6, 7.6;stroke-dashoffset:0"
       id="path3002"
       d="m 89.239262,62.321223 c -1.955052,0.234028 -3.677179,1.205174 -5.365698,2.14806 0.775991,-0.422748 1.497591,-0.966013 2.327973,-1.268245 0.462921,-0.168489 -0.807929,0.564185 -1.202812,0.858722 -1.231679,0.918692 -2.38792,1.927983 -3.522739,2.961945 -0.40658,0.35747 -0.783351,0.741151 -1.12332,1.161398 0,0 -4.031922,1.736761 -4.031922,1.736761 l 0,0 c 0.340676,-0.482619 0.736405,-0.905899 1.196594,-1.281204 2.93744,-2.647764 6.010923,-5.033011 9.603094,-6.788423 1.78053,-0.972642 3.622356,-1.955408 5.684154,-2.119374 0,0 -3.565324,2.59036 -3.565324,2.59036 z"
       inkscape:connector-curvature="0"
       transform="translate(6.6292965,895.95426)" />
    <path
       style="fill:#ff0000;stroke-width:1.89999998;stroke-miterlimit:4;stroke-dasharray:7.6, 7.6;stroke-dashoffset:0"
       id="path3004"
       d="m 97.299726,55.200784 c 1.373775,0.9311 2.679744,1.933379 3.918964,3.037325 1.33085,1.283509 2.48195,2.809251 2.8202,4.670056 0.0687,0.377762 0.0733,0.764395 0.11001,1.146592 -0.078,2.466923 -1.06059,4.364018 -2.45702,6.325215 -0.20797,0.250605 -0.41593,0.501211 -0.6239,0.751817 0,0 -3.926251,1.660343 -3.926251,1.660343 l 0,0 c 0.2174,-0.242643 0.4348,-0.485285 0.6522,-0.727928 1.392548,-1.835506 2.468091,-3.692951 2.600541,-6.056223 -0.0263,-0.359789 -0.0208,-0.723344 -0.079,-1.079368 -0.2922,-1.786888 -1.421235,-3.235397 -2.698735,-4.450043 -1.261881,-1.083959 -2.586455,-2.077259 -4.04017,-2.893854 0,0 3.723211,-2.383932 3.723211,-2.383932 z"
       inkscape:connector-curvature="0"
       transform="translate(6.6292965,895.95426)" />
    <path
       style="fill:#ff0000;stroke-width:1.89999998;stroke-miterlimit:4;stroke-dasharray:7.6, 7.6;stroke-dashoffset:0"
       id="path3006"
       d="m 121.25928,67.331834 c -0.52817,-1.127942 -1.30637,-2.050199 -2.26389,-2.831945 -1.19406,-0.795084 -2.60007,-1.131076 -4.01362,-0.786248 -0.30399,0.07416 -0.59244,0.201641 -0.88866,0.302462 -2.70777,1.4585 1.85064,-0.999008 1.98996,-1.0501 0.3182,-0.116698 -0.49724,0.46403 -0.70985,0.727984 -0.661,0.820665 -0.86626,1.582248 -1.07337,2.585155 -0.0607,1.553593 0.61887,3.016529 1.95669,3.866511 0.25881,0.164438 0.55239,0.266379 0.82859,0.399569 0.8883,0.297942 1.74984,0.364965 2.61429,-0.059 0.27894,-0.136806 1.06374,-0.634843 0.77754,-0.513938 -3.03942,1.284039 -3.5518,2.401297 -2.26561,0.464456 1.31031,-2.795804 1.3436,-5.908556 1.15684,-8.929026 -0.39418,-3.17053 -1.40828,-6.21178 -2.80703,-9.07161 -0.44957,-0.874196 -0.94756,-1.722596 -1.48407,-2.546036 -0.0554,-0.08496 -0.39891,-0.644515 -0.52521,-0.675032 -0.0517,-0.0125 -0.0192,0.104638 -0.0289,0.156958 1.26553,-0.686992 2.4567,-1.533505 3.79658,-2.060976 0.16431,-0.06468 0.0883,0.342198 0.1431,0.510045 0.0926,0.283409 0.18947,0.565696 0.29899,0.843006 0.5241,1.327038 1.1693,2.606811 1.78783,3.890904 1.46555,3.023041 2.82416,6.106775 4.51323,9.015971 0.35713,0.61511 0.74351,1.212767 1.11527,1.819151 1.01837,1.696787 2.31961,3.174263 3.64114,4.633363 0,0 -3.48423,2.106653 -3.48423,2.106653 l 0,0 c -1.30432,-1.500348 -2.59777,-3.013254 -3.62149,-4.727694 -0.37459,-0.611944 -0.76322,-1.215515 -1.12377,-1.835833 -1.69197,-2.910963 -3.08424,-5.981674 -4.61808,-8.9753 -0.65525,-1.275541 -1.33279,-2.544091 -1.94747,-3.84005 -0.1282,-0.270296 -0.24406,-0.546273 -0.36601,-0.819445 -0.0852,-0.190746 -0.41021,-0.432168 -0.25531,-0.572308 1.1235,-1.0164 2.49403,-1.720771 3.74105,-2.581157 0.30231,0.278424 0.46378,0.591053 0.66395,0.953294 0.48158,0.871466 0.94544,1.75274 1.38719,2.645102 1.35506,2.935381 2.38262,6.028136 2.81934,9.241971 0.2285,3.095049 0.21647,6.176117 -0.9392,9.108391 -1.39189,2.499596 -0.35701,1.005433 -4.91679,3.932529 -1.15642,0.74235 -2.39267,0.727239 -3.64011,0.226572 -0.29319,-0.159838 -0.60496,-0.289517 -0.87956,-0.479514 -1.41853,-0.981471 -2.17169,-2.559302 -2.17735,-4.258765 0.0524,-0.32238 0.0774,-0.650459 0.15733,-0.967138 0.80091,-3.172125 4.07268,-4.545065 6.85242,-5.772574 0.31422,-0.08228 0.62247,-0.192188 0.94265,-0.246832 1.51137,-0.257941 2.99241,0.190948 4.23027,1.054334 1.00066,0.833149 1.7844,1.773464 2.44967,2.893758 0,0 -3.83436,2.22238 -3.83436,2.22238 z"
       inkscape:connector-curvature="0"
       transform="translate(6.6292965,895.95426)" />
    <path
       style="fill:#ff0000;stroke-width:1.89999998;stroke-miterlimit:4;stroke-dasharray:7.6, 7.6;stroke-dashoffset:0"
       id="path3008"
       d="m 138.21415,64.267011 c 1.11622,1.316538 2.44764,2.401367 3.84548,3.401231 1.49562,1.066175 3.08377,1.983363 4.69841,2.853831 0,0 -3.56871,2.327317 -3.56871,2.327317 l 0,0 c -1.60519,-0.906951 -3.18764,-1.853064 -4.69996,-2.909932 -1.4381,-1.013746 -2.78322,-2.130705 -4.03623,-3.367694 0,0 3.76101,-2.304753 3.76101,-2.304753 z"
       inkscape:connector-curvature="0"
       transform="translate(6.6292965,895.95426)" />
    <path
       style="fill:#ff0000;stroke-width:1.89999998;stroke-miterlimit:4;stroke-dasharray:7.6, 7.6;stroke-dashoffset:0"
       id="path3010"
       d="m 146.05848,64.535409 c -0.15263,0.0542 -0.30841,0.100242 -0.45789,0.162616 -0.72008,0.300477 -1.76915,0.886985 -1.52177,0.739933 0.844,-0.501695 1.68402,-1.014605 2.56485,-1.448376 0.44703,-0.22014 -0.84594,0.527229 -1.25931,0.805462 -0.46431,0.312512 -0.9154,0.644227 -1.3731,0.96634 -2.50667,1.884847 -4.78884,4.066917 -6.67973,6.570823 -0.15464,0.25593 -0.30928,0.511859 -0.46392,0.767788 0,0 -3.90633,1.731653 -3.90633,1.731653 l 0,0 c 0.16442,-0.276633 0.32884,-0.553267 0.49326,-0.8299 1.91583,-2.544116 4.23002,-4.763747 6.73194,-6.729009 2.91454,-2.125433 5.98109,-4.172029 9.37455,-5.434131 0,0 -3.50255,2.696801 -3.50255,2.696801 z"
       inkscape:connector-curvature="0"
       transform="translate(6.6292965,895.95426)" />
    <path
       style="fill:#0000ff;stroke-width:1.89999998;stroke-miterlimit:4;stroke-dasharray:7.6, 7.6;stroke-dashoffset:0"
       id="path3012"
       d="m 166.69486,53.441012 c -0.33292,0.602034 -0.70538,1.177718 -1.19028,1.66795 -0.35155,0.340303 -0.73127,0.642135 -1.13919,0.910374 -0.24712,0.157903 -0.46294,0.360135 -0.69505,0.540201 -0.0187,-0.03502 -0.0714,0.113954 -0.0895,0.0786 -0.90094,-1.762742 0.22872,-0.736727 -4.03784,1.575583 1.49747,-1.077985 3.01422,-2.133126 4.51721,-3.204724 3.93933,-2.827543 7.83036,-5.720997 11.70434,-8.637119 3.73909,-2.832915 7.45282,-5.696862 11.08091,-8.670788 1.99224,-1.678264 3.99443,-3.344337 6.00102,-5.005346 1.88323,-1.513123 4.02871,-2.645511 6.15575,-3.778866 0.28058,-0.147245 0.13931,-0.08841 0.42192,-0.180982 0,0 -3.47926,2.745759 -3.47926,2.745759 l 0,0 c -0.24349,0.128664 -0.11725,0.06199 -0.37874,0.200001 -1.31389,0.709906 -3.2195,1.805546 2.79765,-1.651607 0.14616,-0.08398 -0.28614,0.178511 -0.4249,0.274215 -0.37525,0.258804 -0.72671,0.551362 -1.11589,0.790528 -2.08666,1.689182 -4.17536,3.375468 -6.23361,5.099475 -3.67681,2.990836 -7.43237,5.878937 -11.21128,8.739612 -3.81443,2.877021 -7.64025,5.738725 -11.49454,8.562275 -0.43792,0.321518 -0.87584,0.643036 -1.31376,0.964555 -0.3526,0.250018 -0.70842,0.495561 -1.05781,0.750056 -0.54849,0.399525 -1.07901,0.844443 -1.63817,1.229027 -0.0624,0.0429 -0.13506,0.0684 -0.2026,0.102597 -3.82001,2.119574 -3.22901,3.520683 -4.26386,1.710384 -0.021,-0.03668 0.13462,-0.02026 0.11334,-0.05676 0.25578,-0.164903 0.52463,-0.330355 0.71692,-0.568628 0.4136,-0.262148 0.82893,-0.505821 1.18682,-0.846517 0.50516,-0.427675 0.95973,-0.924811 1.21869,-1.544066 0,0 4.05172,-1.795785 4.05172,-1.795785 z"
       inkscape:connector-curvature="0"
       transform="translate(6.6292965,895.95426)" />
    <path
       style="fill:#0000ff;stroke-width:1.89999998;stroke-miterlimit:4;stroke-dasharray:7.6, 7.6;stroke-dashoffset:0"
       id="path3014"
       d="m 182.19469,33.736356 c -0.16798,0.0083 -1.15384,0.24485 -1.2234,0.137164 -0.10206,-0.158018 -0.14843,-0.345705 -0.22264,-0.518557 1.35054,-0.744631 2.69182,-1.506302 4.05162,-2.233894 0.17826,-0.09539 0.93486,-0.308799 1.03663,-0.340939 1.01546,-0.320681 2.02009,-0.676118 3.02975,-1.014424 2.6195,-0.929771 5.28934,-1.708148 7.98991,-2.362853 1.82422,-0.472435 3.67735,-0.809958 5.54657,-1.039372 0.71546,-0.04179 1.24018,-0.309647 1.72927,0.330762 0.29631,0.902481 -0.36703,1.743252 -0.77986,2.502226 -0.69567,1.237873 -1.51181,2.401002 -2.31177,3.572257 -0.59428,0.850121 -1.08648,1.761076 -1.5299,2.696383 -0.13957,0.272908 -0.26559,0.552347 -0.386,0.834122 0,0 -4.04198,1.849746 -4.04198,1.849746 l 0,0 c 0.13691,-0.293901 0.27745,-0.58609 0.42121,-0.876709 0.51593,-0.926695 0.93393,-1.912718 1.56957,-2.773039 0.79286,-1.161557 1.62116,-2.300969 2.31855,-3.524475 0.33787,-0.640202 0.78473,-1.281985 0.93473,-1.995705 -0.26811,-0.250033 -1.08591,0.01709 -1.4169,-0.0166 -1.81456,0.190111 -3.60711,0.533807 -5.37649,0.97847 -2.70275,0.664655 -5.37074,1.462021 -7.98888,2.408782 -1.0424,0.359372 -2.08395,0.721234 -3.12532,1.083526 -1.62219,0.564354 -4.22075,1.754067 2.49393,-1.689677 -0.10549,-0.153669 -0.22832,-0.296773 -0.31645,-0.461009 -0.0435,-0.08098 0.17805,-0.04682 0.26883,-0.06114 0.29035,-0.0458 0.58051,-0.09315 0.86937,-0.147687 0,0 -3.54035,2.662646 -3.54035,2.662646 z"
       inkscape:connector-curvature="0"
       transform="translate(6.6292965,895.95426)" />
    <path
       style="fill:#0000ff;stroke-width:1.89999998;stroke-miterlimit:4;stroke-dasharray:7.6, 7.6;stroke-dashoffset:0"
       id="path3016"
       d="m 215.39966,12.548356 c -0.0155,2.021176 0.54443,3.991189 1.11968,5.910726 0.55671,1.877617 1.30598,3.680755 2.15385,5.442552 0.94251,1.706828 1.35193,0.69317 -3.6558,2.488249 -0.1647,0.05904 -0.16269,-0.309913 -0.24978,-0.461672 -0.37053,-0.645704 -0.50989,-0.838524 -0.94177,-1.505846 -1.71314,-2.5882 -3.41247,-5.184711 -5.13813,-7.764536 -1.33289,-2.007179 -2.88287,-3.835162 -4.5078,-5.605918 -0.18237,-0.369355 -0.78694,-0.658591 -0.94255,-1.051506 -0.0455,-0.114798 -0.16313,-0.3031635 -0.0569,-0.3660279 3.89431,-2.30367 2.75194,-2.454505 4.80462,-1.9333835 2.72089,0.5737761 5.50008,0.7845836 8.26659,1.0096314 3.60978,0.2126037 7.23059,0.1419593 10.8271,-0.2219123 1.71501,-0.2571004 0.89463,-0.1218763 2.46207,-0.4000244 0,0 -3.38238,2.5419457 -3.38238,2.5419457 l 0,0 c -1.52868,0.226476 -0.72625,0.117057 -2.40804,0.322622 -3.59716,0.288808 -7.21143,0.328477 -10.81533,0.127852 -2.84405,-0.211684 -5.69389,-0.419878 -8.50876,-0.895175 -0.20799,-0.02663 -0.78995,0.04828 -0.62398,-0.07988 1.08305,-0.8363411 2.39152,-1.3424957 3.50177,-2.1423756 0.0869,-0.06262 -0.14594,-0.2032484 -0.25295,-0.1982344 -0.0775,0.00363 0.0657,0.1414983 0.11033,0.2049169 0.0646,0.091679 0.68342,0.8455579 0.69582,0.8607363 1.55039,1.8475998 3.07255,3.7149248 4.38728,5.7432328 1.70953,2.59064 3.40531,5.193771 5.2475,7.693002 0.66326,0.912835 0.4817,0.649976 1.04745,1.47081 0.10055,0.14589 0.43471,0.323832 0.29993,0.438852 -3.6984,3.156225 -3.14534,3.679641 -3.94929,1.856048 -0.74948,-1.829388 -1.48684,-3.662905 -2.04967,-5.561084 -0.59319,-1.936716 -1.16406,-3.897653 -1.37455,-5.91931 0,0 3.93365,-2.004292 3.93365,-2.004292 z"
       inkscape:connector-curvature="0"
       transform="translate(6.6292965,895.95426)" />
    <path
       style="fill:#0000ff;stroke-width:1.89999998;stroke-miterlimit:4;stroke-dasharray:7.6, 7.6;stroke-dashoffset:0"
       id="path3018"
       d="m 213.99532,19.969397 c 2.07618,-0.329035 4.0929,-0.954007 6.11732,-1.506819 0.50261,-0.131958 1.00522,-0.263916 1.50783,-0.395873 0,0 -3.27997,2.515814 -3.27997,2.515814 l 0,0 c -0.50554,0.136108 -1.01107,0.272216 -1.51661,0.408324 -2.10647,0.594346 -4.20771,1.24214 -6.36731,1.617448 0,0 3.53874,-2.638894 3.53874,-2.638894 z"
       inkscape:connector-curvature="0"
       transform="translate(6.6292965,895.95426)" />
    <path
       style="fill:#0000ff;stroke-width:1.89999998;stroke-miterlimit:4;stroke-dasharray:7.6, 7.6;stroke-dashoffset:0"
       id="path3020"
       d="m 232.66426,17.082619 c -1.54096,0.963652 1.15713,-0.729896 3.10057,-1.730076 0.15505,-0.0798 -0.26753,0.226767 -0.37783,0.361824 -0.42735,0.523231 -0.50421,1.085517 -0.58467,1.732497 0.0579,1.897915 1.08995,2.803642 2.58744,3.768551 1.26494,0.643374 2.81516,1.091065 4.21653,0.592343 0.25348,-0.09021 0.48101,-0.241216 0.72151,-0.361825 -1.00998,0.549024 -1.97117,1.199319 -3.02995,1.64707 -0.23955,0.101303 0.37274,-0.367975 0.51703,-0.584368 0.47889,-0.718214 0.59631,-1.593731 0.39383,-2.425915 -0.0805,-0.331048 -0.2372,-0.638798 -0.35579,-0.958197 -1.10462,-1.891526 -2.82646,-3.418823 -4.88004,-4.222589 -0.42003,-0.164397 -0.86524,-0.255268 -1.29785,-0.382902 -1.24539,-0.250522 -2.50967,-0.315554 -3.71216,0.173571 -0.34969,0.142237 -1.32969,0.713776 -0.98722,0.554974 3.02637,-1.403282 3.43689,-2.349195 2.32157,-0.606214 -0.0618,0.305856 -0.12353,0.611712 -0.1853,0.917567 0,0 -3.82299,1.874696 -3.82299,1.874696 l 0,0 c 0.0399,-0.35277 0.0799,-0.705539 0.11984,-1.058309 1.23959,-2.435904 0.31109,-0.998189 4.86788,-3.770191 1.48241,-0.901788 3.22586,-0.81044 4.84948,-0.436012 0.44234,0.147964 0.89737,0.262361 1.32703,0.443891 2.12452,0.897603 3.90889,2.489262 5.1055,4.445976 0.141,0.344778 0.31881,0.676709 0.423,1.034336 0.26665,0.9152 0.22026,1.863614 -0.21588,2.718742 -0.12745,0.249893 -0.23919,0.539066 -0.47053,0.697717 -1.39096,0.953889 -2.89334,1.73416 -4.34,2.601241 -0.2591,0.09318 -0.50943,0.215774 -0.77729,0.279553 -1.51001,0.359553 -3.06812,-0.152124 -4.38325,-0.869507 -1.60944,-1.07357 -2.70184,-2.112874 -2.85907,-4.145355 0.0291,-0.584256 0.002,-0.852064 0.18071,-1.407402 0.64207,-1.998559 3.35677,-2.82755 5.04463,-3.602282 0,0 -3.49673,2.716595 -3.49673,2.716595 z"
       inkscape:connector-curvature="0"
       transform="translate(6.6292965,895.95426)" />
    <path
       style="fill:#0000ff;stroke-width:1.89999998;stroke-miterlimit:4;stroke-dasharray:7.6, 7.6;stroke-dashoffset:0"
       id="path3022"
       d="m 249.45238,11.628567 c 0.14157,2.00014 0.73459,3.928081 1.36353,5.819855 0.33665,1.042238 0.81614,2.025642 1.29517,3.006974 0,0 -3.70105,2.098124 -3.70105,2.098124 l 0,0 c -0.46879,-1.006809 -0.94023,-2.014754 -1.27649,-3.07613 -0.64269,-1.898902 -1.23931,-3.818344 -1.58914,-5.795998 0,0 3.90798,-2.052825 3.90798,-2.052825 z"
       inkscape:connector-curvature="0"
       transform="translate(6.6292965,895.95426)" />
    <path
       style="fill:#0000ff;stroke-width:1.89999998;stroke-miterlimit:4;stroke-dasharray:7.6, 7.6;stroke-dashoffset:0"
       id="path3024"
       d="m 241.73763,12.698237 c 0.46689,-0.608725 1.05755,-1.117998 1.7244,-1.499834 3.64282,-2.0858442 3.7397,-2.5280786 6.85187,-3.1045442 1.81867,-0.1368314 3.9417,-0.023073 5.28211,1.4052486 0.21436,0.2284213 0.36162,0.5116056 0.54243,0.7674076 0.0967,0.299043 0.24502,0.586096 0.29023,0.897129 0.29639,2.039065 -1.30496,3.739136 -2.58241,5.082298 -1.21923,1.3538 -2.94594,2.218153 -4.00836,3.713408 -0.0213,0.08086 -0.0806,0.160634 -0.064,0.242595 0.0344,0.169818 0.52396,0.302224 0.55017,0.310897 0.87299,0.288807 1.77067,0.444546 2.67408,0.601077 2.12921,0.342292 4.27214,0.597191 6.41897,0.798936 0,0 -3.42147,2.434492 -3.42147,2.434492 l 0,0 c -2.15864,-0.225724 -4.31398,-0.487411 -6.46118,-0.804678 -0.85064,-0.140979 -3.36066,-0.373049 -3.7044,-1.384845 -0.0472,-0.138826 0.007,-0.293158 0.0103,-0.439736 0.0902,-0.155887 0.16229,-0.323761 0.2706,-0.46766 0.30777,-0.408908 0.74947,-0.77186 1.13406,-1.094761 0.91255,-0.766186 1.88132,-1.466146 2.73357,-2.302913 1.16121,-1.151347 2.86157,-2.815279 2.69167,-4.631311 -0.0252,-0.269363 -0.14881,-0.520213 -0.22322,-0.78032 -0.1558,-0.224445 -0.27935,-0.47513 -0.4674,-0.673334 -1.2695,-1.33801 -3.34296,-1.311484 -5.02322,-1.12742 -0.38838,0.09038 -0.78288,0.157627 -1.16514,0.271132 -0.35944,0.106731 -1.35343,0.616269 -1.05572,0.388311 0.84082,-0.643834 1.80649,-1.105738 2.71131,-1.6560181 0.30909,-0.1879786 -0.77256,0.4017461 -1.32667,0.9104911 -0.12635,0.116012 -0.22442,0.259482 -0.33664,0.389223 0,0 -4.04598,1.754729 -4.04598,1.754729 z"
       inkscape:connector-curvature="0"
       transform="translate(6.6292965,895.95426)" />
    <path
       style="fill:#0000ff;stroke-width:1.89999998;stroke-miterlimit:4;stroke-dasharray:7.6, 7.6;stroke-dashoffset:0"
       id="path3026"
       d="m 265.31845,10.986952 c 0.5624,2.158882 1.33086,4.257024 2.12526,6.339259 0.85256,2.080058 1.71399,4.169025 2.79351,6.144105 0,0 -3.76343,2.141459 -3.76343,2.141459 l 0,0 c -0.93,-2.068982 -1.80992,-4.160412 -2.66393,-6.261798 -0.8089,-2.063712 -1.58214,-4.140609 -2.3469,-6.221 0,0 3.85549,-2.142025 3.85549,-2.142025 z"
       inkscape:connector-curvature="0"
       transform="translate(6.6292965,895.95426)" />
    <path
       style="fill:#0000ff;stroke-width:1.89999998;stroke-miterlimit:4;stroke-dasharray:7.6, 7.6;stroke-dashoffset:0"
       id="path3028"
       d="m 261.76526,10.198554 c 1.47319,1.485939 3.2577,2.615639 5.06294,3.650049 1.93446,0.981236 3.93007,2.110507 6.11071,2.440094 0.29644,0.04481 0.59852,0.03629 0.89779,0.05443 0.2334,-0.05675 0.4802,-0.07384 0.70021,-0.170256 0.1996,-0.08748 0.73268,-0.4691 0.53749,-0.372184 -1.09789,0.54513 -2.11181,1.265921 -3.25065,1.719331 -0.2034,0.08098 0.25256,-0.360977 0.3414,-0.561063 0.21678,-0.488216 0.23502,-0.874438 0.31071,-1.396513 0.004,-0.241993 0.0224,-0.484197 0.0115,-0.725978 -0.0121,-0.269891 -0.14863,-1.637818 -0.41251,-1.818922 -0.0332,-0.02278 0.0102,0.07986 0.0153,0.119796 1.2827,-0.677229 2.50314,-1.488522 3.8481,-2.031686 0.14179,-0.05726 0.031,0.304413 0.0549,0.455452 0.0357,0.225688 0.0853,0.448991 0.12377,0.674214 0.17653,1.032022 0.32976,2.067882 0.5047,3.10025 0.30766,1.610465 0.72085,3.194528 1.22658,4.752936 0,0 -3.69793,2.030455 -3.69793,2.030455 l 0,0 c -0.49592,-1.579413 -0.90745,-3.181619 -1.25448,-4.800748 -0.19223,-1.011153 -0.36182,-2.031396 -0.59089,-3.035173 -0.0507,-0.222328 -0.11368,-0.441695 -0.17098,-0.662423 -0.0404,-0.15577 -0.24795,-0.3666 -0.12223,-0.46707 1.18236,-0.944882 2.53714,-1.651059 3.80571,-2.476589 0.5143,0.774896 0.47831,2.089561 0.52362,2.974784 -0.0435,0.433408 -0.14281,1.905874 -0.51953,2.190989 -1.30642,0.988736 -2.72895,1.815007 -4.12332,2.675274 -0.18788,0.115915 -0.39893,0.198901 -0.61425,0.247615 -0.23942,0.05417 -0.48945,0.0383 -0.73417,0.05745 -0.30051,-0.04268 -0.60478,-0.06429 -0.90154,-0.128032 -2.16951,-0.466026 -4.15386,-1.580452 -6.10845,-2.578479 -1.87144,-1.063057 -3.69408,-2.219408 -5.345,-3.607454 0,0 3.77047,-2.310552 3.77047,-2.310552 z"
       inkscape:connector-curvature="0"
       transform="translate(6.6292965,895.95426)" />
    <path
       style="fill:#0000ff;stroke-width:1.89999998;stroke-miterlimit:4;stroke-dasharray:7.6, 7.6;stroke-dashoffset:0"
       id="path3030"
       d="m 283.41128,11.35146 c -0.76475,1.345094 -0.54264,2.935219 -0.28597,4.386423 0.46567,1.71114 1.32942,3.332001 2.6896,4.500689 0.22953,0.197221 0.48586,0.36093 0.72879,0.541394 0.66057,0.357094 1.35687,0.648897 2.11196,0.385469 0.20942,-0.07306 0.77785,-0.426596 0.58146,-0.323504 -3.35322,1.760253 -3.86982,2.61967 -2.66301,1.037868 0.84543,-1.611522 1.01522,-3.463139 1.0197,-5.255949 -0.0114,-0.223341 -0.0172,-0.447036 -0.0342,-0.670025 -0.0236,-0.310042 -0.051,-0.510598 -0.11011,-0.800035 -0.009,-0.04505 -0.0743,-0.111563 -0.034,-0.133668 4.03143,-2.210483 3.5358,-3.430026 4.07035,-1.676436 0.53704,1.834974 1.19893,3.617253 2.044,5.332147 0.20203,0.344991 0.40406,0.689982 0.60609,1.034973 0,0 -3.64491,2.108367 -3.64491,2.108367 l 0,0 c -0.2084,-0.352661 -0.41681,-0.705322 -0.62521,-1.057982 -0.86136,-1.713915 -1.53208,-3.500663 -2.23437,-5.282882 -0.69985,-1.625806 -0.23423,-0.300063 3.74417,-2.489056 0.034,-0.01869 -0.0278,0.07422 -0.0276,0.112989 7.5e-4,0.115454 0.0227,0.229827 0.0305,0.34502 0.0324,0.479914 0.0344,0.722315 0.0497,1.226477 -0.0229,1.853956 -0.19174,3.75822 -0.91675,5.482228 -1.227,2.125964 -0.34608,0.864649 -4.67117,3.368939 -0.38922,0.225363 -0.96041,0.266792 -1.39032,0.195168 -0.63404,-0.10563 -0.96198,-0.353504 -1.52123,-0.661375 -0.24748,-0.199072 -0.50791,-0.383029 -0.74242,-0.597216 -1.38212,-1.262342 -2.27795,-2.947274 -2.80338,-4.725949 -0.31669,-1.514685 -0.55729,-3.089197 -0.0235,-4.58829 0,0 4.05173,-1.795784 4.05173,-1.795784 z"
       inkscape:connector-curvature="0"
       transform="translate(6.6292965,895.95426)" />
    <path
       style="fill:#0000ff;stroke-width:1.89999998;stroke-miterlimit:4;stroke-dasharray:7.6, 7.6;stroke-dashoffset:0"
       id="path3032"
       d="m 301.58382,10.801972 c -0.85378,1.559968 -1.0218,3.403603 -1.26864,5.136573 -0.25425,2.06723 -0.52871,4.155246 -0.21326,6.228153 0.43861,1.511369 1.17379,1.546803 2.59983,1.347253 0.25168,-0.05892 0.50336,-0.117836 0.75504,-0.176753 0,0 -3.42872,2.60029 -3.42872,2.60029 l 0,0 c -0.26623,0.04892 -0.53247,0.09784 -0.7987,0.146756 -1.66829,0.07155 -2.47242,-0.201047 -2.9394,-1.908331 -0.27099,-2.12961 -7.1e-4,-4.254493 0.24742,-6.376057 0.22531,-1.758165 0.39101,-3.546601 0.99613,-5.225741 0,0 4.0503,-1.772143 4.0503,-1.772143 z"
       inkscape:connector-curvature="0"
       transform="translate(6.6292965,895.95426)" />
    <path
       style="fill:#0000ff;stroke-width:1.89999998;stroke-miterlimit:4;stroke-dasharray:7.6, 7.6;stroke-dashoffset:0"
       id="path3034"
       d="m 306.39139,23.235073 c 0.15532,-2.076336 0.66156,-4.096258 1.19486,-6.101216 0.59811,-1.866385 1.08784,-3.885817 2.45961,-5.352645 1.39279,-0.798156 2.73485,-1.692215 4.17838,-2.3944702 0.16613,-0.080823 0.37352,0.029563 0.54584,0.096199 0.98455,0.3807359 1.41178,1.5337353 1.80706,2.4071423 0.90046,2.062322 1.47838,4.23776 2.06307,6.404092 0.30278,1.119162 0.67938,2.215996 1.02789,3.321229 0,0 -3.7946,2.072043 -3.7946,2.072043 l 0,0 c -0.3071,-1.127684 -0.65893,-2.242084 -0.9576,-3.372108 -0.5614,-2.145154 -1.10804,-4.304798 -2.06144,-6.318336 -0.3016,-0.622049 -0.59398,-1.400139 -1.20738,-1.800498 -0.12566,-0.08202 -0.27316,-0.139529 -0.42232,-0.155857 -0.14012,-0.01534 -0.53515,0.142307 -0.41803,0.06387 1.05482,-0.706484 2.17391,-1.311934 3.26086,-1.967902 -0.15987,0.124668 -0.33718,0.229734 -0.47961,0.374003 -1.15918,1.174106 -1.69396,3.310832 -2.22462,4.821355 -0.51855,1.930847 -1.01344,3.886542 -1.03833,5.898812 0,0 -3.93364,2.004292 -3.93364,2.004292 z"
       inkscape:connector-curvature="0"
       transform="translate(6.6292965,895.95426)" />
    <path
       style="fill:#0000ff;stroke-width:1.89999998;stroke-miterlimit:4;stroke-dasharray:7.6, 7.6;stroke-dashoffset:0"
       id="path3036"
       d="m 310.67683,19.068442 c 1.67458,-0.127542 3.35086,-0.223155 5.02913,-0.296167 0,0 -3.35669,2.465072 -3.35669,2.465072 l 0,0 c -1.74234,0.102176 -3.48586,0.216769 -5.21277,0.480854 0,0 3.54033,-2.649759 3.54033,-2.649759 z"
       inkscape:connector-curvature="0"
       transform="translate(6.6292965,895.95426)" />
    <path
       style="fill:#0000ff;stroke-width:1.89999998;stroke-miterlimit:4;stroke-dasharray:7.6, 7.6;stroke-dashoffset:0"
       id="path3038"
       d="m 215.13555,19.009214 c 1.52366,-0.299957 3.05551,-0.55177 4.59825,-0.733489 1.58528,-0.22207 3.17493,-0.409471 4.76635,-0.581116 1.9825,-0.177076 1.89297,-0.807281 -2.98615,2.53609 -0.10217,0.07001 -0.24773,0.0013 -0.37158,-7e-4 0,0 3.58017,-2.599568 3.58017,-2.599568 l 0,0 c 0.37836,-0.0035 0.43364,-0.0054 0.41894,0.0062 -3.23156,2.541453 -2.18111,2.551552 -4.15799,2.662844 -1.55899,0.118514 -3.11172,0.302217 -4.65984,0.520201 -1.57675,0.21409 -3.15356,0.467568 -4.6907,0.88638 0,0 3.50255,-2.696801 3.50255,-2.696801 z"
       inkscape:connector-curvature="0"
       transform="translate(6.6292965,895.95426)" />
    <path
       style="fill:#0000ff;stroke-width:1.89999998;stroke-miterlimit:4;stroke-dasharray:7.6, 7.6;stroke-dashoffset:0"
       id="path3040"
       d="m 159.91687,62.112004 c 2.65185,0.01123 5.30449,-0.150067 7.95554,-0.232428 5.15534,-0.152611 10.31267,-0.171207 15.46822,-0.03319 0.75283,0.02438 1.50566,0.04875 2.25849,0.07313 0,0 -3.23336,2.330198 -3.23336,2.330198 l 0,0 c -0.73871,-0.03312 -1.47741,-0.06623 -2.21612,-0.09935 -5.16855,-0.168149 -10.33998,-0.150012 -15.50645,0.09527 -2.77164,0.136174 -5.53929,0.334536 -8.31069,0.470575 0,0 3.58437,-2.604198 3.58437,-2.604198 z"
       inkscape:connector-curvature="0"
       transform="translate(6.6292965,895.95426)" />
    <path
       style="fill:#0000ff;stroke-width:1.89999998;stroke-miterlimit:4;stroke-dasharray:7.6, 7.6;stroke-dashoffset:0"
       id="path3042"
       d="m 182.36104,58.424518 c 2.09136,0.86818 4.37352,1.134827 6.59354,1.48484 2.89502,0.431014 5.81527,0.880774 8.59279,1.838576 0.44408,0.153135 0.87586,0.339826 1.31379,0.50974 0.97006,0.496896 2.46171,1.120772 2.48279,2.441828 0.0107,0.672773 -0.25007,0.889323 -0.59879,1.42439 -1.83543,1.718634 -4.14043,2.984837 -6.51926,3.792286 -1.39321,0.472901 -2.85732,0.741238 -4.29396,1.040178 -2.44441,0.545277 -4.93868,0.87089 -7.35759,1.526882 0,0 3.41603,-2.610977 3.41603,-2.610977 l 0,0 c 2.39982,-0.536746 4.83818,-0.884674 7.23895,-1.419247 1.44321,-0.316053 2.90562,-0.607384 4.29048,-1.137698 0.82356,-0.31537 4.61505,-2.247914 -1.46502,1.049567 -0.26664,0.14461 0.48795,-0.360474 0.73192,-0.540711 0.31667,-0.344667 0.64995,-0.589918 0.72932,-1.083072 0.18274,-1.135403 -1.39288,-1.743156 -2.12114,-2.159174 -0.42027,-0.169316 -0.8338,-0.356443 -1.26081,-0.507947 -2.74994,-0.975667 -5.65618,-1.399719 -8.53257,-1.804304 -2.33224,-0.335804 -4.71047,-0.602028 -6.93705,-1.412942 0,0 3.69658,-2.432215 3.69658,-2.432215 z"
       inkscape:connector-curvature="0"
       transform="translate(6.6292965,895.95426)" />
    <path
       style="fill:#0000ff;stroke-width:1.89999998;stroke-miterlimit:4;stroke-dasharray:7.6, 7.6;stroke-dashoffset:0"
       id="path3044"
       d="m 214.95793,57.488333 c -1.79552,-0.27019 -3.60419,-0.09419 -5.3759,0.240867 -0.62942,0.167741 -1.2831,0.315133 -1.88526,0.573963 -0.24207,0.104049 -0.92876,0.498151 -0.69769,0.371542 1.07799,-0.587078 2.15598,-1.174156 3.23397,-1.761234 -0.0693,0.116084 -0.18589,0.214857 -0.20799,0.348252 -0.0202,0.122171 0.0604,0.240191 0.0906,0.360286 0.1425,0.167203 0.26279,0.356228 0.42749,0.501609 0.95447,0.842501 2.22189,1.396346 3.34608,1.954033 1.50354,0.745873 1.96519,0.948665 3.52051,1.673068 3.08068,1.524082 6.28822,2.892813 9.10999,4.885212 0.43444,0.30675 0.83742,0.65579 1.25613,0.983685 0.82475,0.787174 2.24002,2.097019 1.45702,3.398305 -0.15149,0.251759 -0.3677,0.475336 -0.61906,0.62749 -1.50697,0.912218 -3.08607,1.699592 -4.6291,2.549388 -3.11231,0.767996 -6.34943,0.788401 -9.53712,0.870236 -1.87134,0.0117 -3.7431,0.01443 -5.57791,-0.385108 0,0 3.57096,-2.471276 3.57096,-2.471276 l 0,0 c 1.74052,0.437404 3.54098,0.426535 5.3259,0.432338 3.19617,-0.07759 6.47222,-0.09832 9.54434,-1.081426 -0.89392,0.562313 -1.78926,1.122395 -2.68178,1.686939 -0.15107,0.09556 0.8558,-0.27421 1.00947,-0.971926 0.21958,-0.996903 -0.80379,-1.839597 -1.36309,-2.457303 -0.396,-0.326674 -0.77488,-0.6753 -1.18801,-0.980021 -2.76083,-2.036351 -5.96293,-3.381801 -9.03347,-4.861564 -1.08734,-0.486741 -2.51821,-1.12187 -3.60773,-1.629814 -1.20539,-0.561967 -2.5721,-1.113212 -3.59574,-1.99364 -0.21199,-0.18233 -0.37174,-0.417785 -0.55761,-0.626677 -0.0783,-0.209326 -0.21873,-0.405075 -0.23485,-0.627979 -0.0137,-0.19014 -0.005,-0.440474 0.14952,-0.552019 1.31929,-0.951889 2.75558,-1.73096 4.15781,-2.555796 0.7837,-0.460999 1.73432,-0.578919 2.59507,-0.806169 1.85608,-0.302204 3.73439,-0.441148 5.61153,-0.243494 0,0 -3.6141,2.548233 -3.6141,2.548233 z"
       inkscape:connector-curvature="0"
       transform="translate(6.6292965,895.95426)" />
    <path
       style="fill:#0000ff;stroke-width:1.89999998;stroke-miterlimit:4;stroke-dasharray:7.6, 7.6;stroke-dashoffset:0"
       id="path3046"
       d="m 231.07734,60.473408 c -0.35968,-0.0041 -0.48198,-0.03387 -0.84387,0.09242 -0.15181,0.05298 -0.57332,0.291175 -0.43267,0.213261 1.1362,-0.629391 2.24343,-1.317118 3.41973,-1.867928 0.12176,-0.05701 -0.16825,0.223038 -0.1902,0.355682 -0.0287,0.173233 0.0297,0.34992 0.0445,0.52488 0.75169,1.845039 2.35194,3.315947 3.9645,4.430388 0.43456,0.30032 0.89721,0.557803 1.34581,0.836704 1.89015,0.906846 4.37868,2.067432 6.54075,1.557712 0.29539,-0.06964 0.56409,-0.224097 0.84613,-0.336145 -1.0092,0.535933 -1.9611,1.197596 -3.02761,1.607799 -0.23317,0.08968 0.3316,-0.382959 0.4347,-0.610512 0.51147,-1.128834 0.0354,-2.411109 -0.34615,-3.488136 -0.26878,-0.685014 -0.64777,-1.311812 -1.09362,-1.894225 -0.0823,-0.107487 -0.16506,-0.215407 -0.25965,-0.312243 -0.0389,-0.03984 -0.18528,-0.06562 -0.13772,-0.09457 1.26488,-0.769795 2.58108,-1.451903 3.87162,-2.177854 1.13757,1.565893 2.5379,2.924341 3.93549,4.254929 1.44631,1.297771 0.71535,0.662072 2.19255,1.907482 0,0 -3.52817,2.202266 -3.52817,2.202266 l 0,0 c -1.48117,-1.261504 -0.74412,-0.621104 -2.21087,-1.921527 -1.46473,-1.361621 -2.8998,-2.757291 -4.25539,-4.228387 1.25943,-0.784333 2.48261,-1.630111 3.77829,-2.352998 0.0628,-0.03503 0.0872,0.114372 0.12795,0.173615 0.0793,0.115331 0.15583,0.232532 0.23197,0.349962 0.41796,0.644604 0.81186,1.304322 1.08069,2.028307 0.42258,1.190914 0.92222,2.527062 0.54432,3.806487 -0.0807,0.273146 -0.1429,0.602318 -0.37461,0.767932 -1.37336,0.981604 -2.89559,1.736158 -4.34338,2.604237 -0.29404,0.0764 -0.58084,0.190022 -0.8821,0.229202 -2.24019,0.291347 -4.65347,-0.877728 -6.59252,-1.838748 -2.23435,-1.40259 -4.5042,-3.019467 -5.67687,-5.464934 -0.0555,-0.232442 -0.15343,-0.458708 -0.16645,-0.697324 -0.10363,-1.898803 3.65364,-3.315024 5.61692,-3.205967 0,0 -3.61409,2.548233 -3.61409,2.548233 z"
       inkscape:connector-curvature="0"
       transform="translate(6.6292965,895.95426)" />
    <path
       style="fill:#0000ff;stroke-width:1.89999998;stroke-miterlimit:4;stroke-dasharray:7.6, 7.6;stroke-dashoffset:0"
       id="path3048"
       d="m 258.7594,57.680828 c 0.98936,1.354791 1.79162,2.821175 2.53029,4.323341 0.57383,1.17181 1.13429,2.351558 1.62325,3.561386 0,0 -3.76073,2.090897 -3.76073,2.090897 l 0,0 c -0.43024,-1.220006 -0.96112,-2.402671 -1.5454,-3.556932 -0.73575,-1.471373 -1.54297,-2.915078 -2.64772,-4.147315 0,0 3.80031,-2.271377 3.80031,-2.271377 z"
       inkscape:connector-curvature="0"
       transform="translate(6.6292965,895.95426)" />
    <path
       style="fill:#0000ff;stroke-width:1.89999998;stroke-miterlimit:4;stroke-dasharray:7.6, 7.6;stroke-dashoffset:0"
       id="path3050"
       d="m 250.40539,61.375499 c 3.13962,-2.215721 5.68657,-3.41423 9.23727,-4.239505 1.38863,-0.19667 3.64562,-0.622229 4.86009,0.358296 0.16813,0.135742 0.2757,0.332806 0.41356,0.49921 0.0621,0.199046 0.16148,0.390111 0.18626,0.597139 0.12997,1.085795 -0.56642,2.176644 -0.94625,3.146699 -0.0453,0.16654 -0.18744,0.541248 -0.11967,0.748101 0.12554,0.383144 1.6392,0.459891 1.91624,0.489924 2.10014,0.105955 4.15465,0.114218 6.22607,0.517378 0.66818,0.16973 2.43942,0.647687 1.95582,1.73671 -0.0799,0.180017 -0.24822,0.305904 -0.37232,0.458856 -1.44892,0.835678 -2.87386,1.714371 -4.34675,2.507035 -0.3767,0.202732 -1.54419,0.472013 -1.90931,0.554983 -1.24372,0.282631 -2.49188,0.466709 -3.75558,0.630844 -1.43206,0.166315 -2.87101,0.25783 -4.30949,0.345794 0,0 3.46468,-2.543499 3.46468,-2.543499 l 0,0 c 1.40362,-0.05226 2.80697,-0.131927 4.20111,-0.310986 1.26698,-0.181013 2.52164,-0.375231 3.76078,-0.704088 0.35319,-0.09373 0.70581,-0.192162 1.05031,-0.313992 0.29463,-0.104191 1.12413,-0.536809 0.86435,-0.3631 -0.98911,0.661398 -2.04194,1.222152 -3.06291,1.833228 0.0934,-0.04864 0.56348,-0.228895 0.61874,-0.431509 0.14155,-0.518995 -1.40212,-0.878786 -1.663,-0.955197 -2.05751,-0.391405 -4.14355,-0.369053 -6.22907,-0.475739 -0.73855,-0.0898 -1.98647,-0.101446 -2.31696,-0.964161 -0.11624,-0.303421 0.0129,-0.643624 0.0783,-0.93106 0.31636,-0.806379 1.05755,-2.059558 1.06232,-2.896973 8.4e-4,-0.147966 -0.0578,-0.29024 -0.0867,-0.43536 -0.10205,-0.121762 -0.17948,-0.269386 -0.30614,-0.365287 -1.13375,-0.858425 -3.31426,-0.383192 -4.573,-0.183477 -1.18839,0.303715 -2.33439,0.63351 -3.46085,1.126852 -0.30558,0.13383 -1.18512,0.609734 -0.9026,0.432329 1.8564,-1.165713 4.24677,-2.400221 2.55996,-1.522438 0,0 -4.09531,1.652993 -4.09531,1.652993 z"
       inkscape:connector-curvature="0"
       transform="translate(6.6292965,895.95426)" />
    <path
       style="fill:#0000ff;stroke-width:1.89999998;stroke-miterlimit:4;stroke-dasharray:7.6, 7.6;stroke-dashoffset:0"
       id="path3052"
       d="m 276.77855,60.172923 c -1.05652,-0.166543 -2.04954,-0.0077 -2.96204,0.550876 8.61139,-4.689328 2.14679,-2.39673 3.32945,-0.957508 0.22312,0.27153 0.78155,0.587625 1.03839,0.752076 2.1352,1.045067 4.39452,1.801003 6.5877,2.712169 0.70297,0.385183 1.53661,0.598755 2.18947,1.081908 0.0165,0.01222 0.57802,0.500697 0.36231,0.659289 -1.26872,0.932755 -2.6654,1.677596 -3.9981,2.516394 -1.83209,0.173962 -3.66576,0.344992 -5.49235,0.573259 -0.85042,0.126366 -1.68497,0.293413 -2.5075,0.540245 0,0 3.43602,-2.634263 3.43602,-2.634263 l 0,0 c 0.81664,-0.184561 1.63924,-0.331697 2.47016,-0.438704 1.0751,-0.127296 2.15178,-0.238558 3.22673,-0.367067 0.45616,-0.05453 1.27762,-0.143079 1.74583,-0.25266 0.18909,-0.04425 0.36939,-0.120031 0.55409,-0.180046 -1.13643,0.734861 -2.27919,1.460024 -3.40929,2.204584 -0.0386,0.02542 0.13939,6.53e-4 0.13119,-0.04482 -0.0323,-0.17888 -0.59636,-0.491498 -0.62262,-0.507054 -0.60833,-0.360339 -0.92814,-0.491729 -1.59523,-0.810042 -2.21475,-0.954218 -4.51809,-1.688679 -6.69675,-2.724808 -0.69097,-0.434645 -1.62025,-0.934548 -1.54085,-1.905456 0.0124,-0.151585 0.0116,-0.348143 0.13607,-0.435513 1.30305,-0.914493 2.70825,-1.674004 4.06238,-2.511006 1.0118,-0.418975 2.09598,-0.523381 3.1813,-0.366127 0,0 -3.62636,2.544278 -3.62636,2.544278 z"
       inkscape:connector-curvature="0"
       transform="translate(6.6292965,895.95426)" />
    <path
       style="fill:#0000ff;stroke-width:1.89999998;stroke-miterlimit:4;stroke-dasharray:7.6, 7.6;stroke-dashoffset:0"
       id="path3054"
       d="m 297.16709,58.543149 c -0.33181,1.794941 -0.16591,3.591138 0.21083,5.360603 0.48365,1.980387 1.44326,3.778491 2.58108,5.452819 0.44134,0.493411 0.21565,0.297691 0.65117,0.615783 0,0 -3.72885,2.321788 -3.72885,2.321788 l 0,0 c -0.43313,-0.433265 -0.21122,-0.184142 -0.64816,-0.762664 -1.07562,-1.769173 -2.0589,-3.608014 -2.58039,-5.626509 -0.40726,-1.781456 -0.61025,-3.578098 -0.44351,-5.406816 0,0 3.95783,-1.955004 3.95783,-1.955004 z"
       inkscape:connector-curvature="0"
       transform="translate(6.6292965,895.95426)" />
    <path
       style="fill:#0000ff;stroke-width:1.89999998;stroke-miterlimit:4;stroke-dasharray:7.6, 7.6;stroke-dashoffset:0"
       id="path3056"
       d="m 282.42062,59.279378 c -0.36038,-0.04144 -0.72103,-0.148936 -1.08683,-0.09256 -0.0397,0.0061 -0.14195,0.07508 -0.10845,0.05284 3.99364,-2.651701 2.33548,-2.815034 4.47401,-2.406305 4.66788,0.569644 9.38458,0.572056 14.0793,0.505806 4.09577,-0.05452 8.18753,-0.305144 12.2561,-0.775831 0,0 -3.28532,2.437731 -3.28532,2.437731 l 0,0 c -4.00543,0.342066 -8.02249,0.528901 -12.04247,0.576691 -4.84806,0.07342 -9.70593,0.08247 -14.54511,-0.257976 -0.248,-0.03212 -0.91733,0.08386 -0.74398,-0.09637 2.74119,-2.849947 2.34042,-2.764656 4.61684,-2.492255 0,0 -3.61409,2.548233 -3.61409,2.548233 z"
       inkscape:connector-curvature="0"
       transform="translate(6.6292965,895.95426)" />
    <path
       style="fill:#0000ff;stroke-width:1.89999998;stroke-miterlimit:4;stroke-dasharray:7.6, 7.6;stroke-dashoffset:0"
       id="path3058"
       d="m 157.34989,76.687542 c -0.60466,-0.673926 -1.34807,-1.19948 -2.04545,-1.770506 -0.0443,-0.02985 -0.17971,-0.06356 -0.13301,-0.08955 1.32449,-0.737135 2.61424,-1.573578 4.04101,-2.085419 0.21274,-0.07632 0.33284,0.305908 0.50221,0.455573 0.98306,0.868701 2.0063,1.68431 3.03229,2.501359 3.90008,3.132867 8.07508,5.885401 12.34046,8.488446 4.64913,2.765108 9.50267,5.157686 14.39545,7.454727 2.22514,1.01253 4.44814,2.029353 6.66079,3.068936 1.65321,0.909309 1.93933,-0.700001 -3.3522,2.577368 0,0 3.76124,-2.391978 3.76124,-2.391978 l 0,0 c -3.95119,2.661572 -2.46414,3.279268 -4.05782,2.207478 -2.0626,-1.182218 -4.20297,-2.217384 -6.33378,-3.269353 -4.8329,-2.392877 -9.64834,-4.829972 -14.30146,-7.560992 -4.32011,-2.605736 -8.54401,-5.364146 -12.59283,-8.378157 -1.07909,-0.793574 -2.153,-1.591848 -3.21872,-2.403173 -0.18783,-0.142991 -0.72841,-0.257093 -0.56479,-0.42726 3.03168,-3.153112 2.53198,-3.654064 3.55672,-2.476282 0.66742,0.603005 1.38584,1.147141 2.05901,1.743865 0,0 -3.74912,2.35492 -3.74912,2.35492 z"
       inkscape:connector-curvature="0"
       transform="translate(6.6292965,895.95426)" />
    <path
       style="fill:#0000ff;stroke-width:1.89999998;stroke-miterlimit:4;stroke-dasharray:7.6, 7.6;stroke-dashoffset:0"
       id="path3060"
       d="m 192.8198,89.102301 c 1.78657,0.706844 3.46391,1.652076 5.09402,2.661282 1.93492,1.253795 3.75307,2.669364 5.28791,4.394216 0.25597,0.373193 0.50117,0.63273 0.58248,1.088717 0.0433,0.242923 4.3e-4,0.733551 -0.25403,0.892133 -3.94239,2.456951 -2.74398,2.203621 -5.05836,2.500581 -2.80877,0.15626 -5.62219,0.23929 -8.43458,0.31022 -2.48385,0.10596 -4.96734,0.0562 -7.45024,-0.0376 -0.47529,-0.083 -1.01976,-0.0534 -1.44035,-0.32179 0,0 3.72967,-2.429099 3.72967,-2.429099 l 0,0 c 0.38842,0.14729 0.81023,0.179577 1.21816,0.232672 2.41696,0.18445 4.83962,0.224539 7.26237,0.130213 2.85127,-0.08297 5.71348,-0.156096 8.54866,-0.479054 2.00516,-0.505763 0.90095,-0.309481 -2.42618,1.777582 -0.0549,0.03443 0.46078,-0.09179 0.47623,-0.475565 0.0144,-0.357458 -0.26902,-0.702596 -0.43347,-0.972866 -1.43893,-1.747598 -3.22444,-3.126794 -5.13449,-4.331552 -1.64797,-0.982052 -3.35387,-1.93037 -5.21496,-2.442287 0,0 3.64716,-2.497773 3.64716,-2.497773 z"
       inkscape:connector-curvature="0"
       transform="translate(6.6292965,895.95426)" />
    <path
       style="fill:#0000ff;stroke-width:1.89999998;stroke-miterlimit:4;stroke-dasharray:7.6, 7.6;stroke-dashoffset:0"
       id="path3080"
       d="m 203.67929,94.088624 c -0.0836,-0.714194 -0.14368,-1.429137 -0.29843,-2.132102 -0.1038,-0.436964 -0.18568,-0.8781 -0.25915,-1.321011 4.80154,-7.414181 3.88026,-0.915138 3.77812,0.407694 -0.24451,2.794234 -0.37083,5.588706 -0.30863,8.393092 0.0726,2.319373 0.42292,4.612973 1.18728,6.804803 0.26349,0.65658 0.13436,0.35642 0.38109,0.90316 0,0 -3.82848,2.13909 -3.82848,2.13909 l 0,0 c -0.21115,-0.5902 -0.10008,-0.268 -0.32889,-0.96808 -0.66954,-2.27611 -1.03062,-4.6165 -1.09448,-6.99147 -0.0663,-2.789577 0.0283,-5.57097 0.16429,-8.356946 0.0222,-0.661659 0.0592,-1.320394 0.0324,-1.98202 -0.004,-0.09549 -0.0942,-0.235477 -0.0133,-0.286381 3.94531,-2.483132 3.7618,-3.691868 3.97116,-2.131363 0.0342,0.439353 0.1032,0.874602 0.20039,1.304522 0.15582,0.708851 0.20261,1.426907 0.32999,2.140982 0,0 -3.91329,2.07603 -3.91329,2.07603 z"
       inkscape:connector-curvature="0"
       transform="translate(6.6292965,895.95426)" />
    <path
       style="fill:#0000ff;stroke-width:1.89999998;stroke-miterlimit:4;stroke-dasharray:7.6, 7.6;stroke-dashoffset:0"
       id="path3082"
       d="m 196.32663,94.235188 c 0.48275,-0.62185 1.12038,-1.096118 1.79727,-1.490239 3.59728,-2.094499 4.21398,-2.636231 7.4523,-3.678101 2.03459,-0.49888 4.74168,-1.192203 6.8105,-0.509538 0.29368,0.09691 0.5549,0.273207 0.83235,0.409811 0.18196,0.19481 0.41349,0.353064 0.5459,0.584431 0.88386,1.544424 -0.6692,3.432379 -1.48529,4.61322 -0.5811,0.83561 -1.30682,1.568808 -1.85077,2.431619 -0.13027,0.206637 -0.40652,0.659636 -0.36524,0.964855 0.0123,0.09126 0.10298,0.15271 0.15447,0.229065 0.14253,0.05378 0.28039,0.122105 0.42759,0.161327 0.66528,0.177268 0.94767,0.165259 1.66798,0.208126 1.16299,0.06921 2.32727,0.09868 3.49072,0.159552 1.10765,0.165526 3.39633,0.212772 3.82826,1.5806 0.0673,0.213114 0.0274,0.446134 0.0412,0.669194 -0.0951,0.24437 -0.15293,0.50671 -0.2852,0.73312 -0.55596,0.9516 -1.5825,1.75728 -2.50626,2.31713 -4.30036,2.60624 -3.38487,2.12964 -6.17662,3.43081 -2.73243,1.1399 -5.61733,1.8396 -8.55606,2.15192 -1.26912,0.0235 -0.66482,0.0323 -1.81304,-0.0155 0,0 3.49229,-2.51437 3.49229,-2.51437 l 0,0 c 1.08202,0.0484 0.51237,0.0404 1.70906,0.0124 2.89865,-0.31281 5.73896,-1.03105 8.40866,-2.21844 0.454,-0.22439 1.77427,-0.96727 1.36199,-0.67318 -0.73279,0.52271 -1.5287,0.95502 -2.33052,1.36405 -0.37379,0.19068 0.70577,-0.45536 1.04182,-0.70666 0.70568,-0.5277 1.36422,-1.12085 1.76737,-1.91646 0.0254,-0.1488 0.10297,-0.2978 0.0763,-0.44638 -0.19791,-1.10305 -2.70841,-1.19855 -3.48071,-1.30824 -1.17751,-0.0552 -2.35898,-0.0656 -3.53525,-0.1424 -0.5964,-0.039 -1.27025,-0.0684 -1.83989,-0.29489 -0.21104,-0.0839 -0.38893,-0.23462 -0.58339,-0.351926 -0.0929,-0.163218 -0.23739,-0.306452 -0.27873,-0.489654 -0.24041,-1.065305 1.72893,-2.848206 2.26506,-3.654929 0.61833,-0.859601 2.2784,-2.874823 1.66276,-4.050231 -0.0983,-0.187652 -0.2877,-0.310999 -0.43155,-0.466498 -0.24528,-0.114516 -0.47677,-0.265035 -0.73582,-0.343549 -2.02865,-0.614849 -4.62874,0.09851 -6.59824,0.622626 -0.48518,0.17131 -0.97798,0.322385 -1.45554,0.51393 -0.44118,0.176959 -1.6796,0.87402 -1.29804,0.590524 0.79044,-0.58729 1.68888,-1.013225 2.53806,-1.511838 0.4811,-0.282495 -0.96094,0.576871 -1.38622,0.937983 -0.11746,0.09973 -0.21947,0.216351 -0.3292,0.324527 0,0 -4.0503,1.772143 -4.0503,1.772143 z"
       inkscape:connector-curvature="0"
       transform="translate(6.6292965,895.95426)" />
    <path
       style="fill:#0000ff;stroke-width:1.89999998;stroke-miterlimit:4;stroke-dasharray:7.6, 7.6;stroke-dashoffset:0"
       id="path3084"
       d="m 219.64474,89.86144 c 0.92225,1.143216 2.11494,1.973086 3.36491,2.718173 0.97767,0.49847 2.24231,1.279581 3.40043,0.899465 0.14224,-0.04668 0.26097,-0.146768 0.39145,-0.220152 -8.79704,4.693888 -2.7726,2.576638 -3.1287,1.153898 -0.0479,-0.191279 -0.1746,-0.262863 -0.31242,-0.384642 -0.20482,-0.06809 -0.28265,-0.145384 -0.49147,-0.0064 -0.0975,0.06488 -0.34755,0.306855 -0.2433,0.25349 1.16636,-0.59704 2.24426,-1.368712 3.44529,-1.892531 0.18645,-0.08132 -0.22646,0.340088 -0.31051,0.52532 -0.1071,0.236036 -0.17354,0.488482 -0.26032,0.732723 -0.60432,2.399793 -0.52121,4.904944 -0.43234,7.358566 0.0547,2.11565 0.346,4.2114 0.93067,6.24474 0.0725,0.17983 0.14504,0.35965 0.21756,0.53948 0,0 -3.79735,2.11109 -3.79735,2.11109 l 0,0 c -0.0701,-0.19722 -0.14011,-0.39445 -0.21017,-0.59167 -0.53152,-2.09202 -0.79905,-4.23712 -0.85028,-6.39535 -0.10236,-2.47273 -0.20212,-4.982406 0.25047,-7.427513 0.0116,-0.04478 0.30505,-1.289452 0.43137,-1.384251 1.27172,-0.954367 2.65303,-1.754834 4.01417,-2.57666 0.11344,-0.0685 0.25651,-0.08298 0.38903,-0.08191 0.29852,0.0024 0.43731,0.13787 0.67309,0.287879 2.06252,2.223348 -2.45385,3.511628 -3.75973,4.235169 -0.15211,0.03522 -0.30097,0.09008 -0.45633,0.10566 -1.248,0.125181 -2.43399,-0.598233 -3.47799,-1.167495 -1.279,-0.787469 -2.50059,-1.645367 -3.55747,-2.7207 0,0 3.77994,-2.316351 3.77994,-2.316351 z"
       inkscape:connector-curvature="0"
       transform="translate(6.6292965,895.95426)" />
    <path
       style="fill:#0000ff;stroke-width:1.89999998;stroke-miterlimit:4;stroke-dasharray:7.6, 7.6;stroke-dashoffset:0"
       id="path3086"
       d="m 241.75628,93.307583 c 0.9795,2.093752 1.57575,4.335814 2.1873,6.556728 0.4241,1.562179 0.88599,3.113349 1.3103,4.675479 0,0 -3.74854,2.02725 -3.74854,2.02725 l 0,0 c -0.36276,-1.58299 -0.78551,-3.14977 -1.21225,-4.71663 -0.60484,-2.168427 -1.18522,-4.394497 -2.36073,-6.337358 0,0 3.82392,-2.205469 3.82392,-2.205469 z"
       inkscape:connector-curvature="0"
       transform="translate(6.6292965,895.95426)" />
    <path
       style="fill:#0000ff;stroke-width:1.89999998;stroke-miterlimit:4;stroke-dasharray:7.6, 7.6;stroke-dashoffset:0"
       id="path3088"
       d="m 230.66142,93.647971 c 0.0712,-0.04139 3.35391,-2.150002 4.84202,-2.722526 1.77587,-0.683231 3.64341,-0.966163 5.5159,-1.236623 3.24148,-0.269615 6.56561,-0.401459 9.7801,0.21965 0.53039,0.102484 1.04809,0.262249 1.57214,0.393374 1.0333,0.3992 2.99559,0.975723 3.25742,2.301079 0.13281,0.672235 -0.17659,0.92469 -0.50682,1.465333 -0.83247,0.737485 -0.76382,0.750137 -1.79165,1.329803 -1.58714,0.895094 -3.17176,1.796544 -4.7913,2.63157 -1.09422,0.564171 -2.54806,0.909488 -3.73667,1.24437 -0.33862,0.0825 -0.67725,0.164989 -1.01588,0.247483 0,0 3.37973,-2.58088 3.37973,-2.58088 l 0,0 c 0.32497,-0.07886 0.64995,-0.157728 0.97492,-0.236592 0.98692,-0.283168 1.41814,-0.386431 2.40201,-0.758355 0.42914,-0.162227 1.62172,-0.823128 1.27162,-0.526616 -0.72387,0.61309 -1.62406,0.981449 -2.41929,1.498636 -0.59071,0.384172 2.24476,-1.281236 1.7783,-1.14295 0.21987,-0.244856 0.68765,-0.630032 0.67913,-1.044421 -0.0232,-1.125145 -2.11919,-1.776561 -2.88004,-2.085151 -0.50409,-0.127781 -1.00191,-0.283558 -1.51228,-0.383344 -3.19113,-0.623921 -6.49705,-0.469739 -9.70752,-0.121417 -1.57936,0.267679 -3.12364,0.541692 -4.6394,1.075567 -0.33357,0.117485 -0.66084,0.253064 -0.98386,0.397023 -0.23567,0.105027 -0.91088,0.48385 -0.69074,0.349285 1.09966,-0.672191 2.22067,-1.308807 3.33101,-1.963211 0,0 -4.10885,1.648913 -4.10885,1.648913 z"
       inkscape:connector-curvature="0"
       transform="translate(6.6292965,895.95426)" />
    <path
       style="fill:#0000ff;stroke-width:1.89999998;stroke-miterlimit:4;stroke-dasharray:7.6, 7.6;stroke-dashoffset:0"
       id="path3090"
       d="m 263.41128,94.336535 c -1.31148,1.849737 -2.12035,3.991078 -2.97305,6.075735 -1.14054,2.74087 -2.04658,5.56574 -2.66044,8.46925 -0.29076,-1.20818 -0.0433,1.12882 -0.0552,0.84635 -0.005,-0.13015 0.0816,-0.43827 -0.039,-0.38886 -1.22361,0.50157 -2.26702,1.39967 -3.51234,1.8446 -0.25641,0.0916 0.26633,-0.47584 0.37725,-0.7245 0.15034,-0.33704 0.27032,-0.68683 0.40547,-1.03024 1.06662,-3.21137 1.73769,-6.53376 2.42815,-9.840887 0.50109,-2.167064 0.64854,-4.394436 1.07623,-6.573375 0.4798,-1.881432 1.43977,-1.596308 4.35208,-2.576555 0.15043,-0.05063 1.14183,1.751638 1.21038,1.877393 1.27367,2.581735 2.44843,5.21008 3.70215,7.801874 0.82891,1.72478 0.42355,0.88359 1.21582,2.52369 0,0 -3.64184,2.0616 -3.64184,2.0616 l 0,0 c -0.75518,-1.65798 -0.36494,-0.80996 -1.17175,-2.54358 -1.24108,-2.581331 -2.41673,-5.200094 -3.80687,-7.705358 -0.28474,-0.462812 -0.51594,-0.895721 -0.87777,-1.299375 -0.0869,-0.0969 -0.4033,-0.176565 -0.29768,-0.252592 1.14325,-0.822938 2.4426,-1.405062 3.6373,-2.151339 0.0694,-0.04336 -0.18436,-0.02517 -0.24352,0.0314 -0.0936,0.08954 -0.10656,0.236204 -0.15985,0.354306 -0.64742,2.172686 -0.73951,4.476871 -1.30902,6.670157 -0.7105,3.287224 -1.37544,6.587714 -2.27504,9.830124 -0.11119,0.34473 -0.21474,0.69202 -0.33356,1.03419 -0.0874,0.25178 -0.0757,0.58206 -0.28497,0.74707 -0.22474,0.17718 -3.58136,3.72147 -4.36666,2.34348 -0.10926,-0.1917 0.11967,-0.99085 0.12844,-1.03168 0.74253,-2.92194 1.65482,-5.79315 2.7768,-8.59355 0.78856,-2.03438 1.50479,-4.133949 2.64673,-6.003541 0,0 4.05173,-1.795784 4.05173,-1.795784 z"
       inkscape:connector-curvature="0"
       transform="translate(6.6292965,895.95426)" />
    <path
       style="fill:#0000ff;stroke-width:1.89999998;stroke-miterlimit:4;stroke-dasharray:7.6, 7.6;stroke-dashoffset:0"
       id="path3092"
       d="m 257.01478,102.36221 c 2.1968,-0.10939 4.39466,0.023 6.59292,0.006 1.98662,-0.0347 0.99575,-0.002 2.97261,-0.0989 0,0 -3.34761,2.45546 -3.34761,2.45546 l 0,0 c -1.98439,0.0826 -0.98891,0.0525 -2.98647,0.0897 -2.25527,0.0189 -4.52383,-0.10329 -6.76754,0.17664 0,0 3.53609,-2.62939 3.53609,-2.62939 z"
       inkscape:connector-curvature="0"
       transform="translate(6.6292965,895.95426)" />
    <path
       style="fill:#0000ff;stroke-width:1.89999998;stroke-miterlimit:4;stroke-dasharray:7.6, 7.6;stroke-dashoffset:0"
       id="path3094"
       d="m 274.74836,94.121923 c -0.39567,2.107055 -0.14762,4.265219 0.0806,6.376277 0.19165,1.69641 0.58075,3.35728 0.9749,5.01489 0,0 -3.72927,2.00502 -3.72927,2.00502 l 0,0 c -0.35618,-1.68719 -0.72239,-3.37384 -0.93146,-5.08754 -0.26631,-2.12031 -0.52537,-4.254488 -0.36271,-6.395002 0,0 3.96791,-1.913645 3.96791,-1.913645 z"
       inkscape:connector-curvature="0"
       transform="translate(6.6292965,895.95426)" />
    <path
       style="fill:#0000ff;stroke-width:1.89999998;stroke-miterlimit:4;stroke-dasharray:7.6, 7.6;stroke-dashoffset:0"
       id="path3096"
       d="m 266.46536,94.851556 c 0.56091,-0.6894 1.27414,-1.242568 2.0524,-1.668123 4.70892,-2.574846 2.91518,-2.090161 5.59039,-2.666812 1.74831,-0.184014 3.76906,-0.147467 5.27111,0.912822 0.25472,0.179804 0.45884,0.422267 0.68826,0.633401 0.15457,0.262674 0.35482,0.503362 0.46371,0.788024 0.76031,1.987578 -0.88253,3.810299 -2.06236,5.192686 -1.62738,1.769457 -3.61124,3.165256 -5.2418,4.928726 -0.1326,0.20669 -0.38523,0.47354 -0.33594,0.7651 0.0928,0.54889 1.57285,1.03798 1.97376,1.19222 2.24463,0.73531 4.5861,1.11494 6.92296,1.41449 1.40841,0.14101 0.72134,0.0967 2.0607,0.14047 0,0 -3.46171,2.48847 -3.46171,2.48847 l 0,0 c -1.33063,-0.0912 -0.6491,-0.0276 -2.04405,-0.19617 -2.37022,-0.33859 -4.74724,-0.73277 -7.03355,-1.46034 -0.80699,-0.3174 -2.67059,-0.89065 -2.34087,-2.1357 0.0523,-0.1975 0.19157,-0.36091 0.28736,-0.54137 1.63065,-1.8222 3.69281,-3.19562 5.37116,-4.973663 1.02073,-1.145165 2.79398,-2.940399 2.18909,-4.668029 -0.0864,-0.246753 -0.2608,-0.453194 -0.39121,-0.679791 -0.20363,-0.184231 -0.38328,-0.399075 -0.61089,-0.552692 -1.46301,-0.987386 -3.4239,-0.924396 -5.08212,-0.668486 -2.12592,0.592616 -1.0516,0.393168 1.79377,-1.452268 0.23054,-0.149525 -0.49304,0.244847 -0.72574,0.390992 -0.0843,0.05294 -0.88713,0.65505 -1.01115,0.772253 -0.0957,0.09045 -0.16795,0.202903 -0.25193,0.304354 0,0 -4.07135,1.739436 -4.07135,1.739436 z"
       inkscape:connector-curvature="0"
       transform="translate(6.6292965,895.95426)" />
    <path
       style="fill:#0000ff;stroke-width:1.89999998;stroke-miterlimit:4;stroke-dasharray:7.6, 7.6;stroke-dashoffset:0"
       id="path3098"
       d="m 290.94287,94.952341 c 0.0546,2.252107 0.36506,4.480476 0.71833,6.701579 0.41414,2.52016 1.12243,4.96642 2.04346,7.34385 0.0842,0.18877 0.16839,0.37753 0.25259,0.56629 0,0 -3.78904,2.11436 -3.78904,2.11436 l 0,0 c -0.0707,-0.20195 -0.14137,-0.40391 -0.21206,-0.60586 -0.80307,-2.45175 -1.52032,-4.92681 -1.96229,-7.47366 -0.37684,-2.19344 -0.71016,-4.390506 -0.95487,-6.602704 0,0 3.90388,-2.043855 3.90388,-2.043855 z"
       inkscape:connector-curvature="0"
       transform="translate(6.6292965,895.95426)" />
    <path
       style="fill:#0000ff;stroke-width:1.89999998;stroke-miterlimit:4;stroke-dasharray:7.6, 7.6;stroke-dashoffset:0"
       id="path3100"
       d="m 281.58355,93.518786 c 3.2836,0.285341 6.5859,0.313778 9.87987,0.301562 0.79151,-0.01111 1.58302,-0.02222 2.37453,-0.03333 0,0 -3.19589,2.32914 -3.19589,2.32914 l 0,0 c -0.79489,0.01223 -1.58978,0.02447 -2.38468,0.0367 -3.41635,0.03169 -6.83432,0.02062 -10.24942,-0.08546 0,0 3.57559,-2.548614 3.57559,-2.548614 z"
       inkscape:connector-curvature="0"
       transform="translate(6.6292965,895.95426)" />
    <path
       style="fill:#0000ff;stroke-width:1.89999998;stroke-miterlimit:4;stroke-dasharray:7.6, 7.6;stroke-dashoffset:0"
       id="path3102"
       d="m 309.73674,95.462819 c 0.54371,-0.536342 1.02633,-1.258627 0.99626,-2.058167 -0.006,-0.149209 -0.0578,-0.292978 -0.0867,-0.439467 -0.0783,-0.112556 -0.13328,-0.245644 -0.23493,-0.337669 -0.89356,-0.808952 -2.69225,-0.124176 -3.62831,0.211754 -2.70412,1.463038 1.1654,-0.739162 1.80084,-0.998749 0.29736,-0.121474 -0.49242,0.416623 -0.70248,0.659624 -0.70063,0.81048 -0.73818,1.23503 -0.70212,2.245226 0.0857,0.260558 0.13454,0.536264 0.25704,0.781674 0.80749,1.617731 2.73066,2.631051 4.23507,3.469326 1.96626,0.959826 3.9618,1.852369 5.78737,3.066359 0.77218,0.60151 1.76989,1.3841 1.62626,2.50249 -0.0246,0.1912 -0.11136,0.36911 -0.16705,0.55367 -0.37305,0.65621 -0.90834,1.18442 -1.56284,1.56475 -3.25326,1.89047 -3.77232,2.46514 -6.62858,3.11871 -2.35411,0.46062 -4.74066,0.47652 -7.09978,0.0791 -0.66466,-0.17589 -1.40353,-0.31905 -1.96568,-0.75114 -0.11923,-0.0916 -0.20462,-0.22043 -0.30693,-0.33064 0,0 3.7572,-2.27809 3.7572,-2.27809 l 0,0 c 0.50789,0.57487 1.28897,0.73474 2.00785,0.91007 2.31951,0.38707 4.66551,0.32815 6.96454,-0.19677 0.36809,-0.10038 0.74158,-0.1827 1.10427,-0.30113 0.33204,-0.10842 1.26104,-0.58205 0.97714,-0.37854 -0.88946,0.63762 -1.87357,1.13163 -2.81235,1.69413 -0.0844,0.0506 0.61105,-0.27953 1.21528,-0.86115 0.14109,-0.13581 0.25803,-0.29464 0.38705,-0.44196 0.076,-0.13433 0.17846,-0.25683 0.22809,-0.40299 0.31804,-0.93652 -0.7487,-1.67604 -1.34235,-2.16812 -1.783,-1.23418 -3.75541,-2.11692 -5.68897,-3.08631 -1.6398,-0.91999 -3.54956,-1.951203 -4.46562,-3.689597 -0.14529,-0.275709 -0.2148,-0.585117 -0.32219,-0.877675 -0.0725,-0.772415 -0.1852,-1.016211 0.10865,-1.770247 0.17718,-0.454662 0.75441,-1.290742 1.16164,-1.5602 3.31099,-2.190829 3.2346,-2.112507 5.50471,-3.15763 1.23638,-0.374662 2.98591,-0.920472 4.04205,0.184588 0.13175,0.137857 0.20749,0.320006 0.31123,0.480008 0.0444,0.182783 0.11228,0.361423 0.13332,0.548349 0.095,0.843876 -0.28268,1.673071 -0.79318,2.319864 0,0 -4.09576,1.696519 -4.09576,1.696519 z"
       inkscape:connector-curvature="0"
       transform="translate(6.6292965,895.95426)" />
    <path
       style="fill:#0000ff;stroke-width:1.89999998;stroke-miterlimit:4;stroke-dasharray:7.6, 7.6;stroke-dashoffset:0"
       id="path3104"
       d="m 287.11358,93.756101 c 1.26072,0.03032 2.52204,0.0315 3.78306,0.03632 1.60747,0.0051 3.21495,1.92e-4 4.82242,-0.0055 1.30879,0.0013 2.61758,-0.0036 3.92635,-0.01165 0.71008,0.01599 1.41696,-0.113528 2.10668,-0.273542 0.0811,-0.038 0.29582,-0.03139 0.31574,-0.135409 0,0 -3.50526,2.783143 -3.50526,2.783143 l 0,0 c -0.10703,-0.04514 -0.23524,0.02434 -0.34819,0.02789 -0.69278,0.107836 -1.39128,0.19282 -2.09414,0.159101 -1.29808,-0.0081 -2.59618,-0.01293 -3.89429,-0.01165 -1.60244,-0.0057 -3.2049,-0.01053 -4.80735,-0.0055 -1.29436,0.0049 -2.58897,0.0066 -3.88304,0.03632 0,0 3.57802,-2.599585 3.57802,-2.599585 z"
       inkscape:connector-curvature="0"
       transform="translate(6.6292965,895.95426)" />
    <path
       style="fill:#0000ff;stroke-width:1.89999998;stroke-miterlimit:4;stroke-dasharray:7.6, 7.6;stroke-dashoffset:0"
       id="path3106"
       d="m 306.02071,70.480884 c -0.31884,-0.189354 -0.71716,-0.362377 -1.08189,-0.175247 -0.0718,0.03682 -0.25931,0.190482 -0.18882,0.1513 1.21441,-0.674966 2.41558,-1.373478 3.62337,-2.060217 -0.037,-0.03638 -0.31326,0.172422 -0.0826,0.189382 0.0727,0.0053 0.13434,-0.05774 0.20435,-0.07817 0.0495,-0.01011 0.10323,-0.0079 0.1485,-0.03032 0.0912,-0.04522 0.31969,-0.250328 0.23162,-0.199204 -1.23399,0.726844 -2.46799,1.453688 -3.70198,2.180532 0.0192,-0.01447 0.0384,-0.02894 0.0576,-0.04341 0.008,0.0037 0.0165,0.0074 0.0248,0.01108 -0.15715,0.0028 -0.32717,0.08262 -0.46881,0.166265 -1.09412,0.646161 2.21693,-1.242494 3.32186,-1.87 -0.26235,0.174137 -0.7944,0.709158 -0.35421,0.960467 0.42617,0.150579 0.80223,0.0439 1.17433,-0.183158 0.10236,-0.06246 0.40577,-0.25544 0.30122,-0.196696 -1.16984,0.657337 -2.33182,1.328553 -3.49773,1.99283 0.11833,-0.188715 0.67228,-0.441824 0.16651,-0.22504 0,0 3.60809,-2.579339 3.60809,-2.579339 l 0,0 c 0.57727,0.206173 0.81342,0.706443 0.31419,1.165944 -1.33896,0.801271 -2.6707,1.614738 -4.01689,2.403813 -0.57532,0.337225 -1.25408,0.302912 -1.80927,-0.04502 -0.54886,-0.583142 -0.47171,-1.066832 0.007,-1.6764 1.34051,-0.78206 2.6697,-1.583851 4.02152,-2.34618 0.23178,-0.130707 0.55899,-0.120871 0.79506,-0.01427 0.19244,0.0869 0.21141,0.147517 0.34463,0.307083 0.72378,1.768794 -2.59866,2.851104 -4.28116,2.810283 -0.47611,-0.143689 -0.79988,-0.579281 -0.63351,-1.082343 2.53651,-1.467003 3.29713,-3.084397 5.49327,-1.941472 0,0 -3.72092,2.407504 -3.72092,2.407504 z"
       inkscape:connector-curvature="0"
       transform="translate(6.6292965,895.95426)" />
    <path
       style="fill:#808000;stroke-width:1.89999998;stroke-miterlimit:4;stroke-dasharray:7.6, 7.6;stroke-dashoffset:0"
       id="path3108"
       d="m 69.310487,117.56378 c -0.689703,-0.74675 -1.408529,-1.46596 -2.122354,-2.18949 -0.772607,-0.81182 -1.430499,-1.72502 -2.073856,-2.64054 -0.972944,-1.72305 1.175051,-1.63413 3.743049,-2.83392 0.158227,-0.0739 0.303699,0.17272 0.452074,0.26483 0.737881,0.4581 0.780833,0.51276 1.565927,1.07848 2.988078,2.25001 5.942583,4.54365 8.93094,6.79372 2.136636,1.59285 4.370591,3.05 6.644132,4.43853 0.153934,0.0919 0.514326,0.33571 0.732089,0.38431 0.043,0.01 0.167469,-0.0491 0.129367,-0.027 -1.27504,0.73996 -2.563875,1.45588 -3.845812,2.18382 0,0 3.846955,-2.20087 3.846955,-2.20087 l 0,0 c -3.485087,2.43384 -2.606551,3.36722 -4.500065,1.99134 -2.14668,-1.5287 -4.326775,-3.01114 -6.420465,-4.61316 -2.986719,-2.2753 -5.953782,-4.58792 -9.080963,-6.66868 -0.45879,-0.28206 -1.10508,-0.72015 -1.639303,-0.92444 -0.124354,-0.0476 -0.499312,0.005 -0.392444,-0.0743 1.142451,-0.84881 2.396248,-1.53646 3.594372,-2.30469 -0.02408,0.0192 -0.0753,0.0269 -0.07223,0.0576 0.0085,0.0846 0.06758,0.15605 0.101374,0.23407 0.581104,0.92011 1.221726,1.81424 1.981548,2.59558 0.728929,0.71918 1.453647,1.44321 2.20561,2.13847 0,0 -3.77994,2.31635 -3.77994,2.31635 z"
       inkscape:connector-curvature="0"
       transform="translate(6.6292965,895.95426)" />
    <path
       style="fill:#808000;stroke-width:1.89999998;stroke-miterlimit:4;stroke-dasharray:7.6, 7.6;stroke-dashoffset:0"
       id="path3110"
       d="m 81.267205,111.70172 c -1.40551,1.46123 -2.880115,2.85301 -4.357956,4.24022 -1.866624,1.72854 -3.811353,3.37121 -5.673851,5.10417 -0.505396,0.55465 -1.124938,1.07256 -1.446012,1.76859 -0.01005,0.13598 -0.0072,0.14122 0.124293,0.13105 0,0 -3.714133,2.42668 -3.714133,2.42668 l 0,0 c -0.21696,-0.17512 -0.367661,-0.30177 -0.389199,-0.59593 -0.01262,-0.87692 0.984681,-1.49537 1.470879,-2.11024 1.894044,-1.74652 3.886951,-3.38412 5.772533,-5.1404 1.411123,-1.33877 2.850809,-2.66316 4.127939,-4.13186 0,0 4.085507,-1.69228 4.085507,-1.69228 z"
       inkscape:connector-curvature="0"
       transform="translate(6.6292965,895.95426)" />
    <path
       style="fill:#808000;stroke-width:1.89999998;stroke-miterlimit:4;stroke-dasharray:7.6, 7.6;stroke-dashoffset:0"
       id="path3112"
       d="m 72.317621,111.43211 c -0.114854,-0.36209 -0.217314,-0.73151 -0.360738,-1.08396 -0.01585,-0.0389 -0.06683,-0.15363 -0.05606,-0.11299 0.01949,0.0735 0.055,0.14183 0.08251,0.21275 1.26618,-0.72948 2.486321,-1.54545 3.798541,-2.18843 0.09377,-0.0459 0.01457,0.20865 0.0316,0.31168 0.02747,0.16622 0.06269,0.33119 0.101728,0.49508 0.207589,0.87141 0.477745,1.72782 0.738797,2.58403 0.731706,2.34151 1.559245,4.64828 2.479036,6.92199 0.394933,1.14869 1.110948,2.13555 1.666628,3.20022 0.01906,0.0353 0.03813,0.0705 0.05719,0.10576 0,0 -3.890535,2.16679 -3.890535,2.16679 l 0,0 c -0.0076,-0.0337 -0.01525,-0.0674 -0.02287,-0.10116 -0.122582,-0.34906 -0.314566,-0.66756 -0.477341,-0.99953 -0.371213,-0.75707 -0.727866,-1.52216 -1.029822,-2.30999 -0.883481,-2.29604 -1.692554,-4.61671 -2.500911,-6.93996 -0.291932,-0.84826 -0.587559,-1.69713 -0.860288,-2.55185 -0.05226,-0.16377 -0.09691,-0.32987 -0.145018,-0.49491 -0.03377,-0.11585 -0.196607,-0.27465 -0.100603,-0.34776 1.19658,-0.91125 2.522818,-1.63832 3.784227,-2.45748 0.321347,0.42475 0.372731,0.96886 0.582579,1.45358 0,0 -3.878648,2.13614 -3.878648,2.13614 z"
       inkscape:connector-curvature="0"
       transform="translate(6.6292965,895.95426)" />
    <path
       style="fill:#808000;stroke-width:1.89999998;stroke-miterlimit:4;stroke-dasharray:7.6, 7.6;stroke-dashoffset:0"
       id="path3114"
       d="m 64.560739,118.74605 c -0.651785,-0.0238 -1.322576,0.0538 -1.942245,-0.1911 -0.05934,-0.13801 -0.301942,-0.32911 -0.178025,-0.41404 1.273557,-0.87295 2.669191,-1.55772 4.053215,-2.24216 0.140344,-0.0694 0.313185,0.0105 0.46967,0.005 0.233519,-0.008 0.466239,-0.0316 0.699579,-0.0434 2.311448,-0.11766 -0.496783,0.0514 2.242927,-0.12182 3.915788,-0.28256 7.828944,-0.59829 11.74086,-0.93049 3.337522,-0.27079 6.670608,-0.59312 10.005801,-0.89112 0.559976,-0.0499 1.119867,-0.10067 1.679858,-0.15036 0.101641,-0.009 0.301589,-0.002 0.406087,-0.0477 0.07571,0.18515 0.151418,0.37031 0.227127,0.55546 0,0 -4.158532,1.62042 -4.158532,1.62042 l 0,0 c 0.112715,0.16122 0.225429,0.32245 0.338143,0.48367 -0.08786,-0.0304 -0.279282,-0.005 -0.356922,-0.003 -0.519826,0.0156 -1.039347,0.04 -1.558696,0.0669 -3.268235,0.18481 -6.527793,0.48293 -9.790948,0.73845 -3.970265,0.3398 -7.940759,0.67799 -11.908256,1.04866 -1.029072,0.0876 -2.061936,0.15636 -3.089146,0.26499 -0.162788,0.0172 -0.622657,0.15356 -0.487206,0.0616 3.56932,-2.42223 4.459044,-1.04224 3.34305,-2.49392 0.602339,0.15676 1.233408,0.0741 1.84803,0.0793 0,0 -3.584371,2.6042 -3.584371,2.6042 z"
       inkscape:connector-curvature="0"
       transform="translate(6.6292965,895.95426)" />
    <path
       style="fill:#808000;stroke-width:1.89999998;stroke-miterlimit:4;stroke-dasharray:7.6, 7.6;stroke-dashoffset:0"
       id="path3116"
       d="m 112.93042,109.96377 c -0.66769,2.32635 -0.72263,4.78489 -0.83037,7.18825 -0.0815,2.32901 -0.0821,4.68152 0.3347,6.98129 0.0826,0.38936 0.18302,0.77149 0.34614,1.1344 0,0 -3.86607,2.14735 -3.86607,2.14735 l 0,0 c -0.12974,-0.41369 -0.22351,-0.83572 -0.28854,-1.26492 -0.3265,-2.36089 -0.30242,-4.75427 -0.22632,-7.1317 0.0872,-2.39843 0.16251,-4.80963 0.54493,-7.18292 0,0 3.98553,-1.87175 3.98553,-1.87175 z"
       inkscape:connector-curvature="0"
       transform="translate(6.6292965,895.95426)" />
    <path
       style="fill:#808000;stroke-width:1.89999998;stroke-miterlimit:4;stroke-dasharray:7.6, 7.6;stroke-dashoffset:0"
       id="path3118"
       d="m 104.23274,113.0314 c 2.35274,1.10261 4.75102,2.10713 7.15586,3.09025 3.3242,1.40836 6.7772,2.45125 10.23942,3.45395 1.06924,0.31086 2.15459,0.55799 3.24208,0.79425 0,0 -3.52918,2.43709 -3.52918,2.43709 l 0,0 c -1.04747,-0.28561 -2.09464,-0.57299 -3.13097,-0.89741 -3.43792,-1.07308 -6.87912,-2.14297 -10.21261,-3.51679 -2.46454,-0.97453 -4.91096,-2.00122 -7.40825,-2.88916 0,0 3.64365,-2.47218 3.64365,-2.47218 z"
       inkscape:connector-curvature="0"
       transform="translate(6.6292965,895.95426)" />
    <path
       style="fill:#808000;stroke-width:1.89999998;stroke-miterlimit:4;stroke-dasharray:7.6, 7.6;stroke-dashoffset:0"
       id="path3120"
       d="m 102.20529,125.10109 c 0.032,-0.14383 0.0428,-0.29409 0.0961,-0.43149 0.59771,-1.54299 2.35745,-2.69357 3.62197,-3.62653 3.78292,-2.59578 7.80159,-4.8288 11.77391,-7.11503 1.20708,-0.67601 2.41068,-1.35661 3.63265,-2.00543 0,0 -3.36847,2.70656 -3.36847,2.70656 l 0,0 c -1.17561,0.61619 -2.3334,1.26451 -3.49307,1.91009 0.7509,-0.43804 1.50316,-0.87376 2.25271,-1.31412 0.46664,-0.27415 -0.93804,0.54019 -1.404,0.81551 -1.86976,1.10476 -3.72235,2.24484 -5.51789,3.46675 -1.34982,0.97554 -2.96457,1.98929 -3.64625,3.58228 0,0 -3.94763,2.01141 -3.94763,2.01141 z"
       inkscape:connector-curvature="0"
       transform="translate(6.6292965,895.95426)" />
    <path
       style="fill:#808000;stroke-width:1.89999998;stroke-miterlimit:4;stroke-dasharray:7.6, 7.6;stroke-dashoffset:0"
       id="path3122"
       d="m 135.00419,108.74554 c -0.0243,-0.0512 -0.18297,-0.39752 -0.22875,-0.44558 -0.014,-0.0147 -0.0647,0.0488 -0.0467,0.0394 1.28257,-0.66374 2.50513,-1.45572 3.84144,-2.00325 0.13501,-0.0553 -0.0246,0.29146 -0.0195,0.43727 0.01,0.27758 0.0424,0.55387 0.0636,0.8308 0.2631,3.07972 0.36696,6.17006 0.46169,9.25863 0.0998,2.28829 0.0217,4.58566 0.24674,6.86703 0.0405,0.34678 0.0846,0.69267 0.16741,1.03196 0,0 -3.91359,2.0801 -3.91359,2.0801 l 0,0 c -0.0434,-0.37258 -0.0727,-0.74645 -0.0924,-1.1211 -0.1105,-2.32514 4.2e-4,-4.65294 -0.0703,-6.97957 -0.0711,-3.052 -0.15605,-6.11481 -0.60243,-9.13952 -0.0472,-0.27094 -0.0935,-0.54203 -0.14155,-0.81283 -0.0303,-0.17077 -0.23231,-0.40804 -0.0934,-0.51185 3.62758,-2.71048 3.28457,-3.53541 4.30634,-1.66765 0,0 -3.87865,2.13614 -3.87865,2.13614 z"
       inkscape:connector-curvature="0"
       transform="translate(6.6292965,895.95426)" />
    <path
       style="fill:#808000;stroke-width:1.89999998;stroke-miterlimit:4;stroke-dasharray:7.6, 7.6;stroke-dashoffset:0"
       id="path3124"
       d="m 128.10656,110.75813 c 2.3372,1.44591 4.86801,2.54114 7.369,3.66587 3.68282,1.56843 7.39207,3.07433 11.14387,4.46993 1.42839,0.51735 2.84255,1.07203 4.26891,1.59486 0,0 -3.57927,2.39868 -3.57927,2.39868 l 0,0 c -1.35769,-0.58652 -2.71669,-1.17132 -4.09656,-1.70423 -3.71437,-1.47153 -7.40481,-3.00246 -11.09903,-4.52368 -2.59241,-1.11992 -5.19883,-2.21699 -7.70844,-3.51601 0,0 3.70152,-2.38542 3.70152,-2.38542 z"
       inkscape:connector-curvature="0"
       transform="translate(6.6292965,895.95426)" />
    <path
       style="fill:#808000;stroke-width:1.89999998;stroke-miterlimit:4;stroke-dasharray:7.6, 7.6;stroke-dashoffset:0"
       id="path3126"
       d="m 123.79852,123.46578 c 1.1028,-1.45393 2.79248,-2.36647 4.34585,-3.26323 1.6969,-0.97962 3.40088,-1.94693 5.10132,-2.92039 3.69746,-1.96572 7.47651,-3.76949 11.31349,-5.44466 1.56573,-0.72689 3.19309,-1.30033 4.80989,-1.89864 0,0 -3.37127,2.63244 -3.37127,2.63244 l 0,0 c -1.56012,0.54812 -3.11778,1.10476 -4.62564,1.78786 -3.84177,1.66674 -7.61857,3.48063 -11.29665,5.48509 0.63977,-0.37471 1.27911,-0.75015 1.91931,-1.12414 0.45197,-0.26404 -0.90887,0.5199 -1.35465,0.79427 -0.99803,0.61428 -2.03625,1.2605 -2.80975,2.15413 0,0 -4.0319,1.79727 -4.0319,1.79727 z"
       inkscape:connector-curvature="0"
       transform="translate(6.6292965,895.95426)" />
    <path
       style="fill:#808000;stroke-width:1.89999998;stroke-miterlimit:4;stroke-dasharray:7.6, 7.6;stroke-dashoffset:0"
       id="path3128"
       d="m 157.02863,114.911 c -0.64951,-0.60465 -1.37435,-1.17146 -1.82376,-1.9496 -0.3433,-1.75368 -0.22033,-0.67777 4.0016,-2.50172 0.17762,-0.0767 0.34958,0.16654 0.51879,0.26036 1.00396,0.55664 1.95353,1.21647 2.91099,1.84697 3.25128,2.22453 6.43972,4.53806 9.65298,6.81667 2.30039,1.66873 4.65839,3.25481 7.00171,4.86193 0.57409,0.37069 0.32495,0.21114 0.74657,0.47998 0,0 -3.73351,2.35537 -3.73351,2.35537 l 0,0 c -0.33452,-0.31399 -0.12717,-0.12941 -0.63743,-0.53596 -2.22037,-1.71969 -4.52249,-3.33012 -6.78246,-4.99674 -3.20255,-2.30901 -6.40394,-4.62318 -9.74652,-6.72805 -0.75184,-0.45178 -1.48236,-0.91051 -2.26229,-1.31158 -0.24967,-0.12839 -0.50159,-0.25517 -0.76489,-0.3526 -0.15829,-0.0586 -0.62696,-0.01 -0.49356,-0.11304 3.00412,-2.32848 4.96891,-2.14213 3.42952,-2.26852 0.29967,0.75603 1.0933,1.26798 1.70547,1.7526 0,0 -3.72321,2.38393 -3.72321,2.38393 z"
       inkscape:connector-curvature="0"
       transform="translate(6.6292965,895.95426)" />
    <path
       style="fill:#808000;stroke-width:1.89999998;stroke-miterlimit:4;stroke-dasharray:7.6, 7.6;stroke-dashoffset:0"
       id="path3130"
       d="m 166.98167,111.17001 c -0.40797,2.46604 -0.97737,4.89882 -1.54129,7.33292 -0.5306,2.25185 -0.86733,4.54146 -1.04286,6.84671 -0.12602,0.0164 0.0525,1.38416 0.0154,0.89668 0,0 -3.73451,2.43374 -3.73451,2.43374 l 0,0 c -0.0565,-0.0727 -0.13128,-0.13444 -0.16955,-0.21823 -0.15802,-0.34598 0.0389,-0.8469 0.024,-1.18962 0.27227,-2.34432 0.65156,-4.67606 1.18237,-6.97664 0.54912,-2.37875 1.13297,-4.76453 1.30957,-7.20683 0,0 3.95692,-1.91873 3.95692,-1.91873 z"
       inkscape:connector-curvature="0"
       transform="translate(6.6292965,895.95426)" />
    <path
       style="fill:#808000;stroke-width:1.89999998;stroke-miterlimit:4;stroke-dasharray:7.6, 7.6;stroke-dashoffset:0"
       id="path3132"
       d="m 152.64245,122.69158 c -0.60088,0.0887 -1.21352,0.1111 -1.81006,0.22793 -0.0882,-0.16649 -0.41747,-0.38932 -0.26461,-0.49946 1.24943,-0.90024 2.68247,-1.51458 4.04799,-2.22655 0.13159,-0.0686 0.28695,-0.0761 0.43165,-0.10911 0.24001,-0.0547 0.48209,-0.1 0.7223,-0.15377 0.93759,-0.20997 1.33971,-0.31508 2.31731,-0.5556 4.01251,-1.04052 8.03534,-2.04062 12.06407,-3.01702 2.99033,-0.76412 6.02721,-1.31733 9.03497,-2.00507 0.1499,-0.0767 1.32188,-0.22188 1.36961,-0.39263 0,0 -3.49681,2.78206 -3.49681,2.78206 l 0,0 c -0.2925,-0.13372 -0.99525,0.27347 -1.29843,0.20988 -2.9319,0.56257 -5.87383,1.08373 -8.76928,1.81842 -4.08849,0.99076 -8.16604,2.02448 -12.22149,3.14318 -1.79621,0.47136 -0.82955,0.22073 -2.42673,0.62958 -0.25641,0.0656 -0.51257,0.13227 -0.76916,0.19721 -0.16421,0.0416 -0.63542,0.21432 -0.49323,0.12227 3.6819,-2.38359 4.41952,-0.96606 3.31166,-2.60346 0.60035,-0.0417 1.19852,-0.12456 1.79059,-0.23051 0,0 -3.54035,2.66265 -3.54035,2.66265 z"
       inkscape:connector-curvature="0"
       transform="translate(6.6292965,895.95426)" />
  </g>
</svg>
