<?xml version="1.0" encoding="UTF-8" standalone="no"?>
<!-- Created with Inkscape (http://www.inkscape.org/) -->

<svg
   xmlns:dc="http://purl.org/dc/elements/1.1/"
   xmlns:cc="http://creativecommons.org/ns#"
   xmlns:rdf="http://www.w3.org/1999/02/22-rdf-syntax-ns#"
   xmlns:svg="http://www.w3.org/2000/svg"
   xmlns="http://www.w3.org/2000/svg"
   xmlns:sodipodi="http://sodipodi.sourceforge.net/DTD/sodipodi-0.dtd"
   xmlns:inkscape="http://www.inkscape.org/namespaces/inkscape"
   width="160"
   height="94.949997"
   id="svg2"
   version="1.1"
   inkscape:version="0.48.3.1 r9886"
   inkscape:export-filename="integral.png"
   inkscape:export-xdpi="150"
   inkscape:export-ydpi="150"
   sodipodi:docname="integral2.svg">
  <defs
     id="defs4" />
  <sodipodi:namedview
     id="base"
     pagecolor="#9fffa7"
     bordercolor="#666666"
     borderopacity="1.0"
     inkscape:pageopacity="0"
     inkscape:pageshadow="2"
     inkscape:zoom="6.2875199"
     inkscape:cx="80"
     inkscape:cy="47.474998"
     inkscape:document-units="px"
     inkscape:current-layer="layer1"
     showgrid="false"
     inkscape:window-width="1231"
     inkscape:window-height="776"
     inkscape:window-x="49"
     inkscape:window-y="24"
     inkscape:window-maximized="1"
     fit-margin-top="0"
     fit-margin-left="0"
     fit-margin-right="0"
     fit-margin-bottom="0" />
  <metadata
     id="metadata7">
    <rdf:RDF>
      <cc:Work
         rdf:about="">
        <dc:format>image/svg+xml</dc:format>
        <dc:type
           rdf:resource="http://purl.org/dc/dcmitype/StillImage" />
        <dc:title></dc:title>
      </cc:Work>
    </rdf:RDF>
  </metadata>
  <g
     inkscape:label="Layer 1"
     inkscape:groupmode="layer"
     id="layer1"
     transform="translate(-6.6292965,-936.95566)">
    <path
       style="fill:#008000;fill-opacity:1;stroke:#050101;stroke-width:1.10000002;stroke-miterlimit:0.3;stroke-opacity:1;stroke-dasharray:none"
       id="path4683"
       d="m 25.792026,11.081426 c -0.418035,-0.279835 -0.886155,-0.456608 -1.372076,-0.575018 -0.628826,-0.0862 -1.197537,0.145819 -1.726843,0.460065 3.021634,-1.8418349 1.581627,-0.956952 1.002482,-0.288716 -0.398172,0.459422 -0.704435,0.951151 -1.008529,1.475492 -0.883246,1.615039 -1.339262,3.394028 -1.693301,5.186366 -0.426217,2.22029 -0.532461,4.477102 -0.505887,6.732119 0.05814,1.350547 0.217565,2.695425 0.531171,4.011248 0.177319,0.743991 0.319836,1.191528 0.536111,1.924925 0.613685,1.987808 1.328417,3.942098 1.994833,5.912417 0.776994,2.205552 1.485352,4.435002 2.128646,6.683006 0.701305,2.565177 1.326445,5.150841 1.851218,7.757797 0.597552,2.850936 0.819109,5.751326 0.95664,8.654343 0.09571,2.887716 0.02761,5.776635 -0.239904,8.653098 -0.150747,1.455799 -0.386402,2.913959 -0.852514,4.305735 -0.260328,0.777319 -0.353068,0.922099 -0.694174,1.648669 -0.349063,0.587599 -0.457142,0.831539 -0.909192,1.347142 -1.15837,1.321219 -2.917876,2.010351 -4.417047,2.801199 -1.297743,0.460315 -2.648726,0.377578 -3.988482,0.209285 -0.185076,-0.03322 -0.370151,-0.06643 -0.555226,-0.09965 0,0 1.856597,-1.299601 1.856597,-1.299601 l 0,0 c 0.180068,0.03172 0.360135,0.06343 0.540202,0.09515 1.315017,0.155693 2.634155,0.208361 3.893952,-0.282371 -0.406014,0.266674 -0.835264,0.50095 -1.218042,0.800022 -0.198455,0.155057 0.449853,-0.228564 0.661449,-0.365145 0.896681,-0.578791 1.611728,-1.368217 2.132024,-2.296591 0.36291,-0.724007 0.45269,-0.850982 0.732692,-1.629599 0.497443,-1.383267 0.760095,-2.840157 0.929989,-4.295974 0.307892,-2.871968 0.401249,-5.760932 0.298492,-8.648302 -0.139601,-2.888958 -0.38048,-5.773658 -0.972449,-8.610592 -0.525385,-2.599008 -1.153165,-5.175792 -1.866773,-7.729733 -0.652992,-2.239582 -1.369707,-4.460564 -2.15417,-6.657738 -0.672145,-1.970424 -1.398351,-3.922621 -2.013326,-5.912106 -0.218489,-0.736678 -0.363797,-1.191605 -0.543945,-1.9391 -0.320663,-1.330537 -0.482505,-2.690441 -0.538025,-4.057148 -0.01961,-2.266724 0.09389,-4.534105 0.48794,-6.770688 0.325165,-1.793801 0.747307,-3.576551 1.581193,-5.21185 0.285492,-0.535547 0.576884,-1.028637 0.954557,-1.50498 0.109727,-0.138393 0.450895,-0.562486 0.615244,-0.668872 0.746414,-0.483168 1.522519,-0.9188476 2.283779,-1.3782715 0.580888,-0.2908811 1.1925,-0.4792861 1.845114,-0.3288458 0.503888,0.1444309 0.983217,0.3489788 1.438567,0.6097912 0,0 -1.982987,1.2830301 -1.982987,1.2830301 z"
       inkscape:connector-curvature="0"
       transform="translate(6.6292965,936.95566)" />
    <path
       style="fill:#008000;fill-opacity:1;stroke:#050101;stroke-width:1.10000002;stroke-miterlimit:0.3;stroke-opacity:1;stroke-dasharray:none"
       id="path4685"
       d="m 45.521453,11.312138 c -0.246989,-0.362507 -0.582486,-0.645193 -1.009628,-0.754221 -0.07602,-6.68e-4 -0.152288,-0.0082 -0.228062,-0.002 -0.202971,0.01647 -0.31055,0.04855 -0.492468,0.143412 -0.08704,0.04539 -0.336282,0.202544 -0.250369,0.155055 1.753502,-0.9692679 2.213243,-1.3938496 1.432075,-0.724873 -0.565998,0.588382 -1.007902,1.301008 -1.295802,2.065696 -0.07884,0.209405 -0.137515,0.425858 -0.206273,0.638788 -0.528057,1.965502 -0.639093,4.00682 -0.705891,6.030903 -0.01775,1.981951 0.08386,3.984999 0.515072,5.925735 0.07918,0.356355 0.181061,0.707284 0.271592,1.060926 0.644063,2.227897 1.627632,4.336416 2.601467,6.434605 1.106194,2.418063 2.206523,4.838988 3.286268,7.269031 1.164425,2.559846 2.057349,5.227706 2.796701,7.937411 0.576323,2.255693 0.939774,4.566756 1.007709,6.8959 0.01309,0.448798 0.0024,0.897975 0.0036,1.346962 -0.03516,2.33378 -0.398839,4.650634 -1.004766,6.902433 -0.126104,0.468638 -0.273444,0.931302 -0.410166,1.396953 -0.90693,2.896677 -2.358387,5.562187 -3.918665,8.149167 -1.292413,2.129329 -2.832427,4.085381 -4.512692,5.918299 -0.798314,0.872544 -1.695175,1.639674 -2.634901,2.35349 0,0 -2.112338,0.839102 -2.112338,0.839102 l 0,0 c 0.976744,-0.712173 1.916865,-1.471807 2.746721,-2.355465 1.728103,-1.831339 3.304357,-3.770271 4.626457,-5.920317 1.572836,-2.576255 3.015305,-5.203937 3.93114,-8.096163 0.137564,-0.462461 0.286267,-0.921753 0.412691,-1.387383 0.60631,-2.233087 0.965114,-4.532818 1.007647,-6.847898 0.0013,-0.446044 0.01492,-0.892223 0.0039,-1.338132 -0.0574,-2.316969 -0.397796,-4.620766 -0.971474,-6.864934 -0.735936,-2.699198 -1.636072,-5.352002 -2.79646,-7.901201 -1.08177,-2.426883 -2.182259,-4.845683 -3.302662,-7.254932 -0.996602,-2.100977 -2.003758,-4.213032 -2.650047,-6.453842 -0.248536,-0.98018 -0.325494,-1.187008 -0.481012,-2.194361 -0.247608,-1.603846 -0.315532,-3.23457 -0.313923,-4.85495 0.0468,-2.019773 0.124457,-4.056032 0.578431,-6.032783 0.06081,-0.217496 0.11157,-0.438055 0.182426,-0.652489 0.258084,-0.781049 0.681095,-1.507279 1.210809,-2.133863 0.852173,-0.88162 0.233208,-0.287656 2.511539,-1.6060146 0.33749,-0.1952892 0.717428,-0.2421213 1.093875,-0.1534622 0.456,0.1827993 0.821896,0.4913349 1.120902,0.8810478 0,0 -2.043446,1.184371 -2.043446,1.184371 z"
       inkscape:connector-curvature="0"
       transform="translate(6.6292965,936.95566)" />
    <path
       style="fill:#008000;fill-opacity:1;stroke:#050101;stroke-width:1.10000002;stroke-miterlimit:0.3;stroke-opacity:1;stroke-dasharray:none"
       id="path4687"
       d="m 80.995741,54.3714 c -0.148803,-0.930914 -0.203222,-1.871411 -0.357731,-2.80244 -0.183901,-0.867969 -0.415208,-2.125375 -1.155184,-2.717955 -0.111536,-0.08932 -0.251147,-0.136374 -0.376721,-0.20456 -0.135957,-0.0071 -0.274209,-0.04702 -0.407871,-0.02116 -0.156619,0.0303 -0.579269,0.265307 -0.441191,0.185419 0.467208,-0.270313 0.906281,-0.631138 1.43092,-0.758048 0.24753,-0.05988 -0.377131,0.344976 -0.538333,0.542131 -0.502207,0.614215 -0.608366,0.938031 -0.966767,1.660561 -0.618602,1.622898 -1.057848,3.479558 -0.732566,5.22124 0.04945,0.264788 0.148493,0.517863 0.22274,0.776795 0.110978,0.193117 0.190554,0.408067 0.332936,0.579349 0.395101,0.475296 0.973584,0.542717 1.521492,0.311765 0.221875,-0.09352 0.85464,-0.430963 0.622825,-0.365874 -0.422188,0.118541 -0.802946,0.352782 -1.204418,0.529173 0.230493,-0.26872 0.481103,-0.521415 0.691478,-0.806159 1.115919,-1.510399 1.775548,-3.331185 2.231081,-5.136087 0.133405,-0.528574 0.229934,-1.065776 0.3449,-1.598664 0.368282,-2.094446 0.576642,-4.22101 0.556498,-6.349102 -0.01044,-1.102901 -0.06938,-1.595591 -0.15769,-2.678578 -0.155459,-1.711363 -0.484959,-3.397416 -0.94784,-5.050376 -0.203811,0.01552 -0.01785,-0.446451 -0.187627,-0.503241 -0.04903,-0.0164 -0.02126,0.173354 0.02621,0.152868 0.681845,-0.294264 1.26748,-0.813681 1.981117,-1.019173 0.144033,-0.04147 -0.0073,0.299813 -0.0032,0.449645 0.0064,0.237516 0.02295,0.474649 0.03442,0.711974 0.233153,2.888021 0.527126,5.771145 0.784502,8.657333 0.315871,2.977725 0.527263,5.997698 1.314599,8.900212 0.12714,0.468701 0.292535,0.926177 0.438802,1.389266 0.412373,1.088677 0.92243,2.158493 1.742866,3.005292 0.218496,0.225517 0.479321,0.405766 0.718982,0.608648 0,0 -1.851173,1.151327 -1.851173,1.151327 l 0,0 c -0.240894,-0.217914 -0.503907,-0.413629 -0.722683,-0.65374 -0.811017,-0.890109 -1.311508,-1.993779 -1.704218,-3.117158 -0.139859,-0.472588 -0.298635,-0.939983 -0.419576,-1.417762 -0.740934,-2.927074 -0.932363,-5.958279 -1.281411,-8.946261 -0.287161,-2.854346 -0.619306,-5.702787 -1.002753,-8.545812 -0.02865,-0.230966 -0.05783,-0.461866 -0.08595,-0.692898 -0.01829,-0.150267 -0.161594,-0.345251 -0.05327,-0.450993 0.597905,-0.583675 1.735992,-2.05613 2.131067,-1.319868 0.09076,0.169142 0.04873,0.393499 0.141489,0.55821 0.368687,1.704268 0.689369,3.419746 0.815661,5.162033 0.07593,1.110514 0.126655,1.586125 0.126727,2.716845 1.36e-4,2.143094 -0.211844,4.283158 -0.564268,6.395518 -0.109418,0.535279 -0.202252,1.074219 -0.328256,1.605839 -0.511085,2.15632 -1.28983,4.28647 -2.737002,5.997447 -0.854877,0.562936 -1.694435,1.149854 -2.56463,1.688808 -0.216055,0.133814 -0.445243,0.254577 -0.689037,0.326346 -0.204258,0.06013 -0.423885,0.08627 -0.635601,0.06361 -0.725751,-0.07769 -1.09139,-0.649392 -1.356476,-1.255185 -0.0721,-0.274244 -0.168797,-0.543176 -0.216294,-0.822733 -0.304816,-1.794084 0.108839,-3.644047 0.694771,-5.332751 0.33863,-0.756642 0.416285,-1.039364 0.888173,-1.698526 0.77946,-1.088794 1.517656,-1.278175 2.958805,-2.037645 0.154621,-0.08148 0.337436,-0.110065 0.512201,-0.112144 0.155644,-0.0019 0.303996,0.06708 0.455994,0.100625 0.135272,0.09006 0.285665,0.160766 0.405815,0.270191 0.754002,0.686703 0.969252,1.899023 1.188307,2.839371 0.16906,0.903587 0.243866,1.822071 0.441495,2.718616 0,0 -2.067088,1.138435 -2.067088,1.138435 z"
       inkscape:connector-curvature="0"
       transform="translate(6.6292965,936.95566)" />
    <path
       style="fill:#008000;fill-opacity:1;stroke:#050101;stroke-width:1.10000002;stroke-miterlimit:0.3;stroke-opacity:1;stroke-dasharray:none"
       id="path4689"
       d="m 102.47408,48.78688 c -0.75695,1.321418 -1.51025,2.645314 -2.28275,3.958147 -0.876313,1.485029 -1.787525,2.948631 -2.71134,4.404375 0,0 -2.026237,0.888988 -2.026237,0.888988 l 0,0 c 0.968328,-1.446587 1.907175,-2.912358 2.776812,-4.421054 0.731324,-1.274295 1.475394,-2.547692 2.084865,-3.885975 0,0 2.15865,-0.944481 2.15865,-0.944481 z"
       inkscape:connector-curvature="0"
       transform="translate(6.6292965,936.95566)" />
    <path
       style="fill:#008000;fill-opacity:1;stroke:#050101;stroke-width:1.10000002;stroke-miterlimit:0.3;stroke-opacity:1;stroke-dasharray:none"
       id="path4691"
       d="m 95.057517,48.387836 c 0.237739,1.112289 0.941697,2.068718 1.580626,2.984469 0.958208,1.292976 2.065816,2.490084 3.362817,3.451292 0.27292,0.202262 0.5623,0.381328 0.84344,0.571992 0.29652,0.170671 0.59304,0.341342 0.88956,0.512013 0,0 -1.8149,1.178184 -1.8149,1.178184 l 0,0 c -0.299687,-0.17486 -0.599374,-0.349721 -0.899061,-0.524581 -0.285373,-0.195126 -0.578974,-0.37873 -0.856118,-0.585377 -1.310612,-0.97723 -2.433413,-2.188427 -3.420706,-3.48485 -0.683137,-0.933868 -1.393496,-1.890709 -1.771192,-2.996753 0,0 2.085534,-1.106389 2.085534,-1.106389 z"
       inkscape:connector-curvature="0"
       transform="translate(6.6292965,936.95566)" />
    <path
       style="fill:#008000;fill-opacity:1;stroke:#050101;stroke-width:1.10000002;stroke-miterlimit:0.3;stroke-opacity:1;stroke-dasharray:none"
       id="path4693"
       d="m 120.8573,53.574396 c 0.0632,4.47e-4 0.12761,0.01355 0.18963,0.0013 0.0736,-0.01448 0.14013,-0.05336 0.2102,-0.08004 -0.59802,0.330485 -1.18243,0.686875 -1.79405,0.991457 -0.0916,0.04562 0.16074,-0.129463 0.22426,-0.209709 0.19461,-0.245855 0.23334,-0.428297 0.34299,-0.723129 0.26021,-0.967748 0.25223,-1.998332 -0.06,-2.955394 -0.066,-0.202213 -0.16007,-0.39414 -0.2401,-0.59121 -0.33838,-0.63761 -0.80217,-1.246804 -1.58502,-1.303478 -0.49252,-0.03565 -0.64999,0.09454 -1.10539,0.279597 0.43575,-0.226679 0.82043,-0.614689 1.30724,-0.680037 0.28311,-0.038 -0.43192,0.376057 -0.6232,0.588214 -0.66109,0.733273 -1.15673,1.625508 -1.49742,2.548422 -0.11694,0.316794 -0.19569,0.646405 -0.29354,0.969607 -0.0601,0.321685 -0.1413,0.640132 -0.18022,0.965056 -0.12032,1.004498 -0.068,2.228703 0.55427,3.080167 0.1163,0.159139 0.27749,0.280005 0.41623,0.420007 0.60135,0.311599 1.03002,0.353605 1.66868,0.06875 0.22641,-0.100983 0.87609,-0.450675 0.63765,-0.382817 -0.42484,0.120904 -0.79706,0.707504 -1.20782,0.545079 -0.31435,-0.124305 0.45144,-0.503276 0.67716,-0.754914 1.31273,-1.847426 2.05255,-4.020428 2.51853,-6.222685 0.10347,-0.488979 0.17359,-0.984423 0.26039,-1.476634 0.26457,-1.789553 0.37799,-3.604903 0.19781,-5.408658 -0.0961,-0.961906 -0.16831,-1.19378 -0.35985,-2.116926 -0.3055,-1.086218 -0.55273,-2.279108 -1.26193,-3.190806 -0.80907,-0.267022 -0.26699,-0.05884 1.8733,-1.033969 0.0571,-0.02603 -0.0961,0.08771 -0.11853,0.146356 -0.0401,0.105131 -0.0532,0.219471 -0.0639,0.331492 -0.0355,0.37175 -0.003,0.760356 0.0139,1.130094 0.20161,2.285366 0.43862,4.566995 0.63088,6.853351 0.17476,1.878012 0.28432,3.7692 0.64332,5.624588 0.21352,1.1035 0.28417,1.245683 0.59982,2.293382 0.29004,0.738786 0.38878,1.079594 0.78109,1.752892 0.13544,0.23245 0.30008,0.446608 0.45013,0.669912 0,0 -1.90755,1.115328 -1.90755,1.115328 l 0,0 c -0.14879,-0.234327 -0.31291,-0.459597 -0.44637,-0.70298 -0.37338,-0.680925 -0.4833,-1.069926 -0.7559,-1.809652 -0.3034,-1.070002 -0.3707,-1.213919 -0.57599,-2.336618 -0.34115,-1.865681 -0.44026,-3.762982 -0.63182,-5.646759 -0.21657,-2.265096 -0.48182,-4.523314 -0.78325,-6.778688 -0.0492,-0.501499 -0.11601,-1.00604 -0.0739,-1.511001 0.086,-1.031273 1.64504,-2.078405 2.3746,-1.278672 0.61734,1.019593 0.8872,2.204996 1.16025,3.351786 0.17865,0.93539 0.25084,1.190684 0.33592,2.162404 0.16007,1.828406 0.0344,3.665842 -0.22838,5.478533 -0.0851,0.496328 -0.15516,0.995485 -0.25541,1.488984 -0.44718,2.201492 -1.14187,4.378479 -2.3797,6.269638 -1.23357,1.505191 -0.50879,0.779898 -3.19706,2.450302 -0.58605,0.364149 -1.27338,0.614789 -1.96279,0.3841 -0.19362,-0.06479 -0.35833,-0.195802 -0.53749,-0.293704 -0.14445,-0.160164 -0.31215,-0.302081 -0.43334,-0.480491 -0.62272,-0.916733 -0.68677,-2.176034 -0.56614,-3.239944 0.0377,-0.33256 0.11739,-0.659009 0.17608,-0.988513 0.0946,-0.330968 0.17052,-0.667867 0.28385,-0.992904 0.32617,-0.935469 0.80039,-1.841937 1.42965,-2.610301 0.17984,-0.219582 0.35126,-0.45803 0.58566,-0.618069 0.81372,-0.555574 1.69216,-1.009861 2.53823,-1.514791 0.52168,-0.157051 0.66917,-0.27153 1.208,-0.180711 0.82412,0.138902 1.31081,0.797894 1.66922,1.49083 0.0838,0.206302 0.18098,0.407676 0.25146,0.618907 0.32801,0.983007 0.37377,2.037884 0.1613,3.048601 -0.0912,0.321467 -0.12204,0.505176 -0.28085,0.79489 -0.53442,0.974922 -1.78912,1.619474 -2.8909,1.558238 0,0 1.92615,-1.358098 1.92615,-1.358098 z"
       inkscape:connector-curvature="0"
       transform="translate(6.6292965,936.95566)" />
    <path
       style="fill:#008000;fill-opacity:1;stroke:#050101;stroke-width:1.10000002;stroke-miterlimit:0.3;stroke-opacity:1;stroke-dasharray:none"
       id="path4695"
       d="m 132.22883,48.18767 c -0.23178,0.963038 -0.36332,1.958664 -0.33427,2.950949 0.007,0.234625 0.0342,0.468202 0.0513,0.702303 0.14093,0.794828 0.43617,2.006249 1.3411,2.278649 0.13443,0.04046 0.27954,0.02613 0.41931,0.0392 0.14964,-0.03253 0.30593,-0.0428 0.44893,-0.0976 0.16393,-0.06282 0.6182,-0.333096 0.46264,-0.251718 -0.48187,0.252076 -0.92405,0.596837 -1.44159,0.763832 -0.21828,0.07043 0.3493,-0.298387 0.50909,-0.462942 0.44356,-0.456811 0.55349,-0.658353 0.91838,-1.179237 0.62798,-0.970704 1.01036,-2.058944 1.22502,-3.18833 0.17013,-1.177469 -0.15693,-0.561259 2.17879,-1.456804 0.0568,-0.02177 -0.0336,0.117104 -0.0442,0.176962 -0.019,0.106533 -0.0297,0.214369 -0.0446,0.321554 -0.1725,1.474944 -0.0552,2.958549 0.0626,4.432247 0.20184,1.979193 0.54165,3.947616 1.05593,5.870519 0.11496,0.429834 0.24831,0.854537 0.37246,1.281805 0.83946,2.557532 1.81092,5.06867 2.69213,7.61195 0.70157,2.084934 1.28963,4.220279 1.63943,6.394921 0.0642,0.399228 0.10784,0.801499 0.16175,1.202248 0.10674,1.494587 0.27532,3.32457 -0.38643,4.728031 -0.0933,0.197946 -0.22978,0.372528 -0.34467,0.558793 -0.97494,0.944402 -2.2323,1.855157 -3.63307,1.760156 -0.90489,-0.06137 -1.68334,-0.431505 -2.49237,-0.80471 -1.72388,-0.969933 -3.28811,-2.233639 -4.6175,-3.699266 -0.28148,-0.310326 -0.53989,-0.640823 -0.80983,-0.961235 -0.91315,-1.196148 -1.75456,-2.496369 -2.11167,-3.979478 -0.21273,-0.883472 -0.14959,-1.046576 -0.12479,-1.94136 0.076,-0.323134 0.12019,-0.655414 0.22788,-0.969401 0.50962,-1.485863 1.62447,-2.715461 2.78981,-3.725838 0.34326,-0.29761 0.71159,-0.565001 1.06738,-0.847501 1.22638,-0.834716 1.14575,-0.816009 2.45843,-1.559673 1.03374,-0.585639 2.06507,-1.176292 3.11513,-1.732126 0.45986,-0.243417 0.93908,-0.448464 1.41243,-0.664462 1.36453,-0.622653 1.53604,-0.676801 2.92852,-1.247089 0,0 -1.60366,1.26372 -1.60366,1.26372 l 0,0 c -1.33328,0.552409 -1.62215,0.656133 -2.92833,1.260623 -0.47388,0.219311 -0.92457,0.491561 -1.41284,0.676651 -0.16043,0.06082 0.57089,-0.378512 0.41848,-0.299711 -0.95235,0.492393 -1.55821,0.932097 -2.44297,1.523405 -0.35336,0.274801 -0.71887,0.534642 -1.06007,0.824403 -1.14401,0.971548 -2.25084,2.154171 -2.78009,3.587193 -0.1107,0.299718 -0.16185,0.618174 -0.24278,0.92726 -0.0446,0.861903 -0.11,1.0248 0.0771,1.882119 0.31989,1.465909 1.13132,2.752625 2.02684,3.93013 0.26712,0.315941 0.5223,0.642368 0.80135,0.947824 1.32255,1.447721 2.88595,2.688537 4.62292,3.599202 0.80633,0.339381 1.58907,0.683804 2.48405,0.678246 0.22026,-0.0014 0.7998,-0.246909 0.65594,-0.0801 -0.35601,0.4128 -0.90157,0.613535 -1.36439,0.901548 -0.16839,0.104789 0.32014,-0.23421 0.48021,-0.351315 0.12783,-0.174008 0.27824,-0.333506 0.38351,-0.522024 0.74668,-1.337141 0.60772,-3.209487 0.52373,-4.674874 -0.0483,-0.399478 -0.0854,-0.800487 -0.14503,-1.198433 -0.32529,-2.169974 -0.9147,-4.296732 -1.61058,-6.373912 -0.87931,-2.547348 -1.85165,-5.061369 -2.69754,-7.620089 -0.70293,-2.353185 -1.25034,-4.70846 -1.51274,-7.154925 -0.14663,-1.46231 -0.29124,-2.930828 -0.21014,-4.402272 0.004,-0.106425 0.009,-0.212852 0.0129,-0.319277 0.003,-0.063 -0.0466,-0.157001 0.008,-0.189008 2.57769,-1.518592 2.25246,-1.74668 2.04018,-0.572213 -0.25858,1.158177 -0.63812,2.288866 -1.26507,3.304914 -0.3132,0.47304 -0.89587,1.383069 -1.36831,1.70166 -0.78643,0.530334 -1.6078,1.00785 -2.43089,1.479275 -0.43511,0.249208 -0.53887,0.209424 -1.00993,0.25024 -0.1552,-0.0367 -0.31914,-0.04698 -0.4656,-0.110091 -0.94607,-0.407691 -1.23219,-1.595003 -1.40194,-2.493577 -0.0988,-1.244586 -0.0552,-2.42779 0.15529,-3.659202 0,0 2.10914,-1.022736 2.10914,-1.022736 z"
       inkscape:connector-curvature="0"
       transform="translate(6.6292965,936.95566)" />
  </g>
</svg>
