<?xml version="1.0" encoding="UTF-8" standalone="no"?>
<!-- Created with Inkscape (http://www.inkscape.org/) -->

<svg
   xmlns:dc="http://purl.org/dc/elements/1.1/"
   xmlns:cc="http://creativecommons.org/ns#"
   xmlns:rdf="http://www.w3.org/1999/02/22-rdf-syntax-ns#"
   xmlns:svg="http://www.w3.org/2000/svg"
   xmlns="http://www.w3.org/2000/svg"
   xmlns:sodipodi="http://sodipodi.sourceforge.net/DTD/sodipodi-0.dtd"
   xmlns:inkscape="http://www.inkscape.org/namespaces/inkscape"
   width="160"
   height="91.949997"
   id="svg2"
   version="1.1"
   inkscape:version="0.48.3.1 r9886"
   inkscape:export-filename="integral.png"
   inkscape:export-xdpi="150"
   inkscape:export-ydpi="150"
   sodipodi:docname="lagrange.svg">
  <defs
     id="defs4" />
  <sodipodi:namedview
     id="base"
     pagecolor="#9fffa7"
     bordercolor="#666666"
     borderopacity="1.0"
     inkscape:pageopacity="0"
     inkscape:pageshadow="2"
     inkscape:zoom="4.8164584"
     inkscape:cx="80"
     inkscape:cy="61.974998"
     inkscape:document-units="px"
     inkscape:current-layer="layer1"
     showgrid="false"
     inkscape:window-width="1231"
     inkscape:window-height="776"
     inkscape:window-x="49"
     inkscape:window-y="24"
     inkscape:window-maximized="1"
     fit-margin-top="0"
     fit-margin-left="0"
     fit-margin-right="0"
     fit-margin-bottom="0"
     showguides="true"
     inkscape:guide-bbox="true">
    <sodipodi:guide
       orientation="0,1"
       position="109.62412,63.532159"
       id="guide4800" />
  </sodipodi:namedview>
  <metadata
     id="metadata7">
    <rdf:RDF>
      <cc:Work
         rdf:about="">
        <dc:format>image/svg+xml</dc:format>
        <dc:type
           rdf:resource="http://purl.org/dc/dcmitype/StillImage" />
        <dc:title></dc:title>
      </cc:Work>
    </rdf:RDF>
  </metadata>
  <g
     inkscape:label="Layer 1"
     inkscape:groupmode="layer"
     id="layer1"
     transform="translate(-6.6292965,-939.95564)">
    <path
       style="fill:#1a1a1a;fill-opacity:1;stroke:#050101;stroke-width:1.10000002;stroke-miterlimit:0.30000001;stroke-opacity:1;stroke-dasharray:none"
       id="path5047"
       d="m 18.950143,1026.6495 c -0.325617,0.3912 -0.645073,0.7888 -0.938791,1.2048 -0.532307,0.9338 -2.900975,2.7217 -2.999786,1.3893 0.0596,-0.9425 0.322449,-1.855 0.568375,-2.7617 0.539364,-1.9075 1.050521,-3.8222 1.53451,-5.7445 0.656339,-2.6697 1.432226,-5.3071 2.236639,-7.9352 1.067182,-3.4183 2.289175,-6.7869 3.611953,-10.1139 1.414086,-3.4462 3.067617,-6.78739 4.699779,-10.13379 1.619643,-3.39073 3.432705,-6.6835 5.337576,-9.92095 1.978412,-3.32162 4.074059,-6.56988 6.231766,-9.77717 2.272829,-3.41862 4.861613,-6.6064 7.491992,-9.75211 2.394638,-2.85953 4.780877,-5.72616 7.20238,-8.56305 2.014905,-2.43991 4.242325,-4.59959 6.70762,-6.57589 2.69402,-1.98435 5.560555,-3.80765 8.672684,-5.06053 1.229805,-0.40896 2.552118,-0.58114 3.802916,-0.14885 0.219757,0.076 0.425691,0.18717 0.638537,0.28076 1.481998,0.74017 2.524475,2.01358 3.513241,3.29961 1.313426,1.78876 2.367919,3.74931 3.430534,5.69252 1.260863,2.35971 2.462914,4.74969 3.7163,7.11336 1.411906,2.58501 2.653323,5.2564 3.864079,7.93979 1.260205,2.79391 2.445838,5.62009 3.665027,8.43184 1.194569,2.70254 2.418875,5.39173 3.626545,8.0884 1.19108,2.70094 2.377125,5.40376 3.759645,8.01318 1.145486,2.17342 2.568416,4.17713 4.177036,6.02841 0.91256,0.99643 1.92305,1.91254 3.07704,2.62317 0.66413,0.4089 0.91702,0.5026 1.61787,0.8296 1.40739,0.5645 2.91244,0.7894 4.42191,0.6193 0.31603,-0.036 0.62786,-0.1018 0.94178,-0.1527 1.4065,-0.3161 2.75004,-0.8641 4.01381,-1.553 0.34926,-0.1904 1.39964,-0.75033 1.03089,-0.60114 -0.48938,0.198 -0.93042,0.49913 -1.39562,0.74874 2.28162,-1.45026 4.1775,-3.26382 5.97777,-5.26178 2.08563,-2.48614 3.82971,-5.23222 5.59197,-7.95008 2.04593,-3.08334 4.16127,-6.11959 6.28034,-9.15285 2.32158,-3.26128 4.50878,-6.61403 6.69634,-9.96562 1.9632,-3.02896 4.04862,-5.97672 6.2105,-8.86652 1.74027,-2.31499 3.61009,-4.52596 5.50717,-6.71259 0,0 2.62374,-1.10717 2.62374,-1.10717 l 0,0 c -1.9332,2.18715 -3.83579,4.4024 -5.60005,6.72976 -2.19045,2.88751 -4.29402,5.84176 -6.27731,8.87584 -2.19328,3.34637 -4.37495,6.70108 -6.68456,9.96921 -2.1061,3.02553 -4.20775,6.05448 -6.24496,9.12704 -1.74979,2.71242 -3.46991,5.45822 -5.51424,7.96288 -0.78783,0.89694 -1.03578,1.21384 -1.88115,2.04232 -1.23781,1.21311 -2.59172,2.31153 -4.03067,3.27654 -2.74694,1.64322 -5.43991,3.53022 -8.63091,4.18232 -0.32012,0.044 -0.6385,0.103 -0.96035,0.1313 -1.54933,0.1363 -3.08324,-0.1257 -4.51287,-0.7323 -0.71548,-0.3494 -0.95523,-0.4412 -1.6316,-0.8748 -1.15803,-0.7425 -2.17293,-1.6835 -3.09064,-2.70312 -1.601014,-1.8837 -3.0153,-3.91748 -4.157112,-6.11461 -1.369369,-2.62299 -2.540171,-5.33991 -3.747357,-8.04013 -1.214556,-2.69494 -2.444339,-5.38312 -3.632128,-8.09004 -1.208387,-2.81502 -2.382648,-5.64472 -3.653186,-8.43276 -1.215637,-2.67417 -2.469064,-5.33218 -3.881336,-7.90953 -1.258034,-2.35895 -2.468806,-4.74248 -3.746637,-7.09085 -1.07071,-1.92162 -2.132902,-3.86244 -3.461667,-5.62147 -0.980428,-1.23854 -2.015632,-2.46057 -3.478537,-3.14351 -0.203183,-0.0807 -0.400406,-0.17836 -0.609548,-0.242 -1.211144,-0.36851 -2.475187,-0.15315 -3.643178,0.25789 -0.298712,0.12437 -0.601675,0.23898 -0.896137,0.3731 -0.723676,0.32963 -2.399785,1.25339 0.450229,-0.3723 0.367243,-0.20948 -0.72692,0.43216 -1.084266,0.65811 -1.11796,0.70689 -1.175299,0.77542 -2.259662,1.56223 -0.380346,0.29848 -0.768011,0.58786 -1.141037,0.89544 -2.060172,1.69872 -3.911865,3.63371 -5.649234,5.65689 -2.439692,2.84277 -4.84457,5.71503 -7.255183,8.58242 -2.63478,3.13541 -5.231787,6.31083 -7.501937,9.72551 -2.148428,3.19897 -4.229792,6.44194 -6.207973,9.74944 -1.912595,3.22844 -3.729623,6.51495 -5.348111,9.90206 -1.630824,3.34175 -3.279786,6.67987 -4.707344,10.11493 -1.318997,3.3057 -2.528681,6.6571 -3.561038,10.0642 -0.781762,2.6114 -1.526663,5.234 -2.164668,7.8847 -0.461582,1.9081 -0.945222,3.8103 -1.449316,5.7075 -0.214009,0.866 -0.441438,1.7298 -0.50018,2.6236 0.03525,1.2107 -3.620853,2.4501 -2.559459,1.249 0.298059,-0.4153 0.615123,-0.814 0.926743,-1.2184 0,0 2.832502,-1.2101 2.832502,-1.2101 z"
       inkscape:connector-curvature="0" />
    <path
       style="fill:#ff0000;fill-opacity:1;stroke:#050101;stroke-width:0;stroke-miterlimit:0.30000001;stroke-opacity:1;stroke-dasharray:none"
       id="path5049"
       d="m 21.437681,1009.4328 c -0.04318,-0.5251 -0.214014,-1.0263 -0.48181,-1.4774 -0.163841,-0.2379 -0.37969,-0.3177 -0.649345,-0.1839 -0.07214,0.036 -0.269412,0.176 -0.198811,0.1372 0.79903,-0.4383 1.590075,-0.891 2.385112,-1.3365 -0.681473,0.6057 -0.891855,1.4925 -1.007347,2.3598 -0.04281,0.7062 0.06821,1.5122 0.683306,1.9652 0.103743,0.076 0.227372,0.1212 0.341059,0.1818 0.379084,0.145 0.781033,0.1973 1.1837,0.1253 0.82151,-0.1468 3.436644,-1.7906 -1.42821,0.9295 0.833739,-0.6441 1.07273,-1.4174 1.039626,-2.4373 -0.186,-0.9042 -0.462291,-1.3092 -1.385465,-1.4816 -0.284463,0.037 -0.414767,0.032 -0.681086,0.1546 -0.109821,0.05 -0.416206,0.2458 -0.310327,0.1875 0.765876,-0.4216 1.509544,-0.8847 2.290541,-1.2776 0.11054,-0.056 -0.186039,0.1646 -0.265862,0.2591 -0.07964,0.094 -0.140175,0.2033 -0.210262,0.3049 -0.342612,0.6824 -0.390436,1.1995 0.03527,1.8442 0.234041,0.2278 0.545535,0.3675 0.858794,0.1988 0.08027,-0.043 0.299881,-0.2063 0.219653,-0.163 -0.793018,0.428 -1.573495,0.8789 -2.360242,1.3184 0.650607,-0.6051 0.528359,-1.4328 0.285925,-2.2015 -0.25746,-0.5715 -0.691438,-1.1796 -1.387724,-1.1862 -0.103753,-10e-4 -0.205752,0.027 -0.308628,0.041 -1.288983,0.6497 1.368667,-0.8133 2.079557,-1.17 0.0974,-0.049 -0.164008,0.1467 -0.225584,0.2367 -0.220261,0.3216 -0.212244,0.6753 -0.205814,1.0455 0.203843,0.8922 0.511429,1.2506 1.439572,1.2603 0.955049,-0.2926 2.964558,-1.3218 -1.705495,1.0546 -0.09054,0.046 0.152793,-0.1363 0.212036,-0.2189 0.165974,-0.2312 0.139038,-0.2919 0.17312,-0.5645 -0.170539,-0.9559 -0.663403,-1.4174 -1.549616,-1.744 -0.137105,-0.019 -0.272903,-0.056 -0.411317,-0.057 -0.284651,0 -0.549191,0.071 -0.800909,0.2007 -0.125123,0.064 -0.477592,0.2967 -0.353,0.2313 2.292495,-1.202 2.78545,-1.894 1.974755,-0.8947 -0.26317,0.4509 -0.491603,1.1948 0.004,1.5957 0.08323,0.067 0.19013,0.098 0.285195,0.1475 0.56508,0.1474 1.135394,0.058 1.650121,-0.2142 0.138988,-0.074 0.535493,-0.3293 0.396359,-0.256 -0.748259,0.3944 -1.483373,0.8132 -2.22506,1.2197 0.355413,-0.3624 0.814399,-0.9925 0.395164,-1.4882 -0.05862,-0.069 -0.144485,-0.1099 -0.216728,-0.1649 -0.385307,-0.1527 -0.674953,-0.039 -1.037815,0.1071 0,0 2.393317,-1.844 2.393317,-1.844 l 0,0 c 0.490747,-0.094 0.778384,-0.1391 1.229844,0.1285 0.0903,0.087 0.195632,0.1607 0.270908,0.261 0.464749,0.6191 0.19794,1.3274 -0.238163,1.868 -0.971196,0.6024 -1.935693,1.2158 -2.913588,1.8073 -0.68797,0.4161 -1.504162,0.5272 -2.253844,0.2217 -0.115883,-0.08 -0.246207,-0.1429 -0.34765,-0.2408 -0.53837,-0.5194 -0.444336,-1.3293 -0.162082,-1.9444 0.827229,-1.3535 0.168066,-0.4061 3.148306,-2.2069 0.532721,-0.3218 1.141897,-0.3384 1.722408,-0.1532 0.977505,0.4553 1.487338,0.9873 1.75434,2.0506 0.003,0.129 0.02475,0.2588 0.0089,0.3868 -0.01674,0.1355 -0.146555,0.551 -0.280713,0.6387 -1.227254,0.8028 -2.196692,1.7412 -3.593916,1.8333 -0.131242,-0.022 -0.266124,-0.027 -0.393727,-0.065 -0.721119,-0.2121 -1.108677,-0.877 -1.264449,-1.5685 -0.02814,-0.3458 -0.06367,-0.502 -0.003,-0.8454 0.265114,-1.4999 2.118499,-2.1951 3.503198,-2.4486 0.116635,0.01 0.235382,0 0.349904,0.027 0.755027,0.1574 1.230705,0.7982 1.529299,1.461 0.275784,0.8368 0.466228,1.7497 -0.103376,2.5124 -0.949933,0.5762 -1.8882,1.172 -2.8498,1.7285 -0.470514,0.2723 -1.017462,-0.051 -1.323493,-0.4051 -0.46844,-0.7359 -0.502577,-1.3394 -0.176025,-2.1532 0.733445,-1.3899 1.474485,-1.339 3.329469,-2.4079 0.34061,-0.1963 0.740448,-0.2133 1.118924,-0.1703 0.998471,0.3201 1.343915,0.807 1.563967,1.8232 0.06352,1.0787 -0.101158,1.9386 -0.90539,2.7181 -0.986138,0.5766 -1.960284,1.1742 -2.958415,1.7298 -0.66268,0.3688 -1.491441,0.2513 -2.148403,-0.042 -0.126487,-0.083 -0.263845,-0.152 -0.37946,-0.2498 -0.645966,-0.5463 -0.835541,-1.3988 -0.797437,-2.2073 0.08886,-0.917 0.278266,-1.8215 0.864448,-2.5621 0.949861,-0.5642 1.887243,-1.1498 2.849582,-1.6924 0.415821,-0.2344 0.873137,0.078 1.09615,0.4136 0.279547,0.4817 0.464087,1.0147 0.555991,1.5645 0,0 -2.722506,1.4443 -2.722506,1.4443 z"
       inkscape:connector-curvature="0" />
    <path
       style="fill:#ff0000;fill-opacity:1;stroke:#050101;stroke-width:0;stroke-miterlimit:0.30000001;stroke-opacity:1;stroke-dasharray:none"
       id="path5051"
       d="m 43.640343,968.29047 c -0.367889,-0.33246 -0.775302,-0.62233 -1.268696,-0.71181 -0.08317,-0.006 -0.166121,-0.0217 -0.249501,-0.0193 -0.166163,0.005 -0.311949,0.0461 -0.462786,0.11343 -0.07539,0.0337 -0.289712,0.15845 -0.217857,0.1178 2.484867,-1.40569 3.088866,-1.89118 2.144498,-1.15988 -0.526421,0.49356 -0.667973,1.18956 -0.606682,1.88325 0.184151,0.85144 0.664277,1.16135 1.483845,1.30786 0.322228,-0.0283 0.484383,-0.0232 0.796887,-0.13165 0.133365,-0.0463 0.256513,-0.11792 0.384769,-0.17687 -0.720929,0.4026 -1.424112,0.83877 -2.162787,1.20781 -0.148058,0.074 0.265248,-0.2 0.381445,-0.31787 0.119692,-0.1214 0.215292,-0.26441 0.322938,-0.39661 0.473745,-0.77741 0.718159,-1.69602 0.54627,-2.60513 -0.03224,-0.17053 -0.09344,-0.33429 -0.140166,-0.50144 -0.297538,-0.64635 -0.762904,-1.37957 -1.496027,-1.59447 -0.111464,-0.0327 -0.230866,-0.0258 -0.346299,-0.0388 -0.112023,0.015 -0.229096,0.009 -0.33607,0.0451 -0.109132,0.0372 -0.401323,0.22729 -0.300165,0.17195 0.765634,-0.41889 1.506457,-0.88578 2.293644,-1.2626 0.111199,-0.0532 -0.174243,0.17681 -0.241415,0.28019 -0.181196,0.27885 -0.218628,0.48883 -0.31346,0.80454 -0.150837,0.68619 -0.17392,1.48886 0.27942,2.07758 0.07271,0.0944 0.1688,0.16829 0.2532,0.25244 0.355764,0.27467 0.802948,0.39204 1.233757,0.20438 0.116915,-0.0509 0.436476,-0.26363 0.324278,-0.20301 -0.744186,0.40207 -1.480551,0.81845 -2.220826,1.22767 0.802405,-0.74611 1.071432,-1.63818 1.05638,-2.71157 -0.08201,-0.61445 -0.352286,-1.30239 -1.015934,-1.48695 -0.107861,-0.03 -0.222984,-0.0203 -0.334476,-0.0305 -0.112555,0.0162 -0.230095,0.0116 -0.337665,0.0485 -0.1115,0.0382 -0.411574,0.22996 -0.308441,0.1729 0.752761,-0.41648 1.484436,-0.87335 2.257331,-1.25115 0.120243,-0.0588 -0.199361,0.18051 -0.282166,0.28566 -0.208941,0.26532 -0.25588,0.43707 -0.384713,0.74511 -0.182719,0.63503 -0.176537,1.34383 0.296758,1.85995 0.07856,0.0857 0.181142,0.14572 0.271714,0.21859 0.314851,0.18097 0.663363,0.26859 1.028219,0.21572 0.602769,-0.0874 4.081398,-2.15178 -1.551573,0.94397 0.475139,-0.45423 0.820863,-1.08757 0.640534,-1.76375 -0.03085,-0.11567 -0.09538,-0.21961 -0.143068,-0.32941 -0.498881,-0.61778 -1.280565,-0.7396 -2.023914,-0.53045 -0.184444,0.0519 -0.356573,0.14039 -0.534859,0.21058 3.84497,-2.21876 1.792537,-1.16904 1.147674,-0.32571 -0.339663,0.44421 -0.480886,0.88795 -0.589428,1.42496 0.0041,0.14419 -0.01272,0.29051 0.01237,0.43255 0.09922,0.56172 0.603031,0.93409 1.130065,1.07139 0.148145,0.0386 0.303912,0.0372 0.455867,0.0558 0.425021,-0.0225 0.533913,0.005 0.936297,-0.14803 0.143544,-0.0546 0.545098,-0.28315 0.411331,-0.20767 -4.576183,2.58218 -2.438465,1.59092 -1.911314,0.93881 0.07637,-0.0945 0.126661,-0.20731 0.189991,-0.31097 0.251663,-0.9456 -0.329257,-1.42095 -1.099402,-1.82082 -0.445011,-0.15995 -0.918456,-0.22773 -1.374349,-0.0546 -0.139967,0.0532 -0.260658,0.1474 -0.390986,0.2211 0,0 2.328012,-1.84675 2.328012,-1.84675 l 0,0 c 0.14667,-0.051 0.287883,-0.12188 0.440009,-0.15307 0.508056,-0.10418 1.007795,0.017 1.473619,0.21675 0.153275,0.0874 0.315408,0.16089 0.459824,0.26229 0.494169,0.34696 0.900539,0.90248 0.929761,1.52464 0.0066,0.14034 -0.02624,0.27975 -0.03936,0.41963 -0.05521,0.12805 -0.09419,0.26439 -0.165637,0.38415 -0.604257,1.01285 -2.927427,1.92355 -3.169475,2.05935 -0.434939,0.24403 -0.96603,0.24269 -1.444672,0.21395 -0.167325,-0.0379 -0.339934,-0.0572 -0.501976,-0.11355 -0.61868,-0.21505 -1.161779,-0.69122 -1.296559,-1.35295 -0.03313,-0.16263 -0.0194,-0.33138 -0.02909,-0.49707 0.02728,-0.17601 0.03888,-0.35517 0.08184,-0.52802 0.501764,-2.01863 2.701007,-2.79549 4.328141,-3.66517 0.193187,-0.0563 0.381791,-0.13178 0.579559,-0.1689 0.878305,-0.16488 1.730289,0.0984 2.270425,0.82057 0.06108,0.13441 0.140567,0.26189 0.183248,0.40322 0.223973,0.74164 -0.04907,1.46745 -0.51368,2.04545 -0.959829,0.58086 -1.907198,1.18283 -2.879486,1.74259 -0.605651,0.34868 -1.370683,0.14656 -1.910766,-0.20964 -0.101439,-0.0958 -0.214383,-0.18068 -0.304318,-0.28733 -0.506981,-0.60124 -0.584534,-1.37307 -0.420384,-2.11664 0.116975,-0.34941 0.151491,-0.51198 0.337418,-0.83225 0.657182,-1.13201 1.87204,-1.36109 3.129972,-2.0567 0.111323,-0.0616 0.242935,-0.0818 0.369347,-0.096 0.125234,-0.0141 0.25192,0.008 0.37788,0.012 0.128247,0.0362 0.262564,0.0553 0.38474,0.10851 0.713049,0.3104 1.039789,1.05217 1.135717,1.77719 0.0061,0.17761 0.02728,0.35535 0.01822,0.53283 -0.04485,0.87918 -0.364191,1.75194 -0.934905,2.42094 -0.962551,0.58091 -1.91273,1.18282 -2.887653,1.74271 -0.601599,0.3455 -1.296039,0.1165 -1.775128,-0.31038 -0.09389,-0.10558 -0.20022,-0.20129 -0.281678,-0.31673 -0.466385,-0.66095 -0.515946,-1.5194 -0.375154,-2.28865 0.05823,-0.25611 0.214583,-1.08749 0.449117,-1.24636 0.918142,-0.62195 1.885692,-1.169 2.853054,-1.71124 0.108561,-0.0608 0.238265,-0.0787 0.362108,-0.091 0.124029,-0.0123 0.248993,0.0119 0.373489,0.0179 0.129141,0.038 0.264038,0.0601 0.387424,0.11389 0.761023,0.33185 1.253683,1.09745 1.579061,1.82147 0.05369,0.18187 0.122376,0.35998 0.161073,0.54562 0.199421,0.9567 -0.01076,1.93932 -0.442852,2.79981 -0.949867,1.43152 -1.565978,1.40748 -3.594503,2.516 -0.385855,0.21086 -0.873113,0.19986 -1.293499,0.17017 -0.909621,-0.25413 -1.451058,-0.6641 -1.677806,-1.61792 -0.115184,-0.77847 -0.01499,-1.48833 0.456252,-2.13616 0.978524,-0.95549 0.28042,-0.30724 3.038363,-1.85767 0.310783,-0.17471 0.716008,-0.11395 1.043677,-0.0493 0.509776,0.17072 0.938883,0.47157 1.371936,0.7852 0,0 -2.599158,1.64395 -2.599158,1.64395 z"
       inkscape:connector-curvature="0" />
    <path
       style="fill:#ff0000;fill-opacity:1;stroke:#050101;stroke-width:0;stroke-miterlimit:0.30000001;stroke-opacity:1;stroke-dasharray:none"
       id="path5053"
       d="m 88.50506,971.70631 c -0.07007,-0.47922 -0.231612,-0.94545 -0.476693,-1.36255 -0.372626,-0.54526 -0.587203,-0.53947 -1.094084,-0.16608 4.17112,-2.37479 2.422847,-1.7311 1.8833,-0.7171 -0.207976,0.39086 -0.291044,0.79769 -0.355918,1.22989 -0.04602,0.58244 0.143794,1.19747 0.801092,1.30738 0.121403,0.0203 0.246169,0.002 0.369254,0.003 0.132529,-0.0333 0.268761,-0.0542 0.397586,-0.0998 0.142823,-0.0505 0.27608,-0.12478 0.414119,-0.18717 -0.701431,0.39278 -1.384985,0.81934 -2.104292,1.17834 -0.163533,0.0816 0.296663,-0.2155 0.428565,-0.34201 0.354162,-0.3397 0.401991,-0.48145 0.653122,-0.89785 0.342162,-0.71619 0.559585,-1.55845 0.12395,-2.28973 -0.06603,-0.11084 -0.160128,-0.20235 -0.240193,-0.30353 -0.260255,-0.18602 -0.352794,-0.29512 -0.679129,-0.35583 -0.219218,-0.0408 -0.620651,-0.0101 -0.831239,0.0531 -0.143207,0.043 -0.273036,0.12192 -0.409553,0.18288 0.71608,-0.40125 1.43216,-0.80251 2.14824,-1.20376 -0.866942,0.6415 -1.185786,1.34042 -1.170376,2.40312 0.08876,0.60618 0.495522,1.0748 1.147993,1.053 0.116047,-0.004 0.228228,-0.0429 0.342342,-0.0643 0.112981,-0.0424 0.232438,-0.0704 0.338943,-0.1271 0.104472,-0.0556 0.393002,-0.26257 0.288496,-0.20701 -0.768746,0.40876 -1.500597,0.88721 -2.283638,1.26786 -0.100306,0.0488 0.150957,-0.16576 0.210517,-0.26006 0.163702,-0.25917 0.159723,-0.3547 0.227874,-0.64847 -0.0086,-0.94536 -0.505948,-1.12399 -1.350523,-1.13326 -0.140013,0.03 -0.283901,0.0457 -0.420038,0.0901 -0.140455,0.0458 -0.270263,0.11945 -0.405394,0.17918 0.722793,-0.40609 1.431159,-0.83901 2.168378,-1.21829 0.137894,-0.0709 -0.252016,0.18247 -0.363842,0.28991 -0.285861,0.27464 -0.311511,0.36897 -0.501629,0.69739 -0.175655,0.44725 -0.285468,1.11098 0.311613,1.2822 0.09689,0.0278 0.199917,0.0259 0.299876,0.0388 0.330382,-0.0257 0.395343,-0.006 0.715727,-0.13982 0.127149,-0.0532 0.484825,-0.26242 0.364757,-0.19475 -3.746675,2.11189 -2.389537,1.54722 -1.642439,0.69118 0.222653,-0.29731 0.378922,-0.90287 -0.18259,-0.89794 -0.107642,9.4e-4 -0.213277,0.0294 -0.319915,0.0441 -0.128509,0.0429 -0.257018,0.0857 -0.385527,0.12854 0,0 2.366145,-1.81167 2.366145,-1.81167 l 0,0 c 0.148178,-0.0282 0.296355,-0.0564 0.444532,-0.0846 0.134397,0.011 0.272876,-0.002 0.403193,0.0329 0.661895,0.17597 0.701336,0.90158 0.424429,1.4093 -0.856834,1.22776 -1.903998,1.47576 -3.444218,2.3413 -0.370014,0.20793 -0.806934,0.23991 -1.217782,0.1935 -0.119646,-0.0383 -0.246509,-0.0589 -0.358938,-0.1149 -0.670915,-0.33448 -0.681751,-1.06269 -0.496875,-1.69503 0.0647,-0.13498 0.117832,-0.27615 0.194089,-0.40496 0.106938,-0.18063 0.429238,-0.62178 0.615787,-0.73674 1.361549,-0.83899 2.35797,-1.74675 3.855009,-1.85574 0.148111,0.0179 0.299187,0.0193 0.444334,0.0539 0.73436,0.17465 1.146128,0.76789 1.175827,1.50071 -0.01634,0.13156 -0.01991,0.26534 -0.04902,0.39467 -0.319658,1.42013 -1.974777,1.75216 -3.133772,2.44981 -0.10301,0.062 -0.214709,0.11065 -0.329146,0.14753 -0.121806,0.0393 -0.250391,0.053 -0.375587,0.0796 -0.131675,-10e-4 -0.264683,0.0146 -0.395025,-0.004 -0.752693,-0.10821 -1.208315,-0.69408 -1.330994,-1.40872 -0.0442,-1.12855 0.202227,-1.91012 1.050188,-2.69346 0.931996,-0.53236 2.822476,-2.23792 4.341698,-1.7549 0.364398,0.11586 0.472475,0.25102 0.761376,0.48793 0.08923,0.12278 0.192677,0.23638 0.267684,0.36832 0.462626,0.81379 0.320271,1.72898 -0.03685,2.54976 -0.08904,0.17454 -0.164582,0.35666 -0.267122,0.52363 -0.143829,0.23419 -0.495653,0.69759 -0.739688,0.84917 -1.27428,0.79151 -2.407711,1.79201 -3.896402,1.90682 -0.142305,-0.0253 -0.289659,-0.0305 -0.426916,-0.0758 -0.731163,-0.24116 -1.014196,-0.93454 -0.976367,-1.65125 0.267965,-2.38901 1.058614,-2.27327 3.497401,-3.72291 0.09682,-0.0357 0.189118,-0.0877 0.290461,-0.10719 0.482774,-0.0929 0.841666,0.28737 1.073899,0.65241 0.246138,0.44313 0.425511,0.92298 0.561108,1.4111 0,0 -2.711194,1.46616 -2.711194,1.46616 z"
       inkscape:connector-curvature="0" />
    <path
       style="fill:#ff0000;fill-opacity:1;stroke:#050101;stroke-width:0;stroke-miterlimit:0.30000001;stroke-opacity:1;stroke-dasharray:none"
       id="path5055"
       d="m 128.16076,988.52364 c -0.06,-0.36148 -0.10095,-0.72413 -0.20598,-1.0757 -0.0524,-0.21034 -0.20264,-0.36612 -0.42126,-0.26795 -0.91169,0.6153 0.13328,-0.0946 2.35771,-1.30616 0.0614,-0.0335 -0.11503,0.0803 -0.16649,0.12762 -0.19024,0.17501 -0.3108,0.38226 -0.42788,0.60874 -0.15719,0.39915 -0.31345,0.87155 -0.007,1.23234 0.1217,0.0814 0.26047,0.1634 0.41414,0.12153 0.0471,-0.0128 0.17321,-0.0901 0.13051,-0.0664 -2.58669,1.43288 -3.25817,1.90337 -2.31642,1.25484 0.39319,-0.38704 0.52906,-0.88147 0.50686,-1.41851 -0.0689,-0.29891 -0.20447,-0.8079 -0.60321,-0.65303 -0.84663,0.72331 0.0802,-0.0814 2.35895,-1.29056 0.0654,-0.0347 -0.111,0.0995 -0.15564,0.15862 -0.19524,0.25857 -0.28833,0.56842 -0.3846,0.87183 -0.0997,0.47225 -0.30616,1.06377 0.0488,1.47326 -0.0876,0.26692 0.47965,-0.20805 0.35914,-0.14391 -0.8255,0.43935 -1.61415,0.94646 -2.44513,1.37534 -0.0759,0.0392 0.11627,-0.12616 0.1631,-0.19757 0.0504,-0.0768 0.0846,-0.16317 0.12693,-0.24476 0.19305,-0.48701 0.30718,-1.01738 0.0112,-1.48109 -0.17739,-0.19087 -0.38179,-0.15769 -0.58632,-0.0204 -0.0552,0.037 -0.2107,0.1605 -0.15244,0.12852 0.81386,-0.44674 1.61494,-0.91637 2.4224,-1.37455 -0.40145,0.40477 -0.49078,0.93983 -0.44329,1.48629 0.11389,0.44995 0.41328,0.60394 0.8176,0.37263 -0.82577,0.46123 -1.64859,0.92775 -2.4773,1.38367 -0.0489,0.0269 0.16939,-0.0781 0.28705,-0.23658 0.11508,-0.155 0.12362,-0.29322 0.10911,-0.47669 -0.12529,-0.35905 -0.44121,-0.46137 -0.78149,-0.35423 -0.82476,0.81487 0.0496,-0.0736 2.30182,-1.23781 0.0664,-0.0343 -0.0943,0.11683 -0.13052,0.18219 -0.13025,0.23536 -0.1668,0.48566 -0.19246,0.74802 0.0313,0.48761 0.34404,0.61219 0.78053,0.5224 1.00431,-0.45339 0.70363,-0.32459 -2.20039,1.25039 -0.0725,0.0393 0.13802,-0.0915 0.19938,-0.14668 0.19369,-0.17412 0.28194,-0.37142 0.35821,-0.61326 0.0327,-0.41999 -1.6e-4,-0.73253 -0.48094,-0.75339 -0.92608,0.39153 -2.41216,1.20538 2.15383,-1.23025 0.0592,-0.0316 -0.10094,0.0896 -0.14234,0.14246 -0.10213,0.13032 -0.1261,0.22219 -0.18666,0.37383 -0.10889,0.39395 0.0425,0.67207 0.40649,0.82157 0.0497,2e-5 0.2688,0.005 0.31777,-0.015 0.0519,-0.0214 0.18133,-0.13177 0.1321,-0.1047 -0.8312,0.45694 -1.64777,0.9402 -2.47992,1.39539 -0.051,0.0279 0.0945,-0.0689 0.13355,-0.11192 0.0344,-0.0378 0.0562,-0.0854 0.0843,-0.1281 0.13852,-0.39284 -0.0573,-0.73512 -0.35027,-0.99061 -0.13981,-0.0907 -0.28909,-0.17119 -0.45115,-0.0767 -0.0433,0.0253 -0.15623,0.1243 -0.11225,0.10018 2.49408,-1.36772 3.10768,-2.1582 2.39264,-1.27619 -0.17005,0.42738 -0.11174,0.80413 0.2578,1.0841 0.21255,0.10746 0.4363,0.22474 0.65865,0.0744 0.0457,-0.0309 0.17315,-0.13549 0.12492,-0.10866 -0.83998,0.46715 -1.66875,0.95419 -2.50312,1.43129 0.27385,-0.28841 -0.088,-0.59427 -0.31139,-0.77055 -0.16079,-0.10612 -0.33409,-0.17429 -0.5251,-0.10181 -0.0535,0.0203 -0.19851,0.11429 -0.14849,0.0864 2.50608,-1.39746 3.26747,-1.9301 2.34826,-1.29478 -0.19085,0.20645 -0.17401,0.45462 -0.0143,0.66872 0,0 -2.63609,1.55091 -2.63609,1.55091 l 0,0 c -0.21496,-0.3256 -0.29167,-0.65582 -0.16996,-1.03756 0.66768,-1.06642 0.14115,-0.28537 2.89555,-1.75055 0.0872,-0.0464 0.32721,0.005 0.40777,0.0321 0.20233,0.0672 0.24822,0.11602 0.42312,0.23455 0.36549,0.3245 0.65779,0.68225 0.55851,1.20015 -0.90579,0.55346 -1.80177,1.1233 -2.71736,1.66038 -0.30835,0.18087 -0.72895,-0.11574 -0.9735,-0.26646 -0.43747,-0.4156 -0.53503,-0.84663 -0.4602,-1.43907 0.40962,-1.20933 0.0474,-0.28603 2.80577,-1.86796 0.0763,-0.0437 0.30684,0.0122 0.37069,0.0358 0.15003,0.0554 0.24398,0.14002 0.37198,0.23422 0.34538,0.35389 0.5998,0.78696 0.52918,1.29934 -0.28879,1.36134 -2.20767,2.37182 -3.51559,1.92552 -0.43445,-0.27315 -0.66438,-0.6724 -0.6043,-1.19842 0.37188,-1.42152 1.96218,-2.45778 3.44104,-2.31633 0.58022,0.23074 0.69084,0.57123 0.70045,1.17064 -0.0387,0.25673 -0.0276,0.31636 -0.14244,0.55216 -0.0409,0.0838 -0.2316,0.38009 -0.316,0.43082 -2.68935,1.61621 -1.77792,1.4584 -3.08319,1.64047 -0.5849,-0.0532 -0.9645,-0.34994 -1.03307,-0.95904 0.0282,-1.68996 1.19883,-2.46478 3.17834,-2.87084 0.48264,0.0324 0.85194,0.27953 1.02476,0.7441 0.0435,0.19597 0.078,0.26755 0.0506,0.46898 -0.18112,1.33327 -3.02552,1.33437 -3.08787,2.14919 -0.54024,0.0274 -0.95105,-0.29667 -1.0766,-0.82817 -0.0815,-0.6104 -0.0136,-1.20141 0.31228,-1.73718 0.92195,-0.56486 1.83606,-1.14272 2.76584,-1.69458 0.36014,-0.21375 0.76883,-0.013 0.99818,0.2811 0.31827,0.55918 0.29411,1.14172 0.10375,1.74708 -0.52224,1.40712 -0.72366,0.93428 -2.99113,2.22872 -0.19263,0.10996 -0.4581,-0.0861 -0.58762,-0.19752 -0.37116,-0.53385 -0.2777,-1.1383 -0.1342,-1.74328 0.37769,-1.57238 1.19514,-2.76183 3.37675,-2.82354 0.48729,0.14298 0.70015,0.57783 0.80863,1.05108 0.0595,0.59168 -0.0366,1.15093 -0.38005,1.64907 -0.80189,1.09361 -2.53655,2.44444 -3.67106,1.41574 -0.33952,-0.4806 -0.29805,-0.98752 -0.12274,-1.53302 0.53291,-1.3553 1.96844,-2.43386 3.48244,-2.49428 0.30959,0.0883 0.54377,0.27468 0.61731,0.60318 0.10713,0.35534 0.14149,0.7188 0.23111,1.07834 0,0 -2.71119,1.46616 -2.71119,1.46616 z"
       inkscape:connector-curvature="0" />
    <path
       style="fill:#ff0000;fill-opacity:1;stroke:#050101;stroke-width:0;stroke-miterlimit:0.30000001;stroke-opacity:1;stroke-dasharray:none"
       id="path5057"
       d="m 42.613026,967.65062 c -0.290127,-0.36704 -0.656177,-0.56769 -1.122189,-0.58387 0.07466,-0.19799 -0.971192,0.41767 -0.749564,0.29581 0.776759,-0.4271 1.530773,-0.89608 2.319175,-1.30129 0.105263,-0.0541 -0.178294,0.15626 -0.259264,0.24258 -0.08794,0.0937 -0.164322,0.19772 -0.246483,0.29658 -0.460366,0.64971 -0.651316,1.28894 -0.543404,2.07599 0.213889,0.76706 0.899734,0.94379 1.611801,1.00496 0.423636,-0.0542 0.473608,-0.0335 0.880213,-0.19901 0.15285,-0.0622 0.586996,-0.30138 0.444278,-0.21851 -4.252462,2.46929 -2.311582,1.43478 -1.708466,0.86312 0.118906,-0.11271 0.218071,-0.24456 0.327107,-0.36684 0.438342,-0.63487 0.671533,-1.44553 0.421219,-2.20605 -0.04481,-0.13614 -0.123829,-0.25852 -0.185743,-0.38778 -0.720514,-0.92998 -1.4846,-1.01201 -2.583536,-0.82027 -0.168636,0.0593 -0.344545,0.10093 -0.505908,0.17783 -0.162588,0.0775 -0.619797,0.36669 -0.46046,0.28272 0.702157,-0.37003 1.368471,-0.81003 2.089716,-1.14132 0.156908,-0.0721 -0.263152,0.22536 -0.377414,0.35481 -0.27806,0.31504 -0.311372,0.45102 -0.487972,0.8226 -0.285959,0.99952 -0.113483,1.45709 0.792062,1.95219 1.11988,0.33867 2.082143,0.0588 3.084648,-0.46698 -3.856117,2.21165 -1.901983,1.27544 -1.291114,0.41712 0.308258,-0.43312 0.40283,-0.86199 0.473378,-1.37659 -0.04209,-0.79204 -0.43221,-1.50225 -1.176313,-1.83731 -0.139734,-0.0629 -0.291821,-0.0937 -0.437731,-0.14054 -0.158015,-0.0172 -0.315167,-0.0469 -0.474046,-0.0514 -0.397805,-0.0113 -0.577943,0.0156 -0.942963,0.17264 -0.150352,0.0647 -0.575764,0.31165 -0.432321,0.23282 2.282689,-1.2544 2.665533,-1.74648 1.759691,-0.77404 -0.529022,0.7982 -0.719069,1.79866 -0.486709,2.73797 0.0441,0.17828 0.126077,0.34499 0.189115,0.51749 0.639753,1.15606 1.408208,1.42719 2.672513,1.44895 0.179047,-0.0305 0.361686,-0.0445 0.537139,-0.0914 0.546333,-0.14615 3.82004,-1.71825 -1.601326,0.98649 -0.15466,0.0772 0.282373,-0.20255 0.402757,-0.32658 0.300938,-0.31003 0.341832,-0.48427 0.521471,-0.87047 0.279654,-0.9096 0.148982,-1.86222 -0.44781,-2.62055 -0.118746,-0.15089 -0.264244,-0.27865 -0.396367,-0.41798 -0.700933,-0.54297 -1.607145,-0.96585 -2.516984,-0.73859 -0.158906,0.0397 -0.303365,0.1236 -0.455048,0.1854 0.708597,-0.39046 1.394941,-0.82435 2.125791,-1.17138 0.155178,-0.0737 -0.270364,0.21497 -0.383601,0.34414 -0.112102,0.12788 -0.209072,0.27056 -0.28752,0.42145 -0.262697,0.50527 -0.269525,1.00323 -0.245314,1.55459 0.15276,0.8529 0.584407,1.65026 1.44164,1.95984 0.15235,0.055 0.315218,0.0748 0.472827,0.11214 0.374828,0.0155 0.567417,0.0607 0.92824,-0.0676 0.140384,-0.0499 0.524173,-0.28357 0.393616,-0.21179 -0.734373,0.40379 -1.444188,0.85652 -2.205077,1.20781 -0.121887,0.0563 0.189638,-0.19366 0.258286,-0.30903 0.07168,-0.12047 0.105064,-0.25994 0.157596,-0.38991 0.1329,-1.19731 -0.383336,-1.71047 -1.38721,-2.23153 -0.164398,-0.0384 -0.325274,-0.0977 -0.493194,-0.11514 -0.362004,-0.0375 -0.692293,0.0158 -1.02598,0.16186 -0.167695,0.0734 -0.636013,0.36227 -0.472682,0.2796 2.175017,-1.10089 2.574327,-1.70254 1.687784,-0.63059 -0.424392,0.64827 -0.458802,1.03668 -0.480665,1.78419 0,0 -2.586942,1.3188 -2.586942,1.3188 l 0,0 c -0.02514,-0.81518 -0.0187,-1.20318 0.380676,-1.94533 0.983535,-1.43907 0.281377,-0.5564 3.293945,-2.36503 0.675652,-0.40564 1.45136,-0.38463 2.160966,-0.0967 0.166244,0.0951 0.341861,0.17537 0.498733,0.28522 0.765866,0.53633 1.173202,1.3561 1.114417,2.28707 -0.03846,0.15541 -0.05663,0.3173 -0.115374,0.46623 -0.466341,1.18239 -2.420885,1.74145 -3.117526,2.13506 -0.435143,0.24586 -0.962702,0.18163 -1.427784,0.10631 -0.168277,-0.056 -0.343456,-0.0944 -0.50483,-0.16797 -0.910382,-0.41496 -1.388697,-1.27789 -1.580485,-2.22283 -0.01641,-0.19556 -0.05025,-0.39044 -0.04923,-0.58669 0.01175,-2.25314 1.964619,-2.7163 3.786529,-3.72516 0.165123,-0.0403 0.326618,-0.10057 0.495369,-0.12087 0.987012,-0.11872 1.905213,0.35488 2.638857,0.96632 0.14172,0.15405 0.297362,0.29636 0.425159,0.46214 0.637193,0.82655 0.826983,1.85549 0.594681,2.86268 -0.149828,0.40969 -0.197161,0.63747 -0.467062,0.98857 -0.109266,0.14213 -0.224766,0.28914 -0.377375,0.38323 -1.587363,0.97863 -2.444625,1.78137 -4.077264,1.87892 -0.191748,-0.0161 -0.385554,-0.0161 -0.575245,-0.0485 -1.006101,-0.17153 -1.824913,-0.78184 -2.275572,-1.69317 -0.0701,-0.19086 -0.158922,-0.37585 -0.2103,-0.57257 -0.258559,-0.99001 -0.11684,-2.05686 0.36251,-2.95107 0.977708,-1.35319 0.270987,-0.49849 3.264941,-2.22203 0.612369,-0.35253 1.329246,-0.32626 1.991483,-0.16783 0.156604,0.0646 0.320386,0.114 0.469812,0.19381 0.812495,0.434 1.24225,1.2323 1.334489,2.12734 -0.03728,0.43811 -0.02489,0.63165 -0.176988,1.05136 -0.590725,1.63006 -2.682439,2.30908 -3.946238,3.04952 -1.075003,0.47098 -2.159199,0.71198 -3.289296,0.25752 -0.132856,-0.0832 -0.27589,-0.15207 -0.398568,-0.24969 -0.659296,-0.52458 -0.80144,-1.30506 -0.585685,-2.08678 0.146746,-0.37128 0.210142,-0.60254 0.453971,-0.9286 0.723799,-0.96789 2.957604,-1.98338 3.305017,-2.18904 0.15778,-0.0934 0.324503,-0.17342 0.496801,-0.23612 0.174035,-0.0633 0.358395,-0.0935 0.537593,-0.14032 1.261982,-0.11176 2.005615,0.0778 2.804208,1.11721 0.07339,0.15042 0.164636,0.29336 0.220155,0.45125 0.287405,0.81733 0.09866,1.71965 -0.316761,2.45009 -0.999483,1.31376 -1.86587,1.50548 -3.656687,2.49687 -0.436926,0.24188 -0.947214,0.31151 -1.437275,0.30297 -0.891782,-0.14029 -1.536947,-0.4027 -1.833647,-1.32284 -0.149181,-0.88422 -0.01054,-1.52047 0.446591,-2.29706 0.895375,-1.27472 1.284786,-1.13915 3.292909,-2.30805 0.26305,-0.15312 0.577831,-0.1726 0.872487,-0.15864 0.502245,0.11274 0.906248,0.36021 1.269397,0.72509 0,0 -2.627248,1.60998 -2.627248,1.60998 z"
       inkscape:connector-curvature="0" />
    <path
       style="fill:#ff0000;fill-opacity:1;stroke:#050101;stroke-width:0;stroke-miterlimit:0.30000001;stroke-opacity:1;stroke-dasharray:none"
       id="path5059"
       d="m 88.290137,971.11223 c -0.187189,-0.46463 -0.328301,-0.95064 -0.634518,-1.35259 -0.600266,-0.60701 -1.340094,-0.22008 -1.978156,0.11229 0.645333,-0.36227 1.26863,-0.76695 1.935999,-1.08681 0.228775,-0.10965 -0.415152,0.29239 -0.612117,0.45229 -0.916046,0.74363 -1.509135,1.49668 -2.108725,2.50147 -0.298601,0.64151 -0.591293,1.46168 -0.02805,2.05986 0.322181,0.34217 0.546417,0.36441 0.981492,0.52754 1.356298,0.21563 2.759217,-0.0858 3.999299,-0.65626 0.266844,-0.12275 0.51841,-0.2763 0.777614,-0.41445 -0.582595,0.30622 -1.122714,0.71257 -1.747787,0.91865 -0.249313,0.0822 0.39977,-0.34197 0.579373,-0.53343 0.438409,-0.46735 0.830695,-1.06199 0.956236,-1.70207 0.0345,-0.1759 0.01974,-0.35795 0.02961,-0.53692 -0.03341,-0.17105 -0.04484,-0.34791 -0.100228,-0.51316 -0.233889,-0.6978 -0.863159,-1.20999 -1.521678,-1.48759 -0.184015,-0.0776 -0.380759,-0.12057 -0.571138,-0.18086 -0.58659,-0.11593 -1.177967,-0.13737 -1.761055,0.0129 -0.181577,0.0468 -0.360728,0.10695 -0.5313,0.18484 -0.172884,0.0789 -0.662966,0.37181 -0.494628,0.28359 0.694221,-0.36381 1.381703,-0.74035 2.072554,-1.11052 -0.565437,0.58553 -0.992621,1.35732 -0.780939,2.19465 0.03555,0.14064 0.104244,0.27075 0.156366,0.40613 0.579516,0.86524 1.253311,0.9857 2.231142,0.81631 0.147421,-0.0653 0.294842,-0.13057 0.442263,-0.19585 -0.702339,0.38823 -1.382418,0.81978 -2.107017,1.16469 -0.161988,0.0771 0.2821,-0.22378 0.404955,-0.35452 0.403833,-0.42973 0.591186,-0.9125 0.765945,-1.4623 0.169216,-0.85214 0.04818,-1.79993 -0.697392,-2.35945 -0.137574,-0.10324 -0.302516,-0.16379 -0.453774,-0.24569 -0.788809,-0.26248 -1.616545,-0.17785 -2.369642,0.16729 -0.205727,0.0943 -0.792006,0.43816 -0.591443,0.33334 0.648172,-0.33876 1.289652,-0.69017 1.934478,-1.03525 -0.708121,0.63607 -1.417609,1.52074 -1.262572,2.54582 0.02231,0.14752 0.09048,0.28435 0.13572,0.42652 0.09221,0.11172 0.168366,0.23891 0.27662,0.33516 0.518857,0.46131 1.302847,0.61574 1.974069,0.54516 0.192986,-0.0203 0.380749,-0.0752 0.571124,-0.11277 0.183708,-0.0674 0.373052,-0.12108 0.551124,-0.20221 0.173463,-0.079 0.668008,-0.36759 0.500368,-0.27686 -0.688388,0.37258 -1.345382,0.80895 -2.062627,1.1224 -0.163377,0.0714 0.263709,-0.24259 0.372557,-0.38381 0.27497,-0.35673 0.281529,-0.49581 0.416236,-0.91129 0.115609,-0.82982 -0.170584,-1.66325 -0.935801,-2.08986 -0.151338,-0.0844 -0.322185,-0.1276 -0.483277,-0.1914 -0.516435,-0.0605 -0.602485,-0.11839 -1.125529,0.0213 -0.199899,0.0534 -0.75409,0.33414 -0.578772,0.22426 0.622803,-0.39031 1.257497,-0.76892 1.928064,-1.06987 0.220532,-0.099 -0.39028,0.28797 -0.562893,0.45719 -0.175824,0.17237 -0.318634,0.37546 -0.477951,0.56319 -0.575893,0.90054 -0.931531,2.03677 -0.304058,3.01565 0.103318,0.16118 0.247992,0.29174 0.371988,0.43761 0.164386,0.11536 0.316612,0.25036 0.49316,0.34607 0.714626,0.38742 1.656283,0.48271 2.442815,0.29556 0.199683,-0.0475 0.387272,-0.13618 0.580908,-0.20427 1.539762,-0.91458 -0.818938,0.49701 -1.608995,0.82468 -0.149577,0.062 0.222603,-0.23784 0.30927,-0.37463 0.26966,-0.42561 0.242718,-0.70891 0.125196,-1.16743 -0.270864,-0.45564 -0.666255,-0.53653 -1.147607,-0.65613 0,0 2.423161,-1.65976 2.423161,-1.65976 l 0,0 c 0.612527,0.19444 0.9935,0.30842 1.339292,0.89172 0.04696,0.15511 0.118948,0.30475 0.140871,0.46533 0.253363,1.85568 -2.659518,2.85143 -3.891365,3.46046 -0.204271,0.0521 -0.404535,0.12367 -0.612813,0.1562 -1.119647,0.17485 -2.23941,-0.14813 -3.099217,-0.87336 -0.13776,-0.16779 -0.298335,-0.3192 -0.41328,-0.50337 -0.663849,-1.06365 -0.380278,-2.30208 0.202721,-3.32171 0.150491,-0.20287 0.284085,-0.41945 0.451473,-0.60863 0.909298,-1.02767 2.664738,-1.76757 3.611719,-2.26311 0.316303,-0.16552 0.907586,-0.23258 1.257282,-0.20685 0.201074,0.0148 0.39515,0.0803 0.592725,0.12051 0.177334,0.0836 0.366111,0.1463 0.532,0.25078 0.830282,0.52292 1.168149,1.44986 1.105178,2.39309 -0.110969,0.44637 -0.121063,0.63544 -0.371398,1.03497 -0.692168,1.10469 -2.544487,1.78936 -3.312503,2.23841 -0.165187,0.0966 -0.342824,0.17196 -0.522537,0.23768 -0.188596,0.069 -0.386216,0.11015 -0.579325,0.16523 -0.201103,0.0238 -0.400898,0.0653 -0.603311,0.0713 -0.749988,0.0222 -1.593878,-0.20442 -2.143051,-0.743 -0.128301,-0.12583 -0.218751,-0.28517 -0.328126,-0.42776 -0.05539,-0.16937 -0.135935,-0.3325 -0.166159,-0.50812 -0.188405,-1.09472 0.456641,-2.08416 1.191667,-2.81797 1.007716,-0.61708 2.004884,-1.25173 3.023148,-1.85124 0.968173,-0.57003 2.121456,-0.70636 3.166813,-0.28636 0.167045,0.10455 0.349239,0.18809 0.501134,0.31364 0.788355,0.6516 0.986867,1.67027 0.83139,2.63308 -0.04886,0.19346 -0.08168,0.3917 -0.146585,0.58039 -0.627602,1.82456 -2.654749,2.78609 -4.387969,3.2971 -1.121022,0.0691 -1.825798,-0.1544 -2.443737,-1.14206 -0.06165,-0.15496 -0.139638,-0.30439 -0.184943,-0.46489 -0.25866,-0.91635 0.107081,-1.77099 0.675974,-2.48367 0.980711,-0.60738 1.950762,-1.23232 2.942135,-1.82214 0.886779,-0.52759 1.944255,-0.51462 2.916104,-0.28316 0.200176,0.0743 0.407174,0.13227 0.600528,0.22283 0.73161,0.34267 1.392145,0.91395 1.665392,1.6945 0.06521,0.18627 0.0852,0.38541 0.127798,0.57812 -0.003,0.2042 0.02143,0.41066 -0.009,0.61261 -0.06435,0.42721 -0.267794,0.8804 -0.493473,1.24226 -0.956016,1.53289 -2.59726,2.21513 -4.148964,3.09684 -0.263942,0.12832 -0.521174,0.27147 -0.791826,0.38495 -1.316971,0.55218 -2.779466,0.83059 -4.18924,0.53126 -0.503352,-0.21477 -0.74281,-0.24683 -1.110752,-0.66305 -0.625439,-0.7075 -0.393139,-1.60401 -0.04754,-2.37816 0.131951,-0.22916 0.251237,-0.46609 0.395854,-0.68747 1.363815,-2.08772 3.062327,-2.97005 5.307483,-4.17321 0.874615,-0.378 1.562642,-0.60261 2.284782,0.17368 0.305876,0.42276 0.474667,0.90741 0.709727,1.37026 0,0 -2.676128,1.52375 -2.676128,1.52375 z"
       inkscape:connector-curvature="0" />
    <path
       style="fill:#ff0000;fill-opacity:1;stroke:#050101;stroke-width:0;stroke-miterlimit:0.30000001;stroke-opacity:1;stroke-dasharray:none"
       id="path5061"
       d="m 20.210093,1009.2946 c -0.937213,-0.2175 -3.343114,1.4889 1.976285,-1.3225 0.08148,-0.043 -0.154643,0.1028 -0.218894,0.1689 -0.07634,0.079 -0.13286,0.174 -0.19929,0.2611 -0.439513,0.8606 -0.47994,1.5376 -0.148902,2.4402 0.535182,0.9174 1.296272,0.924 2.239084,0.7221 0.643383,-0.282 3.017247,-1.3422 -1.506128,0.9061 -0.190417,0.095 0.347939,-0.2454 0.51089,-0.382 0.500218,-0.4194 0.799199,-0.8236 1.118813,-1.3831 0.275735,-0.6379 0.347226,-1.5169 -0.41865,-1.8529 -0.127904,-0.056 -0.271963,-0.064 -0.407945,-0.096 -0.559201,-0.016 -1.067306,0.1497 -1.562276,0.3982 -0.19392,0.097 -0.756888,0.4247 -0.565845,0.3218 2.049947,-1.104 2.508961,-1.5337 1.415523,-0.6357 -0.511323,0.5115 -1.047755,1.0794 -1.15211,1.8205 0,0 -2.698295,1.3448 -2.698295,1.3448 l 0,0 c 0.006,-0.1202 -0.0077,-0.2431 0.0181,-0.3606 0.148208,-0.6757 0.714469,-1.2094 1.138833,-1.7137 1.355698,-1.2025 0.481468,-0.4816 3.543581,-2.2783 0.70911,-0.416 1.488985,-0.6895 2.317323,-0.5691 0.15664,0.06 0.324816,0.095 0.469921,0.1794 0.82685,0.4786 0.879958,1.4311 0.579371,2.2394 -0.08939,0.1765 -0.164249,0.3611 -0.268157,0.5294 -0.982481,1.5917 -3.306258,2.7666 -4.890346,3.3056 -0.179432,0.023 -0.357488,0.063 -0.538294,0.07 -0.840095,0.03 -1.551426,-0.3834 -1.940534,-1.1231 -0.05741,-0.1512 -0.127962,-0.2979 -0.172236,-0.4534 -0.208846,-0.7334 -0.102891,-1.5121 0.16748,-2.2126 0.633544,-1.3082 2.271484,-2.4119 3.729913,-2.0743 0,0 -2.537214,1.75 -2.537214,1.75 z"
       inkscape:connector-curvature="0" />
    <path
       style="fill:#ff0000;fill-opacity:1;stroke:#050101;stroke-width:0;stroke-miterlimit:0.30000001;stroke-opacity:1;stroke-dasharray:none"
       id="path5063"
       d="m 128.60728,988.38417 c -0.27475,-0.38685 -0.42497,-0.76106 -0.94758,-0.778 -0.77879,0.20884 -2.1298,0.97734 1.45502,-0.89927 0.0897,-0.047 -0.16587,0.11801 -0.23648,0.19055 -0.20583,0.21147 -0.26348,0.36665 -0.4055,0.62955 -0.45972,1.0258 -0.37727,2.11037 -0.10992,3.17138 0.27849,0.78946 0.75893,1.53908 1.61727,1.76405 0.14545,0.0381 0.29753,0.0438 0.4463,0.0656 0.40551,-0.0411 0.53065,-0.025 0.92021,-0.18751 0.16466,-0.0687 0.62972,-0.33582 0.47247,-0.25153 -2.44898,1.3126 -1.80617,1.15089 -1.17319,0.4479 0.13437,-0.14922 0.2475,-0.31628 0.37126,-0.47442 0.50469,-0.86425 0.89485,-1.87622 0.80259,-2.89738 -0.0163,-0.18044 -0.0652,-0.35643 -0.0979,-0.53465 -0.25337,-0.81657 -0.79899,-1.54904 -1.60361,-1.89371 -0.14309,-0.0613 -0.29733,-0.0923 -0.44599,-0.13848 -0.45551,-0.0863 -0.89102,-0.0434 -1.30914,0.16444 -0.13112,0.0652 -0.50198,0.30072 -0.37111,0.23504 1.76798,-0.88727 2.14894,-1.42305 1.42324,-0.56616 -0.56625,0.94341 -0.55395,1.59609 -0.0606,2.55776 0.39564,0.55884 0.98507,0.94258 1.69164,0.77124 0.13495,-0.0327 0.2611,-0.0946 0.39166,-0.14193 1.19821,-0.75512 -0.56156,0.36811 -1.26181,0.6244 -0.17125,0.0627 0.25824,-0.25887 0.3703,-0.40275 0.36878,-0.47349 0.54792,-0.97748 0.70893,-1.54591 0.15659,-0.90833 0.0369,-1.87253 -0.57854,-2.59753 -0.10517,-0.12389 -0.23457,-0.22496 -0.35185,-0.33744 -0.62699,-0.43061 -1.44142,-0.63979 -2.15966,-0.29263 -0.13191,0.0638 -0.24798,0.1561 -0.37198,0.23415 0.57855,-0.30324 1.12317,-0.68266 1.73564,-0.90972 0.14674,-0.0544 -0.20512,0.23836 -0.28604,0.37231 -0.36321,0.60128 -0.37551,1.19322 -0.28943,1.86437 0.19618,0.72193 0.62264,1.41997 1.33882,1.72596 0.11292,0.0482 0.23579,0.0687 0.35368,0.10302 0.32964,0.0136 0.39122,0.0482 0.71128,-0.0706 0.11992,-0.0445 0.45362,-0.23654 0.34187,-0.1743 -0.58759,0.32725 -1.157,0.69177 -1.76958,0.96944 -0.11718,0.0531 0.18483,-0.18083 0.26005,-0.2852 0.0779,-0.10811 0.13096,-0.23213 0.19644,-0.34819 0.23666,-0.63557 0.21989,-1.37747 -0.23552,-1.9228 -0.083,-0.0994 -0.19562,-0.16987 -0.29343,-0.25481 -0.34555,-0.21504 -0.72829,-0.32901 -1.13886,-0.29598 -0.81033,0.0652 -2.50969,1.17251 0.87109,-0.68024 -0.63877,0.53391 -1.02342,1.29049 -1.03478,2.13108 -0.002,0.16423 0.0269,0.32738 0.0403,0.49107 0.15633,0.71384 0.66381,1.3184 1.421,1.42495 0.13369,0.0188 0.27002,-3.1e-4 0.40503,-4.7e-4 0.83221,-0.13601 2.47086,-0.98804 -0.89774,0.71995 -0.12553,0.0637 0.2289,-0.1648 0.33337,-0.2591 0.27316,-0.24655 0.26868,-0.28439 0.4541,-0.58414 0.22934,-0.62977 0.14181,-0.89082 -0.55025,-0.81106 -0.0941,0.0371 -0.19261,0.0645 -0.28221,0.11135 -0.10248,0.0536 -0.39387,0.24195 -0.29118,0.18872 0.59451,-0.30817 1.15253,-0.68997 1.76784,-0.95416 0.12608,-0.0541 -0.18695,0.20151 -0.26975,0.31093 -0.24768,0.3273 -0.24662,0.37738 -0.41425,0.74442 -0.15429,0.54088 -0.21751,1.22372 0.19736,1.67887 0.0582,0.0638 0.13862,0.10295 0.20793,0.15442 0.0838,0.0206 0.16506,0.0591 0.25126,0.0617 0.49166,0.0151 3.58562,-1.6038 -1.31356,0.86784 -0.0887,0.0447 0.1555,-0.12575 0.2191,-0.20209 0.067,-0.0805 0.11307,-0.17635 0.16961,-0.26452 0.18364,-0.42098 0.14839,-0.95759 -0.29335,-1.2095 -0.0798,-0.0455 -0.1727,-0.0628 -0.25904,-0.0942 -0.10162,-0.008 -0.20299,-0.025 -0.30485,-0.0224 -0.19277,0.005 -0.50874,0.059 -0.68705,0.13128 -0.10588,0.0429 -0.3985,0.2236 -0.29837,0.16861 1.88463,-1.03509 2.29822,-1.47112 1.56631,-0.76829 -0.34072,0.48517 -0.38751,0.93641 0.14093,1.27784 0.20998,0.10105 0.43976,0.16041 0.66958,0.0826 0.0604,-0.0205 0.22301,-0.12411 0.16738,-0.0929 -2.00175,1.1247 -2.49726,1.58976 -1.81078,0.97037 0.28358,-0.49714 -0.074,-0.80577 -0.5114,-1.00145 -0.38702,-0.12122 -0.81272,-0.14952 -1.18789,0.0335 -0.0744,0.0363 -0.28001,0.17668 -0.20718,0.13721 0.64312,-0.34853 1.27922,-0.70988 1.91883,-1.06482 0,0 -2.26284,0.93996 -2.26284,0.93996 l 0,0 c 1.43061,-0.89296 2.20973,-1.94204 3.77837,-1.38434 0.52723,0.30166 0.92642,0.71088 0.72469,1.35976 -0.45908,0.99955 -0.0781,0.27828 -2.38171,1.51869 -0.0949,0.0511 -0.35676,0.0337 -0.4467,0.0174 -0.24842,-0.0449 -0.29469,-0.0904 -0.51716,-0.20581 -0.59513,-0.4802 -0.65079,-0.96673 -0.31937,-1.64866 0.79799,-0.95252 0.23275,-0.33632 2.58229,-1.68501 0.42317,-0.2429 0.96452,-0.22734 1.4186,-0.11251 0.10037,0.0524 0.20897,0.0914 0.30111,0.15719 0.48366,0.34546 0.60628,0.95726 0.44147,1.49942 -0.53922,1.16899 -1.13987,1.10534 -2.69375,1.92883 -0.29286,0.15521 -0.65982,0.0358 -0.92438,-0.10181 -0.081,-0.0742 -0.1734,-0.13759 -0.24296,-0.2226 -0.43684,-0.5339 -0.43097,-1.25764 -0.28772,-1.89324 0.60554,-1.58864 1.18099,-1.5338 3.00414,-2.63765 0.2754,-0.16674 0.35495,-0.15466 0.65849,-0.21182 0.82046,0.0806 0.99828,0.48807 0.78778,1.25482 -0.17084,0.35584 -0.39419,0.75285 -0.74648,0.96811 -1.21054,0.73967 -2.01894,1.47192 -3.3243,1.55805 -0.14595,-0.0175 -0.29512,-0.0173 -0.43787,-0.0524 -0.82228,-0.20221 -1.36409,-0.87131 -1.55306,-1.66993 -0.0199,-0.17705 -0.056,-0.35302 -0.0598,-0.53114 -0.0187,-0.88274 0.3285,-1.6959 0.93728,-2.32433 1.15773,-0.67541 2.6821,-2.11421 4.19233,-1.40574 0.1342,0.063 0.25348,0.15376 0.38022,0.23064 0.10896,0.105 0.23261,0.19662 0.32687,0.31498 0.48598,0.61027 0.55801,1.41133 0.35018,2.13803 -0.58688,1.31332 -1.04982,1.1811 -2.79526,2.16327 -0.35561,0.2001 -0.77645,0.18486 -1.15866,0.10214 -1.01237,-0.40378 -1.49426,-1.02923 -1.81222,-2.0653 -0.11271,-0.71389 -0.12026,-1.35698 0.20852,-2.02613 0.072,-0.1466 0.13032,-0.31741 0.26195,-0.4141 0.75904,-0.55751 1.58556,-1.01678 2.37833,-1.52517 0.13523,-0.0634 0.26394,-0.14315 0.40569,-0.1902 0.80519,-0.26728 1.64454,0.019 2.2944,0.50712 0.12373,0.1263 0.25964,0.24172 0.3712,0.37888 0.63907,0.78582 0.80116,1.80235 0.66643,2.78267 -0.0468,0.19617 -0.0785,0.39654 -0.14032,0.58851 -0.56447,1.75368 -2.10067,2.48579 -3.74844,3.24264 -0.14327,0.0329 -0.28364,0.083 -0.4298,0.0987 -0.78343,0.0838 -1.41,-0.39737 -1.83122,-1.00956 -0.53327,-1.032 -0.59741,-1.74133 -0.0638,-2.80125 0.81013,-1.14009 0.20695,-0.39401 2.67345,-1.90236 0.55239,-0.33781 1.17616,-0.39069 1.79521,-0.23198 0.15622,0.0596 0.31863,0.10508 0.46866,0.17893 0.8414,0.41416 1.41773,1.19891 1.69906,2.07576 0.038,0.19116 0.0928,0.37973 0.11396,0.57347 0.11578,1.06089 -0.26367,2.1134 -0.73969,3.04036 -0.99393,1.40318 -1.25609,1.30476 -3.26495,2.46689 -0.45867,0.26533 -0.97166,0.35848 -1.49427,0.32436 -0.15816,-0.0364 -0.32109,-0.0562 -0.47447,-0.1093 -0.89611,-0.31004 -1.41062,-1.10855 -1.71176,-1.96318 -0.29041,-1.09761 -0.40621,-2.22205 0.005,-3.30969 0.10079,-0.22664 0.20568,-0.49806 0.35365,-0.70296 0.0613,-0.0849 0.12428,-0.17574 0.21349,-0.2307 0.88106,-0.54285 1.74917,-1.41644 2.83229,-1.39452 0.54421,0.15426 0.75554,0.51337 1.07328,0.9493 0,0 -2.13405,1.23688 -2.13405,1.23688 z"
       inkscape:connector-curvature="0" />
  </g>
</svg>
