<?xml version="1.0" encoding="UTF-8" standalone="no"?>
<!-- Created with Inkscape (http://www.inkscape.org/) -->

<svg
   xmlns:dc="http://purl.org/dc/elements/1.1/"
   xmlns:cc="http://creativecommons.org/ns#"
   xmlns:rdf="http://www.w3.org/1999/02/22-rdf-syntax-ns#"
   xmlns:svg="http://www.w3.org/2000/svg"
   xmlns="http://www.w3.org/2000/svg"
   xmlns:sodipodi="http://sodipodi.sourceforge.net/DTD/sodipodi-0.dtd"
   xmlns:inkscape="http://www.inkscape.org/namespaces/inkscape"
   width="160"
   height="63.950001"
   id="svg2"
   version="1.1"
   inkscape:version="0.48.4 r9939"
   inkscape:export-filename="integral.png"
   inkscape:export-xdpi="150"
   inkscape:export-ydpi="150"
   sodipodi:docname="lde2.svg">
  <defs
     id="defs4" />
  <sodipodi:namedview
     id="base"
     pagecolor="#9fffa7"
     bordercolor="#666666"
     borderopacity="1.0"
     inkscape:pageopacity="0"
     inkscape:pageshadow="2"
     inkscape:zoom="4.8164584"
     inkscape:cx="80"
     inkscape:cy="61.974998"
     inkscape:document-units="px"
     inkscape:current-layer="layer1"
     showgrid="false"
     inkscape:window-width="1237"
     inkscape:window-height="1003"
     inkscape:window-x="43"
     inkscape:window-y="21"
     inkscape:window-maximized="1"
     fit-margin-top="0"
     fit-margin-left="0"
     fit-margin-right="0"
     fit-margin-bottom="0"
     showguides="true"
     inkscape:guide-bbox="true">
    <sodipodi:guide
       orientation="0,1"
       position="109.62412,63.532159"
       id="guide4800" />
  </sodipodi:namedview>
  <metadata
     id="metadata7">
    <rdf:RDF>
      <cc:Work
         rdf:about="">
        <dc:format>image/svg+xml</dc:format>
        <dc:type
           rdf:resource="http://purl.org/dc/dcmitype/StillImage" />
        <dc:title />
      </cc:Work>
    </rdf:RDF>
  </metadata>
  <g
     inkscape:label="Layer 1"
     inkscape:groupmode="layer"
     id="layer1"
     transform="translate(-6.6292965,-967.95563)">
    <path
       style="fill:#008000;stroke-width:1.89999998;stroke-miterlimit:4;stroke-dasharray:7.6, 7.6;stroke-dashoffset:0"
       id="path3002"
       d="m 11.497818,1000.692 c -0.131227,0.4187 -0.226857,0.8477 -0.316005,1.2771 -0.122884,1.0767 -0.01743,0.327 -2.7937384,1.3385 -0.081145,0.03 0.00128,-0.173 0.011209,-0.2588 0.0602,-0.5201 0.2002019,-1.0413 0.3075365,-1.5522 0.5501045,-2.37575 1.180548,-4.73145 1.7509189,-7.10257 0.589893,-2.52924 1.052631,-5.08921 1.41517,-7.66068 0.03197,-0.26097 0.06601,-0.5217 0.09591,-0.78291 0.02087,-0.18233 0.03836,-0.36504 0.05637,-0.54767 0.01041,-0.10555 0.02766,-0.21081 0.02889,-0.31686 3.96e-4,-0.0342 -0.05559,-0.0865 -0.02407,-0.0998 2.98248,-1.26237 2.772245,-2.06841 2.845186,-0.542 0.08348,1.67533 0.279295,3.36319 0.778302,4.97137 0.103605,0.3339 0.238414,0.6573 0.357621,0.98594 0.419472,0.90057 1.126323,2.50382 2.128571,2.90997 0.129838,0.0526 0.275194,0.0527 0.412791,0.079 0.131773,-0.0341 0.272757,-0.0432 0.395319,-0.10245 0.142185,-0.0687 0.527626,-0.3444 0.385744,-0.27505 -0.731245,0.35738 -1.396866,0.85445 -2.158489,1.14146 -0.188563,0.0711 0.264064,-0.30544 0.379072,-0.47091 0.261964,-0.37689 0.425077,-0.73361 0.631775,-1.14123 0.356003,-0.71569 0.543355,-1.48941 0.738007,-2.25842 0.916536,-0.49201 1.785018,-1.08657 2.749607,-1.47604 0.104859,-0.0423 0.09569,0.20601 0.126247,0.31489 0.03993,0.14228 0.06245,0.28909 0.08427,0.43524 0.131293,0.87908 0.184136,1.77207 0.251847,2.65724 0.241575,3.35222 0.629198,6.69228 0.974167,10.0351 0.40134,4.0714 0.808785,8.1421 1.280868,12.2061 0.349828,2.9516 0.758683,5.9009 0.884347,8.8726 -0.0071,1.3989 0.101166,2.9543 -0.603259,4.2274 -0.103616,0.1873 -0.243139,0.3523 -0.364708,0.5284 -1.162965,1.0921 -2.590825,2.1453 -4.2003,2.3459 -0.784441,0.098 -1.520469,-0.077 -2.276571,-0.2559 -1.444765,-0.4779 -2.840478,-1.277 -3.762628,-2.5213 -0.196263,-0.2648 -0.345701,-0.5614 -0.518551,-0.842 -0.123578,-0.3273 -0.278358,-0.6444 -0.370733,-0.9818 -0.483875,-1.7673 -0.113061,-3.6587 0.470706,-5.3528 0.1907,-0.5534 0.434863,-1.0869 0.652294,-1.6304 1.576861,-3.5023 3.971658,-6.5233 6.443418,-9.428 0,0 2.499781,-1.0578 2.499781,-1.0578 l 0,0 c -2.482922,2.8681 -4.893188,5.8533 -6.462589,9.3385 -0.21175,0.5304 -0.450218,1.0508 -0.63525,1.5911 -0.554499,1.619 -0.907694,3.4471 -0.442713,5.1348 0.08787,0.319 0.236142,0.6181 0.354213,0.9271 0.165668,0.2651 0.30862,0.5458 0.497006,0.7953 0.903422,1.1963 2.274333,1.9405 3.68726,2.3517 0.744772,0.1447 1.460415,0.2842 2.218661,0.1219 0.212602,-0.046 0.79566,-0.3316 0.619496,-0.2042 -0.466427,0.3374 -3.074427,1.9127 -1.506558,0.8443 0.132556,-0.1597 0.282612,-0.3063 0.397667,-0.4791 0.801121,-1.2026 0.720518,-2.7731 0.761192,-4.1487 -0.04274,-2.9878 -0.414427,-5.9587 -0.729673,-8.9272 -0.429783,-4.0705 -0.820093,-8.1451 -1.268092,-12.2137 -0.372167,-3.3174 -0.792553,-6.62931 -1.147642,-9.94853 -0.0963,-0.85191 -0.179901,-1.71309 -0.364238,-2.5523 -0.01713,-0.078 -0.131802,-0.45233 -0.124911,-0.45654 0.865247,-0.52857 1.755913,-1.01436 2.633869,-1.52154 -0.166979,0.19232 -0.192968,0.48171 -0.267079,0.72113 -0.165983,0.53621 -0.34736,1.06847 -0.574626,1.58231 -0.157819,0.32773 -0.672329,1.50289 -0.944716,1.70113 -0.944044,0.68708 -1.955698,1.27689 -2.953999,1.88245 -0.143398,0.087 -0.301056,0.15735 -0.465237,0.19161 -0.150872,0.0315 -0.30824,0.001 -0.46236,0.002 -0.150592,-0.0563 -0.311594,-0.0901 -0.451778,-0.16879 -1.055208,-0.59224 -1.650917,-2.09501 -2.122024,-3.1287 -0.119045,-0.33802 -0.251864,-0.6715 -0.357135,-1.01406 -0.494745,-1.60996 -0.717436,-3.2865 -0.919807,-4.95295 -0.202721,-1.5421 -0.198555,-0.34417 2.664941,-2.0712 0.0264,-0.0159 -0.07773,-0.0364 -0.09205,-0.009 -0.05305,0.10122 -0.05567,0.22177 -0.07812,0.33383 -0.03797,0.18952 -0.07075,0.38006 -0.103095,0.57063 -0.04546,0.2678 -0.08689,0.53627 -0.130331,0.80441 -0.446517,2.58594 -0.924249,5.16829 -1.504039,7.72796 -0.542475,2.33528 -1.130555,4.66147 -1.596557,7.01335 -0.08166,0.4912 -0.171879,0.9824 -0.234636,1.4766 -0.008,0.063 0.03443,0.1557 -0.01959,0.1884 -0.892689,0.5406 -1.8309704,1.0021 -2.7531872,1.4905 -0.017256,0.01 0.021247,-0.033 0.031871,-0.049 0.115568,-0.4295 0.229709,-0.8596 0.3217057,-1.2948 0,0 2.7772555,-1.3191 2.7772555,-1.3191 z"
       inkscape:connector-curvature="0" />
    <path
       style="fill:#008000;stroke-width:1.89999998;stroke-miterlimit:4;stroke-dasharray:7.6, 7.6;stroke-dashoffset:0"
       id="path3004"
       d="m 23.632216,974.45763 c 0.665189,1.63607 1.539764,3.17589 2.451619,4.68449 0.865186,1.4451 1.816536,2.83601 2.686077,4.2781 0,0 -2.542,1.46857 -2.542,1.46857 l 0,0 c -0.820845,-1.46765 -1.747402,-2.87207 -2.615742,-4.31173 -0.92754,-1.50778 -1.805464,-3.04348 -2.643897,-4.60262 0,0 2.663943,-1.51681 2.663943,-1.51681 z"
       inkscape:connector-curvature="0" />
    <path
       style="fill:#008000;stroke-width:1.89999998;stroke-miterlimit:4;stroke-dasharray:7.6, 7.6;stroke-dashoffset:0"
       id="path3006"
       d="m 26.756146,973.75293 c 0.949245,1.29577 1.768027,2.67976 2.569287,4.06984 0.701156,1.30076 1.422965,2.59735 1.96717,3.97443 0.262523,0.6643 0.423732,1.2016 0.641134,1.87758 0,0 -2.546984,1.39645 -2.546984,1.39645 l 0,0 c -0.204109,-0.6733 -0.352126,-1.20367 -0.605864,-1.8642 -0.526656,-1.371 -1.233853,-2.66374 -1.941982,-3.94672 -0.812177,-1.36705 -1.642426,-2.74476 -2.716251,-3.92623 0,0 2.63349,-1.58115 2.63349,-1.58115 z"
       inkscape:connector-curvature="0" />
    <path
       style="fill:#008000;stroke-width:1.89999998;stroke-miterlimit:4;stroke-dasharray:7.6, 7.6;stroke-dashoffset:0"
       id="path3012"
       d="m 40.921999,977.64869 c -0.168552,-0.16146 -0.417002,-0.23945 -0.574195,-0.41388 -0.728358,-0.80821 2.080083,-1.5472 2.930512,-1.98474 2.277182,-0.16697 4.559349,-0.21388 6.841959,-0.19622 2.242898,0.0851 4.606564,0.16717 6.687403,1.11828 0.344921,0.15765 0.660621,0.37267 0.990932,0.559 0.270724,0.23872 0.573612,0.44529 0.812173,0.71615 1.082772,1.22938 1.23695,2.90459 1.09253,4.46705 -0.0453,0.49011 -0.143722,0.97385 -0.215584,1.46077 -0.757271,3.43164 -1.764436,6.80111 -2.616305,10.20979 -0.694281,2.89453 -1.07994,5.85029 -1.078286,8.82591 0.07304,1.1932 0.124194,2.4158 0.520319,3.5543 0,0 -2.652824,1.4523 -2.652824,1.4523 l 0,0 c -0.324061,-1.2083 -0.364458,-2.4703 -0.407888,-3.7144 0.04201,-3.0169 0.464476,-6.00995 1.168363,-8.94424 0.845262,-3.38552 1.837308,-6.73548 2.558574,-10.15073 0.270254,-1.91425 0.592108,-4.04845 -0.817301,-5.6385 -0.225938,-0.25489 -0.512749,-0.44852 -0.769123,-0.67277 -0.315341,-0.17751 -0.616529,-0.38292 -0.946022,-0.53253 -2.051183,-0.93136 -4.379994,-0.9921 -6.587441,-1.06955 -2.33847,-0.002 -4.687416,0.0467 -7.005477,0.38159 0.763038,-0.47307 1.564504,-0.88915 2.289114,-1.41921 0.06164,-0.0451 -0.129221,-0.0857 -0.202534,-0.10715 -0.01563,-0.005 -0.0084,0.0369 0.0027,0.0488 0.06266,0.0673 0.301657,0.21867 0.364986,0.25786 0.06613,0.0409 0.134311,0.0784 0.201466,0.11766 0,0 -2.588017,1.6745 -2.588017,1.6745 z"
       inkscape:connector-curvature="0" />
    <path
       style="fill:#008000;stroke-width:1.89999998;stroke-miterlimit:4;stroke-dasharray:7.6, 7.6;stroke-dashoffset:0"
       id="path3014"
       d="m 45.246782,995.2555 c 2.37675,0.0152 4.753101,0.0855 7.130603,0.0823 2.574987,-0.006 5.148549,-0.10671 7.721789,-0.19194 0,0 -2.182742,1.5959 -2.182742,1.5959 l 0,0 c -2.577595,0.0695 -5.154757,0.16263 -7.733235,0.19273 -2.796216,0.0379 -0.865324,0.0185 -3.486774,0.0291 -1.124193,0.005 -2.25809,-0.0151 -3.380746,0.0627 -0.176757,0.0123 -0.352241,0.0387 -0.528361,0.0581 0,0 2.459466,-1.82883 2.459466,-1.82883 z"
       inkscape:connector-curvature="0" />
    <path
       style="fill:#008000;stroke-width:1.89999998;stroke-miterlimit:4;stroke-dasharray:7.6, 7.6;stroke-dashoffset:0"
       id="path3016"
       d="m 63.622719,1004.9567 c 0.431187,-1.8748 0.946303,-3.7303 1.439722,-5.58962 0.28928,-0.99107 0.517026,-1.99884 0.785812,-2.99527 0.05253,-0.19474 0.107764,-0.38888 0.170418,-0.58061 0.036,-0.11014 0.02967,-0.25882 0.125294,-0.32427 0.871235,-0.59634 1.813217,-1.08209 2.719826,-1.62314 0.07518,0.12619 0.171458,0.24201 0.225553,0.37858 0.06554,0.16546 0.214405,0.9938 0.238521,1.11187 0.165361,0.80957 0.378427,1.59466 0.617091,2.38536 0.313471,0.74469 0.67226,2.127 1.429297,2.5726 0.07741,0.046 0.172578,0.05 0.258867,0.075 1.173294,-0.6293 -1.434172,0.8226 -2.174458,1.1894 -0.107969,0.053 0.183765,-0.1575 0.261578,-0.2495 0.268805,-0.3178 0.441358,-0.7094 0.62438,-1.0786 0.731623,-1.66518 0.704266,-1.44286 3.393107,-2.43948 0.116473,-0.0432 0.173154,0.17815 0.259731,0.26722 1.005417,1.37789 1.643317,2.98516 2.271344,4.55906 1.237813,3.0798 1.980599,6.3139 2.634982,9.5576 0.635041,3.2897 1.097056,6.6075 1.424122,9.9409 0.03163,1.3009 0.310679,2.8833 -0.239194,4.1264 -0.283024,0.6399 -0.477227,0.686 -1.010121,1.1052 -1.122092,0.5693 -2.19972,1.2364 -3.366276,1.7079 -0.370715,0.1499 -1.99398,0.046 -2.296003,0.02 -0.905903,-0.078 -1.933584,-0.2364 -2.816318,-0.4437 -0.484975,-0.1139 -0.959984,-0.2666 -1.439977,-0.4 -1.98619,-0.6905 -4.32617,-1.5233 -5.555793,-3.367 -0.197373,-0.296 -0.31247,-0.6392 -0.468704,-0.9587 -0.0493,-0.3596 -0.154139,-0.7158 -0.147883,-1.0787 0.04463,-2.5888 2.397772,-5.0138 3.995365,-6.8126 2.37325,-2.4871 4.978969,-4.7383 7.57393,-6.9882 0,0 2.493475,-1.0112 2.493475,-1.0112 l 0,0 c -2.607846,2.2346 -5.220559,4.478 -7.599217,6.9598 -1.526698,1.7212 -3.795919,4.0494 -3.909434,6.5114 -0.01537,0.3333 0.07081,0.6637 0.106217,0.9955 0.138651,0.3006 0.23695,0.6234 0.415952,0.9019 1.163935,1.8109 3.47058,2.6102 5.39395,3.2696 0.476405,0.1263 0.947712,0.2736 1.429216,0.3787 1.32007,0.2882 2.733239,0.468 4.087116,0.3821 0.351214,-0.022 1.233203,-0.446 1.045277,-0.1484 -0.364156,0.5765 -1.1231,0.7738 -1.68465,1.1607 0.526768,-0.3164 0.782643,-0.3752 1.096682,-0.9327 0.637764,-1.1324 0.420153,-2.8544 0.413229,-4.0852 -0.254375,-3.3411 -0.698326,-6.6623 -1.334133,-9.9533 -0.653185,-3.2171 -1.419003,-6.4227 -2.722161,-9.4488 -0.647211,-1.5069 -1.299916,-3.0782 -2.38031,-4.3336 -1.004214,-0.60227 -0.193079,-0.0459 2.309605,-1.58011 0.055,-0.0337 -0.130146,0.0264 -0.182763,0.0637 -0.174532,0.12385 -0.201775,0.28666 -0.282542,0.47506 -0.05031,0.11735 -0.102296,0.23397 -0.153443,0.35095 -0.760481,1.55478 -1.694048,3.36068 -4.004356,3.07298 -0.09902,-0.058 -0.208073,-0.1013 -0.297066,-0.1736 -0.814243,-0.6618 -1.032352,-1.8445 -1.420791,-2.75495 -0.339399,-1.11952 -0.636935,-2.24959 -0.941811,-3.37771 0.825269,-0.51013 1.620384,-1.07262 2.475807,-1.53039 0.107641,-0.0576 -0.143266,0.19942 -0.195163,0.30992 -0.530822,1.1303 -0.676558,2.44702 -1.091974,3.61764 -0.47119,1.80276 -0.954609,3.61119 -1.254854,5.45139 0,0 -2.746071,1.3612 -2.746071,1.3612 z"
       inkscape:connector-curvature="0" />
    <path
       style="fill:#008000;stroke-width:1.89999998;stroke-miterlimit:4;stroke-dasharray:7.6, 7.6;stroke-dashoffset:0"
       id="path3018"
       d="m 70.990365,974.77823 c 1.671615,0.67471 2.941127,1.99918 4.151707,3.28683 0.845884,0.98415 1.586566,2.04858 2.123118,3.23418 0.179635,0.39693 0.315679,0.81218 0.473518,1.21827 0,0 -2.472884,1.37706 -2.472884,1.37706 l 0,0 c -0.152414,-0.39714 -0.282516,-0.80358 -0.457242,-1.19143 -0.523927,-1.16298 -1.257494,-2.20102 -2.095999,-3.15688 -1.193547,-1.22883 -2.498597,-2.59112 -4.228405,-2.99437 0,0 2.506187,-1.77366 2.506187,-1.77366 z"
       inkscape:connector-curvature="0" />
    <path
       style="fill:#008000;stroke-width:1.89999998;stroke-miterlimit:4;stroke-dasharray:7.6, 7.6;stroke-dashoffset:0"
       id="path3024"
       d="m 101.9576,977.078 c -1.19431,-0.31917 -2.133541,0.16023 -3.142352,0.75673 0.591782,-0.29807 1.119398,-0.80049 1.775352,-0.89423 0.34376,-0.0491 -0.50406,0.47972 -0.728572,0.74464 -0.842098,0.99369 -1.422762,2.16345 -1.832881,3.39411 -0.168221,0.50479 -0.285174,1.02524 -0.427761,1.53785 -0.610031,3.00486 -0.721574,6.1225 -0.144632,9.14374 0.111765,0.58527 0.277315,1.15898 0.415972,1.73848 0.713664,2.31139 1.743552,4.58788 3.446724,6.34793 0.24797,0.25625 0.52858,0.47875 0.79287,0.71815 0.76858,0.5593 1.78672,1.229 2.78891,0.8396 0.1969,-0.077 0.73181,-0.4195 0.53878,-0.3337 -0.69593,0.3094 -1.36759,0.6707 -2.05138,1.0061 0.13943,-0.2104 0.30236,-0.407 0.41831,-0.6312 0.51662,-0.999 0.64629,-2.22312 0.46963,-3.32407 -0.0428,-0.2668 -0.12959,-0.52466 -0.19438,-0.78699 -0.10968,-0.22572 -0.19036,-0.468 -0.32903,-0.67716 -0.6202,-0.93551 -1.7355,-1.2117 -2.7998,-1.12302 -0.342,0.0285 -0.67618,0.11787 -1.014274,0.1768 -1.444244,0.47554 -0.729959,0.19337 -2.140457,0.85254 0,0 2.234731,-1.7731 2.234731,-1.7731 l 0,0 c 1.45413,-0.63387 0.71637,-0.36552 2.21162,-0.8096 0.8489,-0.11615 1.19462,-0.23479 2.03606,-0.0859 1.22534,0.21684 1.92997,0.92591 2.37956,2.04556 0.0693,0.27719 0.15999,0.54988 0.20775,0.83156 0.24297,1.43286 0.0119,2.92169 -0.74354,4.16597 -1.00169,0.6638 -1.98402,1.3578 -3.00508,1.9914 -0.18583,0.1153 -0.39305,0.203 -0.60667,0.2498 -1.07378,0.2355 -2.06609,-0.4844 -2.848868,-1.104 -0.260853,-0.2546 -0.537239,-0.4942 -0.78256,-0.7638 -1.67657,-1.8425 -2.699843,-4.15932 -3.401759,-6.52275 -0.137961,-0.58888 -0.301712,-1.17231 -0.413884,-1.76665 -0.573954,-3.04107 -0.498003,-6.17661 0.04162,-9.21491 0.128389,-0.51648 0.232416,-1.03964 0.385168,-1.54944 0.373299,-1.24588 0.907483,-2.4276 1.706751,-3.45945 0.2114,-0.27291 0.407102,-0.57302 0.68723,-0.77477 1.02803,-0.74039 2.140852,-1.35529 3.211282,-2.03293 0.24521,-0.12975 0.48198,-0.2769 0.73564,-0.38924 0.84805,-0.37561 1.77267,-0.48928 2.67247,-0.25323 0,0 -2.54856,1.72917 -2.54856,1.72917 z"
       inkscape:connector-curvature="0" />
    <path
       style="fill:#008000;stroke-width:1.89999998;stroke-miterlimit:4;stroke-dasharray:7.6, 7.6;stroke-dashoffset:0"
       id="path3026"
       d="m 112.77474,993.23895 c -0.60957,0.62382 -0.97361,1.48258 -1.00489,2.35733 -0.007,0.19148 0.0218,0.38258 0.0328,0.57387 0.13634,0.5218 0.40016,1.27514 1.04797,1.3448 0.30084,0.0323 0.47824,-0.11723 0.72769,-0.25109 -3.63314,2.0851 -2.17559,1.4572 -1.46475,0.29771 0.32297,-0.52682 0.54076,-1.0867 0.74722,-1.6656 0.12189,-0.37728 0.2159,-0.76276 0.28784,-1.15246 0.0117,-0.0635 0.0223,-0.12723 0.0312,-0.19119 0.003,-0.0202 -0.0149,-0.0527 0.004,-0.061 0.90294,-0.40248 1.82029,-0.77183 2.73043,-1.15775 0.0231,1.68559 0.32589,3.36132 0.62276,5.01684 0.5586,2.85769 1.35452,5.66029 2.02215,8.49299 0.66096,2.8695 0.92358,5.795 0.92453,8.7333 -0.1267,1.6564 -0.17967,3.5291 -1.16445,4.9533 -0.14512,0.2098 -0.33437,0.3854 -0.50155,0.5782 -1.36685,0.9278 -1.70593,1.1994 -3.92134,2.046 -0.27942,0.1068 -0.59975,0.01 -0.89712,-0.022 -1.17709,-0.1284 -2.21616,-0.575 -3.28769,-1.045 -1.94638,-1.0362 -3.76073,-2.4061 -5.04893,-4.2201 -0.23079,-0.325 -0.41942,-0.678 -0.62914,-1.017 -0.65525,-1.3073 -0.98271,-2.7365 -0.56022,-4.1754 0.28211,-0.9608 0.51459,-1.1543 1.08103,-1.9766 0.86691,-1.0485 2.00428,-1.7575 3.13327,-2.4816 0,0 2.61457,-1.0154 2.61457,-1.0154 l 0,0 c -1.11357,0.691 -2.23879,1.3673 -3.12111,2.3585 -0.57103,0.763 -0.80798,0.9476 -1.1098,1.8535 -0.45557,1.3673 -0.18005,2.7385 0.4317,4.0033 0.19931,0.3312 0.37713,0.6763 0.59792,0.9936 1.24762,1.7928 3.03816,3.1281 4.9693,4.103 1.07385,0.4322 2.11462,0.8492 3.2889,0.8995 0.29059,0.012 1.04926,-0.2779 0.87124,-0.048 -0.44117,0.57 -1.21277,0.7828 -1.78213,1.2248 -0.1937,0.1504 0.43301,-0.2303 0.64952,-0.3454 0.18019,-0.1748 0.3827,-0.3293 0.54058,-0.5245 1.06772,-1.32 1.17405,-3.2553 1.33056,-4.864 0.008,-0.4441 0.0274,-0.8881 0.0237,-1.3322 -0.0206,-2.4779 -0.36556,-4.9392 -0.88407,-7.3589 -0.66537,-2.8326 -1.46317,-5.6321 -2.07654,-8.47707 -0.33797,-1.65138 -0.65601,-3.30932 -0.85794,-4.98366 0.92186,-0.53918 1.82473,-1.11221 2.76556,-1.61754 0.0586,-0.0315 0.0129,0.0838 -0.0478,0.33299 -0.0989,0.40626 -0.19315,0.8139 -0.32416,1.21158 -0.27497,0.78738 -0.57485,1.5654 -1.04225,2.26298 -0.10556,0.15754 -0.18628,0.34759 -0.34368,0.45337 -0.95973,0.64499 -1.98539,1.18602 -2.97809,1.77903 -0.14918,0.0383 -0.29384,0.10499 -0.44754,0.11492 -0.93858,0.0606 -1.40408,-0.95129 -1.60089,-1.69781 -0.0176,-0.20749 -0.053,-0.41425 -0.0527,-0.62249 10e-4,-0.89107 0.30833,-1.78834 0.83095,-2.50463 0,0 2.8416,-1.17703 2.8416,-1.17703 z"
       inkscape:connector-curvature="0" />
    <path
       style="fill:#008000;stroke-width:1.89999998;stroke-miterlimit:4;stroke-dasharray:7.6, 7.6;stroke-dashoffset:0"
       id="path3028"
       d="m 121.27954,992.48705 c -0.0942,-0.0395 -0.63071,-0.0672 -0.66867,-0.14498 -0.6205,-1.27114 1.9719,-1.43772 2.80764,-1.882 1.7667,-0.19636 3.52587,-0.45242 5.2838,-0.71433 1.59559,-0.2169 0.80384,-0.10666 2.3753,-0.33052 0,0 -2.28637,1.71039 -2.28637,1.71039 l 0,0 c -1.56553,0.21669 -0.77595,0.1069 -2.36874,0.32943 -1.81512,0.2792 -3.6356,0.52997 -5.44354,0.85227 0.80583,-0.48186 1.67372,-0.87258 2.4175,-1.4456 0.0873,-0.0673 -0.15222,-0.16056 -0.2159,-0.25055 -0.009,-0.0127 0.0304,0.007 0.0457,0.01 0.19068,0.0389 0.38254,0.0711 0.57554,0.0962 0,0 -2.52225,1.76963 -2.52225,1.76963 z"
       inkscape:connector-curvature="0" />
    <path
       style="fill:#008000;stroke-width:1.89999998;stroke-miterlimit:4;stroke-dasharray:7.6, 7.6;stroke-dashoffset:0"
       id="path3030"
       d="m 123.31096,995.54037 c 1.47015,0.10229 2.92335,-0.14458 4.36642,-0.39182 0.3244,-0.0536 0.6488,-0.10712 0.9732,-0.16069 0,0 -2.31599,1.74142 -2.31599,1.74142 l 0,0 c -0.32404,0.0538 -0.64808,0.10754 -0.97212,0.16132 -1.50646,0.25295 -3.02399,0.49955 -4.55769,0.42343 0,0 2.50618,-1.77366 2.50618,-1.77366 z"
       inkscape:connector-curvature="0" />
    <path
       style="fill:#008000;stroke-width:1.89999998;stroke-miterlimit:4;stroke-dasharray:7.6, 7.6;stroke-dashoffset:0"
       id="path3032"
       d="m 138.85176,989.71561 c 1.32242,1.33748 2.65358,2.66652 3.98286,3.99724 2.16512,2.18895 4.21745,4.48424 6.40195,6.65425 1.07116,1.0131 2.11556,2.062 3.25346,3.0018 0.0375,0.026 0.0749,0.052 0.11239,0.078 0,0 -2.62206,1.6253 -2.62206,1.6253 l 0,0 c -0.0287,-0.034 -0.0574,-0.067 -0.0861,-0.1013 -0.99636,-1.0676 -2.05529,-2.0755 -3.06334,-3.1319 -2.13333,-2.21337 -4.16428,-4.52471 -6.37063,-6.66712 -1.38843,-1.3233 -2.78104,-2.64378 -4.25176,-3.87626 0,0 2.64324,-1.57981 2.64324,-1.57981 z"
       inkscape:connector-curvature="0" />
    <path
       style="fill:#008000;stroke-width:1.89999998;stroke-miterlimit:4;stroke-dasharray:7.6, 7.6;stroke-dashoffset:0"
       id="path3034"
       d="m 146.0164,991.53978 c -1.18365,0.60663 1.29248,-0.78851 1.97001,-1.12397 0.19783,-0.0979 -0.35464,0.26365 -0.5218,0.40784 -0.87296,0.753 -1.61386,1.63778 -2.37393,2.49995 -2.09863,2.45583 -4.10353,4.9861 -6.02098,7.5851 -0.78474,1.067 -1.52667,2.168 -2.34551,3.2098 0,0 -2.82674,1.1837 -2.82674,1.1837 l 0,0 c 0.29019,-0.2702 0.52848,-0.587 0.77586,-0.8965 0.62513,-0.782 1.23445,-1.5766 1.82215,-2.3872 1.95016,-2.57436 3.94822,-5.10982 6.00562,-7.59977 1.68097,-1.99549 3.27992,-3.99283 5.97775,-4.73091 0,0 -2.46243,1.85196 -2.46243,1.85196 z"
       inkscape:connector-curvature="0" />
    <path
       style="fill:#008000;stroke-width:1.89999998;stroke-miterlimit:4;stroke-dasharray:7.6, 7.6;stroke-dashoffset:0"
       id="path3036"
       d="m 151.58853,974.06259 c -0.14014,-0.13231 -0.55082,-0.79809 -0.70456,-0.83248 -0.0236,-0.005 -0.0271,0.0401 -0.0406,0.0602 0.87737,-0.47183 1.74126,-0.96962 2.63211,-1.41548 0.0471,-0.0236 -0.064,0.0865 -0.0781,0.13725 -0.0285,0.1025 -0.0396,0.20948 -0.0477,0.31555 -0.0414,0.54237 0.008,1.09074 0.0485,1.631 0.10801,1.10315 0.18422,2.23261 0.59959,3.27064 0.0765,0.12623 0.18143,0.34117 0.31954,0.4283 0.31151,0.19651 0.86166,-0.0353 1.16451,-0.12049 0.95516,-0.34028 1.91287,-0.64498 2.92445,-0.74834 0.71989,-0.021 1.49564,0.19785 1.82865,0.90404 0.0642,0.13615 0.0903,0.2872 0.13539,0.43081 6.5e-4,0.15919 0.0249,0.32005 0.002,0.47757 -0.18868,1.2943 -1.35683,2.1806 -2.30191,2.93553 -1.96356,1.32241 -4.00221,2.59602 -6.2996,3.22392 -0.93779,0.2563 -1.08255,0.25017 -2.02503,0.39082 -1.09976,0.0555 -2.35973,0.17347 -3.38517,-0.34628 -0.12143,-0.0616 -0.22541,-0.15273 -0.33811,-0.2291 -0.41332,-0.46069 -0.40283,-0.77178 -0.2262,-1.33354 0,0 2.75637,-1.27531 2.75637,-1.27531 l 0,0 c -0.18564,0.36631 -0.29529,0.64065 0.0224,0.97229 1.02642,0.65178 2.32553,0.5677 3.48798,0.47276 1.03287,-0.16911 2.0255,-0.37924 3.00625,-0.75878 0.33718,-0.13049 1.26097,-0.67912 0.99296,-0.43646 -0.44207,0.40026 -1.01557,0.62572 -1.53178,0.92432 -0.28615,0.16552 0.56092,-0.34998 0.84139,-0.52497 1.01508,-0.77863 2.24085,-1.65329 2.34395,-3.04202 -0.0321,-0.11589 -0.0466,-0.23817 -0.0964,-0.34768 -0.28102,-0.61894 -1.03887,-0.68247 -1.62476,-0.6406 -1.00512,0.14395 -1.95196,0.48466 -2.91775,0.78643 -0.82437,0.16689 -1.33926,0.16739 -1.72448,-0.67218 -0.38974,-1.07998 -0.46541,-2.23338 -0.59453,-3.36684 -0.068,-0.6598 -0.13404,-1.32029 -0.12499,-1.98407 0.001,-0.0832 -0.0664,-0.20367 0.003,-0.24963 0.88073,-0.58351 1.83375,-1.04981 2.75062,-1.57472 0.3299,0.25559 0.52468,0.64388 0.83112,0.92646 0,0 -2.62907,1.61109 -2.62907,1.61109 z"
       inkscape:connector-curvature="0" />
    <path
       style="fill:#008000;stroke-width:1.89999998;stroke-miterlimit:4;stroke-dasharray:7.6, 7.6;stroke-dashoffset:0"
       id="path3038"
       d="m 154.17401,972.74449 c 1.73905,-0.62031 3.5211,-1.11035 5.29063,-1.63438 2.19721,-0.67915 4.41387,-1.29191 6.62085,-1.93775 0.41922,-0.12406 0.83944,-0.24264 1.25169,-0.38823 0,0 -2.41717,1.87107 -2.41717,1.87107 l 0,0 c -0.38937,0.10549 -0.77954,0.20796 -1.16899,0.31317 -2.18228,0.58928 -4.36148,1.19021 -6.51919,1.86524 -1.8378,0.5546 -3.6956,1.07319 -5.46858,1.81615 0,0 2.41076,-1.90527 2.41076,-1.90527 z"
       inkscape:connector-curvature="0" />
    <path
       style="fill:#008000;stroke-width:1.89999998;stroke-miterlimit:4;stroke-dasharray:7.6, 7.6;stroke-dashoffset:0"
       id="path3040"
       d="m 23.504438,28.268606 c -0.346569,-0.07125 -0.696817,-0.120026 -1.049051,-0.151585 -0.13421,-0.01112 -0.269494,-0.01276 -0.404027,-0.0062 -0.06111,-0.0017 -0.148784,0.0037 -0.17622,0.01916 0.868135,-0.612491 1.717642,-1.252277 2.604405,-1.837474 0.04806,-0.03171 0.115108,0.0034 0.17267,0.0048 0.08726,0.0021 0.174532,0.0042 0.261807,0.0059 0.447387,0.0084 0.894839,0.01325 1.342273,0.01829 1.388355,0.08684 2.777631,0.150381 4.16829,0.1833 1.028722,0.06007 2.056102,0.139453 3.085469,0.188265 0.306962,0.01054 0.614515,0.02518 0.921724,0.01524 1.061876,-0.07151 0.122964,-0.0133 -2.597673,1.639383 -0.03354,0.02037 -0.05056,-0.130786 -0.09272,-0.04617 0,0 2.582008,-1.72126 2.582008,-1.72126 l 0,0 c 0.955954,0.824742 -0.938707,1.889696 -2.405689,1.947043 -0.293603,-0.02227 -0.587631,-0.03872 -0.881214,-0.0613 -1.002957,-0.08229 -2.004884,-0.182517 -3.010411,-0.228688 -1.39744,-0.04412 -2.793734,-0.114271 -4.191104,-0.156635 -0.464197,0.0051 -0.928403,0.01 -1.392559,0.01814 -1.354756,0.02379 -1.111934,0.280155 1.931031,-1.827623 0.05319,0.0197 0.12743,0.01582 0.193894,0.01731 0.136101,0.0107 0.272442,0.02053 0.407218,0.04325 0.351364,0.05204 0.700608,0.116375 1.052124,0.16727 0,0 -2.522247,1.769626 -2.522247,1.769626 z"
       inkscape:connector-curvature="0"
       transform="translate(6.6292965,967.95563)" />
    <path
       style="fill:#008000;stroke-width:1.89999998;stroke-miterlimit:4;stroke-dasharray:7.6, 7.6;stroke-dashoffset:0"
       id="path3042"
       d="m 76.369112,27.257254 c 1.164875,-0.29366 2.369456,-0.343151 3.55978,-0.460108 1.275184,-0.09635 2.546077,-0.219021 3.817042,-0.358736 0.360883,-0.0099 0.709048,-0.09432 1.05619,-0.183396 0,0 -2.432473,1.847368 -2.432473,1.847368 l 0,0 c -0.343416,0.05952 -0.688394,0.107257 -1.036754,0.127896 -1.256743,0.124452 -2.515991,0.20953 -3.773587,0.324095 -1.218799,0.119153 -2.450329,0.207716 -3.628386,0.567261 0,0 2.438188,-1.86438 2.438188,-1.86438 z"
       inkscape:connector-curvature="0"
       transform="translate(6.6292965,967.95563)" />
    <path
       style="fill:#008000;stroke-width:1.89999998;stroke-miterlimit:4;stroke-dasharray:7.6, 7.6;stroke-dashoffset:0"
       id="path3044"
       d="m 80.89186,22.290465 c -0.04547,1.344833 -0.07708,2.689315 -0.137762,4.033758 -0.142507,1.958868 -0.265267,3.917119 -0.176218,5.880834 0.07316,0.814413 0.205072,1.639421 0.571642,2.376967 0,0 -2.646209,1.498006 -2.646209,1.498006 l 0,0 c -0.354894,-0.797161 -0.48137,-1.666944 -0.533831,-2.533846 -0.0559,-1.975079 0.07796,-3.943686 0.196205,-5.914537 0.03291,-1.31409 0.0605,-2.628972 -0.01953,-3.942177 0,0 2.745701,-1.399005 2.745701,-1.399005 z"
       inkscape:connector-curvature="0"
       transform="translate(6.6292965,967.95563)" />
  </g>
</svg>
