<?xml version="1.0" encoding="UTF-8" standalone="no"?>
<!-- Created with Inkscape (http://www.inkscape.org/) -->

<svg
   xmlns:dc="http://purl.org/dc/elements/1.1/"
   xmlns:cc="http://creativecommons.org/ns#"
   xmlns:rdf="http://www.w3.org/1999/02/22-rdf-syntax-ns#"
   xmlns:svg="http://www.w3.org/2000/svg"
   xmlns="http://www.w3.org/2000/svg"
   xmlns:sodipodi="http://sodipodi.sourceforge.net/DTD/sodipodi-0.dtd"
   xmlns:inkscape="http://www.inkscape.org/namespaces/inkscape"
   width="160"
   height="91.949997"
   id="svg2"
   version="1.1"
   inkscape:version="0.48.3.1 r9886"
   inkscape:export-filename="integral.png"
   inkscape:export-xdpi="150"
   inkscape:export-ydpi="150"
   sodipodi:docname="trap.svg">
  <defs
     id="defs4" />
  <sodipodi:namedview
     id="base"
     pagecolor="#9fffa7"
     bordercolor="#666666"
     borderopacity="1.0"
     inkscape:pageopacity="0"
     inkscape:pageshadow="2"
     inkscape:zoom="4.8164584"
     inkscape:cx="80"
     inkscape:cy="61.974998"
     inkscape:document-units="px"
     inkscape:current-layer="layer1"
     showgrid="false"
     inkscape:window-width="1231"
     inkscape:window-height="776"
     inkscape:window-x="49"
     inkscape:window-y="24"
     inkscape:window-maximized="1"
     fit-margin-top="0"
     fit-margin-left="0"
     fit-margin-right="0"
     fit-margin-bottom="0"
     showguides="true"
     inkscape:guide-bbox="true">
    <sodipodi:guide
       orientation="0,1"
       position="109.62412,63.532159"
       id="guide4800" />
  </sodipodi:namedview>
  <metadata
     id="metadata7">
    <rdf:RDF>
      <cc:Work
         rdf:about="">
        <dc:format>image/svg+xml</dc:format>
        <dc:type
           rdf:resource="http://purl.org/dc/dcmitype/StillImage" />
        <dc:title></dc:title>
      </cc:Work>
    </rdf:RDF>
  </metadata>
  <g
     inkscape:label="Layer 1"
     inkscape:groupmode="layer"
     id="layer1"
     transform="translate(-6.6292965,-939.95564)">
    <path
       style="fill:#0000ff;fill-opacity:1;stroke:#050101;stroke-width:0;stroke-miterlimit:0.30000001;stroke-opacity:1;stroke-dasharray:none"
       id="path5184"
       d="m 7.7265378,62.490562 c -0.2798156,1.493412 0.213788,0.656309 -2.3477411,1.738529 0.1534932,-1.263283 0.4051842,-2.514236 0.6676332,-3.758805 0.4410781,-1.890205 0.8337336,-3.790939 1.132634,-5.708941 0.077763,-0.538082 0.1414834,-1.078188 0.1894392,-1.619738 0.00768,-0.08671 0.01451,-0.173496 0.020286,-0.260351 0.0025,-0.03762 -0.028891,-0.0956 0.00454,-0.113021 0.7244754,-0.377599 1.4780241,-0.696582 2.2170362,-1.044874 -0.011379,1.102533 -0.10702,2.202038 -0.1584153,3.303253 0.00246,0.368939 -0.1398606,1.747933 0.2226441,2.000639 0.031604,0.02203 0.076631,0.008 0.1149469,0.01204 0.6603392,-0.630052 -0.1111088,0.125434 -1.7875276,0.924194 -0.1033978,0.04927 0.1701311,-0.154714 0.2421746,-0.243753 0.2765274,-0.341762 0.4491036,-0.762452 0.6344851,-1.156008 0.3328732,-0.599036 0.4709033,-1.284538 0.776257,-1.893541 0.7376791,-0.417997 1.4353521,-0.916206 2.2130371,-1.25399 0.03162,-0.01373 0.261965,0.280302 0.367181,0.485499 0.281789,0.549554 0.457117,1.166683 0.652329,1.748628 0.823034,2.620333 1.3792,5.318055 1.946971,8.002854 0.687927,3.160905 1.263367,6.344213 1.841159,9.526554 0.399943,2.074207 0.65699,4.168916 0.625504,6.2823 -0.07514,1.03886 -0.308927,2.091517 -1.025277,2.888829 -0.115981,0.129091 -0.254776,0.235698 -0.382164,0.353546 -1.090038,0.639268 -2.227037,1.634155 -3.580358,1.695363 -0.666325,0.03014 -1.262346,-0.1523 -1.887031,-0.353497 C 9.2635864,83.609427 8.2423458,82.855869 7.5418585,81.820546 7.3849885,81.588692 7.2589715,81.337397 7.117528,81.095822 6.3895768,79.601262 6.2670661,77.946128 6.61062,76.327897 c 0.080656,-0.379912 0.2052762,-0.749144 0.3079142,-1.123716 0.8664056,-2.559965 2.4284867,-4.77898 4.0715158,-6.892978 1.149591,-1.34848 0.567685,-0.689255 1.744716,-1.978559 0,0 2.091746,-0.876696 2.091746,-0.876696 l 0,0 c -1.188774,1.283139 -0.600418,0.627681 -1.764169,1.967183 -1.638392,2.082109 -3.2003103,4.266864 -4.0724409,6.795379 -0.1025773,0.364249 -0.22654,0.723143 -0.3077319,1.092747 -0.343152,1.562108 -0.2435272,3.164017 0.469191,4.60733 0.138422,0.231021 0.2618456,0.471717 0.415266,0.693062 0.6889548,0.993975 1.6886868,1.700546 2.8234088,2.094428 0.803928,0.228616 1.563655,0.384593 2.388207,0.138809 0.167613,-0.04996 0.631608,-0.293434 0.487246,-0.194691 -0.512594,0.350615 -1.066307,0.636965 -1.599461,0.955447 0.134483,-0.103985 0.280688,-0.194363 0.403449,-0.311957 0.760769,-0.728742 1.023993,-1.757811 1.132436,-2.76917 0.08242,-2.112518 -0.13961,-4.210955 -0.50762,-6.291389 -0.543651,-3.189942 -1.094144,-6.380004 -1.800242,-9.538964 -0.580454,-2.658835 -1.17045,-5.330022 -2.068035,-7.902867 -0.19859,-0.524221 -0.286972,-0.786995 -0.508494,-1.275227 -0.05805,-0.127946 -0.115779,-0.256622 -0.186842,-0.377825 -0.04427,-0.07551 -0.09502,-0.148885 -0.1577591,-0.209917 -0.020259,-0.01971 -0.1054216,-0.0077 -0.081624,-0.02294 0.6630623,-0.424812 1.3484313,-0.813756 2.0226463,-1.220634 -0.180774,0.197698 -0.233883,0.396015 -0.327696,0.646505 -0.156062,0.416696 -0.334632,0.825333 -0.515029,1.231856 -0.590073,1.314953 -1.4398541,3.079489 -3.3380411,2.832851 -0.059084,-0.04319 -0.1288474,-0.07467 -0.1772519,-0.129566 -0.4139085,-0.469386 -0.2208661,-1.610673 -0.2241574,-2.172115 0.051546,-1.070235 0.1405782,-2.144105 0.086157,-3.215353 0.7319911,-0.398745 1.4505633,-0.823177 2.1959733,-1.196236 0.035375,-0.0177 -0.025734,0.07507 -0.033341,0.113894 -0.017611,0.08987 -0.028896,0.180864 -0.04218,0.271471 -0.081163,0.553597 -0.1551785,1.108293 -0.2478613,1.660173 -0.3278415,1.919519 -0.7237801,3.82619 -1.1471603,5.726758 -0.2435159,1.210273 -0.4697667,2.431081 -0.5622368,3.663523 -2.8606781,1.574554 -2.2518785,1.891205 -2.0695543,0.454942 0,0 2.2149739,-1.082889 2.2149739,-1.082889 z"
       inkscape:connector-curvature="0"
       transform="translate(6.6292965,939.95564)" />
    <path
       style="fill:#0000ff;fill-opacity:1;stroke:#050101;stroke-width:0;stroke-miterlimit:0.30000001;stroke-opacity:1;stroke-dasharray:none"
       id="path5186"
       d="m 15.265788,41.100519 c 0.576802,1.460881 1.195996,2.907048 1.811342,4.352678 0.457252,1.118874 0.98124,2.208161 1.472663,3.311938 0,0 -2.055457,1.155111 -2.055457,1.155111 l 0,0 c -0.466822,-1.116272 -0.976258,-2.213898 -1.434503,-3.333909 -0.624143,-1.441495 -1.245892,-2.884067 -1.940095,-4.293519 0,0 2.14605,-1.192299 2.14605,-1.192299 z"
       inkscape:connector-curvature="0"
       transform="translate(6.6292965,939.95564)" />
    <path
       style="fill:#0000ff;fill-opacity:1;stroke:#050101;stroke-width:0;stroke-miterlimit:0.30000001;stroke-opacity:1;stroke-dasharray:none"
       id="path5188"
       d="m 18.198434,40.356287 c 0.874038,1.129179 1.435896,2.455152 1.982235,3.763152 0.793349,1.941092 1.247045,3.981045 1.59939,6.039777 0,0 -2.04875,1.087235 -2.04875,1.087235 l 0,0 c -0.337255,-2.044002 -0.771001,-4.071061 -1.575151,-5.990989 -0.546907,-1.269914 -1.111482,-2.581089 -2.056326,-3.61315 0,0 2.098602,-1.286025 2.098602,-1.286025 z"
       inkscape:connector-curvature="0"
       transform="translate(6.6292965,939.95564)" />
    <path
       style="fill:#0000ff;fill-opacity:1;stroke:#050101;stroke-width:0;stroke-miterlimit:0.30000001;stroke-opacity:1;stroke-dasharray:none"
       id="path5190"
       d="m 29.592731,55.646551 c 1.251825,-0.334423 2.535624,-0.525906 3.819725,-0.684401 1.135613,-0.144007 0.570307,-0.07556 1.695895,-0.205535 0,0 -1.88245,1.401127 -1.88245,1.401127 l 0,0 c -1.121829,0.13034 -0.557305,0.06125 -1.693535,0.207572 -1.311044,0.176407 -2.62346,0.386747 -3.889133,0.782257 0,0 1.949498,-1.50102 1.949498,-1.50102 z"
       inkscape:connector-curvature="0"
       transform="translate(6.6292965,939.95564)" />
    <path
       style="fill:#0000ff;fill-opacity:1;stroke:#050101;stroke-width:0;stroke-miterlimit:0.30000001;stroke-opacity:1;stroke-dasharray:none"
       id="path5192"
       d="m 32.858931,50.922876 c 0.03081,1.418979 0.317173,2.819267 0.536834,4.21776 0.170546,1.288793 0.424508,2.56095 0.710032,3.828294 0,0 -2.046973,1.100675 -2.046973,1.100675 l 0,0 c -0.285252,-1.270964 -0.544694,-2.545966 -0.725123,-3.836809 -0.227026,-1.39742 -0.518256,-2.786436 -0.660473,-4.196249 0,0 2.185703,-1.113671 2.185703,-1.113671 z"
       inkscape:connector-curvature="0"
       transform="translate(6.6292965,939.95564)" />
    <path
       style="fill:#0000ff;fill-opacity:1;stroke:#050101;stroke-width:0;stroke-miterlimit:0.30000001;stroke-opacity:1;stroke-dasharray:none"
       id="path5194"
       d="m 38.733492,51.048271 c -0.283405,-1.197429 -0.105333,-2.063892 0.315728,-3.200695 0.407267,-0.816913 0.946275,-1.654948 1.752362,-2.137272 2.478139,-1.482799 1.699581,-1.234986 3.189022,-1.604499 1.042455,-0.103016 1.89917,0.414672 2.405376,1.323639 0.119902,0.215303 0.198494,0.45114 0.29774,0.67671 0.457561,1.575087 0.394706,3.250264 0.05114,4.843314 -0.08402,0.389601 -0.199282,0.771806 -0.298923,1.157709 -0.761124,2.511581 -2.055723,4.808233 -3.373622,7.061384 -0.873551,1.521364 -1.898742,2.949471 -2.778386,4.466743 -0.397346,0.775058 -0.11154,0.755601 0.620375,0.896825 1.426869,0.236736 2.849356,0.495398 4.256276,0.831617 1.191012,0.263176 2.34121,0.668491 3.489532,1.072592 0,0 -1.936556,1.309069 -1.936556,1.309069 l 0,0 c -1.142249,-0.403516 -2.290084,-0.795799 -3.477068,-1.049574 -1.428988,-0.320659 -2.870906,-0.567328 -4.319287,-0.783251 -0.804806,-0.188757 -1.30173,-0.425806 -0.83152,-1.301466 0.926647,-1.534018 2.003945,-2.972911 2.906171,-4.522715 1.31901,-2.230737 2.610769,-4.505127 3.379709,-6.994597 0.09881,-0.37845 0.212935,-0.75323 0.296436,-1.135351 0.336864,-1.541578 0.40256,-3.164895 -0.0476,-4.688772 -0.09588,-0.20883 -0.172185,-0.427815 -0.28765,-0.626489 -0.508888,-0.875616 -1.256088,-1.233151 -2.246589,-1.080101 -0.989936,0.312397 -1.043114,0.378637 0.914659,-0.730359 0.192426,-0.109001 -0.372705,0.240137 -0.542937,0.381309 -0.539299,0.447236 -0.954925,1.009809 -1.265695,1.63431 -0.411701,1.031024 -0.642427,1.930191 -0.308377,3.022349 0,0 -2.160307,1.177571 -2.160307,1.177571 z"
       inkscape:connector-curvature="0"
       transform="translate(6.6292965,939.95564)" />
    <path
       style="fill:#0000ff;fill-opacity:1;stroke:#050101;stroke-width:0;stroke-miterlimit:0.30000001;stroke-opacity:1;stroke-dasharray:none"
       id="path5196"
       d="m 54.744242,58.246916 c 0.463548,0.752673 0.998179,1.45747 1.662956,2.042023 0.282655,0.205347 0.571722,0.320563 0.913541,0.17888 0.09847,-0.04082 0.366941,-0.2168 0.272537,-0.167297 -1.876391,0.983943 -2.260398,1.487423 -1.528908,0.662839 0.45121,-0.613718 0.660199,-1.347007 0.927513,-2.048443 0.453125,-0.929898 0.902426,-0.829533 2.442908,-1.358729 0.08381,-0.02879 0.514066,1.025368 0.540172,1.08831 0.801601,1.912727 1.34156,3.916316 1.894692,5.910559 0.74864,2.83417 1.548889,5.654114 2.305668,8.486075 0.636174,2.446668 1.270426,4.898551 1.51295,7.419603 0.01012,0.913732 0.03343,1.974656 -0.64551,2.691011 -0.134141,0.141534 -0.291267,0.264191 -0.461081,0.360051 -0.870405,0.491344 -1.768553,0.931836 -2.65283,1.397754 -1.851889,0.309235 -3.716882,-0.171839 -5.475622,-0.725663 -1.502172,-0.533682 -3.027151,-1.197424 -4.146036,-2.374346 -0.175337,-0.184431 -0.321927,-0.3942 -0.48289,-0.5913 -0.987722,-1.648997 -0.565038,-2.617903 0.312423,-4.187626 1.160219,-1.781107 2.669023,-3.292209 4.119139,-4.833362 0.892191,-0.980056 0.464978,-0.490052 1.283962,-1.467982 0,0 2.143647,-0.910608 2.143647,-0.910608 l 0,0 c -0.827302,0.994824 -0.395748,0.498017 -1.296938,1.488441 -1.439036,1.529188 -2.945424,3.017784 -4.115919,4.771944 -0.600465,1.034157 -1.213015,2.133624 -0.723113,3.344273 0.08209,0.202853 0.203266,0.387599 0.304899,0.581399 0.151413,0.189431 0.288492,0.391267 0.454238,0.568292 1.085615,1.159489 2.583511,1.798974 4.054292,2.310091 1.507182,0.453556 3.13992,0.88799 4.732331,0.704985 0.240164,-0.0276 0.473539,-0.09759 0.710309,-0.146379 -0.482881,0.315067 -0.971518,0.621483 -1.448642,0.945202 -0.156982,0.106509 0.34157,-0.17233 0.487741,-0.293249 0.752646,-0.622621 0.768719,-1.673435 0.788681,-2.5635 -0.0229,-0.334601 -0.03355,-0.670267 -0.06871,-1.003804 -0.229492,-2.177313 -0.856797,-4.2925 -1.356633,-6.416259 -0.753591,-2.829823 -1.537956,-5.65109 -2.324373,-8.471964 -0.569842,-1.969916 -1.128634,-3.951512 -1.998024,-5.815745 -0.09604,-0.20313 -0.256959,-0.571564 -0.394428,-0.777846 -0.03453,-0.05181 -0.176519,-0.103853 -0.124988,-0.138792 0.66141,-0.448443 1.388093,-0.792119 2.08214,-1.188179 -0.17297,0.05087 -0.08869,0.0035 -0.233528,0.171992 -0.307742,0.708387 -0.509202,1.462949 -0.922432,2.123562 -0.776719,1.062136 -0.243367,0.421875 -2.604336,1.801614 -0.456498,0.266775 -0.964088,0.04008 -1.332342,-0.253194 -0.657596,-0.610683 -1.189091,-1.326313 -1.716928,-2.049309 0,0 2.107472,-1.265324 2.107472,-1.265324 z"
       inkscape:connector-curvature="0"
       transform="translate(6.6292965,939.95564)" />
    <path
       style="fill:#0000ff;fill-opacity:1;stroke:#050101;stroke-width:0;stroke-miterlimit:0.30000001;stroke-opacity:1;stroke-dasharray:none"
       id="path5198"
       d="m 58.058272,42.964807 c -0.02083,-0.07419 -0.07492,-0.704036 -0.03924,-0.725074 2.220767,-1.30935 1.69287,-1.827715 2.371334,-1.004518 0.654426,1.145605 1.068391,2.417085 1.489686,3.662444 0.434164,1.353882 0.221741,0.662638 0.635488,2.07428 0,0 -2.017813,1.102953 -2.017813,1.102953 l 0,0 c -0.424239,-1.396837 -0.204906,-0.713308 -0.655928,-2.051252 -0.427995,-1.197803 -0.84552,-2.437869 -1.549934,-3.505606 -0.751404,-0.568231 -0.167012,-0.07348 1.970122,-1.323173 0.02355,-0.01377 -0.04887,0.03263 -0.0571,0.05864 -0.05436,0.171853 0.0056,0.386925 0.03139,0.555857 0,0 -2.178004,1.155445 -2.178004,1.155445 z"
       inkscape:connector-curvature="0"
       transform="translate(6.6292965,939.95564)" />
    <path
       style="fill:#0000ff;fill-opacity:1;stroke:#050101;stroke-width:0;stroke-miterlimit:0.30000001;stroke-opacity:1;stroke-dasharray:none"
       id="path5200"
       d="m 69.500147,55.93216 c 1.234939,0.05371 2.468655,-0.0191 3.702431,-0.06608 0,0 -1.894331,1.388507 -1.894331,1.388507 l 0,0 c -1.265007,0.05811 -2.529457,0.120074 -3.796128,0.121961 0,0 1.988028,-1.444386 1.988028,-1.444386 z"
       inkscape:connector-curvature="0"
       transform="translate(6.6292965,939.95564)" />
    <path
       style="fill:#0000ff;fill-opacity:1;stroke:#050101;stroke-width:0;stroke-miterlimit:0.30000001;stroke-opacity:1;stroke-dasharray:none"
       id="path5202"
       d="m 72.706044,51.326031 c -0.111807,1.239667 0.253212,2.463432 0.600692,3.639385 0.25955,0.877016 0.65015,1.704019 1.031367,2.532161 0,0 -2.027993,1.146637 -2.027993,1.146637 l 0,0 c -0.388931,-0.835529 -0.788677,-1.669287 -1.061575,-2.552394 -0.372799,-1.193236 -0.745241,-2.415714 -0.745459,-3.677612 0,0 2.202968,-1.088177 2.202968,-1.088177 z"
       inkscape:connector-curvature="0"
       transform="translate(6.6292965,939.95564)" />
    <path
       style="fill:#0000ff;fill-opacity:1;stroke:#050101;stroke-width:0;stroke-miterlimit:0.30000001;stroke-opacity:1;stroke-dasharray:none"
       id="path5204"
       d="m 82.572887,51.251682 c 0.02997,-0.550458 -0.02823,-1.109016 0.09965,-1.649738 0.741104,-0.423649 1.435806,-0.941481 2.223312,-1.270948 0.10105,-0.04228 0.147444,0.162897 0.209577,0.253107 0.451332,0.65529 0.713969,1.461388 1.017358,2.189181 0.52799,1.452594 1.11326,2.805957 2.065654,4.031413 0.880213,0.933992 1.918376,1.036512 3.132317,1.068915 1.356751,-0.01747 2.717227,-0.08355 4.058506,0.152954 0.885184,0.192827 1.753273,0.633136 2.122913,1.511848 0.07164,0.1703 0.107601,0.353494 0.161401,0.530241 0.222677,1.56698 -0.532191,2.821243 -1.404169,4.050288 -0.859297,1.075737 -1.938982,1.939575 -3.140137,2.606155 -2.985806,1.65697 -2.051697,1.246424 -4.045762,2.015968 -1.865109,0.63949 -3.555434,0.885506 -5.509407,0.656848 -0.693756,-0.149629 -1.392257,-0.416773 -1.68466,-1.124534 -0.0633,-0.153227 -0.0791,-0.322003 -0.118655,-0.483005 0,0 2.124942,-1.142509 2.124942,-1.142509 l 0,0 c 0.0275,0.137628 0.03186,0.281988 0.08249,0.412885 0.247341,0.639436 0.927719,0.835279 1.531222,0.964593 1.895609,0.213433 3.584655,-0.0589 5.382068,-0.704253 2.579773,-1.032365 0.125853,-0.137186 0.08809,0.232644 -0.03681,0.360452 0.63635,-0.348242 0.939469,-0.546735 0.522536,-0.342176 1.136307,-0.837845 1.583688,-1.277489 0.218987,-0.2152 0.41348,-0.453983 0.62022,-0.680974 0.828568,-1.127034 1.617361,-2.367074 1.444309,-3.827958 -0.04767,-0.160601 -0.07941,-0.326816 -0.143007,-0.481802 -0.336289,-0.819558 -1.176503,-1.174512 -1.988228,-1.34174 -1.337007,-0.208724 -2.68736,-0.140546 -4.036166,-0.130885 -1.322439,-0.05724 -2.317271,-0.215662 -3.249145,-1.244538 -0.92262,-1.241739 -1.53346,-2.64914 -2.07578,-4.092587 -0.263587,-0.598375 -0.508188,-1.212479 -0.849513,-1.772617 -0.06152,-0.100961 -0.125539,-0.201511 -0.202883,-0.290931 -0.02466,-0.02851 -0.128918,-0.03542 -0.09782,-0.05673 0.64582,-0.442455 1.328884,-0.827928 1.993325,-1.241892 -0.275304,0.451148 -0.114538,1.065019 -0.138067,1.565342 0,0 -2.197103,1.11948 -2.197103,1.11948 z"
       inkscape:connector-curvature="0"
       transform="translate(6.6292965,939.95564)" />
    <path
       style="fill:#0000ff;fill-opacity:1;stroke:#050101;stroke-width:0;stroke-miterlimit:0.30000001;stroke-opacity:1;stroke-dasharray:none"
       id="path5206"
       d="m 84.574452,48.543889 c 1.467299,-0.554354 2.93432,-1.109562 4.401308,-1.664861 2.84795,-1.000053 5.598567,-2.232523 8.306021,-3.560321 -0.846436,0.551055 2.833449,-1.574682 2.137257,-1.159631 -0.377628,0.22513 -0.758172,0.446154 -1.148404,0.648653 -0.227846,0.118235 0.438483,-0.267122 0.660723,-0.395585 0.846771,-0.489466 1.697473,-0.972097 2.546213,-1.458146 0,0 -1.860625,1.500417 -1.860625,1.500417 l 0,0 c 0.504455,-0.296554 1.008315,-0.594135 1.513375,-0.889662 0.23032,-0.134765 -0.45851,0.273129 -0.68913,0.407374 -1.622026,0.944184 -3.231447,1.915793 -4.915343,2.748247 -2.722532,1.318673 -5.490297,2.534039 -8.337996,3.560312 -1.51689,0.587318 -3.044272,1.154592 -4.536648,1.80162 0,0 1.923249,-1.538417 1.923249,-1.538417 z"
       inkscape:connector-curvature="0"
       transform="translate(6.6292965,939.95564)" />
    <path
       style="fill:#0000ff;fill-opacity:1;stroke:#050101;stroke-width:0;stroke-miterlimit:0.30000001;stroke-opacity:1;stroke-dasharray:none"
       id="path5208"
       d="m 101.50342,64.482662 c 0.44755,-1.302245 0.95553,-2.579012 1.49864,-3.843939 0.32634,-0.708147 0.65583,-1.416039 1.04157,-2.09438 0.004,-0.0069 0.37514,-0.652337 0.47048,-0.713296 0.7308,-0.467279 1.50278,-0.866796 2.25417,-1.300194 0.0667,0.07639 0.1513,0.140252 0.20003,0.229175 0.19116,0.348851 0.18614,0.858504 0.23816,1.239015 0.0496,0.362504 0.0931,0.634876 0.14861,0.995172 0.0544,0.227419 0.15892,1.341799 0.64844,1.108108 0.0669,-0.03192 0.11802,-0.08965 0.17702,-0.134477 -3.07357,1.815785 -1.92604,1.28751 -1.40001,0.373671 0.20613,-0.358102 0.37012,-0.743401 0.53541,-1.121338 0.50203,-1.071378 0.99688,-1.052728 2.52928,-1.77429 0.18099,-0.08523 0.64958,0.733719 0.69076,0.802543 0.83399,1.870337 1.35381,3.86736 1.90847,5.833996 0.84608,2.870016 1.48262,5.794174 1.96726,8.745125 0.37822,2.697261 0.65247,5.407599 0.65162,8.13245 -0.0928,1.211502 -0.0168,2.906687 -0.78069,3.94379 -0.10897,0.147938 -0.25755,0.262124 -0.38633,0.393186 -0.85142,0.474976 -1.67267,1.008631 -2.55427,1.424929 -0.26033,0.122929 -1.09953,0.07684 -1.34444,0.04365 -0.9166,-0.124218 -1.78648,-0.462866 -2.64629,-0.783442 -2.02268,-0.784753 -3.8273,-1.970405 -5.46553,-3.376702 -0.68646,-0.714927 -1.46522,-1.527976 -1.65759,-2.546408 -0.10459,-0.553741 -0.0118,-0.716624 0.10535,-1.25529 0.27285,-0.75887 0.83309,-1.251232 1.41242,-1.774792 0,0 2.17491,-0.883611 2.17491,-0.883611 l 0,0 c -0.56764,0.477609 -1.12603,0.930541 -1.43614,1.62771 -0.13395,0.471202 -0.23765,0.643951 -0.16666,1.140714 0.14041,0.982643 0.89833,1.773627 1.53975,2.463339 1.63173,1.418661 3.37615,2.552014 5.41521,3.307977 0.86095,0.299836 1.72723,0.618022 2.64542,0.690942 0.23065,0.01832 0.46411,0.01757 0.69411,-0.0078 0.20603,-0.02269 0.76163,-0.273408 0.60687,-0.135528 -0.45382,0.404313 -1.02921,0.646843 -1.54382,0.970265 0.13993,-0.110384 0.29943,-0.199698 0.41977,-0.331153 0.85325,-0.932026 0.81175,-2.7103 0.92895,-3.874931 0.0424,-2.720819 -0.21353,-5.428814 -0.58699,-8.122847 -0.47516,-2.94178 -1.10221,-5.859013 -1.97318,-8.711211 -0.57345,-1.927572 -1.11442,-3.891359 -2.01237,-5.698149 -0.0855,-0.12384 -0.25058,-0.426453 -0.42689,-0.512605 -0.0362,-0.01769 -0.15438,0.03107 -0.1205,0.0093 3.37716,-2.17058 2.07061,-1.567907 1.61515,-0.752581 -0.16693,0.38748 -0.33871,0.776255 -0.53015,1.152405 -0.0309,0.06069 -0.33324,0.633763 -0.42179,0.694596 -0.74706,0.513236 -1.54344,0.950689 -2.31516,1.426034 -0.0855,0.01181 -0.17078,0.04464 -0.25664,0.03543 -0.61743,-0.06622 -0.66757,-0.955718 -0.76869,-1.398462 -0.27035,-1.843496 0.13558,0.913476 -0.15137,-0.997649 -0.05,-0.333154 -0.0617,-0.756068 -0.20536,-1.070419 -0.005,-0.01123 -0.0247,2.01e-4 -0.037,3.01e-4 0.64019,-0.389488 1.26294,-0.809212 1.92057,-1.168465 0.1028,-0.05616 -0.17201,0.160448 -0.2442,0.252697 -0.59377,0.758772 -0.9463,1.679154 -1.38314,2.527389 -0.52939,1.232347 -1.02434,2.475366 -1.40068,3.764455 0,0 -2.22248,1.055567 -2.22248,1.055567 z"
       inkscape:connector-curvature="0"
       transform="translate(6.6292965,939.95564)" />
    <path
       style="fill:#0000ff;fill-opacity:1;stroke:#050101;stroke-width:0;stroke-miterlimit:0.30000001;stroke-opacity:1;stroke-dasharray:none"
       id="path5210"
       d="m 119.90594,54.891546 c 1.03354,0.01254 2.06117,-0.145318 3.07812,-0.314707 0.97857,-0.194864 0.48922,-0.09954 1.46805,-0.285986 0,0 -1.88543,1.42494 -1.88543,1.42494 l 0,0 c -0.97937,0.187341 -0.48815,0.09301 -1.47366,0.282995 -1.05299,0.173599 -2.11282,0.32659 -3.18201,0.342158 0,0 1.99493,-1.4494 1.99493,-1.4494 z"
       inkscape:connector-curvature="0"
       transform="translate(6.6292965,939.95564)" />
    <path
       style="fill:#0000ff;fill-opacity:1;stroke:#050101;stroke-width:0;stroke-miterlimit:0.30000001;stroke-opacity:1;stroke-dasharray:none"
       id="path5212"
       d="m 120.11356,58.213489 c 0.91799,-0.0063 1.82749,-0.223913 2.72854,-0.386565 0.66958,-0.106442 1.33641,-0.227209 2.00582,-0.334664 0,0 -1.89845,1.426602 -1.89845,1.426602 l 0,0 c -0.66987,0.110245 -1.33844,0.22739 -2.0076,0.341836 -0.93353,0.172614 -1.86999,0.392679 -2.82324,0.402191 0,0 1.99493,-1.4494 1.99493,-1.4494 z"
       inkscape:connector-curvature="0"
       transform="translate(6.6292965,939.95564)" />
    <path
       style="fill:#0000ff;fill-opacity:1;stroke:#050101;stroke-width:0;stroke-miterlimit:0.30000001;stroke-opacity:1;stroke-dasharray:none"
       id="path5214"
       d="m 132.80972,57.920591 c 0.52827,0.08633 1.07413,-0.08134 1.54569,-0.314965 0.20004,-0.09911 0.78142,-0.431446 0.58092,-0.333276 -0.46838,0.229332 -0.92353,0.484747 -1.38529,0.72712 1.13882,-0.931102 2.14991,-2.056758 2.76087,-3.409654 0.11282,-0.249813 0.1921,-0.513453 0.28815,-0.770179 0.29748,-1.107855 0.34737,-2.374807 -0.42578,-3.315252 -0.12515,-0.152221 -0.28552,-0.271672 -0.42828,-0.407508 -0.78232,-0.50343 -1.64306,-0.475275 -2.49924,-0.164685 -0.25982,0.09425 -0.97784,0.506326 -0.75485,0.343047 0.37312,-0.273201 0.80729,-0.451336 1.21094,-0.677004 -1.43332,1.01443 -2.74015,2.322134 -3.35347,4.006075 -0.12172,0.334197 -0.18403,0.68713 -0.27604,1.030694 -0.21145,1.478009 0.0904,2.919691 0.89889,4.18253 0.55378,0.864947 0.87063,1.077912 1.61342,1.781541 1.76529,1.416476 3.92577,2.102765 6.1553,2.336953 0.46851,0.04921 0.94028,0.05973 1.41042,0.0896 2.15098,0.04744 4.26807,-0.304041 6.34088,-0.844859 0,0 -1.829,1.398875 -1.829,1.398875 l 0,0 c -2.07722,0.50129 -4.19422,0.82558 -6.33906,0.754671 -0.4747,-0.03431 -0.95125,-0.04885 -1.42411,-0.10293 -2.27129,-0.259743 -4.45962,-0.988262 -6.25372,-2.437029 -0.75962,-0.723286 -1.09268,-0.953766 -1.66504,-1.838551 -0.84185,-1.301364 -1.17471,-2.793537 -0.98771,-4.325717 0.0863,-0.355807 0.14162,-0.720592 0.25891,-1.06742 0.57926,-1.712814 1.86003,-3.058787 3.27349,-4.126802 1.40425,-0.808332 3.78117,-2.725205 5.7001,-1.914889 0.19726,0.0833 0.36842,0.218351 0.55263,0.327527 0.15097,0.152265 0.32011,0.288451 0.45292,0.456797 0.79697,1.010242 0.79346,2.332228 0.49632,3.522097 -0.0946,0.266971 -0.17225,0.540591 -0.28387,0.800913 -0.59016,1.376377 -1.58319,2.528833 -2.69993,3.505879 -0.88558,0.542587 -1.76409,1.0969 -2.65675,1.627761 -0.68986,0.410252 -1.53106,0.751746 -2.33515,0.51236 0,0 2.05744,-1.353721 2.05744,-1.353721 z"
       inkscape:connector-curvature="0"
       transform="translate(6.6292965,939.95564)" />
    <path
       style="fill:#0000ff;fill-opacity:1;stroke:#050101;stroke-width:0;stroke-miterlimit:0.30000001;stroke-opacity:1;stroke-dasharray:none"
       id="path5216"
       d="m 142.96024,36.960519 c -0.55861,-1.539362 -0.83656,-0.621494 1.85255,-2.002758 0.66616,0.997472 1.48404,1.880691 2.24031,2.808865 1.0675,1.342681 2.14112,2.681673 3.19138,4.038175 0.51861,0.660717 0.98842,1.354958 1.46669,2.044493 0,0 -2.07511,1.216544 -2.07511,1.216544 l 0,0 c -0.45236,-0.699761 -0.90546,-1.397747 -1.41868,-2.055611 -1.03053,-1.367082 -2.09838,-2.707481 -3.17747,-4.036181 -0.77148,-0.922729 -1.58782,-1.806997 -2.34557,-2.740905 2.44807,-1.537623 1.75841,-1.927288 2.42464,-0.461534 0,0 -2.15874,1.188912 -2.15874,1.188912 z"
       inkscape:connector-curvature="0"
       transform="translate(6.6292965,939.95564)" />
    <path
       style="fill:#0000ff;fill-opacity:1;stroke:#050101;stroke-width:0;stroke-miterlimit:0.30000001;stroke-opacity:1;stroke-dasharray:none"
       id="path5218"
       d="m 149.38092,37.598234 c -0.37553,-0.677505 -0.61747,-0.694274 -1.31044,-0.412967 0.17873,-0.125383 -1.51014,0.805349 -1.13881,0.592667 0.40555,-0.232276 0.77514,-0.560852 1.22787,-0.676867 0.35114,-0.08998 -0.60816,0.394652 -0.90998,0.595406 -1.01603,0.675813 -1.06517,0.720577 -2.09164,1.442024 -1.93622,1.414164 -3.81605,2.90842 -5.58093,4.532206 0,0 -2.16306,0.88492 -2.16306,0.88492 l 0,0 c 1.79024,-1.633737 3.69084,-3.142233 5.63683,-4.585845 2.20767,-1.574042 4.45414,-3.14772 6.93396,-4.266674 0.14023,-0.03327 0.27714,-0.087 0.42069,-0.09981 0.53524,-0.04778 0.86751,0.369164 1.11574,0.776328 0,0 -2.14023,1.218614 -2.14023,1.218614 z"
       inkscape:connector-curvature="0"
       transform="translate(6.6292965,939.95564)" />
    <path
       style="fill:#0000ff;fill-opacity:1;stroke:#050101;stroke-width:0;stroke-miterlimit:0.30000001;stroke-opacity:1;stroke-dasharray:none"
       id="path5220"
       d="m 16.61904,22.038227 c -0.159298,0.37091 -0.424068,0.692573 -0.568402,1.069593 -0.519094,-0.97218 0.04091,-0.13142 -2.178867,0.904133 -0.09227,0.04305 0.08751,-0.183917 0.134283,-0.274356 0.295352,-0.571073 0.629489,-1.110465 0.97597,-1.651758 1.320119,-2.051178 2.972641,-3.852326 4.597244,-5.660948 1.470106,-1.559582 2.982702,-3.098647 4.71759,-4.368134 0.293026,-0.214419 0.599615,-0.40966 0.899422,-0.61449 1.576569,-0.87239 3.388398,-2.3374069 5.369172,-2.1723292 0.696278,0.058028 0.880355,0.1959469 1.519945,0.4646664 0.2436,0.1626174 0.50103,0.3062178 0.730801,0.4878518 1.484994,1.173893 2.584481,2.899209 3.712466,4.396623 1.270087,1.719451 2.751741,3.284875 4.548544,4.46047 0.327754,0.21444 0.673926,0.399315 1.010889,0.598973 1.72668,0.831478 3.491076,1.0865 5.372482,0.692043 0.378313,-0.07932 0.746756,-0.20001 1.120134,-0.300015 1.198023,-0.43413 2.509759,-0.943009 3.557178,-1.683678 0.205878,-0.145584 -0.865188,0.496904 -0.685374,0.320135 0.361856,-0.35573 0.835766,-0.575837 1.247361,-0.872608 0.411804,-0.296921 0.815056,-0.605526 1.222584,-0.908288 1.157906,-0.827291 2.267736,-1.72442 3.461431,-2.501533 1.006375,-0.655165 3.366532,-1.933301 3.943256,-2.224145 0.281266,-0.141844 0.593448,-0.211521 0.890172,-0.317281 0.274859,-0.03971 0.546973,-0.111383 0.824578,-0.11914 1.652217,-0.04617 2.630547,1.009832 3.634977,2.142961 1.339157,1.698035 2.370913,3.607984 3.617157,5.370595 0.272226,0.38502 0.562176,0.757197 0.843263,1.135795 1.361791,1.718924 2.917314,3.367362 4.951426,4.284073 0.358734,0.16167 0.739347,0.269585 1.109021,0.404378 2.138838,0.541098 4.072902,0.08761 6.014699,-0.880936 0.447596,-0.223257 0.874105,-0.486503 1.311157,-0.729755 -0.18002,0.07523 -0.685488,0.355775 -0.54006,0.225705 0.425971,-0.380987 0.936004,-0.656094 1.397756,-0.992824 0.476212,-0.347276 0.945561,-0.703882 1.415924,-1.05904 1.413183,-1.067058 2.824127,-2.132557 4.256398,-3.174065 1.825016,-1.229263 3.745823,-2.336816 5.716719,-3.313725 0.558368,-0.276764 1.511157,-0.545399 2.142082,-0.61631 0.322655,-0.03626 0.649317,-0.0086 0.973976,-0.01286 2.097146,0.242475 3.497396,1.500964 5.098086,2.74443 1.17402,0.896167 2.34251,1.812942 3.62606,2.550986 0.85316,0.490573 1.09603,0.572047 1.99065,0.971943 1.38725,0.520672 2.83632,0.746637 4.31506,0.647003 0.94284,-0.06353 1.39895,-0.177359 2.33064,-0.35109 1.74981,-0.406047 3.44733,-0.998973 5.17656,-1.47949 1.34643,-0.374145 1.46082,-0.385487 2.83195,-0.70521 2.48615,-0.524933 5.01942,-0.920285 7.56537,-0.966839 0.49831,-0.0091 0.99669,0.01342 1.49503,0.02013 0,0 -1.81004,1.312182 -1.81004,1.312182 l 0,0 c -0.49467,-0.0037 -0.98945,-0.02248 -1.484,-0.01108 -2.54077,0.05855 -5.06739,0.461908 -7.54545,1.002364 -1.36795,0.327452 -1.48959,0.341978 -2.83289,0.720752 -1.74103,0.490922 -3.45198,1.091422 -5.22028,1.482871 -0.95048,0.167493 -1.40233,0.277639 -2.36392,0.327745 -1.50345,0.07834 -2.97406,-0.180894 -4.37542,-0.727066 -0.91496,-0.418838 -1.13105,-0.490949 -2.00477,-0.999043 -1.28713,-0.748498 -2.4617,-1.670223 -3.64817,-2.564319 -1.55898,-1.196075 -2.98151,-2.430401 -5.023598,-2.603207 -0.921456,0.03824 -1.019789,-0.01404 -1.933653,0.26456 -0.365938,0.11156 -0.716365,0.542256 -1.073662,0.405528 -0.285806,-0.10937 1.035222,-0.640408 0.750065,-0.52936 -0.493218,0.192071 -2.258489,1.365252 -2.654997,1.621179 -1.349362,0.974059 -1.497445,1.070131 -2.840373,2.084061 -2.41347,1.822205 -4.755573,3.740702 -7.468542,5.124868 -0.446497,0.241635 -0.882157,0.504467 -1.33949,0.724906 -2.034544,0.980667 -3.938175,1.359379 -6.146182,0.761667 -0.373625,-0.145244 -0.758664,-0.263991 -1.120874,-0.435734 -2.038425,-0.966522 -3.600945,-2.640238 -4.975754,-4.383246 -0.282945,-0.381333 -0.57387,-0.756873 -0.848836,-1.143998 -1.244319,-1.751882 -2.293899,-3.641588 -3.658624,-5.307759 -0.996192,-1.067739 -1.944261,-2.042959 -3.534472,-1.930899 -0.264178,0.01862 -0.521104,0.09486 -0.781655,0.142291 -2.350781,0.886283 0.36385,-0.06749 0.157534,-0.335535 -0.246968,-0.320855 -0.706405,0.396722 -1.048253,0.613703 -1.211171,0.768763 -2.327664,1.674306 -3.494829,2.505355 -0.521281,0.390445 -1.902618,1.440922 -2.455204,1.791715 -1.036826,0.658198 -2.09524,1.281928 -3.15221,1.907264 -1.14812,0.679263 -2.342198,1.28078 -3.625483,1.661888 -0.379975,0.09415 -0.755235,0.209934 -1.139925,0.282458 -1.887645,0.355869 -3.749599,0.04896 -5.455236,-0.824514 -0.338333,-0.206547 -0.685858,-0.398739 -1.014998,-0.619639 -1.797823,-1.206597 -3.284586,-2.79592 -4.57408,-4.523245 -1.13615,-1.483777 -2.211872,-3.159993 -3.733226,-4.289229 -0.225156,-0.167124 -0.476414,-0.295858 -0.714621,-0.443787 -0.243415,-0.09083 -0.478887,-0.206759 -0.730246,-0.272478 -0.77818,-0.203459 -1.561165,-0.106173 -2.313642,0.14802 -0.28407,0.09596 -1.018569,0.578031 -0.831151,0.343984 0.265185,-0.331163 0.724343,-0.441921 1.086514,-0.662882 -0.305853,0.201906 -0.618843,0.393397 -0.917561,0.605718 -1.758388,1.249825 -3.284948,2.785511 -4.766896,4.343317 -1.598617,1.782377 -3.236491,3.551398 -4.516959,5.58528 -0.44646,0.703074 -0.349303,0.519176 -0.708863,1.191255 -0.07003,0.13089 -0.14076,0.261529 -0.20477,0.395463 -0.04091,0.08559 -0.03348,0.20615 -0.109731,0.26259 -0.689764,0.510581 -1.385971,1.026645 -2.152702,1.412118 -0.08823,0.04436 -0.106237,-0.166488 -0.159356,-0.249732 0.154871,-0.384413 0.394965,-0.719074 0.570845,-1.094784 0,0 2.243876,-1.0152 2.243876,-1.0152 z"
       inkscape:connector-curvature="0"
       transform="translate(6.6292965,939.95564)" />
  </g>
</svg>
