<?xml version="1.0" encoding="UTF-8" standalone="no"?>
<!-- Created with Inkscape (http://www.inkscape.org/) -->

<svg
   xmlns:dc="http://purl.org/dc/elements/1.1/"
   xmlns:cc="http://creativecommons.org/ns#"
   xmlns:rdf="http://www.w3.org/1999/02/22-rdf-syntax-ns#"
   xmlns:svg="http://www.w3.org/2000/svg"
   xmlns="http://www.w3.org/2000/svg"
   xmlns:sodipodi="http://sodipodi.sourceforge.net/DTD/sodipodi-0.dtd"
   xmlns:inkscape="http://www.inkscape.org/namespaces/inkscape"
   width="160"
   height="200.95"
   id="svg2"
   version="1.1"
   inkscape:version="0.48.4 r9939"
   inkscape:export-filename="integral.png"
   inkscape:export-xdpi="150"
   inkscape:export-ydpi="150"
   sodipodi:docname="lineintegral.svg">
  <defs
     id="defs4" />
  <sodipodi:namedview
     id="base"
     pagecolor="#9fffa7"
     bordercolor="#666666"
     borderopacity="1.0"
     inkscape:pageopacity="0"
     inkscape:pageshadow="2"
     inkscape:zoom="4.2597662"
     inkscape:cx="80"
     inkscape:cy="100.475"
     inkscape:document-units="px"
     inkscape:current-layer="layer1"
     showgrid="false"
     inkscape:window-width="1237"
     inkscape:window-height="1003"
     inkscape:window-x="43"
     inkscape:window-y="21"
     inkscape:window-maximized="1"
     fit-margin-top="0"
     fit-margin-left="0"
     fit-margin-right="0"
     fit-margin-bottom="0"
     showguides="true"
     inkscape:guide-bbox="true">
    <sodipodi:guide
       orientation="0,1"
       position="82.898431,73.661837"
       id="guide3866" />
    <sodipodi:guide
       orientation="0,1"
       position="34.868142,17.318614"
       id="guide3868" />
  </sodipodi:namedview>
  <metadata
     id="metadata7">
    <rdf:RDF>
      <cc:Work
         rdf:about="">
        <dc:format>image/svg+xml</dc:format>
        <dc:type
           rdf:resource="http://purl.org/dc/dcmitype/StillImage" />
        <dc:title />
      </cc:Work>
    </rdf:RDF>
  </metadata>
  <g
     inkscape:label="Layer 1"
     inkscape:groupmode="layer"
     id="layer1"
     transform="translate(-9.8125,-848.39063)">
    <path
       style="fill:#000080;stroke-width:1.89999998;stroke-miterlimit:4;stroke-dasharray:7.6, 7.6;stroke-dashoffset:0"
       id="path2995"
       d="m 30.507534,857.82929 c -0.392602,-0.57253 -0.92153,-1.01556 -1.541266,-1.32114 -1.035568,-0.39875 -2.04043,0.078 -2.96234,0.54371 0.713092,-0.39597 1.387758,-0.87087 2.139275,-1.18791 0.28882,-0.12185 -0.500793,0.37906 -0.729674,0.59325 -0.795543,0.74447 -1.41366,1.65766 -1.859412,2.64968 -0.170205,0.37879 -0.294165,0.77671 -0.441248,1.16506 -0.762586,2.47978 -0.79052,5.08926 -0.326706,7.63035 0.107262,0.58765 0.265172,1.16492 0.397758,1.74738 1.023449,3.62892 2.971894,6.87688 4.894866,10.08566 1.924816,3.01447 3.610123,6.16365 5.05248,9.43435 1.181546,2.84407 2.232611,5.73902 3.280627,8.63416 0.835471,2.28289 1.612252,4.57727 2.153471,6.94862 0.277861,1.55634 0.413387,3.16986 0.03678,4.72362 -0.06178,0.25487 -0.153921,0.50141 -0.230882,0.75211 -0.335556,0.85887 -0.870363,1.63397 -1.68158,2.10883 -3.38865,1.98361 -2.289388,1.59186 -4.194722,2.1804 -1.603002,0.35843 -3.257791,0.34842 -4.891903,0.36858 -0.272446,0.001 -0.544892,0.003 -0.817337,0.004 0,0 2.703167,-1.96579 2.703167,-1.96579 l 0,0 c 0.270365,-10e-4 0.540731,-0.002 0.811097,-0.003 1.62425,-0.0229 3.276161,-0.0269 4.851872,-0.47028 1.46075,-0.54299 0.933438,-0.39332 -1.600524,1.11791 -0.192744,0.11495 0.391132,-0.22244 0.571195,-0.35638 0.343154,-0.25526 0.655729,-0.58092 0.88868,-0.94025 0.127032,-0.19595 0.218183,-0.41295 0.327274,-0.61943 0.0865,-0.24048 0.188529,-0.47592 0.259486,-0.72143 0.43602,-1.5086 0.32145,-3.09533 0.07427,-4.62438 -0.508267,-2.37 -1.258466,-4.6654 -2.069019,-6.94822 -1.024119,-2.89914 -2.050676,-5.79843 -3.216818,-8.64436 -1.423448,-3.26501 -3.077302,-6.41736 -4.997536,-9.42057 -1.930558,-3.24098 -3.893925,-6.51265 -4.956093,-10.16192 -0.140447,-0.58835 -0.304879,-1.17148 -0.421341,-1.76505 -0.502293,-2.56 -0.541477,-5.19601 0.160216,-7.7219 0.401837,-1.1789 0.758598,-2.15601 1.508257,-3.17068 1.25581,-1.69975 3.072411,-2.50453 4.946659,-3.51236 1.032313,-0.46603 2.12756,-0.86346 3.219895,-0.33757 0.638366,0.36553 1.18706,0.84574 1.649749,1.41877 0,0 -2.988673,1.78628 -2.988673,1.78628 z"
       inkscape:connector-curvature="0" />
    <path
       style="fill:#808080;stroke-width:1.89999998000000003;stroke-miterlimit:4;stroke-dasharray:7.59999999999999876, 7.59999999999999876;stroke-dashoffset:0"
       id="path2997"
       d="m 28.163153,879.22667 c -1.192315,-0.0459 -2.407918,0.16813 -3.536348,0.55227 -0.352907,0.12013 -0.692714,0.27577 -1.039071,0.41365 -0.34934,0.19124 -1.409464,0.74094 -1.048019,0.57371 0.595566,-0.27556 1.096242,-0.86097 1.751356,-0.89913 0.418154,-0.0244 -0.642062,0.54174 -0.924584,0.85097 -0.565598,0.61908 -1.012685,1.31633 -1.317169,2.09916 -0.150671,0.38738 -0.22593,0.8 -0.338895,1.20001 -0.02682,0.42193 -0.09975,0.84346 -0.08045,1.26581 0.06302,1.37926 0.590478,2.74555 1.36187,3.87833 0.77471,1.13764 1.193869,1.41235 2.210398,2.34794 2.639899,1.96557 5.759957,3.10313 9.015475,3.51494 0.674665,0.0853 1.355943,0.10604 2.033915,0.15907 1.898088,0.0441 3.788801,-0.15316 5.588621,-0.785 0.533804,-0.1874 0.998732,-0.76033 1.557801,-0.67368 0.498294,0.0772 -1.117408,1.1619 -1.336864,0.70792 -0.225242,-0.46595 0.804634,-0.65111 1.206952,-0.97667 0.335733,-0.37751 0.702765,-0.72936 1.0072,-1.13254 1.138813,-1.5082 1.825218,-3.43936 1.80646,-5.33741 -0.0046,-0.46734 -0.09656,-0.92972 -0.144835,-1.39458 -0.133016,-0.45631 -0.222211,-0.92776 -0.399048,-1.36894 -0.808968,-2.01826 -2.483355,-3.62385 -4.328319,-4.71133 -0.563002,-0.33186 -1.168607,-0.58545 -1.75291,-0.87817 -3.55115,-1.46505 -7.423515,-1.90697 -11.239651,-1.58341 -0.765079,0.0649 -1.5223,0.20203 -2.283451,0.30305 -1.492002,-0.1297 -2.622399,0.98623 -3.991683,1.24794 -0.406245,0.0776 0.729264,-0.39042 1.093896,-0.58563 0,0 -2.911813,1.12016 -2.911813,1.12016 l 0,0 c 1.414847,-0.81174 2.791183,-1.69465 4.244542,-2.43523 1.24831,-0.63611 2.636709,-0.85005 3.982608,-1.15009 0.760513,-0.0894 1.517815,-0.2125 2.281539,-0.26811 3.875069,-0.28217 7.794027,0.17495 11.400665,1.65574 0.601212,0.29912 1.223915,0.55846 1.803635,0.89736 1.919651,1.12221 3.651773,2.76589 4.510613,4.85213 0.187887,0.45641 0.286957,0.9445 0.430436,1.41675 0.05793,0.48253 0.161459,0.96175 0.173793,1.44759 0.04954,1.95149 -0.613929,3.95051 -1.742945,5.53196 -0.299403,0.41938 -0.662741,0.78922 -0.994112,1.18383 -0.399824,0.34124 -0.757587,0.73905 -1.199472,1.02374 -2.360816,1.52095 -4.622863,2.94413 -7.390361,3.44426 -1.600653,0.28927 -2.23629,0.22117 -3.873159,0.23264 -0.682198,-0.0618 -1.368011,-0.0919 -2.046595,-0.18537 -3.309232,-0.4558 -6.486661,-1.6246 -9.181246,-3.61552 -1.04753,-0.95569 -1.490995,-1.24975 -2.29854,-2.4107 -0.815738,-1.17273 -1.383848,-2.58347 -1.486108,-4.01769 -0.03142,-0.4406 0.0301,-0.88293 0.04516,-1.32439 0.275696,-1.11248 0.26756,-1.4147 0.845927,-2.41815 1.407638,-2.44218 4.12257,-3.57612 6.532472,-4.8227 0.358079,-0.13308 0.710458,-0.28264 1.074237,-0.39925 1.207746,-0.38712 2.473865,-0.57643 3.739934,-0.59163 0,0 -2.813857,2.04439 -2.813857,2.04439 z"
       inkscape:connector-curvature="0" />
    <path
       style="fill:#000080;stroke-width:1.89999998;stroke-miterlimit:4;stroke-dasharray:7.6, 7.6;stroke-dashoffset:0"
       id="path2999"
       d="m 65.304261,891.26547 c -0.06072,0.0704 -0.133269,0.13207 -0.18215,0.21113 -0.588387,0.95159 -0.473116,2.73677 -0.479121,3.80725 0.01211,1.95693 0.125557,3.91736 0.460595,5.84699 0.127584,0.39587 0.173735,0.91535 0.495831,1.22478 0.328178,0.31527 0.913969,0.32408 1.322128,0.38068 2.94514,0.0979 5.892452,-0.10299 8.834369,-0.22776 4.76749,-0.23027 9.537278,-0.41476 14.307387,-0.58217 4.054499,-0.093 8.110482,-0.0771 12.16217,0.10107 2.14578,0.1164 4.28135,0.35555 6.37638,0.83556 0.74153,0.18191 1.44469,0.48218 2.17163,0.70719 0.25416,-0.001 0.53976,0.0317 0.79,-0.0349 0.10651,-0.0284 0.20084,-0.0911 0.30338,-0.13153 0.95153,-0.84856 -0.13498,0.13505 -2.72313,1.53134 -0.0584,0.0315 0.0864,-0.10334 0.11146,-0.16474 0.13983,-0.34317 0.0781,-0.76766 0.0601,-1.12232 -0.16131,-1.39873 -0.56558,-2.75304 -0.90245,-4.1159 -0.25139,-1.0643 -0.46144,-2.13722 -0.66148,-3.21209 0,0 3.01451,-1.59699 3.01451,-1.59699 l 0,0 c 0.14691,1.08184 0.35357,2.1522 0.59259,3.21749 0.33734,1.37508 0.76067,2.73216 0.98685,4.13227 0.2404,2.14554 -0.0795,2.48515 -3.23085,3.46671 -0.39618,0.10487 -0.81396,0.0886 -1.20712,-0.0258 -0.69205,-0.25108 -1.37418,-0.53165 -2.08416,-0.73128 -2.01636,-0.51823 -4.08353,-0.77295 -6.159325,-0.91289 -4.001581,-0.21482 -8.009656,-0.26325 -12.016198,-0.17569 -4.790463,0.15349 -9.580163,0.35001 -14.365005,0.62996 -3.03634,0.16487 -6.079505,0.43371 -9.121322,0.35489 -0.230722,-0.0379 -0.465887,-0.0549 -0.692166,-0.11375 -0.971403,-0.25281 -1.170773,-0.97329 -1.339667,-1.86026 -0.273371,-1.96309 -0.359233,-3.94802 -0.410587,-5.92778 -0.03137,-1.37098 -0.197746,-2.88921 0.36433,-4.17725 0,0 3.221021,-1.33419 3.221021,-1.33419 z"
       inkscape:connector-curvature="0" />
    <path
       style="fill:#000080;stroke-width:1.89999998;stroke-miterlimit:4;stroke-dasharray:7.6, 7.6;stroke-dashoffset:0"
       id="path3001"
       d="m 126.81135,891.97317 c 0.0514,-0.88376 -0.0538,-1.78155 -0.38516,-2.60747 -0.0953,-0.23761 -0.21825,-0.4632 -0.32737,-0.69479 -0.66504,-1.0864 -1.57005,-2.08324 -2.85829,-2.39148 -0.24196,-0.0579 -0.49361,-0.0628 -0.74041,-0.0943 -0.70799,0.0759 -0.88693,0.0347 -1.54977,0.35891 -0.27099,0.13255 -1.04672,0.59369 -0.76743,0.47966 0.7198,-0.29387 1.3276,-0.90696 2.09648,-1.02227 0.34139,-0.0512 -0.46009,0.51782 -0.65092,0.80548 -0.20358,0.30687 -0.3516,0.64716 -0.5274,0.97074 -0.64193,1.71029 -0.74555,3.63748 0.1379,5.29297 0.15079,0.28258 0.35848,0.5309 0.53772,0.79635 0.7831,0.84828 1.80505,1.45532 3.00386,1.21406 0.28074,-0.0565 1.04773,-0.44783 0.80852,-0.2904 -0.64296,0.42316 -1.35501,0.73063 -2.03252,1.09595 0.26762,-0.2523 0.55872,-0.48182 0.80286,-0.7569 1.21085,-1.36431 1.91793,-3.18235 2.39842,-4.91691 0.13432,-0.48491 0.22517,-0.98082 0.33776,-1.47123 0.5796,-2.82953 0.41851,-5.70661 0.0613,-8.54929 -0.28984,-1.81389 -0.76566,-3.59753 -1.4479,-5.30305 -0.0484,0.23182 -0.17815,-0.56735 -0.33476,-0.46028 -0.0645,0.0441 -0.079,0.26646 -0.008,0.23415 0.97814,-0.4444 1.83013,-1.1586 2.84133,-1.52151 0.16803,-0.0603 -0.0632,0.35194 -0.0781,0.52984 -0.0219,0.26147 -0.0214,0.52434 -0.0322,0.7865 0.0175,2.79745 0.54455,5.56899 1.1269,8.29593 0.58711,2.59624 1.35119,5.19543 2.72735,7.49634 0.21992,0.3677 0.47768,0.71142 0.71652,1.06714 0.96409,1.13801 0.46338,0.61463 1.49204,1.57971 0,0 -2.80465,1.72438 -2.80465,1.72438 l 0,0 c -1.0229,-1.02689 -0.52612,-0.47307 -1.48023,-1.67048 -0.23641,-0.3693 -0.4917,-0.72718 -0.70923,-1.1079 -1.34354,-2.35147 -2.09955,-4.98049 -2.71657,-7.59904 -0.61287,-2.72174 -1.16724,-5.47795 -1.33709,-8.26763 -0.007,-0.26058 -0.0168,-0.52111 -0.0219,-0.78174 -0.004,-0.19246 -0.14837,-0.44931 -0.005,-0.57747 0.94867,-0.84651 2.31326,-2.8326 3.25866,-1.98245 0.15049,0.13533 0.26419,0.44993 0.33589,0.60673 0.59255,1.77595 1.05305,3.5973 1.33837,5.44881 0.33773,2.8817 0.50857,5.79732 -0.0521,8.66686 -0.10769,0.49829 -0.19469,1.00151 -0.32308,1.49487 -0.557,2.14046 -1.41185,4.25852 -3.00426,5.83784 -0.68498,0.39695 -2.99613,2.19291 -4.55867,2.35192 -1.28554,0.13083 -2.34481,-0.58533 -3.15421,-1.50543 -0.1866,-0.28601 -0.40184,-0.55527 -0.55981,-0.85804 -0.90374,-1.73221 -0.84838,-3.73935 -0.25142,-5.55298 0.16318,-0.33909 0.29906,-0.69273 0.48954,-1.01727 1.01035,-1.72148 2.0048,-1.81983 4.15878,-3.17239 0.77054,-0.48385 1.56687,-0.73084 2.48006,-0.67699 0.25929,0.0508 0.52487,0.0761 0.77786,0.15232 1.33638,0.40249 2.28189,1.45443 2.98916,2.60684 0.11973,0.24075 0.25262,0.47539 0.35917,0.72226 0.3613,0.83707 0.5106,1.7452 0.54613,2.65126 0,0 -3.10452,1.58183 -3.10452,1.58183 z"
       inkscape:connector-curvature="0" />
    <path
       style="fill:#000080;stroke-width:1.89999998;stroke-miterlimit:4;stroke-dasharray:7.6, 7.6;stroke-dashoffset:0"
       id="path3003"
       d="m 140.03597,893.37854 c 1.00175,-0.46021 2.78072,-1.16285 -1.63284,1.00084 -0.25632,0.12566 0.4677,-0.32823 0.68924,-0.50825 0.71973,-0.58488 0.81557,-0.73496 1.46316,-1.42409 1.36437,-1.61921 2.09697,-3.22965 2.47776,-5.29637 0.0957,-0.86783 0.21338,-1.861 -0.27736,-2.63931 -0.0142,-0.019 -0.0632,-0.0455 -0.0425,-0.057 1.0343,-0.57809 2.04933,-1.2016 3.13668,-1.67235 0.0967,-0.0419 0.15418,0.14371 0.23323,0.21339 0.1253,0.11044 0.25038,0.22127 0.37975,0.32691 0.5883,0.48035 0.5739,0.44785 1.24648,0.90788 1.98403,1.29754 3.98183,2.57337 5.96117,3.87833 1.72501,1.16857 3.42835,2.39084 4.87224,3.90114 0.21352,0.28781 0.42252,0.49329 0.49768,0.85306 0.047,0.22491 0.003,0.58517 -0.21985,0.72709 -3.04102,1.93595 -2.17366,1.70437 -3.98178,2.03977 -1.68429,0.16657 -3.37429,0.0329 -5.05735,-0.0722 -0.65506,-0.0511 -1.30769,-0.0798 -1.96422,-0.0668 0,0 2.75189,-1.99696 2.75189,-1.99696 l 0,0 c 0.64429,0.0203 1.28602,0.066 1.92864,0.1176 1.67216,0.11725 3.36534,0.24795 5.02858,-0.0354 1.55253,-0.48027 0.7129,-0.27488 -1.88547,1.33269 -0.0406,0.0251 0.3903,-0.0924 0.39437,-0.38427 0.004,-0.28187 -0.23975,-0.56101 -0.37415,-0.76618 -1.3518,-1.54545 -3.01752,-2.75855 -4.7106,-3.90554 -1.99472,-1.30811 -4.01991,-2.56661 -6.04587,-3.82545 -0.59717,-0.38371 -1.17386,-0.77888 -1.7453,-1.19913 -0.0881,-0.0648 -0.35148,-0.12607 -0.26517,-0.19327 0.90736,-0.70649 1.93729,-1.23962 2.90446,-1.86173 0.007,-0.005 -0.0158,0.006 -0.0238,0.009 0.42066,0.91688 0.40441,1.92328 0.25772,2.90805 -0.37943,2.1077 -1.09771,3.79818 -2.44555,5.48439 -0.23285,0.2653 -0.45429,0.54107 -0.69855,0.79591 -1.40727,1.46824 -2.93811,2.16256 -4.81737,3.20512 -0.15522,0.0861 -0.32612,0.14262 -0.49641,0.19273 -0.11593,0.0341 -0.23852,0.0391 -0.35779,0.0586 0,0 2.81885,-2.04802 2.81885,-2.04802 z"
       inkscape:connector-curvature="0" />
    <path
       style="fill:#000080;stroke-width:1.89999998;stroke-miterlimit:4;stroke-dasharray:7.6, 7.6;stroke-dashoffset:0"
       id="path3005"
       d="m 47.904739,912.21111 c -0.144971,-0.37255 -0.170895,-1.00179 -0.549522,-1.24022 -0.05921,-0.0373 -0.133095,-0.0433 -0.199643,-0.0649 0.03489,-0.10693 -0.830189,0.40398 -0.627019,0.2943 3.79399,-2.04809 2.797749,-1.76617 1.851057,-0.80351 -0.555182,0.56454 -0.718323,0.84543 -1.190625,1.49874 -0.90835,1.5422 -1.560766,3.30626 -1.341985,5.1256 0.039,0.3243 0.13456,0.63927 0.201841,0.95891 0.123776,0.27724 0.212539,0.57294 0.371328,0.83172 0.479156,0.78088 1.275393,1.2839 2.167766,1.45591 0.878203,0.16928 1.370526,0.0502 2.260755,-0.0386 1.808618,-0.32509 3.441122,-1.12675 5.032859,-2.00523 0,0 -2.515177,2.02454 -2.515177,2.02454 l 0,0 c -1.626808,0.8554 -3.29505,1.63286 -5.13205,1.91398 -0.959046,0.0669 -1.447582,0.17839 -2.385286,-0.0452 -0.967677,-0.2307 -1.807601,-0.82124 -2.316246,-1.67971 -0.166436,-0.28091 -0.261242,-0.59849 -0.391863,-0.89773 -0.07328,-0.33748 -0.175426,-0.66997 -0.21983,-1.01245 -0.242349,-1.86922 0.369391,-3.68963 1.242448,-5.31498 0.359785,-0.53895 1.094822,-1.71956 1.646622,-2.08259 1.107262,-0.72849 2.25357,-1.39727 3.408027,-2.04838 0.350254,-0.19755 0.481493,-0.12653 0.83238,-0.0767 0.08954,0.0581 0.188627,0.10353 0.268624,0.17415 0.380358,0.33581 0.447896,0.90917 0.635816,1.35238 0,0 -3.050277,1.67993 -3.050277,1.67993 z"
       inkscape:connector-curvature="0" />
    <path
       style="fill:#000080;stroke-width:1.89999998;stroke-miterlimit:4;stroke-dasharray:7.6, 7.6;stroke-dashoffset:0"
       id="path3007"
       d="m 21.449808,988.63538 c 0.522102,-0.79488 0.653913,-1.44972 0.490983,-2.38359 -0.280236,-1.10066 -0.983796,-1.63129 -1.995866,-2.02707 -0.797746,-0.20315 -1.590211,-0.10859 -2.326459,0.26709 -0.227586,0.11613 -0.879843,0.51692 -0.648202,0.40911 0.737952,-0.34348 1.447336,-0.74526 2.171004,-1.11788 -1.352369,1.31067 -2.021058,3.06888 -2.302317,4.90571 -0.069,0.45065 -0.08929,0.90742 -0.133935,1.36112 -0.08847,2.54756 0.452717,5.07163 1.41557,7.4248 0.197356,0.48233 0.431336,0.94885 0.647004,1.42328 1.346907,2.68845 3.342844,4.95405 5.29898,7.20805 1.496839,1.6888 2.950172,3.4389 4.089378,5.3954 0.20959,0.3599 0.394843,0.7335 0.592265,1.1002 1.047203,2.1442 1.472064,4.4777 1.634772,6.8376 0.05523,1.4029 -0.09822,2.8134 -0.494061,4.1628 -0.199104,0.6787 -0.380466,1.0601 -0.651745,1.7033 -0.265567,0.4915 -0.471791,0.9161 -0.800946,1.3665 -1.130528,1.5469 -3.29769,2.2751 -4.837976,3.0916 -1.268593,0.2758 -2.531303,0.015 -3.746062,-0.3657 -0.712223,-0.2242 -1.344301,-0.6057 -1.937289,-1.0493 0,0 2.880195,-1.8256 2.880195,-1.8256 l 0,0 c 0.571553,0.4123 1.176992,0.7616 1.858092,0.9642 1.184686,0.3522 2.412691,0.5559 3.623873,0.1912 -0.793535,0.4882 -1.596997,0.9607 -2.380605,1.4647 -0.158433,0.1019 0.345348,-0.1544 0.503216,-0.2572 0.174529,-0.1136 0.334532,-0.2491 0.489043,-0.3888 0.564245,-0.5099 0.958654,-1.1422 1.322418,-1.8041 0.272087,-0.5968 0.491276,-1.0338 0.694401,-1.6633 0.425191,-1.3177 0.60876,-2.7036 0.570406,-4.0856 -0.135901,-2.32 -0.534718,-4.6123 -1.546805,-6.727 -0.191826,-0.3617 -0.371515,-0.7301 -0.575478,-1.085 -1.119145,-1.9478 -2.548805,-3.6917 -4.027261,-5.3736 -1.971368,-2.2796 -3.973011,-4.5807 -5.323747,-7.2994 -0.21922,-0.48153 -0.456128,-0.95534 -0.65766,-1.44449 -0.982852,-2.38553 -1.551309,-4.9428 -1.520057,-7.5279 0.03366,-0.46147 0.0432,-0.92535 0.100976,-1.38443 0.234658,-1.86458 0.844488,-3.67076 2.128174,-5.07398 1.173369,-0.74522 2.337211,-1.50565 3.520107,-2.23565 0.987573,-0.60946 2.08951,-0.82858 3.203428,-0.45783 1.112584,0.50165 1.816766,1.09922 2.171083,2.30935 0.03848,0.17414 0.09306,0.34549 0.115429,0.52242 0.08841,0.69938 -0.101871,1.44205 -0.427935,2.05674 0,0 -3.186391,1.41225 -3.186391,1.41225 z"
       inkscape:connector-curvature="0" />
    <path
       style="fill:#000080;stroke-width:1.89999998;stroke-miterlimit:4;stroke-dasharray:7.6, 7.6;stroke-dashoffset:0"
       id="path3009"
       d="m 23.975021,1037.2786 c -0.07645,-0.6967 -0.159641,-1.4081 -0.360794,-2.0819 -0.02919,-0.052 -0.04374,-0.1158 -0.08757,-0.1563 -0.139205,-0.1289 -0.676356,0.3438 -0.508357,0.2557 2.595146,-1.3607 3.32508,-2.1734 2.190862,-1.0292 -0.808828,1.0114 -1.473677,2.234 -1.654263,3.5353 -0.03541,0.2552 -0.02739,0.5145 -0.04109,0.7718 0.07817,1.1807 0.619807,2.0504 1.720907,2.5443 0.206153,0.092 0.429453,0.1406 0.644179,0.2109 1.692236,0.3527 3.10306,-0.1817 4.586357,-0.9444 0,0 -2.604727,2.0807 -2.604727,2.0807 l 0,0 c -1.593098,0.7484 -3.006718,1.1975 -4.771178,0.7473 -0.22897,-0.089 -0.467705,-0.1554 -0.686909,-0.266 -1.203035,-0.6072 -1.765004,-1.5479 -1.875733,-2.8655 0.0072,-0.2746 -0.0084,-0.5508 0.02156,-0.8239 0.145626,-1.3265 0.785057,-2.5914 1.531251,-3.6736 1.13441,-1.4102 0.366892,-0.5591 3.633653,-2.4432 0.405183,-0.2337 0.789888,0.019 0.941634,0.399 0.188733,0.691 0.243187,1.4166 0.396135,2.1164 0,0 -3.075922,1.6226 -3.075922,1.6226 z"
       inkscape:connector-curvature="0" />
    <path
       style="fill:#000080;stroke-width:1.89999998;stroke-miterlimit:4;stroke-dasharray:7.6, 7.6;stroke-dashoffset:0"
       id="path3011"
       d="m 38.843551,1010.4931 c 0.156409,1.4098 0.469492,2.7986 0.751889,4.1875 0.230783,1.0329 0.374078,2.0835 0.683327,3.0975 0.06837,0.1041 0.058,0.2719 0.136964,0.3728 0.0197,0.025 0.02817,-0.067 0.05904,-0.076 0.05848,-0.016 0.121001,-0 0.181501,-0.01 1.60189,-0.037 3.204688,-0.1224 4.806,-0.196 3.023563,-0.1931 6.050607,-0.3166 9.078741,-0.408 1.584556,-0.07 3.169276,-0.091 4.751447,0.029 0.187189,0.052 0.506781,-0.028 0.644315,0.148 -3.654393,2.012 -3.118253,2.4433 -2.909968,-0.043 0.09076,-0.9674 0.08251,-1.9337 -0.01868,-2.8989 -0.03007,-0.4253 -0.122828,-0.8435 -0.291295,-1.2353 -0.03185,-0.065 -0.01669,-0.037 -0.04406,-0.085 0,0 3.053389,-1.7347 3.053389,-1.7347 l 0,0 c 0.03083,0.071 0.01452,0.031 0.04799,0.118 0.150383,0.435 0.259276,0.8888 0.281271,1.3496 0.07561,0.9855 0.0974,1.9674 0.02741,2.9549 -0.0201,0.401 -0.04174,0.8021 -0.07574,1.2023 -0.0065,0.076 -0.02151,0.1523 -0.0234,0.229 -0.0014,0.058 0.06181,0.1418 0.01345,0.1743 -0.982956,0.6615 -2.02074,1.2375 -3.03111,1.8563 0.07199,0.118 -0.424278,-0.073 -0.47885,-0.038 -1.507935,-0.1788 -3.025599,-0.1688 -4.541772,-0.1299 -3.033059,0.066 -6.06447,0.19 -9.08952,0.4272 -1.673446,0.1052 -3.346952,0.2479 -5.021927,0.3089 -0.478807,-0.061 -0.501326,-0.2487 -0.595789,-0.6667 -0.244161,-1.0497 -0.371294,-2.1183 -0.583077,-3.1747 -0.283588,-1.3848 -0.581455,-2.766 -0.884891,-4.1466 0,0 3.073348,-1.6144 3.073348,-1.6144 z"
       inkscape:connector-curvature="0" />
    <path
       style="fill:#000080;stroke-width:1.89999998;stroke-miterlimit:4;stroke-dasharray:7.6, 7.6;stroke-dashoffset:0"
       id="path3013"
       d="m 69.311912,1010.9679 c 0.191153,-0.8873 0.05969,-1.7059 -0.345452,-2.5086 -0.511667,-0.6286 -1.237926,-1.0722 -2.075768,-0.9912 -0.178023,0.017 -0.350236,0.073 -0.525354,0.1091 -0.175279,0.07 -0.357949,0.1242 -0.525836,0.2106 -0.180127,0.093 -0.694931,0.4154 -0.51388,0.3245 0.804152,-0.4036 1.542677,-0.948 2.385202,-1.2638 0.214171,-0.08 -0.307412,0.3411 -0.433262,0.5321 -0.361312,0.5483 -0.376759,0.7536 -0.573278,1.379 -0.294503,1.4159 0.02321,2.8338 0.886715,3.9983 0.170792,0.2303 0.376963,0.4322 0.565445,0.6483 0.752087,0.6365 1.713223,1.244 2.754028,1.0886 0.584518,-0.087 0.775968,-0.2909 1.257869,-0.6076 -0.76036,0.3781 -1.453275,0.9449 -2.281082,1.1343 -0.291956,0.067 0.372406,-0.4719 0.521278,-0.7318 0.545892,-0.953 0.83001,-2.0828 0.95339,-3.1653 0.04771,-0.4186 0.0472,-0.8413 0.0708,-1.2619 -0.01246,-2.835 -0.869918,-5.5511 -1.829843,-8.1881 -0.707765,-1.88169 -1.583882,-3.68809 -2.541327,-5.45314 -0.810829,-1.33547 -1.272447,-0.83772 2.828054,-1.92377 0.195975,-0.0519 0.184789,0.36094 0.280728,0.53954 0.446125,0.83048 0.513831,0.92967 1.01944,1.80299 1.700236,2.76205 3.303409,5.58178 4.860235,8.42658 1.131815,2.0144 2.228058,4.0484 3.392657,6.0443 0,0 -2.850502,1.6397 -2.850502,1.6397 l 0,0 c -1.082581,-2.0432 -2.147005,-4.0962 -3.270569,-6.1173 -1.549652,-2.8435 -3.146671,-5.6652 -4.956933,-8.35306 -0.255756,-0.39834 -0.841371,-1.3125 -1.125123,-1.74754 -0.113827,-0.17451 -0.491132,-0.37305 -0.344799,-0.52137 0.817443,-0.82854 1.861929,-1.40217 2.8498,-2.01765 0.17249,-0.10747 0.01785,0.93037 0.266485,0.54837 0.84316,1.84032 1.687029,3.68025 2.395691,5.57835 0.969856,2.6708 1.847743,5.4173 1.91995,8.2835 -0.01364,0.4295 -0.0039,0.8605 -0.04091,1.2887 -0.09558,1.107 -0.34759,2.2575 -0.835276,3.2626 -0.133695,0.2756 -0.230045,0.6001 -0.471319,0.7888 -1.076452,0.8417 -2.281807,1.504 -3.42271,2.2561 -0.572673,0.2819 -0.728122,0.4362 -1.380829,0.455 -1.108631,0.032 -2.082425,-0.6285 -2.8689,-1.3321 -0.195819,-0.231 -0.408864,-0.4485 -0.587458,-0.6931 -0.901095,-1.2342 -1.284674,-2.7239 -1.0389,-4.2328 0.129816,-0.5152 0.438736,-1.7399 0.903153,-2.0762 1.078643,-0.781 2.240974,-1.4397 3.37561,-2.1368 0.177702,-0.1092 0.365122,-0.2043 0.559147,-0.2808 0.183315,-0.072 0.378697,-0.1091 0.568045,-0.1636 0.191063,-0.017 0.381422,-0.055 0.573188,-0.051 0.933098,0.019 1.724537,0.56 2.27278,1.2797 0.438917,0.8657 0.602261,1.699 0.509391,2.669 0,0 -3.129766,1.5302 -3.129766,1.5302 z"
       inkscape:connector-curvature="0" />
    <path
       style="fill:#000080;stroke-width:1.89999998;stroke-miterlimit:4;stroke-dasharray:7.6, 7.6;stroke-dashoffset:0"
       id="path3015"
       d="m 90.639891,1004.2089 c -0.884921,1.2368 -1.569516,2.6031 -2.288682,3.9394 -0.926373,1.7256 -1.78621,3.4824 -2.547077,5.2868 -0.287183,0.7139 -0.155222,0.3787 -0.397679,1.005 0,0 -3.101882,1.4307 -3.101882,1.4307 l 0,0 c 0.282072,-0.6465 0.131007,-0.301 0.453415,-1.0366 0.797239,-1.811 1.676092,-3.581 2.589649,-5.336 0.685976,-1.3066 1.333589,-2.6381 2.106985,-3.8956 0,0 3.185271,-1.3937 3.185271,-1.3937 z"
       inkscape:connector-curvature="0" />
    <path
       style="fill:#000080;stroke-width:1.89999998;stroke-miterlimit:4;stroke-dasharray:7.6, 7.6;stroke-dashoffset:0"
       id="path3017"
       d="m 82.072526,1005.7264 c 0.730137,1.6852 1.925941,3.1305 3.044643,4.5703 1.545113,1.9255 3.191809,3.7715 5.003108,5.4502 0,0 -2.808171,1.7299 -2.808171,1.7299 l 0,0 c -1.768374,-1.7375 -3.396729,-3.6106 -4.976563,-5.5199 -1.167336,-1.4535 -2.366954,-2.9048 -3.292274,-4.5291 0,0 3.029257,-1.7014 3.029257,-1.7014 z"
       inkscape:connector-curvature="0" />
    <path
       style="fill:#000080;stroke-width:1.89999998;stroke-miterlimit:4;stroke-dasharray:7.6, 7.6;stroke-dashoffset:0"
       id="path3029"
       d="m 97.437974,1009.3995 c -0.190038,-0.7662 -0.283136,-1.5522 -0.360544,-2.3365 -0.07971,-0.2668 -0.07716,-0.8803 -0.250067,-1.1111 1.029706,-0.5173 2.03664,-1.0826 3.089118,-1.5518 0.0593,-0.026 -0.03006,0.1267 -0.03715,0.1912 -0.02607,0.2374 -0.04454,0.7897 -0.05062,0.9855 -0.01605,0.5167 -0.026,1.1542 -0.03543,1.663 -0.02829,1.9488 -0.01445,3.8975 0.01018,5.8462 0.04747,0.6711 -0.0089,1.3546 0.07249,2.0239 0,0 -3.121907,1.5909 -3.121907,1.5909 l 0,0 c 0.07463,-0.6949 0.02907,-1.4007 0.07103,-2.0971 0.02292,-1.9519 0.0349,-3.9038 0.0077,-5.8558 -0.01227,-0.7348 -0.02216,-1.4698 -0.04399,-2.2044 -0.0039,-0.1303 -0.0077,-0.2605 -0.01375,-0.3907 -0.0036,-0.077 -0.08062,-0.1896 -0.01528,-0.2302 1.006443,-0.625 2.081201,-1.1327 3.121802,-1.699 0.156484,0.3943 0.157424,0.8419 0.246234,1.252 0.0554,0.7555 0.12244,1.5205 0.36051,2.244 0,0 -3.050282,1.6799 -3.050282,1.6799 z"
       inkscape:connector-curvature="0" />
    <path
       style="fill:#000080;stroke-width:1.89999998;stroke-miterlimit:4;stroke-dasharray:7.6, 7.6;stroke-dashoffset:0"
       id="path3031"
       d="m 94.779485,1008.1772 c 1.610303,0.1613 3.221239,0.3222 4.833196,0.4689 1.951979,0.1569 3.901659,0.3324 5.857849,0.429 0.20015,-0 0.40029,-0.01 0.60044,-0.011 0,0 -2.74467,1.9908 -2.74467,1.9908 l 0,0 c -0.19623,-0.01 -0.39246,-0.014 -0.5887,-0.021 -1.93215,-0.152 -3.86129,-0.3384 -5.793897,-0.4842 -1.655094,-0.138 -3.311616,-0.3052 -4.973082,-0.3321 0,0 2.808864,-2.0407 2.808864,-2.0407 z"
       inkscape:connector-curvature="0" />
    <path
       style="fill:#000080;stroke-width:1.89999998;stroke-miterlimit:4;stroke-dasharray:7.6, 7.6;stroke-dashoffset:0"
       id="path3033"
       d="m 110.60231,1011.7058 c -0.65095,1.0068 -0.71142,2.2915 -0.8197,3.4548 -0.0799,1.0753 -0.10078,2.1543 -0.076,3.232 0.0525,0.417 0.0281,0.2711 0.21519,0.17 0.13041,-0.07 0.2812,-0.094 0.42051,-0.1447 1.12366,-0.2737 2.29126,-0.2751 3.44084,-0.3004 2.32536,-0.078 4.64665,0.076 6.96246,0.2691 2.00954,0.1477 3.97773,0.5469 5.92059,1.0625 0.64408,0.093 1.45528,0.6576 2.10381,0.6225 0.051,-0.01 0.10488,-0.01 0.1531,-0.029 0.0922,-0.037 0.33322,-0.2162 0.24676,-0.1672 -5.19709,2.9429 -3.51811,2.175 -2.60367,1.449 0.39795,-0.3516 0.5061,-0.9089 0.60345,-1.4069 0.22447,-0.9715 0.25783,-1.9559 0.23426,-2.9473 -0.0328,-0.7154 -0.22887,-1.4014 -0.53966,-2.0424 -0.0995,-0.1837 -0.0516,-0.1005 -0.14165,-0.2507 0,0 3.03102,-1.7379 3.03102,-1.7379 l 0,0 c 0.0838,0.1725 0.0392,0.078 0.1325,0.2841 0.29333,0.6998 0.51576,1.4274 0.55137,2.1913 0.0276,1.0027 0.0257,2.0034 -0.18236,2.9907 -0.066,0.5518 -0.16799,1.1222 -0.46318,1.6011 -1.01657,1.0508 -2.37648,2.1456 -3.85684,2.0788 -0.70345,-0.1719 -1.33978,-0.553 -2.0424,-0.7336 -1.89015,-0.5507 -3.82039,-0.9316 -5.78706,-1.0792 -2.33318,-0.184 -4.67272,-0.3186 -7.0132,-0.1852 -1.17072,0.057 -2.36265,0.091 -3.48969,0.447 -0.58261,0.145 -0.91072,0.1132 -0.97247,-0.5768 0.0401,-1.0998 0.0694,-2.2003 0.14778,-3.2983 0.0973,-1.2064 0.1851,-2.4453 0.6224,-3.5851 0,0 3.20182,-1.368 3.20182,-1.368 z"
       inkscape:connector-curvature="0" />
    <path
       style="fill:#000080;stroke-width:1.89999998;stroke-miterlimit:4;stroke-dasharray:7.6, 7.6;stroke-dashoffset:0"
       id="path3035"
       d="m 138.78383,1013.1066 c -9.9e-4,-0.8149 -0.4023,-1.5226 -0.88026,-2.153 -0.93208,-1.0215 -1.73433,-1.2355 -3.08078,-1.1814 -0.2083,0.043 -0.42267,0.064 -0.62491,0.1306 -0.19871,0.065 -0.38033,0.1739 -0.57049,0.2608 0.79553,-0.4446 1.56838,-0.9324 2.38659,-1.3338 0.17291,-0.085 -0.30617,0.2366 -0.43731,0.3777 -0.36911,0.3969 -0.35086,0.4852 -0.54103,0.9754 -0.0167,0.1801 -0.0594,0.3597 -0.0502,0.5403 0.0435,0.8495 0.61866,1.6004 1.26825,2.1008 0.18902,0.1457 0.4011,0.2586 0.60165,0.3879 1.07797,0.5032 2.32145,0.8867 3.4948,0.4631 0.21609,-0.078 0.41303,-0.2013 0.61955,-0.302 -0.77118,0.4136 -1.49592,0.9289 -2.31354,1.2407 -0.23634,0.09 0.36426,-0.3538 0.517,-0.5555 0.7884,-1.0407 1.09767,-2.3196 1.38207,-3.5648 0.44588,-2.2063 0.31598,-4.2316 -0.19374,-6.4044 -0.38997,-1.1528 -0.7033,-2.4432 -1.47995,-3.414 -1.20377,-0.3387 -0.27193,-0.045 2.86626,-1.55596 0.0445,-0.0214 -0.0807,0.0703 -0.0882,0.11917 -0.0178,0.1158 -4.6e-4,0.23511 0.0159,0.35111 0.0557,0.39471 0.18442,0.77718 0.29453,1.15778 0.81712,2.0117 1.60664,4.0317 2.3528,6.0711 0.7394,2.0795 1.61156,4.1041 2.74154,6.0011 0.51911,0.7459 0.25569,0.407 0.77921,1.0254 0,0 -2.91322,1.7398 -2.91322,1.7398 l 0,0 c -0.50349,-0.6742 -0.25089,-0.309 -0.74832,-1.102 -1.07849,-1.9479 -1.94986,-3.9923 -2.69562,-6.0901 -0.76042,-2.0344 -1.5623,-4.0492 -2.46954,-6.0232 -0.18476,-0.5244 -0.37098,-1.0318 -0.4609,-1.5818 -0.0194,-0.1187 -0.14957,-0.2921 -0.0487,-0.3575 2.99443,-1.94275 2.31984,-2.47409 3.3475,-1.50884 0.69455,1.08824 1.03593,2.38234 1.41401,3.60214 0.50194,2.1898 0.65516,4.3142 0.24571,6.5406 -0.20396,1.0075 -0.4157,1.9806 -0.84868,2.9203 -0.12432,0.2699 -0.59805,1.1917 -0.88235,1.3877 -1.10827,0.7644 -2.30439,1.3927 -3.45659,2.0891 -0.22117,0.082 -0.43496,0.1873 -0.66351,0.2453 -1.2492,0.3172 -2.52855,-0.1292 -3.63609,-0.6829 -0.21099,-0.144 -0.43358,-0.2724 -0.63298,-0.4322 -0.72009,-0.5767 -1.33384,-1.4019 -1.44088,-2.3436 -0.0234,-0.2055 0.008,-0.4136 0.0127,-0.6204 0.0544,-0.2001 0.0826,-0.4092 0.16321,-0.6002 0.10882,-0.2578 0.47993,-0.8187 0.72661,-0.9743 0.15952,-0.1007 2.7402,-1.8826 4.0412,-2.1813 0.2156,-0.049 0.43855,-0.058 0.65782,-0.088 0.22126,0 0.44361,-0.01 0.66379,0.014 1.03336,0.1046 1.93929,0.6391 2.6111,1.4152 0.52832,0.6824 0.95072,1.4412 1.0585,2.3119 0,0 -3.10453,1.5819 -3.10453,1.5819 z"
       inkscape:connector-curvature="0" />
    <path
       style="fill:#000080;stroke-width:1.89999998;stroke-miterlimit:4;stroke-dasharray:7.6, 7.6;stroke-dashoffset:0"
       id="path3037"
       d="m 153.2006,1009.4442 c 0.4945,1.0177 1.18828,1.8928 1.98378,2.6885 0.5397,0.417 1.43782,1.1761 2.19217,0.9749 0.11006,-0.029 0.20454,-0.1003 0.30681,-0.1505 -4.70964,2.6347 -2.78586,1.9926 -2.20224,0.8051 0.18479,-0.376 0.2709,-0.7753 0.352,-1.1825 0.0934,-0.4309 0.0659,-0.8582 -0.0525,-1.278 1.05634,-0.5205 2.06892,-1.1414 3.16901,-1.5617 0.10363,-0.04 0.11679,0.1888 0.17018,0.286 0.0711,0.1296 0.13753,0.2617 0.20319,0.3941 0.30868,0.6224 0.59583,1.2553 0.88279,1.8879 1.02684,2.274 1.95187,4.5933 2.8599,6.9169 1.0608,2.7288 1.97053,5.5077 2.70147,8.342 0.51555,2.2085 0.885,4.4465 1.01541,6.7106 0.0156,2.3996 -0.59619,2.1 -3.48677,3.6119 -0.14634,0.076 -0.33215,0.012 -0.49526,-0.014 -0.20423,-0.032 -0.39953,-0.1069 -0.5993,-0.1603 -1.99981,-0.7895 -3.79282,-2.0036 -5.56883,-3.1961 -1.41061,-1.0611 -3.09425,-2.2603 -3.76281,-3.9768 -0.10922,-0.2805 -0.14875,-0.5833 -0.22312,-0.8749 0.008,-0.2931 -0.0266,-0.5907 0.0254,-0.8793 0.36856,-2.0463 2.57557,-3.3764 4.15001,-4.4299 0.47169,-0.2765 0.94338,-0.553 1.41507,-0.8295 0,0 2.95319,-1.1343 2.95319,-1.1343 l 0,0 c -0.467,0.2681 -0.93399,0.5362 -1.40099,0.8043 -1.45843,0.9496 -3.6777,2.2607 -4.13504,4.0924 -0.0646,0.2585 -0.0501,0.5306 -0.0752,0.7959 0.0576,0.2698 0.0801,0.5495 0.17278,0.8094 0.5974,1.6749 2.25483,2.859 3.61318,3.8732 1.76762,1.1713 3.57131,2.3798 5.6171,3.0046 0.18809,0.021 0.37524,0.072 0.56426,0.062 0.14554,-0.01 0.54322,-0.192 0.4232,-0.1094 -0.83093,0.5719 -1.71644,1.0601 -2.57466,1.5901 0.083,-0.1053 0.19241,-0.1942 0.24903,-0.3157 0.16936,-0.3635 0.15028,-0.819 0.17269,-1.1993 -0.0388,-2.2631 -0.37916,-4.4978 -0.87889,-6.7046 -0.70181,-2.8291 -1.5925,-5.6023 -2.67141,-8.3117 -0.91826,-2.3061 -1.86023,-4.6081 -2.96731,-6.8312 -0.30486,-0.6147 -0.60902,-1.2298 -0.94696,-1.8273 -0.0682,-0.1206 -0.13621,-0.2414 -0.21184,-0.3574 -0.0529,-0.081 -0.25094,-0.1753 -0.17329,-0.2333 0.92485,-0.6899 1.95903,-1.2197 2.93855,-1.8296 -0.0415,0.048 0.15345,1.2389 0.0129,1.3708 -0.45143,2.6105 -1.04247,2.3172 -3.95999,3.9837 -0.12388,0.018 -0.24643,0.055 -0.37165,0.055 -0.87996,-0 -1.64563,-0.709 -2.27977,-1.2233 -0.81117,-0.8311 -1.52289,-1.7362 -2.13029,-2.7277 0,0 3.02408,-1.7218 3.02408,-1.7218 z"
       inkscape:connector-curvature="0" />
    <path
       style="fill:#ff0000;stroke-width:1.89999998;stroke-miterlimit:4;stroke-dasharray:7.6, 7.6;stroke-dashoffset:0"
       id="path3039"
       d="m 83.809084,938.33501 c -0.569021,-0.11047 -1.14718,-0.14838 -1.725069,-0.17389 -0.620546,-0.01 -1.236815,0.10888 -1.855383,0.16384 -0.465234,0.11275 -0.925157,0.23954 -1.389845,0.34904 -0.548363,0.11478 -1.083024,0.30465 -1.60217,0.51422 -0.693842,0.22468 -1.391258,0.43899 -2.081402,0.67503 -0.746357,0.19021 -1.451871,0.50467 -2.164265,0.79092 -0.101211,0.0346 -0.204821,0.0629 -0.303634,0.10383 -0.15829,0.0798 -0.309115,0.16038 -0.473787,0.22627 -0.195869,0.0784 -0.387043,0.12767 -0.575147,0.22448 -2.308343,1.46924 9.950982,-5.86499 -0.437367,0.26382 -0.929995,0.54867 3.745422,-2.15093 2.806315,-1.61801 -0.05784,0.0328 -7.749836,4.46092 -0.383267,0.22027 -0.518355,0.31219 -0.996329,0.68552 -1.499311,1.02161 -0.436295,0.30413 -0.889605,0.58617 -1.293771,0.93318 -0.363365,0.29619 -0.497346,0.73015 -0.618067,1.16639 -0.157624,0.61727 -0.436397,1.19849 -0.733747,1.75947 -0.372552,0.52715 -0.608715,1.11527 -0.808615,1.72391 -0.182422,0.55935 -0.23305,1.14396 -0.260417,1.72777 -0.01826,0.47891 -0.01156,0.95813 -0.0068,1.43718 -0.0066,0.42455 -0.0043,0.84445 0.05266,1.26542 0.09814,0.57098 0.137484,1.14804 0.156334,1.72627 0.06848,0.65747 0.156639,1.31162 0.20559,1.97106 0.0044,0.54482 0.08889,1.07968 0.186028,1.61408 0.05465,0.39307 0.164044,0.77455 0.311441,1.14194 0.144676,0.38753 0.285828,0.7753 0.453921,1.15323 0.162714,0.4046 0.311292,0.81872 0.527989,1.19815 0.287417,0.37245 0.498598,0.79816 0.79434,1.1631 0.265099,0.36424 0.579113,0.68744 0.879765,1.0225 0.294566,0.34974 0.636369,0.65607 0.924101,1.01103 0.304666,0.39892 0.692967,0.72649 1.05564,1.07152 0.414399,0.40702 0.887303,0.74757 1.361879,1.07987 0.422644,0.35041 0.910659,0.58521 1.398879,0.82405 0.416379,0.17844 0.834537,0.34259 1.258179,0.50229 0.586135,0.18102 1.153583,0.4119 1.74724,0.56801 0.606421,0.18521 1.201687,0.40481 1.822365,0.53936 0.548468,0.15803 1.097242,0.32302 1.656627,0.43887 0.616853,0.15572 1.231234,0.323 1.851429,0.46613 0.533199,0.10584 1.053243,0.26553 1.576186,0.41229 0.482536,0.15363 0.997711,0.11955 1.484601,0.23575 0.413305,0.11751 0.840107,0.15689 1.267261,0.17976 0.41762,0.0183 0.835668,0.0147 1.253552,0.0143 0.435494,-1.9e-4 0.870987,-10e-5 1.306481,-7e-5 0.472402,-0.013 0.947979,0.0359 1.41538,-0.041 0.568523,-0.0634 1.123361,-0.19207 1.684869,-0.29596 0.528946,-0.0798 1.040302,-0.24374 1.549184,-0.40383 0.572494,-0.0833 1.119248,-0.26626 1.672571,-0.42795 0.597558,-0.20008 1.178711,-0.44001 1.763783,-0.67366 0.53011,-0.21104 1.03353,-0.47171 1.54661,-0.71789 -0.70405,0.38998 1.36949,-0.76669 0.6683,-0.364 -5.813868,3.33886 -1.24637,0.64641 0.74642,-0.40974 -5.138262,3.03058 -2.54363,1.48774 -1.40662,0.72154 0.47831,-0.30415 0.96204,-0.5958 1.42588,-0.92202 0.4949,-0.28793 0.8945,-0.6837 1.28224,-1.0978 0.4331,-0.40622 0.72543,-0.91593 1.0259,-1.42003 0.25934,-0.3764 0.41693,-0.80186 0.59654,-1.21793 0.21284,-0.39842 0.33606,-0.82244 0.4431,-1.25804 0.11993,-0.49604 0.31998,-0.96612 0.5297,-1.42951 0.24682,-0.48405 0.35399,-1.01301 0.41592,-1.54782 0.0445,-0.51314 0.046,-1.02887 0.0462,-1.54357 0.003,-0.56141 0.018,-1.11992 -0.0594,-1.67694 -0.0644,-0.50259 -0.14164,-0.99851 -0.27574,-1.48748 -0.1527,-0.54736 -0.33229,-1.08482 -0.46563,-1.63739 -0.10483,-0.46706 -0.20692,-0.9359 -0.32384,-1.40015 -0.11932,-0.4553 -0.22055,-0.91348 -0.3539,-1.36518 -0.0965,-0.40937 -0.18977,-0.81969 -0.31281,-1.22224 -0.12695,-0.41821 -0.3518,-0.80036 -0.56428,-1.18021 -0.19044,-0.43027 -0.47108,-0.80494 -0.7319,-1.19231 -0.2331,-0.3412 -0.44792,-0.68703 -0.73204,-0.98859 -0.27114,-0.26026 -0.51235,-0.56143 -0.82193,-0.77733 -0.36667,-0.29265 -0.75095,-0.56014 -1.12412,-0.84442 -0.36306,-0.30166 -0.76329,-0.5524 -1.1376,-0.83913 -0.30996,-0.25794 -0.652951,-0.47354 -0.983953,-0.70399 -0.220878,-0.23674 -0.502294,-0.37377 -0.763253,-0.55208 -0.306338,-0.15492 -0.599195,-0.3217 -0.927711,-0.42805 -0.322559,-0.14207 -0.639811,-0.2717 -0.926345,-0.481 -0.242107,-0.16836 -0.500077,-0.32846 -0.781572,-0.42099 -0.293317,-0.22198 -0.66372,-0.23778 -0.992413,-0.3698 -0.312798,-0.12536 -0.635681,-0.18371 -0.952919,-0.29651 -0.380616,-0.0799 -0.741063,-0.22496 -1.121319,-0.30893 -0.350268,-0.0211 -0.667034,-0.17133 -1.006956,-0.24476 -0.351642,-0.009 -0.673978,-0.10935 -1.0096,-0.20239 -0.304127,-0.19735 -0.678679,-0.20759 -0.997612,-0.35819 -0.286296,-0.13588 -0.59544,-0.17453 -0.907513,-0.19374 -0.418336,0.003 -0.818608,-0.0129 -1.225487,-0.10896 -0.28882,-0.0862 -0.586061,-0.11556 -0.885451,-0.12983 -0.287697,-0.01 -0.575564,-0.005 -0.863346,-0.005 -0.298885,-3.3e-4 -0.59777,0.001 -0.896658,7.4e-4 -0.34671,-0.0454 -0.649931,0.0477 -0.977693,0.13993 -0.307984,0.0634 -0.622729,0.0883 -0.936684,0.0954 -0.05149,2.2e-4 -0.104055,-0.01 -0.15446,6.5e-4 -0.09231,0.0192 -0.172126,0.079 -0.263009,0.10415 -0.152682,0.0422 -0.30978,0.0707 -0.466393,0.0924 -0.338683,-0.007 -0.644495,0.0892 -0.966662,0.177 -0.218802,0.0401 -0.436957,0.0844 -0.657128,0.11652 -0.117961,0.0141 0.02816,-0.003 -0.05443,0.005 0,0 2.818341,-2.10405 2.818341,-2.10405 l 0,0 c 0.06949,-0.013 -0.06194,0.01 0.04461,-0.008 0.206649,-0.0339 0.413126,-0.0711 0.615113,-0.12721 0.325508,-0.0777 0.653107,-0.10804 0.98284,-0.16146 0.302736,-0.0733 0.598441,-0.17468 0.914083,-0.16153 0.30103,-0.0253 0.601374,-0.062 0.892646,-0.146 0.341708,-0.0746 0.680929,-0.0847 1.030467,-0.0734 0.29976,-9.6e-4 0.599519,-8.6e-4 0.899279,-0.002 0.293177,6.4e-4 0.586836,0.004 0.879201,0.0274 0.304774,0.0334 0.602768,0.0966 0.899961,0.1717 0.39984,0.0677 0.805432,0.0334 1.208133,0.0773 0.334677,0.0443 0.655893,0.13243 0.965272,0.26984 0.330921,0.0958 0.654638,0.20752 0.976559,0.32957 0.331737,0.0917 0.669862,0.12315 1.005661,0.19575 0.331574,0.0955 0.661093,0.18983 1.00188,0.24828 0.380942,0.10827 0.759884,0.22351 1.140985,0.33068 0.315514,0.1049 0.647554,0.15523 0.951462,0.29693 0.347206,0.0963 0.684614,0.20876 1.002107,0.38257 0.290528,0.13138 0.568335,0.29113 0.823528,0.48308 0.278969,0.16891 0.579339,0.29146 0.882229,0.41128 0.33422,0.13856 0.65324,0.31304 0.96703,0.49216 0.27872,0.1657 0.53333,0.35422 0.7787,0.56618 0.32148,0.24372 0.66238,0.46075 0.97428,0.71726 0.37734,0.27905 0.76384,0.54545 1.12641,0.84402 0.38294,0.27856 0.76842,0.55315 1.14624,0.8387 0.30291,0.25601 0.57199,0.55005 0.85265,0.82984 0.28278,0.32389 0.50631,0.68136 0.74641,1.03717 0.26781,0.39397 0.54948,0.77795 0.74594,1.21565 0.22881,0.39765 0.46357,0.80098 0.60008,1.24094 0.13686,0.40228 0.23737,0.81694 0.32256,1.23277 0.12111,0.45678 0.24118,0.91177 0.35103,1.37122 0.13125,0.46477 0.21898,0.94485 0.32485,1.41552 0.11454,0.55006 0.3035,1.07688 0.45276,1.61784 0.15932,0.50041 0.24224,1.00998 0.30012,1.53131 0.086,0.57204 0.0922,1.14292 0.0818,1.72122 6.3e-4,0.52459 0.0114,1.04993 -0.0269,1.57361 -0.051,0.56616 -0.14266,1.12904 -0.36482,1.65665 -0.22476,0.43719 -0.4207,0.89534 -0.55147,1.36938 -0.13065,0.43457 -0.16818,0.90065 -0.41878,1.29385 -0.16827,0.43322 -0.33669,0.87482 -0.58959,1.26669 -0.2935,0.5212 -0.58012,1.06115 -1.00099,1.49259 -0.38611,0.42326 -0.75099,0.87413 -1.24972,1.17168 -0.4776,0.30602 -0.925,0.65781 -1.4252,0.92923 -1.49523,0.91596 -2.82754,2.06179 -4.50808,2.69662 -0.0899,0.0472 -0.357351,0.19313 -0.2698,0.14163 0.89996,-0.52931 3.61103,-2.09808 2.7073,-1.57525 -1.28494,0.74336 -2.53874,1.5414 -3.866867,2.20507 -0.508456,0.25205 -1.028507,0.48098 -1.554684,0.69349 -0.585213,0.23925 -1.180333,0.45304 -1.782406,0.64608 -0.55524,0.16655 -1.118264,0.2946 -1.679029,0.43888 -0.512636,0.15753 -1.036443,0.27967 -1.565557,0.3674 -0.566086,0.11202 -1.133017,0.21697 -1.707518,0.2772 -0.480672,0.0264 -0.962089,0.0119 -1.443356,0.0162 -0.437301,8.8e-4 -0.8746,0.003 -1.311902,0.003 -0.421317,-0.002 -0.843459,-0.004 -1.2637,-0.0366 -0.43594,-0.0383 -0.865627,-0.10913 -1.291049,-0.2128 -0.500988,-0.0683 -1.006526,-0.11666 -1.492125,-0.26804 -0.518225,-0.14922 -1.040816,-0.28291 -1.56635,-0.40384 -0.613535,-0.15967 -1.227786,-0.31418 -1.844352,-0.4619 -0.558331,-0.13258 -1.11158,-0.28655 -1.664068,-0.44136 -0.613703,-0.16342 -1.211131,-0.38086 -1.821924,-0.55484 -0.59689,-0.17757 -1.18133,-0.3937 -1.775838,-0.57922 -0.4366,-0.15113 -0.855138,-0.34485 -1.276246,-0.53432 -0.503847,-0.24346 -0.980133,-0.5317 -1.424362,-0.87367 -0.485928,-0.34322 -0.95901,-0.70766 -1.387329,-1.12167 -0.378552,-0.35155 -0.778445,-0.68789 -1.090963,-1.10232 -0.290184,-0.34834 -0.626153,-0.65547 -0.921941,-0.99926 -0.296219,-0.34609 -0.619958,-0.66888 -0.882455,-1.04249 -0.296475,-0.38715 -0.533821,-0.81545 -0.824842,-1.20726 -0.217002,-0.39136 -0.387306,-0.80812 -0.54908,-1.22483 -0.167232,-0.38255 -0.313298,-0.77255 -0.461244,-1.16277 -0.155969,-0.38975 -0.286972,-0.79427 -0.341761,-1.21172 -0.08111,-0.54973 -0.194185,-1.09499 -0.181173,-1.65381 -0.04084,-0.66333 -0.118979,-1.32226 -0.212476,-1.98016 -0.02143,-0.56325 -0.05061,-1.12729 -0.149865,-1.6833 -0.0761,-0.43482 -0.108177,-0.86391 -0.08723,-1.30633 0.0013,-0.4867 0.0029,-0.97352 0.01574,-1.46008 0.02473,-0.60922 0.05609,-1.2234 0.228565,-1.81225 0.186945,-0.62447 0.381202,-1.26245 0.779131,-1.78961 0.313561,-0.52456 0.57662,-1.08804 0.764132,-1.6695 0.09832,-0.46034 0.203209,-0.99041 0.526802,-1.34446 0.383465,-0.39392 0.83988,-0.68451 1.291896,-0.99401 0.498756,-0.33427 0.994855,-0.66992 1.471661,-1.03538 1.057073,-0.60877 2.101412,-1.2402 3.171219,-1.8263 0.942911,-0.51658 -3.716501,2.16387 -2.790429,1.61768 1.044193,-0.61586 2.102816,-1.2071 3.144801,-1.82669 0.934917,-0.55592 -3.776747,2.1597 -2.823578,1.63569 3.872799,-2.1291 1.992693,-1.31793 3.282026,-1.86941 0.449535,-0.16183 0.881256,-0.36535 1.331333,-0.52618 0.711906,-0.28782 1.431859,-0.5555 2.169939,-0.76923 0.696656,-0.22867 1.397059,-0.44673 2.086828,-0.69573 0.537116,-0.18929 1.074857,-0.37704 1.634291,-0.49111 0.463897,-0.12891 0.937768,-0.23535 1.41486,-0.29958 0.624803,-0.0619 1.249759,-0.17201 1.879593,-0.12047 0.595525,0.0322 1.187055,0.0956 1.776558,0.18663 0,0 -2.851869,2.00089 -2.851869,2.00089 z"
       inkscape:connector-curvature="0" />
    <path
       style="fill:#1a1a1a;stroke-width:1.89999998;stroke-miterlimit:4;stroke-dasharray:7.6, 7.6;stroke-dashoffset:0"
       id="path3041"
       d="m 86.152401,929.24047 c -0.221332,-0.20117 -0.464199,-0.78562 -0.766477,-0.84301 -0.11585,0.0346 -0.0662,5.2e-4 -0.139726,0.11456 0.969549,-0.54727 1.928245,-1.11423 2.908646,-1.64181 0.05174,-0.0278 -0.07862,0.0878 -0.11146,0.13656 -0.102336,0.15183 -0.120757,0.22965 -0.189424,0.40443 -0.266832,0.72585 -0.350161,1.47918 -0.345607,2.24666 0.08257,1.04791 0.231145,2.08902 0.405649,3.12512 0.200514,1.16901 0.428825,2.33319 0.663704,3.49574 0.251796,1.17173 0.401958,2.36026 0.574731,3.54491 0.18063,1.30648 0.314229,2.61879 0.469955,3.92831 0.157861,1.35103 0.260861,2.70719 0.433875,4.05653 0.234254,1.5034 0.403694,3.01044 0.486855,4.52971 0.116361,1.85642 0.02268,3.71471 -0.03693,5.57108 -0.09135,1.49039 -0.0037,2.97964 0.06301,4.46855 0.06977,1.38648 0.08819,2.77227 0.02326,4.15883 -0.05472,1.4732 -0.195558,2.94066 -0.290396,4.41138 -0.147555,1.47572 -0.248176,2.9542 -0.303038,4.43611 -0.04323,1.38133 -0.04409,2.76347 -0.04001,4.14532 -6.81e-4,0.72307 0.01162,1.44602 0.03896,2.16856 0,0 -3.087749,1.57394 -3.087749,1.57394 l 0,0 c 0.0244,-0.73579 0.03584,-1.47188 0.0362,-2.20809 0.0083,-1.38854 0.01276,-2.77732 0.05344,-4.16539 0.05385,-1.484 0.144306,-2.9662 0.297494,-4.44359 0.09329,-1.46837 0.245749,-2.9325 0.287011,-4.40392 0.06951,-1.37702 0.05958,-2.75264 -0.01149,-4.13003 -0.06331,-1.50366 -0.143534,-3.00799 -0.03617,-4.51224 0.07533,-1.84586 0.178857,-3.69479 0.0486,-5.54098 -0.09878,-1.50565 -0.276833,-2.99867 -0.514007,-4.48872 -0.182685,-1.35001 -0.274889,-2.70806 -0.432496,-4.06082 -0.163747,-1.30404 -0.297733,-2.61181 -0.480562,-3.9135 -0.174257,-1.17809 -0.331323,-2.35878 -0.567791,-3.52681 -0.242994,-1.16348 -0.465786,-2.33152 -0.673272,-3.50177 -0.190957,-1.0471 -0.338425,-2.10103 -0.454584,-3.15904 -0.02495,-0.78896 0.0093,-1.56765 0.258867,-2.3251 0.330946,-1.43292 2.144386,-3.09918 3.594289,-2.40047 0.321876,0.26261 0.510037,0.64053 0.809309,0.92735 0,0 -2.972652,1.82164 -2.972652,1.82164 z"
       inkscape:connector-curvature="0" />
    <path
       style="fill:#1a1a1a;stroke-width:1.89999998;stroke-miterlimit:4;stroke-dasharray:7.6, 7.6;stroke-dashoffset:0"
       id="path3043"
       d="m 79.631155,932.52676 c 0.121488,-1.17795 0.649415,-2.23206 1.24486,-3.23482 1.5295,-2.35679 2.86882,-2.74145 5.517422,-4.26267 1.121919,-0.47567 1.89474,-0.22956 2.879628,0.40208 1.203735,0.91641 2.242369,2.02432 3.392015,3.0081 0.909611,0.7059 0.447081,0.35859 1.387912,1.04149 0,0 -2.809612,1.78297 -2.809612,1.78297 l 0,0 c -0.95331,-0.69373 -0.483325,-0.34078 -1.410137,-1.05863 -1.139426,-0.97387 -2.18008,-2.0712 -3.412245,-2.928 -1.010691,-0.55832 -1.625798,-0.62628 -2.680911,-0.11464 4.710068,-2.78234 2.380624,-1.54525 1.498949,-0.73867 -0.488,0.44644 -0.91548,0.95241 -1.279575,1.50445 -0.586703,0.93129 -1.117036,1.90791 -1.234778,3.02211 0,0 -3.093528,1.57623 -3.093528,1.57623 z"
       inkscape:connector-curvature="0" />
    <path
       style="fill:#1a1a1a;stroke-width:1.89999998;stroke-miterlimit:4;stroke-dasharray:7.6, 7.6;stroke-dashoffset:0"
       id="path3045"
       d="m 50.163147,951.79072 c 1.355551,-0.096 2.711069,-0.19272 4.066469,-0.29413 2.69558,-0.12617 5.383166,-0.3595 8.072849,-0.571 3.734756,-0.31223 7.478254,-0.51276 11.222662,-0.66431 3.966813,-0.15289 7.935811,-0.1852 11.904615,-0.12397 3.515367,0.0423 7.027717,0.21624 10.535544,0.44257 3.201718,0.2317 6.410334,0.32653 9.619294,0.37552 3.03648,0.0518 6.07269,-0.0649 9.10452,-0.22154 2.38206,-0.18174 4.76678,-0.32038 7.14839,-0.50722 1.50445,-0.1208 3.01222,-0.19112 4.52048,-0.24106 0.62422,-0.052 1.22385,-0.0319 1.83283,0.1036 0,0 -2.85727,1.98547 -2.85727,1.98547 l 0,0 c -0.56965,-0.11606 -1.14781,-0.0863 -1.72655,-0.0803 -1.47559,0.021 -2.95023,0.0816 -4.42217,0.18958 -2.36167,0.16286 -4.7255,0.28992 -7.08725,0.45203 -3.02394,0.13658 -6.05157,0.23275 -9.07893,0.17726 -3.209506,-0.057 -6.418866,-0.1444 -9.620285,-0.39393 -3.489515,-0.233 -6.983767,-0.4095 -10.481081,-0.46269 -3.959721,-0.0658 -7.919745,-0.0383 -11.877238,0.12639 -3.764226,0.1674 -7.528016,0.37915 -11.280724,0.72262 -2.727968,0.23716 -5.454516,0.48392 -8.18766,0.65506 -1.39837,0.12117 -2.798502,0.23122 -4.191457,0.40536 0,0 2.782962,-2.0753 2.782962,-2.0753 z"
       inkscape:connector-curvature="0" />
    <path
       style="fill:#1a1a1a;stroke-width:1.89999998;stroke-miterlimit:4;stroke-dasharray:7.6, 7.6;stroke-dashoffset:0"
       id="path3047"
       d="m 118.95922,944.55868 c 1.23453,0.25039 2.43593,0.62099 3.62026,1.04522 1.35195,0.47649 2.65324,1.1084 3.83551,1.91989 0.75411,0.50702 1.3328,1.13948 1.67227,1.98189 0.27891,0.8007 -0.0484,1.4603 -0.52198,2.09904 -0.69751,0.78454 -1.42993,1.53582 -2.21603,2.23161 -0.13369,0.10668 -0.26739,0.21336 -0.40108,0.32003 0,0 -3.16608,1.26369 -3.16608,1.26369 l 0,0 c 0.1364,-0.10121 0.2728,-0.20243 0.4092,-0.30364 0.7982,-0.66474 1.51595,-1.40729 2.22216,-2.1676 0.45038,-0.50536 0.87009,-1.05763 0.65661,-1.76547 -0.27902,-0.79229 -0.82599,-1.35921 -1.51204,-1.83602 -1.15738,-0.79708 -2.42566,-1.41494 -3.75745,-1.86505 -1.18004,-0.41012 -2.39754,-0.79481 -3.65022,-0.88283 0,0 2.80887,-2.04076 2.80887,-2.04076 z"
       inkscape:connector-curvature="0" />
  </g>
</svg>
