<?xml version="1.0" encoding="UTF-8" standalone="no"?>
<!-- Created with Inkscape (http://www.inkscape.org/) -->

<svg
   xmlns:dc="http://purl.org/dc/elements/1.1/"
   xmlns:cc="http://creativecommons.org/ns#"
   xmlns:rdf="http://www.w3.org/1999/02/22-rdf-syntax-ns#"
   xmlns:svg="http://www.w3.org/2000/svg"
   xmlns="http://www.w3.org/2000/svg"
   xmlns:sodipodi="http://sodipodi.sourceforge.net/DTD/sodipodi-0.dtd"
   xmlns:inkscape="http://www.inkscape.org/namespaces/inkscape"
   width="160"
   height="137.9472"
   id="svg2"
   version="1.1"
   inkscape:version="0.48.3.1 r9886"
   inkscape:export-filename="integral.png"
   inkscape:export-xdpi="150"
   inkscape:export-ydpi="150"
   sodipodi:docname="lineintegral.svg">
  <defs
     id="defs4" />
  <sodipodi:namedview
     id="base"
     pagecolor="#9fffa7"
     bordercolor="#666666"
     borderopacity="1.0"
     inkscape:pageopacity="0"
     inkscape:pageshadow="2"
     inkscape:zoom="4.3306007"
     inkscape:cx="62.766558"
     inkscape:cy="69.969899"
     inkscape:document-units="px"
     inkscape:current-layer="layer1"
     showgrid="false"
     inkscape:window-width="1231"
     inkscape:window-height="776"
     inkscape:window-x="49"
     inkscape:window-y="24"
     inkscape:window-maximized="1"
     fit-margin-top="0"
     fit-margin-left="0"
     fit-margin-right="0"
     fit-margin-bottom="0"
     showguides="true"
     inkscape:guide-bbox="true">
    <sodipodi:guide
       orientation="0,1"
       position="82.898431,73.661837"
       id="guide3866" />
    <sodipodi:guide
       orientation="0,1"
       position="34.868142,17.318614"
       id="guide3868" />
  </sodipodi:namedview>
  <metadata
     id="metadata7">
    <rdf:RDF>
      <cc:Work
         rdf:about="">
        <dc:format>image/svg+xml</dc:format>
        <dc:type
           rdf:resource="http://purl.org/dc/dcmitype/StillImage" />
        <dc:title></dc:title>
      </cc:Work>
    </rdf:RDF>
  </metadata>
  <g
     inkscape:label="Layer 1"
     inkscape:groupmode="layer"
     id="layer1"
     transform="translate(-9.8125,-911.39343)">
    <path
       style="fill:#000080;fill-opacity:1;stroke:#050101;stroke-width:0;stroke-miterlimit:4;stroke-opacity:1;stroke-dasharray:none"
       id="path3808"
       d="m 44.640854,919.75176 c -0.549521,-0.32336 -0.97489,-0.80476 -1.527715,-1.12157 -0.211395,-0.11625 -0.504211,-0.22669 -0.661331,0.004 -1.556986,0.98778 -3.401287,1.87379 4.158814,-2.37119 0.08652,-0.0486 -0.156052,0.12301 -0.228221,0.19111 -0.208374,0.1966 -0.252243,0.27716 -0.429622,0.5127 -0.572827,0.78443 -0.976754,1.67204 -1.344006,2.56634 -0.469988,1.16102 -0.806281,2.36325 -1.101309,3.57806 -0.344477,1.35526 -0.473391,2.7476 -0.547078,4.13969 -0.161592,1.78625 -0.331965,3.56997 -0.33366,5.36463 0.01636,2.08502 0.204778,4.15991 0.373655,6.23609 0.139769,2.10026 0.573994,4.15281 1.011777,6.2052 0.39027,2.08472 1.124574,4.05849 1.904711,6.02082 0.934226,2.13422 1.511148,4.39202 2.144664,6.62673 0.665858,2.42357 1.507814,4.79927 2.380448,7.15546 0.941402,2.42772 1.879422,4.85709 2.845335,7.27508 1.017427,2.52805 2.029677,5.05694 2.904346,7.63851 0.801464,2.59823 1.644301,5.17774 2.577426,7.7318 0.72836,2.21522 1.698925,4.33299 2.635558,6.46433 0.892406,1.85711 1.59806,3.78179 2.215499,5.7443 0.600969,2.10925 1.041681,4.25995 1.367034,6.42765 0.38367,2.1232 0.52898,4.2736 0.71297,6.4194 0.135219,1.8792 0.129972,3.7631 -0.0091,5.641 -0.112578,1.5295 -0.661101,2.9507 -1.31993,4.3176 -0.653912,1.3863 -1.505662,2.6603 -2.409353,3.8934 -0.999417,1.3254 -2.14204,2.4973 -3.459667,3.503 -2.835959,1.9146 -5.65596,3.9078 -9.09891,4.11 -2.104642,0.081 -3.226279,-0.6168 -4.722547,-2.0039 -2.027866,-2.0256 -2.865731,-4.419 -3.513066,-7.1456 -0.471888,-2.0673 -0.679773,-4.1785 -0.945873,-6.2781 0,0 4.610468,-2.4188 4.610468,-2.4188 l 0,0 c 0.234971,2.086 0.426345,4.1826 0.90456,6.2316 0.635445,2.6215 1.454072,4.9074 3.457304,6.8101 1.483051,1.2743 2.521815,1.7705 4.513413,1.6174 0.8016,-0.1001 1.553316,-0.24 2.310914,-0.5341 0.238405,-0.093 0.918335,-0.4469 0.700632,-0.3127 -2.268075,1.3982 -5.529757,3.1774 -3.192631,1.8964 1.344122,-0.9442 2.513683,-2.045 3.510323,-3.357 0.933818,-1.1806 1.771089,-2.446 2.440334,-3.7956 0.670238,-1.312 1.264875,-2.6654 1.432717,-4.1464 0.166085,-1.8566 0.19628,-3.7177 0.08865,-5.5801 -0.195383,-2.136 -0.295194,-4.2836 -0.688796,-6.3974 -0.309766,-2.1416 -0.749373,-4.263 -1.339979,-6.3457 -0.619456,-1.9422 -1.307188,-3.85444 -2.179652,-5.70036 -0.933247,-2.14705 -1.889431,-4.28555 -2.614452,-6.51511 -0.920484,-2.56377 -1.759925,-5.14986 -2.557557,-7.75438 -0.878803,-2.56964 -1.899879,-5.08402 -2.905973,-7.60583 -0.972916,-2.4193 -1.923606,-4.84785 -2.860356,-7.2814 -0.886731,-2.36447 -1.728294,-4.75303 -2.419188,-7.18237 -0.62913,-2.21582 -1.203508,-4.45436 -2.138825,-6.56724 -0.798709,-1.98617 -1.557563,-3.98421 -1.948621,-6.09921 -0.444632,-2.07297 -0.909847,-4.13982 -1.048795,-6.26308 -0.171146,-2.08664 -0.362646,-4.17025 -0.40004,-6.26533 -0.03622,-1.79365 0.103038,-3.5799 0.269883,-5.36516 0.05334,-1.42041 0.158982,-2.83923 0.490791,-4.22659 0.293143,-1.22603 0.575906,-2.45166 1.045177,-3.6268 0.325993,-0.93192 0.740271,-1.83115 1.250917,-2.67696 0.131025,-0.19483 0.245387,-0.40088 0.382516,-0.59146 1.24458,-1.72977 3.437724,-2.6921 5.477158,-3.25715 0.333889,0.0718 0.640732,0.15831 0.911028,0.38096 0.509522,0.3643 0.939547,0.83652 1.511835,1.11036 0,0 -4.5946,2.97279 -4.5946,2.97279 z"
       inkscape:connector-curvature="0" />
    <path
       style="fill:#000080;fill-opacity:1;stroke:#050101;stroke-width:0;stroke-miterlimit:4;stroke-opacity:1;stroke-dasharray:none"
       id="path3810"
       d="m 48.325904,958.69614 c -1.082855,-0.11528 -2.048556,0.10701 -2.997282,0.61753 8.052103,-4.37302 4.548249,-2.9515 3.216418,-1.62814 -0.622225,0.61827 -1.145379,1.33254 -1.676606,2.02691 -1.562752,1.97858 -2.679472,4.22099 -3.618426,6.54626 -1.099053,2.84566 -1.466647,5.82914 -1.512857,8.8563 0.09798,2.56995 0.651743,5.12137 2.059813,7.3083 0.271054,0.42099 0.597108,0.8039 0.895661,1.20585 2.042088,2.44331 4.371808,3.64792 7.347842,4.6003 2.81415,0.75616 5.602403,0.71987 8.448697,0.21276 1.741551,-0.35205 3.416899,-0.97373 4.990212,-1.79624 0.377304,-0.19725 1.484948,-0.83368 1.110961,-0.63021 -1.155904,0.62888 -2.304553,1.271 -3.45683,1.9065 2.148225,-1.43643 3.645807,-3.48664 4.984213,-5.65122 1.322351,-2.23676 2.292393,-4.65418 2.953541,-7.16171 0.412605,-1.90974 0.675227,-3.89527 0.224356,-5.82648 -0.08396,-0.35962 -0.22235,-0.70431 -0.333525,-1.05646 -0.742244,-1.83709 -2.152767,-3.23642 -3.928548,-4.09688 -0.418607,-0.20284 -0.858372,-0.35875 -1.287558,-0.53812 -3.367032,-1.04221 -6.909158,-1.30733 -10.408889,-1.51554 -2.277744,-0.10762 -4.586317,-0.1548 -6.84935,0.1889 -1.25015,0.18987 -1.514224,0.31673 -2.699349,0.67971 -0.386016,0.18184 -0.772032,0.36368 -1.158048,0.54552 0,0 4.118637,-3.25983 4.118637,-3.25983 l 0,0 c 0.396674,-0.16027 0.793347,-0.32054 1.190021,-0.48082 0.435262,-0.11461 0.86544,-0.25064 1.305786,-0.34383 2.708322,-0.57316 5.514263,-0.43744 8.258043,-0.31631 3.560719,0.23752 7.170922,0.4992 10.586689,1.60522 0.447521,0.19245 0.907368,0.35845 1.342565,0.57735 1.876999,0.94409 3.363232,2.46203 4.159071,4.41193 0.122489,0.37586 0.27302,0.7437 0.367468,1.12757 0.490677,1.99425 0.265319,4.04472 -0.145404,6.02832 -0.622777,2.55878 -1.606371,5.01708 -2.90451,7.3113 -1.317122,2.20461 -2.74599,4.34463 -4.879263,5.85144 -3.771968,2.2587 -7.32178,4.81376 -11.719777,5.58012 -2.869467,0.41817 -5.777244,0.41388 -8.580353,-0.42697 -3.082449,-1.05756 -5.397789,-2.31647 -7.508738,-4.87685 -0.309676,-0.42162 -0.646892,-0.82434 -0.929027,-1.26487 -1.449823,-2.26375 -2.046052,-4.89115 -2.177912,-7.54864 0.01339,-3.07159 0.328067,-6.10438 1.395337,-9.01033 0.897196,-2.34498 1.94915,-4.62603 3.478202,-6.63666 0.630613,-0.87174 1.256287,-1.82302 2.028773,-2.58056 1.536059,-1.50635 4.708891,-1.22412 5.550747,-3.29336 1.027846,-0.40538 2.076432,-0.49864 3.177564,-0.45819 0,0 -4.418365,3.21013 -4.418365,3.21013 z"
       inkscape:connector-curvature="0" />
    <path
       style="fill:#000080;fill-opacity:1;stroke:#050101;stroke-width:0;stroke-miterlimit:4;stroke-opacity:1;stroke-dasharray:none"
       id="path3812"
       d="m 72.752224,1032.8352 c 0.235645,-1.1721 0.307747,-2.3647 0.236393,-3.556 -0.0598,-0.3029 -0.09977,-1.2477 -0.604917,-1.2759 -0.174151,-0.01 -0.453365,0.2604 -0.545531,0.3337 7.826612,-4.4262 4.365549,-2.9034 3.117516,-1.3063 -0.685492,0.8772 -1.111152,1.8754 -1.551429,2.8874 -0.840761,2.1908 -1.573469,4.4685 -1.634948,6.8363 -0.01202,0.4629 0.03136,0.9255 0.04704,1.3882 0.271487,1.723 0.698361,3.8888 2.397347,4.8076 0.269295,0.1457 0.578334,0.2012 0.867502,0.3018 1.033772,0.2049 2.011969,0 2.965494,-0.421 0.349097,-0.1554 1.342978,-0.7296 1.009893,-0.5424 -3.993191,2.2447 -4.469582,2.6628 -2.431125,1.1625 0.997679,-0.7416 1.86377,-1.6267 2.717829,-2.5233 0,0 4.860587,-2.0327 4.860587,-2.0327 l 0,0 c -0.846824,0.9243 -1.701497,1.8432 -2.698461,2.6118 -2.58097,2.0231 -1.261605,1.0601 -6.572457,4.0763 -1.318084,0.7485 -2.801055,1.022 -4.271062,0.6258 -0.315701,-0.1453 -0.654405,-0.2485 -0.947103,-0.4359 -1.750403,-1.1206 -2.247782,-3.337 -2.54278,-5.2405 -0.02227,-0.482 -0.07238,-0.9636 -0.06682,-1.446 0.0277,-2.4008 0.718091,-4.7228 1.518135,-6.9641 1.803859,-4.6007 2.366664,-4.2874 7.49845,-7.1398 0.15318,-0.016 0.306771,-0.067 0.45954,-0.048 0.877902,0.1119 1.103176,1.1589 1.204815,1.8633 0.07392,1.2158 0.0092,2.4231 -0.119691,3.6344 0,0 -4.914222,2.4026 -4.914222,2.4026 z"
       inkscape:connector-curvature="0" />
    <path
       style="fill:#000080;fill-opacity:1;stroke:#050101;stroke-width:0;stroke-miterlimit:4;stroke-opacity:1;stroke-dasharray:none"
       id="path3814"
       d="m 130.60741,985.43177 c 0.0528,0.4944 -0.11096,1.05128 0.0208,1.53822 -7.86612,3.78373 -4.99531,3.82539 -4.72683,1.59459 0.0867,-0.7207 0.0341,-1.44398 -0.011,-2.16475 -0.16584,-1.94694 -0.83709,-3.63412 -2.01559,-5.17758 -0.90287,-0.94684 -2.17586,-1.59169 -3.49439,-1.12899 -0.27644,0.097 -0.5262,0.25775 -0.78929,0.38662 1.24587,-0.68969 2.44879,-1.46344 3.73762,-2.06908 0.34856,-0.16379 -0.61476,0.46676 -0.89345,0.73257 -0.31873,0.30401 -0.61617,0.63124 -0.89439,0.97271 -1.03066,1.26492 -1.77049,2.6787 -2.50567,4.12462 -1.21303,2.60504 -1.99306,5.40959 -1.93826,8.30225 0.01,0.50094 0.0768,0.99912 0.11519,1.49868 0.33865,1.70829 1.14291,4.05668 3.21402,4.27652 0.33199,0.0352 0.66516,-0.0582 0.99774,-0.0874 0.34892,-0.14338 1.36859,-0.62688 1.04674,-0.43013 -1.08562,0.66367 -2.14584,1.41525 -3.34663,1.8361 -0.50929,0.1785 0.83429,-0.68956 1.20209,-1.08448 1.47003,-1.5784 2.34082,-3.44481 3.24768,-5.37192 1.32523,-3.36431 2.06151,-6.92681 2.35968,-10.52548 0.19761,-2.38499 0.13052,-3.42183 0.1044,-5.80895 -0.16417,-4.79626 -0.83814,-9.55219 -1.8425,-14.23929 -0.3136,-1.31495 -0.67947,-2.61668 -1.05319,-3.91556 -0.15565,-0.54095 -0.28311,-1.05211 -0.58284,-1.52951 0.59543,2.01767 -0.19661,-0.31961 4.73873,-2.2308 0.2183,-0.0845 0.0199,0.468 0.0419,0.70106 0.13874,1.46777 0.36927,2.92613 0.59578,4.38196 0.82018,5.23782 1.73945,10.461 2.7518,15.66505 0.65676,3.19821 1.43002,6.38214 2.69261,9.40227 0.61526,1.47171 0.8214,1.77095 1.55939,3.12182 0.25999,0.37246 0.51999,0.74492 0.77999,1.11739 0,0 -4.51235,2.64386 -4.51235,2.64386 l 0,0 c -0.25269,-0.39722 -0.50538,-0.79444 -0.75806,-1.19165 -0.7273,-1.42928 -0.89737,-1.6813 -1.50154,-3.23142 -1.20178,-3.08339 -1.94829,-6.31055 -2.59251,-9.54919 -1.00258,-5.18572 -1.9504,-10.38186 -2.95288,-15.56762 -0.28197,-1.42955 -0.54587,-2.8617 -0.81976,-4.29273 -0.0457,-0.23885 -0.31972,-0.55632 -0.13683,-0.71661 1.41722,-1.24209 3.02814,-2.25353 4.63991,-3.23 0.10316,-0.0625 0.15245,0.18696 0.22867,0.28044 0.67698,1.84409 0.88041,3.83561 1.39993,5.72427 0.90288,4.7611 1.51496,9.5786 1.68894,14.42514 0.0332,2.33842 0.10094,3.52344 -0.07,5.86108 -0.26433,3.61462 -0.94699,7.20278 -2.18426,10.61337 -0.30805,0.70756 -0.58575,1.42912 -0.92415,2.12268 -2.04564,4.19259 -5.29581,6.9971 -10.08682,8.1382 -0.37132,-0.023 -0.75214,0.016 -1.11396,-0.07 -2.18106,-0.5226 -3.04386,-2.90581 -3.42509,-4.84237 -0.0409,-0.51987 -0.11138,-1.03826 -0.12268,-1.55961 -0.064,-2.95103 0.6706,-5.8259 1.86154,-8.50859 0.88217,-1.84822 1.80612,-3.71246 3.20651,-5.23599 1.69213,-1.84091 4.08613,-2.69205 6.23914,-3.95121 0.29531,-0.0956 0.58086,-0.22951 0.88593,-0.2868 1.48728,-0.27932 2.83734,0.54366 3.79039,1.60625 1.18579,1.60985 1.9449,3.43226 2.17177,5.43251 0.0939,0.90015 0.16784,1.7879 0.1011,2.69112 -0.008,0.11355 0.08,0.28484 -0.019,0.34104 -1.62203,0.92069 -3.3343,1.67244 -5.00144,2.50866 0.10701,-0.50455 -0.0133,-1.05 0.0208,-1.55941 0,0 4.87457,-2.48372 4.87457,-2.48372 z"
       inkscape:connector-curvature="0" />
    <path
       style="fill:#000080;fill-opacity:1;stroke:#050101;stroke-width:0;stroke-miterlimit:4;stroke-opacity:1;stroke-dasharray:none"
       id="path3816"
       d="m 140.14934,988.62392 c -7.61981,4.61433 -4.13046,2.54203 -2.66857,1.02741 0.97751,-1.01277 1.77986,-2.13842 2.58403,-3.28849 1.47301,-2.12412 2.48738,-4.46666 3.0786,-6.97296 0.12463,-0.69377 0.16861,-0.78133 0.19305,-1.43542 0.0119,-0.31731 -0.0981,-1.26084 -0.10413,-0.89424 1.59305,-0.83976 3.16154,-1.72785 4.77914,-2.51929 0.061,-0.0299 -0.0447,0.13238 -0.0391,0.20013 0.0117,0.14266 0.0473,0.28326 0.09,0.4199 0.24271,0.77768 0.67,1.44201 1.10032,2.12542 1.50038,2.11104 3.35158,3.94447 5.14622,5.80279 1.54702,1.61318 3.18114,3.13754 4.77046,4.70841 0.51444,0.67451 1.3872,1.22376 1.58934,2.08744 -5.22814,3.34141 -3.52861,3.24642 -7.5098,2.55453 -1.41298,-0.29262 -2.82412,-0.59316 -4.23998,-0.8722 -0.17666,-0.0295 -0.35332,-0.059 -0.52998,-0.0884 0,0 4.43613,-3.10068 4.43613,-3.10068 l 0,0 c 0.17545,0.0357 0.3509,0.0713 0.52636,0.10697 1.39729,0.31239 2.79739,0.60639 4.20521,0.86828 0.64248,0.10142 1.29247,0.22634 1.94557,0.23091 0.13505,9.5e-4 0.27193,-2.2e-4 0.40426,-0.0272 0.0949,-0.0194 0.35005,-0.16272 0.26875,-0.11015 -1.47862,0.95606 -2.97642,1.88211 -4.46462,2.82316 0.0394,0.0136 0.0912,0.0726 0.11822,0.0409 0.0384,-0.0451 -0.12133,-0.25426 -0.21562,-0.38517 -0.3369,-0.46774 -0.70136,-0.91521 -1.09093,-1.34019 -1.54339,-1.60728 -3.14654,-3.15429 -4.68003,-4.77119 -1.81434,-1.89281 -3.69498,-3.74197 -5.27068,-5.84393 -0.48216,-0.71456 -0.93522,-1.4118 -1.26986,-2.20957 -0.13725,-0.3272 -0.29828,-0.84649 -0.26235,-0.87009 1.5574,-1.02303 3.2372,-1.84633 4.85579,-2.76949 0.56797,0.84021 0.16813,2.05746 0.0389,2.96773 -0.62344,2.56631 -1.61043,4.99346 -3.0975,7.19223 -0.77157,1.15751 -1.5426,2.29848 -2.46533,3.3437 -0.0885,0.10026 -1.13739,1.22039 -1.34911,1.35419 -1.68521,1.06496 -3.42645,2.03856 -5.13968,3.05784 0,0 4.26699,-3.41319 4.26699,-3.41319 z"
       inkscape:connector-curvature="0" />
  </g>
</svg>
