<?xml version="1.0" encoding="UTF-8" standalone="no"?>
<!-- Created with Inkscape (http://www.inkscape.org/) -->

<svg
   xmlns:dc="http://purl.org/dc/elements/1.1/"
   xmlns:cc="http://creativecommons.org/ns#"
   xmlns:rdf="http://www.w3.org/1999/02/22-rdf-syntax-ns#"
   xmlns:svg="http://www.w3.org/2000/svg"
   xmlns="http://www.w3.org/2000/svg"
   xmlns:sodipodi="http://sodipodi.sourceforge.net/DTD/sodipodi-0.dtd"
   xmlns:inkscape="http://www.inkscape.org/namespaces/inkscape"
   width="160"
   height="123.95"
   id="svg2"
   version="1.1"
   inkscape:version="0.48.3.1 r9886"
   inkscape:export-filename="integral.png"
   inkscape:export-xdpi="150"
   inkscape:export-ydpi="150"
   sodipodi:docname="geom.svg">
  <defs
     id="defs4" />
  <sodipodi:namedview
     id="base"
     pagecolor="#9fffa7"
     bordercolor="#666666"
     borderopacity="1.0"
     inkscape:pageopacity="0"
     inkscape:pageshadow="2"
     inkscape:zoom="4.8164584"
     inkscape:cx="80"
     inkscape:cy="61.974998"
     inkscape:document-units="px"
     inkscape:current-layer="layer1"
     showgrid="false"
     inkscape:window-width="1231"
     inkscape:window-height="776"
     inkscape:window-x="49"
     inkscape:window-y="24"
     inkscape:window-maximized="1"
     fit-margin-top="0"
     fit-margin-left="0"
     fit-margin-right="0"
     fit-margin-bottom="0"
     showguides="true"
     inkscape:guide-bbox="true">
    <sodipodi:guide
       orientation="0,1"
       position="109.62412,63.532159"
       id="guide4800" />
  </sodipodi:namedview>
  <metadata
     id="metadata7">
    <rdf:RDF>
      <cc:Work
         rdf:about="">
        <dc:format>image/svg+xml</dc:format>
        <dc:type
           rdf:resource="http://purl.org/dc/dcmitype/StillImage" />
        <dc:title></dc:title>
      </cc:Work>
    </rdf:RDF>
  </metadata>
  <g
     inkscape:label="Layer 1"
     inkscape:groupmode="layer"
     id="layer1"
     transform="translate(-6.6292965,-907.95565)">
    <path
       style="fill:#333333;fill-opacity:1;stroke:#050101;stroke-width:1.10000002;stroke-miterlimit:0.30000001;stroke-opacity:1;stroke-dasharray:none"
       id="path4858"
       d="m 8.0437485,5.0436426 c 0.1893184,0.9879598 0.4688732,1.9554189 0.7265665,2.9269573 0.4421506,1.6161773 0.8060589,3.2519541 1.2116848,4.8772651 0.5391382,2.091516 1.1233692,4.170322 1.6527792,6.264486 0.641224,2.722448 1.29563,5.440978 2.024263,8.141519 0.736656,2.828672 1.662979,5.600296 2.619877,8.360263 1.013936,2.867697 2.137561,5.695871 3.286828,8.511614 1.167255,2.776134 2.439505,5.505291 3.797172,8.192866 1.332033,2.601612 2.722611,5.173157 4.153304,7.721771 1.403102,2.591226 3.133068,4.96791 5.015495,7.226213 1.927345,2.249682 4.148887,4.209024 6.506065,5.992328 1.991564,1.424122 4.084792,2.744604 6.352421,3.687551 0.445688,0.185331 0.903044,0.341254 1.354566,0.511881 2.369144,0.770888 4.869154,1.135284 7.357088,0.865543 0.532482,-0.05773 1.057935,-0.168094 1.586902,-0.252141 1.357249,-0.368322 1.871261,-0.457021 3.176534,-1.019428 0.537467,-0.231581 1.039412,-0.539994 1.575317,-0.775168 0.269792,-0.118394 -1.001294,0.613373 -0.775455,0.42416 0.481998,-0.403831 1.045834,-0.699346 1.550936,-1.073877 0.530501,-0.393366 1.036212,-0.819108 1.554318,-1.228662 2.944489,-2.530582 5.452834,-5.515158 7.716098,-8.658763 0.514053,-0.714003 1.004386,-1.444787 1.506579,-2.167181 2.055598,-3.059172 3.904955,-6.251795 5.524157,-9.562614 1.063889,-2.175359 1.411158,-3.034499 2.384251,-5.259556 2.324863,-5.490181 4.233035,-11.143839 6.153604,-16.784449 1.382136,-4.093381 2.781146,-8.181076 4.182988,-12.267748 0,0 2.373754,-1.11072 2.373754,-1.11072 l 0,0 c -1.456489,4.101793 -2.908719,8.205355 -4.311438,12.325904 -1.927678,5.640616 -3.83714,11.295551 -6.135897,16.798583 -0.983049,2.271838 -1.288537,3.043796 -2.362902,5.265708 -1.602481,3.314116 -3.433684,6.510902 -5.471526,9.576854 -2.677327,3.907856 -5.462985,7.716723 -9.062684,10.842016 -0.509907,0.412315 -1.007752,0.840009 -1.529719,1.236944 -1.865906,1.418946 -3.123402,2.081284 -5.435483,3.349261 -1.510445,0.828349 -3.148491,1.383199 -4.827138,1.748871 -0.537177,0.07862 -1.071146,0.183673 -1.611531,0.23587 -2.521678,0.243574 -5.052879,-0.141255 -7.444209,-0.946342 C 43.964743,78.845533 43.504247,78.684251 43.055601,78.493756 40.778426,77.526868 38.678978,76.18821 36.673478,74.752188 34.308147,72.94565 32.069872,70.975182 30.130739,68.707965 28.237242,66.430163 26.51096,64.043524 25.090411,61.437042 23.657444,58.885031 22.259292,56.312387 20.931579,53.703939 19.5766,51.006385 18.303842,48.269045 17.139649,45.483187 15.981588,42.666649 14.854189,39.835441 13.828,36.967884 12.867381,34.202305 11.935923,31.425499 11.198951,28.590121 10.471696,25.89315 9.7927448,23.184027 9.127626,20.471115 8.572342,18.388333 7.9722416,16.318282 7.4210874,14.234485 6.9988461,12.620121 6.6282977,10.992168 6.1614972,9.3894843 5.8875209,8.4318745 5.600795,7.4778822 5.3433638,6.5156063 c 0,0 2.7003847,-1.4719637 2.7003847,-1.4719637 z"
       inkscape:connector-curvature="0"
       transform="translate(6.6292965,907.95565)" />
    <path
       style="fill:#333333;fill-opacity:1;stroke:#050101;stroke-width:1.10000002;stroke-miterlimit:0.30000001;stroke-opacity:1;stroke-dasharray:none"
       id="path4860"
       d="m 10.349031,8.0541597 c 0.843688,1.2752391 1.855781,2.4230883 2.858212,3.5733623 2.155685,2.375435 4.642379,4.421437 7.083192,6.492848 2.851509,2.34374 5.663289,4.765096 8.777303,6.762366 0.686802,0.440502 1.398907,0.840249 2.09836,1.260373 3.953749,2.191355 8.258162,3.688107 12.67862,4.608354 0.957895,0.199413 1.926316,0.344415 2.889474,0.516623 4.074662,0.566052 8.209656,0.635894 12.302232,0.217737 2.681741,-0.274006 3.618336,-0.505983 6.269859,-1.001149 3.072883,-0.61933 6.03803,-1.627464 8.997696,-2.636556 0,0 -1.94123,1.509472 -1.94123,1.509472 l 0,0 c -2.959687,0.992305 -5.924715,1.984235 -8.994652,2.590252 -2.672929,0.491407 -3.592495,0.718106 -6.29547,0.985898 C 52.955806,33.341606 48.7984,33.258637 44.70101,32.691153 43.730103,32.518501 42.75388,32.373461 41.788291,32.173196 37.330484,31.248639 32.991448,29.736614 28.994555,27.548455 28.287873,27.126866 27.568606,26.72569 26.87451,26.283687 23.737954,24.286313 20.894136,21.873733 17.999221,19.552419 15.509469,17.49563 12.979336,15.461678 10.756691,13.110915 9.7108544,11.976634 8.6845474,10.826444 7.7050937,9.6343919 c 0,0 2.6439373,-1.5802322 2.6439373,-1.5802322 z"
       inkscape:connector-curvature="0"
       transform="translate(6.6292965,907.95565)" />
    <path
       style="fill:#333333;fill-opacity:1;stroke:#050101;stroke-width:1.10000002;stroke-miterlimit:0.30000001;stroke-opacity:1;stroke-dasharray:none"
       id="path4862"
       d="m 14.894276,31.379641 c 0.478882,1.221855 1.365036,2.216499 2.24861,3.160726 2.187194,2.240134 4.871092,3.858134 7.569511,5.397958 3.152302,1.753181 6.517793,3.093342 10.002116,4.022457 0.795393,0.212096 1.600816,0.384612 2.401224,0.576918 5.257987,1.140278 10.637798,1.501172 16.001752,1.678671 4.638083,0.08774 9.289772,-0.135916 13.879049,-0.835847 0.884309,-0.13487 1.762661,-0.306264 2.643991,-0.459396 0,0 -2.028041,1.526691 -2.028041,1.526691 l 0,0 c -0.881387,0.148843 -1.759894,0.315879 -2.644162,0.44653 -4.593388,0.678672 -9.246728,0.882223 -13.885408,0.789944 C 45.689397,47.505051 40.279875,47.149612 34.992028,46.005805 34.183835,45.81365 33.37082,45.640752 32.56745,45.42934 29.043599,44.502017 25.635853,43.170119 22.43976,41.417121 19.687953,39.875802 16.952171,38.260724 14.677652,36.044355 13.730821,35.08456 12.80697,34.081802 12.195851,32.865782 c 0,0 2.698425,-1.486141 2.698425,-1.486141 z"
       inkscape:connector-curvature="0"
       transform="translate(6.6292965,907.95565)" />
    <path
       style="fill:#333333;fill-opacity:1;stroke:#050101;stroke-width:1.10000002;stroke-miterlimit:0.30000001;stroke-opacity:1;stroke-dasharray:none"
       id="path4864"
       d="m 24.259667,51.862283 c 0.601707,0.945465 1.224212,1.87565 1.910868,2.76191 1.375393,1.752195 3.028885,3.233931 4.747337,4.637282 2.190908,1.69804 4.51344,3.237247 7.004269,4.461868 0.585205,0.287718 1.185018,0.544718 1.777528,0.817076 3.469419,1.495319 7.128415,2.514013 10.851946,3.137055 0.86248,0.144316 1.731139,0.248895 2.596709,0.373342 4.829714,0.572952 9.703532,0.727257 14.562511,0.555313 1.0494,-0.03713 2.097587,-0.102995 3.146381,-0.154492 4.200505,-0.344771 2.10198,-0.149606 6.29557,-0.585543 0,0 -1.955181,1.451486 -1.955181,1.451486 l 0,0 c -4.198819,0.430508 -2.097321,0.238541 -6.304493,0.575907 -1.053596,0.05222 -2.106575,0.118894 -3.160788,0.156661 -4.892827,0.175283 -9.801374,0.03528 -14.666293,-0.530794 -0.875627,-0.122303 -1.75428,-0.224604 -2.626879,-0.366909 -3.766785,-0.614294 -7.468212,-1.630269 -10.982897,-3.124475 -0.601297,-0.272355 -1.209916,-0.52909 -1.80389,-0.817066 -2.524714,-1.224057 -4.887248,-2.760024 -7.121659,-4.450928 -1.762723,-1.39776 -3.459405,-2.878956 -4.889686,-4.625929 -0.705554,-0.875175 -1.337137,-1.804472 -2.02529,-2.691532 0,0 2.643937,-1.580232 2.643937,-1.580232 z"
       inkscape:connector-curvature="0"
       transform="translate(6.6292965,907.95565)" />
    <path
       style="fill:#333333;fill-opacity:1;stroke:#050101;stroke-width:1.10000002;stroke-miterlimit:0.30000001;stroke-opacity:1;stroke-dasharray:none"
       id="path4866"
       d="m 32.076688,25.080132 c -0.245113,1.638046 -0.177588,3.295519 -0.08403,4.942021 0.166641,3.145899 0.710639,6.245101 1.348858,9.323986 0.798622,3.356827 1.707545,6.697788 2.953557,9.919714 0.261861,0.677118 0.551547,1.343145 0.827321,2.014718 1.492074,3.339597 3.332864,6.537169 5.644988,9.380851 0.462765,0.569155 0.963934,1.105978 1.4459,1.658967 1.470534,1.578296 3.104559,2.997034 4.879568,4.223547 0.577422,0.398993 1.183306,0.755138 1.77496,1.132707 0,0 -2.238457,1.438464 -2.238457,1.438464 l 0,0 c -0.592942,-0.384278 -1.199955,-0.74767 -1.778824,-1.152835 -1.780836,-1.246454 -3.426246,-2.67792 -4.897779,-4.278135 -0.484736,-0.558286 -0.988547,-1.100566 -1.454208,-1.674859 -2.322191,-2.863925 -4.182608,-6.076178 -5.684614,-9.436213 -0.279829,-0.673636 -0.574393,-1.341338 -0.839488,-2.020908 -1.257797,-3.224363 -2.177193,-6.570945 -3.028824,-9.921018 -0.675013,-3.067272 -1.266075,-6.154088 -1.494915,-9.291897 -0.12996,-1.630085 -0.221113,-3.262377 -0.121118,-4.897469 0,0 2.747101,-1.361641 2.747101,-1.361641 z"
       inkscape:connector-curvature="0"
       transform="translate(6.6292965,907.95565)" />
    <path
       style="fill:#333333;fill-opacity:1;stroke:#050101;stroke-width:1.10000002;stroke-miterlimit:0.30000001;stroke-opacity:1;stroke-dasharray:none"
       id="path4868"
       d="m 49.746609,30.410975 c 0.0523,1.41923 0.312636,2.828224 0.550245,4.226348 0.469776,3.080003 1.127652,6.120105 1.915153,9.132975 0.99117,3.784589 2.716769,7.217756 4.56319,10.639947 1.367278,2.467702 2.867734,4.872576 4.602282,7.10139 1.096188,1.40855 1.560858,1.871635 2.754805,3.188342 0.487379,0.480589 0.974758,0.961177 1.462138,1.441766 0,0 -2.277822,1.397181 -2.277822,1.397181 l 0,0 C 62.828957,67.052735 62.341314,66.566546 61.853671,66.080357 60.660288,64.752548 60.193013,64.280447 59.0938,62.86385 57.355002,60.622996 55.83909,58.214188 54.453358,55.742549 53.772492,54.494111 53.184381,53.449199 52.559989,52.172476 51.443542,49.889629 50.505241,47.517429 49.817661,45.069782 49.006022,42.072491 48.30381,39.050117 47.751382,35.993459 47.473763,34.604028 47.20587,33.210736 47.00498,31.807904 c 0,0 2.741629,-1.396929 2.741629,-1.396929 z"
       inkscape:connector-curvature="0"
       transform="translate(6.6292965,907.95565)" />
    <path
       style="fill:#333333;fill-opacity:1;stroke:#050101;stroke-width:1.10000002;stroke-miterlimit:0.30000001;stroke-opacity:1;stroke-dasharray:none"
       id="path4870"
       d="m 48.114686,65.46148 c 0.227817,1.036847 0.755253,1.956889 1.270995,2.871961 0.947991,1.578297 1.897175,3.155802 2.922065,4.685597 1.220488,1.835317 2.511247,3.621752 3.921069,5.316173 0.955704,1.008055 0.472596,0.516851 1.448479,1.474441 0,0 -2.467769,1.513772 -2.467769,1.513772 l 0,0 c -0.975961,-0.976857 -0.492205,-0.47502 -1.450207,-1.50653 -1.408419,-1.707967 -2.702382,-3.502545 -3.942402,-5.336102 -1.042441,-1.527454 -2.016216,-3.099273 -2.994806,-4.668144 -0.54055,-0.925137 -1.090171,-1.848544 -1.407809,-2.879204 0,0 2.700385,-1.471964 2.700385,-1.471964 z"
       inkscape:connector-curvature="0"
       transform="translate(6.6292965,907.95565)" />
    <path
       style="fill:#ac9393;fill-opacity:1;stroke:#050101;stroke-width:1.10000001999999997;stroke-miterlimit:0.30000000999999998;stroke-opacity:1;stroke-dasharray:none"
       id="path4872"
       d="m 63.892935,29.71867 c 0.224192,1.304644 0.47994,2.601457 0.784305,3.889777 0.486854,1.934097 1.099914,3.861589 2.091184,5.603394 0.216449,0.380333 0.465646,0.74107 0.69847,1.111604 1.288358,1.836112 2.92462,3.426718 4.844399,4.597878 0.384725,0.234701 0.791543,0.431107 1.187314,0.646661 0.410051,0.188145 0.820103,0.376289 1.230154,0.564434 0,0 -2.352902,1.558091 -2.352902,1.558091 l 0,0 c -0.413495,-0.193692 -0.82699,-0.387384 -1.240485,-0.581075 -0.400695,-0.223226 -0.812537,-0.427522 -1.202084,-0.669677 -1.940847,-1.206491 -3.602367,-2.825231 -4.911708,-4.691948 -0.237888,-0.376862 -0.491323,-0.744347 -0.713664,-1.130586 -1.009045,-1.752853 -1.651895,-3.685477 -2.185109,-5.627172 -0.3333,-1.256517 -0.61363,-2.524338 -0.9283,-3.78524 0,0 2.698426,-1.486141 2.698426,-1.486141 z"
       inkscape:connector-curvature="0"
       transform="translate(6.6292965,907.95565)" />
    <path
       style="fill:#ac9393;fill-opacity:1;stroke:#050101;stroke-width:1.10000002;stroke-miterlimit:0.30000001;stroke-opacity:1;stroke-dasharray:none"
       id="path4874"
       d="M 9.8520339,8.8326526 C 10.056748,7.8500731 10.799281,7.1476913 11.491099,6.4766357 c 2.150236,-1.6838045 4.57197,-3.0819969 7.149721,-4.0009152 0.442242,-0.1576507 0.893312,-0.2893453 1.339968,-0.4340179 3.222881,-1.05608898 6.478866,-1.40805593 9.841915,-1.62916094 4.411823,-0.25768606 8.825884,0.0227787 13.223771,0.36672535 3.406285,0.30692899 6.810533,0.70905249 10.17416,1.33707239 2.30535,0.4304298 2.822421,0.5845975 5.093215,1.1289692 3.849786,1.03825 7.598077,2.5076666 10.963846,4.6688498 0.602189,0.3866698 1.173724,0.8191175 1.760586,1.2286763 1.544188,1.1556023 2.978004,2.4493223 4.261823,3.8892683 0.375916,0.421631 0.722792,0.868281 1.084188,1.302422 0,0 -2.361373,1.415208 -2.361373,1.415208 l 0,0 c -0.35011,-0.433626 -0.684244,-0.880652 -1.05033,-1.300878 -1.251293,-1.436344 -2.661912,-2.72347 -4.174804,-3.879054 C 68.220538,10.16211 67.659132,9.7310104 67.066044,9.3467284 63.739175,7.1911351 60.021984,5.7314538 56.20798,4.7008134 55.373014,4.5003396 54.541668,4.2841354 53.703081,4.099392 49.501741,3.1738235 45.221492,2.6472042 40.938337,2.2868371 36.511917,1.9662263 32.069169,1.7159341 27.633274,2.0268239 24.263464,2.2784133 20.979646,2.6687044 17.761469,3.7658605 16.588937,4.1675439 16.303337,4.234121 15.191987,4.7332964 14.827764,4.8968914 13.805149,5.5102608 14.116031,5.2597129 14.583976,4.8825841 15.138195,4.6251503 15.671058,4.3472012 16.19028,4.0763675 13.801104,5.4798886 14.228485,5.3499303 13.586896,5.9544685 12.84416,6.5880755 12.620751,7.4790411 c 0,0 -2.7687171,1.3536115 -2.7687171,1.3536115 z"
       inkscape:connector-curvature="0"
       transform="translate(6.6292965,907.95565)" />
    <path
       style="fill:#ac9393;fill-opacity:1;stroke:#050101;stroke-width:1.10000002;stroke-miterlimit:0.30000001;stroke-opacity:1;stroke-dasharray:none"
       id="path4876"
       d="m 20.066464,10.468135 c 1.305605,-0.217606 2.626233,-0.336122 3.94459,-0.447548 2.862923,-0.2434673 5.736111,-0.024188 8.58651,0.262217 3.862815,0.402748 7.646419,1.273063 11.392861,2.268292 2.590575,0.742668 5.154941,1.599061 7.623807,2.684828 1.636142,0.719549 1.913851,0.898264 3.484807,1.720158 1.565752,0.811658 2.98493,1.845885 4.386861,2.904868 0,0 -2.335005,1.474299 -2.335005,1.474299 l 0,0 c -1.37542,-1.058419 -2.767389,-2.093745 -4.314114,-2.896977 -0.560608,-0.294838 -1.113988,-0.603848 -1.681822,-0.884516 -2.994752,-1.480235 -6.162456,-2.579385 -9.373423,-3.483608 -3.754207,-0.991698 -7.551273,-1.832293 -11.425401,-2.191023 -2.879701,-0.257146 -5.781494,-0.439708 -8.666344,-0.138227 -1.368082,0.143931 -2.739137,0.294014 -4.086375,0.579655 0,0 2.463048,-1.852418 2.463048,-1.852418 z"
       inkscape:connector-curvature="0"
       transform="translate(6.6292965,907.95565)" />
    <path
       style="fill:#000000;fill-opacity:1;stroke:#050101;stroke-width:1.10000001999999997;stroke-miterlimit:0.30000000999999998;stroke-opacity:1;stroke-dasharray:none"
       id="path4878"
       d="m 36.676179,19.603478 c 1.259099,-0.233299 2.554546,-0.133531 3.823031,-0.04242 2.378351,0.241617 4.700444,0.808946 6.996841,1.452445 1.595524,0.473945 3.127422,1.12788 4.639024,1.817563 0,0 -2.381068,1.578722 -2.381068,1.578722 l 0,0 c -1.497346,-0.684361 -3.015397,-1.331701 -4.600242,-1.78953 -2.301605,-0.632279 -4.631503,-1.181773 -7.018838,-1.36275 -1.30917,-0.06141 -2.637054,-0.113375 -3.921796,0.198391 0,0 2.463048,-1.852418 2.463048,-1.852418 z"
       inkscape:connector-curvature="0"
       transform="translate(6.6292965,907.95565)" />
    <path
       style="fill:#000000;fill-opacity:1;stroke:#050101;stroke-width:1.10000002;stroke-miterlimit:0.30000001;stroke-opacity:1;stroke-dasharray:none"
       id="path4880"
       d="m 13.865573,89.666447 c 0.236665,0.345029 0.399252,0.863818 0.814832,1.030246 0.977159,-0.584836 -0.834968,0.502136 -2.381475,1.275896 -0.07993,0.03999 0.13747,-0.117212 0.188804,-0.190372 0.259771,-0.370221 0.378086,-0.84812 0.508529,-1.271644 0.200632,-0.751113 0.374942,-1.533864 0.352062,-2.317397 -0.01211,-0.414712 -0.07005,-0.577594 -0.162091,-0.974552 -0.409606,-0.935728 -0.959144,-1.283173 -1.957181,-1.376612 -0.385989,0.02879 -0.483663,0.0076 -0.85211,0.1513 -0.138055,0.05384 -0.5255642,0.273802 -0.396627,0.200773 0.72493,-0.410595 1.435732,-0.849275 2.184952,-1.213667 0.153021,-0.07442 -0.264859,0.215005 -0.383137,0.337334 -0.125908,0.130222 -0.231468,0.278684 -0.347202,0.418025 -0.899595,1.306283 -1.025593,2.908296 -1.1118,4.445564 -0.07862,2.203281 0.449182,4.340178 1.134281,6.414745 0.715608,2.121895 1.804495,4.084474 2.827934,6.067334 0.768128,1.56381 1.537942,3.15266 2.026525,4.83135 0.09477,0.32564 0.167116,0.65738 0.250675,0.98607 0.418089,1.71659 0.482474,3.46047 0.249541,5.20455 0,0 -2.657028,1.30393 -2.657028,1.30393 l 0,0 c 0.298084,-1.75914 0.255003,-3.38215 -0.14149,-5.12984 -0.07983,-0.32321 -0.148623,-0.64935 -0.239499,-0.96963 -0.473354,-1.66828 -1.234206,-3.24482 -1.994071,-4.79659 -1.019134,-2.00165 -2.106149,-3.98131 -2.8359077,-6.11313 -0.7033994,-2.097384 -1.2483538,-4.261076 -1.2162026,-6.49058 0.048103,-1.563249 0.1382331,-3.191571 0.9540764,-4.571343 1.0099667,-1.417827 1.6530649,-1.468989 3.6656359,-2.595426 0.40628,-0.227394 0.900319,-0.24259 1.349746,-0.219912 1.110633,0.216547 1.675664,0.639566 2.13589,1.689099 0.102757,0.431305 0.164245,0.600711 0.183274,1.052414 0.03374,0.800824 -0.129048,1.604444 -0.313402,2.378026 -0.377143,1.521804 -1.278709,3.881809 -3.605346,3.145409 -0.40005,-0.301168 -0.615072,-0.753239 -0.899751,-1.155264 0,0 2.667563,-1.546106 2.667563,-1.546106 z"
       inkscape:connector-curvature="0"
       transform="translate(6.6292965,907.95565)" />
    <path
       style="fill:#000000;fill-opacity:1;stroke:#050101;stroke-width:1.10000002;stroke-miterlimit:0.30000001;stroke-opacity:1;stroke-dasharray:none"
       id="path4882"
       d="m 6.3987939,105.93273 c 2.0341497,-1.28565 4.1772711,-2.37707 6.3169331,-3.47066 1.833672,-0.93378 3.645748,-1.90127 5.527239,-2.737049 0,0 -2.287229,1.813089 -2.287229,1.813089 l 0,0 c -1.87167,0.8383 -3.675816,1.8067 -5.502342,2.73742 -0.5729968,0.29489 -1.1480839,0.58575 -1.7189445,0.88475 -0.2421116,0.12681 -0.9558843,0.52971 -0.7232778,0.38621 3.6363673,-2.2434 2.1049923,-1.20623 1.2520408,-0.73452 0,0 -2.8644196,1.12076 -2.8644196,1.12076 z"
       inkscape:connector-curvature="0"
       transform="translate(6.6292965,907.95565)" />
    <path
       style="fill:#000000;fill-opacity:1;stroke:#050101;stroke-width:1.10000002;stroke-miterlimit:0.30000001;stroke-opacity:1;stroke-dasharray:none"
       id="path4884"
       d="m 26.854347,95.024959 c -0.756909,1.035745 -1.302479,2.213455 -1.865628,3.36132 -0.804673,1.692251 -1.475043,3.463191 -1.814574,5.312011 -0.06784,0.36937 -0.107355,0.74339 -0.161032,1.11509 -0.17191,1.68645 -0.04272,3.41107 0.624376,4.98685 0.116263,0.27464 0.270186,0.53175 0.405279,0.79763 0.577978,0.97624 1.322994,1.84309 2.241144,2.51483 0.549722,0.4022 0.773325,0.4901 1.374562,0.8039 0.246726,0.10546 0.493453,0.21091 0.74018,0.31637 0,0 -2.446994,1.62852 -2.446994,1.62852 l 0,0 c -0.25134,-0.11167 -0.50268,-0.22335 -0.754019,-0.33502 -0.240481,-0.13096 -0.487692,-0.25025 -0.721441,-0.39288 -1.243188,-0.75858 -2.235093,-1.83986 -2.968832,-3.09113 -0.139055,-0.27849 -0.296875,-0.54837 -0.417166,-0.83546 -0.67928,-1.6212 -0.816978,-3.39217 -0.652479,-5.12641 0.05193,-0.37884 0.08962,-0.75991 0.155782,-1.13652 0.326167,-1.8567 0.973253,-3.64077 1.746346,-5.353888 0.529269,-1.133523 1.054611,-2.271387 1.681994,-3.35506 0,0 2.832502,-1.210153 2.832502,-1.210153 z"
       inkscape:connector-curvature="0"
       transform="translate(6.6292965,907.95565)" />
    <path
       style="fill:#000000;fill-opacity:1;stroke:#050101;stroke-width:1.10000002;stroke-miterlimit:0.30000001;stroke-opacity:1;stroke-dasharray:none"
       id="path4886"
       d="m 34.868397,101.09269 c 0.857378,1.0966 1.943896,1.9823 3.027739,2.84348 1.59214,1.24363 3.272662,2.36878 5.007068,3.40293 0,0 -2.449611,1.58291 -2.449611,1.58291 l 0,0 c -1.723767,-1.06846 -3.402662,-2.20942 -5.017489,-3.43708 -1.125334,-0.86889 -2.228251,-1.77048 -3.202047,-2.81059 0,0 2.63434,-1.58165 2.63434,-1.58165 z"
       inkscape:connector-curvature="0"
       transform="translate(6.6292965,907.95565)" />
    <path
       style="fill:#000000;fill-opacity:1;stroke:#050101;stroke-width:1.10000002;stroke-miterlimit:0.30000001;stroke-opacity:1;stroke-dasharray:none"
       id="path4888"
       d="m 43.607873,100.67218 c -1.129156,0.79177 -2.070171,1.81189 -3.018956,2.80353 -1.440097,1.56978 -2.792477,3.21535 -4.106008,4.89142 -0.777866,1.02252 -0.403634,0.51923 -1.124223,1.50872 0,0 -2.680371,1.15872 -2.680371,1.15872 l 0,0 c 0.73896,-1.00379 0.357103,-0.49395 1.146712,-1.52864 1.311365,-1.6756 2.665231,-3.31659 4.077266,-4.90872 0.909341,-0.97148 1.802152,-1.97307 2.851688,-2.79776 0,0 2.853892,-1.12727 2.853892,-1.12727 z"
       inkscape:connector-curvature="0"
       transform="translate(6.6292965,907.95565)" />
    <path
       style="fill:#000000;fill-opacity:1;stroke:#050101;stroke-width:1.10000002;stroke-miterlimit:0.30000001;stroke-opacity:1;stroke-dasharray:none"
       id="path4890"
       d="m 50.545655,109.7611 c -0.413295,1.24274 -0.801575,2.49272 -1.130331,3.76055 -0.05499,0.25363 -0.109973,0.50726 -0.16496,0.76089 0,0 -2.652519,1.28166 -2.652519,1.28166 l 0,0 c 0.0547,-0.25768 0.109411,-0.51537 0.164116,-0.77305 0.312045,-1.24343 0.690748,-2.4684 1.005604,-3.71059 0,0 2.77809,-1.31946 2.77809,-1.31946 z"
       inkscape:connector-curvature="0"
       transform="translate(6.6292965,907.95565)" />
    <path
       style="fill:#000000;fill-opacity:1;stroke:#050101;stroke-width:1.10000002;stroke-miterlimit:0.30000001;stroke-opacity:1;stroke-dasharray:none"
       id="path4892"
       d="m 51.60862,106.35149 c 0.305293,-1.02888 0.613056,-2.05697 0.971379,-3.06879 0.565471,-1.59864 1.109228,-1.58682 3.304686,-2.4446 0.08885,-0.0347 0.30097,0.37739 0.44294,0.62838 0.391747,0.94505 0.838311,1.86626 1.546346,2.61375 0.275873,0.23804 0.561255,0.47621 0.943807,0.49013 0.766088,0.0279 3.845681,-1.97523 -1.727327,1.13453 0.569739,-0.35231 0.932962,-0.91128 1.309019,-1.44643 2.496881,-2.76263 2.940193,-1.9855 3.893138,-0.19839 0.903529,1.83674 1.625251,3.75588 2.315856,5.6806 0.876653,2.51581 1.509722,5.09817 1.999984,7.71371 0.196467,1.51203 0.440194,3.12217 -0.01154,4.61701 -0.05819,0.19255 -0.149017,0.37369 -0.223526,0.56054 -0.09276,0.14317 -0.169216,0.29833 -0.278273,0.42951 -0.10092,0.1214 -0.210891,0.24225 -0.346867,0.32245 -0.988156,0.58279 -1.975893,1.17347 -3.014756,1.66015 -0.340051,0.1593 -1.440605,-0.20477 -1.769246,-0.30767 -1.539535,-0.60838 -2.901599,-1.54477 -4.166244,-2.59791 -0.800343,-0.76958 -1.671016,-1.68378 -1.726482,-2.86517 -0.0098,-0.20859 0.03213,-0.4164 0.0482,-0.6246 0.0737,-0.21229 0.147391,-0.42459 0.221087,-0.63688 0,0 2.700115,-1.25197 2.700115,-1.25197 l 0,0 c -0.08167,0.18738 -0.163338,0.37475 -0.245007,0.56213 -0.02733,0.18479 -0.07986,0.36759 -0.08198,0.55438 -0.01261,1.10987 0.842356,1.98606 1.575977,2.70354 1.242472,1.03279 2.58489,1.94993 4.127205,2.47561 0.459962,0.11572 0.726278,0.21879 1.200876,0.20495 0.164291,-0.005 0.618534,-0.17703 0.48674,-0.0788 -0.675813,0.5036 -1.434125,0.88584 -2.15522,1.32214 -0.131212,0.0794 0.270874,-0.14929 0.385389,-0.2513 0.123839,-0.11032 0.214841,-0.25272 0.322262,-0.37907 0.08931,-0.17477 0.197114,-0.34126 0.267922,-0.52431 0.55751,-1.44121 0.317666,-3.06755 0.166434,-4.55544 -0.44745,-2.60948 -1.068307,-5.18109 -1.966719,-7.67565 -0.707953,-1.896 -1.451902,-3.78605 -2.423161,-5.56568 -0.163521,-0.27481 -0.338849,-0.59302 -0.537589,-0.84976 -0.05496,-0.071 -0.112905,-0.14199 -0.184308,-0.19642 -0.03335,-0.0254 -0.15616,-0.0138 -0.120566,-0.036 2.200422,-1.37157 3.480215,-1.77549 2.360698,-1.41075 -0.467503,0.47901 -0.73013,1.15151 -1.293832,1.55111 -0.727352,0.41239 -2.619632,2.24363 -3.958845,1.5495 -0.296248,-0.15355 -0.420844,-0.29526 -0.66825,-0.51769 -0.691733,-0.78272 -1.15977,-1.70858 -1.597005,-2.65229 -0.05971,-0.0904 -0.107119,-0.19034 -0.179137,-0.27133 -0.03229,-0.0363 -0.08436,-0.0483 -0.126532,-0.0724 0.828815,-0.49291 1.65763,-0.98583 2.486445,-1.47874 0.06609,-0.0399 -0.152645,0.0485 -0.207599,0.10268 -0.17992,0.17753 -0.297071,0.54008 -0.384152,0.7494 -0.373169,0.97921 -0.67672,1.9843 -0.913308,3.00541 0,0 -2.769033,1.32648 -2.769033,1.32648 z"
       inkscape:connector-curvature="0"
       transform="translate(6.6292965,907.95565)" />
    <path
       style="fill:#000000;fill-opacity:1;stroke:#050101;stroke-width:1.10000002;stroke-miterlimit:0.30000001;stroke-opacity:1;stroke-dasharray:none"
       id="path4894"
       d="m 67.454687,95.682355 c 1.456832,0.317683 2.755475,1.080516 4.015656,1.845369 1.679456,1.118417 3.180711,2.517006 4.245154,4.244606 0.211616,0.34345 0.38634,0.70831 0.579511,1.06247 0.814455,1.79707 1.073048,3.77512 0.750978,5.72339 -0.06371,0.38539 -0.170283,0.76245 -0.255424,1.14367 -0.283439,1.12965 -0.800958,2.15521 -1.347858,3.17288 0,0 -2.623086,1.1738 -2.623086,1.1738 l 0,0 c 0.563417,-0.99201 1.092882,-1.99278 1.388748,-3.10472 0.09059,-0.37174 0.203207,-0.7388 0.271779,-1.11523 0.344167,-1.88934 0.106007,-3.81597 -0.663629,-5.57119 -0.187631,-0.34577 -0.357248,-0.70194 -0.562893,-1.0373 -1.042029,-1.69934 -2.528433,-3.06277 -4.202156,-4.124584 -1.282044,-0.732945 -2.617202,-1.473732 -4.11123,-1.640266 0,0 2.51445,-1.772895 2.51445,-1.772895 z"
       inkscape:connector-curvature="0"
       transform="translate(6.6292965,907.95565)" />
    <path
       style="fill:#000000;fill-opacity:1;stroke:#050101;stroke-width:1.10000002;stroke-miterlimit:0.30000001;stroke-opacity:1;stroke-dasharray:none"
       id="path4896"
       d="m 81.045175,105.177 c -0.404965,0.0569 -0.817557,0.144 -1.192414,0.31271 0.853988,-0.62498 1.687408,-1.27907 2.561963,-1.87492 0.06863,-0.0468 0.164098,-0.0256 0.246159,-0.0383 0.144599,-0.0224 0.289405,-0.0435 0.433822,-0.0671 0.756913,-0.12348 1.512296,-0.25646 2.269068,-0.38092 2.415141,-0.4008 4.851446,-0.65189 7.292378,-0.82662 1.54098,-0.0516 0.786567,-0.0346 2.263191,-0.0531 0,0 -2.331678,1.69744 -2.331678,1.69744 l 0,0 c -1.449246,0.009 -0.708026,-0.005 -2.223604,0.0462 -2.454754,0.17663 -4.904797,0.43826 -7.326178,0.88802 -0.785069,0.14416 -1.568577,0.29578 -2.353205,0.44218 -1.625864,0.30338 -1.179682,0.27422 1.617417,-1.74061 0.403361,-0.0769 0.796787,-0.20833 1.206129,-0.2574 0,0 -2.463048,1.85241 -2.463048,1.85241 z"
       inkscape:connector-curvature="0"
       transform="translate(6.6292965,907.95565)" />
    <path
       style="fill:#000000;fill-opacity:1;stroke:#050101;stroke-width:1.10000002;stroke-miterlimit:0.30000001;stroke-opacity:1;stroke-dasharray:none"
       id="path4898"
       d="m 91.362479,98.836297 c 1.42991,0.376094 2.853615,0.774482 4.276293,1.177103 1.433716,0.47111 2.925357,0.86815 4.251417,1.61097 0.200511,0.11232 0.387971,0.2465 0.581961,0.36975 0.55387,0.4449 1.3212,1.04243 1.17796,1.85916 -0.0222,0.12672 -0.0827,0.24366 -0.12401,0.36549 -0.24728,0.43175 -0.61718,0.72794 -1.04812,0.9668 -2.753313,1.52607 -2.391224,1.51982 -4.473115,2.07088 -1.340898,0.34852 -2.670845,0.72792 -3.981716,1.17639 0,0 2.321585,-1.80427 2.321585,-1.80427 l 0,0 c 1.322754,-0.43431 2.662521,-0.80689 4.005164,-1.17455 0.234768,-0.0678 0.471265,-0.12978 0.704305,-0.20326 0.214603,-0.0677 0.819395,-0.35343 0.638189,-0.22002 -0.63376,0.46657 -1.349191,0.81089 -2.013632,1.23263 -0.124575,0.0791 0.439921,-0.18514 0.819873,-0.50869 0.09593,-0.0817 0.176615,-0.17973 0.264922,-0.2696 0.104802,-0.18316 0.221161,-0.32432 0.220501,-0.54694 -0.0017,-0.58114 -0.631407,-1.00729 -1.010713,-1.33809 -1.457042,-0.94722 -3.07274,-1.45557 -4.729323,-1.94448 -1.458544,-0.40181 -2.921825,-0.79298 -4.408975,-1.07595 0,0 2.527434,-1.743323 2.527434,-1.743323 z"
       inkscape:connector-curvature="0"
       transform="translate(6.6292965,907.95565)" />
    <path
       style="fill:#000000;fill-opacity:1;stroke:#050101;stroke-width:1.10000002;stroke-miterlimit:0.30000001;stroke-opacity:1;stroke-dasharray:none"
       id="path4908"
       d="m 106.66193,96.514628 c 0.34353,2.248321 0.71401,4.492182 1.0917,6.735002 0.38572,2.47307 0.92458,4.91834 1.57033,7.33554 0.1411,0.52964 0.27632,1.05985 0.45081,1.57949 0,0 -2.66852,1.45042 -2.66852,1.45042 l 0,0 c -0.1175,-0.54746 -0.22642,-1.09669 -0.34972,-1.64291 -0.55135,-2.4581 -1.07942,-4.92237 -1.46997,-7.41219 -0.38724,-2.212 -0.75937,-4.43451 -1.32102,-6.609815 0,0 2.69639,-1.435537 2.69639,-1.435537 z"
       inkscape:connector-curvature="0"
       transform="translate(6.6292965,907.95565)" />
    <path
       style="fill:#000000;fill-opacity:1;stroke:#050101;stroke-width:1.10000002;stroke-miterlimit:0.30000001;stroke-opacity:1;stroke-dasharray:none"
       id="path4910"
       d="m 104.8471,93.77735 c 1.12099,1.299365 2.1455,2.676164 3.26091,3.98189 1.25498,1.385262 2.68327,2.6792 4.43803,3.39295 0.26995,0.10981 0.55373,0.18197 0.83059,0.27295 0.55533,0.0788 0.92392,0.18162 1.48122,0.0736 0.20906,-0.0405 0.78223,-0.32842 0.60101,-0.2166 -0.65943,0.40692 -1.32475,0.81896 -2.04406,1.10707 -0.20304,0.0813 0.32949,-0.29325 0.45661,-0.47124 0.14128,-0.19782 0.22701,-0.42993 0.34052,-0.6449 0.58339,-1.804547 0.36208,-3.694907 -0.008,-5.516638 -0.13773,-0.555156 -0.25188,-1.134625 -0.51351,-1.65005 -0.0344,-0.06781 -0.0571,-0.162724 -0.12867,-0.188404 -0.0446,-0.01598 -0.0435,0.16208 -6.8e-4,0.142 0.89018,-0.417016 1.7424,-0.910698 2.6136,-1.366047 0.0111,0.151448 0.013,0.303856 0.0333,0.454344 0.12647,0.935975 0.36777,1.864366 0.5882,2.780694 0.10257,0.426362 0.20872,0.851852 0.31308,1.277779 0.10943,0.458544 0.21886,0.917088 0.32829,1.375632 0.66744,2.77268 1.33545,5.54578 2.11058,8.29064 0.26704,1.02574 0.61867,2.0236 0.99241,3.01397 0,0 -2.5498,1.41192 -2.5498,1.41192 l 0,0 c -0.34551,-1.01278 -0.68029,-2.02945 -0.9374,-3.06926 -0.73789,-2.75972 -1.38228,-5.54312 -2.08947,-8.310769 -0.49463,-1.952596 -1.06338,-3.886155 -1.52636,-5.846384 0.8784,-0.609354 1.72099,-1.273888 2.6352,-1.828061 0.0486,-0.02944 0.17881,0.186019 0.25954,0.393827 0.21737,0.559514 0.33523,1.154085 0.45379,1.739822 0.34387,1.872676 0.5886,3.79531 0.11321,5.670165 -0.0975,0.23742 -0.16635,0.4887 -0.29242,0.71225 -0.68603,1.21654 -2.58127,1.85785 -3.50541,2.33828 -0.19317,0.10042 -0.42039,0.12351 -0.63719,0.14354 -0.60026,0.0555 -0.92172,-0.0587 -1.51137,-0.17938 -0.2775,-0.10512 -0.56214,-0.19302 -0.83249,-0.31537 -1.74791,-0.79099 -3.17769,-2.11571 -4.46046,-3.512742 -0.71833,-0.821723 -0.82921,-0.940189 -1.51979,-1.762231 -0.60034,-0.714637 -1.1753,-1.468247 -1.89859,-2.066109 0,0 2.60523,-1.629158 2.60523,-1.629158 z"
       inkscape:connector-curvature="0"
       transform="translate(6.6292965,907.95565)" />
    <path
       style="fill:#000000;fill-opacity:1;stroke:#050101;stroke-width:1.10000002;stroke-miterlimit:0.30000001;stroke-opacity:1;stroke-dasharray:none"
       id="path4912"
       d="m 128.04912,97.880987 c 0.14894,1.824706 -0.28922,3.636853 -0.67793,5.406483 -0.45131,1.92834 -0.87679,3.86322 -1.23634,5.81091 -0.25203,1.32669 0.22815,0.80142 -2.82626,1.5915 -0.15937,0.0412 0.0801,-0.31934 0.11881,-0.47933 0.21678,-0.89583 0.16071,-0.66908 0.37489,-1.67002 0.56565,-2.68658 1.0851,-5.38231 1.66722,-8.06548 0.24731,-1.081462 0.47039,-2.170165 0.77323,-3.238171 0.1519,-0.535687 0.30508,-1.016917 0.6127,-1.47854 0.96245,-0.490381 1.86573,-1.120289 2.88734,-1.471143 0.15427,-0.05298 0.22992,0.234007 0.3211,0.369255 0.11857,0.175866 0.21442,0.366699 0.30453,0.558706 0.43939,0.936159 0.71906,1.945738 1.02783,2.928897 0.74554,2.533936 1.52444,5.053116 2.55319,7.487746 0.62859,1.43382 1.38892,2.80026 2.3339,4.04806 0,0 -2.54832,1.5065 -2.54832,1.5065 l 0,0 c -0.90297,-1.30426 -1.65922,-2.69668 -2.27091,-4.16203 -1.00634,-2.44984 -1.77403,-4.97948 -2.56954,-7.503687 -0.32691,-0.948027 -0.62714,-1.924819 -1.11049,-2.809462 -0.0893,-0.163508 -0.18559,-0.325304 -0.30448,-0.468757 -0.0596,-0.0719 -0.29795,-0.11185 -0.22376,-0.168566 0.7496,-0.573079 1.60163,-0.998041 2.40244,-1.497061 -0.0864,0.07486 -0.19068,0.133066 -0.25918,0.224585 -0.23343,0.311863 -0.4134,0.842537 -0.52751,1.185779 -0.35527,1.068718 -0.59985,2.170597 -0.86376,3.263896 -0.60772,2.656993 -1.12118,5.332543 -1.58801,8.017813 -0.19407,1.14095 -0.10698,0.63191 -0.27831,1.62944 -0.0245,0.14293 0.0467,0.34792 -0.0737,0.42878 -0.88041,0.59126 -1.86206,1.016 -2.80381,1.50367 -0.1383,0.0716 0.98771,-0.90142 0.17735,-0.43227 0.49079,-1.94988 0.91041,-3.917 1.36959,-5.87437 0.35871,-1.69103 0.77803,-3.44614 0.5374,-5.182625 0,0 2.70075,-1.460508 2.70075,-1.460508 z"
       inkscape:connector-curvature="0"
       transform="translate(6.6292965,907.95565)" />
    <path
       style="fill:#000000;fill-opacity:1;stroke:#050101;stroke-width:1.10000002;stroke-miterlimit:0.30000001;stroke-opacity:1;stroke-dasharray:none"
       id="path4914"
       d="m 123.7721,107.32494 c -0.24812,-0.083 -0.6948,-0.19497 -0.72879,-0.52481 -0.01,-0.0945 -0.0331,-0.22751 0.0452,-0.28129 0.92168,-0.63332 1.91774,-1.15092 2.87661,-1.72638 1.68244,-0.50235 3.45112,-0.57445 5.19279,-0.66876 0,0 -2.30246,1.69429 -2.30246,1.69429 l 0,0 c -1.7678,0.11924 -3.60582,0.19577 -5.26197,0.88459 0.77018,-0.47311 1.55123,-0.92896 2.31055,-1.41931 0.0444,-0.0287 -0.10738,0.008 -0.1562,0.0281 -0.0568,0.0237 0.0692,0.10924 0.12428,0.13664 0.13384,0.0665 0.30777,0.10756 0.44925,0.14733 0,0 -2.54923,1.72962 -2.54923,1.72962 z"
       inkscape:connector-curvature="0"
       transform="translate(6.6292965,907.95565)" />
    <path
       style="fill:#000000;fill-opacity:1;stroke:#050101;stroke-width:1.10000002;stroke-miterlimit:0.30000001;stroke-opacity:1;stroke-dasharray:none"
       id="path4916"
       d="m 138.91697,94.30834 c 0.90545,0.605788 1.65903,1.399734 2.42371,2.16694 1.83175,1.837802 0.11741,0.11942 2.07386,2.079744 2.21751,2.290496 4.60192,4.407306 6.93935,6.572256 1.21197,1.13499 0.61829,0.5857 1.78003,1.64895 0,0 -2.44061,1.50655 -2.44061,1.50655 l 0,0 c -1.13122,-1.08517 -0.55277,-0.52606 -1.73467,-1.67807 -2.29674,-2.20674 -4.65904,-4.34439 -6.91499,-6.59379 -0.84953,-0.817257 -1.2878,-1.246542 -2.13807,-2.036042 -0.77822,-0.722602 -1.5637,-1.49233 -2.5344,-1.952973 0,0 2.54579,-1.713565 2.54579,-1.713565 z"
       inkscape:connector-curvature="0"
       transform="translate(6.6292965,907.95565)" />
    <path
       style="fill:#000000;fill-opacity:1;stroke:#050101;stroke-width:1.10000002;stroke-miterlimit:0.30000001;stroke-opacity:1;stroke-dasharray:none"
       id="path4918"
       d="m 152.0302,92.342271 c -1.3924,1.568357 -2.51675,3.359104 -3.69418,5.089382 -2.55306,3.790977 -5.11967,7.572837 -7.56577,11.434047 -1.0988,1.67274 -2.02668,3.44262 -2.92768,5.22602 0,0 -2.48877,1.12268 -2.48877,1.12268 l 0,0 c 0.94302,-1.80507 1.90678,-3.6 3.03373,-5.29981 2.43123,-3.82286 4.96299,-7.57986 7.42858,-11.380537 1.10239,-1.68553 2.17044,-3.396341 3.37166,-5.014409 0,0 2.84243,-1.177373 2.84243,-1.177373 z"
       inkscape:connector-curvature="0"
       transform="translate(6.6292965,907.95565)" />
    <path
       style="fill:#000000;fill-opacity:1;stroke:#050101;stroke-width:1.10000002;stroke-miterlimit:0.30000001;stroke-opacity:1;stroke-dasharray:none"
       id="path4920"
       d="m 98.259406,69.316755 c -0.191658,-0.524643 -0.247754,-1.103978 -0.475358,-1.615268 0.913188,-0.475027 1.786409,-1.03642 2.739562,-1.425081 0.0895,-0.03648 0.0375,0.189606 0.0596,0.28367 0.0359,0.15296 0.0727,0.305775 0.11439,0.457276 0.21342,0.776367 0.44327,1.549232 0.66267,2.323989 0.62745,2.237112 0.98632,4.534148 1.24139,6.839663 0.14906,1.340156 0.20985,2.687194 0.28817,4.032555 0.005,0.06582 0.0101,0.13164 0.0152,0.197459 0,0 -2.73501,1.396076 -2.73501,1.396076 l 0,0 c 0.004,-0.06959 0.008,-0.139175 0.0122,-0.208762 0.036,-1.362823 -0.0234,-2.726879 -0.12865,-4.085607 -0.222306,-2.288916 -0.563817,-4.572625 -1.246961,-6.775052 -0.241645,-0.762387 -0.4847,-1.521242 -0.752948,-2.274583 -0.05254,-0.147549 -0.104028,-0.295469 -0.155849,-0.443271 -0.02755,-0.07857 -0.150895,-0.188713 -0.08226,-0.235854 0.85362,-0.586306 1.793054,-1.03665 2.68958,-1.554976 0.0439,0.549098 0.28053,1.085105 0.45267,1.601625 0,0 -2.698424,1.486141 -2.698424,1.486141 z"
       inkscape:connector-curvature="0"
       transform="translate(6.6292965,907.95565)" />
    <path
       style="fill:#000000;fill-opacity:1;stroke:#050101;stroke-width:1.10000002;stroke-miterlimit:0.30000001;stroke-opacity:1;stroke-dasharray:none"
       id="path4922"
       d="m 97.844133,68.98809 c -0.06202,-0.874452 -0.305127,-1.757594 -0.181481,-2.63593 0.928664,-0.524328 1.802667,-1.160181 2.785998,-1.572983 0.12313,-0.05169 0.19517,0.183218 0.28118,0.285378 0.25421,0.30196 0.47948,0.679383 0.69661,1.001954 0.55447,0.823763 0.40438,0.600878 1.03341,1.424471 1.0294,1.235282 2.17482,2.447291 3.64124,3.165431 0.25055,0.1227 0.51845,0.206233 0.77768,0.309349 0.71997,0.198475 1.42324,0.211384 2.12173,-0.07929 0.2067,-0.08602 0.78646,-0.428046 0.58677,-0.326817 -2.16003,1.094983 -2.54301,1.62986 -1.5657,0.556355 0.69236,-0.982059 0.9894,-2.125714 0.91556,-3.314838 -0.0156,-0.08068 -0.0183,-0.16493 -0.0467,-0.242035 -0.005,-0.01302 -0.0277,0.0016 -0.0416,0.0024 0.88675,-0.433173 1.74309,-0.935125 2.66025,-1.299518 0.0908,-0.03608 -0.0765,0.182045 -0.0909,0.278698 -0.0613,0.412045 -0.007,0.791401 0.0221,1.2061 0.24226,2.345148 0.81345,4.64017 1.49646,6.891321 0.43965,1.467182 1.07889,2.849398 1.83812,4.174144 0,0 -2.51805,1.44754 -2.51805,1.44754 l 0,0 c -0.72771,-1.365102 -1.35832,-2.777091 -1.80198,-4.263153 -0.6903,-2.254503 -1.27571,-4.545603 -1.64052,-6.877278 -0.0947,-0.682556 -0.10566,-0.615087 -0.12583,-1.233837 -0.004,-0.126602 -0.10624,-0.308568 -0.002,-0.380005 1.5063,-1.028693 2.77928,-2.598541 2.93864,-1.091204 0.0496,1.272744 -0.20309,2.442606 -0.87118,3.543345 -1.14572,1.447712 -0.39049,0.618273 -3.48681,2.455759 -0.87995,0.5222 -1.88537,0.483907 -2.82746,0.179626 -0.26334,-0.117024 -0.53557,-0.215787 -0.79001,-0.35107 -1.46707,-0.780035 -2.62677,-2.013109 -3.693541,-3.259086 -0.509381,-0.639997 -0.975537,-1.317708 -1.492749,-1.950476 -0.09891,-0.12101 -0.199051,-0.243049 -0.317492,-0.345022 -0.05018,-0.04321 -0.234146,-0.04504 -0.180253,-0.08352 0.793345,-0.566456 1.650828,-1.037228 2.476245,-1.555842 -0.0332,0.05478 -0.0832,0.102404 -0.0995,0.164343 -0.18291,0.696008 0.11092,1.634294 0.1998,2.332946 0,0 -2.698487,1.442734 -2.698487,1.442734 z"
       inkscape:connector-curvature="0"
       transform="translate(6.6292965,907.95565)" />
    <path
       style="fill:#000000;fill-opacity:1;stroke:#050101;stroke-width:1.10000002;stroke-miterlimit:0.30000001;stroke-opacity:1;stroke-dasharray:none"
       id="path4924"
       d="m 117.17865,68.027631 c 0.0224,-1.326085 -0.45642,-0.586423 2.75936,-1.656695 0.1139,-0.0379 0.0157,0.239577 0.0207,0.359507 0.008,0.187462 0.0118,0.375064 0.0177,0.562596 0.0869,2.201451 0.27905,4.393292 0.59074,6.573868 0.15708,1.097171 0.46655,2.154557 0.80924,3.204371 0,0 -2.53855,1.392964 -2.53855,1.392964 l 0,0 c -0.32889,-1.073992 -0.63287,-2.15416 -0.78486,-3.270821 -0.31241,-2.167515 -0.51851,-4.344544 -0.73782,-6.522991 -0.0174,-0.177391 -0.0313,-0.35515 -0.0521,-0.532175 -0.0126,-0.106966 -0.13578,-0.257369 -0.0478,-0.319537 3.30321,-2.335059 2.68011,-2.506376 2.70969,-1.190437 0,0 -2.74638,1.39935 -2.74638,1.39935 z"
       inkscape:connector-curvature="0"
       transform="translate(6.6292965,907.95565)" />
    <path
       style="fill:#000000;fill-opacity:1;stroke:#050101;stroke-width:1.10000002;stroke-miterlimit:0.30000001;stroke-opacity:1;stroke-dasharray:none"
       id="path4926"
       d="m 128.68612,68.0163 c 0.72787,1.240387 1.02338,2.689225 1.37057,4.070393 0.2385,0.941907 0.44194,1.892025 0.65922,2.838922 0,0 -2.57344,1.381997 -2.57344,1.381997 l 0,0 c -0.19864,-0.949599 -0.38304,-1.902939 -0.63329,-2.840828 -0.34588,-1.307391 -0.63532,-2.731655 -1.45274,-3.839013 0,0 2.62968,-1.611471 2.62968,-1.611471 z"
       inkscape:connector-curvature="0"
       transform="translate(6.6292965,907.95565)" />
    <path
       style="fill:#000000;fill-opacity:1;stroke:#050101;stroke-width:1.10000002;stroke-miterlimit:0.30000001;stroke-opacity:1;stroke-dasharray:none"
       id="path4928"
       d="m 128.47261,67.450953 c 0.78155,1.374368 1.82046,2.577562 2.8692,3.751466 1.16046,1.186107 2.4316,2.280164 3.90092,3.068695 0.86797,0.465812 1.1626,0.532562 2.07484,0.856197 0.86933,0.217913 1.79023,0.372437 2.65579,0.02945 0.23952,-0.09491 0.9023,-0.494727 0.66575,-0.392637 -2.0765,0.896195 -2.37246,1.607885 -1.50014,0.264232 0.0978,-0.288162 0.22578,-0.567803 0.29353,-0.864485 0.44618,-1.953856 -0.19385,-3.951591 -0.8333,-5.777831 -0.52674,-1.280647 -1.13257,-2.576503 -2.03212,-3.646063 -0.13665,-0.162487 -0.29977,-0.300737 -0.44966,-0.451105 0,0 2.54265,-1.543768 2.54265,-1.543768 l 0,0 c 1.07058,1.254855 1.83675,2.730256 2.42171,4.268345 0.77495,2.193675 1.49221,4.518814 0.7405,6.822568 -0.95223,1.793088 -0.26313,0.786764 -3.48277,2.772746 -0.48638,0.300016 -0.95989,0.422365 -1.5302,0.439351 -0.77234,0.023 -1.12798,-0.124174 -1.87903,-0.312189 -0.92127,-0.353564 -1.20764,-0.426553 -2.0844,-0.917765 -1.47527,-0.82653 -2.75688,-1.945546 -3.94961,-3.133066 -1.08998,-1.178412 -2.15167,-2.384144 -3.09123,-3.688039 0,0 2.66757,-1.546107 2.66757,-1.546107 z"
       inkscape:connector-curvature="0"
       transform="translate(6.6292965,907.95565)" />
  </g>
</svg>
