<?xml version="1.0" encoding="UTF-8" standalone="no"?>
<!-- Created with Inkscape (http://www.inkscape.org/) -->

<svg
   xmlns:dc="http://purl.org/dc/elements/1.1/"
   xmlns:cc="http://creativecommons.org/ns#"
   xmlns:rdf="http://www.w3.org/1999/02/22-rdf-syntax-ns#"
   xmlns:svg="http://www.w3.org/2000/svg"
   xmlns="http://www.w3.org/2000/svg"
   xmlns:sodipodi="http://sodipodi.sourceforge.net/DTD/sodipodi-0.dtd"
   xmlns:inkscape="http://www.inkscape.org/namespaces/inkscape"
   width="160"
   height="91.949997"
   id="svg2"
   version="1.1"
   inkscape:version="0.48.3.1 r9886"
   inkscape:export-filename="integral.png"
   inkscape:export-xdpi="150"
   inkscape:export-ydpi="150"
   sodipodi:docname="mnc.svg">
  <defs
     id="defs4" />
  <sodipodi:namedview
     id="base"
     pagecolor="#9fffa7"
     bordercolor="#666666"
     borderopacity="1.0"
     inkscape:pageopacity="0"
     inkscape:pageshadow="2"
     inkscape:zoom="4.8164584"
     inkscape:cx="80"
     inkscape:cy="61.974998"
     inkscape:document-units="px"
     inkscape:current-layer="layer1"
     showgrid="false"
     inkscape:window-width="1231"
     inkscape:window-height="776"
     inkscape:window-x="49"
     inkscape:window-y="24"
     inkscape:window-maximized="1"
     fit-margin-top="0"
     fit-margin-left="0"
     fit-margin-right="0"
     fit-margin-bottom="0"
     showguides="true"
     inkscape:guide-bbox="true">
    <sodipodi:guide
       orientation="0,1"
       position="109.62412,63.532159"
       id="guide4800" />
  </sodipodi:namedview>
  <metadata
     id="metadata7">
    <rdf:RDF>
      <cc:Work
         rdf:about="">
        <dc:format>image/svg+xml</dc:format>
        <dc:type
           rdf:resource="http://purl.org/dc/dcmitype/StillImage" />
        <dc:title></dc:title>
      </cc:Work>
    </rdf:RDF>
  </metadata>
  <g
     inkscape:label="Layer 1"
     inkscape:groupmode="layer"
     id="layer1"
     transform="translate(-6.6292965,-939.95564)">
    <path
       style="fill:#333333;fill-opacity:1;stroke:#050101;stroke-width:2.4;stroke-miterlimit:0.30000001;stroke-opacity:1;stroke-dasharray:none"
       id="path5105"
       d="m 6.4213647,84.85118 c 0.2155036,-0.379733 0.4652368,-0.72894 0.7724373,-1.038658 0.2382721,-0.225952 0.4845933,-0.443127 0.7232774,-0.668639 0.8210564,-0.744661 1.886421,-1.212037 2.8229846,-1.752279 -0.227442,0.214137 0.736824,-0.365308 0.429862,-0.188048 -6.6155997,3.820273 4.932878,-2.827157 -1.6874573,0.965568 0.298533,-0.197993 0.5956533,-0.397619 0.8920223,-0.59873 0.371123,-0.240678 0.748174,-0.472329 1.11708,-0.716545 0.414103,-0.27303 0.83062,-0.542568 1.241111,-0.82103 1.072137,-0.719908 2.217773,-1.322261 3.339604,-1.959876 -4.347129,2.540384 -0.0727,-0.04586 1.395018,-0.770126 1.228967,-0.685272 -2.085915,1.192193 -1.561046,0.90013 0.793008,-0.441268 1.575909,-0.900472 2.365937,-1.347052 0.09094,-0.05141 0.185771,-0.09571 0.276863,-0.146845 0.08996,-0.05051 0.355626,-0.209342 0.266137,-0.158004 -0.601532,0.345084 -1.201528,0.69284 -1.802291,1.03926 0.788485,-0.450386 1.576679,-0.901281 2.365454,-1.351158 0.08951,-0.05105 0.17941,-0.101419 0.269397,-0.151625 1.379038,-0.769403 -2.579226,1.560916 -1.251787,0.71003 0.09494,-0.06086 0.188957,-0.123137 0.283436,-0.184706 1.055801,-0.65234 0.168699,-0.10836 2.654436,-1.535737 0.197825,-0.113596 0.792104,-0.452977 0.594427,-0.339123 -2.025859,1.166805 -2.340994,1.359016 -1.467448,0.834055 0.631526,-0.387268 1.248255,-0.797745 1.866912,-1.205028 0.6236,-0.406883 1.230785,-0.839391 1.866307,-1.227566 5.915876,-3.403937 0.982219,-0.564641 0.596467,-0.344368 -0.100401,0.05733 0.199356,-0.117172 0.298298,-0.176987 0.29993,-0.181325 0.595562,-0.369506 0.890257,-0.559158 0.617276,-0.397595 1.193958,-0.849232 1.767456,-1.306111 0.571095,-0.458808 1.147123,-0.911423 1.729993,-1.355199 0.553602,-0.414684 1.102324,-0.836795 1.614894,-1.301627 0.526236,-0.485647 1.080977,-0.937484 1.637921,-1.386891 0.495814,-0.432071 1.042122,-0.799781 1.546133,-1.221169 0.453169,-0.393771 0.955658,-0.724478 1.445548,-1.069678 0.386599,-0.340025 0.79929,-0.64136 1.219675,-0.937731 0.451415,-0.324271 0.893929,-0.661524 1.349163,-0.98026 0.467708,-0.297398 0.942396,-0.583195 1.410691,-0.879614 0.478813,-0.276397 0.902475,-0.632569 1.33775,-0.970382 0.449484,-0.376284 0.920119,-0.725644 1.378407,-1.090821 0.443863,-0.344565 0.904365,-0.666906 1.354694,-1.002834 0.456821,-0.314745 0.895372,-0.654485 1.346634,-0.976867 0.445694,-0.350212 0.939754,-0.628672 1.405842,-0.949216 0.485969,-0.332719 0.984556,-0.644838 1.469286,-0.979666 0.547813,-0.344537 1.10042,-0.681184 1.644867,-1.031095 0.970861,-0.629954 1.99924,-1.174338 3.001944,-1.746106 0.205909,-0.117415 0.825741,-0.465916 0.620558,-0.347236 -0.589507,0.340977 -1.181065,0.678395 -1.771597,1.017592 0.646592,-0.374867 1.266163,-0.793358 1.899488,-1.189624 0.672707,-0.424595 1.35083,-0.840831 2.034302,-1.247884 5.90464,-3.402528 1.237895,-0.708871 0.74659,-0.439479 -0.127262,0.06978 0.243562,-0.157921 0.364692,-0.237874 0.367648,-0.242672 0.734152,-0.484763 1.107655,-0.718434 0.715103,-0.417779 1.39215,-0.888175 2.053317,-1.385428 0.650328,-0.478069 1.272746,-0.991517 1.916364,-1.478387 0.637966,-0.488665 1.323623,-0.907929 1.985664,-1.361664 0.65313,-0.494022 1.320264,-0.968794 2.008189,-1.413108 1.200687,-0.770187 6.536611,-3.767505 2.159371,-1.293278 0.763626,-0.502241 1.503645,-1.038394 2.27292,-1.532027 0.747756,-0.535087 1.504375,-1.053412 2.294998,-1.523278 1.446776,-0.879353 2.944412,-1.665291 4.427693,-2.478773 -0.570499,0.328205 -1.140565,0.657163 -1.711497,0.984614 -0.118933,0.06821 0.23677,-0.138322 0.355496,-0.206895 1.179976,-0.681524 2.366758,-1.344382 3.546399,-2.023885 -3.587623,2.184523 -0.745081,0.321476 0.06811,-0.21378 0.690222,-0.496556 1.392914,-0.975863 2.082437,-1.473169 0.698997,-0.552551 1.466571,-1.005937 2.20121,-1.507256 0.686279,-0.485181 1.384194,-0.95248 2.090838,-1.407379 0.745009,-0.46262 1.480383,-0.940574 2.220529,-1.410961 0.705475,-0.430012 1.371011,-0.918267 2.04806,-1.390283 0.682044,-0.494977 1.406814,-0.924958 2.127559,-1.359961 0.730638,-0.437277 1.428051,-0.925891 2.149393,-1.377822 0.80634,-0.497704 1.62477,-0.977976 2.418307,-1.4959 0.733495,-0.53333 1.517993,-0.988898 2.27318,-1.489224 0.702366,-0.473456 1.403751,-0.948909 2.116221,-1.4071 0.58549,-0.365059 1.16835,-0.73412 1.74846,-1.107667 0.67017,-0.409498 1.34643,-0.80865 2.01406,-1.222417 0.70079,-0.41101 1.36965,-0.872508 2.05283,-1.311461 6.88103,-3.974038 0.46008,-0.270538 0.69121,-0.403934 8.06558,-4.655028 -1.27265,0.799028 1.00366,-0.591488 0.10664,-0.06515 0.21224,-0.131989 0.31837,-0.197984 1.35045,-0.802665 4.8505,-2.800462 0.8891,-0.52072 -0.10137,0.05834 0.20298,-0.116297 0.30377,-0.175645 0.19144,-0.112733 0.41679,-0.251127 0.60599,-0.366462 0.56624,-0.376238 1.16552,-0.698316 1.73161,-1.074369 1.02353,-0.635505 2.0828,-1.213697 3.11986,-1.825477 0.61342,-0.361871 -1.2325,0.714121 -1.85164,1.066129 -0.079,0.04489 0.15394,-0.09645 0.23091,-0.144676 0.44898,-0.322174 0.88961,-0.654864 1.34441,-0.969282 0.46178,-0.32388 0.92277,-0.64763 1.37705,-0.981949 0.41612,-0.294942 0.81925,-0.607096 1.23222,-0.906458 0.34315,-0.237976 0.64754,-0.524131 0.96118,-0.7981504 0.29917,-0.2551092 0.57655,-0.5344793 0.87643,-0.7888906 0.32075,-0.2614561 0.62064,-0.5467455 0.94736,-0.800776 0.364,-0.2342907 0.70305,-0.5025979 1.05356,-0.7559831 0.2899,-0.1762103 0.56614,-0.3725543 0.84654,-0.563052 0.23351,-0.1794595 0.46202,-0.3644562 0.69358,-0.5464817 0.17411,-0.1536752 0.35856,-0.2933704 0.53734,-0.4397012 0.70542,-0.6460359 1.94002,-1.1974449 2.56027,-1.5541829 0.0301,-0.008 0.1173,-0.039656 0.0904,-0.023987 -4.79426,2.7884175 -0.39222,0.1681664 0.34196,-0.2257479 0.0384,-0.021289 0.0775,-0.041926 0.11875,-0.055619 0.007,0.00154 0.009,0.00874 0.0142,0.01311 0,0 -1.97077,1.5240867 -1.97077,1.5240867 l 0,0 c 0.003,0.0046 0.009,0.00897 0.009,0.015229 -0.0314,0.023462 -0.0674,0.041884 -0.1019,0.0614 -0.75313,0.4332623 0.63902,-0.3675782 2.00226,-1.1565938 0.0534,-0.030939 -0.10908,0.05801 -0.16267,0.088719 -2.27191,1.301933 -1.44775,0.8722102 -2.27598,1.3026964 0.67752,-0.3950086 1.35504,-0.7900171 2.03256,-1.1850257 -0.0506,0.031923 -0.10963,0.053019 -0.15209,0.095113 -0.0232,0.023028 -0.0293,0.060328 -0.0537,0.082164 -0.0448,0.040152 -0.11997,0.034037 -0.16349,0.076375 -0.16095,0.1780298 -0.36729,0.2851018 -0.53459,0.463078 -0.23153,0.1864677 -0.4677,0.3655489 -0.69812,0.5497805 -0.25303,0.227948 -0.55915,0.4017122 -0.84685,0.5839347 -0.37001,0.226712 -0.67647,0.5374849 -1.06113,0.7416546 -0.32922,0.2484364 -0.63813,0.5156931 -0.94683,0.7897159 -0.30615,0.250484 -0.59985,0.5111032 -0.87731,0.793554 -0.33641,0.2493427 -0.61476,0.5700648 -0.95893,0.8116783 -0.41738,0.2982917 -0.82735,0.6037277 -1.23802,0.9108697 -0.46729,0.317724 -0.90924,0.673751 -1.38112,0.985423 -0.45191,0.317521 -0.91034,0.624891 -1.33809,0.975109 -1.30019,0.878389 -4.73226,2.732731 -0.71589,0.436688 0.81019,-0.463159 -1.55125,0.977854 -0.79122,0.463976 -0.5587,0.396284 -1.16752,0.706573 -1.73489,1.089779 -1.29536,0.790359 -5.75558,3.351341 -1.50101,0.884644 0.10069,-0.05838 -0.20118,0.117136 -0.30177,0.175705 -0.99495,0.637156 -2.03259,1.198408 -3.05146,1.79892 -0.57379,0.338184 2.30663,-1.33307 1.72978,-1.000124 -2.32871,1.344103 -3.68486,2.13267 -0.69541,0.397557 -0.69484,0.419991 -1.34521,0.908146 -2.05091,1.311597 -0.66646,0.41156 -1.33358,0.821534 -2.00994,1.216698 -0.58251,0.3714 -1.15991,0.750611 -1.74959,1.110698 -0.72569,0.443368 -1.42186,0.934311 -2.13092,1.403508 -0.74592,0.517352 -1.546634,0.95038 -2.276962,1.491696 -0.778413,0.538872 -1.611662,0.998576 -2.412417,1.503326 -0.724947,0.443574 -1.417766,0.934379 -2.142206,1.378556 -0.722379,0.431727 -1.451764,0.854884 -2.135575,1.346834 -0.683001,0.465308 -1.336559,0.972012 -2.045296,1.399519 -0.740956,0.46585 -1.472036,0.947379 -2.215947,1.40806 -0.711956,0.450397 -1.414068,0.915154 -2.101663,1.402029 -0.727126,0.509282 -1.49934,0.950507 -2.199824,1.497852 -0.675233,0.516617 -1.402123,0.964326 -2.075539,1.484886 -1.377212,0.911944 -2.725803,1.863161 -4.204005,2.616161 -1.243619,0.698015 0.536752,-0.299822 -0.744934,0.413623 -0.123696,0.06886 -0.492273,0.279863 -0.369921,0.208646 0.568804,-0.331083 1.139136,-0.659537 1.709307,-0.988262 0.118972,-0.06859 -0.237136,0.138573 -0.355704,0.20786 -0.809854,0.466699 -1.619709,0.933398 -2.429563,1.400098 -0.847374,0.466501 -3.920622,2.142961 -0.294104,0.09553 -0.796554,0.459972 -1.567644,0.958992 -2.300236,1.516384 -0.773317,0.483087 -1.510914,1.016888 -2.266728,1.526323 -2.535137,1.497211 -3.552366,2.089406 -0.726742,0.447111 0.120199,-0.06986 -0.241507,0.137807 -0.361462,0.208086 -0.358119,0.209812 -0.707875,0.433312 -1.068,0.639738 -0.69345,0.433366 -1.366999,0.89955 -2.011974,1.402504 -0.650784,0.46878 -1.34703,0.870191 -1.98798,1.353855 -0.645786,0.485297 -1.269427,0.995839 -1.916334,1.47914 -0.665658,0.497016 -1.324782,0.999103 -2.050992,1.407782 -0.499099,0.304633 -0.971193,0.657603 -1.472263,0.956676 -0.925725,0.552537 -4.712746,2.743287 -0.739395,0.441534 -0.685389,0.401145 -1.361826,0.817988 -2.033171,1.242095 -0.636189,0.388979 -1.249966,0.81317 -1.892461,1.191955 -0.795514,0.46056 -1.590159,0.922623 -2.38654,1.38168 -0.735844,0.424162 -2.173223,1.261124 1.144835,-0.683303 0.205216,-0.12026 -0.846344,0.473437 -0.611887,0.367126 -0.536077,0.354684 -1.082513,0.693738 -1.634011,1.023805 -0.49405,0.319873 -0.969659,0.668505 -1.473442,0.973696 -0.455971,0.335529 -0.955997,0.599138 -1.402333,0.947428 -0.453078,0.323251 -0.890965,0.666169 -1.355946,0.972789 -0.442893,0.342489 -0.900055,0.665971 -1.35372,0.993885 -0.453343,0.375235 -0.936662,0.710718 -1.380988,1.097005 -0.433211,0.339796 -0.852369,0.701008 -1.319963,0.993399 -0.478185,0.281566 -0.938161,0.593793 -1.416536,0.875622 -0.476666,0.280906 -0.894484,0.659293 -1.353466,0.968676 -0.413551,0.302334 -0.854696,0.565067 -1.216516,0.932664 -0.474847,0.368337 -1.004616,0.664877 -1.462347,1.056969 -0.494552,0.438716 -1.046845,0.798168 -1.547853,1.229868 -0.554641,0.450568 -1.117424,0.890247 -1.645655,1.372443 -0.504782,0.478377 -1.047322,0.91062 -1.605679,1.325355 -0.590736,0.435229 -1.16373,0.894427 -1.737536,1.351574 -0.577303,0.451593 -1.135994,0.925931 -1.753553,1.323967 -1.235368,0.819594 -6.153112,3.621316 -1.78217,1.093362 -0.652686,0.358348 -1.246893,0.814051 -1.873051,1.216112 -0.620888,0.403559 -1.233531,0.819642 -1.861314,1.212611 -1.076115,0.648767 -0.35363,0.215487 -2.689388,1.569156 -0.101385,0.05876 -0.203614,0.116046 -0.30558,0.173789 -0.09735,0.05513 -0.388948,0.221255 -0.292357,0.164815 1.173023,-0.685414 2.498512,-1.447579 1.506832,-0.876966 -0.96128,0.629999 -1.854526,1.123139 -2.913039,1.733336 -0.09359,0.05395 -0.188703,0.105199 -0.283285,0.157383 -0.08996,0.04963 -0.358917,0.20012 -0.270337,0.148064 0.600511,-0.352902 1.204158,-0.700444 1.806237,-1.050666 -0.788677,0.45627 -1.576573,0.913893 -2.366031,1.368809 -0.180174,0.103823 -0.727472,0.40304 -0.54871,0.296805 3.946306,-2.345226 0.592347,-0.278816 -0.80935,0.446333 -0.287577,0.148799 -0.229051,0.115685 -0.502975,0.268091 -0.08179,0.04551 -0.325621,0.18475 -0.244731,0.137662 0.62051,-0.361207 1.243127,-0.718787 1.863613,-1.080035 0.06909,-0.04022 -0.139595,0.07796 -0.209393,0.116944 -0.767715,0.447074 -1.53543,0.894148 -2.303144,1.341222 -0.830892,0.452413 -0.446174,0.245436 1.680848,-0.983981 0.0699,-0.0404 -0.137347,0.08496 -0.207309,0.125262 -0.515684,0.29703 0.09608,-0.07505 -0.418374,0.252864 -0.0694,0.04424 -0.140295,0.0861 -0.210443,0.129145 -0.401077,0.291146 -0.821837,0.554898 -1.238817,0.822208 -0.35651,0.256361 -0.731263,0.488309 -1.108579,0.711905 -0.291243,0.208749 -0.58533,0.406469 -0.887798,0.598239 -0.746981,0.438576 -1.513806,0.844982 -2.2409424,1.315728 -0.6339536,0.410419 2.6261134,-1.492436 1.9610874,-1.13455 -0.762213,0.410187 -1.4998036,0.864596 -2.25277,1.29152 -0.1349839,0.07653 -0.2900472,0.113463 -0.4205505,0.19921 3.6447565,-2.113257 2.1150515,-1.312694 1.3767255,-0.733557 -0.2397854,0.227764 -0.4819586,0.452798 -0.7307061,0.670813 -0.3161488,0.285173 -0.6005971,0.587737 -0.7913227,0.97477 0,0 -2.2550245,0.99946 -2.2550245,0.99946 z"
       inkscape:connector-curvature="0"
       transform="translate(6.6292965,939.95564)" />
    <path
       style="fill:#ff0000;fill-opacity:1;stroke:#050101;stroke-width:0;stroke-miterlimit:0.30000000999999998;stroke-opacity:1;stroke-dasharray:none"
       id="path5109"
       d="m 17.733919,60.57175 c -0.37629,-0.354214 -0.704262,-0.447592 -1.206613,-0.411698 -0.069,0.0193 -0.142036,0.02766 -0.206994,0.05789 -0.07102,0.03305 -0.264615,0.167388 -0.19599,0.129629 0.638115,-0.351113 1.260488,-0.730925 1.905069,-1.070023 0.07307,-0.03844 -0.127985,0.105044 -0.184749,0.165006 -0.17076,0.18038 -0.174465,0.225348 -0.29178,0.447525 -0.262141,0.591507 -0.223431,1.173266 0.0068,1.762217 0.289307,0.609469 0.734886,0.804872 1.384478,0.77191 0.109277,-0.03296 0.220982,-0.05875 0.327831,-0.09889 0.404534,-0.151974 0.754995,-0.403062 0.668533,-0.356697 -2.544756,1.364614 -1.909258,1.263569 -1.171318,0.34454 0.507494,-0.761982 0.541487,-1.330089 0.193749,-2.15821 -0.361275,-0.590522 -0.974856,-0.824251 -1.639568,-0.852733 -0.804451,0.213242 -2.295485,0.969198 1.255582,-0.816213 0.09566,-0.0481 -0.166755,0.135718 -0.238311,0.215364 -0.193684,0.215582 -0.223209,0.323113 -0.349647,0.582421 -0.278627,0.694449 -0.189639,1.39208 0.125216,2.052468 0.140514,0.217148 0.453693,0.753273 0.805516,0.610269 0.05501,-0.02236 0.09545,-0.07066 0.143171,-0.105983 -0.648828,0.358108 -1.28452,0.741121 -1.946482,1.074325 -0.0726,0.03654 0.116708,-0.11391 0.166334,-0.178273 0.251055,-0.325613 0.387243,-0.725649 0.487518,-1.117757 0.07621,-0.419133 0.08771,-0.920923 -0.325122,-1.160355 -0.154024,0.0257 -0.08344,-0.0058 -0.208954,0.100513 0.664537,-0.370857 1.324845,-0.749394 1.993611,-1.11257 0.04845,-0.02631 -0.09186,0.06217 -0.130958,0.101049 -0.103378,0.102785 -0.124913,0.1696 -0.191155,0.297737 -0.09197,0.24635 -0.170511,0.603946 0.05986,0.79884 0.07669,-0.01293 0.04012,-4.84e-4 0.109544,-0.03783 -0.697311,0.377955 -1.390479,0.763654 -2.091932,1.133866 -0.02825,0.01491 0.0529,-0.03883 0.06919,-0.0663 0.04182,-0.07057 0.05846,-0.190591 0.0738,-0.267874 0.0232,-0.340794 -0.166135,-0.439871 -0.470139,-0.341817 -0.668852,0.680621 0.03511,-0.0595 1.830089,-0.975509 0.06202,-0.03165 -0.09097,0.106961 -0.123172,0.168693 -0.111868,0.214477 -0.08235,0.411765 -0.0392,0.637242 0.198856,0.515944 0.716403,0.693395 1.226046,0.74296 0,0 -1.996665,1.403787 -1.996665,1.403787 l 0,0 c -0.595149,-0.125729 -1.152384,-0.38425 -1.385746,-0.986952 -0.370693,-1.455731 0.892311,-2.06443 2.469926,-2.452105 0.408339,0.04472 0.682184,0.294612 0.70375,0.719981 -0.0084,0.06362 -0.01778,0.441256 -0.06836,0.473015 -1.080678,0.678539 -1.612138,1.736107 -2.418314,1.133492 -0.249242,-0.299751 -0.286451,-0.684319 -0.181571,-1.05545 0.363113,-1.067933 1.750947,-2.203346 2.851809,-1.732059 0.42006,0.369869 0.536928,0.873949 0.435855,1.418855 -0.317237,1.756007 -1.028498,1.745851 -2.839915,2.791266 -0.587556,0.04649 -0.84587,-0.355515 -1.126783,-0.815814 -0.330712,-0.714979 -0.468895,-1.47158 -0.214794,-2.238216 0.109195,-0.283452 0.137746,-0.408411 0.310141,-0.659128 0.696125,-1.012383 2.004779,-1.641617 3.214211,-1.748776 0.737133,0.105943 1.383593,0.410224 1.770293,1.078786 0.378825,0.882312 0.414045,1.534942 -0.08714,2.388501 -0.822022,1.158802 -1.273946,1.144878 -2.934401,2.134271 -0.335536,0.199932 -0.694447,0.331212 -1.085263,0.361922 -0.724033,-0.05618 -1.220195,-0.338897 -1.53966,-1.012806 -0.254922,-0.63517 -0.340032,-1.276288 -0.09856,-1.934594 0.477322,-1.24676 1.883003,-2.002928 3.177555,-2.190122 0.498673,0.02007 0.904573,0.206563 1.294653,0.516496 0,0 -2.070912,1.339919 -2.070912,1.339919 z"
       inkscape:connector-curvature="0"
       transform="translate(6.6292965,939.95564)" />
    <path
       style="fill:#ff0000;fill-opacity:1;stroke:#050101;stroke-width:0;stroke-miterlimit:0.30000000999999998;stroke-opacity:1;stroke-dasharray:none"
       id="path5111"
       d="m 58.473514,69.33273 c -0.0532,-0.174413 -0.158861,-0.842586 -0.443931,-0.749675 -0.332387,0.853914 -0.02226,-0.02613 1.937135,-0.987303 0.06584,-0.0323 -0.07457,0.12692 -0.101998,0.194932 -0.106747,0.264693 -0.111874,0.531981 -0.117703,0.812481 0.09776,0.537339 0.310835,0.795248 0.851721,0.537222 -3.575302,1.95954 -1.905893,1.301265 -1.41212,0.572978 0.204854,-0.302148 0.302965,-0.621622 0.382568,-0.972207 0.02502,-0.586434 -0.01967,-0.98294 -0.687609,-0.992203 -0.778617,0.297497 -2.176808,0.938541 1.294545,-0.790648 0.100884,-0.05025 -0.172566,0.145815 -0.249649,0.228042 -0.19919,0.212483 -0.226385,0.293643 -0.369862,0.543925 -0.159999,0.472102 -0.296091,0.914536 0.297433,1.062943 -0.08573,0.211694 0.93382,-0.424235 0.697301,-0.298823 -0.614555,0.325863 -1.200631,0.705715 -1.826436,1.009415 -0.0969,0.04703 0.155138,-0.149967 0.224777,-0.232137 0.06566,-0.07747 0.120112,-0.163783 0.180169,-0.245674 0.181532,-0.357871 0.373732,-0.889157 -0.102845,-1.082539 -0.06119,0.0041 -0.123496,7.1e-5 -0.183571,0.01242 -0.164273,0.03376 -0.238292,0.09136 -0.383589,0.173378 0.638032,-0.35481 1.264146,-0.731955 1.914096,-1.064431 0.06884,-0.03521 -0.112856,0.10657 -0.160558,0.167426 -0.04725,0.06028 -0.08192,0.129443 -0.12288,0.194164 -0.178569,0.44553 -0.07037,0.738096 0.415122,0.819154 -0.07444,0.222061 1.041719,-0.37405 0.791196,-0.235145 -0.611241,0.33891 -1.210021,0.701688 -1.83561,1.013319 -0.09556,0.0476 0.164926,-0.136857 0.236023,-0.2165 0.06706,-0.07512 0.117516,-0.163569 0.176275,-0.245353 0.286175,-0.585714 0.274861,-0.926941 -0.380161,-1.160292 -0.334479,-0.06437 -0.611053,0.04647 -0.902456,0.203235 -0.113387,0.061 -0.444277,0.260252 -0.330811,0.199401 1.832413,-0.982704 2.255844,-1.456309 1.49586,-0.697588 0,0 -2.235454,0.93689 -2.235454,0.93689 l 0,0 c 0.848475,-1.001928 0.209681,-0.312089 2.627043,-1.760951 0.427315,-0.256114 0.892971,-0.391886 1.378547,-0.231773 0.708251,0.367473 0.868573,0.774639 0.575906,1.525236 -0.559355,1.07604 -1.500082,1.253846 -2.71755,1.946171 -0.271983,0.154666 -0.606903,0.146949 -0.903433,0.105598 -0.561827,-0.230043 -0.766285,-0.594173 -0.625482,-1.198069 0.497849,-1.089377 0.993359,-0.940771 2.53007,-1.818741 0.217036,-0.123999 0.484795,-0.07887 0.704793,-0.0045 0.552448,0.403879 0.482921,0.849786 0.273003,1.44332 -0.678425,1.096594 -1.157559,1.048821 -2.710856,1.978016 -0.26115,0.156223 -0.53827,0.195524 -0.832787,0.133173 -0.08115,-0.03926 -0.169794,-0.06582 -0.243463,-0.117791 -0.423081,-0.298454 -0.36598,-0.882868 -0.237428,-1.312757 0.617914,-1.335483 2.089455,-2.240909 3.543149,-2.392595 0.744393,0.183859 0.882053,0.618583 0.872666,1.341006 -0.287292,1.823707 -1.360618,2.026769 -3.100619,2.951642 -0.702929,0.06491 -0.934826,-0.275993 -1.081207,-0.920542 -0.01704,-1.318363 0.421298,-2.715929 2.495405,-2.528286 0.357555,0.212771 0.465642,0.618152 0.58327,0.995552 0,0 -2.178005,1.155446 -2.178005,1.155446 z"
       inkscape:connector-curvature="0"
       transform="translate(6.6292965,939.95564)" />
    <path
       style="fill:#ff0000;fill-opacity:1;stroke:#050101;stroke-width:0;stroke-miterlimit:0.30000000999999998;stroke-opacity:1;stroke-dasharray:none"
       id="path5113"
       d="m 108.68053,55.538629 c -0.2228,-0.166843 -0.56675,-0.548056 -0.88956,-0.428643 -0.0548,0.02027 -0.0929,0.07081 -0.13941,0.106215 0.65474,-0.361572 1.29246,-0.755839 1.96422,-1.084716 0.0668,-0.03271 -0.093,0.117642 -0.12551,0.184525 -0.18261,0.375118 -0.13534,0.764951 -0.055,1.15674 0.27955,0.666271 0.79677,0.757225 1.44921,0.633425 1.11001,-0.568219 -1.02653,0.609655 -1.56079,0.874721 -0.0875,0.0434 0.14752,-0.129337 0.20945,-0.20484 0.21035,-0.256423 0.25697,-0.493447 0.26257,-0.813576 -0.10748,-0.689158 -0.69554,-0.904733 -1.31624,-0.974882 -0.83295,0.152021 -2.26281,0.964281 1.24709,-0.846354 0.0828,-0.04273 -0.14791,0.114529 -0.21255,0.181674 -0.1713,0.177947 -0.16395,0.214294 -0.25809,0.433961 -0.12812,0.622534 0.41825,0.796052 0.92878,0.856177 0.22764,-0.01782 0.41307,-0.01538 0.63017,-0.101453 0.0963,-0.03817 0.36012,-0.204676 0.26933,-0.154862 -0.6106,0.335007 -1.20385,0.703051 -1.8288,1.010466 -0.0851,0.04186 0.139,-0.130578 0.19526,-0.20692 0.0564,-0.07654 0.0935,-0.165574 0.14029,-0.248361 0.21391,-0.638836 -0.15017,-1.010372 -0.73239,-1.204169 -0.21824,0.01278 -0.344,-0.0018 -0.54727,0.100404 -0.0855,0.04298 -0.31653,0.213702 -0.23176,0.169337 0.62282,-0.325959 1.2104,-0.720108 1.84834,-1.015392 0.0913,-0.04226 -0.13093,0.154573 -0.17925,0.24281 -0.0458,0.0837 -0.067,0.178713 -0.10051,0.268069 -0.12481,0.699756 0.40513,1.039284 0.98276,1.257899 0.33343,0.08417 0.67905,0.05847 0.99357,-0.09037 0.10037,-0.0475 0.37648,-0.235019 0.27829,-0.183147 -1.85234,0.978527 -2.27433,1.526579 -1.58885,0.73498 0.4087,-0.687327 0.21171,-1.415788 -0.19795,-2.047291 -0.2493,-0.24662 -0.54153,-0.43717 -0.906,-0.441027 -0.72881,-0.0077 -2.68779,1.301988 1.09316,-0.784815 -0.42259,0.385097 -0.77386,0.962045 -0.53517,1.546448 0.0413,0.101174 0.10979,0.189003 0.16469,0.283504 0,0 -2.10368,1.215676 -2.10368,1.215676 l 0,0 c -0.0658,-0.112716 -0.1458,-0.218299 -0.19754,-0.338148 -0.28407,-0.658087 -0.006,-1.300612 0.41084,-1.82403 0.74928,-0.434626 2.31096,-1.913781 3.52984,-1.369608 0.31441,0.140368 0.38952,0.254087 0.63808,0.4906 0.44406,0.707494 0.68748,1.503616 0.33634,2.307714 -0.70184,1.056538 -0.16002,0.333166 -2.54009,1.751602 -0.42592,0.253832 -0.93874,0.245641 -1.39536,0.09757 -0.70514,-0.315159 -1.21726,-0.72334 -1.16668,-1.564065 0.30407,-1.291345 0.954,-1.12174 2.53586,-2.071651 0.28031,-0.168326 0.59812,-0.163604 0.9051,-0.09304 0.65793,0.311239 1.08732,0.778755 0.92569,1.549057 -0.46173,1.183365 -1.16174,1.127228 -2.6357,1.971553 -0.29519,0.169099 -0.66326,0.154896 -0.98771,0.138727 -0.64251,-0.148998 -1.2077,-0.465747 -1.14346,-1.213006 0.0233,-0.0969 0.0329,-0.198125 0.0698,-0.290703 0.0402,-0.10081 0.24757,-0.422933 0.34034,-0.480644 1.12058,-0.697117 1.82343,-1.438588 3.0167,-1.437259 0.72203,0.152484 1.33835,0.475884 1.49244,1.259187 0.009,0.116222 0.0337,0.232341 0.0264,0.348668 -0.0817,1.301068 -2.11417,2.097342 -3.06064,2.364023 -0.77133,0.03672 -1.32481,-0.189714 -1.63849,-0.93618 -0.10604,-0.445831 -0.15685,-0.848451 -0.0316,-1.297615 0.0239,-0.0857 0.0154,-0.200986 0.0883,-0.25187 0.71923,-0.501447 1.49543,-0.915765 2.24315,-1.373647 0.47987,-0.04102 0.8427,0.247991 1.19363,0.547375 0,0 -2.10374,1.289176 -2.10374,1.289176 z"
       inkscape:connector-curvature="0"
       transform="translate(6.6292965,939.95564)" />
    <path
       style="fill:#ff0000;fill-opacity:1;stroke:#050101;stroke-width:0;stroke-miterlimit:0.30000000999999998;stroke-opacity:1;stroke-dasharray:none"
       id="path5115"
       d="m 65.309035,30.286128 c -0.09339,-0.277684 -0.21389,-1.023117 -0.543535,-1.099326 -0.740741,0.514514 0.397249,-0.280974 1.923101,-1.020105 0.06934,-0.03359 -0.106868,0.112654 -0.146768,0.178564 -0.194127,0.32068 -0.245379,0.68174 -0.299796,1.044202 0.0016,0.537367 0.0039,1.255046 0.422781,1.669161 0.05165,0.05107 0.123246,0.07688 0.184869,0.115315 0.152649,0.02094 0.265124,0.05922 0.415407,-0.01527 0.07737,-0.03835 0.278776,-0.201732 0.202079,-0.162067 -0.624225,0.322825 -1.210583,0.719056 -1.848639,1.013603 -0.102397,0.04727 0.152952,-0.166851 0.216386,-0.260101 0.0676,-0.09937 0.116665,-0.210156 0.174997,-0.315234 0.210724,-0.518374 0.370401,-1.189604 0.02912,-1.698014 -0.04646,-0.06921 -0.119011,-0.116742 -0.178517,-0.175113 -0.241184,-0.104772 -0.49616,-0.11145 -0.742434,-0.0092 -0.08952,0.03716 -0.335977,0.193447 -0.251004,0.146813 1.89435,-1.039616 2.338147,-1.490369 1.594437,-0.794316 -0.318509,0.380691 -0.583668,0.870441 -0.41765,1.369703 0.200761,0.16072 0.499268,0.0412 0.709021,-0.05638 0.09531,-0.04434 0.364693,-0.209268 0.272663,-0.158464 -0.599006,0.330669 -1.195763,0.665394 -1.793645,0.998092 0.567924,-0.48094 0.848766,-1.169743 0.799299,-1.90583 -0.205878,-0.687094 -0.543571,-0.735128 -1.100352,-0.370996 3.279968,-1.848702 1.825169,-1.332488 1.462885,-0.44819 -0.138381,0.337775 -0.13231,0.64832 -0.09638,1.002118 0.276004,0.862039 0.878833,0.799022 1.618704,0.601393 1.248047,-0.633104 -0.882466,0.546633 -1.346909,0.776577 -0.128718,0.06373 0.230384,-0.172715 0.334281,-0.271887 0.298258,-0.284694 0.452164,-0.571616 0.57942,-0.954987 0.09772,-0.828111 -0.384574,-0.840702 -1.029542,-0.618099 0,0 1.931279,-1.47471 1.931279,-1.47471 l 0,0 c 0.123848,-0.01901 0.246245,-0.05676 0.371544,-0.05703 0.648201,-0.0014 0.987585,0.502095 0.919941,1.106214 -0.02914,0.12592 -0.04313,0.256336 -0.08742,0.377759 -0.475791,1.304507 -2.535364,2.176644 -3.601283,2.580715 -0.917772,0.152431 -1.508661,0.01218 -1.843816,-0.93578 -0.274191,-1.994973 0.911058,-2.138984 2.694608,-3.205922 0.0985,-0.03402 0.192718,-0.08488 0.295503,-0.102069 0.557797,-0.09325 0.929294,0.391108 1.053896,0.87053 0.01456,0.124035 0.04426,0.247218 0.04368,0.372103 -0.003,0.651245 -0.315849,1.288747 -0.739638,1.763549 -0.789944,0.472088 -1.572233,0.957228 -2.369833,1.416263 -0.2356,0.135593 -0.583087,0.232307 -0.855415,0.16236 -0.205177,-0.0527 -0.23598,-0.130542 -0.372196,-0.279153 -0.208215,-0.57338 -0.02564,-1.133018 0.319456,-1.620342 0.794183,-0.930626 0.244365,-0.341229 2.56595,-1.658851 0.376887,-0.213903 0.829692,-0.113556 1.167967,0.110079 0.07094,0.08246 0.155211,0.155121 0.212819,0.247392 0.357412,0.572461 0.267607,1.288921 0.06103,1.892242 -0.556236,1.257801 -0.92999,1.075009 -2.662285,2.093297 -0.256731,0.150913 -0.532689,0.07529 -0.777803,-0.04389 -0.07438,-0.06309 -0.159158,-0.115649 -0.223128,-0.18927 -0.42451,-0.488553 -0.467304,-1.2225 -0.483479,-1.831637 0.110815,-1.262283 0.792198,-3.228227 2.761849,-2.619033 0.378418,0.307525 0.479257,0.823634 0.632805,1.265674 0,0 -2.160308,1.177571 -2.160308,1.177571 z"
       inkscape:connector-curvature="0"
       transform="translate(6.6292965,939.95564)" />
    <path
       style="fill:#ff0000;fill-opacity:1;stroke:#050101;stroke-width:0;stroke-miterlimit:0.30000000999999998;stroke-opacity:1;stroke-dasharray:none"
       id="path5117"
       d="m 106.82162,5.6585041 c -0.20042,-0.4188116 -0.45142,-0.8536078 -0.91011,-1.007763 -0.0737,-0.012018 -0.14642,-0.038703 -0.22102,-0.036053 -0.12823,0.00456 -0.38877,0.097394 -0.49442,0.1551763 -0.0889,0.048607 -0.33922,0.2206216 -0.24971,0.1731873 1.84115,-0.9757367 2.29574,-1.5281691 1.58285,-0.7477673 -0.36939,0.4893704 -0.65433,1.0136584 -0.38354,1.6111216 0.42238,0.4687384 0.90601,0.3048017 1.40187,0.063782 -0.60871,0.3381351 -1.20342,0.7027907 -1.82612,1.0144052 -0.10027,0.050176 0.17393,-0.1427333 0.2496,-0.2254758 0.0777,-0.085021 0.14603,-0.1788409 0.20858,-0.2755885 0.17702,-0.2737875 0.25074,-0.5275223 0.28711,-0.8456707 -0.0535,-0.6109217 -0.46905,-0.5803899 -0.9475,-0.4568629 -0.0911,0.036887 -0.18655,0.064423 -0.27328,0.1106613 -0.0937,0.04995 -0.35882,0.2264307 -0.26517,0.1764323 0.60667,-0.3238637 1.18702,-0.6975192 1.8053,-0.9986216 0.10011,-0.048756 -0.16325,0.1519632 -0.23739,0.2350455 -0.21886,0.2452401 -0.21522,0.2715759 -0.37108,0.5469862 -0.17882,0.4556409 -0.31107,0.7888137 0.1951,1.0337088 0.069,0.00631 0.13813,0.026675 0.20698,0.01894 0.13777,-0.015479 0.35144,-0.1206961 0.46538,-0.185118 0.0834,-0.04713 0.32627,-0.2003252 0.24208,-0.154703 -1.89466,1.0266437 -2.34052,1.5599897 -1.67059,0.8247246 0.16847,-0.2142409 0.4571,-0.8012155 0.0117,-0.8693287 -0.70507,0.1755508 -2.45157,1.1685701 1.55429,-0.9285081 0.0723,-0.037851 -0.12848,0.1020993 -0.18225,0.163487 -0.14382,0.1641687 -0.14945,0.226094 -0.22607,0.4213131 -0.0785,0.4882862 0.12392,0.6981786 0.5986,0.7385518 0.20223,0.020824 0.31235,-0.032107 0.4502,-0.1675765 0,0 -1.91808,1.5491599 -1.91808,1.5491599 l 0,0 c -0.18476,0.049029 -0.35575,0.066978 -0.54604,0.020347 -0.53514,-0.1634825 -0.84167,-0.5101274 -0.79791,-1.0939869 0.29462,-1.2609407 1.39599,-1.3990751 2.64796,-2.070326 0.0731,-0.039199 0.1628,-0.040443 0.24575,-0.039242 0.0764,0.00111 0.14973,0.030699 0.2246,0.046049 0.52876,0.3422239 0.45142,0.7617408 0.18274,1.2703221 -0.68622,0.9770041 -0.12894,0.2520341 -2.47475,1.6683865 -0.33562,0.2026417 -0.70655,0.2784418 -1.07475,0.1231328 -0.54148,-0.3642229 -0.56983,-0.7734827 -0.35406,-1.367056 0.62723,-1.3708845 2.11546,-2.1000676 3.51297,-2.5415574 0.64426,-0.058156 1.08329,0.1396125 1.17859,0.833072 -0.0627,1.6768014 -1.65125,2.2235823 -3.01602,2.9324067 -0.64503,0.2202911 -1.17057,0.2046013 -1.61886,-0.3671093 -0.33039,-0.7073483 -0.13982,-1.2341845 0.27856,-1.8617275 0.74127,-1.02958 0.16183,-0.3047154 2.54839,-1.7394796 0.34454,-0.2071288 0.73418,-0.2584473 1.11048,-0.1147185 0.46454,0.2492995 0.76164,0.6645828 1.00313,1.1269559 0,0 -2.13405,1.2368853 -2.13405,1.2368853 z"
       inkscape:connector-curvature="0"
       transform="translate(6.6292965,939.95564)" />
    <path
       style="fill:#ff0000;fill-opacity:1;stroke:#050101;stroke-width:0;stroke-miterlimit:0.30000001;stroke-opacity:1;stroke-dasharray:none"
       id="path5119"
       d="m 18.179753,60.006499 c -0.130231,-0.357444 -0.405755,-0.70928 -0.802588,-0.791229 -0.08679,-0.01792 -0.177212,-0.0032 -0.265818,-0.0049 -0.08444,-0.142758 -0.995675,0.426181 -0.936683,0.3953 0.574548,-0.300771 1.112443,-0.675277 1.708734,-0.93024 0.153225,-0.06552 -0.245164,0.226627 -0.355416,0.351586 -0.119504,0.135446 -0.221592,0.285314 -0.332388,0.427971 -0.511188,0.775981 -0.926707,1.685395 -0.883165,2.638496 0.0074,0.16219 0.04809,0.321138 0.07214,0.481707 0.279019,0.80591 0.917923,1.288378 1.774342,1.346107 0.183721,0.01238 0.368029,-0.01345 0.552044,-0.02018 0.192536,-0.05019 0.390306,-0.08343 0.577607,-0.150568 0.205335,-0.0736 0.779366,-0.388286 0.596033,-0.270101 -0.455507,0.293641 -0.922067,0.575989 -1.416115,0.798764 -0.227534,0.102599 0.416619,-0.276557 0.609454,-0.435026 0.529665,-0.435269 0.588361,-0.56496 1.008448,-1.092527 0.559594,-0.873049 0.969382,-1.943851 0.574528,-2.972539 -0.06225,-0.162165 -0.164771,-0.30584 -0.247157,-0.458761 -0.572743,-0.736919 -1.44436,-1.106714 -2.377403,-1.052454 -0.198024,0.01152 -0.392503,0.05767 -0.588755,0.08651 -0.191918,0.06937 -0.390892,0.121674 -0.575754,0.208107 -0.191567,0.08957 -0.737689,0.41343 -0.54907,0.317811 0.514818,-0.260984 0.983512,-0.623281 1.528219,-0.814186 0.205419,-0.07199 -0.329879,0.285525 -0.477146,0.445813 -0.384972,0.419013 -0.436315,0.572963 -0.714003,1.061275 -0.32133,0.752454 -0.665196,1.732145 -0.252187,2.527533 0.05844,0.112544 0.153778,0.201685 0.230667,0.302528 0.525723,0.370511 1.127808,0.334622 1.709377,0.105448 0.191226,-0.07535 0.73149,-0.374308 0.554211,-0.270299 -0.482166,0.282885 -0.979909,0.53834 -1.469864,0.80751 0.945644,-0.726096 1.783398,-1.646243 2.181687,-2.791781 0.06675,-0.19197 0.0982,-0.394445 0.147294,-0.591667 0.104061,-0.706464 -0.0175,-1.496636 -0.794476,-1.741342 -0.126132,-0.03972 -0.260473,-0.04585 -0.39071,-0.06878 -0.464573,0.0419 -0.450579,0.003 -0.896326,0.205911 -0.161122,0.07336 -0.623136,0.336348 -0.466225,0.254372 0.525484,-0.274534 1.013091,-0.634273 1.572,-0.832072 0.196289,-0.06947 -0.310871,0.278508 -0.448737,0.434547 -0.138094,0.156299 -0.251095,0.333091 -0.376642,0.499636 -0.477658,0.859862 -0.847338,1.881018 -0.653185,2.880731 0.02937,0.151247 0.09144,0.294268 0.137155,0.441401 0.650693,1.007449 1.321428,0.907304 2.33237,0.493114 -0.514165,0.287863 -1.006636,0.618466 -1.542497,0.863588 -0.18715,0.08561 0.334211,-0.241751 0.486268,-0.380432 0.155146,-0.141499 0.298722,-0.29613 0.432767,-0.457761 0.367254,-0.442834 0.572419,-0.890279 0.739346,-1.432313 0.128353,-1.122657 -0.620733,-1.084995 -1.471469,-0.881281 -0.169838,0.06598 -0.343642,0.122548 -0.509513,0.197948 -0.177891,0.08087 -0.689744,0.367424 -0.520263,0.270159 0.513275,-0.294569 1.016131,-0.610995 1.551945,-0.862243 0.170091,-0.07976 -0.305068,0.220252 -0.446508,0.343894 -0.352374,0.308034 -0.365282,0.364872 -0.624956,0.722712 -0.414399,0.890879 -0.144665,1.177376 0.746607,1.36223 0.708075,0.0018 1.41263,-0.205151 2.040991,-0.528062 0.167125,-0.08588 0.65044,-0.376255 0.484364,-0.288359 -0.550536,0.291372 -1.092125,0.599348 -1.638187,0.899022 0.193624,-0.106969 0.901103,-0.860835 0.29203,-0.91135 -0.111075,-0.0092 -0.222666,0.01047 -0.333999,0.0157 -0.567325,0.06678 -1.045265,0.34999 -1.534373,0.620382 0,0 1.854388,-1.489248 1.854388,-1.489248 l 0,0 c 0.530766,-0.264138 1.043205,-0.534481 1.652337,-0.546425 0.136145,0.01985 0.278961,0.01302 0.408437,0.05956 0.738068,0.265284 0.291732,1.034626 -0.102665,1.367471 -1.232968,0.746389 -2.982952,2.11192 -4.612627,2.198764 -0.167427,0.0089 -0.334912,-0.01674 -0.502367,-0.0251 -0.144176,-0.04297 -0.294904,-0.06815 -0.432528,-0.128918 -0.698118,-0.308261 -0.822056,-0.98827 -0.534385,-1.64056 0.08479,-0.132049 0.158352,-0.27203 0.254382,-0.396149 0.1793,-0.231747 0.554684,-0.614575 0.801301,-0.768783 1.170259,-0.731755 2.303408,-1.522493 3.625704,-1.923178 0.168912,-0.02401 0.336169,-0.06822 0.506737,-0.07202 0.597257,-0.01331 1.135778,0.286105 1.228935,0.91747 0.02212,0.149888 -0.0068,0.302946 -0.01018,0.45442 -0.04464,0.165077 -0.07528,0.334596 -0.13393,0.495231 -0.659107,1.805222 -2.443752,2.587594 -4.045156,3.417864 -0.180489,0.05586 -0.355965,0.131731 -0.541467,0.167587 -0.872348,0.168619 -1.597299,-0.210733 -2.013224,-0.977482 -0.05089,-0.162806 -0.118886,-0.321224 -0.152666,-0.48842 -0.211054,-1.044614 0.140069,-2.11615 0.594267,-3.043303 0.980939,-1.445452 1.335613,-1.384816 3.312765,-2.548357 0.454998,-0.267764 0.953532,-0.3903 1.478122,-0.338898 0.142761,0.04043 0.292023,0.06257 0.428283,0.121295 0.863667,0.372215 1.011822,1.187215 0.915683,2.032751 -0.04621,0.211081 -0.07354,0.427198 -0.138628,0.633242 -0.372553,1.179385 -1.198266,2.13654 -2.124517,2.922459 -0.870508,0.511498 -1.728806,1.044371 -2.611525,1.534494 -0.620869,0.344732 -1.450013,0.514847 -2.112161,0.179681 -0.134093,-0.06788 -0.244029,-0.175504 -0.366043,-0.263257 -0.08767,-0.123447 -0.194932,-0.235097 -0.263004,-0.370341 -0.431601,-0.857491 -0.138688,-1.890224 0.194871,-2.718341 0.265216,-0.514332 0.313961,-0.677038 0.687643,-1.126901 0.813697,-0.979584 1.786542,-1.314917 3.002828,-2.033051 0.185176,-0.109334 0.377692,-0.208444 0.578228,-0.286093 0.195789,-0.07581 0.403876,-0.114919 0.605814,-0.172379 0.205786,-0.01804 0.410784,-0.05436 0.61736,-0.05413 1.007484,0.0011 1.911695,0.452445 2.513702,1.253836 0.09049,0.17045 0.20195,0.331329 0.27148,0.511352 0.420095,1.087678 0.06575,2.22592 -0.506621,3.178341 -0.148841,0.201686 -0.283843,0.414359 -0.446523,0.605058 -0.288671,0.338391 -0.749367,0.773075 -1.133119,1.006513 -0.328743,0.199976 -2.262781,1.471482 -3.289975,1.765221 -0.200155,0.05724 -0.409439,0.07558 -0.614158,0.113365 -0.195165,-0.006 -0.391948,0.0077 -0.585495,-0.01814 -0.937804,-0.124969 -1.617766,-0.710101 -1.929055,-1.590407 -0.02899,-0.175215 -0.07483,-0.348463 -0.08698,-0.525645 -0.06759,-0.986257 0.321127,-1.942481 0.821505,-2.768275 0.933111,-1.341952 1.075098,-1.127063 3.066185,-2.323959 0.324165,-0.194864 0.663976,-0.299774 1.04342,-0.282201 0.632522,0.136044 0.97041,0.426922 1.234312,1.017689 0,0 -2.158741,1.188913 -2.158741,1.188913 z"
       inkscape:connector-curvature="0"
       transform="translate(6.6292965,939.95564)" />
    <path
       style="fill:#ff0000;fill-opacity:1;stroke:#050101;stroke-width:0;stroke-miterlimit:0.30000001;stroke-opacity:1;stroke-dasharray:none"
       id="path5121"
       d="m 63.211432,29.170707 c -0.248269,-0.190534 -0.493789,-0.268476 -0.789007,-0.117514 -0.08578,0.04387 -0.324421,0.207273 -0.23939,0.161972 0.612436,-0.326281 1.215215,-0.670373 1.822822,-1.005559 -0.61392,0.650492 -0.807241,1.467589 -0.729344,2.339156 0.219962,0.967245 0.761983,1.057617 1.641882,0.872397 0.526422,-0.216122 2.497541,-1.045085 -1.217468,0.745525 -0.161517,0.07785 0.291244,-0.210718 0.422723,-0.332627 0.443515,-0.411233 0.722449,-0.886073 0.987715,-1.420451 0.263555,-0.693034 0.488196,-1.529431 0.02979,-2.200653 -0.0578,-0.08464 -0.143049,-0.146825 -0.214574,-0.220237 -0.279895,-0.189882 -0.575237,-0.228948 -0.893987,-0.09284 -0.118105,0.05043 -0.442393,0.2605 -0.328111,0.20192 1.816367,-0.931044 2.176273,-1.428134 1.40633,-0.551952 -0.570076,0.891339 -0.864339,1.776081 -0.684588,2.83429 0.424867,0.927765 1.221335,0.768806 2.030099,0.473103 1.336162,-0.797452 -0.634305,0.388544 -1.124806,0.570222 -0.189844,0.07032 0.303972,-0.268809 0.439315,-0.419366 0.416169,-0.462952 0.645398,-0.964434 0.853141,-1.541267 0.123247,-0.640503 0.310688,-1.71735 -0.431939,-2.09253 -0.112445,-0.05681 -0.244171,-0.06217 -0.366256,-0.09326 -0.146766,0.01042 -0.29543,0.0055 -0.4403,0.03126 -0.170551,0.03029 -0.339669,0.07435 -0.501549,0.135993 -0.179891,0.0685 -0.685722,0.349358 -0.519238,0.252732 2.634371,-1.52896 1.597288,-0.970857 0.993971,-0.393067 -0.168966,0.161817 -0.316491,0.344632 -0.474737,0.516948 -0.541563,0.757 -1.132938,1.680898 -0.997462,2.664486 0.01758,0.127658 0.07192,0.24749 0.107872,0.371235 0.587867,0.862235 1.607634,0.577892 2.435871,0.278229 1.508188,-0.797548 -0.667736,0.438178 -1.030758,0.600418 -0.166906,0.07459 0.288243,-0.226489 0.416832,-0.356438 0.366505,-0.370382 0.553985,-0.77944 0.720427,-1.262122 0.116713,-0.758745 -0.132848,-1.323488 -0.940408,-1.486638 -0.160514,-0.03243 -0.326715,-0.02286 -0.490073,-0.03429 -0.479387,0.06645 -0.638607,0.05852 -1.097294,0.247516 -0.187181,0.07712 -0.715943,0.378158 -0.539669,0.278599 2.521439,-1.424105 1.708439,-1.07485 1.112838,-0.459462 -0.128871,0.133151 -0.238081,0.284016 -0.357122,0.426023 -0.372107,0.584939 -0.806742,1.419001 -0.439187,2.117396 0.05311,0.10091 0.141708,0.178696 0.212562,0.268044 0.867109,0.63078 1.682893,0.458102 2.610794,0.0763 -0.529919,0.29495 -1.042032,0.624453 -1.589758,0.88485 -0.162924,0.07746 0.293557,-0.211071 0.42726,-0.332181 0.637983,-0.577897 0.837008,-1.060633 1.017381,-1.8789 0.08686,-0.891074 -0.122388,-1.900923 -0.90198,-2.451958 -0.127159,-0.08988 -0.279536,-0.137292 -0.419304,-0.205937 -0.153085,-0.0183 -0.30617,-0.03661 -0.459255,-0.05491 0,0 1.972853,-1.380023 1.972853,-1.380023 l 0,0 c 0.16717,0.03972 0.334341,0.07945 0.501511,0.119172 0.149403,0.08886 0.311905,0.158698 0.44821,0.266579 0.802195,0.634918 1.072462,1.683349 1.012114,2.661075 -0.03249,0.190977 -0.04809,0.385608 -0.09746,0.572931 -0.467971,1.775396 -2.353077,2.490427 -3.799782,3.277145 -1.066797,0.360397 -1.886907,0.430049 -2.807588,-0.314299 -0.08388,-0.113199 -0.186536,-0.214654 -0.251649,-0.339596 -0.400105,-0.767744 -0.02976,-1.664698 0.361363,-2.344881 1.017926,-1.333422 1.359173,-1.291155 3.312452,-2.394174 0.531829,-0.300324 1.125952,-0.423625 1.730881,-0.42943 0.177568,0.0278 0.360081,0.03336 0.532703,0.08341 0.890186,0.2581 1.200169,0.93013 1.117926,1.799917 -0.122278,0.417416 -0.137564,0.563893 -0.367536,0.948346 -0.808707,1.351948 -2.444643,1.917652 -3.80931,2.564486 -0.801165,0.237425 -1.754885,0.438574 -2.421273,-0.236493 -0.100392,-0.101701 -0.165609,-0.232939 -0.248413,-0.349409 -0.04218,-0.143838 -0.103564,-0.28339 -0.126545,-0.431513 -0.161081,-1.038245 0.404075,-2.018235 0.955962,-2.842855 1.146556,-1.351741 1.580316,-1.44126 3.538758,-2.528931 0.489899,-0.272079 1.040636,-0.362961 1.590623,-0.292981 0.140347,0.05836 0.293913,0.09175 0.42104,0.175067 0.7752,0.508045 0.666319,1.572675 0.538769,2.352575 -0.06049,0.189833 -0.106459,0.384926 -0.181483,0.5695 -0.702184,1.727507 -2.430628,2.550241 -4.053911,3.309777 -0.754911,0.203465 -1.541417,0.313139 -2.066875,-0.426432 -0.08346,-0.117467 -0.131208,-0.256594 -0.196813,-0.384892 -0.02591,-0.146548 -0.06723,-0.291195 -0.07774,-0.439645 -0.06434,-0.908469 0.254961,-1.802897 0.685677,-2.584937 0.838206,-1.139286 0.267022,-0.467662 2.700644,-1.905115 0.47399,-0.279969 0.997206,-0.188009 1.408632,0.142168 0.081,0.09488 0.175759,0.179554 0.242996,0.284634 0.476545,0.74476 0.315492,1.626275 0.035,2.406462 -0.08136,0.186162 -0.147818,0.37957 -0.244072,0.558485 -0.808166,1.502196 -2.489109,2.407836 -4.057816,2.89005 -0.147064,0.01371 -0.293526,0.04441 -0.44119,0.04113 -0.765133,-0.01698 -1.264396,-0.514974 -1.407958,-1.243814 -0.01782,-0.15019 -0.05007,-0.299365 -0.05347,-0.450571 -0.01682,-0.748702 0.247582,-1.489486 0.667512,-2.098734 0.77968,-0.476911 1.550504,-0.968611 2.33904,-1.430732 0.425375,-0.24929 0.875089,-0.09326 1.227908,0.192917 0,0 -2.103745,1.289177 -2.103745,1.289177 z"
       inkscape:connector-curvature="0"
       transform="translate(6.6292965,939.95564)" />
    <path
       style="fill:#ff0000;fill-opacity:1;stroke:#050101;stroke-width:0;stroke-miterlimit:0.30000001;stroke-opacity:1;stroke-dasharray:none"
       id="path5123"
       d="m 58.841723,71.245625 c -0.371332,-0.585963 -0.826326,-1.074232 -1.481793,-1.325479 -0.254938,-0.02878 -0.37889,-0.07619 -0.627206,0.02835 -0.104748,0.0441 -0.386941,0.237648 -0.285538,0.186325 0.606991,-0.307216 1.170325,-0.706788 1.803826,-0.954774 0.133077,-0.05209 -0.180401,0.223231 -0.251592,0.347146 -0.07336,0.127693 -0.119812,0.269063 -0.179718,0.403594 -0.220772,0.686884 -0.272818,1.513251 0.358916,2.006513 0.113475,0.0886 0.248322,0.145752 0.372483,0.218629 0.699642,0.212214 1.391516,0.09242 2.041328,-0.225482 0.185713,-0.09085 0.720947,-0.40377 0.533972,-0.315542 -0.510885,0.241072 -1.004825,0.516532 -1.507237,0.774798 0.744295,-0.739727 1.399737,-1.678348 1.449875,-2.765142 0.0084,-0.182781 -0.02248,-0.36526 -0.03372,-0.54789 -0.167192,-0.8187 -0.622864,-1.589924 -1.487602,-1.808678 -0.144421,-0.03653 -0.296395,-0.0303 -0.444592,-0.04545 -0.148691,0.02483 -0.300867,0.03399 -0.446074,0.0745 -0.152828,0.04263 -0.295476,0.115711 -0.443215,0.173567 0.548167,-0.303499 1.071492,-0.657001 1.6445,-0.910497 0.163794,-0.07246 -0.279713,0.226223 -0.39925,0.359604 -0.316878,0.353578 -0.377048,0.550383 -0.584997,0.97313 -0.288007,0.832066 -0.34398,1.820984 0.256898,2.539694 0.09516,0.11382 0.217376,0.201961 0.326064,0.302942 0.411031,0.238222 0.837166,0.343083 1.307405,0.216063 0.164417,-0.04441 0.617084,-0.284932 0.471846,-0.195985 -2.160491,1.32314 -1.894785,1.14854 -1.116382,0.472575 0.747143,-0.847189 1.094047,-1.936605 0.995394,-3.064014 -0.01918,-0.219218 -0.07376,-0.433886 -0.110647,-0.650829 -0.07382,-0.191964 -0.12306,-0.395294 -0.221468,-0.575893 -0.366361,-0.672348 -1.07926,-1.101679 -1.839838,-1.127144 -0.193744,-0.0065 -0.386485,0.03074 -0.579728,0.04611 0.273718,-0.306461 -1.49041,0.666696 -1.122625,0.489518 0.512785,-0.247031 0.972313,-0.6268 1.522216,-0.773701 0.208225,-0.05563 -0.301821,0.309483 -0.430816,0.482145 -0.34292,0.459005 -0.355936,0.597023 -0.558821,1.121021 -0.18665,0.747339 -0.240362,1.70124 0.49551,2.186311 0.111108,0.07324 0.24321,0.1081 0.364816,0.16215 0.638158,0.137584 1.290527,0.05902 1.875559,-0.238323 0.160397,-0.08152 0.619061,-0.365672 0.457578,-0.286323 -0.554735,0.272587 -1.092757,0.577946 -1.639136,0.866919 0.464812,-0.507999 0.991651,-1.264116 0.758542,-2.000216 -0.03331,-0.105199 -0.103113,-0.195127 -0.15467,-0.292691 -0.08449,-0.06291 -0.15645,-0.147689 -0.253459,-0.188745 -0.383496,-0.162302 -0.89157,-0.04448 -1.255518,0.09535 -0.168333,0.06467 -0.642347,0.326836 -0.487792,0.233933 0.514129,-0.309043 1.045297,-0.58881 1.567946,-0.883214 -0.589545,0.459905 -1.287908,1.140074 -1.260082,1.963666 0.004,0.117211 0.05165,0.228797 0.07748,0.343196 0.06827,0.0925 0.120659,0.199164 0.204795,0.277509 0.519505,0.483749 1.343452,0.378965 1.970402,0.263302 0.12253,-0.04294 0.249156,-0.07561 0.36759,-0.128816 0.101645,-0.04566 0.387034,-0.221061 0.289859,-0.166528 -0.731691,0.410615 -2.557837,1.54718 -1.755186,0.948214 0,0 2.194023,-1.141687 2.194023,-1.141687 l 0,0 c 0.01471,0.06377 0.05357,0.126549 0.04413,0.191308 -0.0091,0.06239 -0.04266,0.129167 -0.09581,0.163086 -1.008545,0.643622 -1.855248,1.319979 -2.977707,1.58283 -0.913468,0.103505 -1.861159,0.03594 -2.374419,-0.836564 -0.03732,-0.140015 -0.0991,-0.275714 -0.111959,-0.420047 -0.07814,-0.876992 0.594734,-1.64062 1.193257,-2.178693 0.647271,-0.372482 3.170922,-2.366757 4.468664,-1.595348 0.116421,0.0692 0.201111,0.181456 0.301667,0.272184 0.06239,0.120716 0.143656,0.233418 0.187165,0.362149 0.270796,0.801195 -0.194757,1.628314 -0.672233,2.237939 -0.81721,0.513125 -1.628014,1.036596 -2.45163,1.539374 -0.759827,0.463838 -1.633921,0.61336 -2.488881,0.344579 -0.134971,-0.07494 -0.282122,-0.131261 -0.404915,-0.224835 -0.768439,-0.585582 -0.783319,-1.585875 -0.594341,-2.444637 0.06938,-0.206143 0.120489,-0.41937 0.208154,-0.618428 0.642559,-1.45904 1.837862,-1.845188 3.277517,-2.707764 0.48506,-0.290625 0.651946,-0.286292 1.189941,-0.412143 0.204919,-9.82e-4 0.411077,-0.02547 0.614757,-0.0029 0.823698,0.09109 1.568669,0.607133 1.958886,1.337736 0.104157,0.195014 0.158421,0.412819 0.237632,0.619228 0.04147,0.228252 0.100147,0.45404 0.124426,0.684756 0.122576,1.164758 -0.180908,2.31369 -0.899433,3.238705 -1.065018,1.085434 -0.52597,0.615918 -2.985168,1.909547 -0.280621,0.147617 -0.718475,0.190178 -1.027988,0.148634 -0.433729,-0.05822 -0.543956,-0.169567 -0.909891,-0.381941 -0.116849,-0.117867 -0.247932,-0.223154 -0.350547,-0.353602 -0.622225,-0.790996 -0.627687,-1.836029 -0.353278,-2.759159 0.194171,-0.453604 0.246334,-0.651972 0.543688,-1.048207 0.695647,-0.926974 1.890798,-1.327146 2.871915,-1.843967 0.146206,-0.07702 0.314282,-0.107081 0.477364,-0.133763 0.159087,-0.02603 0.322028,-0.01558 0.483042,-0.02337 0.159334,0.03345 0.324166,0.04704 0.478001,0.100335 0.913573,0.316505 1.40734,1.137559 1.605671,2.03814 0.01699,0.198025 0.05443,0.395353 0.05096,0.594075 -0.0198,1.132475 -0.649937,2.125101 -1.385316,2.936854 -0.851505,0.535379 -1.695024,1.083674 -2.554514,1.606135 -0.841952,0.5118 -1.8121,0.720664 -2.747256,0.350983 -0.136615,-0.09032 -0.28575,-0.164085 -0.409845,-0.270957 -0.666174,-0.573714 -0.694186,-1.456598 -0.483827,-2.247425 0.503715,-1.420072 0.906254,-1.235648 2.717397,-2.326919 0.326346,-0.196633 0.695086,-0.14636 1.038436,-0.04464 0.656381,0.320722 1.159174,0.835126 1.579235,1.429012 0,0 -2.123062,1.24405 -2.123062,1.24405 z"
       inkscape:connector-curvature="0"
       transform="translate(6.6292965,939.95564)" />
    <path
       style="fill:#ff0000;fill-opacity:1;stroke:#050101;stroke-width:0;stroke-miterlimit:0.30000001;stroke-opacity:1;stroke-dasharray:none"
       id="path5125"
       d="m 108.68712,55.038435 c -0.22201,-0.565603 -0.45707,-1.134009 -0.90416,-1.558446 -0.0617,-0.02786 -0.11885,-0.06983 -0.18516,-0.08358 -0.15179,-0.03148 -0.31042,0.02268 -0.43949,0.09652 -0.0979,0.05599 -0.37492,0.248769 -0.27405,0.198352 1.81089,-0.905141 2.19832,-1.481343 1.44011,-0.552098 -0.47833,0.735154 -0.88635,1.652265 -0.62453,2.547395 0.041,0.140066 0.12404,0.2642 0.18606,0.396299 0.097,0.100839 0.18059,0.21654 0.29097,0.302518 0.55748,0.434247 1.33399,0.438621 1.98895,0.270027 0.20778,-0.05348 0.40483,-0.142246 0.60725,-0.213369 1.6325,-0.907999 -0.55342,0.351248 -0.85633,0.471216 -0.20975,0.08307 0.36068,-0.272613 0.52463,-0.427587 0.47613,-0.450054 0.6993,-0.857666 0.93102,-1.454794 0.15791,-0.755342 -0.0878,-1.491708 -0.86299,-1.769484 -0.14817,-0.0531 -0.30718,-0.06884 -0.46077,-0.103253 -0.47154,0.01128 -0.52867,-0.02145 -0.98725,0.12971 -0.16778,0.0553 -0.63818,0.299637 -0.48812,0.206412 3.18107,-1.976299 1.59192,-0.955299 1.14555,-0.525761 -0.13259,0.127595 -0.24535,0.274311 -0.36802,0.411467 -0.40774,0.605679 -0.71723,1.424626 -0.26098,2.100466 0.0704,0.104325 0.17261,0.183254 0.25891,0.274881 1.02135,0.564836 1.81757,0.306459 2.77238,-0.240019 -0.53487,0.27896 -1.03642,0.634249 -1.60461,0.836882 -0.1669,0.05952 0.25154,-0.251247 0.35853,-0.3925 0.10519,-0.138869 0.20196,-0.286227 0.27528,-0.444257 0.25278,-0.544816 0.20441,-0.880158 0.0685,-1.434625 -0.40899,-0.832336 -1.23792,-1.220303 -2.15262,-1.166177 -0.20317,0.01202 -0.40127,0.06833 -0.60191,0.102501 -0.19833,0.06826 -0.40409,0.117899 -0.59501,0.204779 -0.18962,0.08629 -0.72856,0.403691 -0.54133,0.312338 0.52297,-0.255174 0.99552,-0.625939 1.54944,-0.804223 0.19498,-0.06276 -0.29882,0.282261 -0.42617,0.44269 -0.32097,0.404341 -0.33579,0.540215 -0.51845,1.005633 -0.16905,0.747341 0.0205,1.509223 0.8166,1.771647 0.14702,0.04847 0.30381,0.0597 0.45571,0.08955 0.44405,0.0057 0.55141,0.03889 0.98724,-0.08551 0.15948,-0.04552 0.60426,-0.268939 0.46308,-0.181917 -3.5738,2.202912 -1.66784,1.011241 -1.28493,0.601731 0.0983,-0.105089 0.16991,-0.232224 0.25486,-0.348336 0.30827,-0.692752 0.0445,-1.35957 -0.67231,-1.641213 -0.15293,-0.06009 -0.31814,-0.08235 -0.47721,-0.123526 -0.17788,-0.0025 -0.35576,-0.0051 -0.53364,-0.0076 0,0 1.94616,-1.398404 1.94616,-1.398404 l 0,0 c 0.19035,0.01682 0.3807,0.03364 0.57106,0.05045 0.17188,0.05693 0.35195,0.09342 0.51566,0.170784 0.79511,0.375747 1.12384,1.154124 0.8615,1.980242 -0.0794,0.134136 -0.14322,0.278815 -0.2382,0.402409 -0.10029,0.130509 -0.20434,0.266875 -0.34358,0.354644 -0.95843,0.604136 -2.21445,1.619141 -3.51016,1.636659 -0.17387,0.0024 -0.34666,-0.02772 -0.51999,-0.04158 -0.16519,-0.04625 -0.33758,-0.07193 -0.49558,-0.138754 -0.85871,-0.363168 -1.1208,-1.219191 -0.96598,-2.079413 0.16535,-0.490492 0.18415,-0.659177 0.48945,-1.094497 0.70312,-1.002542 1.90547,-1.438445 2.93318,-2.054937 0.18048,-0.108263 0.3708,-0.201944 0.56759,-0.276543 0.20101,-0.0762 0.41399,-0.11601 0.62099,-0.174015 0.21223,-0.02117 0.4234,-0.06427 0.63668,-0.06352 1.00966,0.0035 1.87576,0.502338 2.32211,1.408408 0.0471,0.173111 0.11789,0.341457 0.14119,0.519332 0.25863,1.974425 -1.87076,2.746493 -3.21904,3.559518 -0.17383,0.08353 -0.3411,0.182395 -0.52151,0.25059 -0.83001,0.313753 -1.72545,0.265095 -2.45505,-0.254732 -0.0985,-0.112508 -0.2137,-0.21236 -0.29552,-0.337524 -0.49025,-0.749904 -0.25696,-1.642357 0.16219,-2.357642 1.02295,-1.267616 1.41788,-1.287524 3.3165,-2.300132 0.47746,-0.254648 1.04747,-0.275448 1.56951,-0.219643 0.16638,0.05057 0.34027,0.08099 0.49913,0.151701 0.84088,0.37428 1.14848,1.203364 1.0154,2.069992 -0.0594,0.177381 -0.10136,0.361612 -0.17827,0.532143 -0.77542,1.719477 -2.93252,2.572576 -4.47516,3.350464 -0.21328,0.06137 -0.42202,0.14161 -0.63985,0.184116 -0.72992,0.142435 -1.55613,0.0574 -2.13849,-0.44551 -0.1241,-0.107169 -0.21753,-0.245413 -0.32629,-0.368119 -0.0705,-0.152916 -0.16269,-0.297598 -0.21153,-0.458748 -0.28494,-0.940095 0.0663,-1.912353 0.54012,-2.718676 0.79581,-1.183479 0.20608,-0.428734 2.65798,-1.930791 0.37339,-0.228739 0.75143,-0.232132 1.0936,0.04321 0.43383,0.467911 0.70168,1.036452 0.95939,1.615196 0,0 -2.14023,1.218614 -2.14023,1.218614 z"
       inkscape:connector-curvature="0"
       transform="translate(6.6292965,939.95564)" />
    <path
       style="fill:#ff0000;fill-opacity:1;stroke:#050101;stroke-width:0;stroke-miterlimit:0.30000001;stroke-opacity:1;stroke-dasharray:none"
       id="path5127"
       d="m 104.74848,4.7553587 c -0.7129,0.3100084 -1.54834,0.6845992 1.46644,-0.8598324 0.13213,-0.067688 -0.2433,0.1711423 -0.35511,0.2688064 -0.37699,0.3293058 -0.6264,0.7068891 -0.87329,1.1357674 -0.26781,0.5717594 -0.49714,1.305745 -0.0412,1.8537973 0.0683,0.082136 0.15986,0.1418104 0.23978,0.2127157 0.90913,0.3893581 1.77729,0.021534 2.57144,-0.4503636 -0.52048,0.2843848 -1.01425,0.6243552 -1.56145,0.8531542 -0.18299,0.076513 0.31068,-0.248043 0.45056,-0.3886613 0.1372,-0.1379295 0.26444,-0.2867068 0.37824,-0.4445065 0.33477,-0.4642294 0.5065,-0.9578823 0.6509,-1.5030616 0.10162,-0.6280723 0.0253,-1.3868963 -0.6623,-1.6453911 -0.11792,-0.044329 -0.24641,-0.052548 -0.36962,-0.078823 -0.37409,0.026898 -0.48,0.00459 -0.83904,0.1583584 -0.15202,0.065109 -0.57869,0.3205222 -0.43379,0.2408078 0.53537,-0.2945146 1.0463,-0.6382121 1.60518,-0.8852097 0.17186,-0.075953 -0.2966,0.2322915 -0.42915,0.3654632 -0.13253,0.1331557 -0.24226,0.2872084 -0.3634,0.4308126 -0.42718,0.6479613 -0.8153,1.467217 -0.53973,2.2569771 0.0396,0.1135216 0.10908,0.2143014 0.16362,0.3214521 0.62782,0.7417997 1.37351,0.4582438 2.11435,0.070552 -0.55078,0.298721 -1.07435,0.6542437 -1.65233,0.8961629 -0.16246,0.068 0.26626,-0.2321986 0.38238,-0.3646167 0.11871,-0.1353726 0.2238,-0.2830241 0.31935,-0.4356263 0.29876,-0.4771276 0.398,-0.8581382 0.45857,-1.4065814 -0.0559,-0.7566238 -0.44168,-1.2435433 -1.22545,-1.3362932 -0.15937,-0.018861 -0.32098,4.85e-4 -0.48147,7.275e-4 -0.17626,0.034109 -0.35697,0.050263 -0.52879,0.102328 -0.18501,0.05606 -0.69889,0.3251815 -0.53641,0.2204501 0.48664,-0.3136692 0.98793,-0.609598 1.51429,-0.8507561 0.19206,-0.087994 -0.34466,0.2458928 -0.50194,0.3869311 -0.40587,0.3639544 -0.48654,0.5195966 -0.80271,0.9508397 -0.35282,0.5968446 -0.78283,1.451666 -0.31337,2.1178125 0.0647,0.091836 0.16452,0.1530496 0.24678,0.2295744 0.52636,0.2470918 1.09487,0.1997792 1.61993,-0.038903 0.15685,-0.071297 0.59882,-0.3408014 0.44613,-0.2609901 -0.54599,0.2853977 -1.08428,0.585297 -1.62642,0.8779455 0.5947,-0.53825 1.1747,-1.3136023 1.06958,-2.1723469 -0.016,-0.1306022 -0.0747,-0.2523444 -0.11197,-0.3785165 -0.38729,-0.6701305 -1.12592,-0.8400682 -1.84605,-0.6244193 -0.16907,0.050628 -0.3248,0.1381645 -0.4872,0.2072468 0.52122,-0.2895336 1.01923,-0.6255072 1.56366,-0.8686007 0.18295,-0.08169 -0.32119,0.2410622 -0.4667,0.3788005 -0.14947,0.1414819 -0.28891,0.2944028 -0.41572,0.456496 -0.40763,0.5210213 -0.55209,0.911608 -0.69061,1.5429461 -0.0265,0.8373436 0.31217,1.4206338 1.19037,1.5510679 0.17569,0.026095 0.35483,0.017159 0.53224,0.025738 0.51925,-0.072791 0.64385,-0.062561 1.14778,-0.2497208 0.18897,-0.070183 0.72321,-0.3543499 0.55037,-0.2506275 -3.0513,1.8310156 -1.58386,0.9602999 -1.13722,0.494873 0.11165,-0.1163364 0.19706,-0.2552621 0.29559,-0.3828931 0.33788,-0.5971656 0.26717,-1.3015919 -0.44422,-1.5609176 -0.13614,-0.049627 -0.28243,-0.064939 -0.42365,-0.097409 -0.65267,0.017791 -0.32451,-0.022995 -0.98358,0.1293449 0,0 1.91559,-1.4469875 1.91559,-1.4469875 l 0,0 c 0.70822,-0.1049038 0.35574,-0.090552 1.05726,-0.047145 0.15442,0.049352 0.31662,0.078935 0.46327,0.1480561 0.55984,0.26389 0.90043,0.8408082 0.78509,1.4657018 -0.0291,0.1574623 -0.10869,0.3012352 -0.16304,0.4518529 -0.0949,0.1442482 -0.17444,0.2999598 -0.28486,0.4327445 -0.70069,0.842628 -2.36883,1.5696607 -2.95373,1.891949 -0.53704,0.295922 -1.174,0.384784 -1.77468,0.4138208 -0.1909,-0.021502 -0.3855,-0.021399 -0.5727,-0.064507 -0.95828,-0.220658 -1.35767,-0.9268595 -1.35721,-1.8576954 0.0323,-0.1861032 0.0444,-0.376902 0.097,-0.5583095 0.54685,-1.8843919 2.37025,-2.6133515 3.95925,-3.4763318 0.17504,-0.055575 0.34499,-0.1308927 0.52511,-0.1667261 0.83901,-0.1669196 1.62319,0.1492629 2.03859,0.9002062 0.0476,0.1488372 0.11837,0.2921701 0.1428,0.4465118 0.14309,0.9039878 -0.39277,1.7632012 -0.98973,2.3793659 -0.82561,0.5040853 -1.64274,1.0223455 -2.47683,1.512256 -0.7134,0.4190165 -1.54425,0.5007576 -2.26241,0.06379 -0.0962,-0.1021786 -0.21073,-0.1898301 -0.28872,-0.306536 -0.50053,-0.7490005 -0.16079,-1.6575103 0.23643,-2.3578873 0.3066,-0.4532983 0.38782,-0.6191907 0.78102,-1.0118516 0.84196,-0.8408055 2.13161,-1.3995848 3.08011,-1.8980401 0.17701,-0.093019 0.375,-0.1427924 0.57005,-0.1868047 0.1848,-0.041698 0.37609,-0.046073 0.56413,-0.06911 0.17386,0.014639 0.35062,0.00913 0.52159,0.043916 0.87169,0.1773724 1.29753,0.7738446 1.38779,1.6224348 -0.0108,0.1704521 -0.003,0.343157 -0.0325,0.5113564 -0.0607,0.3443967 -0.21622,0.7078705 -0.38342,1.0113728 -0.6865,1.2461603 -1.80471,1.6460163 -3.13153,2.3632764 -0.92192,0.3901194 -1.65006,0.4859683 -2.33545,-0.3708126 -0.0632,-0.125588 -0.14243,-0.2442945 -0.18946,-0.3767639 -0.3009,-0.8473806 0.0329,-1.7341625 0.47153,-2.4607904 0.97417,-1.3100992 1.40649,-1.2955979 3.26661,-2.3531922 0.43411,-0.2468213 0.89853,-0.3315825 1.39056,-0.2685623 0.13797,0.045793 0.28383,0.07248 0.41392,0.1373794 0.73307,0.3657392 0.88883,1.1790911 0.78526,1.9194224 -0.55061,2.4039354 -1.73306,2.7305348 -3.94627,4.0237839 -0.9016,0.4590054 -1.83493,0.7683247 -2.77647,0.223327 -0.091,-0.090463 -0.19464,-0.1697766 -0.273,-0.2713893 -0.48286,-0.6262057 -0.34709,-1.4129577 -0.0545,-2.0859027 0.20054,-0.3902998 0.23499,-0.5011646 0.50619,-0.8515545 0.83569,-1.0797107 2.18064,-1.6321607 3.3829,-2.2031969 0,0 -1.92922,1.5246902 -1.92922,1.5246902 z"
       inkscape:connector-curvature="0"
       transform="translate(6.6292965,939.95564)" />
  </g>
</svg>
