<?xml version="1.0" encoding="UTF-8" standalone="no"?>
<!-- Created with Inkscape (http://www.inkscape.org/) -->

<svg
   xmlns:dc="http://purl.org/dc/elements/1.1/"
   xmlns:cc="http://creativecommons.org/ns#"
   xmlns:rdf="http://www.w3.org/1999/02/22-rdf-syntax-ns#"
   xmlns:svg="http://www.w3.org/2000/svg"
   xmlns="http://www.w3.org/2000/svg"
   xmlns:sodipodi="http://sodipodi.sourceforge.net/DTD/sodipodi-0.dtd"
   xmlns:inkscape="http://www.inkscape.org/namespaces/inkscape"
   width="320"
   height="94.949997"
   id="svg2"
   version="1.1"
   inkscape:version="0.48.3.1 r9886"
   inkscape:export-filename="integral.png"
   inkscape:export-xdpi="150"
   inkscape:export-ydpi="150"
   sodipodi:docname="graf.svg">
  <defs
     id="defs4" />
  <sodipodi:namedview
     id="base"
     pagecolor="#9fffa7"
     bordercolor="#666666"
     borderopacity="1.0"
     inkscape:pageopacity="0"
     inkscape:pageshadow="2"
     inkscape:zoom="3.43125"
     inkscape:cx="160.58288"
     inkscape:cy="83.421974"
     inkscape:document-units="px"
     inkscape:current-layer="layer1"
     showgrid="false"
     inkscape:window-width="1231"
     inkscape:window-height="776"
     inkscape:window-x="49"
     inkscape:window-y="24"
     inkscape:window-maximized="1"
     fit-margin-top="0"
     fit-margin-left="0"
     fit-margin-right="0"
     fit-margin-bottom="0" />
  <metadata
     id="metadata7">
    <rdf:RDF>
      <cc:Work
         rdf:about="">
        <dc:format>image/svg+xml</dc:format>
        <dc:type
           rdf:resource="http://purl.org/dc/dcmitype/StillImage" />
        <dc:title></dc:title>
      </cc:Work>
    </rdf:RDF>
  </metadata>
  <g
     inkscape:label="Layer 1"
     inkscape:groupmode="layer"
     id="layer1"
     transform="translate(-6.6292965,-936.95566)">
    <path
       style="fill:#808000;fill-opacity:1;stroke:#050101;stroke-width:0;stroke-miterlimit:4;stroke-opacity:1;stroke-dasharray:none"
       id="path4617"
       d="m 58.06125,972.90793 c -0.251679,0.69329 -0.518713,1.37857 -0.838883,2.04333 -0.591241,1.3917 -0.171205,0.44954 -3.966564,1.85207 -0.105604,0.039 0.0137,-0.22525 0.03337,-0.3361 0.126649,-0.71342 0.333759,-1.4246 0.500914,-2.12874 0.594549,-2.41063 1.075131,-4.84189 1.390404,-7.30442 0.114615,-0.87725 0.226368,-1.75484 0.333147,-2.63308 0.01662,-0.13669 0.03394,-0.27331 0.04986,-0.41009 0.007,-0.0602 -0.03459,-0.15241 0.01893,-0.1809 1.275759,-0.67922 2.597217,-1.26889 3.895825,-1.90333 0.11942,1.38376 0.600567,2.6454 1.275445,3.84662 0.658113,0.98423 1.561566,1.89802 2.763533,2.15473 0.184871,0.0395 0.376009,0.0395 0.564013,0.0593 0.169939,-0.0172 0.343977,-0.0106 0.509815,-0.0515 0.15558,-0.0384 0.301728,-0.11042 0.444234,-0.18369 0.140256,-0.0721 0.539413,-0.3267 0.401098,-0.25093 -5.1395,2.81532 -3.664575,2.56538 -2.711207,1.08671 0.342648,-0.605 0.425038,-1.29451 0.592581,-1.95621 1.316293,-0.6622 2.574062,-1.45648 3.94888,-1.98658 0.141299,-0.0545 0.195802,0.23148 0.284305,0.35436 0.118915,0.16511 0.231422,0.33501 0.337323,0.50876 0.585844,0.96115 1.084582,1.97798 1.601666,2.97642 1.898514,3.5893 3.595339,7.27867 5.322626,10.95181 2.294296,4.82771 4.201995,9.81578 5.947596,14.86314 1.72384,5.05582 3.326444,10.15139 4.65765,15.32489 0.765046,3.4122 1.629654,6.8794 1.612106,10.4019 -0.0026,0.5265 -0.05583,1.0516 -0.08375,1.5774 -0.168426,1.2094 -0.444643,2.4366 -1.183916,3.4417 -1.24292,1.6898 -5.009607,3.1374 -6.149573,3.7295 -2.214404,0.4094 -4.416335,-0.089 -6.421511,-1.0608 -0.462546,-0.224 -0.902131,-0.4927 -1.353197,-0.7391 -3.083519,-1.9159 -5.445999,-4.6663 -7.608395,-7.5331 -1.773562,-2.5132 -3.375979,-5.1979 -4.258156,-8.1667 -0.163135,-0.549 -0.269798,-1.1132 -0.404697,-1.6698 -0.599823,-3.1003 -0.02906,-6.1685 1.110365,-9.0759 0.25461,-0.64965 0.557328,-1.27942 0.835992,-1.91915 1.796315,-3.87113 4.221698,-7.39506 6.772448,-10.7991 0,0 3.620547,-1.55836 3.620547,-1.55836 l 0,0 c -2.575357,3.3696 -5.024155,6.8654 -6.824578,10.72151 -0.278276,0.62856 -0.580259,1.24715 -0.83483,1.88568 -1.126059,2.82442 -1.712861,5.82062 -1.153129,8.84402 0.125709,0.5462 0.223467,1.0996 0.377126,1.6387 0.837897,2.9393 2.410106,5.6 4.166488,8.0748 2.144541,2.8241 4.498128,5.5135 7.584821,7.3435 0.447016,0.2323 0.882447,0.4884 1.341048,0.6969 1.992056,0.9056 4.168593,1.3147 6.315907,0.7709 -0.852095,0.5559 -1.722656,1.0844 -2.556285,1.6676 -0.279151,0.1953 0.613128,-0.3039 0.890233,-0.502 1.317144,-0.9421 1.852911,-2.4511 2.126387,-3.9849 0.0459,-0.5208 0.118733,-1.0398 0.137706,-1.5623 0.1276,-3.5137 -0.701155,-6.9899 -1.430702,-10.3986 -1.282441,-5.1795 -2.870991,-10.2734 -4.592171,-15.32344 -0.653095,-1.885 -1.139426,-3.3378 -1.852606,-5.20052 -1.245315,-3.25257 -2.674729,-6.42997 -4.147592,-9.58456 -1.757776,-3.64647 -3.490514,-7.30972 -5.50202,-10.82586 -0.544124,-0.96248 -1.070484,-1.94547 -1.718663,-2.84434 -0.108385,-0.15031 -0.22089,-0.29869 -0.347997,-0.43353 -0.06165,-0.0654 -0.289841,-0.11415 -0.214584,-0.16329 1.176937,-0.76861 2.442206,-1.39261 3.663309,-2.08892 -0.05314,-1.7e-4 -0.119167,-0.0352 -0.159433,-5.3e-4 -0.19314,0.16637 -0.296956,1.64212 -0.556699,1.86496 -0.949193,1.94792 -1.833913,1.74048 -4.512449,3.32251 -0.45588,0.26926 -0.986493,0.30499 -1.498994,0.25488 -1.622032,-0.35945 -2.579954,-1.18042 -3.48376,-2.56271 -0.665551,-1.19122 -1.212293,-2.44202 -1.434352,-3.79869 1.272934,-0.69134 2.532027,-1.40879 3.818801,-2.07401 0.05196,-0.0269 -0.07434,0.0931 -0.0938,0.14831 -0.04826,0.13681 -0.07736,0.27983 -0.107294,0.42178 -0.186546,0.88461 -0.28743,1.78518 -0.440324,2.67551 -0.327493,2.45548 -0.795202,4.88459 -1.313857,7.30655 -0.136522,0.68143 -0.259744,1.36461 -0.390662,2.0468 -0.01379,0.0718 0.01126,0.17766 -0.05278,0.213 -1.278832,0.70574 -2.603876,1.32438 -3.911694,1.97484 -0.02702,0.0134 0.04392,-0.0414 0.06588,-0.0621 0.452377,-0.5584 0.652713,-1.28228 0.884617,-1.94931 0,0 3.914099,-1.8382 3.914099,-1.8382 z"
       inkscape:connector-curvature="0" />
    <path
       style="fill:#808000;fill-opacity:1;stroke:#050101;stroke-width:0;stroke-miterlimit:4;stroke-opacity:1;stroke-dasharray:none"
       id="path4619"
       d="m 78.559743,942.31665 c 0.923641,1.18398 1.962743,2.27185 2.994301,3.36095 1.51152,1.54819 2.985844,3.13095 4.324662,4.8317 0.638463,0.93834 0.340226,0.4704 0.898303,1.40153 0,0 -3.638725,2.10418 -3.638725,2.10418 l 0,0 c -0.523247,-0.91214 -0.244156,-0.45378 -0.84036,-1.3732 -1.302218,-1.70969 -2.757363,-3.29103 -4.281943,-4.80501 -1.057487,-1.07812 -2.105173,-2.16567 -3.147532,-3.25812 0,0 3.691294,-2.26203 3.691294,-2.26203 z"
       inkscape:connector-curvature="0" />
    <path
       style="fill:#808000;fill-opacity:1;stroke:#050101;stroke-width:0;stroke-miterlimit:4;stroke-opacity:1;stroke-dasharray:none"
       id="path4621"
       d="m 101.26624,963.89456 c 1.64223,-10e-4 3.28462,-0.24227 4.90992,-0.46705 1.2193,-0.17897 2.44605,-0.29232 3.67303,-0.40118 0,0 -3.29944,2.44365 -3.29944,2.44365 l 0,0 c -1.22724,0.11648 -2.45408,0.23839 -3.6731,0.42561 -1.69513,0.24017 -3.397857,0.48634 -5.110771,0.54213 0,0 3.500361,-2.54316 3.500361,-2.54316 z"
       inkscape:connector-curvature="0" />
    <path
       style="fill:#808000;fill-opacity:1;stroke:#050101;stroke-width:0;stroke-miterlimit:4;stroke-opacity:1;stroke-dasharray:none"
       id="path4623"
       d="m 103.95596,970.7887 c 1.11496,-0.26619 2.24483,-0.44882 3.37551,-0.63311 0,0 -3.29328,2.48059 -3.29328,2.48059 l 0,0 c -1.17664,0.21782 -2.35134,0.44279 -3.50697,0.75703 0,0 3.42474,-2.60451 3.42474,-2.60451 z"
       inkscape:connector-curvature="0" />
    <path
       style="fill:#808000;fill-opacity:1;stroke:#050101;stroke-width:0;stroke-miterlimit:4;stroke-opacity:1;stroke-dasharray:none"
       id="path4625"
       d="m 97.930423,965.85484 c -0.50867,-0.007 -1.01827,-0.0162 -1.526732,0.006 -0.01204,0.002 -0.04628,0.0126 -0.03613,0.006 1.25203,-0.83484 2.472107,-1.72098 3.764489,-2.4919 0.0938,-0.056 0.21511,0.0391 0.32344,0.0534 0.1546,0.0204 0.30974,0.0368 0.46505,0.0508 0.55283,0.05 0.8437,0.0593 1.42038,0.09 2.663,-0.005 5.32073,-0.19671 7.98122,-0.2978 2.8357,-0.12924 5.66829,-0.38083 8.50795,-0.39716 1.12104,0.021 0.59321,-0.0122 1.58435,0.0848 0,0 -3.44448,2.44993 -3.44448,2.44993 l 0,0 c -0.92614,-0.0968 -0.42874,-0.0595 -1.49315,-0.0982 -2.80321,-0.0146 -5.60094,0.20647 -8.39962,0.33898 -2.71404,0.12328 -5.42435,0.34987 -8.141797,0.37111 -0.666651,-0.023 -1.330423,-0.0449 -1.994027,-0.11557 -1.869282,-0.19918 1.365792,-1.3767 2.978,-2.59859 0.503214,0.0244 1.007934,0.0103 1.511414,0.006 0,0 -3.500361,2.54316 -3.500361,2.54316 z"
       inkscape:connector-curvature="0" />
    <path
       style="fill:#808000;fill-opacity:1;stroke:#050101;stroke-width:0;stroke-miterlimit:4;stroke-opacity:1;stroke-dasharray:none"
       id="path4627"
       d="m 101.27967,971.70625 c 1.65511,-0.27628 3.32569,-0.43221 4.99326,-0.60984 2.50899,-0.25008 5.02065,-0.46821 7.53018,-0.71308 1.52888,-0.15314 3.06186,-0.25807 4.5955,-0.34906 0.38072,-0.0432 0.67526,-0.0132 0.9073,0.29465 0,0 -3.72788,2.23858 -3.72788,2.23858 l 0,0 c -0.16057,7e-4 -0.45091,-0.0176 -0.6349,-3.8e-4 -1.48498,0.0353 -2.96758,0.13316 -4.44687,0.26668 -2.51271,0.22933 -5.0266,0.4438 -7.53433,0.72441 -1.72001,0.19739 -3.440959,0.39338 -5.139763,0.73581 0,0 3.457503,-2.58777 3.457503,-2.58777 z"
       inkscape:connector-curvature="0" />
    <path
       style="fill:#808000;fill-opacity:1;stroke:#050101;stroke-width:0;stroke-miterlimit:4;stroke-opacity:1;stroke-dasharray:none"
       id="path4629"
       d="m 148.6726,951.07572 c 0.11198,-1.16495 -0.0237,-2.19784 -0.45947,-3.28139 -0.4724,-0.86034 -1.15155,-1.78563 -2.22119,-1.87035 -0.19132,-0.0152 -0.3831,0.0239 -0.57465,0.0358 -0.20512,0.0725 -0.4192,0.12345 -0.61537,0.21753 -0.22323,0.10705 -0.85588,0.49747 -0.63646,0.38281 0.96674,-0.50515 1.86344,-1.15759 2.87931,-1.55479 0.31749,-0.12414 -0.50732,0.45792 -0.73127,0.71493 -0.66907,0.76784 -0.78827,1.09952 -1.29156,2.0038 -1.36892,2.97292 -1.22925,6.1006 -0.90843,9.27345 0.4421,3.50804 1.77154,6.76544 3.24562,9.94524 1.5641,3.06887 3.03862,6.18159 4.46698,9.31556 0.96906,2.22825 1.89569,4.47779 2.7273,6.76134 0,0 -3.67341,2.02503 -3.67341,2.02503 l 0,0 c -0.72185,-2.31555 -1.61335,-4.57636 -2.5594,-6.8085 -1.40883,-3.14231 -2.85582,-6.26735 -4.43412,-9.329 -1.50226,-3.21407 -2.84098,-6.51232 -3.31751,-10.05709 -0.34,-3.17741 -0.54793,-6.42257 0.71386,-9.44357 0.47032,-0.94766 0.56689,-1.26338 1.19837,-2.08814 1.31101,-1.71228 2.75601,-2.08845 4.96618,-3.39325 0.22283,-0.13155 0.46105,-0.24054 0.70737,-0.31983 0.22537,-0.0725 0.46521,-0.0883 0.69781,-0.13246 0.21397,0.0189 0.432,0.011 0.64191,0.0566 1.14161,0.24788 1.87502,1.23811 2.40627,2.19993 0.49255,1.16017 0.64191,2.12844 0.62696,3.3821 0,0 -3.8551,1.96427 -3.8551,1.96427 z"
       inkscape:connector-curvature="0" />
    <path
       style="fill:#808000;fill-opacity:1;stroke:#050101;stroke-width:0;stroke-miterlimit:4;stroke-opacity:1;stroke-dasharray:none"
       id="path4631"
       d="m 138.87736,969.8541 c 2.2903,-0.62222 4.63129,-1.03419 6.94767,-1.5473 2.49863,-0.57477 1.22672,-0.27825 3.81553,-0.89041 0,0 -3.12629,2.38547 -3.12629,2.38547 l 0,0 c -2.62452,0.63463 -1.33409,0.32617 -3.87113,0.92608 -2.39473,0.54694 -4.83281,0.97558 -7.15768,1.78151 0,0 3.3919,-2.65535 3.3919,-2.65535 z"
       inkscape:connector-curvature="0" />
    <path
       style="fill:#808000;fill-opacity:1;stroke:#050101;stroke-width:0;stroke-miterlimit:4;stroke-opacity:1;stroke-dasharray:none"
       id="path4633"
       d="m 174.01127,957.49729 c -1.40482,0.96263 -2.36342,2.44599 -3.30553,3.83175 -1.4186,2.26135 -2.57641,4.7061 -3.05913,7.34944 -0.10139,0.55522 -0.14197,1.11983 -0.21295,1.67975 -0.16812,2.64188 0.35577,5.24898 1.75738,7.51477 0.25765,0.41652 0.56366,0.80111 0.84549,1.20166 1.47879,1.8399 3.41595,3.18666 5.61333,4.03181 0.4224,0.16247 0.85901,0.28525 1.28852,0.42787 0,0 -3.3761,2.28634 -3.3761,2.28634 l 0,0 c -0.4346,-0.15384 -0.87637,-0.28878 -1.30381,-0.46152 -2.24382,-0.90678 -4.21249,-2.32138 -5.7127,-4.22863 -0.2883,-0.41498 -0.60127,-0.81388 -0.86491,-1.24494 -1.43319,-2.3433 -1.98292,-5.02525 -1.83636,-7.75188 0.064,-0.57271 0.0969,-1.14973 0.19185,-1.71812 0.44445,-2.66044 1.55567,-5.1339 2.91712,-7.4422 0.88632,-1.3919 1.79604,-2.79341 3.01992,-3.91831 0,0 4.03788,-1.55779 4.03788,-1.55779 z"
       inkscape:connector-curvature="0" />
    <path
       style="fill:#808000;fill-opacity:1;stroke:#050101;stroke-width:0;stroke-miterlimit:4;stroke-opacity:1;stroke-dasharray:none"
       id="path4635"
       d="m 184.96532,963.04644 c 1.42453,1.35655 3.08382,2.44421 4.71186,3.53758 2.56769,1.66915 5.30509,3.04499 7.99897,4.49276 0.38788,0.20198 0.77577,0.40396 1.16365,0.60594 0,0 -3.42295,2.24 -3.42295,2.24 l 0,0 c -0.38225,-0.20732 -0.7645,-0.41465 -1.14674,-0.62198 -2.68568,-1.48258 -5.42133,-2.87973 -8.01468,-4.52357 -1.69549,-1.09981 -3.40237,-2.19809 -4.97238,-3.47423 0,0 3.68227,-2.2565 3.68227,-2.2565 z"
       inkscape:connector-curvature="0" />
    <path
       style="fill:#808000;fill-opacity:1;stroke:#050101;stroke-width:0;stroke-miterlimit:4;stroke-opacity:1;stroke-dasharray:none"
       id="path4637"
       d="m 195.33393,965.16321 c 5.98584,-3.39735 3.91448,-2.40826 2.79944,-1.49356 -0.39934,0.3276 -1.04196,0.9267 -1.38693,1.27448 -0.70713,0.71289 -1.06779,1.14756 -1.74362,1.91538 -2.06533,2.4848 -3.86848,5.16652 -5.41445,8.00046 -0.75913,1.61962 -0.41979,0.81793 -1.02725,2.40115 0,0 -3.72022,1.72703 -3.72022,1.72703 l 0,0 c 0.62648,-1.6347 0.27647,-0.80829 1.05917,-2.47534 1.54839,-2.83825 3.33309,-5.53237 5.34648,-8.06493 0.76664,-0.90703 1.52864,-1.79703 2.37254,-2.63325 0.12978,-0.1286 0.83386,-0.83346 1.05326,-0.96899 1.32907,-0.82096 2.69078,-1.58786 4.03617,-2.38179 0,0 -3.37459,2.69936 -3.37459,2.69936 z"
       inkscape:connector-curvature="0" />
    <path
       style="fill:#808000;fill-opacity:1;stroke:#050101;stroke-width:0;stroke-miterlimit:4;stroke-opacity:1;stroke-dasharray:none"
       id="path4639"
       d="m 211.37919,973.16844 c -0.3258,1.66135 -0.7816,3.29288 -1.12892,4.95024 -0.27369,1.63668 -0.16265,0.81423 -0.33289,2.46739 0,0 -3.67235,1.82677 -3.67235,1.82677 l 0,0 c 0.15192,-1.67754 0.0505,-0.84491 0.30323,-2.498 0.3005,-1.61745 0.73906,-3.21576 0.94447,-4.84633 0,0 3.88646,-1.90007 3.88646,-1.90007 z"
       inkscape:connector-curvature="0" />
    <path
       style="fill:#808000;fill-opacity:1;stroke:#050101;stroke-width:0;stroke-miterlimit:4;stroke-opacity:1;stroke-dasharray:none"
       id="path4641"
       d="m 222.97235,980.50158 c -0.14676,-1.82957 -0.0853,-3.66438 0.0176,-5.49408 0.15416,-1.7772 0.1881,-3.58431 0.53684,-5.33876 0.52759,-1.62387 0.14738,-0.64531 3.99584,-2.3247 0.11056,-0.0482 0.16767,0.17361 0.24699,0.26449 0.30728,0.3521 0.60176,0.68483 0.94196,1.00769 0.98948,0.78994 1.80768,0.95926 3.03764,0.77848 0.17379,-0.0651 0.35513,-0.11284 0.52138,-0.19534 0.16751,-0.0831 0.63906,-0.38824 0.47471,-0.299 -1.06409,0.5778 -2.09282,1.22164 -3.17482,1.76516 -0.15732,0.079 0.26369,-0.23414 0.38361,-0.36304 0.30419,-0.32699 0.36751,-0.45919 0.60471,-0.82649 0.29654,-0.52584 0.48577,-1.10721 0.58522,-1.70151 1.32073,-0.64551 2.59237,-1.40304 3.96218,-1.93652 0.11904,-0.0464 0.16383,0.19645 0.2372,0.30102 0.65795,0.93784 1.22572,1.95174 1.82617,2.92599 2.01944,3.10563 3.90079,6.29228 5.70104,9.52898 2.29895,4.08935 4.16903,8.39106 5.94943,12.72453 1.8692,4.53705 3.32982,9.22132 4.58359,13.96062 0.72168,3.1167 1.42013,6.2846 1.38676,9.5031 -0.005,0.4904 -0.0533,0.9794 -0.08,1.4691 -0.17785,0.9835 -0.20471,1.5071 -0.62028,2.4121 -0.25589,0.5572 -0.74514,1.2985 -1.28996,1.6304 -4.26951,2.6007 -2.91583,2.3166 -5.6164,2.5883 -3.37831,-0.2017 -6.27404,-2.0555 -9.01273,-3.8812 -2.29741,-1.6143 -4.48764,-3.3883 -6.41774,-5.4336 -1.26499,-1.3405 -1.54085,-1.7643 -2.66818,-3.2108 -1.47949,-2.1532 -2.71563,-4.5069 -3.16258,-7.1085 -0.27917,-1.6249 -0.17166,-2.0728 -0.099,-3.70509 0.54847,-3.5125 2.17084,-5.99598 4.71313,-8.42432 0.53368,-0.50976 1.11036,-0.97251 1.66554,-1.45876 1.84533,-1.47733 3.83416,-2.76375 5.88585,-3.93362 1.80308,-1.0281 3.6039,-2.06124 5.43381,-3.04078 1.27814,-0.68418 2.99781,-1.38125 4.33123,-1.94858 0.71673,-0.27588 1.43347,-0.55175 2.1502,-0.82763 0,0 -3.0514,2.39412 -3.0514,2.39412 l 0,0 c -0.71112,0.27728 -1.42225,0.55455 -2.13338,0.83182 -0.71592,0.30921 -1.4385,0.60342 -2.14776,0.92762 -0.72385,0.33087 -1.38452,0.82148 -2.15062,1.03718 -0.44694,0.12583 1.58139,-0.97011 1.16718,-0.76029 -2.08769,1.05754 -3.99185,2.47724 -5.8721,3.85403 -0.55432,0.47375 -1.12882,0.92485 -1.66296,1.42123 -2.50894,2.33159 -4.16303,4.72787 -4.77401,8.14024 -0.0955,1.56778 -0.21016,2.04163 0.0384,3.60703 0.40552,2.5542 1.59918,4.8714 3.04393,6.9831 1.10155,1.4182 1.39187,1.8626 2.63213,3.1736 1.91771,2.0272 4.1015,3.7778 6.40069,5.3514 2.72612,1.7624 5.64163,3.5653 8.99927,3.5332 1.91899,-0.3753 1.82714,-0.4922 -1.54145,1.4521 -0.28942,0.1671 0.56128,-0.3725 0.79324,-0.613 0.83281,-0.8636 1.11696,-2.0392 1.33805,-3.175 0.0422,-0.4843 0.10775,-0.9672 0.12665,-1.453 0.12481,-3.2074 -0.53172,-6.3754 -1.21222,-9.4896 -1.19965,-4.7381 -2.65104,-9.41079 -4.53758,-13.9252 -1.78372,-4.3134 -3.65777,-8.59597 -5.96926,-12.65862 -1.83579,-3.20969 -3.73997,-6.37732 -5.87169,-9.40178 -0.54145,-0.7973 -1.07114,-1.60576 -1.64896,-2.37767 -0.0984,-0.13148 -0.1941,-0.26571 -0.30423,-0.38755 -0.0556,-0.0615 -0.26041,-0.11528 -0.19049,-0.15977 1.19348,-0.75944 2.46807,-1.38318 3.70211,-2.07477 -0.0391,-0.008 -0.0819,-0.0412 -0.11735,-0.023 -0.2034,0.1042 -0.36343,1.42386 -0.60409,1.63262 -1.18593,2.11716 -2.40807,2.27734 -5.02238,3.81386 -0.4185,0.24597 -0.62956,0.25586 -1.09573,0.36187 -1.31298,0.0691 -2.22901,-0.22178 -3.24832,-1.07254 -0.57144,-0.52879 -0.22649,-0.19791 -0.73463,-0.71028 -0.0822,-0.0829 -0.15691,-0.17432 -0.24804,-0.2473 -0.0373,-0.0299 -0.17221,-0.0313 -0.13176,-0.0568 8.04569,-5.07984 4.52971,-2.75019 3.41547,-2.01048 -0.58777,1.69979 -0.54197,3.56494 -0.72932,5.33367 -0.0855,1.77401 -0.15017,3.56399 0.13147,5.32531 0,0 -3.81976,2.01503 -3.81976,2.01503 z"
       inkscape:connector-curvature="0" />
    <path
       style="fill:#808000;fill-opacity:1;stroke:#050101;stroke-width:0;stroke-miterlimit:4;stroke-opacity:1;stroke-dasharray:none"
       id="path4643"
       d="m 267.1629,958.8956 c 1.35855,0.87484 2.78019,1.65196 4.08812,2.60663 0.42341,0.30905 0.82966,0.64096 1.24449,0.96144 2.33622,1.88936 4.31433,4.22087 5.49692,7.00717 0.24682,0.58153 0.41984,1.19169 0.62976,1.78753 0.85753,3.10417 0.7555,6.31536 -0.16345,9.39409 -0.17759,0.59497 -0.41468,1.17053 -0.62202,1.75579 -0.25841,0.56182 -0.51681,1.12363 -0.77522,1.68545 0,0 -3.61813,1.64785 -3.61813,1.64785 l 0,0 c 0.26376,-0.55116 0.52752,-1.10233 0.79128,-1.6535 0.2141,-0.57367 0.45773,-1.13716 0.6423,-1.721 0.94811,-2.99907 1.09918,-6.1439 0.27056,-9.18798 -0.20258,-0.58046 -0.36776,-1.17537 -0.60776,-1.74139 -1.16113,-2.7384 -3.12515,-5.00618 -5.45515,-6.81767 -0.41916,-0.30782 -0.82885,-0.62899 -1.2575,-0.92346 -1.36619,-0.9385 -2.84764,-1.68301 -4.30033,-2.47278 0,0 3.63613,-2.32817 3.63613,-2.32817 z"
       inkscape:connector-curvature="0" />
  </g>
</svg>
