<?xml version="1.0" encoding="UTF-8" standalone="no"?>
<!-- Created with Inkscape (http://www.inkscape.org/) -->

<svg
   xmlns:dc="http://purl.org/dc/elements/1.1/"
   xmlns:cc="http://creativecommons.org/ns#"
   xmlns:rdf="http://www.w3.org/1999/02/22-rdf-syntax-ns#"
   xmlns:svg="http://www.w3.org/2000/svg"
   xmlns="http://www.w3.org/2000/svg"
   xmlns:sodipodi="http://sodipodi.sourceforge.net/DTD/sodipodi-0.dtd"
   xmlns:inkscape="http://www.inkscape.org/namespaces/inkscape"
   width="320"
   height="154.95"
   id="svg2"
   version="1.1"
   inkscape:version="0.48.3.1 r9886"
   inkscape:export-filename="integral.png"
   inkscape:export-xdpi="150"
   inkscape:export-ydpi="150"
   sodipodi:docname="derivace.svg">
  <defs
     id="defs4" />
  <sodipodi:namedview
     id="base"
     pagecolor="#9fffa7"
     bordercolor="#666666"
     borderopacity="1.0"
     inkscape:pageopacity="0"
     inkscape:pageshadow="2"
     inkscape:zoom="3.43125"
     inkscape:cx="160"
     inkscape:cy="67.975708"
     inkscape:document-units="px"
     inkscape:current-layer="layer1"
     showgrid="false"
     inkscape:window-width="1231"
     inkscape:window-height="776"
     inkscape:window-x="49"
     inkscape:window-y="24"
     inkscape:window-maximized="1"
     fit-margin-top="0"
     fit-margin-left="0"
     fit-margin-right="0"
     fit-margin-bottom="0" />
  <metadata
     id="metadata7">
    <rdf:RDF>
      <cc:Work
         rdf:about="">
        <dc:format>image/svg+xml</dc:format>
        <dc:type
           rdf:resource="http://purl.org/dc/dcmitype/StillImage" />
        <dc:title></dc:title>
      </cc:Work>
    </rdf:RDF>
  </metadata>
  <g
     inkscape:label="Layer 1"
     inkscape:groupmode="layer"
     id="layer1"
     transform="translate(-6.6292965,-876.95567)">
    <path
       style="fill:#008000;fill-opacity:1;stroke:#050101;stroke-width:1.60000001999999997;stroke-miterlimit:4;stroke-opacity:1;stroke-dasharray:none"
       id="path4497"
       d="m 19.977585,29.473246 c -0.48858,2.601091 0.257285,1.091743 -4.132131,3.358517 -0.04155,-0.125681 -0.0994,-0.247103 -0.124657,-0.377044 -0.0601,-0.309242 -0.0407,-0.837583 -0.03103,-1.124955 0.0341,-1.013913 0.141686,-2.017189 0.253303,-3.024897 0.333254,-2.80542 0.880823,-5.578039 1.368025,-8.358964 0.240158,-1.600299 0.519538,-3.194443 0.752705,-4.795803 0.144819,-1.597553 0.01117,-0.721311 3.98608,-1.9147 0.16565,-0.04973 0.06907,0.338998 0.09831,0.509463 0.04202,0.244993 0.07518,0.491431 0.115412,0.736724 0.150729,0.919076 0.16951,0.989943 0.346684,1.941647 0.398172,1.669137 0.882089,3.415346 1.919959,4.81916 0.165125,0.223347 0.368545,0.415663 0.552818,0.623495 1.062054,0.899411 2.252873,1.099004 3.525121,0.466254 0.267749,-0.133163 0.506966,-0.31729 0.760449,-0.475935 -0.925829,0.484289 -1.791095,1.108303 -2.777488,1.452866 -0.323589,0.113035 0.496773,-0.474043 0.719999,-0.734152 0.949176,-1.106008 1.495501,-2.398175 1.999624,-3.745846 0.485474,-1.390606 0.718071,-2.84172 0.649336,-4.311635 -0.04041,-1.644916 -0.09118,-0.768085 3.923094,-2.034446 0.169517,-0.05348 0.110346,0.337977 0.161649,0.508164 0.07645,0.253591 0.145437,0.509386 0.221568,0.763072 0.338773,1.128872 0.291145,0.949197 0.703547,2.151047 1.257986,3.461264 2.505258,6.92653 3.760922,10.388711 1.632608,4.513875 3.297602,9.015869 4.962425,13.517951 1.532967,3.988762 3.033077,7.983035 4.276577,12.072576 1.012066,3.454658 1.425045,7.029603 1.44745,10.618393 -0.102048,2.013007 -0.355496,4.18091 -1.626766,5.83656 -0.183418,0.238876 -0.411508,0.439859 -0.617262,0.659789 -1.819244,1.274301 -3.712232,2.961482 -6.014239,2.88239 -1.142229,-0.03924 -2.090653,-0.44629 -3.111443,-0.913538 -2.848646,-1.566193 -4.929356,-4.085265 -6.879497,-6.621012 -1.912824,-2.726323 -3.611018,-5.68733 -4.487496,-8.926229 -0.173293,-0.640379 -0.273426,-1.298345 -0.41014,-1.947518 -0.418425,-2.823164 -0.01087,-5.642731 0.924568,-8.325237 0.624511,-1.790885 1.171109,-2.781866 2.004231,-4.492795 1.957364,-3.629168 4.381665,-6.997098 7.17803,-10.026869 0.493993,-0.535226 1.016034,-1.043866 1.524051,-1.565799 0,0 3.60266,-1.495084 3.60266,-1.495084 l 0,0 c -0.5194,0.519267 -1.05348,1.024256 -1.558201,1.557803 -2.828816,2.990374 -5.278476,6.334495 -7.254078,9.945752 -0.812646,1.662334 -1.367717,2.672423 -1.981638,4.410714 -0.923635,2.615232 -1.339097,5.367949 -0.95831,8.127629 0.128256,0.636559 0.219306,1.281759 0.384767,1.909675 0.844342,3.204233 2.524542,6.123491 4.436687,8.798025 1.957733,2.46485 4.042189,4.922619 6.903035,6.366818 1.001885,0.403551 1.934189,0.761559 3.037646,0.705331 0.29135,-0.01485 1.087822,-0.324608 0.864388,-0.137037 -0.623693,0.523588 -4.374903,2.668051 -2.068116,1.341366 0.222101,-0.197164 0.466843,-0.37145 0.666302,-0.591492 1.389847,-1.533271 1.696263,-3.696217 1.850946,-5.671369 0.04232,-3.564127 -0.342805,-7.11528 -1.316761,-10.554555 -1.21602,-4.094371 -2.696864,-8.092755 -4.192523,-12.091922 -1.648475,-4.505809 -3.30601,-9.00821 -4.996131,-13.498635 -1.293177,-3.437936 -2.584929,-6.87645 -3.941601,-10.289933 -0.366308,-0.942346 -0.700891,-1.895479 -1.065308,-2.838245 -0.05664,-0.146527 -0.30397,-0.339848 -0.179539,-0.435737 1.143212,-0.880985 2.431304,-1.558799 3.688241,-2.268149 0.06322,-0.03568 -0.03084,0.14187 -0.04627,0.212806 -0.02973,1.533752 -0.203212,3.053866 -0.711168,4.512298 -0.49479,1.379755 -1.018504,2.724095 -1.927668,3.894683 -0.213639,0.275069 -0.406528,0.583352 -0.692022,0.782846 -1.3969,0.976112 -2.88426,1.815913 -4.32639,2.723869 -0.277036,0.139113 -0.540973,0.308145 -0.831106,0.417338 -1.382875,0.520455 -2.751566,0.120554 -3.79226,-0.872266 -0.190261,-0.230182 -0.399414,-0.445974 -0.570782,-0.690547 -1.028261,-1.467511 -1.53412,-3.245162 -1.97317,-4.956226 -0.185551,-0.870373 -0.357659,-1.745345 -0.566686,-2.610543 -0.03255,-0.134722 -0.222235,-0.324753 -0.107016,-0.401785 1.202449,-0.803922 2.553911,-1.359566 3.811185,-2.074714 0.04322,-0.02458 -0.09928,-0.0056 -0.148917,-0.0084 -0.491228,1.580347 -0.628456,3.263537 -0.96673,4.877541 -0.508655,2.759685 -1.053468,5.516838 -1.34305,8.310827 -0.117601,1.330564 -0.244526,2.680524 -0.120064,4.012258 -1.249441,0.699583 -2.498882,1.399167 -3.748323,2.09875 0.129234,-0.09873 0.146603,-0.08578 0.199132,-0.281739 0.08035,-0.299729 0.05727,-0.625269 0.128595,-0.927271 0,0 3.886459,-1.900069 3.886459,-1.900069 z"
       inkscape:connector-curvature="0"
       transform="translate(6.6292965,876.95567)" />
    <path
       style="fill:#000080;fill-opacity:1;stroke:#050101;stroke-width:1.60000002;stroke-miterlimit:4;stroke-opacity:1;stroke-dasharray:none"
       id="path4499"
       d="m 77.218489,29.772349 c 1.150901,1.126157 1.742375,2.65171 2.260851,4.142034 0.752233,2.340367 0.974803,4.772635 0.920064,7.216458 -0.01171,1.106213 -0.268347,2.164288 -0.561389,3.221101 0,0 -3.752258,1.777013 -3.752258,1.777013 l 0,0 c 0.327445,-1.026293 0.61147,-2.053067 0.64028,-3.140908 0.09682,-2.395958 -0.10931,-4.7778 -0.870682,-7.067616 -0.508687,-1.385129 -1.070497,-2.882551 -2.272997,-3.819908 0,0 3.636131,-2.328174 3.636131,-2.328174 z"
       inkscape:connector-curvature="0"
       transform="translate(6.6292965,876.95567)" />
    <path
       style="fill:#008000;fill-opacity:1;stroke:#050101;stroke-width:1.60000001999999997;stroke-miterlimit:4;stroke-opacity:1;stroke-dasharray:none"
       id="path4501"
       d="m 108.49176,35.711021 c -0.37058,-1.760552 -0.22395,-3.586853 -0.0936,-5.366207 0.16622,-2.279347 0.45323,-4.546716 0.74797,-6.812182 0.39022,-2.26804 0.57203,-1.747543 4.27297,-2.938343 0.15179,-0.04884 0.14377,0.284725 0.21101,0.42931 0.083,0.178409 0.15967,0.35966 0.23951,0.53949 0.55527,1.180927 1.16029,2.41313 2.19245,3.257659 0.19203,0.157124 0.41024,0.279216 0.61536,0.418823 0.52734,0.208193 0.80234,0.37002 1.38463,0.38492 0.44489,0.01138 1.05321,-0.14676 1.45395,-0.318592 0.25273,-0.108367 0.96691,-0.524385 0.72536,-0.392962 -0.96402,0.524506 -1.92851,1.04814 -2.89276,1.57221 1.32821,-1.078387 1.97122,-2.581678 2.35905,-4.201188 0.0347,-0.19992 0.0741,-0.399088 0.10418,-0.599759 0.0451,-0.300859 0.0635,-0.501483 0.0796,-0.790112 0.003,-0.0559 -0.0441,-0.14168 0.005,-0.167881 4.00879,-2.122733 3.44443,-3.272182 4.07554,-1.497704 0.68873,2.452272 1.7278,4.78196 2.7361,7.114604 2.01743,4.444094 4.00218,8.902992 6.0293,13.342672 2.11497,4.603293 4.11147,9.257436 5.88228,14.003861 1.12806,3.396315 2.22065,6.845531 2.65385,10.412805 0.068,0.559843 0.0921,1.124146 0.13812,1.686219 -0.006,1.626363 -0.0162,3.423476 -1.00976,4.809482 -0.18855,0.263043 -0.39109,0.533547 -0.6626,0.709685 -1.42823,0.92653 -2.93861,1.719803 -4.40791,2.579704 -2.60299,0.769764 -5.1295,0.183228 -7.65865,-0.552881 -2.50719,-0.866613 -4.91022,-2.100975 -6.99929,-3.747215 -0.40686,-0.320615 -0.78578,-0.675175 -1.17867,-1.012763 -1.42314,-1.354546 -2.53606,-2.945586 -2.9486,-4.894613 -0.27771,-1.312004 -0.16675,-1.548144 -0.0762,-2.88875 0.69312,-3.72193 2.90991,-6.326789 5.44356,-8.984083 2.48552,-2.412272 5.11822,-4.665252 7.69524,-6.977818 0,0 3.62744,-1.479907 3.62744,-1.479907 l 0,0 c -2.56313,2.306288 -5.17998,4.554023 -7.67235,6.937748 -2.49489,2.562306 -4.71045,5.080623 -5.46199,8.688695 -0.0411,0.469111 -0.12712,0.936436 -0.1234,1.407332 0.0194,2.447964 1.24092,4.401648 2.9466,6.05362 0.38344,0.329863 0.75241,0.677343 1.15033,0.989588 2.06453,1.620028 4.45255,2.806329 6.93998,3.61717 2.47276,0.673905 5.08022,1.210213 7.55274,0.23139 -0.89375,0.539783 -1.75162,1.143996 -2.68124,1.619348 -0.28029,0.143323 0.5087,-0.378696 0.71684,-0.61487 1.11554,-1.265755 1.18442,-3.056771 1.24741,-4.646749 -0.0287,-0.559157 -0.032,-1.120187 -0.086,-1.67747 -0.34499,-3.561757 -1.40951,-7.011296 -2.51358,-10.396424 -1.74073,-4.749129 -3.72107,-9.402801 -5.83011,-14.000072 -2.03527,-4.432441 -4.03474,-8.881248 -6.1662,-13.268864 -1.06903,-2.298657 -2.15277,-4.592698 -3.03348,-6.972023 -0.69589,-1.579381 -0.20146,-0.218512 3.62951,-2.390374 0.0343,-0.01943 -0.0875,0.02242 -0.10245,0.05887 -0.0417,0.101761 -0.0382,0.216607 -0.0549,0.325301 -0.1592,1.036524 0.0235,-0.0393 -0.18508,1.144874 -0.38964,1.67707 -0.98075,3.27644 -2.26763,4.485868 -1.42574,0.86148 -2.83443,1.751843 -4.27723,2.58444 -1.22971,0.70963 -2.6201,0.649993 -3.83558,-0.03092 -0.21539,-0.160308 -0.44424,-0.303957 -0.64616,-0.480924 -1.03585,-0.907837 -1.67576,-2.15781 -2.30693,-3.355982 -0.0878,-0.168341 -0.17193,-0.338662 -0.26343,-0.505024 -0.0529,-0.0961 -0.26054,-0.220901 -0.16947,-0.282019 1.17331,-0.787476 2.48203,-1.353337 3.69247,-2.082465 0.0598,-0.03601 -0.15716,-0.06298 -0.20878,-0.01601 -0.11022,0.100307 -0.30504,0.887874 -0.31146,0.910546 -0.39917,2.258848 -0.70156,4.533951 -0.85033,6.824102 -0.1086,1.6947 -0.24733,3.460924 0.21482,5.116712 0,0 -3.78779,2.086101 -3.78779,2.086101 z"
       inkscape:connector-curvature="0"
       transform="translate(6.6292965,876.95567)" />
    <path
       style="fill:#000080;fill-opacity:1;stroke:#050101;stroke-width:1.60000002;stroke-miterlimit:4;stroke-opacity:1;stroke-dasharray:none"
       id="path4505"
       d="m 175.39128,27.765349 c 1.05989,1.323753 1.62183,2.948227 2.10842,4.549024 0.55424,2.241588 0.83426,4.579307 0.57228,6.885528 -0.0549,0.482879 -0.15937,0.958814 -0.23905,1.438221 0,0 -3.6511,1.781116 -3.6511,1.781116 l 0,0 c 0.0863,-0.466401 0.19907,-0.928677 0.25896,-1.399202 0.28652,-2.250913 0.007,-4.542099 -0.5499,-6.727419 -0.48457,-1.517355 -1.0416,-3.110992 -2.1909,-4.26524 0,0 3.69129,-2.262028 3.69129,-2.262028 z"
       inkscape:connector-curvature="0"
       transform="translate(6.6292965,876.95567)" />
    <path
       style="fill:#008000;fill-opacity:1;stroke:#050101;stroke-width:1.60000001999999997;stroke-miterlimit:4;stroke-opacity:1;stroke-dasharray:none"
       id="path4507"
       d="m 222.39257,31.750935 c -0.94828,-1.545473 -0.53225,-3.426783 -0.23502,-5.103185 0.41442,-1.972395 0.92453,-3.936215 1.68709,-5.804937 0.75135,-1.559636 3.37038,-3.937248 4.49629,-2.194337 0.4116,0.637164 0.58228,1.474431 0.79436,2.18772 0.4031,1.380543 0.91406,2.754379 1.65328,3.994904 0.44627,0.748893 0.63554,0.922937 1.18354,1.575291 0.50985,0.465657 1.10711,0.960961 1.83921,0.9975 0.18401,0.0092 0.37228,-0.02573 0.54567,-0.08803 0.18515,-0.06652 0.68612,-0.385281 0.51277,-0.292254 -1.03886,0.557488 -2.07295,1.123809 -3.10943,1.685714 1.12617,-1.063919 1.59585,-2.543834 2.07288,-3.971803 0.46773,-1.628519 2.05891,-6.353428 4.75591,-3.419234 1.05978,1.765468 1.787,3.71239 2.55319,5.617209 1.60066,4.139079 3.19068,8.281789 4.88528,12.383542 2.23958,5.121841 4.28001,10.322241 6.14675,15.590373 1.19474,3.551871 2.37218,7.119075 3.16753,10.785957 0.45008,2.075037 0.52241,2.764483 0.83587,4.83161 0.36116,3.178652 0.51376,6.502267 -0.51111,9.586364 -0.1594,0.479675 -0.38644,0.934158 -0.57966,1.401237 -0.6245,1.129241 -1.38758,2.249853 -2.5342,2.915928 -1.80874,1.050707 -3.55453,2.625207 -5.73725,2.61093 -0.40461,-0.0026 -0.80264,-0.103121 -1.20395,-0.154681 -0.41606,-0.141005 -0.84532,-0.247819 -1.24818,-0.423016 -2.62178,-1.140171 -4.70379,-3.498565 -6.61385,-5.54644 -2.23693,-2.58316 -4.42291,-5.274727 -5.9295,-8.364911 -0.29865,-0.61257 -0.54159,-1.250769 -0.81238,-1.876153 -1.25394,-3.266424 -1.54237,-6.759702 -0.8313,-10.187848 0.14489,-0.698514 0.36358,-1.379663 0.54536,-2.069495 1.25194,-3.992199 3.50315,-7.516696 5.88796,-10.911249 0,0 3.62037,-1.571867 3.62037,-1.571867 l 0,0 c -2.39881,3.359703 -4.68333,6.839212 -5.97368,10.797946 -0.18698,0.676733 -0.41086,1.344341 -0.56095,2.030199 -0.7333,3.350683 -0.47057,6.779356 0.74377,9.98359 0.26561,0.615031 0.50505,1.24203 0.79681,1.845093 1.48337,3.066141 3.64409,5.734538 5.88784,8.270411 1.89538,1.986077 3.99109,4.296614 6.62267,5.294533 0.39445,0.149578 0.81268,0.226737 1.21901,0.340105 0.38316,0.02216 0.76656,0.09237 1.14948,0.06647 1.53543,-0.103851 2.81852,-1.229469 -1.3866,1.380374 -0.34093,0.211595 0.6891,-0.41719 0.99731,-0.674119 0.90457,-0.754064 1.02099,-1.084877 1.6819,-2.068676 0.21053,-0.45409 0.45664,-0.893318 0.63157,-1.362269 1.12958,-3.028113 1.02065,-6.350261 0.72206,-9.509853 -0.28178,-2.080183 -0.33695,-2.742815 -0.76509,-4.831298 -0.75174,-3.666933 -1.89923,-7.236042 -3.09363,-10.778267 -1.87945,-5.252872 -3.94458,-10.432385 -6.21231,-15.530778 -1.72048,-4.080776 -3.35377,-8.197194 -5.06656,-12.281121 -0.79089,-1.80955 -1.53816,-3.692136 -2.69346,-5.305466 -1.45467,-0.373305 -0.16066,-0.01092 3.43241,-2.142415 0.0658,-0.03903 -0.14639,0.06144 -0.19566,0.119965 -0.31505,0.374268 -0.28773,0.948822 -0.50935,1.365339 -0.51407,1.4601 -0.95188,2.982766 -1.97268,4.188121 -1.38166,0.838919 -2.73864,1.719903 -4.14498,2.516757 -0.18356,0.104009 -0.39824,0.152655 -0.60789,0.176297 -1.01819,0.114817 -1.87071,-0.616628 -2.53165,-1.279872 -0.55731,-0.696538 -0.74059,-0.875503 -1.20079,-1.663462 -0.73904,-1.265395 -1.27494,-2.649656 -1.7267,-4.038571 -0.17204,-0.519718 -0.31897,-1.022587 -0.55035,-1.518846 -0.0682,-0.146352 -0.13935,-0.294445 -0.23962,-0.421021 -0.0301,-0.03797 -0.17603,-0.02599 -0.1355,-0.05252 3.83962,-2.513215 4.27163,-3.087346 3.14558,-1.771168 -0.88195,1.820791 -1.4253,3.782152 -1.83082,5.759859 -0.25881,1.466999 -0.73796,3.341776 0.21265,4.653321 0,0 -3.68227,2.256498 -3.68227,2.256498 z"
       inkscape:connector-curvature="0"
       transform="translate(6.6292965,876.95567)" />
    <path
       style="fill:#008000;fill-opacity:1;stroke:#050101;stroke-width:1.60000001999999997;stroke-miterlimit:4;stroke-opacity:1;stroke-dasharray:none"
       id="path4509"
       d="m 250.58254,1.5358412 c 1.36876,1.8164058 2.50692,3.7974747 3.66535,5.7516289 1.7544,3.0545159 3.47266,6.1296209 5.26155,9.1641819 0.23296,0.390387 0.46593,0.780774 0.69889,1.17116 0,0 -3.53219,2.039643 -3.53219,2.039643 l 0,0 c -0.22224,-0.396765 -0.44447,-0.79353 -0.6667,-1.190294 -1.72921,-3.065333 -3.41343,-6.156754 -5.225,-9.1749156 -1.18151,-1.9013134 -2.33984,-3.8731916 -3.89319,-5.4993768 0,0 3.69129,-2.2620274 3.69129,-2.2620274 z"
       inkscape:connector-curvature="0"
       transform="translate(6.6292965,876.95567)" />
    <path
       style="fill:#008000;fill-opacity:1;stroke:#050101;stroke-width:1.60000001999999997;stroke-miterlimit:4;stroke-opacity:1;stroke-dasharray:none"
       id="path4511"
       d="m 264.0086,0.05977782 c 1.35614,1.65969278 2.38141,3.55987798 3.42102,5.42516238 1.66961,3.1369058 3.24447,6.3244278 4.83729,9.5011628 0.24294,0.485263 0.48588,0.970527 0.72882,1.45579 0,0 -3.49622,1.988308 -3.49622,1.988308 l 0,0 c -0.23749,-0.488109 -0.47498,-0.976219 -0.71247,-1.464328 -1.55951,-3.183376 -3.12499,-6.369047 -4.84895,-9.4668427 -1.05372,-1.7930273 -2.08716,-3.677471 -3.5908,-5.1394881 0,0 3.66131,-2.29976438 3.66131,-2.29976438 z"
       inkscape:connector-curvature="0"
       transform="translate(6.6292965,876.95567)" />
    <path
       style="fill:#008000;fill-opacity:1;stroke:#050101;stroke-width:1.60000001999999997;stroke-miterlimit:4;stroke-opacity:1;stroke-dasharray:none"
       id="path4513"
       d="m 136.6299,1.8272802 c 1.09053,1.5243956 2.05454,3.1333597 2.99193,4.754739 1.4635,2.5769749 2.63382,5.2985748 3.69238,8.0616528 0,0 -3.56328,1.979537 -3.56328,1.979537 l 0,0 c -1.00994,-2.757953 -2.16353,-5.462975 -3.66085,-7.9971345 -0.95208,-1.5728919 -1.92118,-3.162279 -3.15147,-4.5367669 0,0 3.69129,-2.2620274 3.69129,-2.2620274 z"
       inkscape:connector-curvature="0"
       transform="translate(6.6292965,876.95567)" />
    <path
       style="fill:#666666;fill-opacity:1;stroke:#050101;stroke-width:0;stroke-miterlimit:4;stroke-opacity:1;stroke-dasharray:none"
       id="path4515"
       d="m 92.270301,55.124334 c -0.03633,0.898523 0.09643,1.796053 0.254446,2.678291 0.204219,0.923836 0.476268,1.829745 0.709469,2.74646 0.214538,0.922081 0.526987,1.817101 0.759034,2.734112 0.151112,0.868173 0.328671,1.728962 0.527375,2.587724 0.256667,0.819427 0.442678,1.657014 0.636207,2.492868 0.181966,0.798596 0.365053,1.59745 0.559283,2.393397 0.24681,0.853311 0.43337,1.722057 0.684037,2.574198 0.257234,0.950804 0.431154,1.925427 0.586976,2.897901 0.228402,1.123443 0.353103,2.263012 0.504919,3.398269 0.192794,1.266912 0.197343,2.549314 0.289487,3.824371 0.136014,1.44679 0.195688,2.898069 0.236807,4.350073 0.02851,1.576761 0.03087,3.15392 0.02985,4.730904 -0.0018,1.589499 7.53e-4,3.179 1.19e-4,4.7685 0.03982,1.663579 -0.09148,3.322468 -0.178764,4.982278 -0.08719,1.69323 -0.100434,3.38881 -0.113017,5.08385 -0.01023,1.75911 -0.01481,3.51821 -0.01408,5.27735 0.0017,1.78185 0.0033,3.56371 0.0042,5.34556 6.93e-4,1.75089 7.3e-4,3.50177 7.71e-4,5.25266 0.01009,1.84549 -0.03646,3.69158 0.02332,5.53632 0.101816,1.97646 0.177953,3.9538 0.224867,5.93231 -0.01173,1.83158 0.06568,3.65848 0.172364,5.48619 0.09428,1.43564 0.147768,2.87324 0.175223,4.31156 0.02339,1.04738 0.0218,2.09509 0.02766,3.14265 0.03143,0.73068 0.0091,1.45206 -0.09879,2.17486 -0.04881,0.28624 -0.100315,0.57172 -0.133102,0.86034 -5.85e-4,0.0284 -0.007,0.0574 -0.01139,0.0849 0,0 -3.909252,1.95236 -3.909252,1.95236 l 0,0 c 8.37e-4,-0.0378 0.0042,-0.0753 0.01173,-0.11258 0.04795,-0.29977 0.0953,-0.60044 0.167107,-0.89549 0.144749,-0.7045 0.200478,-1.40525 0.168431,-2.12577 0.0068,-1.05091 0.007,-2.10184 0.0059,-3.15277 -0.01341,-1.44014 -0.04141,-2.88036 -0.121839,-4.31856 -0.103774,-1.83591 -0.174196,-3.66967 -0.161041,-5.50919 -0.03539,-1.97678 -0.103299,-3.95246 -0.222704,-5.92613 -0.07444,-1.84613 -0.03116,-3.69426 -0.04638,-5.54157 3.3e-5,-1.75107 7.6e-5,-3.50214 4.23e-4,-5.25321 4e-4,-1.78276 0.0012,-3.56552 0.0014,-5.34828 -4.9e-4,-1.75733 -0.0092,-3.51465 -0.0032,-5.27198 0.01111,-1.70153 0.03653,-3.40333 0.111051,-5.10343 0.08106,-1.65129 0.218416,-3.30126 0.173558,-4.95592 4.96e-4,-1.589992 0.0053,-3.179983 0.0036,-4.769974 -0.0028,-1.572276 9.92e-4,-3.144705 -0.03404,-4.716704 -0.03448,-1.442567 -0.09878,-2.884734 -0.24688,-4.320711 -0.103657,-1.265909 -0.09711,-2.540892 -0.281952,-3.800441 -0.156394,-1.128728 -0.289043,-2.262028 -0.523324,-3.378082 -0.1493,-0.953987 -0.323339,-1.909115 -0.571452,-2.842126 -0.258173,-0.857265 -0.44026,-1.733932 -0.699909,-2.590812 -0.191675,-0.797983 -0.390719,-1.594441 -0.561873,-2.396754 -0.19398,-0.835914 -0.364986,-1.677433 -0.628561,-2.495407 -0.20475,-0.856227 -0.398768,-1.711713 -0.522931,-2.584216 -0.223083,-0.91822 -0.541042,-1.810144 -0.752325,-2.73176 -0.24762,-0.923942 -0.501856,-1.845697 -0.727243,-2.775343 -0.159336,-0.900256 -0.29965,-1.807428 -0.333918,-2.722211 0,0 3.848435,-1.960875 3.848435,-1.960875 z"
       inkscape:connector-curvature="0"
       transform="translate(6.6292965,876.95567)" />
    <path
       style="fill:#666666;fill-opacity:1;stroke:#050101;stroke-width:0;stroke-miterlimit:4;stroke-opacity:1;stroke-dasharray:none"
       id="path4517"
       d="m 89.305423,56.082955 c -0.513826,2.018491 -0.911385,4.068689 -1.354935,6.104942 -0.497384,2.335342 -1.054925,4.657135 -1.603412,6.980814 -0.128358,0.552197 -0.245196,1.107073 -0.348538,1.664494 -0.01565,0.08439 -0.0311,0.168838 -0.04471,0.253585 -0.0067,0.04198 0.02242,0.108978 -0.01632,0.126503 -1.269227,0.574215 -2.567422,1.082121 -3.851133,1.623181 0.57398,-1.395902 0.977305,-2.852633 1.380059,-4.304619 0.666666,-2.374474 1.38824,-4.731841 2.126485,-7.084817 0.560454,-1.686768 1.065625,-3.390883 1.684366,-5.057515 0.593927,-1.815484 2.559323,-4.191447 4.727701,-3.38974 0.995432,0.526428 1.799028,1.368769 2.592814,2.153347 1.570729,1.439254 3.196864,2.817216 4.861343,4.146533 1.537332,1.190822 2.990712,2.485589 4.380002,3.844965 0.6371,0.63774 1.19523,1.343973 1.66725,2.110879 0.0255,0.04443 0.0511,0.08885 0.0767,0.133279 0,0 -3.76979,2.151046 -3.76979,2.151046 l 0,0 c -0.0187,-0.04206 -0.0374,-0.08411 -0.056,-0.126166 -0.38714,-0.768654 -0.91777,-1.443681 -1.50327,-2.072171 -1.343903,-1.375599 -2.772014,-2.665805 -4.292012,-3.845425 -1.674732,-1.345179 -3.317624,-2.729954 -4.935048,-4.143518 -0.742375,-0.685635 -1.542175,-1.565811 -2.541335,-1.843728 -1.446991,0.547579 -0.328375,0.135724 3.355103,-2.040877 0.06137,-0.03627 -0.124708,0.07293 -0.173789,0.124627 -0.09179,0.09668 -0.306886,0.463765 -0.35131,0.555049 -0.07261,0.149205 -0.128498,0.305984 -0.192747,0.458977 -0.679129,1.670097 -1.237448,3.380168 -1.813442,5.088391 -0.748811,2.336658 -1.470363,4.681094 -2.101819,7.052698 -0.370955,1.428511 -0.734079,2.860675 -1.203158,4.260916 -1.334609,0.681693 -2.660079,1.381582 -4.003826,2.04508 -0.03527,0.01742 0.04901,-0.06291 0.0635,-0.09948 0.03348,-0.08449 0.05562,-0.17312 0.07927,-0.26087 0.153738,-0.570272 0.275066,-1.149348 0.432587,-1.718678 0.619571,-2.325887 1.220386,-4.658171 1.710412,-7.01538 0.413596,-1.998723 0.804405,-4.000383 1.132168,-6.014334 0,0 3.886902,-1.861989 3.886902,-1.861989 z"
       inkscape:connector-curvature="0"
       transform="translate(6.6292965,876.95567)" />
    <path
       style="fill:#666666;fill-opacity:1;stroke:#050101;stroke-width:0;stroke-miterlimit:4;stroke-opacity:1;stroke-dasharray:none"
       id="path4519"
       d="m 60.225658,130.88277 c 1.031524,-0.22431 2.059371,-0.46037 3.07668,-0.74459 1.514108,-0.35739 3.053146,-0.59817 4.600523,-0.75288 1.733174,-0.12852 3.475043,0.0135 5.209557,0.0721 2.22408,0.13197 4.439851,0.0327 6.65785,-0.13385 2.688911,-0.21754 5.342539,-0.71658 7.98973,-1.21779 2.919034,-0.57385 5.83626,-1.1563 8.759627,-1.70784 3.149996,-0.56675 6.334945,-0.89034 9.513605,-1.24456 2.99385,-0.32568 5.994,-0.58023 8.9962,-0.81441 2.98298,-0.26207 5.96975,-0.49053 8.95868,-0.67418 3.02283,-0.18523 6.03846,-0.46002 9.0552,-0.72207 2.7901,-0.33329 5.5926,-0.50899 8.39983,-0.5999 2.90008,-0.0559 5.79915,-0.0561 8.69831,-0.15276 3.0582,-0.10762 6.11794,-0.15233 9.17772,-0.1814 3.03404,-0.0653 6.06582,0.0794 9.09777,0.16702 3.35975,0.0761 6.72097,0.14332 10.08132,0.0816 3.49357,-0.10512 6.98776,-0.17675 10.48265,-0.216 3.56915,-0.0222 7.13887,-0.0639 10.70755,0.01 3.78947,0.0731 7.57592,0.2257 11.36336,0.36222 3.82606,0.17684 7.65006,0.39497 11.4765,0.56294 3.996,0.18599 7.98704,0.45421 11.97869,0.71352 3.78997,0.24508 7.58031,0.45449 11.37671,0.56584 3.64811,0.0816 7.29389,0.23214 10.94238,0.30359 3.09785,0.0525 6.19623,0.0552 9.29444,0.0526 2.47581,-0.005 4.95161,-0.009 7.4274,-0.0195 1.75172,-0.009 3.50349,-0.0129 5.25518,-0.0274 0.62082,-0.005 1.2416,-0.0116 1.86231,-0.0239 0,0 -3.48284,2.53044 -3.48284,2.53044 l 0,0 c -0.59881,-0.0126 -1.19768,-0.019 -1.7966,-0.0238 -1.72761,-0.0142 -3.45529,-0.0171 -5.18293,-0.025 -2.4585,-0.008 -4.91701,-0.009 -7.3755,-0.0194 -3.08024,-0.0142 -6.16063,-0.0323 -9.24022,-0.10189 -3.6402,-0.0885 -7.27822,-0.23906 -10.91841,-0.32476 -3.79552,-0.11488 -7.58503,-0.33204 -11.37368,-0.58578 -3.98792,-0.26983 -7.97629,-0.5329 -11.96972,-0.70898 -3.83133,-0.16636 -7.66097,-0.3693 -11.49171,-0.54864 -3.78791,-0.14225 -7.57528,-0.29009 -11.36568,-0.35156 -3.57205,-0.0581 -7.14488,-0.008 -10.71718,0.0122 -3.49553,0.0419 -6.99021,0.11945 -10.48456,0.21989 -3.37312,0.0507 -6.74687,-0.006 -10.11943,-0.076 -3.03375,-0.0802 -6.06715,-0.21118 -9.10267,-0.14523 -3.05778,0.0251 -6.1155,0.0715 -9.17136,0.18875 -2.90533,0.0937 -5.81123,0.0956 -8.71705,0.16739 -2.79655,0.10312 -5.58725,0.2935 -8.36914,0.60359 -3.01838,0.26255 -6.03695,0.52186 -9.06086,0.71393 -2.98894,0.18896 -5.97562,0.41811 -8.95882,0.68239 -2.99333,0.23651 -5.98517,0.4876 -8.97057,0.8113 -3.175194,0.3469 -6.354187,0.68582 -9.49663,1.2713 -2.931259,0.56335 -5.857092,1.1538 -8.786349,1.72734 -2.665224,0.50297 -5.338383,0.99144 -8.045916,1.20257 -2.243483,0.16739 -4.485689,0.25027 -6.735165,0.13583 -1.73151,-0.0511 -3.471943,-0.17994 -5.19996,-0.007 -1.543797,0.17666 -3.081973,0.42569 -4.584927,0.82656 -1.052326,0.28531 -2.114407,0.53309 -3.179285,0.76702 0,0 3.45739,-2.60025 3.45739,-2.60025 z"
       inkscape:connector-curvature="0"
       transform="translate(6.6292965,876.95567)" />
    <path
       style="fill:#666666;fill-opacity:1;stroke:#050101;stroke-width:0;stroke-miterlimit:4;stroke-opacity:1;stroke-dasharray:none"
       id="path4521"
       d="m 267.03883,118.33451 c -0.51946,-0.0129 -1.03913,-0.007 -1.55856,0.003 -0.0277,0.002 -0.10648,0.02 -0.0831,0.005 1.24771,-0.79736 2.46482,-1.64885 3.76478,-2.35783 0.0982,-0.0535 0.20096,0.0991 0.30591,0.13771 0.58298,0.21443 1.1859,0.3968 1.77561,0.59223 2.06672,0.59963 4.10435,1.28486 6.13188,2.00428 1.88095,0.72212 3.76494,1.43517 5.53872,2.39592 0.95361,0.53273 1.84221,1.16872 2.45444,2.08386 0.40501,0.70182 0.39254,1.12667 0.045,1.8433 -0.90029,1.33484 -2.35207,2.1407 -3.6832,2.98084 -2.77818,1.66568 -5.59041,3.27325 -8.36805,4.93976 -2.10813,1.30278 -4.22142,2.59698 -6.34729,3.87068 -8.97458,5.19178 -2.82677,1.62429 -1.04534,0.62943 0.65743,-0.36715 -0.47071,0.32834 -0.61892,0.41679 0,0 -4.04645,1.57939 -4.04645,1.57939 l 0,0 c 0.44879,-0.31537 -0.40569,0.2774 0.36077,-0.21017 2.26256,-1.4393 8.00449,-4.68858 1.4517,-0.91478 2.18849,-1.27268 4.34318,-2.60278 6.50089,-3.92665 2.74682,-1.64871 5.52293,-3.2475 8.27164,-4.89315 1.27304,-0.79916 2.61917,-1.55339 3.60221,-2.71598 0.35264,-0.56326 0.51254,-0.80276 0.17136,-1.43232 -0.54949,-0.86198 -1.39438,-1.44517 -2.26459,-1.95654 -1.73498,-0.96147 -3.58557,-1.67964 -5.43756,-2.38249 -2.04198,-0.71868 -4.09969,-1.38377 -6.19059,-1.94748 -0.0712,-0.0214 -1.24954,-0.37547 -1.39317,-0.42045 -0.16231,-0.0508 -0.32557,-0.0992 -0.48507,-0.15827 -0.1193,-0.0442 -0.44516,-0.0661 -0.35048,-0.15102 2.9151,-2.61601 1.9763,-2.66877 3.44852,-2.56198 0.51635,0.0113 1.03292,0.0158 1.5493,0.003 0,0 -3.50036,2.54316 -3.50036,2.54316 z"
       inkscape:connector-curvature="0"
       transform="translate(6.6292965,876.95567)" />
    <path
       style="fill:#ff0000;fill-opacity:1;stroke:#050101;stroke-width:0;stroke-miterlimit:4;stroke-opacity:1;stroke-dasharray:none"
       id="path4523"
       d="m 65.067348,143.54344 c -0.293192,-1.11518 -0.197341,-2.27817 -0.06921,-3.4095 0.166727,-1.52546 0.567585,-3.01064 0.937486,-4.496 0.429818,-1.68867 0.960013,-3.3492 1.494922,-5.00681 0.58235,-1.74958 1.131097,-3.51108 1.768545,-5.24158 0.68256,-1.89237 1.488978,-3.733 2.323402,-5.5622 0.941985,-2.03141 2.007738,-4.00479 3.177156,-5.91369 1.187252,-1.92334 2.561672,-3.71699 3.955042,-5.49281 1.403229,-1.75661 2.949328,-3.39355 4.493713,-5.02545 1.438437,-1.56963 3.056323,-2.95441 4.684359,-4.32023 1.406682,-1.171896 2.83533,-2.313838 4.350278,-3.342959 2.348788,-1.419523 4.636028,-3.0859 7.35505,-3.640277 1.041643,-0.307325 2.125423,-0.333833 3.196823,-0.205706 1.14546,0.191042 2.22784,0.590041 3.30413,1.010957 1.30218,0.501229 2.55473,1.110477 3.78902,1.757774 1.352,0.666131 2.57428,1.549507 3.8164,2.394065 1.3901,0.937365 2.67363,2.012439 3.95608,3.088336 1.39745,1.14318 2.70574,2.38449 4.02965,3.60988 1.47757,1.33014 2.85606,2.76276 4.26923,4.15947 1.38358,1.43447 2.78454,2.8517 4.22236,4.23187 1.33488,1.30315 2.63481,2.63959 3.98027,3.9326 1.21371,1.12553 2.28872,2.38722 3.47034,3.54449 1.07036,1.07575 2.24154,2.03822 3.41748,2.99397 1.15991,0.84025 2.2301,1.79 3.32357,2.71175 1.13239,0.96094 2.23707,1.95745 3.4102,2.86873 1.2253,0.93006 2.46673,1.83972 3.71465,2.73935 1.19402,0.8546 2.45145,1.60981 3.73447,2.32123 1.20835,0.67924 2.50847,1.14396 3.82767,1.55127 1.24547,0.36958 2.54019,0.46809 3.83082,0.52348 1.23947,0.0551 2.4736,0.039 3.70835,-0.0726 1.18008,-0.17305 2.34883,-0.4136 3.48985,-0.76146 1.21794,-0.37605 2.39909,-0.82175 3.55049,-1.36794 0.20957,-0.10327 0.42095,-0.20294 0.62871,-0.30981 0.21965,-0.11299 0.43604,-0.23223 0.65336,-0.34966 0.22181,-0.11987 0.88216,-0.48864 0.66401,-0.36222 -5.74753,3.33066 -2.79408,1.59563 -1.53964,0.85774 1.5431,-0.86999 3.02478,-1.84018 4.52681,-2.77754 1.70674,-0.99446 3.279,-2.18859 4.8383,-3.39534 1.58997,-1.2503 3.23914,-2.41978 4.82451,-3.67586 1.60174,-1.25396 3.19346,-2.51939 4.72947,-3.85338 1.61357,-1.36341 3.19201,-2.76729 4.7869,-4.15239 1.65297,-1.39181 3.38347,-2.68947 5.1093,-3.98905 1.7449,-1.27556 3.44991,-2.60456 5.1924,-3.88327 1.77682,-1.30715 3.65402,-2.46519 5.54092,-3.604 0.33328,-0.19579 0.66499,-0.3943 0.99984,-0.58739 1.86707,-1.07665 3.70731,-2.20393 5.6209,-3.195533 1.09746,-0.568691 2.22763,-1.077993 3.3464,-1.602699 2.26083,-1.045435 4.60314,-1.889848 6.93663,-2.754268 2.13182,-0.785047 4.30975,-1.422264 6.51008,-1.980819 2.01927,-0.524903 4.09193,-0.818916 6.16293,-1.049781 2.04793,-0.188319 4.10619,-0.209177 6.1612,-0.223896 2.0466,0.05245 4.08922,0.184174 6.12265,0.421007 1.82654,0.212556 3.6475,0.482722 5.45684,0.81133 1.55329,0.317078 3.09244,0.692547 4.62756,1.087276 1.35362,0.422305 2.73126,0.734493 4.11804,1.021544 1.44283,0.286037 2.91303,0.362917 4.37952,0.40912 1.54293,-0.03557 3.07178,-0.297035 4.54526,-0.747877 0.81245,-0.261178 1.58898,-0.617586 2.34226,-1.016048 0.27124,-0.143476 1.0702,-0.600858 0.80489,-0.446713 -3.48144,2.022645 -3.49012,2.04395 -1.9307,1.060663 1.82397,-1.192627 3.38088,-2.71876 4.87613,-4.289985 1.75143,-1.896465 3.29938,-3.964569 4.79782,-6.062502 1.5167,-2.251219 3.04845,-4.492244 4.59933,-6.72011 1.49039,-2.128923 2.9733,-4.263806 4.5109,-6.359033 1.28394,-1.726277 2.55887,-3.45988 3.88717,-5.152481 0.44438,-0.536072 0.87043,-1.086819 1.29664,-1.637304 0,0 3.89913,-1.670106 3.89913,-1.670106 l 0,0 c -0.44571,0.560245 -0.88387,1.126926 -1.35559,1.66589 -1.3654,1.687498 -2.66021,3.430135 -3.96069,5.167773 -1.55577,2.088085 -3.03655,4.23094 -4.53807,6.35813 -1.5513,2.227059 -3.09189,4.461706 -4.59425,6.722053 -1.48641,2.10434 -3.0159,4.181996 -4.74188,6.099143 -1.4695,1.590477 -3.00609,3.131187 -4.79476,4.367085 -2.14324,1.404826 -0.92933,0.63062 -5.20086,3.068358 -1.01863,0.581325 -2.09624,1.063604 -3.21917,1.403976 -1.51285,0.410101 -3.06991,0.671785 -4.64237,0.653824 -1.4828,-0.06245 -2.9669,-0.161985 -4.42376,-0.463253 -1.39094,-0.282392 -2.76021,-0.639283 -4.12076,-1.044192 -1.52474,-0.386786 -3.0498,-0.769631 -4.5938,-1.07382 -1.79703,-0.319699 -3.60144,-0.602501 -5.41547,-0.807301 -2.0219,-0.222873 -4.05254,-0.354641 -6.0869,-0.384358 -2.04859,0.02218 -4.10099,0.04654 -6.14035,0.262675 -2.05894,0.241958 -4.11602,0.550328 -6.12106,1.088525 -2.1845,0.557588 -4.34178,1.212369 -6.45728,1.994831 -2.32825,0.860167 -4.65892,1.718293 -6.90716,2.775796 -1.11886,0.52846 -2.2434,1.04818 -3.33732,1.62745 -0.35818,0.18968 -1.4118,0.79646 -1.06502,0.58667 0.82278,-0.49775 1.66223,-0.96738 2.49349,-1.45084 0.33255,-0.19341 -0.66493,0.38714 -0.99739,0.58071 -1.88243,1.13192 -3.76302,2.27063 -5.54016,3.56509 -1.75335,1.26553 -3.44999,2.60746 -5.19872,3.87934 -1.72787,1.29128 -3.44957,2.59419 -5.11795,3.96151 -1.59801,1.3767 -3.15977,2.79476 -4.77931,4.14634 -1.52493,1.34934 -3.11287,2.62154 -4.72031,3.87108 -1.57985,1.26166 -3.21826,2.44086 -4.81744,3.67778 -1.55081,1.21367 -3.10669,2.43011 -4.80757,3.42975 -1.49806,0.93295 -2.9676,1.91118 -4.50499,2.77976 -2.50861,1.48913 -4.99169,3.03678 -7.62451,4.29845 -1.16976,0.53099 -2.37529,0.95808 -3.6054,1.32871 -1.16142,0.31798 -2.34374,0.56527 -3.54202,0.69495 -1.24273,0.0926 -2.48724,0.0771 -3.7319,0.0206 -1.31436,-0.074 -2.62672,-0.2107 -3.88753,-0.61416 -1.33941,-0.42148 -2.64284,-0.9415 -3.87102,-1.62838 -1.28753,-0.73019 -2.55251,-1.50141 -3.75471,-2.36672 -1.24513,-0.9099 -2.49038,-1.82025 -3.71683,-2.75517 -1.17508,-0.92016 -2.29171,-1.91221 -3.43177,-2.87505 -1.0873,-0.92364 -2.16586,-1.85753 -3.31197,-2.70915 -1.18562,-0.96364 -2.35365,-1.94914 -3.43264,-3.03315 -1.16596,-1.16774 -2.24534,-2.41934 -3.44501,-3.55374 -1.33857,-1.298 -2.63749,-2.6336 -3.96647,-3.94087 -1.43203,-1.38781 -2.83592,-2.80337 -4.21914,-4.23979 -1.411,-1.39437 -2.79176,-2.82108 -4.27658,-4.13849 -1.32214,-1.21928 -2.6369,-2.44536 -4.03001,-3.58484 -1.27992,-1.06242 -2.56037,-2.12391 -3.94999,-3.043348 -1.2313,-0.836673 -2.45999,-1.685419 -3.79793,-2.346932 -1.22952,-0.632702 -2.48286,-1.219068 -3.77804,-1.70633 -1.061,-0.391853 -2.13267,-0.765437 -3.262786,-0.899522 -1.050434,-0.06739 -2.085844,0.0056 -3.101587,0.302797 -0.599509,0.152033 -1.164492,0.327977 -1.728887,0.585463 -0.205175,0.0936 -0.800052,0.415055 -0.607784,0.297194 1.190279,-0.729647 4.416802,-2.572892 2.266446,-1.342119 -1.542336,1.006104 -2.988662,2.137661 -4.40365,3.315305 -1.634593,1.36018 -3.280229,2.718032 -4.724375,4.285402 -1.549503,1.62078 -3.091913,3.25519 -4.512325,4.99107 -1.392261,1.76767 -2.779474,3.54254 -3.975939,5.45199 -1.183016,1.88216 -2.239411,3.84527 -3.181787,5.85879 -0.835325,1.81462 -1.634646,3.64409 -2.312523,5.52419 -0.651628,1.71889 -1.186644,3.47908 -1.770778,5.22169 -0.531391,1.64624 -1.058323,3.29527 -1.487346,4.97182 -0.366423,1.46599 -0.765693,2.93144 -0.937476,4.43626 -0.128694,1.05468 -0.258354,2.16665 0.06986,3.19756 0,0 -3.78779,2.0861 -3.78779,2.0861 z"
       inkscape:connector-curvature="0"
       transform="translate(6.6292965,876.95567)" />
  </g>
</svg>
