<?xml version="1.0" encoding="UTF-8" standalone="no"?>
<!-- Created with Inkscape (http://www.inkscape.org/) -->

<svg
   xmlns:dc="http://purl.org/dc/elements/1.1/"
   xmlns:cc="http://creativecommons.org/ns#"
   xmlns:rdf="http://www.w3.org/1999/02/22-rdf-syntax-ns#"
   xmlns:svg="http://www.w3.org/2000/svg"
   xmlns="http://www.w3.org/2000/svg"
   xmlns:sodipodi="http://sodipodi.sourceforge.net/DTD/sodipodi-0.dtd"
   xmlns:inkscape="http://www.inkscape.org/namespaces/inkscape"
   width="160"
   height="91.949997"
   id="svg2"
   version="1.1"
   inkscape:version="0.48.3.1 r9886"
   inkscape:export-filename="integral.png"
   inkscape:export-xdpi="150"
   inkscape:export-ydpi="150"
   sodipodi:docname="taylor.svg">
  <defs
     id="defs4" />
  <sodipodi:namedview
     id="base"
     pagecolor="#9fffa7"
     bordercolor="#666666"
     borderopacity="1.0"
     inkscape:pageopacity="0"
     inkscape:pageshadow="2"
     inkscape:zoom="4.8164584"
     inkscape:cx="88.007994"
     inkscape:cy="43.108928"
     inkscape:document-units="px"
     inkscape:current-layer="layer1"
     showgrid="false"
     inkscape:window-width="1231"
     inkscape:window-height="776"
     inkscape:window-x="49"
     inkscape:window-y="24"
     inkscape:window-maximized="1"
     fit-margin-top="0"
     fit-margin-left="0"
     fit-margin-right="0"
     fit-margin-bottom="0"
     showguides="true"
     inkscape:guide-bbox="true">
    <sodipodi:guide
       orientation="0,1"
       position="109.62412,63.532159"
       id="guide4800" />
  </sodipodi:namedview>
  <metadata
     id="metadata7">
    <rdf:RDF>
      <cc:Work
         rdf:about="">
        <dc:format>image/svg+xml</dc:format>
        <dc:type
           rdf:resource="http://purl.org/dc/dcmitype/StillImage" />
        <dc:title></dc:title>
      </cc:Work>
    </rdf:RDF>
  </metadata>
  <g
     inkscape:label="Layer 1"
     inkscape:groupmode="layer"
     id="layer1"
     transform="translate(-6.6292965,-939.95564)">
    <path
       style="fill:#000080;fill-opacity:1;stroke:#050101;stroke-width:0;stroke-miterlimit:0.30000001;stroke-opacity:1;stroke-dasharray:none"
       id="path5396"
       d="m 7.4158272,40.014321 c 0.1281591,-1.37093 0.4329851,-2.717709 0.7579397,-4.053058 0.5688517,-2.316673 1.3604597,-4.564649 2.2483081,-6.775635 0.859602,-2.134748 1.892895,-4.193361 3.008666,-6.204189 0.79122,-1.348085 1.566864,-2.726037 2.615892,-3.893981 0.882007,-0.828001 1.905528,-1.270275 3.037176,-1.824901 0.219781,-0.107715 0.810515,-0.0278 1.046393,-0.0011 0.893904,0.09428 1.769116,0.297972 2.642701,0.503145 1.150333,0.253478 2.246477,0.671783 3.317412,1.154303 1.331782,0.550328 2.605395,1.224491 3.81815,2.000522 1.396677,0.882967 2.72022,1.872476 3.948437,2.976879 1.366009,1.254345 2.582803,2.652948 3.721718,4.112899 1.183088,1.597771 2.383154,3.181916 3.598392,4.755364 1.156321,1.547793 2.406001,3.021577 3.74494,4.413622 1.201617,1.272799 2.568804,2.368557 4.041234,3.309491 1.288314,0.778343 2.66707,1.217833 4.15619,1.3837 1.191921,0.04144 2.394132,-0.131021 3.516188,-0.543906 0.246677,-0.09077 0.483734,-0.20581 0.725601,-0.308715 0.245082,-0.128112 0.973774,-0.524266 0.735244,-0.384335 -0.408963,0.239914 -0.791409,0.552817 -1.246899,0.684491 -0.314789,0.091 0.545983,-0.36299 0.80932,-0.557994 0.917449,-0.679381 1.732047,-1.464292 2.554262,-2.252635 1.916739,-1.920002 3.647749,-4.015405 5.318921,-6.149418 1.60682,-2.122265 3.155361,-4.287717 4.742064,-6.424859 1.379427,-1.835767 2.869439,-3.58322 4.479823,-5.219437 1.460998,-1.52108 3.116401,-2.819902 4.851023,-4.010337 1.862372,-1.128392 3.733442,-2.381455 5.904419,-2.80504 0.236532,-0.04615 0.477337,-0.06677 0.716006,-0.10016 1.496432,-0.11755 2.600818,0.233419 3.881054,0.969781 1.371372,0.923641 2.545266,2.104094 3.693522,3.284769 1.412907,1.467252 2.787707,2.970144 4.175101,4.461311 1.541336,1.756215 3.075585,3.518166 4.623695,5.268446 1.5571,1.801655 3.10618,3.610308 4.65886,5.415825 1.35745,1.635026 2.83461,3.156189 4.47459,4.507068 1.43491,1.149399 3.04862,2.005626 4.74632,2.690115 1.67204,0.632551 3.32254,0.80338 5.09401,0.741362 1.12845,-0.09899 2.22658,-0.403638 3.25457,-0.877374 0.27018,-0.124506 1.04514,-0.56604 0.79609,-0.403355 -0.38044,0.248507 -0.79453,0.441226 -1.1918,0.661838 1.87236,-1.202616 3.43405,-2.791686 4.95998,-4.392992 1.69111,-1.82893 3.24254,-3.782509 4.81173,-5.715817 1.41991,-1.807175 2.89666,-3.567137 4.4215,-5.286416 1.06795,-1.209021 2.19996,-2.363968 3.48316,-3.344462 1.30125,-0.841008 2.58959,-1.802246 4.08171,-2.26394 0.43055,-0.133223 0.54788,-0.138339 0.99045,-0.213835 1.13562,-0.1254 2.20449,0.247907 3.23953,0.667615 1.51193,0.692347 2.84508,1.687299 4.12145,2.739336 1.69921,1.520898 3.21454,3.231544 4.6923,4.964025 1.08016,1.297189 2.12557,2.622719 3.17453,3.945092 0,0 -1.94847,1.163761 -1.94847,1.163761 l 0,0 c -1.05054,-1.318461 -2.09828,-2.639511 -3.18151,-3.931431 -1.47523,-1.721235 -2.99493,-3.415568 -4.70852,-4.905534 -1.27622,-1.029085 -2.61408,-1.997276 -4.12942,-2.647289 -1.02171,-0.388893 -2.0722,-0.722491 -3.17905,-0.545567 -0.42268,0.08823 -0.55244,0.100978 -0.96109,0.243499 -0.16548,0.05771 -0.63231,0.294413 -0.48866,0.194016 0.4927,-0.344349 1.03069,-0.6189 1.54405,-0.931623 0.34829,-0.21217 -1.45531,0.85815 -1.03971,0.644927 -1.31991,0.956209 -2.46979,2.115949 -3.55948,3.324405 -1.54106,1.716009 -3.03469,3.473121 -4.45649,5.289644 -1.57104,1.932985 -3.12169,3.88762 -4.79936,5.729653 -1.51388,1.60286 -3.05132,3.202537 -4.89551,4.433939 -2.40753,1.403509 -4.13738,2.643404 -6.92493,2.840871 -1.77453,0.03207 -3.48089,-0.167831 -5.14584,-0.823601 -1.7076,-0.707803 -3.33198,-1.586937 -4.77198,-2.758476 -1.63399,-1.373472 -3.10758,-2.911711 -4.46866,-4.556254 -1.54555,-1.809196 -3.09108,-3.618513 -4.64834,-5.417632 -1.552525,-1.745358 -3.087005,-3.506288 -4.638353,-5.252646 -1.39348,-1.485734 -2.777206,-2.980467 -4.196685,-4.441611 -1.1453,-1.159035 -2.31829,-2.318223 -3.693258,-3.205762 -1.263172,-0.689152 -2.331485,-0.997329 -3.786269,-0.844528 -0.751798,0.123938 -1.459971,0.290812 -2.173068,0.568048 -0.262752,0.102153 -0.979347,0.53041 -0.776883,0.334242 0.340425,-0.329838 0.817092,-0.482261 1.20734,-0.751312 0.261832,-0.180518 -0.547639,0.323514 -0.821459,0.485271 -1.745865,1.174393 -3.415771,2.455825 -4.880776,3.974363 -1.628182,1.626014 -3.130762,3.369782 -4.522842,5.202524 -1.599271,2.136521 -3.15462,4.305764 -4.759729,6.438064 -1.664076,2.133493 -3.384319,4.230817 -5.27806,6.166225 -0.570127,0.557582 -1.087786,1.080876 -1.68888,1.603878 -1.529902,1.331143 -3.305381,2.351641 -5.124749,3.234669 -1.399285,0.552306 -2.810746,0.893666 -4.32758,0.765346 -1.487901,-0.205131 -2.919719,-0.679654 -4.197339,-1.484029 -1.475031,-0.964769 -2.845721,-2.078245 -4.054064,-3.365452 -1.341857,-1.400099 -2.583618,-2.889775 -3.747964,-4.44084 -1.216466,-1.572216 -2.412439,-3.159299 -3.604331,-4.750159 -1.136286,-1.446066 -2.348354,-2.832132 -3.713784,-4.068887 -1.230445,-1.086489 -2.547033,-2.069403 -3.943258,-2.934558 -1.215248,-0.759859 -2.48594,-1.423772 -3.816869,-1.959514 -1.069975,-0.464367 -2.163476,-0.867803 -3.309106,-1.104513 -0.873701,-0.194389 -1.748995,-0.389106 -2.643537,-0.458929 -0.295181,-0.0118 -0.388725,-0.03044 -0.679392,0.0155 -0.104166,0.01646 -0.395208,0.13118 -0.308161,0.07164 0.571909,-0.391165 1.185711,-0.71725 1.777936,-1.076915 0.108347,-0.0658 -0.222453,0.122619 -0.326299,0.195317 -0.124638,0.08726 -0.238465,0.189015 -0.357698,0.283523 -1.120659,1.124461 -1.905482,2.5276 -2.722205,3.876431 -1.13072,2.003661 -2.178011,4.057005 -3.04631,6.189404 -0.888764,2.191314 -1.683443,4.420838 -2.225025,6.726456 -0.3006798,1.296719 -0.5867922,2.607712 -0.6569425,3.940816 0,0 -2.1933033,1.117543 -2.1933033,1.117543 z"
       inkscape:connector-curvature="0"
       transform="translate(6.6292965,939.95564)" />
    <path
       style="fill:#ff0000;fill-opacity:1;stroke:#050101;stroke-width:0;stroke-miterlimit:0.30000001;stroke-opacity:1;stroke-dasharray:none"
       id="path5398"
       d="m 85.003264,15.517898 c -0.340322,-0.231757 -0.729726,-0.371411 -1.131666,-0.448271 -0.309131,-0.05407 -0.624145,-0.05044 -0.936834,-0.05053 -0.332171,-0.01856 -0.608448,0.180808 -0.912582,0.281573 -0.171604,0.06376 -0.321478,0.165127 -0.478454,0.255276 -0.05316,0.03053 -0.21689,0.114268 -0.163878,0.08348 2.828692,-1.64295 2.508013,-1.453162 1.782596,-1.021471 -7.250816,4.244505 1.470722,-0.943745 -0.911029,0.553283 -0.259256,0.164749 -0.479836,0.377747 -0.713506,0.574593 -0.272072,0.231867 -0.549096,0.457776 -0.822215,0.688352 -0.321687,0.251249 -0.643597,0.502492 -0.971567,0.745482 -0.270477,0.216393 -0.556086,0.413211 -0.817339,0.640745 -0.18082,0.152845 -0.373346,0.290227 -0.560826,0.43503 -0.165053,0.14413 -0.349172,0.263242 -0.505375,0.416744 -0.175618,0.117869 -0.305231,0.29018 -0.443646,0.447603 -0.07648,0.07395 -0.133551,0.173876 -0.228309,0.228046 -0.738113,0.421948 -1.48414,0.829955 -2.222051,1.252257 -0.03033,0.01736 -0.111821,0.08329 -0.08144,0.06602 0.681062,-0.387268 1.356443,-0.784443 2.034665,-1.176665 -6.962758,4.233318 1.652436,-1.193366 -0.547111,0.367039 -0.188217,0.143844 -0.404951,0.251267 -0.581681,0.409479 -0.209638,0.182114 -0.404241,0.381066 -0.608278,0.570221 -0.282642,0.305878 -0.614199,0.557528 -0.94542,0.807234 -0.324385,0.250292 -0.647215,0.500943 -0.955363,0.770943 -0.241076,0.207108 -0.452695,0.453611 -0.639238,0.7109 -0.160397,0.239692 -0.314286,0.483534 -0.468111,0.727683 -0.226356,0.382748 -0.472038,0.753657 -0.71534,1.125748 -0.277613,0.456827 -0.628989,0.859426 -0.920817,1.306417 -0.277705,0.456768 -0.608657,0.875603 -0.931492,1.300322 -0.360008,0.484189 -0.777244,0.920381 -1.176422,1.371362 -0.426862,0.494383 -0.839539,1.000059 -1.248662,1.509087 -0.44464,0.513088 -0.864974,1.044907 -1.277209,1.584118 -0.532946,0.651275 -1.049986,1.315724 -1.581731,1.96794 -0.502464,0.599694 -0.993863,1.208056 -1.482173,1.819246 -0.431121,0.550389 -0.846588,1.112707 -1.270363,1.668688 -0.429756,0.582883 -0.920971,1.117004 -1.392621,1.665861 -0.472336,0.551907 -0.892349,1.144756 -1.307667,1.739813 -0.423651,0.585532 -0.840422,1.175938 -1.248218,1.772615 -0.437767,0.624762 -0.836027,1.275632 -1.246767,1.918136 -0.418059,0.660755 -0.827589,1.326802 -1.246668,1.986949 -0.374261,0.669303 -0.709864,1.358874 -1.078812,2.031138 -0.411179,0.737969 -0.798386,1.48874 -1.209492,2.226726 -0.412802,0.769513 -0.852314,1.523639 -1.281012,2.284236 -0.392586,0.718949 -0.798364,1.430658 -1.215007,2.135914 -0.409927,0.755257 -0.860209,1.48243 -1.333789,2.198916 -0.482535,0.716778 -0.907949,1.469644 -1.376289,2.195036 -0.492326,0.706573 -0.962071,1.428171 -1.439092,2.144959 -0.537531,0.867495 -1.117733,1.70691 -1.679369,2.558607 -0.575481,0.900318 -1.152344,1.801012 -1.700857,2.718131 -0.524691,0.8948 -0.968128,1.832122 -1.402169,2.773018 -0.401751,0.88098 -0.821287,1.753612 -1.246783,2.623312 -0.384804,0.798111 -0.821942,1.569295 -1.239776,2.350252 -0.432306,0.765543 -0.789929,1.56672 -1.152569,2.366276 -0.323644,0.686378 -0.639116,1.376426 -0.959052,2.064604 -0.299376,0.638849 -0.533815,1.306135 -0.756984,1.974727 -0.227379,0.670314 -0.495365,1.325662 -0.747847,1.986618 -0.262665,0.650851 -0.522321,1.302997 -0.784405,1.954117 -0.186284,0.423052 -0.316943,0.865038 -0.385227,1.321638 4.23e-4,0.04466 8.45e-4,0.08933 0.0013,0.133993 0,0 -2.188741,1.132903 -2.188741,1.132903 l 0,0 c -0.0062,-0.05953 -0.0125,-0.119068 -0.01875,-0.178601 0.05419,-0.480322 0.185719,-0.946998 0.379071,-1.390403 0.276844,-0.644483 0.516536,-1.304995 0.795741,-1.948754 0.237709,-0.662799 0.516865,-1.310145 0.748238,-1.975559 0.212697,-0.679571 0.460169,-1.350796 0.747012,-2.002349 0.317845,-0.691521 0.642663,-1.380208 0.968374,-2.067567 0.368145,-0.801692 0.717503,-1.611354 1.150412,-2.38157 0.414845,-0.782233 0.85416,-1.55171 1.247595,-2.344961 0.42773,-0.869304 0.851233,-1.740751 1.255805,-2.621135 0.436891,-0.946236 0.871945,-1.89388 1.395903,-2.796347 0.535664,-0.926109 1.130634,-1.817438 1.692912,-2.727534 0.556379,-0.85153 1.148063,-1.680183 1.667094,-2.555774 0.481383,-0.712943 0.937385,-1.443015 1.437501,-2.143547 0.489295,-0.711276 0.888934,-1.481975 1.378342,-2.194447 0.468799,-0.715105 0.941121,-1.423241 1.332382,-2.185476 0.416774,-0.705225 0.830826,-1.412312 1.221014,-2.132699 0.425917,-0.762051 0.875823,-1.509789 1.280697,-2.283663 0.412614,-0.735252 0.803007,-1.481864 1.204985,-2.222965 0.372185,-0.673958 0.721921,-1.359039 1.072673,-2.044404 0.416379,-0.662057 0.836807,-1.321432 1.24465,-1.988818 0.417514,-0.638575 0.803963,-1.297383 1.243088,-1.921657 0.400597,-0.602094 0.818591,-1.192742 1.245723,-1.776228 0.419433,-0.59663 0.82942,-1.200428 1.296315,-1.761875 0.473001,-0.543738 0.961097,-1.077993 1.395392,-1.652363 0.431654,-0.552168 0.843309,-1.119552 1.271195,-1.674673 0.496423,-0.609852 0.982777,-1.22728 1.49117,-1.827403 0.543557,-0.637151 1.035406,-1.317964 1.579294,-1.955481 0.410163,-0.538712 0.808545,-1.086375 1.266137,-1.586985 0.412924,-0.506433 0.814132,-1.021503 1.243751,-1.51421 0.381569,-0.461296 0.816038,-0.877118 1.176962,-1.356406 0.321281,-0.421673 0.652525,-0.836285 0.939887,-1.282474 0.287843,-0.457852 0.609946,-0.856671 0.913963,-1.301453 0.228133,-0.375212 0.484194,-0.732899 0.708682,-1.110482 0.134246,-0.262097 0.311438,-0.493572 0.455735,-0.747831 0.186819,-0.275328 0.394899,-0.532257 0.620789,-0.776465 0.328366,-0.248902 0.617255,-0.546088 0.958955,-0.78033 0.321174,-0.250683 0.657867,-0.478215 0.949433,-0.765039 0.178619,-0.219494 0.417323,-0.374764 0.586423,-0.600301 0.191105,-0.134633 0.357621,-0.323965 0.578708,-0.41768 1.291163,-0.998489 4.952916,-2.812885 0.539919,-0.37508 0.730595,-0.427816 1.458393,-0.860446 2.191786,-1.283449 0.645167,-0.372117 -1.282145,0.758274 -1.925522,1.133477 -0.05858,0.03417 0.128549,-0.04845 0.18305,-0.08881 0.02841,-0.02104 0.04844,-0.05149 0.07267,-0.07724 0.147791,-0.158737 0.287159,-0.32497 0.423474,-0.493622 0.11038,-0.05701 0.147553,-0.141438 0.244311,-0.212382 0.08763,-0.06425 0.197808,-0.09846 0.263229,-0.197345 0.188315,-0.148078 0.393644,-0.277428 0.563112,-0.44401 0.296627,-0.179628 0.53896,-0.449993 0.829298,-0.643203 0.326179,-0.244441 0.652301,-0.484238 0.970987,-0.738457 0.287631,-0.209897 0.546299,-0.454152 0.821782,-0.680421 0.238173,-0.19673 0.452182,-0.4167 0.707382,-0.589231 0.250555,-0.209898 -0.0019,-0.0134 0.281875,-0.189455 1.227485,-0.761644 4.858258,-2.831189 0.624497,-0.383682 0.997103,-0.626145 2.004739,-1.265684 3.09354,-1.720799 0.314693,-0.127727 0.621558,-0.247852 0.970034,-0.212946 0.322474,0.0065 0.647294,0.01753 0.961492,0.09789 0.417238,0.110531 0.813367,0.281825 1.181556,0.508295 0,0 -2.070912,1.339918 -2.070912,1.339918 z"
       inkscape:connector-curvature="0"
       transform="translate(6.6292965,939.95564)" />
    <path
       style="fill:#ff0000;fill-opacity:1;stroke:#050101;stroke-width:0;stroke-miterlimit:0.30000001;stroke-opacity:1;stroke-dasharray:none"
       id="path5400"
       d="m 85.20878,14.532029 c 0.523439,-0.16992 1.039253,-0.348503 1.581469,-0.452785 0.513679,-0.0381 1.018004,-0.124734 1.527918,-0.193997 0.529598,-0.07074 1.064348,-0.08346 1.597816,-0.09462 0.436306,-0.02668 0.873325,0.02225 1.284171,0.173083 0.337232,0.119537 0.670358,0.253264 0.996708,0.400234 0.362107,0.164633 0.671403,0.420314 1.016259,0.617277 0.372105,0.213091 0.711696,0.473724 1.061308,0.720547 0.383777,0.215048 0.730524,0.489675 1.069475,0.768835 0.376629,0.286642 0.715472,0.61152 1.045949,0.949772 0.383152,0.427545 0.813089,0.803983 1.246705,1.178392 0.511623,0.438444 0.993401,0.910023 1.47659,1.379185 0.540079,0.464097 1.073252,0.93517 1.595832,1.418956 0.54597,0.511209 1.07778,1.033572 1.57086,1.595952 0.44584,0.501661 0.87469,1.019531 1.27489,1.558427 0.36259,0.459654 0.65422,0.967828 0.94397,1.47525 0.26441,0.460057 0.5278,0.919409 0.77331,1.389761 0.27487,0.472757 0.54071,0.949216 0.76135,1.449895 0.20124,0.532025 0.36607,1.076558 0.55728,1.61209 0.23688,0.590142 0.47878,1.176741 0.6897,1.776906 0.2363,0.695894 0.50425,1.380076 0.7528,2.071446 0.25998,0.788963 0.59158,1.5483 0.96569,2.288831 0.32696,0.743948 0.66398,1.483049 1.05063,2.198157 0.40481,0.71795 0.79843,1.441416 1.1534,2.185372 0.32909,0.724124 0.71247,1.421433 1.10708,2.111369 0.43286,0.752223 0.83363,1.522121 1.23002,2.293966 0.38396,0.780014 0.73351,1.576131 1.07947,2.373486 0.39064,0.888221 0.80695,1.764567 1.20443,2.649714 0.4223,0.908859 0.83284,1.82288 1.24571,2.73604 0.39802,0.877529 0.82093,1.743393 1.24698,2.60755 0.44005,0.862915 0.85962,1.735067 1.24485,2.623829 0.43109,0.974345 0.83701,1.95931 1.24504,2.943424 0.43817,1.082105 0.93025,2.141085 1.3918,3.213455 0.47906,1.139484 0.97957,2.269689 1.45185,3.412127 0.42689,1.075121 0.85676,2.149275 1.30911,3.213979 0.40705,0.880959 0.79157,1.769966 1.15908,2.668027 0.35346,0.778081 0.74784,1.534368 1.08035,2.321927 0.32675,0.812501 0.69233,1.606717 1.09762,2.382693 0.35669,0.694281 0.71512,1.387977 1.06342,2.086566 0.23231,0.507386 0.44443,1.023857 0.6856,1.527126 0.14693,0.354768 0.31094,0.70095 0.47821,1.046688 0.045,0.09623 0.0835,0.190759 0.15488,0.268942 0.029,0.03099 0.0598,0.06014 0.0909,0.08902 0,0 -2.11904,1.298677 -2.11904,1.298677 l 0,0 c -0.0324,-0.03453 -0.0647,-0.0691 -0.0959,-0.104618 -0.0872,-0.102025 -0.13738,-0.210521 -0.18115,-0.337887 -0.15074,-0.352117 -0.31696,-0.696704 -0.4583,-1.052617 -0.24074,-0.503332 -0.4453,-1.022859 -0.66781,-1.534376 -0.33918,-0.700942 -0.69942,-1.392367 -1.04997,-2.087593 -0.40685,-0.78225 -0.77367,-1.583393 -1.10716,-2.399778 -0.33298,-0.788658 -0.73,-1.544703 -1.07763,-2.326758 -0.36577,-0.898267 -0.74139,-1.790626 -1.1452,-2.672644 -0.44701,-1.068254 -0.87322,-2.145015 -1.29842,-3.222097 -0.47015,-1.142139 -0.96992,-2.27112 -1.45411,-3.407138 -0.45844,-1.07457 -0.95622,-2.131539 -1.40057,-3.21188 -0.40663,-0.98284 -0.81686,-1.96414 -1.2464,-2.937256 -0.38954,-0.882597 -0.81074,-1.749717 -1.24667,-2.610309 -0.42632,-0.867172 -0.84861,-1.736472 -1.24571,-2.617517 -0.41185,-0.913687 -0.82694,-1.825738 -1.24619,-2.736051 -0.39947,-0.884976 -0.81917,-1.760565 -1.21064,-2.649169 -0.34864,-0.790579 -0.70709,-1.576762 -1.07439,-2.358859 -0.39632,-0.767752 -0.79833,-1.532827 -1.23285,-2.279854 -0.39868,-0.694748 -0.78365,-1.398256 -1.11579,-2.127738 -0.35129,-0.741635 -0.74026,-1.462408 -1.14808,-2.174574 -0.38442,-0.718747 -0.72815,-1.456818 -1.05032,-2.205438 -0.37847,-0.74872 -0.71561,-1.516705 -0.98591,-2.311745 -0.24787,-0.691894 -0.5191,-1.375222 -0.76237,-2.068914 -0.20646,-0.600362 -0.45387,-1.184079 -0.69315,-1.771794 -0.19271,-0.529212 -0.35833,-1.067427 -0.55239,-1.596236 -0.21562,-0.496223 -0.48333,-0.966149 -0.75235,-1.43501 -0.24678,-0.466794 -0.51169,-0.922484 -0.76938,-1.383327 -0.28054,-0.501428 -0.57303,-0.997325 -0.92461,-1.452753 -0.39091,-0.536928 -0.82024,-1.045013 -1.25742,-1.544658 -0.486979,-0.556168 -1.012692,-1.07454 -1.556713,-1.575048 -0.523586,-0.485997 -1.066475,-0.949486 -1.601905,-1.422211 -0.478925,-0.467573 -0.963625,-0.929407 -1.472861,-1.364178 -0.439612,-0.378532 -0.874455,-0.760397 -1.267112,-1.188779 -0.327729,-0.328232 -0.664768,-0.643644 -1.034657,-0.924549 -0.340297,-0.269911 -0.684163,-0.536088 -1.060768,-0.754062 -0.347035,-0.240117 -0.682509,-0.497753 -1.051813,-0.703962 -0.331195,-0.20071 -0.64373,-0.437031 -1.002222,-0.588039 -0.32701,-0.130092 -0.646943,-0.278556 -0.984388,-0.380522 -0.403153,-0.105633 -0.810845,-0.144112 -1.227766,-0.113709 -0.527797,0.01359 -1.056173,0.03675 -1.578726,0.117633 -0.50574,0.07935 -1.014532,0.12268 -1.519155,0.206579 -0.538143,0.12397 -1.055378,0.311245 -1.57864,0.485842 0,0 1.946176,-1.511976 1.946176,-1.511976 z"
       inkscape:connector-curvature="0"
       transform="translate(6.6292965,939.95564)" />
  </g>
</svg>
