<?xml version="1.0" encoding="UTF-8" standalone="no"?>
<!-- Created with Inkscape (http://www.inkscape.org/) -->

<svg
   xmlns:dc="http://purl.org/dc/elements/1.1/"
   xmlns:cc="http://creativecommons.org/ns#"
   xmlns:rdf="http://www.w3.org/1999/02/22-rdf-syntax-ns#"
   xmlns:svg="http://www.w3.org/2000/svg"
   xmlns="http://www.w3.org/2000/svg"
   xmlns:sodipodi="http://sodipodi.sourceforge.net/DTD/sodipodi-0.dtd"
   xmlns:inkscape="http://www.inkscape.org/namespaces/inkscape"
   width="160"
   height="91.949997"
   id="svg2"
   version="1.1"
   inkscape:version="0.48.3.1 r9886"
   inkscape:export-filename="integral.png"
   inkscape:export-xdpi="150"
   inkscape:export-ydpi="150"
   sodipodi:docname="mnc.svg">
  <defs
     id="defs4" />
  <sodipodi:namedview
     id="base"
     pagecolor="#9fffa7"
     bordercolor="#666666"
     borderopacity="1.0"
     inkscape:pageopacity="0"
     inkscape:pageshadow="2"
     inkscape:zoom="4.8164584"
     inkscape:cx="80"
     inkscape:cy="61.974998"
     inkscape:document-units="px"
     inkscape:current-layer="layer1"
     showgrid="false"
     inkscape:window-width="1231"
     inkscape:window-height="776"
     inkscape:window-x="49"
     inkscape:window-y="24"
     inkscape:window-maximized="1"
     fit-margin-top="0"
     fit-margin-left="0"
     fit-margin-right="0"
     fit-margin-bottom="0"
     showguides="true"
     inkscape:guide-bbox="true">
    <sodipodi:guide
       orientation="0,1"
       position="109.62412,63.532159"
       id="guide4800" />
  </sodipodi:namedview>
  <metadata
     id="metadata7">
    <rdf:RDF>
      <cc:Work
         rdf:about="">
        <dc:format>image/svg+xml</dc:format>
        <dc:type
           rdf:resource="http://purl.org/dc/dcmitype/StillImage" />
        <dc:title></dc:title>
      </cc:Work>
    </rdf:RDF>
  </metadata>
  <g
     inkscape:label="Layer 1"
     inkscape:groupmode="layer"
     id="layer1"
     transform="translate(-6.6292965,-939.95564)">
    <path
       style="fill:#0000ff;fill-opacity:1;stroke:#050101;stroke-width:0;stroke-miterlimit:0.30000000999999998;stroke-opacity:1;stroke-dasharray:none"
       id="path5129"
       d="m 24.662406,19.88255 c 0.09828,-0.63264 -0.02091,-1.239029 -0.267499,-1.820795 -0.262333,-0.461397 -0.715036,-0.814613 -1.267299,-0.82389 -0.120837,-0.002 -0.240125,0.02762 -0.360188,0.04143 -0.134415,0.0427 -0.273301,0.07329 -0.403245,0.128112 -0.155166,0.06547 -0.595823,0.314125 -0.449081,0.231488 0.520182,-0.29294 1.019156,-0.631439 1.569617,-0.862516 0.20624,-0.08658 -0.3545,0.273489 -0.521344,0.422464 -0.53927,0.481513 -0.610976,0.607039 -1.090503,1.17121 -1.035948,1.358438 -1.788734,2.906778 -2.242466,4.553156 -0.09964,0.361545 -0.171756,0.730117 -0.257634,1.095175 -0.353588,1.928927 -0.327864,3.904802 0.207956,5.798634 0.11139,0.393702 0.26008,0.775882 0.39012,1.163824 0.962532,2.43108 2.529367,4.539602 4.090494,6.611839 0.264638,0.351151 0.526539,0.704381 0.793913,1.053453 0.456034,0.595376 1.120448,1.424971 1.569279,2.028076 0.731061,0.982345 1.401154,2.003138 2.067346,3.029778 1.214668,1.803808 2.140145,3.764764 2.884221,5.801971 0.555683,1.573562 0.962023,3.184759 1.102186,4.84829 0.110031,1.308646 -0.08912,2.436163 -0.662083,3.611825 -0.355966,0.647587 -0.869044,1.163356 -1.514336,1.523886 -2.592709,1.44857 -1.66098,1.150047 -3.137056,1.549046 -1.416819,0.228352 -2.851079,0.04752 -4.266228,-0.09801 -1.077915,-0.119799 -2.145547,-0.307199 -3.215471,-0.481136 0,0 1.97028,-1.380155 1.97028,-1.380155 l 0,0 c 1.050942,0.196077 2.104424,0.379438 3.168032,0.493563 1.406159,0.138846 2.839844,0.307328 4.237076,0.0049 1.152819,-0.371168 0.629659,-0.251283 -0.994675,0.778175 -0.149634,0.09483 0.310663,-0.171008 0.459293,-0.267409 0.357359,-0.231783 0.530745,-0.366529 0.801574,-0.698102 0.11309,-0.138455 0.204374,-0.293373 0.306561,-0.44006 0.639125,-1.159304 0.816364,-2.184899 0.746251,-3.506127 -0.10929,-1.649529 -0.498888,-3.250296 -1.033153,-4.813446 -0.718528,-2.028731 -1.630102,-3.978355 -2.82486,-5.774888 -0.66125,-1.021956 -1.325045,-2.040307 -2.048649,-3.01991 -0.377094,-0.510504 -1.181337,-1.532817 -1.563201,-2.034041 -0.266389,-0.349654 -0.527975,-0.702942 -0.791963,-1.054413 -1.576197,-2.091224 -3.155649,-4.218957 -4.140341,-6.666567 -0.135464,-0.393477 -0.290292,-0.780812 -0.406393,-1.180431 -0.557346,-1.918391 -0.598467,-3.923927 -0.265991,-5.885871 0.08213,-0.369757 0.150399,-0.742871 0.246403,-1.109271 0.434582,-1.658589 1.158212,-3.226904 2.163735,-4.616576 0.38288,-0.480282 1.020206,-1.305833 1.544105,-1.642016 0.827725,-0.531148 1.682057,-1.020242 2.538239,-1.504184 0.373102,-0.210889 0.529772,-0.214695 0.928256,-0.298845 0.87983,0.01421 1.334509,0.269189 1.79399,1.026062 0.264341,0.618609 0.393793,1.253659 0.359706,1.929427 0,0 -2.214974,1.082889 -2.214974,1.082889 z"
       inkscape:connector-curvature="0"
       transform="translate(6.6292965,939.95564)" />
    <path
       style="fill:#0000ff;fill-opacity:1;stroke:#050101;stroke-width:0;stroke-miterlimit:0.30000000999999998;stroke-opacity:1;stroke-dasharray:none"
       id="path5131"
       d="m 30.416153,70.901208 c 0.03292,0.05793 0.06301,0.117551 0.09875,0.173781 0.02997,0.04715 0.120982,0.1866 0.188275,0.218608 0.01647,0.0078 0.0698,-0.01899 0.05375,-0.01033 -2.169786,1.169578 -2.322273,1.900103 -2.088117,0.99035 -0.02071,-0.823381 -0.401567,-1.573464 -0.854294,-2.240532 -0.481625,-0.579859 -1.135583,-1.22293 -1.961574,-1.15187 -0.156445,0.01346 -0.305504,0.07274 -0.458255,0.109114 -0.15544,0.0793 -0.618947,0.322499 -0.466321,0.237907 0.520732,-0.28861 1.014696,-0.637526 1.570828,-0.850068 0.202474,-0.07738 -0.334185,0.277672 -0.483712,0.434595 -0.535673,0.562168 -0.800627,1.119966 -1.085984,1.828331 -0.291432,1.075355 -0.318259,2.310426 0.379334,3.250746 0.119797,0.161481 0.279439,0.289177 0.419159,0.433766 0.671794,0.474104 1.441908,0.638419 2.239189,0.393432 0.203786,-0.06262 0.76983,-0.362637 0.58838,-0.250718 -0.473129,0.291828 -0.978127,0.528514 -1.46719,0.79277 1.088082,-0.813812 1.717612,-1.857291 1.992516,-3.17341 0.04646,-0.273516 0.02626,-1.417331 -0.484412,-0.818599 0.649668,-0.359024 1.274472,-0.767276 1.949004,-1.077072 0.07805,-0.03585 -0.09023,0.14929 -0.11059,0.232734 -0.02432,0.09971 -0.02939,0.204867 -0.02111,0.307161 0.03573,0.441444 0.267163,0.793101 0.497796,1.153998 1.02164,1.153683 2.29897,1.366108 3.765437,1.468866 0.92295,0.05128 1.820913,-0.123314 2.719128,-0.30286 0,0 -1.857987,1.404171 -1.857987,1.404171 l 0,0 c -0.915702,0.16648 -1.831309,0.32763 -2.768032,0.261403 -1.59222,-0.138361 -2.822138,-0.381642 -3.935216,-1.617892 -0.325383,-0.492383 -0.648712,-1.015521 -0.609498,-1.633901 0.0067,-0.105682 -0.02105,-0.247418 0.06341,-0.311291 0.702926,-0.531583 1.485872,-0.94812 2.228808,-1.42218 0.06897,-0.008 0.138135,-0.03371 0.206902,-0.02411 0.587304,0.08196 0.546012,0.919911 0.517136,1.33177 -0.259885,1.357266 -0.863628,2.468842 -1.941542,3.359275 -1.473918,0.865664 -3.244018,2.465538 -5.079517,1.518462 -0.188193,-0.0971 -0.352137,-0.235337 -0.528206,-0.353005 -0.148852,-0.161893 -0.318139,-0.307142 -0.446557,-0.485677 -0.720032,-1.001038 -0.734858,-2.289914 -0.462685,-3.441329 0.08453,-0.232228 0.152141,-0.471328 0.253578,-0.696683 0.788726,-1.75226 2.513871,-2.763635 4.281606,-3.398362 0.168218,-0.01824 0.335525,-0.05977 0.504655,-0.05473 0.875181,0.02612 1.544973,0.700304 2.062676,1.328319 0.487304,0.707385 0.873104,1.488173 0.982106,2.350676 0.08837,1.041862 0.08904,0.300323 -2.172708,1.489487 -0.06438,0.03385 -0.29107,-0.326414 -0.306027,-0.349186 -0.0366,-0.05573 -0.07129,-0.112692 -0.106938,-0.169038 0,0 2.13405,-1.236885 2.13405,-1.236885 z"
       inkscape:connector-curvature="0"
       transform="translate(6.6292965,939.95564)" />
    <path
       style="fill:#0000ff;fill-opacity:1;stroke:#050101;stroke-width:0;stroke-miterlimit:0.30000000999999998;stroke-opacity:1;stroke-dasharray:none"
       id="path5133"
       d="m 17.128381,0.72516252 c 0.582782,1.12725338 1.132745,2.27052078 1.653589,3.42758578 0.587105,1.3073574 1.072478,2.6559189 1.603572,3.9859454 0.144237,0.2094517 0.140177,0.5433166 0.336448,0.7242996 0.07514,0.069289 0.127639,-0.1041298 0.112284,-0.096279 -0.673085,0.3441454 -1.324416,0.7292762 -1.986624,1.0939143 0.385269,-0.3474795 0.727328,-0.7369429 1.144129,-1.0506375 0.768449,-0.5783527 2.937968,-1.7255258 2.998177,-1.7598676 0.906119,-0.3869093 1.90839,-0.6386216 2.894517,-0.4351539 0.183904,0.037945 0.360201,0.1062864 0.540301,0.1594297 0.793997,0.3187492 1.393882,0.923462 1.614056,1.7655357 0.03885,0.1485813 0.04535,0.3037858 0.06803,0.4556787 0.01986,0.8699988 -0.369267,1.6407534 -1.050927,2.1818564 -0.154803,0.122883 -0.330221,0.217283 -0.495331,0.325924 -0.870217,0.478015 -1.723606,0.988035 -2.610651,1.434047 -0.196664,0.09888 -0.417648,0.140384 -0.630702,0.195726 -0.940722,0.244358 -1.893498,0.264458 -2.85855,0.242591 -1.238395,-0.04227 -2.412411,-0.393762 -3.560091,-0.829581 0,0 2.002236,-1.344543 2.002236,-1.344543 l 0,0 c 1.114252,0.440546 2.266396,0.760012 3.474148,0.78578 0.956925,0.0039 1.89656,-0.036 2.820378,-0.313362 0.209947,-0.06303 0.790778,-0.357638 0.619363,-0.221009 -0.454558,0.362316 -0.990895,0.608036 -1.486342,0.912054 0.168616,-0.0939 0.346617,-0.172646 0.50585,-0.281706 0.670719,-0.459384 1.107168,-1.146559 1.131062,-1.963984 -0.0132,-0.135941 -0.0092,-0.2746659 -0.03961,-0.4078234 C 25.749737,8.9317744 25.180217,8.3971359 24.448392,8.1315594 24.276538,8.0888785 24.107687,8.0314525 23.93283,8.0035167 22.962418,7.8484807 21.994009,8.140274 21.1251,8.5507964 25.377494,6.0337271 22.435546,7.76276 22.22412,7.91115 21.811199,8.2009596 21.451809,8.5586329 21.132535,8.9468444 20.376618,9.3846363 19.641593,9.8606686 18.864785,10.26022 18.596274,10.398329 18.315934,9.4096363 18.282175,9.3075299 17.805803,7.9591895 17.328061,6.6103648 16.741592,5.3046915 16.215745,4.1627856 15.663569,3.028182 14.994331,1.9620478 c 0,0 2.13405,-1.23688528 2.13405,-1.23688528 z"
       inkscape:connector-curvature="0"
       transform="translate(6.6292965,939.95564)" />
    <path
       style="fill:#0000ff;fill-opacity:1;stroke:#050101;stroke-width:0;stroke-miterlimit:0.30000000999999998;stroke-opacity:1;stroke-dasharray:none"
       id="path5135"
       d="m 42.886704,30.109012 c -0.199528,-0.648685 -0.515372,-0.986958 -1.17226,-1.163026 -0.112743,-0.0044 -0.225883,-0.02354 -0.338231,-0.01313 -0.473794,0.04389 -3.321894,1.309608 0.965055,-0.700192 0.152526,-0.07151 -0.267228,0.206381 -0.387952,0.323868 -0.130746,0.127241 -0.242957,0.272232 -0.364435,0.408348 -0.862608,1.261805 -0.975255,2.63803 -0.940915,4.124438 0.151847,2.010263 0.921432,3.864876 1.776226,5.663625 1.003224,2.056668 2.127974,4.050114 3.148028,6.098059 0.679578,1.360455 1.24859,2.771926 1.674537,4.231619 0.08496,0.294281 0.09513,0.539667 0.0025,0.824453 0,0 -2.255789,0.984675 -2.255789,0.984675 l 0,0 c 0.28154,-0.190802 0.147299,-0.340042 0.135506,-0.660367 -0.34637,-1.471268 -0.91131,-2.878444 -1.561931,-4.240192 -1.003048,-2.057479 -2.121925,-4.055039 -3.146031,-6.10206 -0.879782,-1.819089 -1.668172,-3.693811 -1.858111,-5.728782 -0.06421,-1.516888 0.02233,-2.924058 0.819666,-4.259126 0.970336,-1.226053 1.319395,-1.219694 3.166339,-2.219634 0.357787,-0.193707 0.795521,-0.175378 1.178043,-0.102828 0.720382,0.273524 1.038068,0.628794 1.318501,1.34134 0,0 -2.15874,1.188913 -2.15874,1.188913 z"
       inkscape:connector-curvature="0"
       transform="translate(6.6292965,939.95564)" />
    <path
       style="fill:#0000ff;fill-opacity:1;stroke:#050101;stroke-width:0;stroke-miterlimit:0.30000000999999998;stroke-opacity:1;stroke-dasharray:none"
       id="path5137"
       d="m 36.966882,45.579343 c 0.07158,-0.08416 0.135522,-0.175456 0.214739,-0.252465 0.216174,-0.21015 0.563982,-0.462966 0.815298,-0.609244 0.872961,-0.508104 1.74767,-1.013958 2.637898,-1.491165 0.206183,-0.110525 1.276418,-0.522846 1.46244,-0.595902 1.474032,-0.547125 2.99628,-0.944176 4.515983,-1.339888 0,0 -1.84774,1.416005 -1.84774,1.416005 l 0,0 c -1.521605,0.39908 -3.045173,0.804407 -4.513574,1.375172 -0.260199,0.106342 -0.522379,0.207957 -0.780595,0.319026 -0.231806,0.09971 -0.892806,0.462253 -0.689199,0.313189 0.453712,-0.332169 0.960965,-0.584335 1.446641,-0.867725 0.238646,-0.139249 -0.485811,0.278091 -0.799002,0.53805 -0.07565,0.06279 -0.139018,0.139058 -0.208527,0.208588 0,0 -2.254362,0.986359 -2.254362,0.986359 z"
       inkscape:connector-curvature="0"
       transform="translate(6.6292965,939.95564)" />
    <path
       style="fill:#0000ff;fill-opacity:1;stroke:#050101;stroke-width:0;stroke-miterlimit:0.30000000999999998;stroke-opacity:1;stroke-dasharray:none"
       id="path5139"
       d="m 53.788852,33.648062 c -0.681776,1.02842 -1.255569,2.120316 -1.765088,3.242316 -0.601278,1.546949 -1.015186,3.186529 -0.978827,4.858083 0.0071,0.32478 0.05369,0.647492 0.08054,0.971238 0.126668,0.87469 0.372813,1.715825 0.861723,2.460477 0.142503,0.217044 0.320783,0.40836 0.481174,0.61254 0,0 -2.023165,1.204489 -2.023165,1.204489 l 0,0 c -0.164382,-0.216419 -0.346689,-0.420327 -0.493146,-0.649257 -0.497799,-0.778127 -0.754412,-1.648312 -0.886103,-2.556413 -0.02987,-0.332669 -0.08008,-0.664135 -0.08962,-0.998007 -0.04828,-1.689877 0.347697,-3.351388 0.921726,-4.928549 0.470128,-1.109776 1.015866,-2.183059 1.635763,-3.217457 0,0 2.255025,-0.99946 2.255025,-0.99946 z"
       inkscape:connector-curvature="0"
       transform="translate(6.6292965,939.95564)" />
    <path
       style="fill:#0000ff;fill-opacity:1;stroke:#050101;stroke-width:0;stroke-miterlimit:0.30000000999999998;stroke-opacity:1;stroke-dasharray:none"
       id="path5141"
       d="m 57.432912,39.073394 c 0.830216,0.805535 1.7954,1.441677 2.771761,2.052616 1.101558,0.704792 2.26195,1.305428 3.477146,1.785895 0,0 -1.966898,1.316148 -1.966898,1.316148 l 0,0 c -1.21429,-0.506762 -2.375706,-1.122628 -3.48834,-1.826299 -1.000711,-0.615138 -1.975716,-1.265735 -2.880324,-2.017677 0,0 2.086655,-1.310683 2.086655,-1.310683 z"
       inkscape:connector-curvature="0"
       transform="translate(6.6292965,939.95564)" />
    <path
       style="fill:#0000ff;fill-opacity:1;stroke:#050101;stroke-width:0;stroke-miterlimit:0.30000000999999998;stroke-opacity:1;stroke-dasharray:none"
       id="path5143"
       d="m 63.312889,38.637127 c -1.178297,0.703208 -2.160096,1.6832 -3.138753,2.632606 -1.267472,1.293635 -2.385169,2.667228 -3.116354,4.333228 0,0 -2.158294,0.990015 -2.158294,0.990015 l 0,0 c 0.09265,-0.213201 0.173826,-0.431765 0.277951,-0.639603 0.712708,-1.4226 1.779129,-2.635492 2.848972,-3.796534 0.940603,-0.931737 1.878691,-1.89478 2.98521,-2.631894 0,0 2.301268,-0.887818 2.301268,-0.887818 z"
       inkscape:connector-curvature="0"
       transform="translate(6.6292965,939.95564)" />
    <path
       style="fill:#0000ff;fill-opacity:1;stroke:#050101;stroke-width:0;stroke-miterlimit:0.30000000999999998;stroke-opacity:1;stroke-dasharray:none"
       id="path5145"
       d="m 65.540375,33.628883 c 1.14191,0.697298 2.249194,1.449843 3.336256,2.229398 1.187395,0.917342 2.461717,1.880388 3.199083,3.226022 0.126886,0.231556 0.208082,0.485361 0.312123,0.728041 0.521094,1.861505 -0.202504,3.031319 -1.2424,4.50915 -0.72771,0.952353 -1.589131,1.791183 -2.445158,2.626043 0,0 -2.164186,0.892102 -2.164186,0.892102 l 0,0 c 0.859823,-0.823328 1.719146,-1.655724 2.463593,-2.587278 1.003063,-1.389191 1.791377,-2.499526 1.330104,-4.286722 -0.09378,-0.231253 -0.164462,-0.473272 -0.281327,-0.693759 -0.705876,-1.331765 -1.971132,-2.269811 -3.140275,-3.161164 -1.100368,-0.770974 -2.222205,-1.524959 -3.425251,-2.128112 0,0 2.057438,-1.353721 2.057438,-1.353721 z"
       inkscape:connector-curvature="0"
       transform="translate(6.6292965,939.95564)" />
    <path
       style="fill:#0000ff;fill-opacity:1;stroke:#050101;stroke-width:0;stroke-miterlimit:0.30000000999999998;stroke-opacity:1;stroke-dasharray:none"
       id="path5147"
       d="m 79.682087,43.343772 c 0.127275,-0.839065 -0.22263,-1.375488 -0.804989,-1.936079 -0.770702,-0.577968 -1.704604,-0.620248 -2.574407,-0.222953 -0.206675,0.0944 -0.395856,0.223169 -0.593783,0.334753 0.481073,-0.245476 0.915925,-0.61959 1.443219,-0.736428 0.252259,-0.0559 -0.386923,0.344679 -0.556199,0.539882 -0.175464,0.202338 -0.334721,0.419953 -0.474343,0.6485 -0.446498,0.730875 -0.558783,1.321246 -0.654263,2.151066 0.03043,0.834315 0.349865,1.670523 1.131841,2.082341 0.46179,0.243196 0.709844,0.20367 1.220386,0.237877 -0.271324,0.444842 1.782537,-0.672524 1.373941,-0.422302 -0.431699,0.264369 -0.842343,0.635075 -1.343189,0.708619 -0.292233,0.04291 0.45063,-0.384953 0.646225,-0.606277 0.542683,-0.614066 0.671795,-0.958177 1.061787,-1.682743 0.804114,-1.825775 1.041073,-3.808781 0.910202,-5.787987 -0.02651,-0.40087 -0.08445,-0.799039 -0.126681,-1.198559 -0.276771,-1.935318 -0.854675,-3.807585 -1.587716,-5.61484 -0.07171,-0.158679 -0.141103,-0.318425 -0.215132,-0.476035 -0.05409,-0.115167 -0.110182,-0.22944 -0.169174,-0.342176 -0.03248,-0.06207 -0.06081,-0.127714 -0.105107,-0.181985 -0.0074,-0.0091 -0.04326,0.01838 -0.03278,0.01304 2.260953,-1.152461 1.988109,-1.890379 2.23718,-0.788518 0.493182,1.776596 1.254636,3.465541 1.947854,5.170144 0.97738,2.374971 1.932921,4.759011 2.9168,7.131306 0.15928,0.344007 0.31856,0.688013 0.477841,1.032019 0,0 -1.998637,1.128634 -1.998637,1.128634 l 0,0 c -0.156932,-0.34874 -0.313865,-0.69748 -0.470797,-1.046221 -0.965154,-2.379888 -1.918422,-4.764516 -2.913377,-7.132209 -0.717807,-1.698038 -1.487928,-3.377519 -2.09842,-5.118392 -0.373119,-1.094363 -0.23848,-0.367743 2.002725,-1.6952 0.03264,-0.01933 0.04887,0.05888 0.06593,0.09276 0.09127,0.181311 0.157713,0.374104 0.233899,0.562252 0.06669,0.164686 0.130184,0.330645 0.195275,0.495968 0.675996,1.855218 1.25112,3.752616 1.53661,5.711362 0.04393,0.4052 0.10325,0.809025 0.131777,1.215599 0.140387,2.000842 -0.06506,4.011972 -0.829698,5.87864 -0.367652,0.738348 -0.495669,1.098624 -1.009112,1.739223 -0.893318,1.11455 -1.942666,1.500267 -3.318706,2.250895 -0.22823,0.124499 -0.479752,0.207562 -0.732908,0.266729 -0.235737,0.0551 -0.481698,0.04896 -0.722548,0.07343 -0.570301,-0.07503 -0.798772,-0.0442 -1.302269,-0.344983 -0.569294,-0.340085 -0.986966,-0.952449 -1.147965,-1.590453 -0.05835,-0.231236 -0.056,-0.473671 -0.084,-0.710507 0.02388,-0.251656 0.02616,-0.506305 0.07163,-0.754967 0.145743,-0.796978 0.494306,-1.557219 0.997099,-2.192321 0.161531,-0.204038 0.323155,-0.418165 0.536532,-0.567142 0.839214,-0.585926 1.736458,-1.084006 2.604687,-1.626009 0.208658,-0.101494 0.408765,-0.222874 0.625973,-0.304483 0.958071,-0.359961 1.945184,-0.214879 2.74484,0.41677 0.648262,0.637884 0.991657,1.18054 0.96692,2.115059 0,0 -2.214973,1.082889 -2.214973,1.082889 z"
       inkscape:connector-curvature="0"
       transform="translate(6.6292965,939.95564)" />
    <path
       style="fill:#0000ff;fill-opacity:1;stroke:#050101;stroke-width:0;stroke-miterlimit:0.30000000999999998;stroke-opacity:1;stroke-dasharray:none"
       id="path5149"
       d="m 91.456855,39.757992 c 0.550031,1.089697 1.321232,2.05014 2.14092,2.946588 0.905004,1.015537 1.976265,1.830001 3.120351,2.552355 0,0 -1.989938,1.278456 -1.989938,1.278456 l 0,0 c -1.14348,-0.75241 -2.215806,-1.593268 -3.139123,-2.61145 -0.839133,-0.907975 -1.615227,-1.875449 -2.26626,-2.929063 0,0 2.13405,-1.236886 2.13405,-1.236886 z"
       inkscape:connector-curvature="0"
       transform="translate(6.6292965,939.95564)" />
    <path
       style="fill:#0000ff;fill-opacity:1;stroke:#050101;stroke-width:0;stroke-miterlimit:0.30000000999999998;stroke-opacity:1;stroke-dasharray:none"
       id="path5151"
       d="m 97.03065,41.255557 c -0.10876,0.04931 -0.221071,0.09143 -0.326281,0.147922 -0.157349,0.08448 -0.618186,0.357659 -0.460212,0.27435 0.477493,-0.251809 0.909999,-0.60087 1.419205,-0.780081 0.290854,-0.102364 -0.503529,0.356292 -0.748207,0.543929 -0.796658,0.610936 -0.95641,0.776682 -1.726308,1.456383 -1.720781,1.629591 -3.359252,3.350186 -4.863229,5.182192 0,0 -2.130847,0.907223 -2.130847,0.907223 l 0,0 c 1.511642,-1.842177 3.166794,-3.563275 4.873732,-5.224853 0.772202,-0.700801 0.884116,-0.825545 1.676815,-1.458867 0.2342,-0.187113 0.461621,-0.385209 0.71478,-0.545744 0.868967,-0.551032 1.761373,-1.064283 2.647893,-1.586608 0.468487,-0.276027 0.428979,-0.242218 0.873875,-0.407858 0,0 -1.951216,1.492012 -1.951216,1.492012 z"
       inkscape:connector-curvature="0"
       transform="translate(6.6292965,939.95564)" />
    <path
       style="fill:#ff0000;fill-opacity:1;stroke:#050101;stroke-width:0;stroke-miterlimit:0.30000001;stroke-opacity:1;stroke-dasharray:none"
       id="path5153"
       d="m 104.25704,34.562848 c 0.89467,-1.098396 1.88054,-2.114602 2.89899,-3.097427 0.49629,-0.432404 0.99081,-0.885187 1.57387,-1.201529 0.0127,-0.0069 1.9794,-1.566557 2.84015,-1.278383 0.11474,0.03841 0.20471,0.129052 0.30706,0.193578 0.45406,0.482127 0.6528,1.12005 0.8826,1.725658 0.26333,0.693931 0.16439,0.446252 0.47061,1.129078 0.46973,0.946662 1.14106,1.81605 2.11993,2.278294 0.18832,0.08892 0.39206,0.140616 0.58808,0.210924 1.23266,0.274459 2.47558,-0.007 3.58634,-0.576394 0.26273,-0.134672 0.50988,-0.297804 0.76481,-0.446706 -0.41065,0.206711 -0.77275,0.597892 -1.23196,0.620132 -0.30987,0.01501 0.48431,-0.388323 0.71557,-0.595122 0.22531,-0.201481 0.44177,-0.412938 0.65323,-0.62891 0.57345,-0.585692 1.05806,-1.214706 1.52503,-1.885471 0,0 2.16858,-0.944231 2.16858,-0.944231 l 0,0 c -0.64707,0.93871 -1.34689,1.806831 -2.18599,2.584164 -0.22916,0.212287 -0.44891,0.439608 -0.70845,0.613434 -0.89732,0.60096 -1.83632,1.137203 -2.75447,1.705805 -0.26304,0.14383 -0.51833,0.302813 -0.7891,0.431491 -1.16667,0.554438 -2.45838,0.787279 -3.71963,0.450195 -0.20441,-0.08254 -0.41701,-0.147134 -0.61322,-0.247627 -1.00289,-0.513669 -1.69579,-1.414134 -2.1954,-2.398256 -0.30795,-0.675513 -0.21864,-0.456323 -0.48732,-1.136427 -0.17589,-0.445217 -0.329,-0.92786 -0.61278,-1.321142 -0.0623,-0.08639 -0.14484,-0.156252 -0.21726,-0.234378 -0.0792,-0.03277 -0.15269,-0.08646 -0.23757,-0.0983 -0.69293,-0.0966 -2.06154,1.216666 1.36801,-1.01271 0.15621,-0.101545 -0.33178,0.170953 -0.48827,0.272058 -0.43287,0.279659 -0.75347,0.567091 -1.15209,0.89732 -0.99856,0.948241 -1.97906,1.925218 -2.80694,3.029636 0,0 -2.26241,0.961242 -2.26241,0.961242 z"
       inkscape:connector-curvature="0"
       transform="translate(6.6292965,939.95564)" />
    <path
       style="fill:#ff0000;fill-opacity:1;stroke:#050101;stroke-width:0;stroke-miterlimit:0.30000001;stroke-opacity:1;stroke-dasharray:none"
       id="path5155"
       d="m 105.43315,46.203446 c 0.34366,-1.315647 1.22322,-2.384825 2.10803,-3.380263 0.5488,-0.547656 1.13052,-1.084002 1.80482,-1.476778 1.62493,-0.946507 2.18938,-1.508754 3.72772,-1.743786 1.17276,0.0104 1.80738,0.772342 2.49723,1.6113 0.65545,0.929878 1.35598,1.814599 2.27846,2.489621 0.61565,0.344403 1.23325,0.325154 1.8797,0.06803 0.18907,-0.0752 0.72361,-0.371528 0.54844,-0.268007 -0.46794,0.276542 -0.95186,0.52512 -1.42779,0.787681 1.43383,-1.048805 2.61664,-2.396224 3.79315,-3.716597 0.1778,-0.19384 0.35561,-0.387681 0.53341,-0.581521 0,0 2.17247,-0.909307 2.17247,-0.909307 l 0,0 c -0.1824,0.194089 -0.36481,0.388178 -0.54721,0.582267 -1.17902,1.31938 -2.35578,2.663556 -3.74426,3.768754 -0.85154,0.498808 -2.88695,2.104764 -4.3148,1.915774 -0.40754,-0.05394 -0.57033,-0.177607 -0.92618,-0.362281 -0.9128,-0.711944 -1.62234,-1.607753 -2.29938,-2.541419 -0.65903,-0.782571 -1.24974,-1.472864 -2.36112,-1.397824 -0.16509,0.03471 -0.33353,0.05619 -0.49528,0.104129 -0.73974,0.219268 -1.62993,0.821794 0.89024,-0.667496 0.20925,-0.123656 -0.41732,0.250135 -0.61614,0.389938 -0.57362,0.403338 -0.70991,0.560619 -1.22856,1.037774 -0.85967,0.937857 -1.72576,1.948343 -2.06998,3.20183 0,0 -2.20297,1.088177 -2.20297,1.088177 z"
       inkscape:connector-curvature="0"
       transform="translate(6.6292965,939.95564)" />
    <path
       style="fill:#ff0000;fill-opacity:1;stroke:#050101;stroke-width:0;stroke-miterlimit:0.30000001;stroke-opacity:1;stroke-dasharray:none"
       id="path5157"
       d="m 103.82098,33.952543 c 0.48541,-0.690593 0.94522,-1.39579 1.3745,-2.122463 0.21314,-0.372455 0.4083,-0.755582 0.57632,-1.150542 0.0116,-0.842232 -0.0144,-0.190247 2.2075,-0.92407 0.0629,-0.02077 -0.0645,0.115725 -0.0983,0.172684 -0.15565,0.26217 -0.31436,0.521773 -0.46644,0.786152 -0.33765,0.584089 -0.69738,1.154549 -1.01665,1.7491 -0.45187,0.880276 -0.51077,0.538953 -2.30295,1.134018 -0.0847,0.02814 0.10783,-0.142375 0.1608,-0.214266 0.0654,-0.08876 0.12953,-0.178451 0.1943,-0.267676 0.52861,-0.735953 1.04317,-1.481745 1.56466,-2.222634 0.0606,-0.08197 0.12227,-0.163089 0.18167,-0.245898 0.0176,-0.02458 0.17332,-0.282214 0.19741,-0.291773 2.22863,-0.884261 2.6681,-1.380191 1.9556,-0.655996 -0.47187,0.528475 -0.93287,1.066459 -1.40537,1.594485 -0.49474,0.768788 -3.27333,2.371766 -2.48109,0.991574 0.48032,-0.741302 1.01437,-1.446379 1.54972,-2.148458 0.22588,-0.347598 0.56296,-0.63805 0.73989,-1.018617 2.42092,-0.937927 2.6232,-1.460551 2.04386,-0.665615 -0.24934,0.342131 -0.47534,0.699753 -0.69574,1.060981 -0.15943,0.306599 -0.34964,0.625689 -0.41078,0.966724 -0.13737,-0.0476 0.57194,-0.411285 0.39289,-0.310422 -1.88114,1.059715 -2.52313,1.531899 -1.71454,0.950436 0.3403,-0.252893 0.67132,-0.51808 1.00393,-0.780984 0.1911,-0.109607 0.33969,-0.287079 0.53803,-0.382191 0.67522,-0.68958 1.56,-1.299043 2.52745,-1.440055 0.21763,-0.02278 0.37515,0.127089 0.54559,0.247081 0.21004,0.191346 0.44028,0.360131 0.64894,0.551111 0.21443,0.149143 0.37614,0.360861 0.54903,0.554317 0.12906,0.137248 0.18613,0.362208 0.33416,0.478119 0.11524,0.12688 0.21911,0.280462 0.36256,0.377198 0.15896,0.165989 0.30099,0.341071 0.41197,0.54229 0.11898,0.142621 0.21047,0.304916 0.32586,0.4507 0.10438,0.183291 0.25753,0.330266 0.38331,0.498685 0.12158,0.171293 0.24792,0.334895 0.34364,0.522289 0.11501,0.208499 0.26833,0.387988 0.38532,0.595449 0.096,0.184916 0.21336,0.355612 0.32458,0.531078 0.14152,0.151517 0.27358,0.303938 0.44039,0.428795 0.12578,0.122045 0.24225,0.220137 0.41985,0.23788 0.18589,0.01905 0.37355,0.01389 0.56022,0.01374 0.2186,0.01776 0.41806,0.132127 0.63837,0.171084 0.14675,-0.07506 0.3231,-0.06409 0.4748,-0.114221 0.0866,-0.02861 0.16308,-0.08197 0.2475,-0.11641 0.88154,-0.297245 2.5426,-1.371299 -1.17316,0.76215 5.57612,-3.202043 0.76029,-0.435477 0.32524,-0.189633 -0.0524,0.02962 0.10013,-0.06686 0.15042,-0.09996 0.15859,-0.104404 0.31848,-0.206779 0.47861,-0.308797 0.34494,-0.280837 0.69003,-0.562398 1.03261,-0.846607 0.40699,-0.330852 0.73295,-0.745117 1.07912,-1.135935 0.38342,-0.429538 0.78611,-0.841233 1.18996,-1.251427 0.37346,-0.32765 0.73109,-0.671091 1.08905,-1.015575 0.22584,-0.222429 0.38057,-0.502785 0.5841,-0.742469 0.0202,-0.02091 0.0403,-0.04183 0.0605,-0.06274 0,0 2.29553,-0.929729 2.29553,-0.929729 l 0,0 c -0.0235,0.01638 -0.047,0.03275 -0.0705,0.04913 -0.25247,0.202306 -0.39876,0.496558 -0.60268,0.745194 -0.34251,0.364116 -0.71363,0.704264 -1.10114,1.02054 -0.40316,0.407146 -0.80601,0.814902 -1.19175,1.238737 -0.35119,0.39106 -0.67327,0.812248 -1.06248,1.165982 -0.33603,0.290914 -0.69607,0.551114 -1.01484,0.861095 -0.19354,0.154456 -0.41249,0.288853 -0.6265,0.414832 -2.32173,1.366686 -3.50324,2.046822 -0.32078,0.202283 -1.02407,0.591673 -1.95637,1.261624 -3.06228,1.645462 -0.25589,0.09331 -0.54237,0.160594 -0.81398,0.11547 -0.20111,-0.05644 -0.3938,-0.146527 -0.60736,-0.125995 -0.20105,-0.0026 -0.40549,-0.005 -0.59945,-0.06432 -0.18422,-0.07376 -0.32969,-0.192596 -0.47714,-0.323655 -0.17403,-0.15135 -0.32767,-0.322392 -0.47593,-0.498674 -0.11757,-0.178038 -0.23927,-0.354338 -0.33429,-0.545736 -0.11385,-0.213142 -0.27842,-0.390101 -0.39288,-0.603236 -0.0837,-0.175095 -0.21114,-0.319474 -0.31643,-0.481671 -0.1311,-0.163149 -0.27732,-0.316517 -0.38587,-0.496045 -0.12146,-0.158498 -0.22319,-0.329253 -0.34529,-0.48739 -0.0914,-0.174959 -0.22121,-0.323221 -0.36415,-0.458704 -0.13467,-0.124979 -0.26095,-0.259735 -0.379,-0.400347 -0.12824,-0.151338 -0.21369,-0.335771 -0.33763,-0.491486 -0.1606,-0.190529 -0.32346,-0.382286 -0.5272,-0.528601 -0.21009,-0.175932 -0.41391,-0.359925 -0.63469,-0.522433 -0.15741,-0.100493 -0.25888,-0.148224 -0.43575,-0.07555 -0.73498,0.248741 -2.52453,1.454191 1.91906,-1.134442 0.0431,-0.02508 -0.0984,0.02993 -0.13549,0.06316 -0.0213,0.01911 -0.0309,0.04829 -0.0463,0.07244 -0.0744,0.108063 -0.13266,0.0953 -0.23375,0.168435 -0.10614,0.07678 -0.16854,0.204517 -0.3091,0.234022 -0.33942,0.262981 -0.67381,0.532188 -1.01723,0.788313 -0.86252,0.710622 -0.22271,0.200219 -2.4745,1.499843 -0.21395,0.123483 -0.44277,0.182032 -0.63153,-0.0043 -0.0219,-0.04468 -0.0558,-0.08529 -0.0659,-0.134039 -0.0556,-0.268778 0.31026,-0.831123 0.4044,-1.073449 0.16756,-0.286686 0.34395,-0.567704 0.52087,-0.848707 0.0165,-0.02622 0.24769,-0.385268 0.27192,-0.397744 0.77593,-0.399433 1.58015,-0.741332 2.37022,-1.111998 -0.29125,0.248602 -0.4959,0.795886 -0.80823,1.043008 -0.53509,0.683617 -1.06902,1.374952 -1.52132,2.116587 -0.60498,0.781828 -1.21928,0.740118 -2.43815,1.33801 -0.0379,0.01858 0.0765,-0.03761 0.10858,-0.06499 0.11777,-0.100476 0.19886,-0.239678 0.31856,-0.337941 0.47891,-0.518662 0.9496,-1.045338 1.39111,-1.596496 0.60614,-0.639834 3.1766,-2.153904 2.47382,-1.148839 -0.29051,0.415452 0.0682,-0.04928 -0.32224,0.438814 -0.54314,0.71986 -1.04059,1.47537 -1.55718,2.214355 -0.0133,0.01964 -0.3071,0.461163 -0.33,0.473639 -2.89068,1.574563 -2.72873,1.822792 -2.19199,0.846853 0.33286,-0.593464 0.68754,-1.173207 1.03347,-1.75904 0.83245,-1.52268 0.38016,-0.831122 2.86764,-2.049941 0.0119,-0.0058 -0.0259,-0.0061 -0.0388,-0.0091 -0.18461,0.411294 -0.40113,0.807558 -0.61767,1.202614 -0.42913,0.715319 -0.87275,1.419889 -1.33059,2.116719 0,0 -2.25437,0.98636 -2.25437,0.98636 z"
       inkscape:connector-curvature="0"
       transform="translate(6.6292965,939.95564)" />
    <path
       style="fill:#ff0000;fill-opacity:1;stroke:#050101;stroke-width:0;stroke-miterlimit:0.30000001;stroke-opacity:1;stroke-dasharray:none"
       id="path5159"
       d="m 109.19003,41.968945 c -0.65109,0.498407 -1.22115,1.089377 -1.81102,1.656165 -0.44852,0.459385 -0.91461,0.919665 -1.24677,1.474283 -0.14994,0.07472 0.576,-0.361584 0.42083,-0.274386 -1.75705,0.987369 -2.3317,1.383807 -1.34899,0.72886 0.82827,-0.570487 1.61982,-1.190763 2.40748,-1.815427 0.19443,-0.167625 0.17139,-0.141728 0.33053,-0.297357 0.0186,-0.01822 0.0363,-0.07462 0.0545,-0.05602 0.0543,0.0554 0.0821,0.135279 0.0978,0.211274 0.009,0.04413 -0.0668,0.152956 -0.0267,0.132518 0.66689,-0.339406 1.30024,-0.741033 1.95036,-1.11155 -0.59687,0.524939 -1.14795,1.099346 -1.67864,1.690318 -0.31169,0.437976 -0.76801,0.751276 -1.10414,1.164918 -3.03664,1.450829 -2.59474,1.271193 -1.82514,0.440963 0.2944,-0.317602 0.57847,-0.644784 0.86531,-0.96917 0.26069,-0.304678 0.54104,-0.592059 0.80484,-0.893922 0.0458,-0.05241 0.22934,-0.308422 0.26411,-0.30871 0.26558,1.0169 -0.0361,0.228404 2.03189,-0.832145 0.0895,-0.04589 -0.14243,0.14202 -0.21224,0.214409 -0.30115,0.312306 -0.58258,0.640535 -0.86543,0.969303 -0.40158,0.476961 -0.82057,0.950666 -1.1483,1.48373 -0.54099,-0.828343 2.31501,-1.420055 -1.98727,0.813758 -0.10697,0.05554 0.18851,-0.15032 0.28001,-0.228781 0.28946,-0.248226 0.51246,-0.461764 0.79525,-0.724826 0.87486,-0.806797 1.70689,-1.653841 2.46924,-2.567709 0.1281,-0.164223 0.24509,-0.299392 0.34843,-0.477059 0.0265,-0.04557 0.10004,-0.159152 0.048,-0.150702 -0.0763,0.01239 -0.13919,0.06767 -0.21092,0.09653 -0.0845,0.02685 -0.1712,0.04771 -0.25358,0.08056 -0.11725,0.04677 -0.59065,0.279078 -0.68236,0.32965 -0.1327,0.07317 -0.52194,0.308136 -0.38988,0.233814 1.58242,-0.89056 2.23044,-1.314749 1.25163,-0.688142 -0.52826,0.392284 -1.03831,0.813332 -1.53184,1.249039 -0.0909,0.07039 -0.11126,0.111873 -0.13842,-0.171747 -0.004,-0.04251 0.095,-0.134587 0.0573,-0.114577 -2.91485,1.546167 -2.32361,1.4145 -1.44476,0.739282 0.4977,-0.412583 0.9869,-0.85507 1.3784,-1.372564 0.0589,-0.253784 0.19753,-0.149475 0.0996,-0.0029 -0.0428,0.0641 -0.12699,0.08759 -0.18749,0.135342 3.40603,-2.399671 2.11807,-1.226447 1.37353,-0.636896 -0.1455,-0.159574 0.48915,-0.388909 0.58322,-0.438739 0.62842,-0.341375 1.25501,-0.681916 1.90527,-0.980463 0.50528,-0.215958 1.01236,-0.428161 1.52354,-0.630043 0.26378,-0.08903 0.57597,-0.05446 0.81406,0.09051 0.23207,0.151728 0.41891,0.361545 0.61458,0.555733 0.2617,0.259321 0.46558,0.568761 0.65466,0.882865 0.17287,0.34991 0.3603,0.689804 0.56632,1.021218 0.17162,0.272657 0.34461,0.54389 0.53178,0.806706 0.14356,0.241536 0.30637,0.476941 0.5063,0.675421 0.23115,0.190344 0.49886,0.312123 0.76369,0.448647 0.29333,0.08852 0.57904,0.201867 0.8758,0.28041 0.32488,0.05568 0.66418,0.127204 0.9901,0.05596 0.37183,-0.03105 0.68223,-0.21877 1.01365,-0.368623 -3.69462,2.086019 -1.96342,1.200776 -1.20257,0.604802 0.33802,-0.293791 0.58936,-0.667896 0.84949,-1.028299 0.26216,-0.378036 0.57886,-0.712253 0.86253,-1.073385 0.25765,-0.348614 0.46578,-0.729322 0.70797,-1.088359 0.17393,-0.20509 0.28572,-0.451158 0.44892,-0.66307 0.12209,-0.15537 0.22059,-0.331522 0.3453,-0.48504 0.31065,-0.789208 0.20943,-0.15887 2.22946,-0.974735 0.0406,-0.01642 -0.0737,0.04754 -0.10956,0.0727 -0.15024,0.105302 -0.10566,0.07452 -0.2481,0.223266 -0.32593,0.438743 -0.67245,0.860125 -1.03634,1.267742 -0.27452,0.293363 -0.51996,0.612054 -0.78896,0.910262 -0.20706,0.251927 -0.40816,0.508308 -0.63515,0.742783 -0.86846,0.733311 -1.93719,1.222413 -2.9077,1.777718 -0.2884,0.118051 -0.60642,0.108535 -0.91269,0.118807 -0.31137,-0.0055 -0.62571,0.03241 -0.92993,-0.04094 -0.30126,-0.07309 -0.55907,-0.251505 -0.81885,-0.411214 -0.28889,-0.174538 -0.51165,-0.423839 -0.75531,-0.652417 -0.21174,-0.279441 -0.51961,-0.452831 -0.77596,-0.684523 -0.23634,-0.169862 -0.41768,-0.403283 -0.60894,-0.620228 -0.19573,-0.229434 -0.43127,-0.416714 -0.66627,-0.604147 -0.23724,-0.177057 -0.51267,-0.300373 -0.78255,-0.422694 -0.2453,-0.03716 -0.45322,-0.234603 -0.70346,-0.201943 -0.16966,0.04968 -0.36026,0.02639 -0.52947,0.07066 -0.0881,0.02304 -0.16698,0.07279 -0.25244,0.104134 -0.32931,0.07773 -0.61236,0.261745 -0.90871,0.41734 0.65842,-0.377853 1.31601,-0.75716 1.97527,-1.13356 0.0735,-0.04194 -0.14071,0.09416 -0.2138,0.136761 -0.73579,0.428874 -1.48461,0.835807 -2.21076,1.280813 -0.63832,0.391183 2.56047,-1.547655 1.95028,-1.113893 -0.19578,0.133139 -0.34216,0.321333 -0.52063,0.475294 -0.23852,0.228042 -0.44511,0.482199 -0.62784,0.756205 -0.22743,0.352006 -0.40716,0.730439 -0.59256,1.105172 -0.1581,0.347996 -0.36086,0.670857 -0.55918,0.996446 -0.24849,0.368205 -0.52003,0.720005 -0.7632,1.092059 -0.13706,0.205332 -0.27424,0.409786 -0.39454,0.625538 -0.59821,0.804728 -2.83964,1.784015 -2.10192,0.720246 0.26177,-0.432665 0.54386,-0.848953 0.84608,-1.25489 0.35852,-0.492696 0.63971,-1.032815 0.94583,-1.557666 0.24381,-0.470708 0.52837,-0.904187 0.9139,-1.269108 1.00074,-0.780305 2.16326,-1.321138 3.26683,-1.943297 0.91505,-0.523116 -1.20914,0.699348 -1.81587,1.045243 -0.30934,0.176349 0.26618,-0.191969 0.31493,-0.18765 0.0498,0.06703 0.0994,0.126738 0.10329,0.223296 8.3e-4,0.02027 -0.49353,0.260266 -0.52067,0.272173 -0.54854,0.243116 -1.05871,0.561164 -1.58817,0.841975 -0.88009,0.526708 -0.0469,0.0264 1.69301,-0.969888 0.0181,-0.01035 -0.25496,0.157208 -0.2551,0.15688 -0.0426,-0.09388 -0.0757,-0.191744 -0.11357,-0.287617 -0.18417,0.03518 0.53375,-0.305762 0.39016,-0.221001 -0.62286,0.367686 -1.25653,0.716756 -1.88579,1.07337 -0.0782,0.04433 0.15478,-0.09157 0.23266,-0.136516 0.78299,-0.451811 1.56662,-0.902491 2.34994,-1.353736 -3.45961,2.140697 -1.7578,1.008471 -0.99649,0.453491 0.0186,-0.01487 0.0321,-0.04232 0.0558,-0.04461 0.0464,-0.0045 0.0741,0.08511 0.056,0.128032 -0.002,0.0059 -0.36971,0.0862 -0.37996,0.08803 -0.48647,0.161304 -0.95199,0.375759 -1.42503,0.571745 0.1844,-0.172661 -0.62809,0.336829 -0.41736,0.171551 2.24182,-1.758259 3.33121,-2.325465 0.2157,-0.538873 0.50414,-0.322978 0.97392,-0.693021 1.42677,-1.08358 0.20296,-0.19161 0.42817,-0.365157 0.61392,-0.574095 3.59425,-1.933129 2.31831,-0.847454 1.3957,-0.195093 -1.33635,0.841829 -4.75496,2.713274 -0.78651,0.468498 0.0936,-0.05296 -0.18404,0.111609 -0.27317,0.171835 -0.15449,0.104382 -0.30565,0.226297 -0.45256,0.341083 -0.1732,0.146961 -0.17039,0.137923 -0.32008,0.287854 -0.0391,0.03911 -0.0784,0.163441 -0.11358,0.120792 -0.05,-0.0606 -0.0301,-0.241785 -0.10274,-0.21202 -0.73854,0.302479 -1.41052,0.747098 -2.11578,1.120648 0.34315,-0.282553 0.66116,-0.597443 0.96451,-0.922153 0.27643,-0.321185 0.55691,-0.639456 0.78038,-1.000579 0.0103,-0.0091 0.0207,-0.03637 0.0311,-0.0273 0.0249,0.02182 0.0107,0.103582 0.0411,0.09048 2.58805,-1.114715 2.66873,-1.570824 1.84251,-0.667616 -0.3611,0.398549 -0.71875,0.80124 -1.06704,1.211206 -0.0827,0.01465 -0.24168,0.435038 -0.28891,0.452765 -0.0158,0.0059 -0.0946,-0.211295 -0.11882,-0.271883 -3.68668,2.596056 -2.04293,1.082497 -1.19504,0.477372 1.2172,-0.63342 2.34941,-1.552127 3.67387,-1.98333 0.40529,-0.126562 0.79084,-0.166351 1.20337,-0.07542 0.36493,0.135108 0.70335,0.313185 1.04755,0.492172 0.33531,0.232917 0.68414,0.443805 1.03061,0.659516 0.18024,0.142823 0.3821,0.251422 0.56128,0.394211 0,0 -2.08514,1.316175 -2.08514,1.316175 l 0,0 c -0.17864,-0.129968 -0.36244,-0.252587 -0.54318,-0.379622 -0.33796,-0.216387 -0.68066,-0.425178 -1.01653,-0.644889 -0.32426,-0.170625 -0.65663,-0.330678 -1.01241,-0.424382 -0.38055,-0.04762 -0.75339,0.04753 -1.11379,0.166881 -0.26583,0.103819 -0.51655,0.220777 -0.76824,0.355738 -0.0932,0.04998 -0.3696,0.205789 -0.27843,0.152167 1.54108,-0.906419 2.48147,-1.425632 1.57582,-0.923482 -1.01934,0.67915 -1.75528,1.552791 -3.02504,1.960034 -0.0599,-0.06195 -0.12816,-0.116764 -0.17964,-0.185847 -0.0829,-0.111202 0.22371,-0.469569 0.27502,-0.58107 0.34768,-0.411835 0.7141,-0.806191 1.0604,-1.218787 0.80808,-0.880725 0.58437,-0.602282 2.58995,-1.507538 0.0332,-0.01499 0.0397,0.0635 0.0453,0.0995 0.004,0.02811 -0.0111,0.05581 -0.0167,0.08371 -0.28402,0.322777 -0.47857,0.728829 -0.79535,1.029655 -0.28276,0.33884 -0.61085,0.633455 -0.91818,0.949647 -0.74473,0.405012 -1.4534,0.88485 -2.23419,1.215037 -0.077,0.03255 -0.10019,-0.137617 -0.12458,-0.21754 -0.0148,-0.04857 0.40048,-0.447493 0.44056,-0.485191 0.2394,-0.184011 0.46153,-0.389192 0.72276,-0.543179 1.53629,-0.905581 4.24844,-2.455308 0.54103,-0.317237 -0.0801,0.04617 0.15891,-0.09443 0.23837,-0.141648 1.16551,-0.657837 1.3021,-1.4844 3.1881,-1.633488 -0.22852,0.18577 -0.42704,0.408437 -0.65342,0.597407 -0.44959,0.391625 -0.90361,0.780531 -1.40543,1.105011 -2.377,1.403476 -3.71624,2.375571 -0.55702,-0.09283 0.10789,-0.0843 0.29041,-0.07361 0.39787,-0.159306 0.48,-0.197809 0.95554,-0.426174 1.46696,-0.529865 0.24575,-0.03219 0.47227,-0.07063 0.61188,0.180121 0.0621,0.111494 0.0339,0.112364 -0.0221,0.193547 -0.81243,0.82907 -2.63818,1.326897 -3.18919,2.010797 0.60994,-0.352779 1.21962,-0.706013 1.82982,-1.058338 0.0771,-0.04453 -0.15335,0.09061 -0.23058,0.134955 -0.77402,0.444435 -1.54717,0.890397 -2.32316,1.331383 -0.0446,0.02532 -0.27279,0.141592 -0.33811,0.160553 -0.0395,0.01147 -0.0818,0.0094 -0.12266,0.01412 -0.26413,-0.359105 -0.27687,-0.259183 0.0739,-0.463973 2.08515,-1.217359 1.53662,-0.911396 2.5013,-1.446108 0.53151,-0.285362 1.0501,-0.596268 1.60381,-0.838375 0.28615,-0.143125 0.63079,-0.447598 0.76911,0.0292 -0.0166,0.134108 -0.17793,0.22983 -0.29159,0.297056 -1.83011,1.082464 -1.51591,0.907052 -2.39019,1.391108 -0.0602,0.03304 -0.12035,0.06632 -0.18072,0.09913 -1.20525,0.655158 2.67023,-1.563248 1.48808,-0.869617 -0.0661,0.03879 -0.13563,0.07189 -0.20002,0.113489 -0.0662,0.04277 -0.1274,0.09282 -0.1911,0.139233 -0.42206,0.315469 -0.72267,0.726937 -0.95498,1.199055 -0.32199,0.520811 -0.5884,1.073815 -0.93797,1.578297 -0.29036,0.404748 -0.62037,0.788085 -0.81864,1.250526 -0.0322,0.03686 -0.14151,0.206321 -0.19065,0.230896 -1.96396,0.98228 -2.65822,1.848317 -2.23839,1.034659 0.12245,-0.223287 0.24939,-0.447804 0.41188,-0.644396 0.21925,-0.387001 0.50253,-0.734239 0.76198,-1.094411 0.20243,-0.317867 0.41008,-0.63577 0.56603,-0.979771 0.20495,-0.367559 0.35872,-0.762892 0.58649,-1.118241 0.16164,-0.296747 0.35912,-0.563794 0.59445,-0.806683 0.2393,-0.276679 -0.0645,0.05576 0.19039,-0.168344 0.11408,-0.100297 0.16828,-0.267985 0.31843,-0.320077 0.66906,-0.70582 -0.33623,0.341322 2.26828,-1.368734 0.64982,-0.426654 -1.34097,0.786794 -2.01461,1.174745 -0.0763,0.04392 0.13905,-0.108739 0.21503,-0.153136 0.74649,-0.436218 1.49697,-0.865581 2.24545,-1.298372 0.3006,-0.156324 0.60576,-0.299363 0.93482,-0.387213 0.27163,-0.08089 0.56303,-0.108409 0.84576,-0.09346 0.257,0.06959 0.50218,0.17891 0.75085,0.273245 0.27848,0.139755 0.56821,0.268457 0.8066,0.472661 0.24726,0.193647 0.48915,0.397877 0.6932,0.637667 0.18769,0.207627 0.36231,0.430439 0.59087,0.596039 0.26476,0.224345 0.55557,0.420758 0.77656,0.692498 0.23519,0.216585 0.45322,0.451993 0.73628,0.609036 0.23453,0.148966 0.48075,0.29089 0.76006,0.331213 0.30015,0.01889 0.60167,0.0094 0.90209,-2.95e-4 0.29565,-0.01715 0.58866,-0.04868 0.85012,-0.200598 -3.67179,2.1383 -2.06465,1.268386 -1.29955,0.68889 0.26133,-0.188789 0.44579,-0.459987 0.64999,-0.706446 0.24992,-0.323214 0.54586,-0.612105 0.806,-0.928189 0.364,-0.396962 0.72178,-0.80149 1.02691,-1.246505 0.0658,-0.09988 0.12303,-0.201846 0.21041,-0.285136 0.60758,-0.579136 2.89771,-1.907199 2.43018,-1.032605 -0.0485,0.187588 -0.20594,0.376632 -0.33546,0.516682 -0.0565,0.111272 -0.14177,0.177665 -0.20458,0.282597 -0.081,0.13537 -0.13454,0.289181 -0.2469,0.407203 -0.28633,0.330674 -0.46904,0.733934 -0.71581,1.093719 -0.27924,0.364856 -0.58509,0.70444 -0.86649,1.067585 -0.26927,0.363382 -0.51199,0.745068 -0.81799,1.080335 -0.88242,0.779924 -2.03171,1.211645 -3.00163,1.845056 -0.3392,0.160177 -0.68693,0.280401 -1.0647,0.307018 -0.35323,0.0047 -0.7053,-0.04106 -1.04669,-0.133456 -0.30464,-0.09535 -0.61428,-0.185516 -0.90388,-0.320285 -0.28507,-0.149702 -0.57207,-0.291261 -0.80923,-0.514966 -0.19956,-0.216352 -0.37846,-0.452995 -0.52423,-0.708975 -0.18528,-0.269053 -0.36704,-0.539509 -0.53192,-0.821394 -0.20835,-0.330987 -0.39249,-0.674309 -0.57018,-1.022506 -0.18203,-0.295937 -0.36979,-0.592238 -0.62743,-0.829851 -0.17576,-0.175107 -0.35185,-0.364066 -0.57563,-0.477337 -0.23805,-0.06014 -0.45963,-0.04774 -0.68463,0.06172 -0.50149,0.200391 -1.00475,0.398274 -1.49447,0.626123 -0.64763,0.311484 -1.27596,0.657894 -1.91116,0.993498 -0.32633,0.155954 -0.81365,0.410478 -0.94611,-0.103157 0.0613,-0.134569 0.16258,-0.20613 0.27249,-0.304923 0.77863,-0.699856 1.31374,-1.060144 2.54697,-1.593516 0.37361,-0.138218 0.631,0.05092 0.41627,0.436374 -0.35383,0.563633 -0.89143,0.995368 -1.36769,1.451451 -0.99118,0.75935 -1.03391,0.771249 -2.73654,1.714867 -0.1657,0.09184 -0.25953,-0.07858 -0.3041,-0.207407 -0.0133,-0.0385 0.0195,-0.07911 0.0293,-0.11866 0.46286,-0.493778 1.07219,-0.848673 1.5633,-1.313463 1.16862,-0.771214 0.40261,-0.276054 2.86914,-1.705542 0.44568,-0.258294 0.91323,-0.508896 1.42813,-0.588794 0.79352,0.09852 0.38666,0.670104 0.0579,1.050188 -0.76619,0.924096 -1.60393,1.780458 -2.47843,2.602497 -0.69227,0.667755 -3.13912,3.236652 -3.54737,2.067159 0.23129,-0.567011 0.82562,-1.069264 1.17713,-1.562185 1.11321,-1.317498 1.27626,-1.607647 3.26314,-2.569035 0.0898,-0.04344 0.15506,0.125498 0.23259,0.188248 0.018,0.379169 -0.86766,1.031878 -1.07604,1.354878 -0.28327,0.320133 -0.55734,0.648896 -0.84183,0.967808 -0.0703,0.07885 -0.1448,0.15391 -0.2171,0.230952 -0.0488,0.05203 -0.082,0.125274 -0.1463,0.15625 -0.77309,0.372575 -1.56784,0.698426 -2.35176,1.047639 0.15678,-0.107006 -0.0206,0.02305 0.18511,-0.179983 0.33073,-0.326513 0.70716,-0.610032 0.98796,-0.986181 0.52134,-0.587923 1.05947,-1.158384 1.624,-1.705358 0.75027,-0.454801 1.48372,-0.938591 2.25082,-1.364404 0.15867,-0.08807 0.26961,0.164463 0.28523,0.243278 0.004,0.02178 -0.16746,0.195443 -0.20024,0.226975 -0.0687,0.06604 -0.14083,0.128342 -0.21124,0.192513 -0.79758,0.622425 -1.59171,1.248881 -2.41679,1.83462 -1.0794,0.781085 -0.57515,0.435765 -2.80274,1.676033 -0.30751,0.171214 -0.68286,0.169617 -0.75719,-0.232816 0.26623,-0.618925 0.83546,-1.074154 1.26671,-1.572837 0.57845,-0.556853 1.13263,-1.139378 1.74918,-1.654988 0,0 2.28687,-0.917739 2.28687,-0.917739 z"
       inkscape:connector-curvature="0"
       transform="translate(6.6292965,939.95564)" />
    <path
       style="fill:#ff0000;fill-opacity:1;stroke:#050101;stroke-width:0;stroke-miterlimit:0.30000001;stroke-opacity:1;stroke-dasharray:none"
       id="path5161"
       d="m 107.75108,30.757031 c -0.43159,0.584842 -0.94219,1.100516 -1.45727,1.610332 -0.86575,0.862258 -1.70938,1.299252 -2.90947,1.906525 -0.0438,0.02218 -0.0689,-0.07005 -0.10335,-0.105083 -0.0204,-0.07419 -0.0628,-0.145639 -0.0612,-0.222569 0.004,-0.196566 0.67582,-0.947014 0.81189,-1.119732 0.30444,-0.383314 0.61317,-0.762161 0.95911,-1.108938 0.56161,-0.657533 2.6779,-1.759172 2.21528,-0.786494 -0.10809,0.227263 -0.2427,0.445903 -0.35805,0.669824 -0.15996,0.315867 -0.29925,0.641859 -0.42488,0.972758 -0.002,0.843276 0.0165,0.186254 -2.20685,0.93212 -0.0617,0.02069 0.0653,-0.112552 0.0969,-0.169425 0.13014,-0.234266 0.24624,-0.475891 0.36774,-0.714688 0.24313,-0.524912 0.49158,-1.04566 0.76988,-1.552797 0,0 2.23206,-1.000466 2.23206,-1.000466 l 0,0 c -0.27488,0.508726 -0.55752,1.012323 -0.77919,1.548112 -0.75384,1.520807 -0.15256,0.708918 -2.76662,1.989917 -0.0114,0.0056 0.0248,0.0052 0.0372,0.0078 0.14097,-0.33972 0.29279,-0.674838 0.44664,-1.008881 0.71897,-1.397293 0.25486,-0.707508 2.70585,-1.855437 0.0181,-0.0085 -0.0344,0.02027 -0.0515,0.0304 -0.37487,0.32771 -0.69809,0.699847 -1.01019,1.086858 -0.23355,0.311683 -0.48532,0.606302 -0.72808,0.909713 -0.0281,0.03517 -0.0299,0.106133 -0.0744,0.112801 -0.0447,0.0067 -0.07,-0.0573 -0.10495,-0.08595 -0.3954,-0.768334 -0.005,-0.0674 -2.06306,1.117248 -0.0458,0.02633 0.0847,-0.06298 0.12646,-0.09533 0.21676,-0.168092 0.42672,-0.344883 0.62953,-0.529586 0.50016,-0.50128 1.04087,-0.976281 1.43461,-1.570909 0,0 2.266,-0.968122 2.266,-0.968122 z"
       inkscape:connector-curvature="0"
       transform="translate(6.6292965,939.95564)" />
    <path
       style="fill:#ff0000;fill-opacity:1;stroke:#050101;stroke-width:0;stroke-miterlimit:0.30000001;stroke-opacity:1;stroke-dasharray:none"
       id="path5163"
       d="m 124.17252,30.326119 c -0.38756,0.662382 -0.8405,1.282512 -1.30477,1.892459 -0.44693,0.619772 -0.94484,1.200739 -1.39259,1.819583 -0.32958,0.841649 -3.27158,2.308792 -2.30459,1.039299 0.23516,-0.392146 0.50323,-0.755459 0.81253,-1.091677 0.55429,-0.68506 3.04128,-2.004827 2.29708,-0.817949 -0.25739,0.465623 -0.65656,0.818138 -1.03965,1.17717 -1.05908,0.799542 -2.19368,1.571371 -3.45629,2.000212 -0.0896,0.02644 -0.14167,0.03396 -0.2173,0.07756 -0.0124,0.0071 -0.0249,0.03873 -0.0331,0.02709 -0.0653,-0.09223 -0.12964,-0.19018 -0.15957,-0.299168 -0.008,-0.03031 0.0299,-0.05905 0.0568,-0.07531 0.73862,-0.446575 1.4892,-0.873053 2.2338,-1.309579 1.02952,-0.55805 -2.32226,1.340778 -1.74093,1.006914 0.76922,-0.441769 1.53684,-0.886345 2.30753,-1.325539 0.0635,-0.03617 0.25804,-0.137006 0.19479,-0.100453 -2.08933,1.2074 -2.54571,1.531213 -1.81599,1.022348 0.0903,-0.20342 0.25865,-0.02089 0.1945,0.113787 -0.0302,0.06341 -0.17568,0.100442 -0.22065,0.117022 -0.37345,0.143671 -0.75049,0.256731 -1.14369,0.336517 -0.30335,0.047 -0.59298,0.158583 -0.89025,0.237902 -1.12354,0.338844 1.46564,-1.349094 2.26153,-1.533747 0.219,-0.04966 0.41874,-0.172786 0.60751,-0.292773 -1.80249,1.491361 -1.44436,1.370491 -2.72319,1.422167 -0.33353,-0.0063 -0.64983,0.103932 -0.97868,0.153754 -0.31278,0.05345 -0.63066,0.06277 -0.94714,0.07201 -0.97049,0.02013 -0.94083,0.382372 1.97257,-1.45034 0.032,-0.02012 0.53807,0.0034 0.59805,0.0036 0.39834,-0.10831 0.84122,-0.06862 1.22337,-0.225808 0.7425,-0.436739 1.67655,-0.977885 -1.86776,1.069535 -0.013,0.0075 0.0291,-0.02844 0.041,-0.01916 0.026,0.02033 0.0311,0.05823 0.0464,0.08747 0.0373,0.07116 0.0742,0.142476 0.11135,0.213714 0.0214,-0.01439 -0.14802,0.06983 -0.11251,0.04941 0.67896,-0.390318 2.71294,-1.566066 2.0403,-1.164967 -0.73513,0.43836 -1.47997,0.860425 -2.22779,1.27677 -0.18846,0.05643 -0.10049,0.01532 -0.26407,0.122963 -0.22687,0.11888 -0.46924,0.214558 -0.72565,0.239304 -0.19934,0.03332 -0.38976,-0.07882 -0.54279,-0.20072 -0.16902,-0.09134 -0.32006,-0.209049 -0.47375,-0.323397 0,0 2.09112,-1.321965 2.09112,-1.321965 l 0,0 c 0.14874,0.113559 0.3049,0.214856 0.46575,0.310516 0.1571,0.07408 0.26461,0.09863 0.43299,0.04275 0.23532,-0.07288 0.46057,-0.16733 0.67405,-0.291724 0.0909,-0.03837 0.35395,-0.173415 0.2688,-0.123657 -4.14742,2.423485 -1.10263,0.593624 0.32197,-0.161796 0.06,0.07679 0.19256,0.205086 0.20057,0.326361 0.001,0.01803 -0.0212,0.03071 -0.0368,0.03986 -0.77761,0.456533 -1.51346,1.080764 -2.39532,1.331672 -0.41574,0.07182 -0.83582,0.134167 -1.25636,0.165421 -0.1593,6.2e-4 -0.26866,8.36e-4 -0.42702,0.0023 -0.061,5.45e-4 -0.22923,0.04201 -0.18306,0.0021 1.81209,-1.566781 1.09386,-1.441789 2.01765,-1.458034 0.30779,-0.01094 0.61496,-0.03616 0.91815,-0.09245 0.33409,-0.06357 0.66452,-0.147393 1.0079,-0.130906 1.41918,-0.01075 0.67762,0.316938 -1.19861,1.592728 -0.20394,0.102202 -0.41331,0.190777 -0.63921,0.232211 -1.31476,0.351719 0.73133,-1.275456 1.66062,-1.470402 0.29425,-0.07893 0.58356,-0.176659 0.8863,-0.220396 0.38688,-0.09049 0.75504,-0.232751 1.12839,-0.366874 0.064,-0.02316 0.20193,-0.0877 0.27975,-0.06291 0.20894,0.06656 0.2858,0.312042 0.0923,0.436255 -0.788,0.669619 -0.109,0.105068 -2.38587,1.428719 -0.0618,0.03594 -0.25067,0.137635 -0.18894,0.101552 0.6281,-0.367145 2.51991,-1.455666 1.88817,-1.094805 -2.91489,1.66505 -1.47771,0.884623 -2.46935,1.421677 0.66051,-0.391468 1.32102,-0.782935 1.98154,-1.174402 -0.0209,0.01123 -0.0456,0.05006 -0.0627,0.03368 -0.0785,-0.07485 -0.13356,-0.172407 -0.18364,-0.268613 -0.009,-0.01699 0.25584,-0.03039 0.24376,-0.07335 0.77955,-0.316154 1.77885,-1.001671 -1.50654,0.923749 -0.0849,0.04973 0.17441,-0.09121 0.25855,-0.142118 0.0691,-0.04183 0.44148,-0.29423 0.50983,-0.340346 0.37062,-0.344542 0.77787,-0.668031 1.04506,-1.103758 0.48025,-0.855954 1.38804,-0.790895 2.46704,-1.282268 0.0434,-0.01977 -0.0939,0.02491 -0.13354,0.05147 -0.0415,0.02782 -0.0722,0.06912 -0.10829,0.10368 -0.31993,0.318933 -0.63063,0.648126 -0.82868,1.06019 -0.56138,0.835395 -1.18327,0.704763 -2.4857,1.282787 -0.0279,0.01237 0.0526,-0.03265 0.0725,-0.05575 0.0844,-0.09787 0.12929,-0.225995 0.22108,-0.318412 0.45477,-0.626519 0.96519,-1.209078 1.41733,-1.837969 0.45824,-0.587947 0.91196,-1.188168 1.26713,-1.845186 0,0 2.25503,-0.99946 2.25503,-0.99946 z"
       inkscape:connector-curvature="0"
       transform="translate(6.6292965,939.95564)" />
  </g>
</svg>
