<?xml version="1.0" encoding="UTF-8" standalone="no"?>
<!-- Created with Inkscape (http://www.inkscape.org/) -->

<svg
   xmlns:dc="http://purl.org/dc/elements/1.1/"
   xmlns:cc="http://creativecommons.org/ns#"
   xmlns:rdf="http://www.w3.org/1999/02/22-rdf-syntax-ns#"
   xmlns:svg="http://www.w3.org/2000/svg"
   xmlns="http://www.w3.org/2000/svg"
   xmlns:sodipodi="http://sodipodi.sourceforge.net/DTD/sodipodi-0.dtd"
   xmlns:inkscape="http://www.inkscape.org/namespaces/inkscape"
   width="160"
   height="78.949997"
   id="svg2"
   version="1.1"
   inkscape:version="0.48.4 r9939"
   inkscape:export-filename="integral.png"
   inkscape:export-xdpi="150"
   inkscape:export-ydpi="150"
   sodipodi:docname="trap.svg">
  <defs
     id="defs4" />
  <sodipodi:namedview
     id="base"
     pagecolor="#9fffa7"
     bordercolor="#666666"
     borderopacity="1.0"
     inkscape:pageopacity="0"
     inkscape:pageshadow="2"
     inkscape:zoom="4.8164584"
     inkscape:cx="80"
     inkscape:cy="61.974998"
     inkscape:document-units="px"
     inkscape:current-layer="layer1"
     showgrid="false"
     inkscape:window-width="1237"
     inkscape:window-height="1003"
     inkscape:window-x="43"
     inkscape:window-y="21"
     inkscape:window-maximized="1"
     fit-margin-top="0"
     fit-margin-left="0"
     fit-margin-right="0"
     fit-margin-bottom="0"
     showguides="true"
     inkscape:guide-bbox="true">
    <sodipodi:guide
       orientation="0,1"
       position="109.62412,63.532159"
       id="guide4800" />
  </sodipodi:namedview>
  <metadata
     id="metadata7">
    <rdf:RDF>
      <cc:Work
         rdf:about="">
        <dc:format>image/svg+xml</dc:format>
        <dc:type
           rdf:resource="http://purl.org/dc/dcmitype/StillImage" />
        <dc:title />
      </cc:Work>
    </rdf:RDF>
  </metadata>
  <g
     inkscape:label="Layer 1"
     inkscape:groupmode="layer"
     id="layer1"
     transform="translate(-6.6292965,-952.95563)">
    <path
       style="fill:#0000ff;fill-opacity:1;stroke:#050101;stroke-width:0;stroke-miterlimit:0.30000001;stroke-opacity:1;stroke-dasharray:none"
       id="path5129"
       d="m 30.253595,973.95645 c 0.09828,-0.63264 -0.02091,-1.23903 -0.267499,-1.8208 -0.262333,-0.46139 -0.715036,-0.81461 -1.267299,-0.82389 -0.120837,-0.002 -0.240125,0.0276 -0.360188,0.0414 -0.134415,0.0427 -0.273301,0.0733 -0.403245,0.12811 -0.155166,0.0655 -0.595823,0.31413 -0.449081,0.23149 0.520182,-0.29294 1.019156,-0.63144 1.569617,-0.86251 0.20624,-0.0866 -0.3545,0.27349 -0.521344,0.42246 -0.53927,0.48151 -0.610976,0.60704 -1.090503,1.17121 -1.035948,1.35844 -1.788734,2.90678 -2.242466,4.55316 -0.09964,0.36154 -0.171756,0.73011 -0.257634,1.09517 -0.353588,1.92893 -0.327864,3.9048 0.207956,5.79864 0.11139,0.3937 0.26008,0.77588 0.39012,1.16382 0.962532,2.43108 2.529367,4.5396 4.090494,6.61184 0.264638,0.35115 0.526539,0.70438 0.793913,1.05345 0.456034,0.59538 1.120448,1.42497 1.569279,2.02808 0.731061,0.98234 1.401154,2.00314 2.067346,3.02978 1.214668,1.8038 2.140145,3.76474 2.884221,5.80204 0.555683,1.5735 0.962023,3.1847 1.102186,4.8482 0.110031,1.3087 -0.08912,2.4362 -0.662083,3.6119 -0.355966,0.6476 -0.869044,1.1633 -1.514336,1.5239 -2.592709,1.4485 -1.66098,1.15 -3.137056,1.549 -1.416819,0.2284 -2.851079,0.048 -4.266228,-0.098 -1.077915,-0.1198 -2.145547,-0.3072 -3.215471,-0.4811 0,0 1.97028,-1.3802 1.97028,-1.3802 l 0,0 c 1.050942,0.1961 2.104424,0.3794 3.168032,0.4936 1.406159,0.1388 2.839844,0.3073 4.237076,0 1.152819,-0.3712 0.629659,-0.2513 -0.994675,0.7781 -0.149634,0.095 0.310663,-0.171 0.459293,-0.2674 0.357359,-0.2318 0.530745,-0.3665 0.801574,-0.6981 0.11309,-0.1384 0.204374,-0.2933 0.306561,-0.44 0.639125,-1.1593 0.816364,-2.1849 0.746251,-3.5062 -0.10929,-1.6495 -0.498888,-3.2503 -1.033153,-4.8134 -0.718528,-2.0287 -1.630102,-3.9784 -2.82486,-5.77492 -0.66125,-1.02196 -1.325045,-2.04031 -2.048649,-3.01991 -0.377094,-0.51051 -1.181337,-1.53282 -1.563201,-2.03404 -0.266389,-0.34966 -0.527975,-0.70294 -0.791963,-1.05442 -1.576197,-2.09122 -3.155649,-4.21895 -4.140341,-6.66656 -0.135464,-0.39348 -0.290292,-0.78081 -0.406393,-1.18043 -0.557346,-1.91839 -0.598467,-3.92393 -0.265991,-5.88587 0.08213,-0.36976 0.150399,-0.74288 0.246403,-1.10928 0.434582,-1.65858 1.158212,-3.2269 2.163735,-4.61657 0.38288,-0.48028 1.020206,-1.30583 1.544105,-1.64202 0.827725,-0.53115 1.682057,-1.02024 2.538239,-1.50418 0.373102,-0.21089 0.529772,-0.2147 0.928256,-0.29885 0.87983,0.0142 1.334509,0.26919 1.79399,1.02607 0.264341,0.6186 0.393793,1.25365 0.359706,1.92942 0,0 -2.214974,1.08289 -2.214974,1.08289 z"
       inkscape:connector-curvature="0" />
    <path
       style="fill:#0000ff;fill-opacity:1;stroke:#050101;stroke-width:0;stroke-miterlimit:0.30000001;stroke-opacity:1;stroke-dasharray:none"
       id="path5131"
       d="m 36.007342,1024.9751 c 0.03292,0.058 0.06301,0.1176 0.09875,0.1738 0.02997,0.047 0.120982,0.1866 0.188275,0.2186 0.01647,0.01 0.0698,-0.019 0.05375,-0.01 -2.169786,1.1695 -2.322273,1.9001 -2.088117,0.9903 -0.02071,-0.8234 -0.401567,-1.5734 -0.854294,-2.2405 -0.481625,-0.5799 -1.135583,-1.2229 -1.961574,-1.1519 -0.156445,0.014 -0.305504,0.073 -0.458255,0.1091 -0.15544,0.079 -0.618947,0.3225 -0.466321,0.2379 0.520732,-0.2886 1.014696,-0.6375 1.570828,-0.85 0.202474,-0.077 -0.334185,0.2776 -0.483712,0.4346 -0.535673,0.5621 -0.800627,1.1199 -1.085984,1.8283 -0.291432,1.0753 -0.318259,2.3104 0.379334,3.2507 0.119797,0.1615 0.279439,0.2892 0.419159,0.4338 0.671794,0.4741 1.441908,0.6384 2.239189,0.3934 0.203786,-0.063 0.76983,-0.3626 0.58838,-0.2507 -0.473129,0.2918 -0.978127,0.5285 -1.46719,0.7928 1.088082,-0.8138 1.717612,-1.8573 1.992516,-3.1734 0.04646,-0.2735 0.02626,-1.4174 -0.484412,-0.8186 0.649668,-0.359 1.274472,-0.7673 1.949004,-1.0771 0.07805,-0.036 -0.09023,0.1493 -0.11059,0.2327 -0.02432,0.1 -0.02939,0.2049 -0.02111,0.3072 0.03573,0.4414 0.267163,0.7931 0.497796,1.154 1.02164,1.1537 2.29897,1.3661 3.765437,1.4689 0.92295,0.051 1.820913,-0.1233 2.719128,-0.3029 0,0 -1.857987,1.4042 -1.857987,1.4042 l 0,0 c -0.915702,0.1665 -1.831309,0.3276 -2.768032,0.2614 -1.59222,-0.1384 -2.822138,-0.3817 -3.935216,-1.6179 -0.325383,-0.4924 -0.648712,-1.0155 -0.609498,-1.6339 0.0067,-0.1057 -0.02105,-0.2474 0.06341,-0.3113 0.702926,-0.5316 1.485872,-0.9481 2.228808,-1.4222 0.06897,-0.01 0.138135,-0.034 0.206902,-0.024 0.587304,0.082 0.546012,0.9199 0.517136,1.3318 -0.259885,1.3572 -0.863628,2.4688 -1.941542,3.3593 -1.473918,0.8656 -3.244018,2.4655 -5.079517,1.5184 -0.188193,-0.097 -0.352137,-0.2353 -0.528206,-0.353 -0.148852,-0.1619 -0.318139,-0.3071 -0.446557,-0.4857 -0.720032,-1.001 -0.734858,-2.2899 -0.462685,-3.4413 0.08453,-0.2322 0.152141,-0.4713 0.253578,-0.6967 0.788726,-1.7522 2.513871,-2.7636 4.281606,-3.3983 0.168218,-0.018 0.335525,-0.06 0.504655,-0.055 0.875181,0.026 1.544973,0.7003 2.062676,1.3283 0.487304,0.7074 0.873104,1.4882 0.982106,2.3507 0.08837,1.0419 0.08904,0.3003 -2.172708,1.4895 -0.06438,0.034 -0.29107,-0.3264 -0.306027,-0.3492 -0.0366,-0.056 -0.07129,-0.1127 -0.106938,-0.169 0,0 2.13405,-1.2369 2.13405,-1.2369 z"
       inkscape:connector-curvature="0" />
    <path
       style="fill:#0000ff;fill-opacity:1;stroke:#050101;stroke-width:0;stroke-miterlimit:0.30000001;stroke-opacity:1;stroke-dasharray:none"
       id="path5133"
       d="m 22.71957,954.79906 c 0.582782,1.12725 1.132745,2.27052 1.653589,3.42759 0.587105,1.30735 1.072478,2.65591 1.603572,3.98594 0.144237,0.20945 0.140177,0.54332 0.336448,0.7243 0.07514,0.0693 0.127639,-0.10413 0.112284,-0.0963 -0.673085,0.34415 -1.324416,0.72928 -1.986624,1.09392 0.385269,-0.34748 0.727328,-0.73695 1.144129,-1.05064 0.768449,-0.57835 2.937968,-1.72553 2.998177,-1.75987 0.906119,-0.38691 1.90839,-0.63862 2.894517,-0.43515 0.183904,0.0379 0.360201,0.10628 0.540301,0.15943 0.793997,0.31875 1.393882,0.92346 1.614056,1.76553 0.03885,0.14858 0.04535,0.30379 0.06803,0.45568 0.01986,0.87 -0.369267,1.64075 -1.050927,2.18186 -0.154803,0.12288 -0.330221,0.21728 -0.495331,0.32592 -0.870217,0.47802 -1.723606,0.98804 -2.610651,1.43405 -0.196664,0.0989 -0.417648,0.14038 -0.630702,0.19572 -0.940722,0.24436 -1.893498,0.26446 -2.85855,0.2426 -1.238395,-0.0423 -2.412411,-0.39377 -3.560091,-0.82959 0,0 2.002236,-1.34454 2.002236,-1.34454 l 0,0 c 1.114252,0.44055 2.266396,0.76001 3.474148,0.78578 0.956925,0.004 1.89656,-0.036 2.820378,-0.31336 0.209947,-0.063 0.790778,-0.35764 0.619363,-0.22101 -0.454558,0.36232 -0.990895,0.60804 -1.486342,0.91205 0.168616,-0.0939 0.346617,-0.17264 0.50585,-0.2817 0.670719,-0.45939 1.107168,-1.14656 1.131062,-1.96399 -0.0132,-0.13594 -0.0092,-0.27466 -0.03961,-0.40782 -0.177956,-0.77981 -0.747476,-1.31445 -1.479301,-1.58002 -0.171854,-0.0427 -0.340705,-0.10011 -0.515562,-0.12805 -0.970412,-0.15503 -1.938821,0.13676 -2.80773,0.54728 4.252394,-2.51707 1.310446,-0.78803 1.09902,-0.63964 -0.412921,0.28981 -0.772311,0.64748 -1.091585,1.03569 -0.755917,0.43779 -1.490942,0.91383 -2.26775,1.31338 -0.268511,0.13811 -0.548851,-0.85059 -0.58261,-0.95269 -0.476372,-1.34834 -0.954114,-2.69717 -1.540583,-4.00284 -0.525847,-1.14191 -1.078023,-2.27651 -1.747261,-3.34264 0,0 2.13405,-1.23689 2.13405,-1.23689 z"
       inkscape:connector-curvature="0" />
    <path
       style="fill:#0000ff;fill-opacity:1;stroke:#050101;stroke-width:0;stroke-miterlimit:0.30000001;stroke-opacity:1;stroke-dasharray:none"
       id="path5135"
       d="m 48.477893,984.18291 c -0.199528,-0.64869 -0.515372,-0.98696 -1.17226,-1.16303 -0.112743,-0.004 -0.225883,-0.0235 -0.338231,-0.0131 -0.473794,0.0439 -3.321894,1.30961 0.965055,-0.70019 0.152526,-0.0715 -0.267228,0.20638 -0.387952,0.32387 -0.130746,0.12724 -0.242957,0.27223 -0.364435,0.40835 -0.862608,1.2618 -0.975255,2.63803 -0.940915,4.12444 0.151847,2.01026 0.921432,3.86487 1.776226,5.66362 1.003224,2.05667 2.127974,4.05011 3.148028,6.09806 0.679578,1.36047 1.24859,2.77187 1.674537,4.23157 0.08496,0.2943 0.09513,0.5397 0.0025,0.8245 0,0 -2.255789,0.9846 -2.255789,0.9846 l 0,0 c 0.28154,-0.1908 0.147299,-0.34 0.135506,-0.6603 -0.34637,-1.4713 -0.91131,-2.8785 -1.561931,-4.2402 -1.003048,-2.05746 -2.121925,-4.05502 -3.146031,-6.10204 -0.879782,-1.81909 -1.668172,-3.69381 -1.858111,-5.72878 -0.06421,-1.51689 0.02233,-2.92406 0.819666,-4.25913 0.970336,-1.22605 1.319395,-1.21969 3.166339,-2.21963 0.357787,-0.19371 0.795521,-0.17538 1.178043,-0.10283 0.720382,0.27352 1.038068,0.62879 1.318501,1.34134 0,0 -2.15874,1.18891 -2.15874,1.18891 z"
       inkscape:connector-curvature="0" />
    <path
       style="fill:#0000ff;fill-opacity:1;stroke:#050101;stroke-width:0;stroke-miterlimit:0.30000001;stroke-opacity:1;stroke-dasharray:none"
       id="path5137"
       d="m 42.558071,999.65324 c 0.07158,-0.0842 0.135522,-0.17546 0.214739,-0.25246 0.216174,-0.21015 0.563982,-0.46297 0.815298,-0.60925 0.872961,-0.5081 1.74767,-1.01396 2.637898,-1.49116 0.206183,-0.11053 1.276418,-0.52285 1.46244,-0.59591 1.474032,-0.54712 2.99628,-0.94417 4.515983,-1.33988 0,0 -1.84774,1.416 -1.84774,1.416 l 0,0 c -1.521605,0.39908 -3.045173,0.80441 -4.513574,1.37517 -0.260199,0.10635 -0.522379,0.20796 -0.780595,0.31903 -0.231806,0.0997 -0.892806,0.46225 -0.689199,0.31319 0.453712,-0.33217 0.960965,-0.58434 1.446641,-0.86773 0.238646,-0.13925 -0.485811,0.27809 -0.799002,0.53805 -0.07565,0.0628 -0.139018,0.13906 -0.208527,0.20859 0,0 -2.254362,0.98636 -2.254362,0.98636 z"
       inkscape:connector-curvature="0" />
    <path
       style="fill:#0000ff;fill-opacity:1;stroke:#050101;stroke-width:0;stroke-miterlimit:0.30000001;stroke-opacity:1;stroke-dasharray:none"
       id="path5139"
       d="m 59.380041,987.72196 c -0.681776,1.02842 -1.255569,2.12032 -1.765088,3.24232 -0.601278,1.54694 -1.015186,3.18652 -0.978827,4.85808 0.0071,0.32478 0.05369,0.64749 0.08054,0.97124 0.126668,0.87469 0.372813,1.71582 0.861723,2.46047 0.142503,0.21705 0.320783,0.40836 0.481174,0.61254 0,0 -2.023165,1.20449 -2.023165,1.20449 l 0,0 c -0.164382,-0.2164 -0.346689,-0.4203 -0.493146,-0.6493 -0.497799,-0.77808 -0.754412,-1.64827 -0.886103,-2.55637 -0.02987,-0.33267 -0.08008,-0.66413 -0.08962,-0.998 -0.04828,-1.68988 0.347697,-3.35139 0.921726,-4.92855 0.470128,-1.10978 1.015866,-2.18306 1.635763,-3.21746 0,0 2.255025,-0.99946 2.255025,-0.99946 z"
       inkscape:connector-curvature="0" />
    <path
       style="fill:#0000ff;fill-opacity:1;stroke:#050101;stroke-width:0;stroke-miterlimit:0.30000001;stroke-opacity:1;stroke-dasharray:none"
       id="path5141"
       d="m 63.024101,993.14729 c 0.830216,0.80554 1.7954,1.44168 2.771761,2.05262 1.101558,0.70479 2.26195,1.30543 3.477146,1.78589 0,0 -1.966898,1.31615 -1.966898,1.31615 l 0,0 c -1.21429,-0.50676 -2.375706,-1.12263 -3.48834,-1.8263 -1.000711,-0.61514 -1.975716,-1.26573 -2.880324,-2.01768 0,0 2.086655,-1.31068 2.086655,-1.31068 z"
       inkscape:connector-curvature="0" />
    <path
       style="fill:#0000ff;fill-opacity:1;stroke:#050101;stroke-width:0;stroke-miterlimit:0.30000001;stroke-opacity:1;stroke-dasharray:none"
       id="path5143"
       d="m 68.904078,992.71102 c -1.178297,0.70321 -2.160096,1.6832 -3.138753,2.63261 -1.267472,1.29364 -2.385169,2.66723 -3.116354,4.33323 0,0 -2.158294,0.99004 -2.158294,0.99004 l 0,0 c 0.09265,-0.2132 0.173826,-0.4318 0.277951,-0.6396 0.712708,-1.42263 1.779129,-2.63552 2.848972,-3.79656 0.940603,-0.93174 1.878691,-1.89478 2.98521,-2.6319 0,0 2.301268,-0.88782 2.301268,-0.88782 z"
       inkscape:connector-curvature="0" />
    <path
       style="fill:#0000ff;fill-opacity:1;stroke:#050101;stroke-width:0;stroke-miterlimit:0.30000001;stroke-opacity:1;stroke-dasharray:none"
       id="path5145"
       d="m 71.131564,987.70278 c 1.14191,0.6973 2.249194,1.44984 3.336256,2.2294 1.187395,0.91734 2.461717,1.88039 3.199083,3.22602 0.126886,0.23156 0.208082,0.48536 0.312123,0.72804 0.521094,1.86151 -0.202504,3.03132 -1.2424,4.50915 -0.72771,0.95235 -1.589131,1.79121 -2.445158,2.62601 0,0 -2.164186,0.8921 -2.164186,0.8921 l 0,0 c 0.859823,-0.8233 1.719146,-1.6557 2.463593,-2.58724 1.003063,-1.38919 1.791377,-2.49953 1.330104,-4.28672 -0.09378,-0.23126 -0.164462,-0.47328 -0.281327,-0.69376 -0.705876,-1.33177 -1.971132,-2.26981 -3.140275,-3.16117 -1.100368,-0.77097 -2.222205,-1.52496 -3.425251,-2.12811 0,0 2.057438,-1.35372 2.057438,-1.35372 z"
       inkscape:connector-curvature="0" />
    <path
       style="fill:#0000ff;fill-opacity:1;stroke:#050101;stroke-width:0;stroke-miterlimit:0.30000001;stroke-opacity:1;stroke-dasharray:none"
       id="path5147"
       d="m 85.273276,997.41767 c 0.127275,-0.83907 -0.22263,-1.37549 -0.804989,-1.93608 -0.770702,-0.57797 -1.704604,-0.62025 -2.574407,-0.22295 -0.206675,0.0944 -0.395856,0.22317 -0.593783,0.33475 0.481073,-0.24548 0.915925,-0.61959 1.443219,-0.73643 0.252259,-0.0559 -0.386923,0.34468 -0.556199,0.53988 -0.175464,0.20234 -0.334721,0.41996 -0.474343,0.6485 -0.446498,0.73088 -0.558783,1.32125 -0.654263,2.15107 0.03043,0.83432 0.349865,1.67052 1.131841,2.08239 0.46179,0.2431 0.709844,0.2036 1.220386,0.2378 -0.271324,0.4449 1.782537,-0.6725 1.373941,-0.4223 -0.431699,0.2644 -0.842343,0.6351 -1.343189,0.7086 -0.292233,0.043 0.45063,-0.3849 0.646225,-0.6062 0.542683,-0.6141 0.671795,-0.95821 1.061787,-1.68277 0.804114,-1.82578 1.041073,-3.80879 0.910202,-5.78799 -0.02651,-0.40087 -0.08445,-0.79904 -0.126681,-1.19856 -0.276771,-1.93532 -0.854675,-3.80759 -1.587716,-5.61484 -0.07171,-0.15868 -0.141103,-0.31843 -0.215132,-0.47604 -0.05409,-0.11516 -0.110182,-0.22944 -0.169174,-0.34217 -0.03248,-0.0621 -0.06081,-0.12772 -0.105107,-0.18199 -0.0074,-0.009 -0.04326,0.0184 -0.03278,0.013 2.260953,-1.15246 1.988109,-1.89038 2.23718,-0.78851 0.493182,1.77659 1.254636,3.46554 1.947854,5.17014 0.97738,2.37497 1.932921,4.75901 2.9168,7.13131 0.15928,0.344 0.31856,0.68801 0.477841,1.03201 0,0 -1.998637,1.12864 -1.998637,1.12864 l 0,0 c -0.156932,-0.34874 -0.313865,-0.69748 -0.470797,-1.04622 -0.965154,-2.37989 -1.918422,-4.76452 -2.913377,-7.13221 -0.717807,-1.69804 -1.487928,-3.37752 -2.09842,-5.11839 -0.373119,-1.09437 -0.23848,-0.36775 2.002725,-1.6952 0.03264,-0.0193 0.04887,0.0589 0.06593,0.0928 0.09127,0.18131 0.157713,0.3741 0.233899,0.56225 0.06669,0.16468 0.130184,0.33064 0.195275,0.49597 0.675996,1.85521 1.25112,3.75261 1.53661,5.71136 0.04393,0.4052 0.10325,0.80902 0.131777,1.2156 0.140387,2.00084 -0.06506,4.01197 -0.829698,5.87864 -0.367652,0.73835 -0.495669,1.09862 -1.009112,1.73922 -0.893318,1.11455 -1.942666,1.50025 -3.318706,2.25085 -0.22823,0.1245 -0.479752,0.2076 -0.732908,0.2668 -0.235737,0.055 -0.481698,0.049 -0.722548,0.073 -0.570301,-0.075 -0.798772,-0.044 -1.302269,-0.345 -0.569294,-0.3401 -0.986966,-0.9524 -1.147965,-1.59043 -0.05835,-0.23124 -0.056,-0.47367 -0.084,-0.71051 0.02388,-0.25165 0.02616,-0.5063 0.07163,-0.75497 0.145743,-0.79697 0.494306,-1.55721 0.997099,-2.19232 0.161531,-0.20403 0.323155,-0.41816 0.536532,-0.56714 0.839214,-0.58592 1.736458,-1.084 2.604687,-1.62601 0.208658,-0.10149 0.408765,-0.22287 0.625973,-0.30448 0.958071,-0.35996 1.945184,-0.21488 2.74484,0.41677 0.648262,0.63788 0.991657,1.18054 0.96692,2.11506 0,0 -2.214973,1.08289 -2.214973,1.08289 z"
       inkscape:connector-curvature="0" />
    <path
       style="fill:#0000ff;fill-opacity:1;stroke:#050101;stroke-width:0;stroke-miterlimit:0.30000001;stroke-opacity:1;stroke-dasharray:none"
       id="path5149"
       d="m 97.048044,993.83189 c 0.550031,1.0897 1.321232,2.05014 2.14092,2.94659 0.905006,1.01553 1.976266,1.83 3.120356,2.55235 0,0 -1.98994,1.27847 -1.98994,1.27847 l 0,0 c -1.143483,-0.75242 -2.215809,-1.59328 -3.139126,-2.61146 -0.839133,-0.90798 -1.615227,-1.87545 -2.26626,-2.92906 0,0 2.13405,-1.23689 2.13405,-1.23689 z"
       inkscape:connector-curvature="0" />
    <path
       style="fill:#0000ff;fill-opacity:1;stroke:#050101;stroke-width:0;stroke-miterlimit:0.30000001;stroke-opacity:1;stroke-dasharray:none"
       id="path5151"
       d="m 102.62184,995.32945 c -0.10876,0.0493 -0.22107,0.0914 -0.32628,0.14793 -0.15735,0.0845 -0.61819,0.35766 -0.46021,0.27435 0.47749,-0.25181 0.91,-0.60087 1.4192,-0.78008 0.29086,-0.10237 -0.50353,0.35629 -0.74821,0.54392 -0.79665,0.61094 -0.95641,0.77669 -1.7263,1.45639 -1.720785,1.62959 -3.359256,3.35014 -4.863233,5.18214 0,0 -2.130847,0.9073 -2.130847,0.9073 l 0,0 c 1.511642,-1.8422 3.166794,-3.5633 4.873732,-5.22488 0.772202,-0.7008 0.884116,-0.82555 1.676818,-1.45887 0.2342,-0.18711 0.46162,-0.38521 0.71478,-0.54574 0.86896,-0.55103 1.76137,-1.06428 2.64789,-1.58661 0.46849,-0.27603 0.42898,-0.24222 0.87388,-0.40786 0,0 -1.95122,1.49201 -1.95122,1.49201 z"
       inkscape:connector-curvature="0" />
    <path
       style="fill:#ff0000;fill-opacity:1;stroke:#050101;stroke-width:0;stroke-miterlimit:0.30000001;stroke-opacity:1;stroke-dasharray:none"
       id="path5153"
       d="m 109.84823,988.63675 c 0.89467,-1.0984 1.88054,-2.11461 2.89899,-3.09743 0.49629,-0.43241 0.99081,-0.88519 1.57387,-1.20153 0.0127,-0.007 1.9794,-1.56656 2.84015,-1.27838 0.11474,0.0384 0.20471,0.12905 0.30706,0.19357 0.45406,0.48213 0.6528,1.12005 0.8826,1.72566 0.26333,0.69393 0.16439,0.44625 0.47061,1.12908 0.46973,0.94666 1.14106,1.81605 2.11993,2.27829 0.18832,0.0889 0.39206,0.14062 0.58808,0.21093 1.23266,0.27446 2.47558,-0.007 3.58634,-0.5764 0.26273,-0.13467 0.50988,-0.2978 0.76481,-0.4467 -0.41065,0.20671 -0.77275,0.59789 -1.23196,0.62013 -0.30987,0.015 0.48431,-0.38832 0.71557,-0.59512 0.22531,-0.20148 0.44177,-0.41294 0.65323,-0.62891 0.57345,-0.58569 1.05806,-1.21471 1.52503,-1.88547 0,0 2.16858,-0.94423 2.16858,-0.94423 l 0,0 c -0.64707,0.93871 -1.34689,1.80683 -2.18599,2.58416 -0.22916,0.21229 -0.44891,0.43961 -0.70845,0.61343 -0.89732,0.60096 -1.83632,1.13721 -2.75447,1.70581 -0.26304,0.14383 -0.51833,0.30281 -0.7891,0.43149 -1.16667,0.55444 -2.45838,0.78728 -3.71963,0.4502 -0.20441,-0.0825 -0.41701,-0.14714 -0.61322,-0.24763 -1.00289,-0.51367 -1.69579,-1.41414 -2.1954,-2.39826 -0.30795,-0.67551 -0.21864,-0.45632 -0.48732,-1.13642 -0.17589,-0.44522 -0.329,-0.92786 -0.61278,-1.32115 -0.0623,-0.0864 -0.14484,-0.15625 -0.21726,-0.23437 -0.0792,-0.0328 -0.15269,-0.0865 -0.23757,-0.0983 -0.69293,-0.0966 -2.06154,1.21666 1.36801,-1.01271 0.15621,-0.10155 -0.33178,0.17095 -0.48827,0.27205 -0.43287,0.27966 -0.75347,0.56709 -1.15209,0.89732 -0.99856,0.94824 -1.97906,1.92522 -2.80694,3.02964 0,0 -2.26241,0.96124 -2.26241,0.96124 z"
       inkscape:connector-curvature="0" />
    <path
       style="fill:#ff0000;fill-opacity:1;stroke:#050101;stroke-width:0;stroke-miterlimit:0.30000001;stroke-opacity:1;stroke-dasharray:none"
       id="path5155"
       d="m 111.02434,1000.2773 c 0.34366,-1.3156 1.22322,-2.38478 2.10803,-3.38022 0.5488,-0.54766 1.13052,-1.084 1.80482,-1.47678 1.62493,-0.9465 2.18938,-1.50875 3.72772,-1.74378 1.17276,0.0104 1.80738,0.77234 2.49723,1.6113 0.65545,0.92987 1.35598,1.8146 2.27846,2.48962 0.61565,0.3444 1.23325,0.32515 1.8797,0.068 0.18907,-0.0752 0.72361,-0.37153 0.54844,-0.26801 -0.46794,0.27654 -0.95186,0.52512 -1.42779,0.78768 1.43383,-1.0488 2.61664,-2.39622 3.79315,-3.7166 0.1778,-0.19384 0.35561,-0.38768 0.53341,-0.58152 0,0 2.17247,-0.9093 2.17247,-0.9093 l 0,0 c -0.1824,0.19409 -0.36481,0.38817 -0.54721,0.58226 -1.17902,1.31938 -2.35578,2.66356 -3.74426,3.76876 -0.85154,0.49881 -2.88695,2.10476 -4.3148,1.91577 -0.40754,-0.0539 -0.57033,-0.17761 -0.92618,-0.36228 -0.9128,-0.71194 -1.62234,-1.60775 -2.29938,-2.54142 -0.65903,-0.78257 -1.24974,-1.47286 -2.36112,-1.39782 -0.16509,0.0347 -0.33353,0.0562 -0.49528,0.10413 -0.73974,0.21926 -1.62993,0.82179 0.89024,-0.6675 0.20925,-0.12366 -0.41732,0.25014 -0.61614,0.38994 -0.57362,0.40334 -0.70991,0.56062 -1.22856,1.03777 -0.85967,0.93786 -1.72576,1.94835 -2.06998,3.20183 0,0 -2.20297,1.08817 -2.20297,1.08817 z"
       inkscape:connector-curvature="0" />
    <path
       style="fill:#ff0000;fill-opacity:1;stroke:#050101;stroke-width:0;stroke-miterlimit:0.30000001;stroke-opacity:1;stroke-dasharray:none"
       id="path5157"
       d="m 109.41217,988.02644 c 0.48541,-0.69059 0.94522,-1.39579 1.3745,-2.12246 0.21314,-0.37246 0.4083,-0.75558 0.57632,-1.15054 0.0116,-0.84224 -0.0144,-0.19025 2.2075,-0.92407 0.0629,-0.0208 -0.0645,0.11572 -0.0983,0.17268 -0.15565,0.26217 -0.31436,0.52177 -0.46644,0.78615 -0.33765,0.58409 -0.69738,1.15455 -1.01665,1.7491 -0.45187,0.88028 -0.51077,0.53895 -2.30295,1.13402 -0.0847,0.0281 0.10783,-0.14238 0.1608,-0.21427 0.0654,-0.0888 0.12953,-0.17845 0.1943,-0.26767 0.52861,-0.73596 1.04317,-1.48175 1.56466,-2.22264 0.0606,-0.082 0.12227,-0.16309 0.18167,-0.24589 0.0176,-0.0246 0.17332,-0.28222 0.19741,-0.29178 2.22863,-0.88426 2.6681,-1.38019 1.9556,-0.65599 -0.47187,0.52847 -0.93287,1.06646 -1.40537,1.59448 -0.49474,0.76879 -3.27333,2.37177 -2.48109,0.99158 0.48032,-0.74131 1.01437,-1.44638 1.54972,-2.14846 0.22588,-0.3476 0.56296,-0.63805 0.73989,-1.01862 2.42092,-0.93793 2.6232,-1.46055 2.04386,-0.66561 -0.24934,0.34213 -0.47534,0.69975 -0.69574,1.06098 -0.15943,0.3066 -0.34964,0.62569 -0.41078,0.96672 -0.13737,-0.0476 0.57194,-0.41128 0.39289,-0.31042 -1.88114,1.05971 -2.52313,1.5319 -1.71454,0.95043 0.3403,-0.25289 0.67132,-0.51808 1.00393,-0.78098 0.1911,-0.10961 0.33969,-0.28708 0.53803,-0.38219 0.67522,-0.68958 1.56,-1.29904 2.52745,-1.44006 0.21763,-0.0228 0.37515,0.12709 0.54559,0.24709 0.21004,0.19134 0.44028,0.36013 0.64894,0.55111 0.21443,0.14914 0.37614,0.36086 0.54903,0.55431 0.12906,0.13725 0.18613,0.36221 0.33416,0.47812 0.11524,0.12688 0.21911,0.28046 0.36256,0.3772 0.15896,0.16599 0.30099,0.34107 0.41197,0.54229 0.11898,0.14262 0.21047,0.30492 0.32586,0.4507 0.10438,0.18329 0.25753,0.33027 0.38331,0.49869 0.12158,0.17129 0.24792,0.33489 0.34364,0.52228 0.11501,0.2085 0.26833,0.38799 0.38532,0.59545 0.096,0.18492 0.21336,0.35562 0.32458,0.53108 0.14152,0.15152 0.27358,0.30394 0.44039,0.4288 0.12578,0.12204 0.24225,0.22013 0.41985,0.23788 0.18589,0.0191 0.37355,0.0139 0.56022,0.0137 0.2186,0.0178 0.41806,0.13212 0.63837,0.17108 0.14675,-0.0751 0.3231,-0.0641 0.4748,-0.11422 0.0866,-0.0286 0.16308,-0.082 0.2475,-0.11641 0.88154,-0.29725 2.5426,-1.3713 -1.17316,0.76215 5.57612,-3.20204 0.76029,-0.43548 0.32524,-0.18963 -0.0524,0.0296 0.10013,-0.0669 0.15042,-0.1 0.15859,-0.10441 0.31848,-0.20678 0.47861,-0.3088 0.34494,-0.28084 0.69003,-0.5624 1.03261,-0.84661 0.40699,-0.33085 0.73295,-0.74511 1.07912,-1.13593 0.38342,-0.42954 0.78611,-0.84124 1.18996,-1.25143 0.37346,-0.32765 0.73109,-0.67109 1.08905,-1.01557 0.22584,-0.22243 0.38057,-0.50279 0.5841,-0.74247 0.0202,-0.0209 0.0403,-0.0418 0.0605,-0.0627 0,0 2.29553,-0.92973 2.29553,-0.92973 l 0,0 c -0.0235,0.0164 -0.047,0.0327 -0.0705,0.0491 -0.25247,0.2023 -0.39876,0.49656 -0.60268,0.74519 -0.34251,0.36412 -0.71363,0.70427 -1.10114,1.02054 -0.40316,0.40715 -0.80601,0.8149 -1.19175,1.23874 -0.35119,0.39106 -0.67327,0.81225 -1.06248,1.16598 -0.33603,0.29091 -0.69607,0.55111 -1.01484,0.8611 -0.19354,0.15445 -0.41249,0.28885 -0.6265,0.41483 -2.32173,1.36668 -3.50324,2.04682 -0.32078,0.20228 -1.02407,0.59167 -1.95637,1.26162 -3.06228,1.64546 -0.25589,0.0933 -0.54237,0.1606 -0.81398,0.11547 -0.20111,-0.0564 -0.3938,-0.14652 -0.60736,-0.12599 -0.20105,-0.003 -0.40549,-0.005 -0.59945,-0.0643 -0.18422,-0.0738 -0.32969,-0.1926 -0.47714,-0.32366 -0.17403,-0.15135 -0.32767,-0.32239 -0.47593,-0.49867 -0.11757,-0.17804 -0.23927,-0.35434 -0.33429,-0.54574 -0.11385,-0.21314 -0.27842,-0.3901 -0.39288,-0.60323 -0.0837,-0.1751 -0.21114,-0.31948 -0.31643,-0.48167 -0.1311,-0.16315 -0.27732,-0.31652 -0.38587,-0.49605 -0.12146,-0.1585 -0.22319,-0.32925 -0.34529,-0.48739 -0.0914,-0.17496 -0.22121,-0.32322 -0.36415,-0.4587 -0.13467,-0.12498 -0.26095,-0.25974 -0.379,-0.40035 -0.12824,-0.15134 -0.21369,-0.33577 -0.33763,-0.49149 -0.1606,-0.19053 -0.32346,-0.38228 -0.5272,-0.5286 -0.21009,-0.17593 -0.41391,-0.35992 -0.63469,-0.52243 -0.15741,-0.10049 -0.25888,-0.14822 -0.43575,-0.0756 -0.73498,0.24874 -2.52453,1.45419 1.91906,-1.13444 0.0431,-0.0251 -0.0984,0.0299 -0.13549,0.0632 -0.0213,0.0191 -0.0309,0.0483 -0.0463,0.0724 -0.0744,0.10806 -0.13266,0.0953 -0.23375,0.16843 -0.10614,0.0768 -0.16854,0.20452 -0.3091,0.23402 -0.33942,0.26299 -0.67381,0.53219 -1.01723,0.78832 -0.86252,0.71062 -0.22271,0.20022 -2.4745,1.49984 -0.21395,0.12348 -0.44277,0.18203 -0.63153,-0.004 -0.0219,-0.0447 -0.0558,-0.0853 -0.0659,-0.13404 -0.0556,-0.26878 0.31026,-0.83112 0.4044,-1.07345 0.16756,-0.28668 0.34395,-0.5677 0.52087,-0.8487 0.0165,-0.0262 0.24769,-0.38527 0.27192,-0.39775 0.77593,-0.39943 1.58015,-0.74133 2.37022,-1.112 -0.29125,0.24861 -0.4959,0.79589 -0.80823,1.04301 -0.53509,0.68362 -1.06902,1.37495 -1.52132,2.11659 -0.60498,0.78183 -1.21928,0.74012 -2.43815,1.33801 -0.0379,0.0186 0.0765,-0.0376 0.10858,-0.065 0.11777,-0.10048 0.19886,-0.23968 0.31856,-0.33794 0.47891,-0.51866 0.9496,-1.04534 1.39111,-1.5965 0.60614,-0.63983 3.1766,-2.1539 2.47382,-1.14884 -0.29051,0.41545 0.0682,-0.0493 -0.32224,0.43882 -0.54314,0.71986 -1.04059,1.47537 -1.55718,2.21435 -0.0133,0.0196 -0.3071,0.46116 -0.33,0.47364 -2.89068,1.57456 -2.72873,1.82279 -2.19199,0.84685 0.33286,-0.59346 0.68754,-1.1732 1.03347,-1.75904 0.83245,-1.52268 0.38016,-0.83112 2.86764,-2.04994 0.0119,-0.006 -0.0259,-0.006 -0.0388,-0.009 -0.18461,0.4113 -0.40113,0.80756 -0.61767,1.20262 -0.42913,0.71532 -0.87275,1.41989 -1.33059,2.11672 0,0 -2.25437,0.98636 -2.25437,0.98636 z"
       inkscape:connector-curvature="0" />
    <path
       style="fill:#ff0000;fill-opacity:1;stroke:#050101;stroke-width:0;stroke-miterlimit:0.30000001;stroke-opacity:1;stroke-dasharray:none"
       id="path5159"
       d="m 114.78122,996.04284 c -0.65109,0.49841 -1.22115,1.08938 -1.81102,1.65617 -0.44852,0.45938 -0.91461,0.91966 -1.24677,1.47428 -0.14994,0.0747 0.576,-0.36158 0.42083,-0.27439 -1.75705,0.98737 -2.3317,1.3838 -1.34899,0.72886 0.82827,-0.57048 1.61982,-1.19076 2.40748,-1.81542 0.19443,-0.16763 0.17139,-0.14173 0.33053,-0.29736 0.0186,-0.0182 0.0363,-0.0746 0.0545,-0.056 0.0543,0.0554 0.0821,0.13528 0.0978,0.21127 0.009,0.0441 -0.0668,0.15296 -0.0267,0.13252 0.66689,-0.3394 1.30024,-0.74103 1.95036,-1.11155 -0.59687,0.52494 -1.14795,1.09935 -1.67864,1.69032 -0.31169,0.43798 -0.76801,0.75128 -1.10414,1.16492 -3.03664,1.45084 -2.59474,1.27114 -1.82514,0.44096 0.2944,-0.3176 0.57847,-0.64478 0.86531,-0.96917 0.26069,-0.30468 0.54104,-0.59206 0.80484,-0.89392 0.0458,-0.0524 0.22934,-0.30842 0.26411,-0.30871 0.26558,1.0169 -0.0361,0.2284 2.03189,-0.83215 0.0895,-0.0459 -0.14243,0.14202 -0.21224,0.21441 -0.30115,0.31231 -0.58258,0.64054 -0.86543,0.96931 -0.40158,0.47696 -0.82057,0.95066 -1.1483,1.48373 -0.54099,-0.82835 2.31501,-1.42006 -1.98727,0.81378 -0.10697,0.056 0.18851,-0.1504 0.28001,-0.2288 0.28946,-0.24823 0.51246,-0.46177 0.79525,-0.72483 0.87486,-0.8068 1.70689,-1.65384 2.46924,-2.56771 0.1281,-0.16422 0.24509,-0.29939 0.34843,-0.47706 0.0265,-0.0456 0.10004,-0.15915 0.048,-0.1507 -0.0763,0.0124 -0.13919,0.0677 -0.21092,0.0965 -0.0845,0.0268 -0.1712,0.0477 -0.25358,0.0806 -0.11725,0.0468 -0.59065,0.27908 -0.68236,0.32965 -0.1327,0.0732 -0.52194,0.30813 -0.38988,0.23381 1.58242,-0.89056 2.23044,-1.31475 1.25163,-0.68814 -0.52826,0.39228 -1.03831,0.81333 -1.53184,1.24904 -0.0909,0.0704 -0.11126,0.11187 -0.13842,-0.17175 -0.004,-0.0425 0.095,-0.13459 0.0573,-0.11458 -2.91485,1.54617 -2.32361,1.4145 -1.44476,0.73929 0.4977,-0.41259 0.9869,-0.85507 1.3784,-1.37257 0.0589,-0.25378 0.19753,-0.14947 0.0996,-0.003 -0.0428,0.0641 -0.12699,0.0876 -0.18749,0.13534 3.40603,-2.39967 2.11807,-1.22644 1.37353,-0.63689 -0.1455,-0.15958 0.48915,-0.38891 0.58322,-0.43874 0.62842,-0.34138 1.25501,-0.68192 1.90527,-0.98046 0.50528,-0.21596 1.01236,-0.42816 1.52354,-0.63005 0.26378,-0.089 0.57597,-0.0545 0.81406,0.0905 0.23207,0.15173 0.41891,0.36155 0.61458,0.55574 0.2617,0.25932 0.46558,0.56876 0.65466,0.88286 0.17287,0.34991 0.3603,0.68981 0.56632,1.02122 0.17162,0.27266 0.34461,0.54389 0.53178,0.80671 0.14356,0.24153 0.30637,0.47694 0.5063,0.67542 0.23115,0.19034 0.49886,0.31212 0.76369,0.44864 0.29333,0.0885 0.57904,0.20187 0.8758,0.28041 0.32488,0.0557 0.66418,0.12721 0.9901,0.056 0.37183,-0.031 0.68223,-0.21877 1.01365,-0.36862 -3.69462,2.08607 -1.96342,1.20078 -1.20257,0.6048 0.33802,-0.29379 0.58936,-0.66789 0.84949,-1.0283 0.26216,-0.37803 0.57886,-0.71225 0.86253,-1.07338 0.25765,-0.34862 0.46578,-0.72932 0.70797,-1.08836 0.17393,-0.20509 0.28572,-0.45116 0.44892,-0.66307 0.12209,-0.15537 0.22059,-0.33152 0.3453,-0.48504 0.31065,-0.78921 0.20943,-0.15887 2.22946,-0.97474 0.0406,-0.0164 -0.0737,0.0475 -0.10956,0.0727 -0.15024,0.10531 -0.10566,0.0745 -0.2481,0.22327 -0.32593,0.43874 -0.67245,0.86013 -1.03634,1.26774 -0.27452,0.29337 -0.51996,0.61206 -0.78896,0.91026 -0.20706,0.25193 -0.40816,0.50831 -0.63515,0.74279 -0.86846,0.73331 -1.93719,1.22241 -2.9077,1.77772 -0.2884,0.11805 -0.60642,0.10853 -0.91269,0.1188 -0.31137,-0.005 -0.62571,0.0324 -0.92993,-0.0409 -0.30126,-0.0731 -0.55907,-0.2515 -0.81885,-0.41121 -0.28889,-0.17454 -0.51165,-0.42384 -0.75531,-0.65242 -0.21174,-0.27944 -0.51961,-0.45283 -0.77596,-0.68452 -0.23634,-0.16986 -0.41768,-0.40328 -0.60894,-0.62023 -0.19573,-0.22943 -0.43127,-0.41671 -0.66627,-0.60415 -0.23724,-0.17705 -0.51267,-0.30037 -0.78255,-0.42269 -0.2453,-0.0372 -0.45322,-0.2346 -0.70346,-0.20194 -0.16966,0.0497 -0.36026,0.0264 -0.52947,0.0707 -0.0881,0.023 -0.16698,0.0728 -0.25244,0.10413 -0.32931,0.0777 -0.61236,0.26175 -0.90871,0.41734 0.65842,-0.37785 1.31601,-0.75716 1.97527,-1.13356 0.0735,-0.0419 -0.14071,0.0942 -0.2138,0.13676 -0.73579,0.42888 -1.48461,0.83581 -2.21076,1.28081 -0.63832,0.39119 2.56047,-1.54765 1.95028,-1.11389 -0.19578,0.13314 -0.34216,0.32133 -0.52063,0.4753 -0.23852,0.22804 -0.44511,0.48219 -0.62784,0.7562 -0.22743,0.35201 -0.40716,0.73044 -0.59256,1.10517 -0.1581,0.348 -0.36086,0.67086 -0.55918,0.99645 -0.24849,0.3682 -0.52003,0.72 -0.7632,1.09206 -0.13706,0.20533 -0.27424,0.40978 -0.39454,0.62547 -0.59821,0.8048 -2.83964,1.784 -2.10192,0.7203 0.26177,-0.4327 0.54386,-0.849 0.84608,-1.25488 0.35852,-0.49269 0.63971,-1.03281 0.94583,-1.55766 0.24381,-0.47071 0.52837,-0.90419 0.9139,-1.26911 1.00074,-0.78031 2.16326,-1.32114 3.26683,-1.9433 0.91505,-0.52312 -1.20914,0.69935 -1.81587,1.04524 -0.30934,0.17635 0.26618,-0.19197 0.31493,-0.18765 0.0498,0.067 0.0994,0.12674 0.10329,0.2233 8.3e-4,0.0203 -0.49353,0.26027 -0.52067,0.27217 -0.54854,0.24312 -1.05871,0.56117 -1.58817,0.84198 -0.88009,0.52671 -0.0469,0.0264 1.69301,-0.96989 0.0181,-0.0104 -0.25496,0.15721 -0.2551,0.15688 -0.0426,-0.0939 -0.0757,-0.19174 -0.11357,-0.28762 -0.18417,0.0352 0.53375,-0.30576 0.39016,-0.221 -0.62286,0.36769 -1.25653,0.71676 -1.88579,1.07337 -0.0782,0.0443 0.15478,-0.0916 0.23266,-0.13651 0.78299,-0.45182 1.56662,-0.9025 2.34994,-1.35374 -3.45961,2.1407 -1.7578,1.00847 -0.99649,0.45349 0.0186,-0.0149 0.0321,-0.0423 0.0558,-0.0446 0.0464,-0.005 0.0741,0.0851 0.056,0.12803 -0.002,0.006 -0.36971,0.0862 -0.37996,0.088 -0.48647,0.16131 -0.95199,0.37576 -1.42503,0.57175 0.1844,-0.17266 -0.62809,0.33683 -0.41736,0.17155 2.24182,-1.75826 3.33121,-2.32547 0.2157,-0.53887 0.50414,-0.32298 0.97392,-0.69303 1.42677,-1.08358 0.20296,-0.19161 0.42817,-0.36516 0.61392,-0.5741 3.59425,-1.93313 2.31831,-0.84745 1.3957,-0.19509 -1.33635,0.84183 -4.75496,2.71327 -0.78651,0.4685 0.0936,-0.053 -0.18404,0.1116 -0.27317,0.17183 -0.15449,0.10438 -0.30565,0.2263 -0.45256,0.34108 -0.1732,0.14696 -0.17039,0.13793 -0.32008,0.28786 -0.0391,0.0391 -0.0784,0.16344 -0.11358,0.12079 -0.05,-0.0606 -0.0301,-0.24179 -0.10274,-0.21202 -0.73854,0.30248 -1.41052,0.7471 -2.11578,1.12065 0.34315,-0.28256 0.66116,-0.59745 0.96451,-0.92216 0.27643,-0.32118 0.55691,-0.63945 0.78038,-1.00057 0.0103,-0.009 0.0207,-0.0364 0.0311,-0.0273 0.0249,0.0218 0.0107,0.10358 0.0411,0.0905 2.58805,-1.11472 2.66873,-1.57083 1.84251,-0.66762 -0.3611,0.39855 -0.71875,0.80124 -1.06704,1.21121 -0.0827,0.0146 -0.24168,0.43503 -0.28891,0.45276 -0.0158,0.006 -0.0946,-0.21129 -0.11882,-0.27188 -3.68668,2.59605 -2.04293,1.08249 -1.19504,0.47737 1.2172,-0.63342 2.34941,-1.55213 3.67387,-1.98333 0.40529,-0.12656 0.79084,-0.16635 1.20337,-0.0754 0.36493,0.13511 0.70335,0.31318 1.04755,0.49217 0.33531,0.23292 0.68414,0.44381 1.03061,0.65952 0.18024,0.14282 0.3821,0.25142 0.56128,0.39421 0,0 -2.08514,1.31617 -2.08514,1.31617 l 0,0 c -0.17864,-0.12996 -0.36244,-0.25258 -0.54318,-0.37962 -0.33796,-0.21639 -0.68066,-0.42518 -1.01653,-0.64489 -0.32426,-0.17062 -0.65663,-0.33068 -1.01241,-0.42438 -0.38055,-0.0476 -0.75339,0.0475 -1.11379,0.16688 -0.26583,0.10382 -0.51655,0.22078 -0.76824,0.35574 -0.0932,0.05 -0.3696,0.20579 -0.27843,0.15217 1.54108,-0.90642 2.48147,-1.42564 1.57582,-0.92349 -1.01934,0.67915 -1.75528,1.5528 -3.02504,1.96004 -0.0599,-0.062 -0.12816,-0.11677 -0.17964,-0.18585 -0.0829,-0.1112 0.22371,-0.46957 0.27502,-0.58107 0.34768,-0.41183 0.7141,-0.80619 1.0604,-1.21879 0.80808,-0.88072 0.58437,-0.60228 2.58995,-1.50753 0.0332,-0.015 0.0397,0.0635 0.0453,0.0995 0.004,0.0281 -0.0111,0.0558 -0.0167,0.0837 -0.28402,0.32277 -0.47857,0.72883 -0.79535,1.02965 -0.28276,0.33884 -0.61085,0.63346 -0.91818,0.94965 -0.74473,0.40501 -1.4534,0.88485 -2.23419,1.21504 -0.077,0.0326 -0.10019,-0.13762 -0.12458,-0.21754 -0.0148,-0.0486 0.40048,-0.4475 0.44056,-0.4852 0.2394,-0.18401 0.46153,-0.38919 0.72276,-0.54317 1.53629,-0.90559 4.24844,-2.45531 0.54103,-0.31724 -0.0801,0.0462 0.15891,-0.0944 0.23837,-0.14165 1.16551,-0.65784 1.3021,-1.4844 3.1881,-1.63349 -0.22852,0.18577 -0.42704,0.40844 -0.65342,0.59741 -0.44959,0.39162 -0.90361,0.78053 -1.40543,1.10501 -2.377,1.40348 -3.71624,2.37557 -0.55702,-0.0928 0.10789,-0.0843 0.29041,-0.0736 0.39787,-0.15931 0.48,-0.1978 0.95554,-0.42617 1.46696,-0.52986 0.24575,-0.0322 0.47227,-0.0706 0.61188,0.18012 0.0621,0.11149 0.0339,0.11236 -0.0221,0.19355 -0.81243,0.82907 -2.63818,1.32689 -3.18919,2.01079 0.60994,-0.35277 1.21962,-0.70601 1.82982,-1.05833 0.0771,-0.0445 -0.15335,0.0906 -0.23058,0.13495 -0.77402,0.44444 -1.54717,0.8904 -2.32316,1.33138 -0.0446,0.0253 -0.27279,0.1416 -0.33811,0.16056 -0.0395,0.0115 -0.0818,0.009 -0.12266,0.0141 -0.26413,-0.35911 -0.27687,-0.25919 0.0739,-0.46398 2.08515,-1.21735 1.53662,-0.91139 2.5013,-1.4461 0.53151,-0.28537 1.0501,-0.59627 1.60381,-0.83838 0.28615,-0.14312 0.63079,-0.4476 0.76911,0.0292 -0.0166,0.13411 -0.17793,0.22983 -0.29159,0.29706 -1.83011,1.08246 -1.51591,0.90705 -2.39019,1.39111 -0.0602,0.033 -0.12035,0.0663 -0.18072,0.0991 -1.20525,0.65515 2.67023,-1.56325 1.48808,-0.86962 -0.0661,0.0388 -0.13563,0.0719 -0.20002,0.11349 -0.0662,0.0428 -0.1274,0.0928 -0.1911,0.13923 -0.42206,0.31547 -0.72267,0.72694 -0.95498,1.19906 -0.32199,0.52081 -0.5884,1.07381 -0.93797,1.57829 -0.29036,0.40475 -0.62037,0.78809 -0.81864,1.25053 -0.0322,0.0369 -0.14151,0.20628 -0.19065,0.23088 -1.96396,0.9823 -2.65822,1.8483 -2.23839,1.0346 0.12245,-0.2232 0.24939,-0.4478 0.41188,-0.6444 0.21925,-0.387 0.50253,-0.73416 0.76198,-1.09433 0.20243,-0.31787 0.41008,-0.63577 0.56603,-0.97977 0.20495,-0.36756 0.35872,-0.7629 0.58649,-1.11825 0.16164,-0.29674 0.35912,-0.56379 0.59445,-0.80668 0.2393,-0.27668 -0.0645,0.0558 0.19039,-0.16834 0.11408,-0.1003 0.16828,-0.26799 0.31843,-0.32008 0.66906,-0.70582 -0.33623,0.34132 2.26828,-1.36873 0.64982,-0.42666 -1.34097,0.78679 -2.01461,1.17474 -0.0763,0.0439 0.13905,-0.10874 0.21503,-0.15313 0.74649,-0.43622 1.49697,-0.86559 2.24545,-1.29838 0.3006,-0.15632 0.60576,-0.29936 0.93482,-0.38721 0.27163,-0.0809 0.56303,-0.10841 0.84576,-0.0935 0.257,0.0696 0.50218,0.17891 0.75085,0.27325 0.27848,0.13975 0.56821,0.26845 0.8066,0.47266 0.24726,0.19364 0.48915,0.39787 0.6932,0.63766 0.18769,0.20763 0.36231,0.43044 0.59087,0.59604 0.26476,0.22435 0.55557,0.42076 0.77656,0.6925 0.23519,0.21659 0.45322,0.45199 0.73628,0.60904 0.23453,0.14896 0.48075,0.29089 0.76006,0.33121 0.30015,0.0189 0.60167,0.009 0.90209,-3e-4 0.29565,-0.0172 0.58866,-0.0487 0.85012,-0.20059 -3.67179,2.1383 -2.06465,1.26838 -1.29955,0.68889 0.26133,-0.18879 0.44579,-0.45999 0.64999,-0.70645 0.24992,-0.32321 0.54586,-0.6121 0.806,-0.92819 0.364,-0.39696 0.72178,-0.80149 1.02691,-1.2465 0.0658,-0.0999 0.12303,-0.20185 0.21041,-0.28514 0.60758,-0.57914 2.89771,-1.9072 2.43018,-1.0326 -0.0485,0.18758 -0.20594,0.37663 -0.33546,0.51668 -0.0565,0.11127 -0.14177,0.17766 -0.20458,0.28259 -0.081,0.13537 -0.13454,0.28919 -0.2469,0.40721 -0.28633,0.33067 -0.46904,0.73393 -0.71581,1.09372 -0.27924,0.36485 -0.58509,0.70444 -0.86649,1.06758 -0.26927,0.36338 -0.51199,0.74507 -0.81799,1.08034 -0.88242,0.77992 -2.03171,1.21164 -3.00163,1.84506 -0.3392,0.1602 -0.68693,0.2804 -1.0647,0.307 -0.35323,0 -0.7053,-0.041 -1.04669,-0.1334 -0.30464,-0.095 -0.61428,-0.1856 -0.90388,-0.32033 -0.28507,-0.1497 -0.57207,-0.29126 -0.80923,-0.51497 -0.19956,-0.21635 -0.37846,-0.45299 -0.52423,-0.70897 -0.18528,-0.26905 -0.36704,-0.53951 -0.53192,-0.8214 -0.20835,-0.33098 -0.39249,-0.6743 -0.57018,-1.0225 -0.18203,-0.29594 -0.36979,-0.59224 -0.62743,-0.82985 -0.17576,-0.17511 -0.35185,-0.36407 -0.57563,-0.47734 -0.23805,-0.0601 -0.45963,-0.0477 -0.68463,0.0617 -0.50149,0.20039 -1.00475,0.39827 -1.49447,0.62612 -0.64763,0.31149 -1.27596,0.6579 -1.91116,0.9935 -0.32633,0.15596 -0.81365,0.41048 -0.94611,-0.10316 0.0613,-0.13456 0.16258,-0.20613 0.27249,-0.30492 0.77863,-0.69985 1.31374,-1.06014 2.54697,-1.59351 0.37361,-0.13822 0.631,0.0509 0.41627,0.43637 -0.35383,0.56363 -0.89143,0.99537 -1.36769,1.45145 -0.99118,0.75935 -1.03391,0.77125 -2.73654,1.71487 -0.1657,0.0918 -0.25953,-0.0786 -0.3041,-0.20741 -0.0133,-0.0385 0.0195,-0.0791 0.0293,-0.11866 0.46286,-0.49378 1.07219,-0.84867 1.5633,-1.31346 1.16862,-0.77122 0.40261,-0.27606 2.86914,-1.70554 0.44568,-0.2583 0.91323,-0.5089 1.42813,-0.5888 0.79352,0.0985 0.38666,0.67011 0.0579,1.05019 -0.76619,0.9241 -1.60393,1.78046 -2.47843,2.6025 -0.69227,0.66775 -3.13912,3.23672 -3.54737,2.06722 0.23129,-0.567 0.82562,-1.06933 1.17713,-1.56225 1.11321,-1.3175 1.27626,-1.60765 3.26314,-2.56903 0.0898,-0.0434 0.15506,0.12549 0.23259,0.18824 0.018,0.37917 -0.86766,1.03188 -1.07604,1.35488 -0.28327,0.32013 -0.55734,0.6489 -0.84183,0.96781 -0.0703,0.0788 -0.1448,0.15391 -0.2171,0.23095 -0.0488,0.052 -0.082,0.12528 -0.1463,0.15625 -0.77309,0.37258 -1.56784,0.69845 -2.35176,1.04765 0.15678,-0.107 -0.0206,0.023 0.18511,-0.18 0.33073,-0.32651 0.70716,-0.61002 0.98796,-0.98617 0.52134,-0.58793 1.05947,-1.15839 1.624,-1.70536 0.75027,-0.4548 1.48372,-0.93859 2.25082,-1.36441 0.15867,-0.0881 0.26961,0.16447 0.28523,0.24328 0.004,0.0218 -0.16746,0.19545 -0.20024,0.22698 -0.0687,0.066 -0.14083,0.12834 -0.21124,0.19251 -0.79758,0.62243 -1.59171,1.24888 -2.41679,1.83462 -1.0794,0.78109 -0.57515,0.43577 -2.80274,1.67605 -0.30751,0.1712 -0.68286,0.1696 -0.75719,-0.2328 0.26623,-0.61896 0.83546,-1.07419 1.26671,-1.57287 0.57845,-0.55685 1.13263,-1.13938 1.74918,-1.65499 0,0 2.28687,-0.91774 2.28687,-0.91774 z"
       inkscape:connector-curvature="0" />
    <path
       style="fill:#ff0000;fill-opacity:1;stroke:#050101;stroke-width:0;stroke-miterlimit:0.30000001;stroke-opacity:1;stroke-dasharray:none"
       id="path5161"
       d="m 113.34227,984.83093 c -0.43159,0.58484 -0.94219,1.10051 -1.45727,1.61033 -0.86575,0.86226 -1.70938,1.29925 -2.90947,1.90653 -0.0438,0.0222 -0.0689,-0.0701 -0.10335,-0.10509 -0.0204,-0.0742 -0.0628,-0.14564 -0.0612,-0.22257 0.004,-0.19656 0.67582,-0.94701 0.81189,-1.11973 0.30444,-0.38331 0.61317,-0.76216 0.95911,-1.10894 0.56161,-0.65753 2.6779,-1.75917 2.21528,-0.78649 -0.10809,0.22726 -0.2427,0.4459 -0.35805,0.66982 -0.15996,0.31587 -0.29925,0.64186 -0.42488,0.97276 -0.002,0.84328 0.0165,0.18626 -2.20685,0.93212 -0.0617,0.0207 0.0653,-0.11255 0.0969,-0.16942 0.13014,-0.23427 0.24624,-0.47589 0.36774,-0.71469 0.24313,-0.52491 0.49158,-1.04566 0.76988,-1.5528 0,0 2.23206,-1.00046 2.23206,-1.00046 l 0,0 c -0.27488,0.50872 -0.55752,1.01232 -0.77919,1.54811 -0.75384,1.5208 -0.15256,0.70892 -2.76662,1.98991 -0.0114,0.006 0.0248,0.005 0.0372,0.008 0.14097,-0.33972 0.29279,-0.67483 0.44664,-1.00888 0.71897,-1.39729 0.25486,-0.7075 2.70585,-1.85543 0.0181,-0.009 -0.0344,0.0203 -0.0515,0.0304 -0.37487,0.32771 -0.69809,0.69984 -1.01019,1.08685 -0.23355,0.31169 -0.48532,0.60631 -0.72808,0.90972 -0.0281,0.0352 -0.0299,0.10613 -0.0744,0.1128 -0.0447,0.007 -0.07,-0.0573 -0.10495,-0.086 -0.3954,-0.76834 -0.005,-0.0674 -2.06306,1.11725 -0.0458,0.0263 0.0847,-0.063 0.12646,-0.0953 0.21676,-0.1681 0.42672,-0.34489 0.62953,-0.52959 0.50016,-0.50128 1.04087,-0.97628 1.43461,-1.57091 0,0 2.266,-0.96812 2.266,-0.96812 z"
       inkscape:connector-curvature="0" />
    <path
       style="fill:#ff0000;fill-opacity:1;stroke:#050101;stroke-width:0;stroke-miterlimit:0.30000001;stroke-opacity:1;stroke-dasharray:none"
       id="path5163"
       d="m 129.76371,984.40002 c -0.38756,0.66238 -0.8405,1.28251 -1.30477,1.89246 -0.44693,0.61977 -0.94484,1.20073 -1.39259,1.81958 -0.32958,0.84165 -3.27158,2.30879 -2.30459,1.0393 0.23516,-0.39215 0.50323,-0.75546 0.81253,-1.09168 0.55429,-0.68506 3.04128,-2.00483 2.29708,-0.81795 -0.25739,0.46562 -0.65656,0.81814 -1.03965,1.17717 -1.05908,0.79954 -2.19368,1.57137 -3.45629,2.00021 -0.0896,0.0264 -0.14167,0.034 -0.2173,0.0776 -0.0124,0.007 -0.0249,0.0387 -0.0331,0.0271 -0.0653,-0.0922 -0.12964,-0.19018 -0.15957,-0.29916 -0.008,-0.0303 0.0299,-0.059 0.0568,-0.0753 0.73862,-0.44658 1.4892,-0.87306 2.2338,-1.30958 1.02952,-0.55805 -2.32226,1.34077 -1.74093,1.00691 0.76922,-0.44177 1.53684,-0.88634 2.30753,-1.32554 0.0635,-0.0362 0.25804,-0.137 0.19479,-0.10045 -2.08933,1.2074 -2.54571,1.53121 -1.81599,1.02235 0.0903,-0.20342 0.25865,-0.0209 0.1945,0.11378 -0.0302,0.0634 -0.17568,0.10045 -0.22065,0.11703 -0.37345,0.14367 -0.75049,0.25673 -1.14369,0.33651 -0.30335,0.047 -0.59298,0.15859 -0.89025,0.2379 -1.12354,0.33885 1.46564,-1.34909 2.26153,-1.53374 0.219,-0.0497 0.41874,-0.17279 0.60751,-0.29278 -1.80249,1.49137 -1.44436,1.3705 -2.72319,1.42217 -0.33353,-0.006 -0.64983,0.10393 -0.97868,0.15376 -0.31278,0.0534 -0.63066,0.0628 -0.94714,0.072 -0.97049,0.0201 -0.94083,0.38237 1.97257,-1.45034 0.032,-0.0201 0.53807,0.003 0.59805,0.004 0.39834,-0.10831 0.84122,-0.0686 1.22337,-0.22581 0.7425,-0.43674 1.67655,-0.97789 -1.86776,1.06953 -0.013,0.008 0.0291,-0.0284 0.041,-0.0192 0.026,0.0203 0.0311,0.0582 0.0464,0.0875 0.0373,0.0712 0.0742,0.14248 0.11135,0.21372 0.0214,-0.0144 -0.14802,0.0698 -0.11251,0.0494 0.67896,-0.39032 2.71294,-1.56607 2.0403,-1.16497 -0.73513,0.43836 -1.47997,0.86042 -2.22779,1.27677 -0.18846,0.0564 -0.10049,0.0153 -0.26407,0.12296 -0.22687,0.11888 -0.46924,0.21456 -0.72565,0.23931 -0.19934,0.0333 -0.38976,-0.0788 -0.54279,-0.20072 -0.16902,-0.0913 -0.32006,-0.20905 -0.47375,-0.3234 0,0 2.09112,-1.32197 2.09112,-1.32197 l 0,0 c 0.14874,0.11356 0.3049,0.21486 0.46575,0.31052 0.1571,0.0741 0.26461,0.0986 0.43299,0.0427 0.23532,-0.0729 0.46057,-0.16733 0.67405,-0.29172 0.0909,-0.0384 0.35395,-0.17342 0.2688,-0.12366 -4.14742,2.42348 -1.10263,0.59362 0.32197,-0.1618 0.06,0.0768 0.19256,0.20509 0.20057,0.32636 0.001,0.018 -0.0212,0.0307 -0.0368,0.0399 -0.77761,0.45654 -1.51346,1.08077 -2.39532,1.33168 -0.41574,0.0718 -0.83582,0.13416 -1.25636,0.16542 -0.1593,6.2e-4 -0.26866,8.3e-4 -0.42702,0.002 -0.061,5.4e-4 -0.22923,0.042 -0.18306,0.002 1.81209,-1.56678 1.09386,-1.44179 2.01765,-1.45804 0.30779,-0.0109 0.61496,-0.0362 0.91815,-0.0924 0.33409,-0.0636 0.66452,-0.14739 1.0079,-0.1309 1.41918,-0.0107 0.67762,0.31694 -1.19861,1.59273 -0.20394,0.1022 -0.41331,0.19077 -0.63921,0.23221 -1.31476,0.35172 0.73133,-1.27546 1.66062,-1.47041 0.29425,-0.0789 0.58356,-0.17665 0.8863,-0.22039 0.38688,-0.0905 0.75504,-0.23275 1.12839,-0.36688 0.064,-0.0232 0.20193,-0.0877 0.27975,-0.0629 0.20894,0.0666 0.2858,0.31205 0.0923,0.43626 -0.788,0.66962 -0.109,0.10507 -2.38587,1.42872 -0.0618,0.0359 -0.25067,0.13763 -0.18894,0.10155 0.6281,-0.36714 2.51991,-1.45567 1.88817,-1.0948 -2.91489,1.66505 -1.47771,0.88462 -2.46935,1.42167 0.66051,-0.39147 1.32102,-0.78293 1.98154,-1.1744 -0.0209,0.0112 -0.0456,0.0501 -0.0627,0.0337 -0.0785,-0.0748 -0.13356,-0.17241 -0.18364,-0.26861 -0.009,-0.017 0.25584,-0.0304 0.24376,-0.0734 0.77955,-0.31616 1.77885,-1.00167 -1.50654,0.92375 -0.0849,0.0497 0.17441,-0.0912 0.25855,-0.14212 0.0691,-0.0418 0.44148,-0.29423 0.50983,-0.34035 0.37062,-0.34454 0.77787,-0.66803 1.04506,-1.10376 0.48025,-0.85595 1.38804,-0.79089 2.46704,-1.28226 0.0434,-0.0198 -0.0939,0.0249 -0.13354,0.0515 -0.0415,0.0278 -0.0722,0.0691 -0.10829,0.10368 -0.31993,0.31893 -0.63063,0.64812 -0.82868,1.06019 -0.56138,0.83539 -1.18327,0.70476 -2.4857,1.28278 -0.0279,0.0124 0.0526,-0.0326 0.0725,-0.0557 0.0844,-0.0979 0.12929,-0.22599 0.22108,-0.31841 0.45477,-0.62652 0.96519,-1.20908 1.41733,-1.83797 0.45824,-0.58794 0.91196,-1.18817 1.26713,-1.84518 0,0 2.25503,-0.99946 2.25503,-0.99946 z"
       inkscape:connector-curvature="0" />
    <path
       style="fill:#ff0000;stroke-width:1.89999998;stroke-miterlimit:4;stroke-dasharray:7.6, 7.6;stroke-dashoffset:0"
       id="path3001"
       d="m 140.2187,977.21611 c -0.71889,1.18387 -2.18583,2.46419 -3.59204,2.10327 -0.6002,-0.20364 -1.0474,-0.62896 -1.45435,-1.09693 -0.50395,-0.66053 -0.72612,-1.43595 -0.85026,-2.24348 -0.16513,-0.98871 0.0321,-1.85785 0.38142,-2.77737 0.4205,-0.95887 1.02787,-1.8092 1.77296,-2.53929 1.12432,-0.96812 2.42058,-1.58406 3.75028,-2.3012 0.33337,-0.1798 1.08804,-0.33177 1.46663,-0.41706 0.78461,-0.1228 1.60009,-0.17512 2.39228,-0.0821 0.46044,0.0541 0.76882,0.14745 1.21649,0.26049 1.22024,0.39331 2.0368,0.92958 2.88891,1.87383 0.6043,0.70665 0.97204,1.52795 1.08281,2.44597 0.0689,0.7732 -0.17121,1.51651 -0.38968,2.24728 -0.22518,0.73672 -0.50383,1.45509 -0.77671,2.17494 -0.28412,0.76939 -0.63054,1.5131 -0.98308,2.25288 -0.47031,0.90609 -0.97761,1.79082 -1.51343,2.65951 -0.53709,0.90141 -1.12402,1.77112 -1.61721,2.69782 -0.43511,0.90288 -0.96403,1.75511 -1.46884,2.61955 -0.52598,0.9082 -1.04755,1.81859 -1.54663,2.74191 -0.47802,0.88741 -0.89875,1.80444 -1.31646,2.72136 -0.40729,0.91201 -0.80055,1.83099 -1.26331,2.71658 -0.498,0.91701 -1.04063,1.80826 -1.53426,2.7276 -0.4141,0.83995 -0.76955,1.7149 -0.95573,2.63463 -0.13313,0.8711 -0.0728,1.7474 0.04,2.616 0.17136,0.9766 0.49579,1.9194 0.91302,2.8165 0.43651,0.9069 1.00887,1.7301 1.67955,2.4768 0.62615,0.6256 1.365,1.0759 2.18484,1.3949 0.91345,0.3276 1.83694,0.2808 2.77285,0.101 0.68138,-0.1447 1.34111,-0.3579 1.96976,-0.6591 0.23855,-0.1142 0.93131,-0.5017 0.70249,-0.369 -2.4992,1.4491 -2.11716,1.2228 -0.9965,0.4653 1.70263,-1.2437 3.25137,-2.6834 4.80048,-4.1098 1.0843,-0.9871 2.11542,-2.03 3.0129,-3.1905 0.34265,-0.4222 0.64013,-0.8739 0.91219,-1.3435 0.0274,-0.05 0.0547,-0.1 0.0821,-0.1496 0,0 2.81916,-1.23639 2.81916,-1.23639 l 0,0 c -0.0324,0.0414 -0.0648,0.0829 -0.0972,0.12433 -0.24789,0.51726 -0.6037,0.97336 -0.95729,1.42176 -0.92858,1.1905 -1.9767,2.274 -3.10222,3.2809 -1.54621,1.4241 -3.09058,2.8601 -4.76138,4.1382 -1.67255,1.1745 -0.94208,0.6923 -4.00531,2.4362 -0.85497,0.4867 -1.8004,0.7895 -2.76028,0.9843 -0.98803,0.1533 -1.95965,0.1693 -2.90336,-0.2149 -0.84372,-0.3643 -1.60678,-0.8518 -2.2484,-1.5182 -0.67436,-0.7794 -1.26843,-1.6225 -1.71664,-2.5543 -0.43329,-0.9209 -0.77028,-1.89 -0.96309,-2.8911 -0.13541,-0.8934 -0.2042,-1.7968 -0.0917,-2.6979 0.15549,-0.9551 0.52892,-1.8549 0.937,-2.7285 0.48588,-0.92101 1.01958,-1.81379 1.52405,-2.72443 0.48232,-0.87142 0.8696,-1.79077 1.27675,-2.69894 0.40837,-0.92577 0.83898,-1.84376 1.30642,-2.74107 0.49945,-0.92617 1.02108,-1.83965 1.54535,-2.75194 0.50021,-0.86158 1.03126,-1.70791 1.46759,-2.60448 0.48641,-0.9403 1.07638,-1.81476 1.62051,-2.72207 0.52916,-0.85855 1.03476,-1.72833 1.50519,-2.62055 0.34964,-0.73086 0.69499,-1.46486 0.98011,-2.22389 0.27124,-0.71488 0.55725,-1.42479 0.78635,-2.15487 0.20709,-0.69994 0.4742,-1.40235 0.44534,-2.14396 -0.0635,-0.86054 -0.40185,-1.63379 -0.96316,-2.29288 -0.80328,-0.88502 -1.61734,-1.39896 -2.7748,-1.73386 -1.19522,-0.26935 -2.33763,-0.33166 -3.54197,-0.0513 -0.4131,0.10977 -0.57586,0.14198 -0.97447,0.29106 -0.15356,0.0574 -0.59228,0.27728 -0.45402,0.18916 4.00771,-2.55453 2.22004,-1.34007 1.37818,-0.72406 -0.76978,0.67855 -1.38549,1.48809 -1.82915,2.41747 -0.34649,0.84685 -0.59493,1.70343 -0.438,2.62858 0.11229,0.7505 0.29848,1.47427 0.78065,2.08143 0.37356,0.40582 0.78699,0.80596 1.35672,0.889 0.0555,-0.006 0.1128,-0.004 0.16649,-0.0188 0.055,-0.0157 0.2043,-0.10262 0.15522,-0.0732 -0.81329,0.48732 -1.63229,0.96506 -2.44855,1.44738 -0.0558,0.033 0.11809,-0.0571 0.16722,-0.0994 0.10854,-0.0935 0.16175,-0.20845 0.23113,-0.32892 0,0 2.81811,-1.24902 2.81811,-1.24902 z"
       inkscape:connector-curvature="0" />
    <path
       style="fill:#ff0000;stroke-width:1.89999998;stroke-miterlimit:4;stroke-dasharray:7.6, 7.6;stroke-dashoffset:0"
       id="path3003"
       d="m 141.41077,1021.2492 c -0.54695,-0.364 -1.1876,-0.5413 -1.83751,-0.5815 -0.1151,0.011 -0.23243,0.01 -0.3453,0.033 -0.11162,0.025 -0.21535,0.077 -0.32302,0.1155 0.76748,-0.4264 1.52092,-0.879 2.30245,-1.2791 0.12008,-0.061 -0.21859,0.1608 -0.31055,0.2595 -0.25989,0.279 -0.30491,0.4459 -0.46798,0.79 -0.24374,0.8256 -0.0863,1.7021 0.64169,2.2378 0.14884,0.1095 0.32439,0.1771 0.48659,0.2656 0.77061,0.3032 1.61012,0.4227 2.40743,0.1325 0.19223,-0.07 0.72768,-0.374 0.54905,-0.2742 -0.6817,0.3805 -1.37246,0.7446 -2.05869,1.1169 0.69149,-0.6129 1.12901,-1.5153 0.79676,-2.4414 -0.0589,-0.1643 -0.16458,-0.3078 -0.24687,-0.4617 -0.63763,-0.7985 -1.61338,-1.2231 -2.63696,-1.1803 -0.21067,0.01 -0.41801,0.056 -0.62702,0.083 -0.19959,0.07 -0.40751,0.1204 -0.59877,0.2109 -0.18927,0.09 -0.72502,0.4181 -0.53662,0.3267 0.70201,-0.3407 1.34219,-0.8194 2.07933,-1.0753 0.18339,-0.064 -0.24991,0.3006 -0.34136,0.4719 -0.2422,0.4535 -0.19271,0.5665 -0.21248,1.0577 0.0528,0.1726 0.0819,0.3543 0.15832,0.5179 0.36199,0.7745 1.1546,1.2545 1.94017,1.5046 0.22309,0.071 0.45587,0.1069 0.68381,0.1604 0.65694,0.088 1.33587,0.1186 1.95715,-0.1612 0.17279,-0.078 0.65057,-0.3874 0.48041,-0.3039 -2.25974,1.108 -2.63041,1.863 -1.95256,0.7551 0.0319,-0.1371 0.0887,-0.2707 0.0957,-0.4113 0.0477,-0.9587 -0.94242,-1.4174 -1.67187,-1.7172 -0.84184,-0.2286 -1.7285,-0.2951 -2.56576,0 -0.17577,0.061 -0.66773,0.3293 -0.50574,0.2374 0.71396,-0.4049 1.44184,-0.7848 2.16276,-1.1773 -0.0967,0.1071 -0.21256,0.1995 -0.29024,0.3211 -0.35945,0.5626 -0.0755,1.156 0.37506,1.5602 0.14792,0.1327 0.32336,0.231 0.48504,0.3466 0.93484,0.5114 2.02021,0.9047 3.10656,0.7677 0.15599,-0.02 0.30512,-0.076 0.45769,-0.114 1.31971,-0.793 -0.96409,0.5857 -2.00674,1.0779 -0.0857,0.041 0.11558,-0.1541 0.14651,-0.2437 0.11593,-0.3358 -0.10601,-0.5969 -0.28413,-0.8508 -0.51749,-0.4535 -1.22578,-0.8006 -1.93233,-0.7912 -0.12368,0 -0.24462,0.037 -0.36694,0.055 -1.31612,0.696 1.36665,-0.7998 2.06838,-1.1657 0.0749,-0.039 -0.13177,0.1094 -0.17843,0.1797 -0.18525,0.2794 -0.0848,0.5225 0.0348,0.7965 0.60602,0.7094 1.49316,0.9008 2.38554,0.8421 0.12317,-0.04 0.25098,-0.068 0.3695,-0.1201 0.10644,-0.047 0.40323,-0.2319 0.30159,-0.1754 -0.79585,0.4426 -1.57792,0.9105 -2.38425,1.3337 -0.0602,0.032 0.10089,-0.094 0.1349,-0.1532 0.0775,-0.1343 0.0243,-0.1731 -0.0293,-0.3021 -0.42731,-0.4321 -1.03727,-0.4843 -1.61184,-0.4743 -0.99062,0.223 -2.77507,1.4616 2.02371,-1.2344 0.046,-0.026 -0.18925,0.033 -0.0573,0.1359 0.4709,0.2878 0.99873,0.3202 1.53471,0.3036 0.12159,-0.034 0.34002,0.021 0.43666,-0.08 0,0 -2.4669,1.8871 -2.4669,1.8871 l 0,0 c -0.14476,-0.037 -0.3028,0.017 -0.45001,-0.01 -0.60122,-0.034 -1.20262,-0.1359 -1.69303,-0.5129 -0.05,-0.066 -0.11313,-0.1245 -0.15012,-0.1988 -0.0252,-0.051 -0.11417,-0.3353 -0.012,-0.3999 1.32855,-0.8411 1.99467,-1.63 3.30277,-1.6752 0.67858,0.042 1.35597,0.2037 1.80796,0.752 0.0459,0.093 0.10881,0.18 0.13764,0.2799 0.0336,0.1165 0.0616,0.4463 -0.0783,0.5397 -1.18269,0.79 -2.19035,1.6882 -3.55647,1.8827 -0.98806,-0.035 -1.94863,-0.3239 -2.58659,-1.1263 -0.0606,-0.1243 -0.13919,-0.2413 -0.1818,-0.3728 -0.50277,-1.5523 2.26178,-2.4978 3.33735,-2.7292 0.92573,0.01 1.8031,0.3363 2.46594,0.9968 0.18611,0.2614 0.34203,0.4261 0.42088,0.7457 0.35332,1.4318 -2.16242,2.2152 -3.28534,2.6205 -1.36529,0.1614 -2.49001,-0.1993 -3.67438,-0.8728 -0.17731,-0.132 -0.3689,-0.2467 -0.53191,-0.396 -0.52806,-0.4837 -0.895,-1.2057 -0.58479,-1.9161 0.0645,-0.1477 0.17939,-0.2677 0.26909,-0.4015 0.29335,-0.1756 2.34529,-1.6721 3.50561,-1.9677 0.88945,-0.2266 1.80203,-0.1165 2.66741,0.1534 0.20458,0.092 0.41788,0.1658 0.61373,0.2748 0.64794,0.3605 1.25945,0.9841 1.29209,1.7683 0.007,0.1671 -0.0402,0.3319 -0.0603,0.4979 -0.67171,1.5072 -0.11934,0.4972 -3.11865,2.3556 -0.76696,0.4752 -1.69479,0.4123 -2.54365,0.2669 -0.23658,-0.066 -0.47856,-0.1141 -0.70972,-0.1968 -0.86263,-0.3086 -1.68494,-0.8603 -2.09545,-1.707 -0.0924,-0.1906 -0.13741,-0.4007 -0.20612,-0.6011 -0.0128,-0.5518 -0.0734,-0.6882 0.14593,-1.2141 0.55474,-1.3305 2.17382,-1.7623 3.30917,-2.4621 0.18035,-0.1112 0.37295,-0.2045 0.57194,-0.2773 0.20503,-0.075 0.42275,-0.109 0.63413,-0.1635 0.21965,-0.014 0.43898,-0.047 0.65896,-0.04 1.11087,0.031 2.13405,0.5452 2.81121,1.42 0.0962,0.1779 0.21652,0.3448 0.28869,0.5337 0.37985,0.9945 0.0365,2.0146 -0.66069,2.7613 -1.87322,1.1223 -3.35188,2.6412 -5.57411,1.9769 -0.20518,-0.061 -0.39942,-0.1546 -0.59913,-0.232 -0.17802,-0.1092 -0.37039,-0.198 -0.53406,-0.3278 -0.78934,-0.6259 -1.01314,-1.5912 -0.82052,-2.5432 0.13914,-0.3766 0.1793,-0.5594 0.40455,-0.89 0.83405,-1.2243 2.45819,-2.0739 3.94434,-2.0445 0.68899,0.1013 1.34636,0.3132 1.95092,0.6654 0,0 -2.58802,1.6745 -2.58802,1.6745 z"
       inkscape:connector-curvature="0" />
  </g>
</svg>
